%TF.GenerationSoftware,KiCad,Pcbnew,(5.1.9)-1*%
%TF.CreationDate,2021-04-12T23:16:35+02:00*%
%TF.ProjectId,v1_BMR480,76315f42-4d52-4343-9830-2e6b69636164,rev?*%
%TF.SameCoordinates,Original*%
%TF.FileFunction,Legend,Bot*%
%TF.FilePolarity,Positive*%
%FSLAX46Y46*%
G04 Gerber Fmt 4.6, Leading zero omitted, Abs format (unit mm)*
G04 Created by KiCad (PCBNEW (5.1.9)-1) date 2021-04-12 23:16:35*
%MOMM*%
%LPD*%
G01*
G04 APERTURE LIST*
%ADD10C,0.400000*%
%ADD11C,0.127000*%
%ADD12C,0.015000*%
G04 APERTURE END LIST*
D10*
%TO.C,PS1*%
X88772000Y-71173000D02*
G75*
G03*
X88772000Y-71173000I-200000J0D01*
G01*
D11*
X89910000Y-45100000D02*
X89910000Y-81900000D01*
X147310000Y-45100000D02*
X89910000Y-45100000D01*
X147310000Y-81900000D02*
X147310000Y-45100000D01*
X89910000Y-81900000D02*
X147310000Y-81900000D01*
D12*
X94950000Y-83702866D02*
X94950000Y-82582866D01*
X94523333Y-82582866D01*
X94416666Y-82636200D01*
X94363333Y-82689533D01*
X94310000Y-82796200D01*
X94310000Y-82956200D01*
X94363333Y-83062866D01*
X94416666Y-83116200D01*
X94523333Y-83169533D01*
X94950000Y-83169533D01*
X93883333Y-83649533D02*
X93723333Y-83702866D01*
X93456666Y-83702866D01*
X93350000Y-83649533D01*
X93296666Y-83596200D01*
X93243333Y-83489533D01*
X93243333Y-83382866D01*
X93296666Y-83276200D01*
X93350000Y-83222866D01*
X93456666Y-83169533D01*
X93670000Y-83116200D01*
X93776666Y-83062866D01*
X93830000Y-83009533D01*
X93883333Y-82902866D01*
X93883333Y-82796200D01*
X93830000Y-82689533D01*
X93776666Y-82636200D01*
X93670000Y-82582866D01*
X93403333Y-82582866D01*
X93243333Y-82636200D01*
X92176666Y-83702866D02*
X92816666Y-83702866D01*
X92496666Y-83702866D02*
X92496666Y-82582866D01*
X92603333Y-82742866D01*
X92710000Y-82849533D01*
X92816666Y-82902866D01*
%TD*%
M02*
