%TF.GenerationSoftware,KiCad,Pcbnew,(5.1.9)-1*%
%TF.CreationDate,2021-04-12T23:16:35+02:00*%
%TF.ProjectId,v1_BMR480,76315f42-4d52-4343-9830-2e6b69636164,rev?*%
%TF.SameCoordinates,Original*%
%TF.FileFunction,Legend,Top*%
%TF.FilePolarity,Positive*%
%FSLAX46Y46*%
G04 Gerber Fmt 4.6, Leading zero omitted, Abs format (unit mm)*
G04 Created by KiCad (PCBNEW (5.1.9)-1) date 2021-04-12 23:16:35*
%MOMM*%
%LPD*%
G01*
G04 APERTURE LIST*
%ADD10C,0.120000*%
%ADD11C,0.150000*%
G04 APERTURE END LIST*
D10*
%TO.C,R1*%
X124110000Y-65420000D02*
X124110000Y-61580000D01*
X122270000Y-65420000D02*
X122270000Y-61580000D01*
%TO.C,J10*%
X79950000Y-63500000D02*
X79950000Y-62170000D01*
X79950000Y-62170000D02*
X81280000Y-62170000D01*
X82550000Y-62170000D02*
X87690000Y-62170000D01*
X87690000Y-64830000D02*
X87690000Y-62170000D01*
X82550000Y-64830000D02*
X87690000Y-64830000D01*
X82550000Y-64830000D02*
X82550000Y-62170000D01*
%TO.C,J9*%
X181610000Y-67310000D02*
X181610000Y-81915000D01*
X181610000Y-81915000D02*
X172720000Y-81915000D01*
X172720000Y-81915000D02*
X172720000Y-67310000D01*
X172720000Y-67310000D02*
X181610000Y-67310000D01*
X171450000Y-79375000D02*
X171450000Y-78105000D01*
X171450000Y-70485000D02*
X171450000Y-69215000D01*
X170815000Y-69850000D02*
X172085000Y-69850000D01*
%TO.C,J8*%
X181610000Y-45720000D02*
X181610000Y-60325000D01*
X181610000Y-60325000D02*
X172720000Y-60325000D01*
X172720000Y-60325000D02*
X172720000Y-45720000D01*
X172720000Y-45720000D02*
X181610000Y-45720000D01*
X171450000Y-57785000D02*
X171450000Y-56515000D01*
X171450000Y-48895000D02*
X171450000Y-47625000D01*
X170815000Y-48260000D02*
X172085000Y-48260000D01*
%TO.C,J7*%
X159131000Y-67310000D02*
X159131000Y-81915000D01*
X159131000Y-81915000D02*
X150241000Y-81915000D01*
X150241000Y-81915000D02*
X150241000Y-67310000D01*
X150241000Y-67310000D02*
X159131000Y-67310000D01*
X148971000Y-79375000D02*
X148971000Y-78105000D01*
X148971000Y-70485000D02*
X148971000Y-69215000D01*
X148336000Y-69850000D02*
X149606000Y-69850000D01*
%TO.C,J6*%
X170180000Y-45720000D02*
X170180000Y-60325000D01*
X170180000Y-60325000D02*
X161290000Y-60325000D01*
X161290000Y-60325000D02*
X161290000Y-45720000D01*
X161290000Y-45720000D02*
X170180000Y-45720000D01*
X160020000Y-57785000D02*
X160020000Y-56515000D01*
X160020000Y-48895000D02*
X160020000Y-47625000D01*
X159385000Y-48260000D02*
X160655000Y-48260000D01*
%TO.C,J5*%
X158750000Y-45720000D02*
X158750000Y-60325000D01*
X158750000Y-60325000D02*
X149860000Y-60325000D01*
X149860000Y-60325000D02*
X149860000Y-45720000D01*
X149860000Y-45720000D02*
X158750000Y-45720000D01*
X148590000Y-57785000D02*
X148590000Y-56515000D01*
X148590000Y-48895000D02*
X148590000Y-47625000D01*
X147955000Y-48260000D02*
X149225000Y-48260000D01*
%TO.C,J4*%
X170180000Y-67310000D02*
X170180000Y-81915000D01*
X170180000Y-81915000D02*
X161290000Y-81915000D01*
X161290000Y-81915000D02*
X161290000Y-67310000D01*
X161290000Y-67310000D02*
X170180000Y-67310000D01*
X160020000Y-79375000D02*
X160020000Y-78105000D01*
X160020000Y-70485000D02*
X160020000Y-69215000D01*
X159385000Y-69850000D02*
X160655000Y-69850000D01*
%TO.C,J3*%
X136100000Y-54300000D02*
X134850000Y-54300000D01*
X136100000Y-55550000D02*
X136100000Y-54300000D01*
X130600000Y-71450000D02*
X130600000Y-63400000D01*
X133550000Y-71450000D02*
X130600000Y-71450000D01*
X133550000Y-72200000D02*
X133550000Y-71450000D01*
X130600000Y-55350000D02*
X130600000Y-63400000D01*
X133550000Y-55350000D02*
X130600000Y-55350000D01*
X133550000Y-54600000D02*
X133550000Y-55350000D01*
X135800000Y-72200000D02*
X135800000Y-70400000D01*
X135050000Y-72200000D02*
X135800000Y-72200000D01*
X135050000Y-70400000D02*
X135050000Y-72200000D01*
X135800000Y-70400000D02*
X135050000Y-70400000D01*
X135800000Y-56400000D02*
X135800000Y-54600000D01*
X135050000Y-56400000D02*
X135800000Y-56400000D01*
X135050000Y-54600000D02*
X135050000Y-56400000D01*
X135800000Y-54600000D02*
X135050000Y-54600000D01*
X135800000Y-68900000D02*
X135800000Y-57900000D01*
X135050000Y-68900000D02*
X135800000Y-68900000D01*
X135050000Y-57900000D02*
X135050000Y-68900000D01*
X135800000Y-57900000D02*
X135050000Y-57900000D01*
X135810000Y-72210000D02*
X135810000Y-54590000D01*
X129840000Y-72210000D02*
X135810000Y-72210000D01*
X129840000Y-54590000D02*
X129840000Y-72210000D01*
X135810000Y-54590000D02*
X129840000Y-54590000D01*
%TO.C,J2*%
X78740000Y-81915000D02*
X78740000Y-67310000D01*
X87630000Y-67310000D02*
X87630000Y-81915000D01*
X77470000Y-79375000D02*
X77470000Y-78105000D01*
X78740000Y-67310000D02*
X87630000Y-67310000D01*
X76835000Y-69850000D02*
X78105000Y-69850000D01*
X87630000Y-81915000D02*
X78740000Y-81915000D01*
X77470000Y-70485000D02*
X77470000Y-69215000D01*
%TO.C,J1*%
X87630000Y-45085000D02*
X87630000Y-59690000D01*
X78740000Y-59690000D02*
X78740000Y-45085000D01*
X88900000Y-47625000D02*
X88900000Y-48895000D01*
X87630000Y-59690000D02*
X78740000Y-59690000D01*
X89535000Y-57150000D02*
X88265000Y-57150000D01*
X78740000Y-45085000D02*
X87630000Y-45085000D01*
X88900000Y-56515000D02*
X88900000Y-57785000D01*
%TO.C,D1*%
X118300000Y-62030000D02*
X118120000Y-62030000D01*
X120640000Y-62030000D02*
X120460000Y-62030000D01*
X118300000Y-61910000D02*
X118120000Y-61910000D01*
X120640000Y-61910000D02*
X120460000Y-61910000D01*
X118285000Y-65210000D02*
X118120000Y-65210000D01*
X120640000Y-65210000D02*
X120475000Y-65210000D01*
X118300000Y-61790000D02*
X118120000Y-61790000D01*
X120640000Y-61790000D02*
X120460000Y-61790000D01*
X118120000Y-61790000D02*
X118120000Y-65210000D01*
X120640000Y-61790000D02*
X120640000Y-65210000D01*
%TO.C,R1*%
D11*
X121722380Y-63666666D02*
X121246190Y-64000000D01*
X121722380Y-64238095D02*
X120722380Y-64238095D01*
X120722380Y-63857142D01*
X120770000Y-63761904D01*
X120817619Y-63714285D01*
X120912857Y-63666666D01*
X121055714Y-63666666D01*
X121150952Y-63714285D01*
X121198571Y-63761904D01*
X121246190Y-63857142D01*
X121246190Y-64238095D01*
X121722380Y-62714285D02*
X121722380Y-63285714D01*
X121722380Y-63000000D02*
X120722380Y-63000000D01*
X120865238Y-63095238D01*
X120960476Y-63190476D01*
X121008095Y-63285714D01*
%TO.C,J10*%
X77962380Y-64309523D02*
X78676666Y-64309523D01*
X78819523Y-64357142D01*
X78914761Y-64452380D01*
X78962380Y-64595238D01*
X78962380Y-64690476D01*
X78962380Y-63309523D02*
X78962380Y-63880952D01*
X78962380Y-63595238D02*
X77962380Y-63595238D01*
X78105238Y-63690476D01*
X78200476Y-63785714D01*
X78248095Y-63880952D01*
X77962380Y-62690476D02*
X77962380Y-62595238D01*
X78010000Y-62500000D01*
X78057619Y-62452380D01*
X78152857Y-62404761D01*
X78343333Y-62357142D01*
X78581428Y-62357142D01*
X78771904Y-62404761D01*
X78867142Y-62452380D01*
X78914761Y-62500000D01*
X78962380Y-62595238D01*
X78962380Y-62690476D01*
X78914761Y-62785714D01*
X78867142Y-62833333D01*
X78771904Y-62880952D01*
X78581428Y-62928571D01*
X78343333Y-62928571D01*
X78152857Y-62880952D01*
X78057619Y-62833333D01*
X78010000Y-62785714D01*
X77962380Y-62690476D01*
%TO.C,J9*%
X177466666Y-65492380D02*
X177466666Y-66206666D01*
X177419047Y-66349523D01*
X177323809Y-66444761D01*
X177180952Y-66492380D01*
X177085714Y-66492380D01*
X177990476Y-66492380D02*
X178180952Y-66492380D01*
X178276190Y-66444761D01*
X178323809Y-66397142D01*
X178419047Y-66254285D01*
X178466666Y-66063809D01*
X178466666Y-65682857D01*
X178419047Y-65587619D01*
X178371428Y-65540000D01*
X178276190Y-65492380D01*
X178085714Y-65492380D01*
X177990476Y-65540000D01*
X177942857Y-65587619D01*
X177895238Y-65682857D01*
X177895238Y-65920952D01*
X177942857Y-66016190D01*
X177990476Y-66063809D01*
X178085714Y-66111428D01*
X178276190Y-66111428D01*
X178371428Y-66063809D01*
X178419047Y-66016190D01*
X178466666Y-65920952D01*
%TO.C,J8*%
X173656666Y-51522380D02*
X173656666Y-52236666D01*
X173609047Y-52379523D01*
X173513809Y-52474761D01*
X173370952Y-52522380D01*
X173275714Y-52522380D01*
X174275714Y-51950952D02*
X174180476Y-51903333D01*
X174132857Y-51855714D01*
X174085238Y-51760476D01*
X174085238Y-51712857D01*
X174132857Y-51617619D01*
X174180476Y-51570000D01*
X174275714Y-51522380D01*
X174466190Y-51522380D01*
X174561428Y-51570000D01*
X174609047Y-51617619D01*
X174656666Y-51712857D01*
X174656666Y-51760476D01*
X174609047Y-51855714D01*
X174561428Y-51903333D01*
X174466190Y-51950952D01*
X174275714Y-51950952D01*
X174180476Y-51998571D01*
X174132857Y-52046190D01*
X174085238Y-52141428D01*
X174085238Y-52331904D01*
X174132857Y-52427142D01*
X174180476Y-52474761D01*
X174275714Y-52522380D01*
X174466190Y-52522380D01*
X174561428Y-52474761D01*
X174609047Y-52427142D01*
X174656666Y-52331904D01*
X174656666Y-52141428D01*
X174609047Y-52046190D01*
X174561428Y-51998571D01*
X174466190Y-51950952D01*
%TO.C,J7*%
X154987666Y-65492380D02*
X154987666Y-66206666D01*
X154940047Y-66349523D01*
X154844809Y-66444761D01*
X154701952Y-66492380D01*
X154606714Y-66492380D01*
X155368619Y-65492380D02*
X156035285Y-65492380D01*
X155606714Y-66492380D01*
%TO.C,J6*%
X169846666Y-51522380D02*
X169846666Y-52236666D01*
X169799047Y-52379523D01*
X169703809Y-52474761D01*
X169560952Y-52522380D01*
X169465714Y-52522380D01*
X170751428Y-51522380D02*
X170560952Y-51522380D01*
X170465714Y-51570000D01*
X170418095Y-51617619D01*
X170322857Y-51760476D01*
X170275238Y-51950952D01*
X170275238Y-52331904D01*
X170322857Y-52427142D01*
X170370476Y-52474761D01*
X170465714Y-52522380D01*
X170656190Y-52522380D01*
X170751428Y-52474761D01*
X170799047Y-52427142D01*
X170846666Y-52331904D01*
X170846666Y-52093809D01*
X170799047Y-51998571D01*
X170751428Y-51950952D01*
X170656190Y-51903333D01*
X170465714Y-51903333D01*
X170370476Y-51950952D01*
X170322857Y-51998571D01*
X170275238Y-52093809D01*
%TO.C,J5*%
X158416666Y-51522380D02*
X158416666Y-52236666D01*
X158369047Y-52379523D01*
X158273809Y-52474761D01*
X158130952Y-52522380D01*
X158035714Y-52522380D01*
X159369047Y-51522380D02*
X158892857Y-51522380D01*
X158845238Y-51998571D01*
X158892857Y-51950952D01*
X158988095Y-51903333D01*
X159226190Y-51903333D01*
X159321428Y-51950952D01*
X159369047Y-51998571D01*
X159416666Y-52093809D01*
X159416666Y-52331904D01*
X159369047Y-52427142D01*
X159321428Y-52474761D01*
X159226190Y-52522380D01*
X158988095Y-52522380D01*
X158892857Y-52474761D01*
X158845238Y-52427142D01*
%TO.C,J4*%
X166036666Y-65492380D02*
X166036666Y-66206666D01*
X165989047Y-66349523D01*
X165893809Y-66444761D01*
X165750952Y-66492380D01*
X165655714Y-66492380D01*
X166941428Y-65825714D02*
X166941428Y-66492380D01*
X166703333Y-65444761D02*
X166465238Y-66159047D01*
X167084285Y-66159047D01*
%TO.C,J3*%
X136352380Y-63733333D02*
X137066666Y-63733333D01*
X137209523Y-63780952D01*
X137304761Y-63876190D01*
X137352380Y-64019047D01*
X137352380Y-64114285D01*
X136352380Y-63352380D02*
X136352380Y-62733333D01*
X136733333Y-63066666D01*
X136733333Y-62923809D01*
X136780952Y-62828571D01*
X136828571Y-62780952D01*
X136923809Y-62733333D01*
X137161904Y-62733333D01*
X137257142Y-62780952D01*
X137304761Y-62828571D01*
X137352380Y-62923809D01*
X137352380Y-63209523D01*
X137304761Y-63304761D01*
X137257142Y-63352380D01*
%TO.C,J2*%
X83486666Y-65492380D02*
X83486666Y-66206666D01*
X83439047Y-66349523D01*
X83343809Y-66444761D01*
X83200952Y-66492380D01*
X83105714Y-66492380D01*
X83915238Y-65587619D02*
X83962857Y-65540000D01*
X84058095Y-65492380D01*
X84296190Y-65492380D01*
X84391428Y-65540000D01*
X84439047Y-65587619D01*
X84486666Y-65682857D01*
X84486666Y-65778095D01*
X84439047Y-65920952D01*
X83867619Y-66492380D01*
X84486666Y-66492380D01*
%TO.C,J1*%
X82216666Y-60412380D02*
X82216666Y-61126666D01*
X82169047Y-61269523D01*
X82073809Y-61364761D01*
X81930952Y-61412380D01*
X81835714Y-61412380D01*
X83216666Y-61412380D02*
X82645238Y-61412380D01*
X82930952Y-61412380D02*
X82930952Y-60412380D01*
X82835714Y-60555238D01*
X82740476Y-60650476D01*
X82645238Y-60698095D01*
%TO.C,D1*%
X122092380Y-64238095D02*
X121092380Y-64238095D01*
X121092380Y-64000000D01*
X121140000Y-63857142D01*
X121235238Y-63761904D01*
X121330476Y-63714285D01*
X121520952Y-63666666D01*
X121663809Y-63666666D01*
X121854285Y-63714285D01*
X121949523Y-63761904D01*
X122044761Y-63857142D01*
X122092380Y-64000000D01*
X122092380Y-64238095D01*
X122092380Y-62714285D02*
X122092380Y-63285714D01*
X122092380Y-63000000D02*
X121092380Y-63000000D01*
X121235238Y-63095238D01*
X121330476Y-63190476D01*
X121378095Y-63285714D01*
%TD*%
M02*
