%FSLAX45Y45*%
G04 Gerber Fmt 4.5, Leading zero omitted, Abs format (unit mm)*
G04 Created by KiCad (PCBNEW (5.1.9)-1) date 2021-04-12 23:16:39*
%MOMM*%
%LPD*%
G01*
G04 APERTURE LIST*
%TA.AperFunction,Profile*%
%ADD10C,0.050000*%
%TD*%
%ADD11C,0.200000*%
%ADD12C,0.300000*%
G04 APERTURE END LIST*
D10*
X18288000Y-8255000D02*
X18288000Y-4445000D01*
X7620000Y-8255000D02*
X18288000Y-8255000D01*
X7620000Y-4445000D02*
X7620000Y-8255000D01*
X18288000Y-4445000D02*
X7620000Y-4445000D01*
D11*
X12284000Y-6061000D02*
X12354000Y-6131000D01*
X12354000Y-6061000D02*
X12284000Y-6131000D01*
X12284000Y-6569000D02*
X12354000Y-6639000D01*
X12354000Y-6569000D02*
X12284000Y-6639000D01*
X11983000Y-6223000D02*
G75*
G03*
X11983000Y-6223000I-45000J0D01*
G01*
X11983000Y-6477000D02*
G75*
G03*
X11983000Y-6477000I-45000J0D01*
G01*
X13335000Y-5667500D02*
X13335000Y-5762500D01*
X13287500Y-5715000D02*
X13382500Y-5715000D01*
X13335000Y-5917500D02*
X13335000Y-6012500D01*
X13287500Y-5965000D02*
X13382500Y-5965000D01*
X13335000Y-6167500D02*
X13335000Y-6262500D01*
X13287500Y-6215000D02*
X13382500Y-6215000D01*
X13335000Y-6417500D02*
X13335000Y-6512500D01*
X13287500Y-6465000D02*
X13382500Y-6465000D01*
X13335000Y-6667500D02*
X13335000Y-6762500D01*
X13287500Y-6715000D02*
X13382500Y-6715000D01*
X13335000Y-6917500D02*
X13335000Y-7012500D01*
X13287500Y-6965000D02*
X13382500Y-6965000D01*
X8163356Y-6385356D02*
X8163356Y-6314644D01*
X8092644Y-6314644D01*
X8092644Y-6385356D01*
X8163356Y-6385356D01*
X8417356Y-6385356D02*
X8417356Y-6314644D01*
X8346644Y-6314644D01*
X8346644Y-6385356D01*
X8417356Y-6385356D01*
X8671356Y-6385356D02*
X8671356Y-6314644D01*
X8600644Y-6314644D01*
X8600644Y-6385356D01*
X8671356Y-6385356D01*
X14640356Y-5785356D02*
X14640356Y-5714644D01*
X14569644Y-5714644D01*
X14569644Y-5785356D01*
X14640356Y-5785356D01*
X14646356Y-5985356D02*
X14646356Y-5914644D01*
X14575644Y-5914644D01*
X14575644Y-5985356D01*
X14646356Y-5985356D01*
X14646356Y-6185356D02*
X14646356Y-6114644D01*
X14575644Y-6114644D01*
X14575644Y-6185356D01*
X14646356Y-6185356D01*
X14646356Y-6385356D02*
X14646356Y-6314644D01*
X14575644Y-6314644D01*
X14575644Y-6385356D01*
X14646356Y-6385356D01*
X14646356Y-6585356D02*
X14646356Y-6514644D01*
X14575644Y-6514644D01*
X14575644Y-6585356D01*
X14646356Y-6585356D01*
X14646356Y-6785356D02*
X14646356Y-6714644D01*
X14575644Y-6714644D01*
X14575644Y-6785356D01*
X14646356Y-6785356D01*
X14646356Y-6985356D02*
X14646356Y-6914644D01*
X14575644Y-6914644D01*
X14575644Y-6985356D01*
X14646356Y-6985356D01*
X9271000Y-5653000D02*
X9336000Y-5588000D01*
X9271000Y-5523000D01*
X9206000Y-5588000D01*
X9271000Y-5653000D01*
X9271000Y-6415000D02*
X9336000Y-6350000D01*
X9271000Y-6285000D01*
X9206000Y-6350000D01*
X9271000Y-6415000D01*
X9271000Y-7177000D02*
X9336000Y-7112000D01*
X9271000Y-7047000D01*
X9206000Y-7112000D01*
X9271000Y-7177000D01*
X8154650Y-4855250D02*
X8319750Y-5020350D01*
X8319750Y-4855250D02*
X8154650Y-5020350D01*
X8319750Y-4937800D02*
G75*
G03*
X8319750Y-4937800I-82550J0D01*
G01*
X8164650Y-4791750D02*
X8164650Y-5083850D01*
X8309750Y-4791750D02*
X8309750Y-5083850D01*
X8164650Y-5083850D02*
G75*
G03*
X8309750Y-5083850I72550J0D01*
G01*
X8309750Y-4791750D02*
G75*
G03*
X8164650Y-4791750I-72550J0D01*
G01*
X8210550Y-5454650D02*
X8375650Y-5619750D01*
X8375650Y-5454650D02*
X8210550Y-5619750D01*
X8375650Y-5537200D02*
G75*
G03*
X8375650Y-5537200I-82550J0D01*
G01*
X8439150Y-5464650D02*
X8147050Y-5464650D01*
X8439150Y-5609750D02*
X8147050Y-5609750D01*
X8147050Y-5464650D02*
G75*
G03*
X8147050Y-5609750I0J-72550D01*
G01*
X8439150Y-5609750D02*
G75*
G03*
X8439150Y-5464650I0J72550D01*
G01*
X8261350Y-7080250D02*
X8426450Y-7245350D01*
X8426450Y-7080250D02*
X8261350Y-7245350D01*
X8426450Y-7162800D02*
G75*
G03*
X8426450Y-7162800I-82550J0D01*
G01*
X8197850Y-7235350D02*
X8489950Y-7235350D01*
X8197850Y-7090250D02*
X8489950Y-7090250D01*
X8489950Y-7235350D02*
G75*
G03*
X8489950Y-7090250I0J72550D01*
G01*
X8197850Y-7090250D02*
G75*
G03*
X8197850Y-7235350I0J-72550D01*
G01*
X8317250Y-7679650D02*
X8482350Y-7844750D01*
X8482350Y-7679650D02*
X8317250Y-7844750D01*
X8482350Y-7762200D02*
G75*
G03*
X8482350Y-7762200I-82550J0D01*
G01*
X8472350Y-7908250D02*
X8472350Y-7616150D01*
X8327250Y-7908250D02*
X8327250Y-7616150D01*
X8472350Y-7616150D02*
G75*
G03*
X8327250Y-7616150I-72550J0D01*
G01*
X8327250Y-7908250D02*
G75*
G03*
X8472350Y-7908250I72550J0D01*
G01*
X15373350Y-4768850D02*
X15538450Y-4933950D01*
X15538450Y-4768850D02*
X15373350Y-4933950D01*
X15538450Y-4851400D02*
G75*
G03*
X15538450Y-4851400I-82550J0D01*
G01*
X15309850Y-4923950D02*
X15601950Y-4923950D01*
X15309850Y-4778850D02*
X15601950Y-4778850D01*
X15601950Y-4923950D02*
G75*
G03*
X15601950Y-4778850I0J72550D01*
G01*
X15309850Y-4778850D02*
G75*
G03*
X15309850Y-4923950I0J-72550D01*
G01*
X15411450Y-6927850D02*
X15576550Y-7092950D01*
X15576550Y-6927850D02*
X15411450Y-7092950D01*
X15576550Y-7010400D02*
G75*
G03*
X15576550Y-7010400I-82550J0D01*
G01*
X15347950Y-7082950D02*
X15640050Y-7082950D01*
X15347950Y-6937850D02*
X15640050Y-6937850D01*
X15640050Y-7082950D02*
G75*
G03*
X15640050Y-6937850I0J72550D01*
G01*
X15347950Y-6937850D02*
G75*
G03*
X15347950Y-7082950I0J-72550D01*
G01*
X15449550Y-5492750D02*
X15614650Y-5657850D01*
X15614650Y-5492750D02*
X15449550Y-5657850D01*
X15614650Y-5575300D02*
G75*
G03*
X15614650Y-5575300I-82550J0D01*
G01*
X15604650Y-5721350D02*
X15604650Y-5429250D01*
X15459550Y-5721350D02*
X15459550Y-5429250D01*
X15604650Y-5429250D02*
G75*
G03*
X15459550Y-5429250I-72550J0D01*
G01*
X15459550Y-5721350D02*
G75*
G03*
X15604650Y-5721350I72550J0D01*
G01*
X15487650Y-7651750D02*
X15652750Y-7816850D01*
X15652750Y-7651750D02*
X15487650Y-7816850D01*
X15652750Y-7734300D02*
G75*
G03*
X15652750Y-7734300I-82550J0D01*
G01*
X15642750Y-7880350D02*
X15642750Y-7588250D01*
X15497650Y-7880350D02*
X15497650Y-7588250D01*
X15642750Y-7588250D02*
G75*
G03*
X15497650Y-7588250I-72550J0D01*
G01*
X15497650Y-7880350D02*
G75*
G03*
X15642750Y-7880350I72550J0D01*
G01*
X16516350Y-4768850D02*
X16681450Y-4933950D01*
X16681450Y-4768850D02*
X16516350Y-4933950D01*
X16681450Y-4851400D02*
G75*
G03*
X16681450Y-4851400I-82550J0D01*
G01*
X16452850Y-4923950D02*
X16744950Y-4923950D01*
X16452850Y-4778850D02*
X16744950Y-4778850D01*
X16744950Y-4923950D02*
G75*
G03*
X16744950Y-4778850I0J72550D01*
G01*
X16452850Y-4778850D02*
G75*
G03*
X16452850Y-4923950I0J-72550D01*
G01*
X16516350Y-6927850D02*
X16681450Y-7092950D01*
X16681450Y-6927850D02*
X16516350Y-7092950D01*
X16681450Y-7010400D02*
G75*
G03*
X16681450Y-7010400I-82550J0D01*
G01*
X16452850Y-7082950D02*
X16744950Y-7082950D01*
X16452850Y-6937850D02*
X16744950Y-6937850D01*
X16744950Y-7082950D02*
G75*
G03*
X16744950Y-6937850I0J72550D01*
G01*
X16452850Y-6937850D02*
G75*
G03*
X16452850Y-7082950I0J-72550D01*
G01*
X16592550Y-5492750D02*
X16757650Y-5657850D01*
X16757650Y-5492750D02*
X16592550Y-5657850D01*
X16757650Y-5575300D02*
G75*
G03*
X16757650Y-5575300I-82550J0D01*
G01*
X16747650Y-5721350D02*
X16747650Y-5429250D01*
X16602550Y-5721350D02*
X16602550Y-5429250D01*
X16747650Y-5429250D02*
G75*
G03*
X16602550Y-5429250I-72550J0D01*
G01*
X16602550Y-5721350D02*
G75*
G03*
X16747650Y-5721350I72550J0D01*
G01*
X16592550Y-7651750D02*
X16757650Y-7816850D01*
X16757650Y-7651750D02*
X16592550Y-7816850D01*
X16757650Y-7734300D02*
G75*
G03*
X16757650Y-7734300I-82550J0D01*
G01*
X16747650Y-7880350D02*
X16747650Y-7588250D01*
X16602550Y-7880350D02*
X16602550Y-7588250D01*
X16747650Y-7588250D02*
G75*
G03*
X16602550Y-7588250I-72550J0D01*
G01*
X16602550Y-7880350D02*
G75*
G03*
X16747650Y-7880350I72550J0D01*
G01*
X17659350Y-4768850D02*
X17824450Y-4933950D01*
X17824450Y-4768850D02*
X17659350Y-4933950D01*
X17824450Y-4851400D02*
G75*
G03*
X17824450Y-4851400I-82550J0D01*
G01*
X17595850Y-4923950D02*
X17887950Y-4923950D01*
X17595850Y-4778850D02*
X17887950Y-4778850D01*
X17887950Y-4923950D02*
G75*
G03*
X17887950Y-4778850I0J72550D01*
G01*
X17595850Y-4778850D02*
G75*
G03*
X17595850Y-4923950I0J-72550D01*
G01*
X17659350Y-6927850D02*
X17824450Y-7092950D01*
X17824450Y-6927850D02*
X17659350Y-7092950D01*
X17824450Y-7010400D02*
G75*
G03*
X17824450Y-7010400I-82550J0D01*
G01*
X17595850Y-7082950D02*
X17887950Y-7082950D01*
X17595850Y-6937850D02*
X17887950Y-6937850D01*
X17887950Y-7082950D02*
G75*
G03*
X17887950Y-6937850I0J72550D01*
G01*
X17595850Y-6937850D02*
G75*
G03*
X17595850Y-7082950I0J-72550D01*
G01*
X17735550Y-5492750D02*
X17900650Y-5657850D01*
X17900650Y-5492750D02*
X17735550Y-5657850D01*
X17900650Y-5575300D02*
G75*
G03*
X17900650Y-5575300I-82550J0D01*
G01*
X17890650Y-5721350D02*
X17890650Y-5429250D01*
X17745550Y-5721350D02*
X17745550Y-5429250D01*
X17890650Y-5429250D02*
G75*
G03*
X17745550Y-5429250I-72550J0D01*
G01*
X17745550Y-5721350D02*
G75*
G03*
X17890650Y-5721350I72550J0D01*
G01*
X17735550Y-7651750D02*
X17900650Y-7816850D01*
X17900650Y-7651750D02*
X17735550Y-7816850D01*
X17900650Y-7734300D02*
G75*
G03*
X17900650Y-7734300I-82550J0D01*
G01*
X17890650Y-7880350D02*
X17890650Y-7588250D01*
X17745550Y-7880350D02*
X17745550Y-7588250D01*
X17890650Y-7588250D02*
G75*
G03*
X17745550Y-7588250I-72550J0D01*
G01*
X17745550Y-7880350D02*
G75*
G03*
X17890650Y-7880350I72550J0D01*
G01*
X14258500Y-5114500D02*
X14443500Y-5299500D01*
X14443500Y-5114500D02*
X14258500Y-5299500D01*
X14351000Y-5114500D02*
X14351000Y-5299500D01*
X14258500Y-5207000D02*
X14443500Y-5207000D01*
X14258500Y-5495500D02*
X14443500Y-5680500D01*
X14443500Y-5495500D02*
X14258500Y-5680500D01*
X14351000Y-5495500D02*
X14351000Y-5680500D01*
X14258500Y-5588000D02*
X14443500Y-5588000D01*
X14258500Y-7019500D02*
X14443500Y-7204500D01*
X14443500Y-7019500D02*
X14258500Y-7204500D01*
X14351000Y-7019500D02*
X14351000Y-7204500D01*
X14258500Y-7112000D02*
X14443500Y-7112000D01*
X14258500Y-7400500D02*
X14443500Y-7585500D01*
X14443500Y-7400500D02*
X14258500Y-7585500D01*
X14351000Y-7400500D02*
X14351000Y-7585500D01*
X14258500Y-7493000D02*
X14443500Y-7493000D01*
D12*
X7903928Y-8723214D02*
X7903928Y-8423214D01*
X7975357Y-8423214D01*
X8018214Y-8437500D01*
X8046786Y-8466072D01*
X8061071Y-8494643D01*
X8075357Y-8551786D01*
X8075357Y-8594643D01*
X8061071Y-8651786D01*
X8046786Y-8680357D01*
X8018214Y-8708929D01*
X7975357Y-8723214D01*
X7903928Y-8723214D01*
X8203928Y-8723214D02*
X8203928Y-8523214D01*
X8203928Y-8580357D02*
X8218214Y-8551786D01*
X8232500Y-8537500D01*
X8261071Y-8523214D01*
X8289643Y-8523214D01*
X8389643Y-8723214D02*
X8389643Y-8523214D01*
X8389643Y-8423214D02*
X8375357Y-8437500D01*
X8389643Y-8451786D01*
X8403928Y-8437500D01*
X8389643Y-8423214D01*
X8389643Y-8451786D01*
X8575357Y-8723214D02*
X8546786Y-8708929D01*
X8532500Y-8680357D01*
X8532500Y-8423214D01*
X8732500Y-8723214D02*
X8703928Y-8708929D01*
X8689643Y-8680357D01*
X8689643Y-8423214D01*
X9075357Y-8723214D02*
X9075357Y-8423214D01*
X9175357Y-8637500D01*
X9275357Y-8423214D01*
X9275357Y-8723214D01*
X9546786Y-8723214D02*
X9546786Y-8566072D01*
X9532500Y-8537500D01*
X9503928Y-8523214D01*
X9446786Y-8523214D01*
X9418214Y-8537500D01*
X9546786Y-8708929D02*
X9518214Y-8723214D01*
X9446786Y-8723214D01*
X9418214Y-8708929D01*
X9403928Y-8680357D01*
X9403928Y-8651786D01*
X9418214Y-8623214D01*
X9446786Y-8608929D01*
X9518214Y-8608929D01*
X9546786Y-8594643D01*
X9689643Y-8523214D02*
X9689643Y-8823214D01*
X9689643Y-8537500D02*
X9718214Y-8523214D01*
X9775357Y-8523214D01*
X9803928Y-8537500D01*
X9818214Y-8551786D01*
X9832500Y-8580357D01*
X9832500Y-8666072D01*
X9818214Y-8694643D01*
X9803928Y-8708929D01*
X9775357Y-8723214D01*
X9718214Y-8723214D01*
X9689643Y-8708929D01*
X9961071Y-8694643D02*
X9975357Y-8708929D01*
X9961071Y-8723214D01*
X9946786Y-8708929D01*
X9961071Y-8694643D01*
X9961071Y-8723214D01*
X9961071Y-8537500D02*
X9975357Y-8551786D01*
X9961071Y-8566072D01*
X9946786Y-8551786D01*
X9961071Y-8537500D01*
X9961071Y-8566072D01*
X7547500Y-9182500D02*
X7617500Y-9252500D01*
X7617500Y-9182500D02*
X7547500Y-9252500D01*
X7961071Y-9053214D02*
X7989643Y-9053214D01*
X8018214Y-9067500D01*
X8032500Y-9081786D01*
X8046786Y-9110357D01*
X8061071Y-9167500D01*
X8061071Y-9238929D01*
X8046786Y-9296072D01*
X8032500Y-9324643D01*
X8018214Y-9338929D01*
X7989643Y-9353214D01*
X7961071Y-9353214D01*
X7932500Y-9338929D01*
X7918214Y-9324643D01*
X7903928Y-9296072D01*
X7889643Y-9238929D01*
X7889643Y-9167500D01*
X7903928Y-9110357D01*
X7918214Y-9081786D01*
X7932500Y-9067500D01*
X7961071Y-9053214D01*
X8189643Y-9324643D02*
X8203928Y-9338929D01*
X8189643Y-9353214D01*
X8175357Y-9338929D01*
X8189643Y-9324643D01*
X8189643Y-9353214D01*
X8303928Y-9053214D02*
X8503928Y-9053214D01*
X8375357Y-9353214D01*
X8675357Y-9053214D02*
X8703928Y-9053214D01*
X8732500Y-9067500D01*
X8746786Y-9081786D01*
X8761071Y-9110357D01*
X8775357Y-9167500D01*
X8775357Y-9238929D01*
X8761071Y-9296072D01*
X8746786Y-9324643D01*
X8732500Y-9338929D01*
X8703928Y-9353214D01*
X8675357Y-9353214D01*
X8646786Y-9338929D01*
X8632500Y-9324643D01*
X8618214Y-9296072D01*
X8603928Y-9238929D01*
X8603928Y-9167500D01*
X8618214Y-9110357D01*
X8632500Y-9081786D01*
X8646786Y-9067500D01*
X8675357Y-9053214D01*
X8903928Y-9353214D02*
X8903928Y-9153214D01*
X8903928Y-9181786D02*
X8918214Y-9167500D01*
X8946786Y-9153214D01*
X8989643Y-9153214D01*
X9018214Y-9167500D01*
X9032500Y-9196072D01*
X9032500Y-9353214D01*
X9032500Y-9196072D02*
X9046786Y-9167500D01*
X9075357Y-9153214D01*
X9118214Y-9153214D01*
X9146786Y-9167500D01*
X9161071Y-9196072D01*
X9161071Y-9353214D01*
X9303928Y-9353214D02*
X9303928Y-9153214D01*
X9303928Y-9181786D02*
X9318214Y-9167500D01*
X9346786Y-9153214D01*
X9389643Y-9153214D01*
X9418214Y-9167500D01*
X9432500Y-9196072D01*
X9432500Y-9353214D01*
X9432500Y-9196072D02*
X9446786Y-9167500D01*
X9475357Y-9153214D01*
X9518214Y-9153214D01*
X9546786Y-9167500D01*
X9561071Y-9196072D01*
X9561071Y-9353214D01*
X10146786Y-9038929D02*
X9889643Y-9424643D01*
X10532500Y-9053214D02*
X10561071Y-9053214D01*
X10589643Y-9067500D01*
X10603928Y-9081786D01*
X10618214Y-9110357D01*
X10632500Y-9167500D01*
X10632500Y-9238929D01*
X10618214Y-9296072D01*
X10603928Y-9324643D01*
X10589643Y-9338929D01*
X10561071Y-9353214D01*
X10532500Y-9353214D01*
X10503928Y-9338929D01*
X10489643Y-9324643D01*
X10475357Y-9296072D01*
X10461071Y-9238929D01*
X10461071Y-9167500D01*
X10475357Y-9110357D01*
X10489643Y-9081786D01*
X10503928Y-9067500D01*
X10532500Y-9053214D01*
X10761071Y-9324643D02*
X10775357Y-9338929D01*
X10761071Y-9353214D01*
X10746786Y-9338929D01*
X10761071Y-9324643D01*
X10761071Y-9353214D01*
X10961071Y-9053214D02*
X10989643Y-9053214D01*
X11018214Y-9067500D01*
X11032500Y-9081786D01*
X11046786Y-9110357D01*
X11061071Y-9167500D01*
X11061071Y-9238929D01*
X11046786Y-9296072D01*
X11032500Y-9324643D01*
X11018214Y-9338929D01*
X10989643Y-9353214D01*
X10961071Y-9353214D01*
X10932500Y-9338929D01*
X10918214Y-9324643D01*
X10903928Y-9296072D01*
X10889643Y-9238929D01*
X10889643Y-9167500D01*
X10903928Y-9110357D01*
X10918214Y-9081786D01*
X10932500Y-9067500D01*
X10961071Y-9053214D01*
X11175357Y-9081786D02*
X11189643Y-9067500D01*
X11218214Y-9053214D01*
X11289643Y-9053214D01*
X11318214Y-9067500D01*
X11332500Y-9081786D01*
X11346786Y-9110357D01*
X11346786Y-9138929D01*
X11332500Y-9181786D01*
X11161071Y-9353214D01*
X11346786Y-9353214D01*
X11518214Y-9181786D02*
X11489643Y-9167500D01*
X11475357Y-9153214D01*
X11461071Y-9124643D01*
X11461071Y-9110357D01*
X11475357Y-9081786D01*
X11489643Y-9067500D01*
X11518214Y-9053214D01*
X11575357Y-9053214D01*
X11603928Y-9067500D01*
X11618214Y-9081786D01*
X11632500Y-9110357D01*
X11632500Y-9124643D01*
X11618214Y-9153214D01*
X11603928Y-9167500D01*
X11575357Y-9181786D01*
X11518214Y-9181786D01*
X11489643Y-9196072D01*
X11475357Y-9210357D01*
X11461071Y-9238929D01*
X11461071Y-9296072D01*
X11475357Y-9324643D01*
X11489643Y-9338929D01*
X11518214Y-9353214D01*
X11575357Y-9353214D01*
X11603928Y-9338929D01*
X11618214Y-9324643D01*
X11632500Y-9296072D01*
X11632500Y-9238929D01*
X11618214Y-9210357D01*
X11603928Y-9196072D01*
X11575357Y-9181786D01*
X11746786Y-9053214D02*
X11746786Y-9110357D01*
X11861071Y-9053214D02*
X11861071Y-9110357D01*
X12303928Y-9467500D02*
X12289643Y-9453214D01*
X12261071Y-9410357D01*
X12246786Y-9381786D01*
X12232500Y-9338929D01*
X12218214Y-9267500D01*
X12218214Y-9210357D01*
X12232500Y-9138929D01*
X12246786Y-9096072D01*
X12261071Y-9067500D01*
X12289643Y-9024643D01*
X12303928Y-9010357D01*
X12403928Y-9081786D02*
X12418214Y-9067500D01*
X12446786Y-9053214D01*
X12518214Y-9053214D01*
X12546786Y-9067500D01*
X12561071Y-9081786D01*
X12575357Y-9110357D01*
X12575357Y-9138929D01*
X12561071Y-9181786D01*
X12389643Y-9353214D01*
X12575357Y-9353214D01*
X12932500Y-9353214D02*
X12932500Y-9053214D01*
X13061071Y-9353214D02*
X13061071Y-9196072D01*
X13046786Y-9167500D01*
X13018214Y-9153214D01*
X12975357Y-9153214D01*
X12946786Y-9167500D01*
X12932500Y-9181786D01*
X13246786Y-9353214D02*
X13218214Y-9338929D01*
X13203928Y-9324643D01*
X13189643Y-9296072D01*
X13189643Y-9210357D01*
X13203928Y-9181786D01*
X13218214Y-9167500D01*
X13246786Y-9153214D01*
X13289643Y-9153214D01*
X13318214Y-9167500D01*
X13332500Y-9181786D01*
X13346786Y-9210357D01*
X13346786Y-9296072D01*
X13332500Y-9324643D01*
X13318214Y-9338929D01*
X13289643Y-9353214D01*
X13246786Y-9353214D01*
X13518214Y-9353214D02*
X13489643Y-9338929D01*
X13475357Y-9310357D01*
X13475357Y-9053214D01*
X13746786Y-9338929D02*
X13718214Y-9353214D01*
X13661071Y-9353214D01*
X13632500Y-9338929D01*
X13618214Y-9310357D01*
X13618214Y-9196072D01*
X13632500Y-9167500D01*
X13661071Y-9153214D01*
X13718214Y-9153214D01*
X13746786Y-9167500D01*
X13761071Y-9196072D01*
X13761071Y-9224643D01*
X13618214Y-9253214D01*
X13875357Y-9338929D02*
X13903928Y-9353214D01*
X13961071Y-9353214D01*
X13989643Y-9338929D01*
X14003928Y-9310357D01*
X14003928Y-9296072D01*
X13989643Y-9267500D01*
X13961071Y-9253214D01*
X13918214Y-9253214D01*
X13889643Y-9238929D01*
X13875357Y-9210357D01*
X13875357Y-9196072D01*
X13889643Y-9167500D01*
X13918214Y-9153214D01*
X13961071Y-9153214D01*
X13989643Y-9167500D01*
X14103928Y-9467500D02*
X14118214Y-9453214D01*
X14146786Y-9410357D01*
X14161071Y-9381786D01*
X14175357Y-9338929D01*
X14189643Y-9267500D01*
X14189643Y-9210357D01*
X14175357Y-9138929D01*
X14161071Y-9096072D01*
X14146786Y-9067500D01*
X14118214Y-9024643D01*
X14103928Y-9010357D01*
X7617500Y-9613500D02*
G75*
G03*
X7617500Y-9613500I-45000J0D01*
G01*
X7961071Y-9449214D02*
X7989643Y-9449214D01*
X8018214Y-9463500D01*
X8032500Y-9477786D01*
X8046786Y-9506357D01*
X8061071Y-9563500D01*
X8061071Y-9634929D01*
X8046786Y-9692072D01*
X8032500Y-9720643D01*
X8018214Y-9734929D01*
X7989643Y-9749214D01*
X7961071Y-9749214D01*
X7932500Y-9734929D01*
X7918214Y-9720643D01*
X7903928Y-9692072D01*
X7889643Y-9634929D01*
X7889643Y-9563500D01*
X7903928Y-9506357D01*
X7918214Y-9477786D01*
X7932500Y-9463500D01*
X7961071Y-9449214D01*
X8189643Y-9720643D02*
X8203928Y-9734929D01*
X8189643Y-9749214D01*
X8175357Y-9734929D01*
X8189643Y-9720643D01*
X8189643Y-9749214D01*
X8346786Y-9749214D02*
X8403928Y-9749214D01*
X8432500Y-9734929D01*
X8446786Y-9720643D01*
X8475357Y-9677786D01*
X8489643Y-9620643D01*
X8489643Y-9506357D01*
X8475357Y-9477786D01*
X8461071Y-9463500D01*
X8432500Y-9449214D01*
X8375357Y-9449214D01*
X8346786Y-9463500D01*
X8332500Y-9477786D01*
X8318214Y-9506357D01*
X8318214Y-9577786D01*
X8332500Y-9606357D01*
X8346786Y-9620643D01*
X8375357Y-9634929D01*
X8432500Y-9634929D01*
X8461071Y-9620643D01*
X8475357Y-9606357D01*
X8489643Y-9577786D01*
X8675357Y-9449214D02*
X8703928Y-9449214D01*
X8732500Y-9463500D01*
X8746786Y-9477786D01*
X8761071Y-9506357D01*
X8775357Y-9563500D01*
X8775357Y-9634929D01*
X8761071Y-9692072D01*
X8746786Y-9720643D01*
X8732500Y-9734929D01*
X8703928Y-9749214D01*
X8675357Y-9749214D01*
X8646786Y-9734929D01*
X8632500Y-9720643D01*
X8618214Y-9692072D01*
X8603928Y-9634929D01*
X8603928Y-9563500D01*
X8618214Y-9506357D01*
X8632500Y-9477786D01*
X8646786Y-9463500D01*
X8675357Y-9449214D01*
X8903928Y-9749214D02*
X8903928Y-9549214D01*
X8903928Y-9577786D02*
X8918214Y-9563500D01*
X8946786Y-9549214D01*
X8989643Y-9549214D01*
X9018214Y-9563500D01*
X9032500Y-9592072D01*
X9032500Y-9749214D01*
X9032500Y-9592072D02*
X9046786Y-9563500D01*
X9075357Y-9549214D01*
X9118214Y-9549214D01*
X9146786Y-9563500D01*
X9161071Y-9592072D01*
X9161071Y-9749214D01*
X9303928Y-9749214D02*
X9303928Y-9549214D01*
X9303928Y-9577786D02*
X9318214Y-9563500D01*
X9346786Y-9549214D01*
X9389643Y-9549214D01*
X9418214Y-9563500D01*
X9432500Y-9592072D01*
X9432500Y-9749214D01*
X9432500Y-9592072D02*
X9446786Y-9563500D01*
X9475357Y-9549214D01*
X9518214Y-9549214D01*
X9546786Y-9563500D01*
X9561071Y-9592072D01*
X9561071Y-9749214D01*
X10146786Y-9434929D02*
X9889643Y-9820643D01*
X10532500Y-9449214D02*
X10561071Y-9449214D01*
X10589643Y-9463500D01*
X10603928Y-9477786D01*
X10618214Y-9506357D01*
X10632500Y-9563500D01*
X10632500Y-9634929D01*
X10618214Y-9692072D01*
X10603928Y-9720643D01*
X10589643Y-9734929D01*
X10561071Y-9749214D01*
X10532500Y-9749214D01*
X10503928Y-9734929D01*
X10489643Y-9720643D01*
X10475357Y-9692072D01*
X10461071Y-9634929D01*
X10461071Y-9563500D01*
X10475357Y-9506357D01*
X10489643Y-9477786D01*
X10503928Y-9463500D01*
X10532500Y-9449214D01*
X10761071Y-9720643D02*
X10775357Y-9734929D01*
X10761071Y-9749214D01*
X10746786Y-9734929D01*
X10761071Y-9720643D01*
X10761071Y-9749214D01*
X10961071Y-9449214D02*
X10989643Y-9449214D01*
X11018214Y-9463500D01*
X11032500Y-9477786D01*
X11046786Y-9506357D01*
X11061071Y-9563500D01*
X11061071Y-9634929D01*
X11046786Y-9692072D01*
X11032500Y-9720643D01*
X11018214Y-9734929D01*
X10989643Y-9749214D01*
X10961071Y-9749214D01*
X10932500Y-9734929D01*
X10918214Y-9720643D01*
X10903928Y-9692072D01*
X10889643Y-9634929D01*
X10889643Y-9563500D01*
X10903928Y-9506357D01*
X10918214Y-9477786D01*
X10932500Y-9463500D01*
X10961071Y-9449214D01*
X11161071Y-9449214D02*
X11346786Y-9449214D01*
X11246786Y-9563500D01*
X11289643Y-9563500D01*
X11318214Y-9577786D01*
X11332500Y-9592072D01*
X11346786Y-9620643D01*
X11346786Y-9692072D01*
X11332500Y-9720643D01*
X11318214Y-9734929D01*
X11289643Y-9749214D01*
X11203928Y-9749214D01*
X11175357Y-9734929D01*
X11161071Y-9720643D01*
X11618214Y-9449214D02*
X11475357Y-9449214D01*
X11461071Y-9592072D01*
X11475357Y-9577786D01*
X11503928Y-9563500D01*
X11575357Y-9563500D01*
X11603928Y-9577786D01*
X11618214Y-9592072D01*
X11632500Y-9620643D01*
X11632500Y-9692072D01*
X11618214Y-9720643D01*
X11603928Y-9734929D01*
X11575357Y-9749214D01*
X11503928Y-9749214D01*
X11475357Y-9734929D01*
X11461071Y-9720643D01*
X11746786Y-9449214D02*
X11746786Y-9506357D01*
X11861071Y-9449214D02*
X11861071Y-9506357D01*
X12303928Y-9863500D02*
X12289643Y-9849214D01*
X12261071Y-9806357D01*
X12246786Y-9777786D01*
X12232500Y-9734929D01*
X12218214Y-9663500D01*
X12218214Y-9606357D01*
X12232500Y-9534929D01*
X12246786Y-9492072D01*
X12261071Y-9463500D01*
X12289643Y-9420643D01*
X12303928Y-9406357D01*
X12403928Y-9477786D02*
X12418214Y-9463500D01*
X12446786Y-9449214D01*
X12518214Y-9449214D01*
X12546786Y-9463500D01*
X12561071Y-9477786D01*
X12575357Y-9506357D01*
X12575357Y-9534929D01*
X12561071Y-9577786D01*
X12389643Y-9749214D01*
X12575357Y-9749214D01*
X12932500Y-9749214D02*
X12932500Y-9449214D01*
X13061071Y-9749214D02*
X13061071Y-9592072D01*
X13046786Y-9563500D01*
X13018214Y-9549214D01*
X12975357Y-9549214D01*
X12946786Y-9563500D01*
X12932500Y-9577786D01*
X13246786Y-9749214D02*
X13218214Y-9734929D01*
X13203928Y-9720643D01*
X13189643Y-9692072D01*
X13189643Y-9606357D01*
X13203928Y-9577786D01*
X13218214Y-9563500D01*
X13246786Y-9549214D01*
X13289643Y-9549214D01*
X13318214Y-9563500D01*
X13332500Y-9577786D01*
X13346786Y-9606357D01*
X13346786Y-9692072D01*
X13332500Y-9720643D01*
X13318214Y-9734929D01*
X13289643Y-9749214D01*
X13246786Y-9749214D01*
X13518214Y-9749214D02*
X13489643Y-9734929D01*
X13475357Y-9706357D01*
X13475357Y-9449214D01*
X13746786Y-9734929D02*
X13718214Y-9749214D01*
X13661071Y-9749214D01*
X13632500Y-9734929D01*
X13618214Y-9706357D01*
X13618214Y-9592072D01*
X13632500Y-9563500D01*
X13661071Y-9549214D01*
X13718214Y-9549214D01*
X13746786Y-9563500D01*
X13761071Y-9592072D01*
X13761071Y-9620643D01*
X13618214Y-9649214D01*
X13875357Y-9734929D02*
X13903928Y-9749214D01*
X13961071Y-9749214D01*
X13989643Y-9734929D01*
X14003928Y-9706357D01*
X14003928Y-9692072D01*
X13989643Y-9663500D01*
X13961071Y-9649214D01*
X13918214Y-9649214D01*
X13889643Y-9634929D01*
X13875357Y-9606357D01*
X13875357Y-9592072D01*
X13889643Y-9563500D01*
X13918214Y-9549214D01*
X13961071Y-9549214D01*
X13989643Y-9563500D01*
X14103928Y-9863500D02*
X14118214Y-9849214D01*
X14146786Y-9806357D01*
X14161071Y-9777786D01*
X14175357Y-9734929D01*
X14189643Y-9663500D01*
X14189643Y-9606357D01*
X14175357Y-9534929D01*
X14161071Y-9492072D01*
X14146786Y-9463500D01*
X14118214Y-9420643D01*
X14103928Y-9406357D01*
X7570000Y-9962000D02*
X7570000Y-10057000D01*
X7522500Y-10009500D02*
X7617500Y-10009500D01*
X7961071Y-9845214D02*
X7989643Y-9845214D01*
X8018214Y-9859500D01*
X8032500Y-9873786D01*
X8046786Y-9902357D01*
X8061071Y-9959500D01*
X8061071Y-10030929D01*
X8046786Y-10088072D01*
X8032500Y-10116643D01*
X8018214Y-10130929D01*
X7989643Y-10145214D01*
X7961071Y-10145214D01*
X7932500Y-10130929D01*
X7918214Y-10116643D01*
X7903928Y-10088072D01*
X7889643Y-10030929D01*
X7889643Y-9959500D01*
X7903928Y-9902357D01*
X7918214Y-9873786D01*
X7932500Y-9859500D01*
X7961071Y-9845214D01*
X8189643Y-10116643D02*
X8203928Y-10130929D01*
X8189643Y-10145214D01*
X8175357Y-10130929D01*
X8189643Y-10116643D01*
X8189643Y-10145214D01*
X8346786Y-10145214D02*
X8403928Y-10145214D01*
X8432500Y-10130929D01*
X8446786Y-10116643D01*
X8475357Y-10073786D01*
X8489643Y-10016643D01*
X8489643Y-9902357D01*
X8475357Y-9873786D01*
X8461071Y-9859500D01*
X8432500Y-9845214D01*
X8375357Y-9845214D01*
X8346786Y-9859500D01*
X8332500Y-9873786D01*
X8318214Y-9902357D01*
X8318214Y-9973786D01*
X8332500Y-10002357D01*
X8346786Y-10016643D01*
X8375357Y-10030929D01*
X8432500Y-10030929D01*
X8461071Y-10016643D01*
X8475357Y-10002357D01*
X8489643Y-9973786D01*
X8761071Y-9845214D02*
X8618214Y-9845214D01*
X8603928Y-9988072D01*
X8618214Y-9973786D01*
X8646786Y-9959500D01*
X8718214Y-9959500D01*
X8746786Y-9973786D01*
X8761071Y-9988072D01*
X8775357Y-10016643D01*
X8775357Y-10088072D01*
X8761071Y-10116643D01*
X8746786Y-10130929D01*
X8718214Y-10145214D01*
X8646786Y-10145214D01*
X8618214Y-10130929D01*
X8603928Y-10116643D01*
X8903928Y-10145214D02*
X8903928Y-9945214D01*
X8903928Y-9973786D02*
X8918214Y-9959500D01*
X8946786Y-9945214D01*
X8989643Y-9945214D01*
X9018214Y-9959500D01*
X9032500Y-9988072D01*
X9032500Y-10145214D01*
X9032500Y-9988072D02*
X9046786Y-9959500D01*
X9075357Y-9945214D01*
X9118214Y-9945214D01*
X9146786Y-9959500D01*
X9161071Y-9988072D01*
X9161071Y-10145214D01*
X9303928Y-10145214D02*
X9303928Y-9945214D01*
X9303928Y-9973786D02*
X9318214Y-9959500D01*
X9346786Y-9945214D01*
X9389643Y-9945214D01*
X9418214Y-9959500D01*
X9432500Y-9988072D01*
X9432500Y-10145214D01*
X9432500Y-9988072D02*
X9446786Y-9959500D01*
X9475357Y-9945214D01*
X9518214Y-9945214D01*
X9546786Y-9959500D01*
X9561071Y-9988072D01*
X9561071Y-10145214D01*
X10146786Y-9830929D02*
X9889643Y-10216643D01*
X10532500Y-9845214D02*
X10561071Y-9845214D01*
X10589643Y-9859500D01*
X10603928Y-9873786D01*
X10618214Y-9902357D01*
X10632500Y-9959500D01*
X10632500Y-10030929D01*
X10618214Y-10088072D01*
X10603928Y-10116643D01*
X10589643Y-10130929D01*
X10561071Y-10145214D01*
X10532500Y-10145214D01*
X10503928Y-10130929D01*
X10489643Y-10116643D01*
X10475357Y-10088072D01*
X10461071Y-10030929D01*
X10461071Y-9959500D01*
X10475357Y-9902357D01*
X10489643Y-9873786D01*
X10503928Y-9859500D01*
X10532500Y-9845214D01*
X10761071Y-10116643D02*
X10775357Y-10130929D01*
X10761071Y-10145214D01*
X10746786Y-10130929D01*
X10761071Y-10116643D01*
X10761071Y-10145214D01*
X10961071Y-9845214D02*
X10989643Y-9845214D01*
X11018214Y-9859500D01*
X11032500Y-9873786D01*
X11046786Y-9902357D01*
X11061071Y-9959500D01*
X11061071Y-10030929D01*
X11046786Y-10088072D01*
X11032500Y-10116643D01*
X11018214Y-10130929D01*
X10989643Y-10145214D01*
X10961071Y-10145214D01*
X10932500Y-10130929D01*
X10918214Y-10116643D01*
X10903928Y-10088072D01*
X10889643Y-10030929D01*
X10889643Y-9959500D01*
X10903928Y-9902357D01*
X10918214Y-9873786D01*
X10932500Y-9859500D01*
X10961071Y-9845214D01*
X11161071Y-9845214D02*
X11346786Y-9845214D01*
X11246786Y-9959500D01*
X11289643Y-9959500D01*
X11318214Y-9973786D01*
X11332500Y-9988072D01*
X11346786Y-10016643D01*
X11346786Y-10088072D01*
X11332500Y-10116643D01*
X11318214Y-10130929D01*
X11289643Y-10145214D01*
X11203928Y-10145214D01*
X11175357Y-10130929D01*
X11161071Y-10116643D01*
X11446786Y-9845214D02*
X11646786Y-9845214D01*
X11518214Y-10145214D01*
X11746786Y-9845214D02*
X11746786Y-9902357D01*
X11861071Y-9845214D02*
X11861071Y-9902357D01*
X12303928Y-10259500D02*
X12289643Y-10245214D01*
X12261071Y-10202357D01*
X12246786Y-10173786D01*
X12232500Y-10130929D01*
X12218214Y-10059500D01*
X12218214Y-10002357D01*
X12232500Y-9930929D01*
X12246786Y-9888072D01*
X12261071Y-9859500D01*
X12289643Y-9816643D01*
X12303928Y-9802357D01*
X12546786Y-9845214D02*
X12489643Y-9845214D01*
X12461071Y-9859500D01*
X12446786Y-9873786D01*
X12418214Y-9916643D01*
X12403928Y-9973786D01*
X12403928Y-10088072D01*
X12418214Y-10116643D01*
X12432500Y-10130929D01*
X12461071Y-10145214D01*
X12518214Y-10145214D01*
X12546786Y-10130929D01*
X12561071Y-10116643D01*
X12575357Y-10088072D01*
X12575357Y-10016643D01*
X12561071Y-9988072D01*
X12546786Y-9973786D01*
X12518214Y-9959500D01*
X12461071Y-9959500D01*
X12432500Y-9973786D01*
X12418214Y-9988072D01*
X12403928Y-10016643D01*
X12932500Y-10145214D02*
X12932500Y-9845214D01*
X13061071Y-10145214D02*
X13061071Y-9988072D01*
X13046786Y-9959500D01*
X13018214Y-9945214D01*
X12975357Y-9945214D01*
X12946786Y-9959500D01*
X12932500Y-9973786D01*
X13246786Y-10145214D02*
X13218214Y-10130929D01*
X13203928Y-10116643D01*
X13189643Y-10088072D01*
X13189643Y-10002357D01*
X13203928Y-9973786D01*
X13218214Y-9959500D01*
X13246786Y-9945214D01*
X13289643Y-9945214D01*
X13318214Y-9959500D01*
X13332500Y-9973786D01*
X13346786Y-10002357D01*
X13346786Y-10088072D01*
X13332500Y-10116643D01*
X13318214Y-10130929D01*
X13289643Y-10145214D01*
X13246786Y-10145214D01*
X13518214Y-10145214D02*
X13489643Y-10130929D01*
X13475357Y-10102357D01*
X13475357Y-9845214D01*
X13746786Y-10130929D02*
X13718214Y-10145214D01*
X13661071Y-10145214D01*
X13632500Y-10130929D01*
X13618214Y-10102357D01*
X13618214Y-9988072D01*
X13632500Y-9959500D01*
X13661071Y-9945214D01*
X13718214Y-9945214D01*
X13746786Y-9959500D01*
X13761071Y-9988072D01*
X13761071Y-10016643D01*
X13618214Y-10045214D01*
X13875357Y-10130929D02*
X13903928Y-10145214D01*
X13961071Y-10145214D01*
X13989643Y-10130929D01*
X14003928Y-10102357D01*
X14003928Y-10088072D01*
X13989643Y-10059500D01*
X13961071Y-10045214D01*
X13918214Y-10045214D01*
X13889643Y-10030929D01*
X13875357Y-10002357D01*
X13875357Y-9988072D01*
X13889643Y-9959500D01*
X13918214Y-9945214D01*
X13961071Y-9945214D01*
X13989643Y-9959500D01*
X14103928Y-10259500D02*
X14118214Y-10245214D01*
X14146786Y-10202357D01*
X14161071Y-10173786D01*
X14175357Y-10130929D01*
X14189643Y-10059500D01*
X14189643Y-10002357D01*
X14175357Y-9930929D01*
X14161071Y-9888072D01*
X14146786Y-9859500D01*
X14118214Y-9816643D01*
X14103928Y-9802357D01*
X7602856Y-10440856D02*
X7602856Y-10370144D01*
X7532144Y-10370144D01*
X7532144Y-10440856D01*
X7602856Y-10440856D01*
X8061071Y-10541214D02*
X7889643Y-10541214D01*
X7975357Y-10541214D02*
X7975357Y-10241214D01*
X7946786Y-10284072D01*
X7918214Y-10312643D01*
X7889643Y-10326929D01*
X8189643Y-10512643D02*
X8203928Y-10526929D01*
X8189643Y-10541214D01*
X8175357Y-10526929D01*
X8189643Y-10512643D01*
X8189643Y-10541214D01*
X8389643Y-10241214D02*
X8418214Y-10241214D01*
X8446786Y-10255500D01*
X8461071Y-10269786D01*
X8475357Y-10298357D01*
X8489643Y-10355500D01*
X8489643Y-10426929D01*
X8475357Y-10484072D01*
X8461071Y-10512643D01*
X8446786Y-10526929D01*
X8418214Y-10541214D01*
X8389643Y-10541214D01*
X8361071Y-10526929D01*
X8346786Y-10512643D01*
X8332500Y-10484072D01*
X8318214Y-10426929D01*
X8318214Y-10355500D01*
X8332500Y-10298357D01*
X8346786Y-10269786D01*
X8361071Y-10255500D01*
X8389643Y-10241214D01*
X8675357Y-10241214D02*
X8703928Y-10241214D01*
X8732500Y-10255500D01*
X8746786Y-10269786D01*
X8761071Y-10298357D01*
X8775357Y-10355500D01*
X8775357Y-10426929D01*
X8761071Y-10484072D01*
X8746786Y-10512643D01*
X8732500Y-10526929D01*
X8703928Y-10541214D01*
X8675357Y-10541214D01*
X8646786Y-10526929D01*
X8632500Y-10512643D01*
X8618214Y-10484072D01*
X8603928Y-10426929D01*
X8603928Y-10355500D01*
X8618214Y-10298357D01*
X8632500Y-10269786D01*
X8646786Y-10255500D01*
X8675357Y-10241214D01*
X8903928Y-10541214D02*
X8903928Y-10341214D01*
X8903928Y-10369786D02*
X8918214Y-10355500D01*
X8946786Y-10341214D01*
X8989643Y-10341214D01*
X9018214Y-10355500D01*
X9032500Y-10384072D01*
X9032500Y-10541214D01*
X9032500Y-10384072D02*
X9046786Y-10355500D01*
X9075357Y-10341214D01*
X9118214Y-10341214D01*
X9146786Y-10355500D01*
X9161071Y-10384072D01*
X9161071Y-10541214D01*
X9303928Y-10541214D02*
X9303928Y-10341214D01*
X9303928Y-10369786D02*
X9318214Y-10355500D01*
X9346786Y-10341214D01*
X9389643Y-10341214D01*
X9418214Y-10355500D01*
X9432500Y-10384072D01*
X9432500Y-10541214D01*
X9432500Y-10384072D02*
X9446786Y-10355500D01*
X9475357Y-10341214D01*
X9518214Y-10341214D01*
X9546786Y-10355500D01*
X9561071Y-10384072D01*
X9561071Y-10541214D01*
X10146786Y-10226929D02*
X9889643Y-10612643D01*
X10532500Y-10241214D02*
X10561071Y-10241214D01*
X10589643Y-10255500D01*
X10603928Y-10269786D01*
X10618214Y-10298357D01*
X10632500Y-10355500D01*
X10632500Y-10426929D01*
X10618214Y-10484072D01*
X10603928Y-10512643D01*
X10589643Y-10526929D01*
X10561071Y-10541214D01*
X10532500Y-10541214D01*
X10503928Y-10526929D01*
X10489643Y-10512643D01*
X10475357Y-10484072D01*
X10461071Y-10426929D01*
X10461071Y-10355500D01*
X10475357Y-10298357D01*
X10489643Y-10269786D01*
X10503928Y-10255500D01*
X10532500Y-10241214D01*
X10761071Y-10512643D02*
X10775357Y-10526929D01*
X10761071Y-10541214D01*
X10746786Y-10526929D01*
X10761071Y-10512643D01*
X10761071Y-10541214D01*
X10961071Y-10241214D02*
X10989643Y-10241214D01*
X11018214Y-10255500D01*
X11032500Y-10269786D01*
X11046786Y-10298357D01*
X11061071Y-10355500D01*
X11061071Y-10426929D01*
X11046786Y-10484072D01*
X11032500Y-10512643D01*
X11018214Y-10526929D01*
X10989643Y-10541214D01*
X10961071Y-10541214D01*
X10932500Y-10526929D01*
X10918214Y-10512643D01*
X10903928Y-10484072D01*
X10889643Y-10426929D01*
X10889643Y-10355500D01*
X10903928Y-10298357D01*
X10918214Y-10269786D01*
X10932500Y-10255500D01*
X10961071Y-10241214D01*
X11161071Y-10241214D02*
X11346786Y-10241214D01*
X11246786Y-10355500D01*
X11289643Y-10355500D01*
X11318214Y-10369786D01*
X11332500Y-10384072D01*
X11346786Y-10412643D01*
X11346786Y-10484072D01*
X11332500Y-10512643D01*
X11318214Y-10526929D01*
X11289643Y-10541214D01*
X11203928Y-10541214D01*
X11175357Y-10526929D01*
X11161071Y-10512643D01*
X11489643Y-10541214D02*
X11546786Y-10541214D01*
X11575357Y-10526929D01*
X11589643Y-10512643D01*
X11618214Y-10469786D01*
X11632500Y-10412643D01*
X11632500Y-10298357D01*
X11618214Y-10269786D01*
X11603928Y-10255500D01*
X11575357Y-10241214D01*
X11518214Y-10241214D01*
X11489643Y-10255500D01*
X11475357Y-10269786D01*
X11461071Y-10298357D01*
X11461071Y-10369786D01*
X11475357Y-10398357D01*
X11489643Y-10412643D01*
X11518214Y-10426929D01*
X11575357Y-10426929D01*
X11603928Y-10412643D01*
X11618214Y-10398357D01*
X11632500Y-10369786D01*
X11746786Y-10241214D02*
X11746786Y-10298357D01*
X11861071Y-10241214D02*
X11861071Y-10298357D01*
X12303928Y-10655500D02*
X12289643Y-10641214D01*
X12261071Y-10598357D01*
X12246786Y-10569786D01*
X12232500Y-10526929D01*
X12218214Y-10455500D01*
X12218214Y-10398357D01*
X12232500Y-10326929D01*
X12246786Y-10284072D01*
X12261071Y-10255500D01*
X12289643Y-10212643D01*
X12303928Y-10198357D01*
X12575357Y-10541214D02*
X12403928Y-10541214D01*
X12489643Y-10541214D02*
X12489643Y-10241214D01*
X12461071Y-10284072D01*
X12432500Y-10312643D01*
X12403928Y-10326929D01*
X12761071Y-10241214D02*
X12789643Y-10241214D01*
X12818214Y-10255500D01*
X12832500Y-10269786D01*
X12846786Y-10298357D01*
X12861071Y-10355500D01*
X12861071Y-10426929D01*
X12846786Y-10484072D01*
X12832500Y-10512643D01*
X12818214Y-10526929D01*
X12789643Y-10541214D01*
X12761071Y-10541214D01*
X12732500Y-10526929D01*
X12718214Y-10512643D01*
X12703928Y-10484072D01*
X12689643Y-10426929D01*
X12689643Y-10355500D01*
X12703928Y-10298357D01*
X12718214Y-10269786D01*
X12732500Y-10255500D01*
X12761071Y-10241214D01*
X13218214Y-10541214D02*
X13218214Y-10241214D01*
X13346786Y-10541214D02*
X13346786Y-10384072D01*
X13332500Y-10355500D01*
X13303928Y-10341214D01*
X13261071Y-10341214D01*
X13232500Y-10355500D01*
X13218214Y-10369786D01*
X13532500Y-10541214D02*
X13503928Y-10526929D01*
X13489643Y-10512643D01*
X13475357Y-10484072D01*
X13475357Y-10398357D01*
X13489643Y-10369786D01*
X13503928Y-10355500D01*
X13532500Y-10341214D01*
X13575357Y-10341214D01*
X13603928Y-10355500D01*
X13618214Y-10369786D01*
X13632500Y-10398357D01*
X13632500Y-10484072D01*
X13618214Y-10512643D01*
X13603928Y-10526929D01*
X13575357Y-10541214D01*
X13532500Y-10541214D01*
X13803928Y-10541214D02*
X13775357Y-10526929D01*
X13761071Y-10498357D01*
X13761071Y-10241214D01*
X14032500Y-10526929D02*
X14003928Y-10541214D01*
X13946786Y-10541214D01*
X13918214Y-10526929D01*
X13903928Y-10498357D01*
X13903928Y-10384072D01*
X13918214Y-10355500D01*
X13946786Y-10341214D01*
X14003928Y-10341214D01*
X14032500Y-10355500D01*
X14046786Y-10384072D01*
X14046786Y-10412643D01*
X13903928Y-10441214D01*
X14161071Y-10526929D02*
X14189643Y-10541214D01*
X14246786Y-10541214D01*
X14275357Y-10526929D01*
X14289643Y-10498357D01*
X14289643Y-10484072D01*
X14275357Y-10455500D01*
X14246786Y-10441214D01*
X14203928Y-10441214D01*
X14175357Y-10426929D01*
X14161071Y-10398357D01*
X14161071Y-10384072D01*
X14175357Y-10355500D01*
X14203928Y-10341214D01*
X14246786Y-10341214D01*
X14275357Y-10355500D01*
X14389643Y-10655500D02*
X14403928Y-10641214D01*
X14432500Y-10598357D01*
X14446786Y-10569786D01*
X14461071Y-10526929D01*
X14475357Y-10455500D01*
X14475357Y-10398357D01*
X14461071Y-10326929D01*
X14446786Y-10284072D01*
X14432500Y-10255500D01*
X14403928Y-10212643D01*
X14389643Y-10198357D01*
X7552500Y-10866500D02*
X7617500Y-10801500D01*
X7552500Y-10736500D01*
X7487500Y-10801500D01*
X7552500Y-10866500D01*
X8061071Y-10937214D02*
X7889643Y-10937214D01*
X7975357Y-10937214D02*
X7975357Y-10637214D01*
X7946786Y-10680072D01*
X7918214Y-10708643D01*
X7889643Y-10722929D01*
X8189643Y-10908643D02*
X8203928Y-10922929D01*
X8189643Y-10937214D01*
X8175357Y-10922929D01*
X8189643Y-10908643D01*
X8189643Y-10937214D01*
X8303928Y-10637214D02*
X8489643Y-10637214D01*
X8389643Y-10751500D01*
X8432500Y-10751500D01*
X8461071Y-10765786D01*
X8475357Y-10780072D01*
X8489643Y-10808643D01*
X8489643Y-10880072D01*
X8475357Y-10908643D01*
X8461071Y-10922929D01*
X8432500Y-10937214D01*
X8346786Y-10937214D01*
X8318214Y-10922929D01*
X8303928Y-10908643D01*
X8675357Y-10637214D02*
X8703928Y-10637214D01*
X8732500Y-10651500D01*
X8746786Y-10665786D01*
X8761071Y-10694357D01*
X8775357Y-10751500D01*
X8775357Y-10822929D01*
X8761071Y-10880072D01*
X8746786Y-10908643D01*
X8732500Y-10922929D01*
X8703928Y-10937214D01*
X8675357Y-10937214D01*
X8646786Y-10922929D01*
X8632500Y-10908643D01*
X8618214Y-10880072D01*
X8603928Y-10822929D01*
X8603928Y-10751500D01*
X8618214Y-10694357D01*
X8632500Y-10665786D01*
X8646786Y-10651500D01*
X8675357Y-10637214D01*
X8903928Y-10937214D02*
X8903928Y-10737214D01*
X8903928Y-10765786D02*
X8918214Y-10751500D01*
X8946786Y-10737214D01*
X8989643Y-10737214D01*
X9018214Y-10751500D01*
X9032500Y-10780072D01*
X9032500Y-10937214D01*
X9032500Y-10780072D02*
X9046786Y-10751500D01*
X9075357Y-10737214D01*
X9118214Y-10737214D01*
X9146786Y-10751500D01*
X9161071Y-10780072D01*
X9161071Y-10937214D01*
X9303928Y-10937214D02*
X9303928Y-10737214D01*
X9303928Y-10765786D02*
X9318214Y-10751500D01*
X9346786Y-10737214D01*
X9389643Y-10737214D01*
X9418214Y-10751500D01*
X9432500Y-10780072D01*
X9432500Y-10937214D01*
X9432500Y-10780072D02*
X9446786Y-10751500D01*
X9475357Y-10737214D01*
X9518214Y-10737214D01*
X9546786Y-10751500D01*
X9561071Y-10780072D01*
X9561071Y-10937214D01*
X10146786Y-10622929D02*
X9889643Y-11008643D01*
X10532500Y-10637214D02*
X10561071Y-10637214D01*
X10589643Y-10651500D01*
X10603928Y-10665786D01*
X10618214Y-10694357D01*
X10632500Y-10751500D01*
X10632500Y-10822929D01*
X10618214Y-10880072D01*
X10603928Y-10908643D01*
X10589643Y-10922929D01*
X10561071Y-10937214D01*
X10532500Y-10937214D01*
X10503928Y-10922929D01*
X10489643Y-10908643D01*
X10475357Y-10880072D01*
X10461071Y-10822929D01*
X10461071Y-10751500D01*
X10475357Y-10694357D01*
X10489643Y-10665786D01*
X10503928Y-10651500D01*
X10532500Y-10637214D01*
X10761071Y-10908643D02*
X10775357Y-10922929D01*
X10761071Y-10937214D01*
X10746786Y-10922929D01*
X10761071Y-10908643D01*
X10761071Y-10937214D01*
X10961071Y-10637214D02*
X10989643Y-10637214D01*
X11018214Y-10651500D01*
X11032500Y-10665786D01*
X11046786Y-10694357D01*
X11061071Y-10751500D01*
X11061071Y-10822929D01*
X11046786Y-10880072D01*
X11032500Y-10908643D01*
X11018214Y-10922929D01*
X10989643Y-10937214D01*
X10961071Y-10937214D01*
X10932500Y-10922929D01*
X10918214Y-10908643D01*
X10903928Y-10880072D01*
X10889643Y-10822929D01*
X10889643Y-10751500D01*
X10903928Y-10694357D01*
X10918214Y-10665786D01*
X10932500Y-10651500D01*
X10961071Y-10637214D01*
X11332500Y-10637214D02*
X11189643Y-10637214D01*
X11175357Y-10780072D01*
X11189643Y-10765786D01*
X11218214Y-10751500D01*
X11289643Y-10751500D01*
X11318214Y-10765786D01*
X11332500Y-10780072D01*
X11346786Y-10808643D01*
X11346786Y-10880072D01*
X11332500Y-10908643D01*
X11318214Y-10922929D01*
X11289643Y-10937214D01*
X11218214Y-10937214D01*
X11189643Y-10922929D01*
X11175357Y-10908643D01*
X11632500Y-10937214D02*
X11461071Y-10937214D01*
X11546786Y-10937214D02*
X11546786Y-10637214D01*
X11518214Y-10680072D01*
X11489643Y-10708643D01*
X11461071Y-10722929D01*
X11746786Y-10637214D02*
X11746786Y-10694357D01*
X11861071Y-10637214D02*
X11861071Y-10694357D01*
X12303928Y-11051500D02*
X12289643Y-11037214D01*
X12261071Y-10994357D01*
X12246786Y-10965786D01*
X12232500Y-10922929D01*
X12218214Y-10851500D01*
X12218214Y-10794357D01*
X12232500Y-10722929D01*
X12246786Y-10680072D01*
X12261071Y-10651500D01*
X12289643Y-10608643D01*
X12303928Y-10594357D01*
X12389643Y-10637214D02*
X12575357Y-10637214D01*
X12475357Y-10751500D01*
X12518214Y-10751500D01*
X12546786Y-10765786D01*
X12561071Y-10780072D01*
X12575357Y-10808643D01*
X12575357Y-10880072D01*
X12561071Y-10908643D01*
X12546786Y-10922929D01*
X12518214Y-10937214D01*
X12432500Y-10937214D01*
X12403928Y-10922929D01*
X12389643Y-10908643D01*
X12932500Y-10937214D02*
X12932500Y-10637214D01*
X13061071Y-10937214D02*
X13061071Y-10780072D01*
X13046786Y-10751500D01*
X13018214Y-10737214D01*
X12975357Y-10737214D01*
X12946786Y-10751500D01*
X12932500Y-10765786D01*
X13246786Y-10937214D02*
X13218214Y-10922929D01*
X13203928Y-10908643D01*
X13189643Y-10880072D01*
X13189643Y-10794357D01*
X13203928Y-10765786D01*
X13218214Y-10751500D01*
X13246786Y-10737214D01*
X13289643Y-10737214D01*
X13318214Y-10751500D01*
X13332500Y-10765786D01*
X13346786Y-10794357D01*
X13346786Y-10880072D01*
X13332500Y-10908643D01*
X13318214Y-10922929D01*
X13289643Y-10937214D01*
X13246786Y-10937214D01*
X13518214Y-10937214D02*
X13489643Y-10922929D01*
X13475357Y-10894357D01*
X13475357Y-10637214D01*
X13746786Y-10922929D02*
X13718214Y-10937214D01*
X13661071Y-10937214D01*
X13632500Y-10922929D01*
X13618214Y-10894357D01*
X13618214Y-10780072D01*
X13632500Y-10751500D01*
X13661071Y-10737214D01*
X13718214Y-10737214D01*
X13746786Y-10751500D01*
X13761071Y-10780072D01*
X13761071Y-10808643D01*
X13618214Y-10837214D01*
X13875357Y-10922929D02*
X13903928Y-10937214D01*
X13961071Y-10937214D01*
X13989643Y-10922929D01*
X14003928Y-10894357D01*
X14003928Y-10880072D01*
X13989643Y-10851500D01*
X13961071Y-10837214D01*
X13918214Y-10837214D01*
X13889643Y-10822929D01*
X13875357Y-10794357D01*
X13875357Y-10780072D01*
X13889643Y-10751500D01*
X13918214Y-10737214D01*
X13961071Y-10737214D01*
X13989643Y-10751500D01*
X14103928Y-11051500D02*
X14118214Y-11037214D01*
X14146786Y-10994357D01*
X14161071Y-10965786D01*
X14175357Y-10922929D01*
X14189643Y-10851500D01*
X14189643Y-10794357D01*
X14175357Y-10722929D01*
X14161071Y-10680072D01*
X14146786Y-10651500D01*
X14118214Y-10608643D01*
X14103928Y-10594357D01*
X7452400Y-11114950D02*
X7617500Y-11280050D01*
X7617500Y-11114950D02*
X7452400Y-11280050D01*
X7617500Y-11197500D02*
G75*
G03*
X7617500Y-11197500I-82550J0D01*
G01*
X8061071Y-11333214D02*
X7889643Y-11333214D01*
X7975357Y-11333214D02*
X7975357Y-11033214D01*
X7946786Y-11076072D01*
X7918214Y-11104643D01*
X7889643Y-11118929D01*
X8189643Y-11304643D02*
X8203928Y-11318929D01*
X8189643Y-11333214D01*
X8175357Y-11318929D01*
X8189643Y-11304643D01*
X8189643Y-11333214D01*
X8461071Y-11033214D02*
X8403928Y-11033214D01*
X8375357Y-11047500D01*
X8361071Y-11061786D01*
X8332500Y-11104643D01*
X8318214Y-11161786D01*
X8318214Y-11276071D01*
X8332500Y-11304643D01*
X8346786Y-11318929D01*
X8375357Y-11333214D01*
X8432500Y-11333214D01*
X8461071Y-11318929D01*
X8475357Y-11304643D01*
X8489643Y-11276071D01*
X8489643Y-11204643D01*
X8475357Y-11176072D01*
X8461071Y-11161786D01*
X8432500Y-11147500D01*
X8375357Y-11147500D01*
X8346786Y-11161786D01*
X8332500Y-11176072D01*
X8318214Y-11204643D01*
X8761071Y-11033214D02*
X8618214Y-11033214D01*
X8603928Y-11176072D01*
X8618214Y-11161786D01*
X8646786Y-11147500D01*
X8718214Y-11147500D01*
X8746786Y-11161786D01*
X8761071Y-11176072D01*
X8775357Y-11204643D01*
X8775357Y-11276071D01*
X8761071Y-11304643D01*
X8746786Y-11318929D01*
X8718214Y-11333214D01*
X8646786Y-11333214D01*
X8618214Y-11318929D01*
X8603928Y-11304643D01*
X8903928Y-11333214D02*
X8903928Y-11133214D01*
X8903928Y-11161786D02*
X8918214Y-11147500D01*
X8946786Y-11133214D01*
X8989643Y-11133214D01*
X9018214Y-11147500D01*
X9032500Y-11176072D01*
X9032500Y-11333214D01*
X9032500Y-11176072D02*
X9046786Y-11147500D01*
X9075357Y-11133214D01*
X9118214Y-11133214D01*
X9146786Y-11147500D01*
X9161071Y-11176072D01*
X9161071Y-11333214D01*
X9303928Y-11333214D02*
X9303928Y-11133214D01*
X9303928Y-11161786D02*
X9318214Y-11147500D01*
X9346786Y-11133214D01*
X9389643Y-11133214D01*
X9418214Y-11147500D01*
X9432500Y-11176072D01*
X9432500Y-11333214D01*
X9432500Y-11176072D02*
X9446786Y-11147500D01*
X9475357Y-11133214D01*
X9518214Y-11133214D01*
X9546786Y-11147500D01*
X9561071Y-11176072D01*
X9561071Y-11333214D01*
X10146786Y-11018929D02*
X9889643Y-11404643D01*
X10532500Y-11033214D02*
X10561071Y-11033214D01*
X10589643Y-11047500D01*
X10603928Y-11061786D01*
X10618214Y-11090357D01*
X10632500Y-11147500D01*
X10632500Y-11218929D01*
X10618214Y-11276071D01*
X10603928Y-11304643D01*
X10589643Y-11318929D01*
X10561071Y-11333214D01*
X10532500Y-11333214D01*
X10503928Y-11318929D01*
X10489643Y-11304643D01*
X10475357Y-11276071D01*
X10461071Y-11218929D01*
X10461071Y-11147500D01*
X10475357Y-11090357D01*
X10489643Y-11061786D01*
X10503928Y-11047500D01*
X10532500Y-11033214D01*
X10761071Y-11304643D02*
X10775357Y-11318929D01*
X10761071Y-11333214D01*
X10746786Y-11318929D01*
X10761071Y-11304643D01*
X10761071Y-11333214D01*
X10961071Y-11033214D02*
X10989643Y-11033214D01*
X11018214Y-11047500D01*
X11032500Y-11061786D01*
X11046786Y-11090357D01*
X11061071Y-11147500D01*
X11061071Y-11218929D01*
X11046786Y-11276071D01*
X11032500Y-11304643D01*
X11018214Y-11318929D01*
X10989643Y-11333214D01*
X10961071Y-11333214D01*
X10932500Y-11318929D01*
X10918214Y-11304643D01*
X10903928Y-11276071D01*
X10889643Y-11218929D01*
X10889643Y-11147500D01*
X10903928Y-11090357D01*
X10918214Y-11061786D01*
X10932500Y-11047500D01*
X10961071Y-11033214D01*
X11318214Y-11033214D02*
X11261071Y-11033214D01*
X11232500Y-11047500D01*
X11218214Y-11061786D01*
X11189643Y-11104643D01*
X11175357Y-11161786D01*
X11175357Y-11276071D01*
X11189643Y-11304643D01*
X11203928Y-11318929D01*
X11232500Y-11333214D01*
X11289643Y-11333214D01*
X11318214Y-11318929D01*
X11332500Y-11304643D01*
X11346786Y-11276071D01*
X11346786Y-11204643D01*
X11332500Y-11176072D01*
X11318214Y-11161786D01*
X11289643Y-11147500D01*
X11232500Y-11147500D01*
X11203928Y-11161786D01*
X11189643Y-11176072D01*
X11175357Y-11204643D01*
X11618214Y-11033214D02*
X11475357Y-11033214D01*
X11461071Y-11176072D01*
X11475357Y-11161786D01*
X11503928Y-11147500D01*
X11575357Y-11147500D01*
X11603928Y-11161786D01*
X11618214Y-11176072D01*
X11632500Y-11204643D01*
X11632500Y-11276071D01*
X11618214Y-11304643D01*
X11603928Y-11318929D01*
X11575357Y-11333214D01*
X11503928Y-11333214D01*
X11475357Y-11318929D01*
X11461071Y-11304643D01*
X11746786Y-11033214D02*
X11746786Y-11090357D01*
X11861071Y-11033214D02*
X11861071Y-11090357D01*
X12303928Y-11447500D02*
X12289643Y-11433214D01*
X12261071Y-11390357D01*
X12246786Y-11361786D01*
X12232500Y-11318929D01*
X12218214Y-11247500D01*
X12218214Y-11190357D01*
X12232500Y-11118929D01*
X12246786Y-11076072D01*
X12261071Y-11047500D01*
X12289643Y-11004643D01*
X12303928Y-10990357D01*
X12475357Y-11033214D02*
X12503928Y-11033214D01*
X12532500Y-11047500D01*
X12546786Y-11061786D01*
X12561071Y-11090357D01*
X12575357Y-11147500D01*
X12575357Y-11218929D01*
X12561071Y-11276071D01*
X12546786Y-11304643D01*
X12532500Y-11318929D01*
X12503928Y-11333214D01*
X12475357Y-11333214D01*
X12446786Y-11318929D01*
X12432500Y-11304643D01*
X12418214Y-11276071D01*
X12403928Y-11218929D01*
X12403928Y-11147500D01*
X12418214Y-11090357D01*
X12432500Y-11061786D01*
X12446786Y-11047500D01*
X12475357Y-11033214D01*
X12932500Y-11333214D02*
X12932500Y-11033214D01*
X13061071Y-11333214D02*
X13061071Y-11176072D01*
X13046786Y-11147500D01*
X13018214Y-11133214D01*
X12975357Y-11133214D01*
X12946786Y-11147500D01*
X12932500Y-11161786D01*
X13246786Y-11333214D02*
X13218214Y-11318929D01*
X13203928Y-11304643D01*
X13189643Y-11276071D01*
X13189643Y-11190357D01*
X13203928Y-11161786D01*
X13218214Y-11147500D01*
X13246786Y-11133214D01*
X13289643Y-11133214D01*
X13318214Y-11147500D01*
X13332500Y-11161786D01*
X13346786Y-11190357D01*
X13346786Y-11276071D01*
X13332500Y-11304643D01*
X13318214Y-11318929D01*
X13289643Y-11333214D01*
X13246786Y-11333214D01*
X13518214Y-11333214D02*
X13489643Y-11318929D01*
X13475357Y-11290357D01*
X13475357Y-11033214D01*
X13746786Y-11318929D02*
X13718214Y-11333214D01*
X13661071Y-11333214D01*
X13632500Y-11318929D01*
X13618214Y-11290357D01*
X13618214Y-11176072D01*
X13632500Y-11147500D01*
X13661071Y-11133214D01*
X13718214Y-11133214D01*
X13746786Y-11147500D01*
X13761071Y-11176072D01*
X13761071Y-11204643D01*
X13618214Y-11233214D01*
X13875357Y-11318929D02*
X13903928Y-11333214D01*
X13961071Y-11333214D01*
X13989643Y-11318929D01*
X14003928Y-11290357D01*
X14003928Y-11276071D01*
X13989643Y-11247500D01*
X13961071Y-11233214D01*
X13918214Y-11233214D01*
X13889643Y-11218929D01*
X13875357Y-11190357D01*
X13875357Y-11176072D01*
X13889643Y-11147500D01*
X13918214Y-11133214D01*
X13961071Y-11133214D01*
X13989643Y-11147500D01*
X14361071Y-11218929D02*
X14589643Y-11218929D01*
X14475357Y-11333214D02*
X14475357Y-11104643D01*
X15118214Y-11333214D02*
X14946786Y-11333214D01*
X15032500Y-11333214D02*
X15032500Y-11033214D01*
X15003928Y-11076072D01*
X14975357Y-11104643D01*
X14946786Y-11118929D01*
X15375357Y-11033214D02*
X15318214Y-11033214D01*
X15289643Y-11047500D01*
X15275357Y-11061786D01*
X15246786Y-11104643D01*
X15232500Y-11161786D01*
X15232500Y-11276071D01*
X15246786Y-11304643D01*
X15261071Y-11318929D01*
X15289643Y-11333214D01*
X15346786Y-11333214D01*
X15375357Y-11318929D01*
X15389643Y-11304643D01*
X15403928Y-11276071D01*
X15403928Y-11204643D01*
X15389643Y-11176072D01*
X15375357Y-11161786D01*
X15346786Y-11147500D01*
X15289643Y-11147500D01*
X15261071Y-11161786D01*
X15246786Y-11176072D01*
X15232500Y-11204643D01*
X15746786Y-11318929D02*
X15775357Y-11333214D01*
X15832500Y-11333214D01*
X15861071Y-11318929D01*
X15875357Y-11290357D01*
X15875357Y-11276071D01*
X15861071Y-11247500D01*
X15832500Y-11233214D01*
X15789643Y-11233214D01*
X15761071Y-11218929D01*
X15746786Y-11190357D01*
X15746786Y-11176072D01*
X15761071Y-11147500D01*
X15789643Y-11133214D01*
X15832500Y-11133214D01*
X15861071Y-11147500D01*
X16046786Y-11333214D02*
X16018214Y-11318929D01*
X16003928Y-11290357D01*
X16003928Y-11033214D01*
X16203928Y-11333214D02*
X16175357Y-11318929D01*
X16161071Y-11304643D01*
X16146786Y-11276071D01*
X16146786Y-11190357D01*
X16161071Y-11161786D01*
X16175357Y-11147500D01*
X16203928Y-11133214D01*
X16246786Y-11133214D01*
X16275357Y-11147500D01*
X16289643Y-11161786D01*
X16303928Y-11190357D01*
X16303928Y-11276071D01*
X16289643Y-11304643D01*
X16275357Y-11318929D01*
X16246786Y-11333214D01*
X16203928Y-11333214D01*
X16389643Y-11133214D02*
X16503928Y-11133214D01*
X16432500Y-11033214D02*
X16432500Y-11290357D01*
X16446786Y-11318929D01*
X16475357Y-11333214D01*
X16503928Y-11333214D01*
X16589643Y-11318929D02*
X16618214Y-11333214D01*
X16675357Y-11333214D01*
X16703928Y-11318929D01*
X16718214Y-11290357D01*
X16718214Y-11276071D01*
X16703928Y-11247500D01*
X16675357Y-11233214D01*
X16632500Y-11233214D01*
X16603928Y-11218929D01*
X16589643Y-11190357D01*
X16589643Y-11176072D01*
X16603928Y-11147500D01*
X16632500Y-11133214D01*
X16675357Y-11133214D01*
X16703928Y-11147500D01*
X16818214Y-11447500D02*
X16832500Y-11433214D01*
X16861071Y-11390357D01*
X16875357Y-11361786D01*
X16889643Y-11318929D01*
X16903928Y-11247500D01*
X16903928Y-11190357D01*
X16889643Y-11118929D01*
X16875357Y-11076072D01*
X16861071Y-11047500D01*
X16832500Y-11004643D01*
X16818214Y-10990357D01*
X7432500Y-11501000D02*
X7617500Y-11686000D01*
X7617500Y-11501000D02*
X7432500Y-11686000D01*
X7525000Y-11501000D02*
X7525000Y-11686000D01*
X7432500Y-11593500D02*
X7617500Y-11593500D01*
X8061071Y-11729214D02*
X7889643Y-11729214D01*
X7975357Y-11729214D02*
X7975357Y-11429214D01*
X7946786Y-11472071D01*
X7918214Y-11500643D01*
X7889643Y-11514929D01*
X8189643Y-11700643D02*
X8203928Y-11714929D01*
X8189643Y-11729214D01*
X8175357Y-11714929D01*
X8189643Y-11700643D01*
X8189643Y-11729214D01*
X8375357Y-11557786D02*
X8346786Y-11543500D01*
X8332500Y-11529214D01*
X8318214Y-11500643D01*
X8318214Y-11486357D01*
X8332500Y-11457786D01*
X8346786Y-11443500D01*
X8375357Y-11429214D01*
X8432500Y-11429214D01*
X8461071Y-11443500D01*
X8475357Y-11457786D01*
X8489643Y-11486357D01*
X8489643Y-11500643D01*
X8475357Y-11529214D01*
X8461071Y-11543500D01*
X8432500Y-11557786D01*
X8375357Y-11557786D01*
X8346786Y-11572071D01*
X8332500Y-11586357D01*
X8318214Y-11614929D01*
X8318214Y-11672071D01*
X8332500Y-11700643D01*
X8346786Y-11714929D01*
X8375357Y-11729214D01*
X8432500Y-11729214D01*
X8461071Y-11714929D01*
X8475357Y-11700643D01*
X8489643Y-11672071D01*
X8489643Y-11614929D01*
X8475357Y-11586357D01*
X8461071Y-11572071D01*
X8432500Y-11557786D01*
X8761071Y-11429214D02*
X8618214Y-11429214D01*
X8603928Y-11572071D01*
X8618214Y-11557786D01*
X8646786Y-11543500D01*
X8718214Y-11543500D01*
X8746786Y-11557786D01*
X8761071Y-11572071D01*
X8775357Y-11600643D01*
X8775357Y-11672071D01*
X8761071Y-11700643D01*
X8746786Y-11714929D01*
X8718214Y-11729214D01*
X8646786Y-11729214D01*
X8618214Y-11714929D01*
X8603928Y-11700643D01*
X8903928Y-11729214D02*
X8903928Y-11529214D01*
X8903928Y-11557786D02*
X8918214Y-11543500D01*
X8946786Y-11529214D01*
X8989643Y-11529214D01*
X9018214Y-11543500D01*
X9032500Y-11572071D01*
X9032500Y-11729214D01*
X9032500Y-11572071D02*
X9046786Y-11543500D01*
X9075357Y-11529214D01*
X9118214Y-11529214D01*
X9146786Y-11543500D01*
X9161071Y-11572071D01*
X9161071Y-11729214D01*
X9303928Y-11729214D02*
X9303928Y-11529214D01*
X9303928Y-11557786D02*
X9318214Y-11543500D01*
X9346786Y-11529214D01*
X9389643Y-11529214D01*
X9418214Y-11543500D01*
X9432500Y-11572071D01*
X9432500Y-11729214D01*
X9432500Y-11572071D02*
X9446786Y-11543500D01*
X9475357Y-11529214D01*
X9518214Y-11529214D01*
X9546786Y-11543500D01*
X9561071Y-11572071D01*
X9561071Y-11729214D01*
X10146786Y-11414929D02*
X9889643Y-11800643D01*
X10532500Y-11429214D02*
X10561071Y-11429214D01*
X10589643Y-11443500D01*
X10603928Y-11457786D01*
X10618214Y-11486357D01*
X10632500Y-11543500D01*
X10632500Y-11614929D01*
X10618214Y-11672071D01*
X10603928Y-11700643D01*
X10589643Y-11714929D01*
X10561071Y-11729214D01*
X10532500Y-11729214D01*
X10503928Y-11714929D01*
X10489643Y-11700643D01*
X10475357Y-11672071D01*
X10461071Y-11614929D01*
X10461071Y-11543500D01*
X10475357Y-11486357D01*
X10489643Y-11457786D01*
X10503928Y-11443500D01*
X10532500Y-11429214D01*
X10761071Y-11700643D02*
X10775357Y-11714929D01*
X10761071Y-11729214D01*
X10746786Y-11714929D01*
X10761071Y-11700643D01*
X10761071Y-11729214D01*
X10961071Y-11429214D02*
X10989643Y-11429214D01*
X11018214Y-11443500D01*
X11032500Y-11457786D01*
X11046786Y-11486357D01*
X11061071Y-11543500D01*
X11061071Y-11614929D01*
X11046786Y-11672071D01*
X11032500Y-11700643D01*
X11018214Y-11714929D01*
X10989643Y-11729214D01*
X10961071Y-11729214D01*
X10932500Y-11714929D01*
X10918214Y-11700643D01*
X10903928Y-11672071D01*
X10889643Y-11614929D01*
X10889643Y-11543500D01*
X10903928Y-11486357D01*
X10918214Y-11457786D01*
X10932500Y-11443500D01*
X10961071Y-11429214D01*
X11161071Y-11429214D02*
X11361071Y-11429214D01*
X11232500Y-11729214D01*
X11446786Y-11429214D02*
X11632500Y-11429214D01*
X11532500Y-11543500D01*
X11575357Y-11543500D01*
X11603928Y-11557786D01*
X11618214Y-11572071D01*
X11632500Y-11600643D01*
X11632500Y-11672071D01*
X11618214Y-11700643D01*
X11603928Y-11714929D01*
X11575357Y-11729214D01*
X11489643Y-11729214D01*
X11461071Y-11714929D01*
X11446786Y-11700643D01*
X11746786Y-11429214D02*
X11746786Y-11486357D01*
X11861071Y-11429214D02*
X11861071Y-11486357D01*
X12303928Y-11843500D02*
X12289643Y-11829214D01*
X12261071Y-11786357D01*
X12246786Y-11757786D01*
X12232500Y-11714929D01*
X12218214Y-11643500D01*
X12218214Y-11586357D01*
X12232500Y-11514929D01*
X12246786Y-11472071D01*
X12261071Y-11443500D01*
X12289643Y-11400643D01*
X12303928Y-11386357D01*
X12546786Y-11529214D02*
X12546786Y-11729214D01*
X12475357Y-11414929D02*
X12403928Y-11629214D01*
X12589643Y-11629214D01*
X12932500Y-11729214D02*
X12932500Y-11429214D01*
X13061071Y-11729214D02*
X13061071Y-11572071D01*
X13046786Y-11543500D01*
X13018214Y-11529214D01*
X12975357Y-11529214D01*
X12946786Y-11543500D01*
X12932500Y-11557786D01*
X13246786Y-11729214D02*
X13218214Y-11714929D01*
X13203928Y-11700643D01*
X13189643Y-11672071D01*
X13189643Y-11586357D01*
X13203928Y-11557786D01*
X13218214Y-11543500D01*
X13246786Y-11529214D01*
X13289643Y-11529214D01*
X13318214Y-11543500D01*
X13332500Y-11557786D01*
X13346786Y-11586357D01*
X13346786Y-11672071D01*
X13332500Y-11700643D01*
X13318214Y-11714929D01*
X13289643Y-11729214D01*
X13246786Y-11729214D01*
X13518214Y-11729214D02*
X13489643Y-11714929D01*
X13475357Y-11686357D01*
X13475357Y-11429214D01*
X13746786Y-11714929D02*
X13718214Y-11729214D01*
X13661071Y-11729214D01*
X13632500Y-11714929D01*
X13618214Y-11686357D01*
X13618214Y-11572071D01*
X13632500Y-11543500D01*
X13661071Y-11529214D01*
X13718214Y-11529214D01*
X13746786Y-11543500D01*
X13761071Y-11572071D01*
X13761071Y-11600643D01*
X13618214Y-11629214D01*
X13875357Y-11714929D02*
X13903928Y-11729214D01*
X13961071Y-11729214D01*
X13989643Y-11714929D01*
X14003928Y-11686357D01*
X14003928Y-11672071D01*
X13989643Y-11643500D01*
X13961071Y-11629214D01*
X13918214Y-11629214D01*
X13889643Y-11614929D01*
X13875357Y-11586357D01*
X13875357Y-11572071D01*
X13889643Y-11543500D01*
X13918214Y-11529214D01*
X13961071Y-11529214D01*
X13989643Y-11543500D01*
X14103928Y-11843500D02*
X14118214Y-11829214D01*
X14146786Y-11786357D01*
X14161071Y-11757786D01*
X14175357Y-11714929D01*
X14189643Y-11643500D01*
X14189643Y-11586357D01*
X14175357Y-11514929D01*
X14161071Y-11472071D01*
X14146786Y-11443500D01*
X14118214Y-11400643D01*
X14103928Y-11386357D01*
M02*
