%TF.GenerationSoftware,KiCad,Pcbnew,(5.1.9)-1*%
%TF.CreationDate,2021-04-12T23:16:35+02:00*%
%TF.ProjectId,v1_BMR480,76315f42-4d52-4343-9830-2e6b69636164,rev?*%
%TF.SameCoordinates,Original*%
%TF.FileFunction,Copper,L2,Bot*%
%TF.FilePolarity,Positive*%
%FSLAX46Y46*%
G04 Gerber Fmt 4.6, Leading zero omitted, Abs format (unit mm)*
G04 Created by KiCad (PCBNEW (5.1.9)-1) date 2021-04-12 23:16:35*
%MOMM*%
%LPD*%
G01*
G04 APERTURE LIST*
%TA.AperFunction,ComponentPad*%
%ADD10C,0.100000*%
%TD*%
%TA.AperFunction,ComponentPad*%
%ADD11O,2.200000X1.200000*%
%TD*%
%TA.AperFunction,ComponentPad*%
%ADD12C,3.500001*%
%TD*%
%TA.AperFunction,ComponentPad*%
%ADD13R,3.500000X3.500000*%
%TD*%
%TA.AperFunction,ComponentPad*%
%ADD14R,2.600000X2.600000*%
%TD*%
%TA.AperFunction,ComponentPad*%
%ADD15C,2.600000*%
%TD*%
%TA.AperFunction,ComponentPad*%
%ADD16O,1.400000X1.400000*%
%TD*%
%TA.AperFunction,ComponentPad*%
%ADD17C,1.400000*%
%TD*%
%TA.AperFunction,ComponentPad*%
%ADD18O,1.700000X1.700000*%
%TD*%
%TA.AperFunction,ComponentPad*%
%ADD19R,1.700000X1.700000*%
%TD*%
%TA.AperFunction,ComponentPad*%
%ADD20O,6.096000X3.302000*%
%TD*%
%TA.AperFunction,ComponentPad*%
%ADD21O,3.302000X6.096000*%
%TD*%
%TA.AperFunction,ComponentPad*%
%ADD22O,1.950000X1.700000*%
%TD*%
%TA.AperFunction,ComponentPad*%
%ADD23C,1.800000*%
%TD*%
%TA.AperFunction,ComponentPad*%
%ADD24R,1.800000X1.800000*%
%TD*%
%TA.AperFunction,Conductor*%
%ADD25C,2.000000*%
%TD*%
%TA.AperFunction,Conductor*%
%ADD26C,0.100000*%
%TD*%
%TA.AperFunction,Conductor*%
%ADD27C,0.254000*%
%TD*%
G04 APERTURE END LIST*
%TA.AperFunction,ComponentPad*%
D10*
%TO.P,PS1,5*%
%TO.N,-VOUT*%
G36*
X143760000Y-57630000D02*
G01*
X141760000Y-57630000D01*
X141760000Y-54130000D01*
X145260000Y-54130000D01*
X145260000Y-56130000D01*
X143760000Y-57630000D01*
G37*
%TD.AperFunction*%
D11*
%TO.P,PS1,15*%
%TO.N,SA0*%
X146110000Y-69500000D03*
%TO.P,PS1,14*%
%TO.N,SA1*%
X146110000Y-67500000D03*
%TO.P,PS1,13*%
%TO.N,Net-(J3-Pad5)*%
X146110000Y-65500000D03*
%TO.P,PS1,12*%
%TO.N,Net-(J3-Pad4)*%
X146110000Y-63500000D03*
%TO.P,PS1,11*%
%TO.N,Net-(J3-Pad3)*%
X146110000Y-61500000D03*
%TO.P,PS1,10*%
%TO.N,Net-(J3-Pad2)*%
X146110000Y-59500000D03*
%TO.P,PS1,9*%
%TO.N,Net-(J3-Pad1)*%
X146050000Y-57500000D03*
D12*
%TO.P,PS1,8*%
%TO.N,+VOUT*%
X143510000Y-74930000D03*
D13*
%TO.P,PS1,4*%
%TO.N,-VOUT*%
X143510000Y-52070000D03*
%TA.AperFunction,ComponentPad*%
D10*
%TO.P,PS1,7*%
%TO.N,+VOUT*%
G36*
X145260000Y-70870000D02*
G01*
X145260000Y-71995000D01*
X144385000Y-72870000D01*
X142635000Y-72870000D01*
X141760000Y-71995000D01*
X141760000Y-70245000D01*
X142635000Y-69370000D01*
X143760000Y-69370000D01*
X145260000Y-70870000D01*
G37*
%TD.AperFunction*%
D14*
%TO.P,PS1,3*%
%TO.N,-VIN*%
X92710000Y-55880000D03*
D15*
%TO.P,PS1,2*%
%TO.N,ONOFF_INV*%
X92710000Y-63500000D03*
%TO.P,PS1,1*%
%TO.N,+VIN*%
X92710000Y-71120000D03*
%TD*%
D16*
%TO.P,R1,2*%
%TO.N,Net-(D1-Pad2)*%
X123190000Y-60960000D03*
D17*
%TO.P,R1,1*%
%TO.N,+VOUT*%
X123190000Y-66040000D03*
%TD*%
D18*
%TO.P,J10,3*%
%TO.N,N/C*%
X86360000Y-63500000D03*
%TO.P,J10,2*%
%TO.N,ONOFF_INV*%
X83820000Y-63500000D03*
D19*
%TO.P,J10,1*%
%TO.N,-VIN*%
X81280000Y-63500000D03*
%TD*%
D20*
%TO.P,J9,2*%
%TO.N,+VOUT*%
X177419000Y-70104000D03*
D21*
%TO.P,J9,1*%
%TO.N,-VOUT*%
X178181000Y-77343000D03*
%TD*%
D20*
%TO.P,J8,2*%
%TO.N,+VOUT*%
X177419000Y-48514000D03*
D21*
%TO.P,J8,1*%
%TO.N,-VOUT*%
X178181000Y-55753000D03*
%TD*%
D20*
%TO.P,J7,2*%
%TO.N,+VOUT*%
X154940000Y-70104000D03*
D21*
%TO.P,J7,1*%
%TO.N,-VOUT*%
X155702000Y-77343000D03*
%TD*%
D20*
%TO.P,J6,2*%
%TO.N,+VOUT*%
X165989000Y-48514000D03*
D21*
%TO.P,J6,1*%
%TO.N,-VOUT*%
X166751000Y-55753000D03*
%TD*%
D20*
%TO.P,J5,2*%
%TO.N,+VOUT*%
X154559000Y-48514000D03*
D21*
%TO.P,J5,1*%
%TO.N,-VOUT*%
X155321000Y-55753000D03*
%TD*%
D20*
%TO.P,J4,2*%
%TO.N,+VOUT*%
X165989000Y-70104000D03*
D21*
%TO.P,J4,1*%
%TO.N,-VOUT*%
X166751000Y-77343000D03*
%TD*%
D22*
%TO.P,J3,6*%
%TO.N,SA1*%
X133350000Y-69650000D03*
%TO.P,J3,5*%
%TO.N,Net-(J3-Pad5)*%
X133350000Y-67150000D03*
%TO.P,J3,4*%
%TO.N,Net-(J3-Pad4)*%
X133350000Y-64650000D03*
%TO.P,J3,3*%
%TO.N,Net-(J3-Pad3)*%
X133350000Y-62150000D03*
%TO.P,J3,2*%
%TO.N,Net-(J3-Pad2)*%
X133350000Y-59650000D03*
%TO.P,J3,1*%
%TO.N,Net-(J3-Pad1)*%
%TA.AperFunction,ComponentPad*%
G36*
G01*
X132625000Y-56300000D02*
X134075000Y-56300000D01*
G75*
G02*
X134325000Y-56550000I0J-250000D01*
G01*
X134325000Y-57750000D01*
G75*
G02*
X134075000Y-58000000I-250000J0D01*
G01*
X132625000Y-58000000D01*
G75*
G02*
X132375000Y-57750000I0J250000D01*
G01*
X132375000Y-56550000D01*
G75*
G02*
X132625000Y-56300000I250000J0D01*
G01*
G37*
%TD.AperFunction*%
%TD*%
D21*
%TO.P,J2,1*%
%TO.N,-VIN*%
X83998000Y-77622000D03*
D20*
%TO.P,J2,2*%
%TO.N,+VIN*%
X83439000Y-71628000D03*
%TD*%
D21*
%TO.P,J1,1*%
%TO.N,-VIN*%
X82372000Y-49378000D03*
D20*
%TO.P,J1,2*%
%TO.N,+VIN*%
X82931000Y-55372000D03*
%TD*%
D23*
%TO.P,D1,2*%
%TO.N,Net-(D1-Pad2)*%
X119380000Y-64770000D03*
D24*
%TO.P,D1,1*%
%TO.N,-VOUT*%
X119380000Y-62230000D03*
%TD*%
D25*
%TO.N,+VOUT*%
X143510000Y-71120000D02*
X143510000Y-74930000D01*
X143510000Y-71120000D02*
X144780000Y-72390000D01*
X144780000Y-72390000D02*
X147320000Y-72390000D01*
%TD*%
D26*
%TO.N,+VOUT*%
X181560000Y-81230000D02*
X141020000Y-81230000D01*
X141020000Y-77101959D01*
X142681544Y-77101959D01*
X142911649Y-77369796D01*
X143399127Y-77439648D01*
X143890865Y-77413056D01*
X144108351Y-77369796D01*
X144338456Y-77101959D01*
X143510000Y-76273503D01*
X142681544Y-77101959D01*
X141020000Y-77101959D01*
X141020000Y-75828052D01*
X153301000Y-75828052D01*
X153301000Y-78857949D01*
X153335741Y-79210678D01*
X153473033Y-79663269D01*
X153695983Y-80080378D01*
X153996023Y-80445978D01*
X154361623Y-80746018D01*
X154778732Y-80968967D01*
X155231323Y-81106259D01*
X155702000Y-81152617D01*
X156172678Y-81106259D01*
X156625269Y-80968967D01*
X157042378Y-80746018D01*
X157407978Y-80445978D01*
X157708018Y-80080378D01*
X157930967Y-79663269D01*
X158068259Y-79210678D01*
X158103000Y-78857949D01*
X158103000Y-75828052D01*
X164350000Y-75828052D01*
X164350000Y-78857949D01*
X164384741Y-79210678D01*
X164522033Y-79663269D01*
X164744983Y-80080378D01*
X165045023Y-80445978D01*
X165410623Y-80746018D01*
X165827732Y-80968967D01*
X166280323Y-81106259D01*
X166751000Y-81152617D01*
X167221678Y-81106259D01*
X167674269Y-80968967D01*
X168091378Y-80746018D01*
X168456978Y-80445978D01*
X168757018Y-80080378D01*
X168979967Y-79663269D01*
X169117259Y-79210678D01*
X169152000Y-78857949D01*
X169152000Y-75828052D01*
X175780000Y-75828052D01*
X175780000Y-78857949D01*
X175814741Y-79210678D01*
X175952033Y-79663269D01*
X176174983Y-80080378D01*
X176475023Y-80445978D01*
X176840623Y-80746018D01*
X177257732Y-80968967D01*
X177710323Y-81106259D01*
X178181000Y-81152617D01*
X178651678Y-81106259D01*
X179104269Y-80968967D01*
X179521378Y-80746018D01*
X179886978Y-80445978D01*
X180187018Y-80080378D01*
X180409967Y-79663269D01*
X180547259Y-79210678D01*
X180582000Y-78857949D01*
X180582000Y-75828051D01*
X180547259Y-75475322D01*
X180409967Y-75022731D01*
X180187018Y-74605622D01*
X179886978Y-74240022D01*
X179521377Y-73939982D01*
X179104268Y-73717033D01*
X178651677Y-73579741D01*
X178181000Y-73533383D01*
X177710322Y-73579741D01*
X177257731Y-73717033D01*
X176840622Y-73939982D01*
X176475022Y-74240022D01*
X176174982Y-74605623D01*
X175952033Y-75022732D01*
X175814741Y-75475323D01*
X175780000Y-75828052D01*
X169152000Y-75828052D01*
X169152000Y-75828051D01*
X169117259Y-75475322D01*
X168979967Y-75022731D01*
X168757018Y-74605622D01*
X168456978Y-74240022D01*
X168091377Y-73939982D01*
X167674268Y-73717033D01*
X167221677Y-73579741D01*
X166751000Y-73533383D01*
X166280322Y-73579741D01*
X165827731Y-73717033D01*
X165410622Y-73939982D01*
X165045022Y-74240022D01*
X164744982Y-74605623D01*
X164522033Y-75022732D01*
X164384741Y-75475323D01*
X164350000Y-75828052D01*
X158103000Y-75828052D01*
X158103000Y-75828051D01*
X158068259Y-75475322D01*
X157930967Y-75022731D01*
X157708018Y-74605622D01*
X157407978Y-74240022D01*
X157042377Y-73939982D01*
X156625268Y-73717033D01*
X156172677Y-73579741D01*
X155702000Y-73533383D01*
X155231322Y-73579741D01*
X154778731Y-73717033D01*
X154361622Y-73939982D01*
X153996022Y-74240022D01*
X153695982Y-74605623D01*
X153473033Y-75022732D01*
X153335741Y-75475323D01*
X153301000Y-75828052D01*
X141020000Y-75828052D01*
X141020000Y-75182457D01*
X141026944Y-75310865D01*
X141070204Y-75528351D01*
X141338041Y-75758456D01*
X142166497Y-74930000D01*
X144853503Y-74930000D01*
X145681959Y-75758456D01*
X145949796Y-75528351D01*
X146019648Y-75040873D01*
X145993056Y-74549135D01*
X145949796Y-74331649D01*
X145681959Y-74101544D01*
X144853503Y-74930000D01*
X142166497Y-74930000D01*
X141338041Y-74101544D01*
X141070204Y-74331649D01*
X141020000Y-74682009D01*
X141020000Y-72133376D01*
X141020852Y-72142026D01*
X141063738Y-72283401D01*
X141133380Y-72413694D01*
X141227104Y-72527896D01*
X142102104Y-73402896D01*
X142216306Y-73496620D01*
X142346599Y-73566262D01*
X142487974Y-73609148D01*
X142635000Y-73623629D01*
X144385000Y-73623629D01*
X144532026Y-73609148D01*
X144673401Y-73566262D01*
X144803694Y-73496620D01*
X144917896Y-73402896D01*
X145792896Y-72527896D01*
X145886620Y-72413694D01*
X145956262Y-72283401D01*
X145999148Y-72142026D01*
X146013629Y-71995000D01*
X146013629Y-71387252D01*
X151513698Y-71387252D01*
X151793026Y-71927953D01*
X152182487Y-72234309D01*
X152624232Y-72458799D01*
X153101284Y-72592795D01*
X153595311Y-72631148D01*
X153990000Y-72404351D01*
X153990000Y-71054000D01*
X155890000Y-71054000D01*
X155890000Y-72404351D01*
X156284689Y-72631148D01*
X156778716Y-72592795D01*
X157255768Y-72458799D01*
X157697513Y-72234309D01*
X158086974Y-71927953D01*
X158366302Y-71387252D01*
X162562698Y-71387252D01*
X162842026Y-71927953D01*
X163231487Y-72234309D01*
X163673232Y-72458799D01*
X164150284Y-72592795D01*
X164644311Y-72631148D01*
X165039000Y-72404351D01*
X165039000Y-71054000D01*
X166939000Y-71054000D01*
X166939000Y-72404351D01*
X167333689Y-72631148D01*
X167827716Y-72592795D01*
X168304768Y-72458799D01*
X168746513Y-72234309D01*
X169135974Y-71927953D01*
X169415302Y-71387252D01*
X173992698Y-71387252D01*
X174272026Y-71927953D01*
X174661487Y-72234309D01*
X175103232Y-72458799D01*
X175580284Y-72592795D01*
X176074311Y-72631148D01*
X176469000Y-72404351D01*
X176469000Y-71054000D01*
X178369000Y-71054000D01*
X178369000Y-72404351D01*
X178763689Y-72631148D01*
X179257716Y-72592795D01*
X179734768Y-72458799D01*
X180176513Y-72234309D01*
X180565974Y-71927953D01*
X180845302Y-71387252D01*
X180815270Y-71054000D01*
X178369000Y-71054000D01*
X176469000Y-71054000D01*
X174022730Y-71054000D01*
X173992698Y-71387252D01*
X169415302Y-71387252D01*
X169385270Y-71054000D01*
X166939000Y-71054000D01*
X165039000Y-71054000D01*
X162592730Y-71054000D01*
X162562698Y-71387252D01*
X158366302Y-71387252D01*
X158336270Y-71054000D01*
X155890000Y-71054000D01*
X153990000Y-71054000D01*
X151543730Y-71054000D01*
X151513698Y-71387252D01*
X146013629Y-71387252D01*
X146013629Y-70870000D01*
X146011659Y-70850000D01*
X146676321Y-70850000D01*
X146874646Y-70830467D01*
X147129122Y-70753272D01*
X147363649Y-70627915D01*
X147569213Y-70459213D01*
X147737915Y-70253649D01*
X147863272Y-70019122D01*
X147940467Y-69764646D01*
X147966532Y-69500000D01*
X147940467Y-69235354D01*
X147863272Y-68980878D01*
X147777681Y-68820748D01*
X151513698Y-68820748D01*
X151543730Y-69154000D01*
X153990000Y-69154000D01*
X153990000Y-67803649D01*
X155890000Y-67803649D01*
X155890000Y-69154000D01*
X158336270Y-69154000D01*
X158366302Y-68820748D01*
X162562698Y-68820748D01*
X162592730Y-69154000D01*
X165039000Y-69154000D01*
X165039000Y-67803649D01*
X166939000Y-67803649D01*
X166939000Y-69154000D01*
X169385270Y-69154000D01*
X169415302Y-68820748D01*
X173992698Y-68820748D01*
X174022730Y-69154000D01*
X176469000Y-69154000D01*
X176469000Y-67803649D01*
X178369000Y-67803649D01*
X178369000Y-69154000D01*
X180815270Y-69154000D01*
X180845302Y-68820748D01*
X180565974Y-68280047D01*
X180176513Y-67973691D01*
X179734768Y-67749201D01*
X179257716Y-67615205D01*
X178763689Y-67576852D01*
X178369000Y-67803649D01*
X176469000Y-67803649D01*
X176074311Y-67576852D01*
X175580284Y-67615205D01*
X175103232Y-67749201D01*
X174661487Y-67973691D01*
X174272026Y-68280047D01*
X173992698Y-68820748D01*
X169415302Y-68820748D01*
X169135974Y-68280047D01*
X168746513Y-67973691D01*
X168304768Y-67749201D01*
X167827716Y-67615205D01*
X167333689Y-67576852D01*
X166939000Y-67803649D01*
X165039000Y-67803649D01*
X164644311Y-67576852D01*
X164150284Y-67615205D01*
X163673232Y-67749201D01*
X163231487Y-67973691D01*
X162842026Y-68280047D01*
X162562698Y-68820748D01*
X158366302Y-68820748D01*
X158086974Y-68280047D01*
X157697513Y-67973691D01*
X157255768Y-67749201D01*
X156778716Y-67615205D01*
X156284689Y-67576852D01*
X155890000Y-67803649D01*
X153990000Y-67803649D01*
X153595311Y-67576852D01*
X153101284Y-67615205D01*
X152624232Y-67749201D01*
X152182487Y-67973691D01*
X151793026Y-68280047D01*
X151513698Y-68820748D01*
X147777681Y-68820748D01*
X147737915Y-68746351D01*
X147569213Y-68540787D01*
X147519514Y-68500000D01*
X147569213Y-68459213D01*
X147737915Y-68253649D01*
X147863272Y-68019122D01*
X147940467Y-67764646D01*
X147966532Y-67500000D01*
X147940467Y-67235354D01*
X147863272Y-66980878D01*
X147737915Y-66746351D01*
X147569213Y-66540787D01*
X147519514Y-66500000D01*
X147569213Y-66459213D01*
X147737915Y-66253649D01*
X147863272Y-66019122D01*
X147940467Y-65764646D01*
X147966532Y-65500000D01*
X147940467Y-65235354D01*
X147863272Y-64980878D01*
X147737915Y-64746351D01*
X147569213Y-64540787D01*
X147519514Y-64500000D01*
X147569213Y-64459213D01*
X147737915Y-64253649D01*
X147863272Y-64019122D01*
X147940467Y-63764646D01*
X147966532Y-63500000D01*
X147940467Y-63235354D01*
X147863272Y-62980878D01*
X147737915Y-62746351D01*
X147569213Y-62540787D01*
X147519514Y-62500000D01*
X147569213Y-62459213D01*
X147737915Y-62253649D01*
X147863272Y-62019122D01*
X147940467Y-61764646D01*
X147966532Y-61500000D01*
X147940467Y-61235354D01*
X147863272Y-60980878D01*
X147737915Y-60746351D01*
X147569213Y-60540787D01*
X147519514Y-60500000D01*
X147569213Y-60459213D01*
X147737915Y-60253649D01*
X147863272Y-60019122D01*
X147940467Y-59764646D01*
X147966532Y-59500000D01*
X147940467Y-59235354D01*
X147863272Y-58980878D01*
X147737915Y-58746351D01*
X147569213Y-58540787D01*
X147489514Y-58475380D01*
X147509213Y-58459213D01*
X147677915Y-58253649D01*
X147803272Y-58019122D01*
X147880467Y-57764646D01*
X147906532Y-57500000D01*
X147880467Y-57235354D01*
X147803272Y-56980878D01*
X147677915Y-56746351D01*
X147509213Y-56540787D01*
X147303649Y-56372085D01*
X147069122Y-56246728D01*
X146814646Y-56169533D01*
X146616321Y-56150000D01*
X146011659Y-56150000D01*
X146013629Y-56130000D01*
X146013629Y-54238052D01*
X152920000Y-54238052D01*
X152920000Y-57267949D01*
X152954741Y-57620678D01*
X153092033Y-58073269D01*
X153314983Y-58490378D01*
X153615023Y-58855978D01*
X153980623Y-59156018D01*
X154397732Y-59378967D01*
X154850323Y-59516259D01*
X155321000Y-59562617D01*
X155791678Y-59516259D01*
X156244269Y-59378967D01*
X156661378Y-59156018D01*
X157026978Y-58855978D01*
X157327018Y-58490378D01*
X157549967Y-58073269D01*
X157687259Y-57620678D01*
X157722000Y-57267949D01*
X157722000Y-54238052D01*
X164350000Y-54238052D01*
X164350000Y-57267949D01*
X164384741Y-57620678D01*
X164522033Y-58073269D01*
X164744983Y-58490378D01*
X165045023Y-58855978D01*
X165410623Y-59156018D01*
X165827732Y-59378967D01*
X166280323Y-59516259D01*
X166751000Y-59562617D01*
X167221678Y-59516259D01*
X167674269Y-59378967D01*
X168091378Y-59156018D01*
X168456978Y-58855978D01*
X168757018Y-58490378D01*
X168979967Y-58073269D01*
X169117259Y-57620678D01*
X169152000Y-57267949D01*
X169152000Y-54238052D01*
X175780000Y-54238052D01*
X175780000Y-57267949D01*
X175814741Y-57620678D01*
X175952033Y-58073269D01*
X176174983Y-58490378D01*
X176475023Y-58855978D01*
X176840623Y-59156018D01*
X177257732Y-59378967D01*
X177710323Y-59516259D01*
X178181000Y-59562617D01*
X178651678Y-59516259D01*
X179104269Y-59378967D01*
X179521378Y-59156018D01*
X179886978Y-58855978D01*
X180187018Y-58490378D01*
X180409967Y-58073269D01*
X180547259Y-57620678D01*
X180582000Y-57267949D01*
X180582000Y-54238051D01*
X180547259Y-53885322D01*
X180409967Y-53432731D01*
X180187018Y-53015622D01*
X179886978Y-52650022D01*
X179521377Y-52349982D01*
X179104268Y-52127033D01*
X178651677Y-51989741D01*
X178181000Y-51943383D01*
X177710322Y-51989741D01*
X177257731Y-52127033D01*
X176840622Y-52349982D01*
X176475022Y-52650022D01*
X176174982Y-53015623D01*
X175952033Y-53432732D01*
X175814741Y-53885323D01*
X175780000Y-54238052D01*
X169152000Y-54238052D01*
X169152000Y-54238051D01*
X169117259Y-53885322D01*
X168979967Y-53432731D01*
X168757018Y-53015622D01*
X168456978Y-52650022D01*
X168091377Y-52349982D01*
X167674268Y-52127033D01*
X167221677Y-51989741D01*
X166751000Y-51943383D01*
X166280322Y-51989741D01*
X165827731Y-52127033D01*
X165410622Y-52349982D01*
X165045022Y-52650022D01*
X164744982Y-53015623D01*
X164522033Y-53432732D01*
X164384741Y-53885323D01*
X164350000Y-54238052D01*
X157722000Y-54238052D01*
X157722000Y-54238051D01*
X157687259Y-53885322D01*
X157549967Y-53432731D01*
X157327018Y-53015622D01*
X157026978Y-52650022D01*
X156661377Y-52349982D01*
X156244268Y-52127033D01*
X155791677Y-51989741D01*
X155321000Y-51943383D01*
X154850322Y-51989741D01*
X154397731Y-52127033D01*
X153980622Y-52349982D01*
X153615022Y-52650022D01*
X153314982Y-53015623D01*
X153092033Y-53432732D01*
X152954741Y-53885323D01*
X152920000Y-54238052D01*
X146013629Y-54238052D01*
X146013629Y-54130000D01*
X145999148Y-53982974D01*
X145996729Y-53974998D01*
X145999147Y-53967026D01*
X146013628Y-53820000D01*
X146013628Y-50320000D01*
X145999147Y-50172974D01*
X145956261Y-50031599D01*
X145886619Y-49901307D01*
X145801223Y-49797252D01*
X151132698Y-49797252D01*
X151412026Y-50337953D01*
X151801487Y-50644309D01*
X152243232Y-50868799D01*
X152720284Y-51002795D01*
X153214311Y-51041148D01*
X153609000Y-50814351D01*
X153609000Y-49464000D01*
X155509000Y-49464000D01*
X155509000Y-50814351D01*
X155903689Y-51041148D01*
X156397716Y-51002795D01*
X156874768Y-50868799D01*
X157316513Y-50644309D01*
X157705974Y-50337953D01*
X157985302Y-49797252D01*
X162562698Y-49797252D01*
X162842026Y-50337953D01*
X163231487Y-50644309D01*
X163673232Y-50868799D01*
X164150284Y-51002795D01*
X164644311Y-51041148D01*
X165039000Y-50814351D01*
X165039000Y-49464000D01*
X166939000Y-49464000D01*
X166939000Y-50814351D01*
X167333689Y-51041148D01*
X167827716Y-51002795D01*
X168304768Y-50868799D01*
X168746513Y-50644309D01*
X169135974Y-50337953D01*
X169415302Y-49797252D01*
X173992698Y-49797252D01*
X174272026Y-50337953D01*
X174661487Y-50644309D01*
X175103232Y-50868799D01*
X175580284Y-51002795D01*
X176074311Y-51041148D01*
X176469000Y-50814351D01*
X176469000Y-49464000D01*
X178369000Y-49464000D01*
X178369000Y-50814351D01*
X178763689Y-51041148D01*
X179257716Y-51002795D01*
X179734768Y-50868799D01*
X180176513Y-50644309D01*
X180565974Y-50337953D01*
X180845302Y-49797252D01*
X180815270Y-49464000D01*
X178369000Y-49464000D01*
X176469000Y-49464000D01*
X174022730Y-49464000D01*
X173992698Y-49797252D01*
X169415302Y-49797252D01*
X169385270Y-49464000D01*
X166939000Y-49464000D01*
X165039000Y-49464000D01*
X162592730Y-49464000D01*
X162562698Y-49797252D01*
X157985302Y-49797252D01*
X157955270Y-49464000D01*
X155509000Y-49464000D01*
X153609000Y-49464000D01*
X151162730Y-49464000D01*
X151132698Y-49797252D01*
X145801223Y-49797252D01*
X145792895Y-49787105D01*
X145678693Y-49693381D01*
X145548401Y-49623739D01*
X145407026Y-49580853D01*
X145260000Y-49566372D01*
X141760000Y-49566372D01*
X141612974Y-49580853D01*
X141471599Y-49623739D01*
X141341307Y-49693381D01*
X141227105Y-49787105D01*
X141133381Y-49901307D01*
X141063739Y-50031599D01*
X141020853Y-50172974D01*
X141020000Y-50181635D01*
X141020000Y-47230748D01*
X151132698Y-47230748D01*
X151162730Y-47564000D01*
X153609000Y-47564000D01*
X153609000Y-46213649D01*
X155509000Y-46213649D01*
X155509000Y-47564000D01*
X157955270Y-47564000D01*
X157985302Y-47230748D01*
X162562698Y-47230748D01*
X162592730Y-47564000D01*
X165039000Y-47564000D01*
X165039000Y-46213649D01*
X166939000Y-46213649D01*
X166939000Y-47564000D01*
X169385270Y-47564000D01*
X169415302Y-47230748D01*
X173992698Y-47230748D01*
X174022730Y-47564000D01*
X176469000Y-47564000D01*
X176469000Y-46213649D01*
X178369000Y-46213649D01*
X178369000Y-47564000D01*
X180815270Y-47564000D01*
X180845302Y-47230748D01*
X180565974Y-46690047D01*
X180176513Y-46383691D01*
X179734768Y-46159201D01*
X179257716Y-46025205D01*
X178763689Y-45986852D01*
X178369000Y-46213649D01*
X176469000Y-46213649D01*
X176074311Y-45986852D01*
X175580284Y-46025205D01*
X175103232Y-46159201D01*
X174661487Y-46383691D01*
X174272026Y-46690047D01*
X173992698Y-47230748D01*
X169415302Y-47230748D01*
X169135974Y-46690047D01*
X168746513Y-46383691D01*
X168304768Y-46159201D01*
X167827716Y-46025205D01*
X167333689Y-45986852D01*
X166939000Y-46213649D01*
X165039000Y-46213649D01*
X164644311Y-45986852D01*
X164150284Y-46025205D01*
X163673232Y-46159201D01*
X163231487Y-46383691D01*
X162842026Y-46690047D01*
X162562698Y-47230748D01*
X157985302Y-47230748D01*
X157705974Y-46690047D01*
X157316513Y-46383691D01*
X156874768Y-46159201D01*
X156397716Y-46025205D01*
X155903689Y-45986852D01*
X155509000Y-46213649D01*
X153609000Y-46213649D01*
X153214311Y-45986852D01*
X152720284Y-46025205D01*
X152243232Y-46159201D01*
X151801487Y-46383691D01*
X151412026Y-46690047D01*
X151132698Y-47230748D01*
X141020000Y-47230748D01*
X141020000Y-45770000D01*
X181560000Y-45770000D01*
X181560000Y-81230000D01*
%TA.AperFunction,Conductor*%
G36*
X181560000Y-81230000D02*
G01*
X141020000Y-81230000D01*
X141020000Y-77101959D01*
X142681544Y-77101959D01*
X142911649Y-77369796D01*
X143399127Y-77439648D01*
X143890865Y-77413056D01*
X144108351Y-77369796D01*
X144338456Y-77101959D01*
X143510000Y-76273503D01*
X142681544Y-77101959D01*
X141020000Y-77101959D01*
X141020000Y-75828052D01*
X153301000Y-75828052D01*
X153301000Y-78857949D01*
X153335741Y-79210678D01*
X153473033Y-79663269D01*
X153695983Y-80080378D01*
X153996023Y-80445978D01*
X154361623Y-80746018D01*
X154778732Y-80968967D01*
X155231323Y-81106259D01*
X155702000Y-81152617D01*
X156172678Y-81106259D01*
X156625269Y-80968967D01*
X157042378Y-80746018D01*
X157407978Y-80445978D01*
X157708018Y-80080378D01*
X157930967Y-79663269D01*
X158068259Y-79210678D01*
X158103000Y-78857949D01*
X158103000Y-75828052D01*
X164350000Y-75828052D01*
X164350000Y-78857949D01*
X164384741Y-79210678D01*
X164522033Y-79663269D01*
X164744983Y-80080378D01*
X165045023Y-80445978D01*
X165410623Y-80746018D01*
X165827732Y-80968967D01*
X166280323Y-81106259D01*
X166751000Y-81152617D01*
X167221678Y-81106259D01*
X167674269Y-80968967D01*
X168091378Y-80746018D01*
X168456978Y-80445978D01*
X168757018Y-80080378D01*
X168979967Y-79663269D01*
X169117259Y-79210678D01*
X169152000Y-78857949D01*
X169152000Y-75828052D01*
X175780000Y-75828052D01*
X175780000Y-78857949D01*
X175814741Y-79210678D01*
X175952033Y-79663269D01*
X176174983Y-80080378D01*
X176475023Y-80445978D01*
X176840623Y-80746018D01*
X177257732Y-80968967D01*
X177710323Y-81106259D01*
X178181000Y-81152617D01*
X178651678Y-81106259D01*
X179104269Y-80968967D01*
X179521378Y-80746018D01*
X179886978Y-80445978D01*
X180187018Y-80080378D01*
X180409967Y-79663269D01*
X180547259Y-79210678D01*
X180582000Y-78857949D01*
X180582000Y-75828051D01*
X180547259Y-75475322D01*
X180409967Y-75022731D01*
X180187018Y-74605622D01*
X179886978Y-74240022D01*
X179521377Y-73939982D01*
X179104268Y-73717033D01*
X178651677Y-73579741D01*
X178181000Y-73533383D01*
X177710322Y-73579741D01*
X177257731Y-73717033D01*
X176840622Y-73939982D01*
X176475022Y-74240022D01*
X176174982Y-74605623D01*
X175952033Y-75022732D01*
X175814741Y-75475323D01*
X175780000Y-75828052D01*
X169152000Y-75828052D01*
X169152000Y-75828051D01*
X169117259Y-75475322D01*
X168979967Y-75022731D01*
X168757018Y-74605622D01*
X168456978Y-74240022D01*
X168091377Y-73939982D01*
X167674268Y-73717033D01*
X167221677Y-73579741D01*
X166751000Y-73533383D01*
X166280322Y-73579741D01*
X165827731Y-73717033D01*
X165410622Y-73939982D01*
X165045022Y-74240022D01*
X164744982Y-74605623D01*
X164522033Y-75022732D01*
X164384741Y-75475323D01*
X164350000Y-75828052D01*
X158103000Y-75828052D01*
X158103000Y-75828051D01*
X158068259Y-75475322D01*
X157930967Y-75022731D01*
X157708018Y-74605622D01*
X157407978Y-74240022D01*
X157042377Y-73939982D01*
X156625268Y-73717033D01*
X156172677Y-73579741D01*
X155702000Y-73533383D01*
X155231322Y-73579741D01*
X154778731Y-73717033D01*
X154361622Y-73939982D01*
X153996022Y-74240022D01*
X153695982Y-74605623D01*
X153473033Y-75022732D01*
X153335741Y-75475323D01*
X153301000Y-75828052D01*
X141020000Y-75828052D01*
X141020000Y-75182457D01*
X141026944Y-75310865D01*
X141070204Y-75528351D01*
X141338041Y-75758456D01*
X142166497Y-74930000D01*
X144853503Y-74930000D01*
X145681959Y-75758456D01*
X145949796Y-75528351D01*
X146019648Y-75040873D01*
X145993056Y-74549135D01*
X145949796Y-74331649D01*
X145681959Y-74101544D01*
X144853503Y-74930000D01*
X142166497Y-74930000D01*
X141338041Y-74101544D01*
X141070204Y-74331649D01*
X141020000Y-74682009D01*
X141020000Y-72133376D01*
X141020852Y-72142026D01*
X141063738Y-72283401D01*
X141133380Y-72413694D01*
X141227104Y-72527896D01*
X142102104Y-73402896D01*
X142216306Y-73496620D01*
X142346599Y-73566262D01*
X142487974Y-73609148D01*
X142635000Y-73623629D01*
X144385000Y-73623629D01*
X144532026Y-73609148D01*
X144673401Y-73566262D01*
X144803694Y-73496620D01*
X144917896Y-73402896D01*
X145792896Y-72527896D01*
X145886620Y-72413694D01*
X145956262Y-72283401D01*
X145999148Y-72142026D01*
X146013629Y-71995000D01*
X146013629Y-71387252D01*
X151513698Y-71387252D01*
X151793026Y-71927953D01*
X152182487Y-72234309D01*
X152624232Y-72458799D01*
X153101284Y-72592795D01*
X153595311Y-72631148D01*
X153990000Y-72404351D01*
X153990000Y-71054000D01*
X155890000Y-71054000D01*
X155890000Y-72404351D01*
X156284689Y-72631148D01*
X156778716Y-72592795D01*
X157255768Y-72458799D01*
X157697513Y-72234309D01*
X158086974Y-71927953D01*
X158366302Y-71387252D01*
X162562698Y-71387252D01*
X162842026Y-71927953D01*
X163231487Y-72234309D01*
X163673232Y-72458799D01*
X164150284Y-72592795D01*
X164644311Y-72631148D01*
X165039000Y-72404351D01*
X165039000Y-71054000D01*
X166939000Y-71054000D01*
X166939000Y-72404351D01*
X167333689Y-72631148D01*
X167827716Y-72592795D01*
X168304768Y-72458799D01*
X168746513Y-72234309D01*
X169135974Y-71927953D01*
X169415302Y-71387252D01*
X173992698Y-71387252D01*
X174272026Y-71927953D01*
X174661487Y-72234309D01*
X175103232Y-72458799D01*
X175580284Y-72592795D01*
X176074311Y-72631148D01*
X176469000Y-72404351D01*
X176469000Y-71054000D01*
X178369000Y-71054000D01*
X178369000Y-72404351D01*
X178763689Y-72631148D01*
X179257716Y-72592795D01*
X179734768Y-72458799D01*
X180176513Y-72234309D01*
X180565974Y-71927953D01*
X180845302Y-71387252D01*
X180815270Y-71054000D01*
X178369000Y-71054000D01*
X176469000Y-71054000D01*
X174022730Y-71054000D01*
X173992698Y-71387252D01*
X169415302Y-71387252D01*
X169385270Y-71054000D01*
X166939000Y-71054000D01*
X165039000Y-71054000D01*
X162592730Y-71054000D01*
X162562698Y-71387252D01*
X158366302Y-71387252D01*
X158336270Y-71054000D01*
X155890000Y-71054000D01*
X153990000Y-71054000D01*
X151543730Y-71054000D01*
X151513698Y-71387252D01*
X146013629Y-71387252D01*
X146013629Y-70870000D01*
X146011659Y-70850000D01*
X146676321Y-70850000D01*
X146874646Y-70830467D01*
X147129122Y-70753272D01*
X147363649Y-70627915D01*
X147569213Y-70459213D01*
X147737915Y-70253649D01*
X147863272Y-70019122D01*
X147940467Y-69764646D01*
X147966532Y-69500000D01*
X147940467Y-69235354D01*
X147863272Y-68980878D01*
X147777681Y-68820748D01*
X151513698Y-68820748D01*
X151543730Y-69154000D01*
X153990000Y-69154000D01*
X153990000Y-67803649D01*
X155890000Y-67803649D01*
X155890000Y-69154000D01*
X158336270Y-69154000D01*
X158366302Y-68820748D01*
X162562698Y-68820748D01*
X162592730Y-69154000D01*
X165039000Y-69154000D01*
X165039000Y-67803649D01*
X166939000Y-67803649D01*
X166939000Y-69154000D01*
X169385270Y-69154000D01*
X169415302Y-68820748D01*
X173992698Y-68820748D01*
X174022730Y-69154000D01*
X176469000Y-69154000D01*
X176469000Y-67803649D01*
X178369000Y-67803649D01*
X178369000Y-69154000D01*
X180815270Y-69154000D01*
X180845302Y-68820748D01*
X180565974Y-68280047D01*
X180176513Y-67973691D01*
X179734768Y-67749201D01*
X179257716Y-67615205D01*
X178763689Y-67576852D01*
X178369000Y-67803649D01*
X176469000Y-67803649D01*
X176074311Y-67576852D01*
X175580284Y-67615205D01*
X175103232Y-67749201D01*
X174661487Y-67973691D01*
X174272026Y-68280047D01*
X173992698Y-68820748D01*
X169415302Y-68820748D01*
X169135974Y-68280047D01*
X168746513Y-67973691D01*
X168304768Y-67749201D01*
X167827716Y-67615205D01*
X167333689Y-67576852D01*
X166939000Y-67803649D01*
X165039000Y-67803649D01*
X164644311Y-67576852D01*
X164150284Y-67615205D01*
X163673232Y-67749201D01*
X163231487Y-67973691D01*
X162842026Y-68280047D01*
X162562698Y-68820748D01*
X158366302Y-68820748D01*
X158086974Y-68280047D01*
X157697513Y-67973691D01*
X157255768Y-67749201D01*
X156778716Y-67615205D01*
X156284689Y-67576852D01*
X155890000Y-67803649D01*
X153990000Y-67803649D01*
X153595311Y-67576852D01*
X153101284Y-67615205D01*
X152624232Y-67749201D01*
X152182487Y-67973691D01*
X151793026Y-68280047D01*
X151513698Y-68820748D01*
X147777681Y-68820748D01*
X147737915Y-68746351D01*
X147569213Y-68540787D01*
X147519514Y-68500000D01*
X147569213Y-68459213D01*
X147737915Y-68253649D01*
X147863272Y-68019122D01*
X147940467Y-67764646D01*
X147966532Y-67500000D01*
X147940467Y-67235354D01*
X147863272Y-66980878D01*
X147737915Y-66746351D01*
X147569213Y-66540787D01*
X147519514Y-66500000D01*
X147569213Y-66459213D01*
X147737915Y-66253649D01*
X147863272Y-66019122D01*
X147940467Y-65764646D01*
X147966532Y-65500000D01*
X147940467Y-65235354D01*
X147863272Y-64980878D01*
X147737915Y-64746351D01*
X147569213Y-64540787D01*
X147519514Y-64500000D01*
X147569213Y-64459213D01*
X147737915Y-64253649D01*
X147863272Y-64019122D01*
X147940467Y-63764646D01*
X147966532Y-63500000D01*
X147940467Y-63235354D01*
X147863272Y-62980878D01*
X147737915Y-62746351D01*
X147569213Y-62540787D01*
X147519514Y-62500000D01*
X147569213Y-62459213D01*
X147737915Y-62253649D01*
X147863272Y-62019122D01*
X147940467Y-61764646D01*
X147966532Y-61500000D01*
X147940467Y-61235354D01*
X147863272Y-60980878D01*
X147737915Y-60746351D01*
X147569213Y-60540787D01*
X147519514Y-60500000D01*
X147569213Y-60459213D01*
X147737915Y-60253649D01*
X147863272Y-60019122D01*
X147940467Y-59764646D01*
X147966532Y-59500000D01*
X147940467Y-59235354D01*
X147863272Y-58980878D01*
X147737915Y-58746351D01*
X147569213Y-58540787D01*
X147489514Y-58475380D01*
X147509213Y-58459213D01*
X147677915Y-58253649D01*
X147803272Y-58019122D01*
X147880467Y-57764646D01*
X147906532Y-57500000D01*
X147880467Y-57235354D01*
X147803272Y-56980878D01*
X147677915Y-56746351D01*
X147509213Y-56540787D01*
X147303649Y-56372085D01*
X147069122Y-56246728D01*
X146814646Y-56169533D01*
X146616321Y-56150000D01*
X146011659Y-56150000D01*
X146013629Y-56130000D01*
X146013629Y-54238052D01*
X152920000Y-54238052D01*
X152920000Y-57267949D01*
X152954741Y-57620678D01*
X153092033Y-58073269D01*
X153314983Y-58490378D01*
X153615023Y-58855978D01*
X153980623Y-59156018D01*
X154397732Y-59378967D01*
X154850323Y-59516259D01*
X155321000Y-59562617D01*
X155791678Y-59516259D01*
X156244269Y-59378967D01*
X156661378Y-59156018D01*
X157026978Y-58855978D01*
X157327018Y-58490378D01*
X157549967Y-58073269D01*
X157687259Y-57620678D01*
X157722000Y-57267949D01*
X157722000Y-54238052D01*
X164350000Y-54238052D01*
X164350000Y-57267949D01*
X164384741Y-57620678D01*
X164522033Y-58073269D01*
X164744983Y-58490378D01*
X165045023Y-58855978D01*
X165410623Y-59156018D01*
X165827732Y-59378967D01*
X166280323Y-59516259D01*
X166751000Y-59562617D01*
X167221678Y-59516259D01*
X167674269Y-59378967D01*
X168091378Y-59156018D01*
X168456978Y-58855978D01*
X168757018Y-58490378D01*
X168979967Y-58073269D01*
X169117259Y-57620678D01*
X169152000Y-57267949D01*
X169152000Y-54238052D01*
X175780000Y-54238052D01*
X175780000Y-57267949D01*
X175814741Y-57620678D01*
X175952033Y-58073269D01*
X176174983Y-58490378D01*
X176475023Y-58855978D01*
X176840623Y-59156018D01*
X177257732Y-59378967D01*
X177710323Y-59516259D01*
X178181000Y-59562617D01*
X178651678Y-59516259D01*
X179104269Y-59378967D01*
X179521378Y-59156018D01*
X179886978Y-58855978D01*
X180187018Y-58490378D01*
X180409967Y-58073269D01*
X180547259Y-57620678D01*
X180582000Y-57267949D01*
X180582000Y-54238051D01*
X180547259Y-53885322D01*
X180409967Y-53432731D01*
X180187018Y-53015622D01*
X179886978Y-52650022D01*
X179521377Y-52349982D01*
X179104268Y-52127033D01*
X178651677Y-51989741D01*
X178181000Y-51943383D01*
X177710322Y-51989741D01*
X177257731Y-52127033D01*
X176840622Y-52349982D01*
X176475022Y-52650022D01*
X176174982Y-53015623D01*
X175952033Y-53432732D01*
X175814741Y-53885323D01*
X175780000Y-54238052D01*
X169152000Y-54238052D01*
X169152000Y-54238051D01*
X169117259Y-53885322D01*
X168979967Y-53432731D01*
X168757018Y-53015622D01*
X168456978Y-52650022D01*
X168091377Y-52349982D01*
X167674268Y-52127033D01*
X167221677Y-51989741D01*
X166751000Y-51943383D01*
X166280322Y-51989741D01*
X165827731Y-52127033D01*
X165410622Y-52349982D01*
X165045022Y-52650022D01*
X164744982Y-53015623D01*
X164522033Y-53432732D01*
X164384741Y-53885323D01*
X164350000Y-54238052D01*
X157722000Y-54238052D01*
X157722000Y-54238051D01*
X157687259Y-53885322D01*
X157549967Y-53432731D01*
X157327018Y-53015622D01*
X157026978Y-52650022D01*
X156661377Y-52349982D01*
X156244268Y-52127033D01*
X155791677Y-51989741D01*
X155321000Y-51943383D01*
X154850322Y-51989741D01*
X154397731Y-52127033D01*
X153980622Y-52349982D01*
X153615022Y-52650022D01*
X153314982Y-53015623D01*
X153092033Y-53432732D01*
X152954741Y-53885323D01*
X152920000Y-54238052D01*
X146013629Y-54238052D01*
X146013629Y-54130000D01*
X145999148Y-53982974D01*
X145996729Y-53974998D01*
X145999147Y-53967026D01*
X146013628Y-53820000D01*
X146013628Y-50320000D01*
X145999147Y-50172974D01*
X145956261Y-50031599D01*
X145886619Y-49901307D01*
X145801223Y-49797252D01*
X151132698Y-49797252D01*
X151412026Y-50337953D01*
X151801487Y-50644309D01*
X152243232Y-50868799D01*
X152720284Y-51002795D01*
X153214311Y-51041148D01*
X153609000Y-50814351D01*
X153609000Y-49464000D01*
X155509000Y-49464000D01*
X155509000Y-50814351D01*
X155903689Y-51041148D01*
X156397716Y-51002795D01*
X156874768Y-50868799D01*
X157316513Y-50644309D01*
X157705974Y-50337953D01*
X157985302Y-49797252D01*
X162562698Y-49797252D01*
X162842026Y-50337953D01*
X163231487Y-50644309D01*
X163673232Y-50868799D01*
X164150284Y-51002795D01*
X164644311Y-51041148D01*
X165039000Y-50814351D01*
X165039000Y-49464000D01*
X166939000Y-49464000D01*
X166939000Y-50814351D01*
X167333689Y-51041148D01*
X167827716Y-51002795D01*
X168304768Y-50868799D01*
X168746513Y-50644309D01*
X169135974Y-50337953D01*
X169415302Y-49797252D01*
X173992698Y-49797252D01*
X174272026Y-50337953D01*
X174661487Y-50644309D01*
X175103232Y-50868799D01*
X175580284Y-51002795D01*
X176074311Y-51041148D01*
X176469000Y-50814351D01*
X176469000Y-49464000D01*
X178369000Y-49464000D01*
X178369000Y-50814351D01*
X178763689Y-51041148D01*
X179257716Y-51002795D01*
X179734768Y-50868799D01*
X180176513Y-50644309D01*
X180565974Y-50337953D01*
X180845302Y-49797252D01*
X180815270Y-49464000D01*
X178369000Y-49464000D01*
X176469000Y-49464000D01*
X174022730Y-49464000D01*
X173992698Y-49797252D01*
X169415302Y-49797252D01*
X169385270Y-49464000D01*
X166939000Y-49464000D01*
X165039000Y-49464000D01*
X162592730Y-49464000D01*
X162562698Y-49797252D01*
X157985302Y-49797252D01*
X157955270Y-49464000D01*
X155509000Y-49464000D01*
X153609000Y-49464000D01*
X151162730Y-49464000D01*
X151132698Y-49797252D01*
X145801223Y-49797252D01*
X145792895Y-49787105D01*
X145678693Y-49693381D01*
X145548401Y-49623739D01*
X145407026Y-49580853D01*
X145260000Y-49566372D01*
X141760000Y-49566372D01*
X141612974Y-49580853D01*
X141471599Y-49623739D01*
X141341307Y-49693381D01*
X141227105Y-49787105D01*
X141133381Y-49901307D01*
X141063739Y-50031599D01*
X141020853Y-50172974D01*
X141020000Y-50181635D01*
X141020000Y-47230748D01*
X151132698Y-47230748D01*
X151162730Y-47564000D01*
X153609000Y-47564000D01*
X153609000Y-46213649D01*
X155509000Y-46213649D01*
X155509000Y-47564000D01*
X157955270Y-47564000D01*
X157985302Y-47230748D01*
X162562698Y-47230748D01*
X162592730Y-47564000D01*
X165039000Y-47564000D01*
X165039000Y-46213649D01*
X166939000Y-46213649D01*
X166939000Y-47564000D01*
X169385270Y-47564000D01*
X169415302Y-47230748D01*
X173992698Y-47230748D01*
X174022730Y-47564000D01*
X176469000Y-47564000D01*
X176469000Y-46213649D01*
X178369000Y-46213649D01*
X178369000Y-47564000D01*
X180815270Y-47564000D01*
X180845302Y-47230748D01*
X180565974Y-46690047D01*
X180176513Y-46383691D01*
X179734768Y-46159201D01*
X179257716Y-46025205D01*
X178763689Y-45986852D01*
X178369000Y-46213649D01*
X176469000Y-46213649D01*
X176074311Y-45986852D01*
X175580284Y-46025205D01*
X175103232Y-46159201D01*
X174661487Y-46383691D01*
X174272026Y-46690047D01*
X173992698Y-47230748D01*
X169415302Y-47230748D01*
X169135974Y-46690047D01*
X168746513Y-46383691D01*
X168304768Y-46159201D01*
X167827716Y-46025205D01*
X167333689Y-45986852D01*
X166939000Y-46213649D01*
X165039000Y-46213649D01*
X164644311Y-45986852D01*
X164150284Y-46025205D01*
X163673232Y-46159201D01*
X163231487Y-46383691D01*
X162842026Y-46690047D01*
X162562698Y-47230748D01*
X157985302Y-47230748D01*
X157705974Y-46690047D01*
X157316513Y-46383691D01*
X156874768Y-46159201D01*
X156397716Y-46025205D01*
X155903689Y-45986852D01*
X155509000Y-46213649D01*
X153609000Y-46213649D01*
X153214311Y-45986852D01*
X152720284Y-46025205D01*
X152243232Y-46159201D01*
X151801487Y-46383691D01*
X151412026Y-46690047D01*
X151132698Y-47230748D01*
X141020000Y-47230748D01*
X141020000Y-45770000D01*
X181560000Y-45770000D01*
X181560000Y-81230000D01*
G37*
%TD.AperFunction*%
%TD*%
D27*
%TO.N,+VIN*%
X81492954Y-45858793D02*
X81095823Y-46071064D01*
X80747734Y-46356733D01*
X80462065Y-46704822D01*
X80249793Y-47101953D01*
X80119077Y-47532866D01*
X80086000Y-47868705D01*
X80086000Y-50887294D01*
X80119077Y-51223133D01*
X80249793Y-51654046D01*
X80462064Y-52051177D01*
X80747733Y-52399267D01*
X81095822Y-52684936D01*
X81492953Y-52897207D01*
X81625755Y-52937492D01*
X81200489Y-52954039D01*
X80735177Y-53065564D01*
X80300563Y-53265724D01*
X79913349Y-53546827D01*
X79588416Y-53898071D01*
X79583840Y-54179243D01*
X79594138Y-54499000D01*
X82058000Y-54499000D01*
X82058000Y-53146806D01*
X83804000Y-53146806D01*
X83804000Y-54499000D01*
X86267862Y-54499000D01*
X86278160Y-54179243D01*
X86273584Y-53898071D01*
X85948651Y-53546827D01*
X85561437Y-53265724D01*
X85126823Y-53065564D01*
X84661511Y-52954039D01*
X84183382Y-52935435D01*
X83804000Y-53146806D01*
X82058000Y-53146806D01*
X81749906Y-52975153D01*
X81923866Y-53027923D01*
X82372000Y-53072060D01*
X82820133Y-53027923D01*
X83251046Y-52897207D01*
X83648177Y-52684936D01*
X83996267Y-52399267D01*
X84281936Y-52051178D01*
X84494207Y-51654047D01*
X84624923Y-51223134D01*
X84658000Y-50887295D01*
X84658000Y-47868705D01*
X84624923Y-47532866D01*
X84494207Y-47101953D01*
X84281936Y-46704822D01*
X83996267Y-46356733D01*
X83648178Y-46071064D01*
X83251047Y-45858793D01*
X83212171Y-45847000D01*
X95123000Y-45847000D01*
X95123000Y-81153000D01*
X84838171Y-81153000D01*
X84877047Y-81141207D01*
X85274178Y-80928936D01*
X85622267Y-80643267D01*
X85907936Y-80295178D01*
X86120207Y-79898047D01*
X86250923Y-79467134D01*
X86284000Y-79131295D01*
X86284000Y-76112705D01*
X86250923Y-75776866D01*
X86120207Y-75345953D01*
X85907936Y-74948822D01*
X85622267Y-74600733D01*
X85274177Y-74315064D01*
X84877046Y-74102793D01*
X84744245Y-74062508D01*
X85169511Y-74045961D01*
X85634823Y-73934436D01*
X86069437Y-73734276D01*
X86456651Y-73453173D01*
X86781584Y-73101929D01*
X86785867Y-72838732D01*
X92225877Y-72838732D01*
X92395077Y-73038690D01*
X92775446Y-73063262D01*
X93024923Y-73038690D01*
X93194123Y-72838732D01*
X92710000Y-72354608D01*
X92225877Y-72838732D01*
X86785867Y-72838732D01*
X86786160Y-72820757D01*
X86775862Y-72501000D01*
X84312000Y-72501000D01*
X84312000Y-73853194D01*
X84620095Y-74024848D01*
X84446133Y-73972077D01*
X83998000Y-73927940D01*
X83549866Y-73972077D01*
X83118953Y-74102793D01*
X82721822Y-74315064D01*
X82373733Y-74600733D01*
X82088064Y-74948823D01*
X81875793Y-75345954D01*
X81745077Y-75776867D01*
X81712000Y-76112706D01*
X81712000Y-79131295D01*
X81745077Y-79467134D01*
X81875793Y-79898047D01*
X82088065Y-80295178D01*
X82373734Y-80643267D01*
X82721823Y-80928936D01*
X83118954Y-81141207D01*
X83157830Y-81153000D01*
X78867000Y-81153000D01*
X78867000Y-72820757D01*
X80091840Y-72820757D01*
X80096416Y-73101929D01*
X80421349Y-73453173D01*
X80808563Y-73734276D01*
X81243177Y-73934436D01*
X81708489Y-74045961D01*
X82186618Y-74064565D01*
X82566000Y-73853194D01*
X82566000Y-72501000D01*
X80102138Y-72501000D01*
X80091840Y-72820757D01*
X78867000Y-72820757D01*
X78867000Y-71185446D01*
X90766738Y-71185446D01*
X90791310Y-71434923D01*
X90991268Y-71604123D01*
X91475392Y-71120000D01*
X93944608Y-71120000D01*
X94428732Y-71604123D01*
X94628690Y-71434923D01*
X94653262Y-71054554D01*
X94628690Y-70805077D01*
X94428732Y-70635877D01*
X93944608Y-71120000D01*
X91475392Y-71120000D01*
X90991268Y-70635877D01*
X90791310Y-70805077D01*
X90766738Y-71185446D01*
X78867000Y-71185446D01*
X78867000Y-70435243D01*
X80091840Y-70435243D01*
X80102138Y-70755000D01*
X82566000Y-70755000D01*
X82566000Y-69402806D01*
X84312000Y-69402806D01*
X84312000Y-70755000D01*
X86775862Y-70755000D01*
X86786160Y-70435243D01*
X86781584Y-70154071D01*
X86456651Y-69802827D01*
X86069437Y-69521724D01*
X85807887Y-69401268D01*
X92225877Y-69401268D01*
X92710000Y-69885392D01*
X93194123Y-69401268D01*
X93024923Y-69201310D01*
X92644554Y-69176738D01*
X92395077Y-69201310D01*
X92225877Y-69401268D01*
X85807887Y-69401268D01*
X85634823Y-69321564D01*
X85169511Y-69210039D01*
X84691382Y-69191435D01*
X84312000Y-69402806D01*
X82566000Y-69402806D01*
X82186618Y-69191435D01*
X81708489Y-69210039D01*
X81243177Y-69321564D01*
X80808563Y-69521724D01*
X80421349Y-69802827D01*
X80096416Y-70154071D01*
X80091840Y-70435243D01*
X78867000Y-70435243D01*
X78867000Y-62650000D01*
X79791928Y-62650000D01*
X79791928Y-64350000D01*
X79804188Y-64474482D01*
X79840498Y-64594180D01*
X79899463Y-64704494D01*
X79978815Y-64801185D01*
X80075506Y-64880537D01*
X80185820Y-64939502D01*
X80305518Y-64975812D01*
X80430000Y-64988072D01*
X82130000Y-64988072D01*
X82254482Y-64975812D01*
X82374180Y-64939502D01*
X82484494Y-64880537D01*
X82581185Y-64801185D01*
X82660537Y-64704494D01*
X82719502Y-64594180D01*
X82741513Y-64521620D01*
X82873368Y-64653475D01*
X83116589Y-64815990D01*
X83386842Y-64927932D01*
X83673740Y-64985000D01*
X83966260Y-64985000D01*
X84253158Y-64927932D01*
X84523411Y-64815990D01*
X84766632Y-64653475D01*
X84973475Y-64446632D01*
X85090000Y-64272240D01*
X85206525Y-64446632D01*
X85413368Y-64653475D01*
X85656589Y-64815990D01*
X85926842Y-64927932D01*
X86213740Y-64985000D01*
X86506260Y-64985000D01*
X86793158Y-64927932D01*
X87063411Y-64815990D01*
X87306632Y-64653475D01*
X87513475Y-64446632D01*
X87675990Y-64203411D01*
X87787932Y-63933158D01*
X87845000Y-63646260D01*
X87845000Y-63353740D01*
X87836184Y-63309419D01*
X90775000Y-63309419D01*
X90775000Y-63690581D01*
X90849361Y-64064419D01*
X90995225Y-64416566D01*
X91206987Y-64733491D01*
X91476509Y-65003013D01*
X91793434Y-65214775D01*
X92145581Y-65360639D01*
X92519419Y-65435000D01*
X92900581Y-65435000D01*
X93274419Y-65360639D01*
X93626566Y-65214775D01*
X93943491Y-65003013D01*
X94213013Y-64733491D01*
X94424775Y-64416566D01*
X94570639Y-64064419D01*
X94645000Y-63690581D01*
X94645000Y-63309419D01*
X94570639Y-62935581D01*
X94424775Y-62583434D01*
X94213013Y-62266509D01*
X93943491Y-61996987D01*
X93626566Y-61785225D01*
X93274419Y-61639361D01*
X92900581Y-61565000D01*
X92519419Y-61565000D01*
X92145581Y-61639361D01*
X91793434Y-61785225D01*
X91476509Y-61996987D01*
X91206987Y-62266509D01*
X90995225Y-62583434D01*
X90849361Y-62935581D01*
X90775000Y-63309419D01*
X87836184Y-63309419D01*
X87787932Y-63066842D01*
X87675990Y-62796589D01*
X87513475Y-62553368D01*
X87306632Y-62346525D01*
X87063411Y-62184010D01*
X86793158Y-62072068D01*
X86506260Y-62015000D01*
X86213740Y-62015000D01*
X85926842Y-62072068D01*
X85656589Y-62184010D01*
X85413368Y-62346525D01*
X85206525Y-62553368D01*
X85090000Y-62727760D01*
X84973475Y-62553368D01*
X84766632Y-62346525D01*
X84523411Y-62184010D01*
X84253158Y-62072068D01*
X83966260Y-62015000D01*
X83673740Y-62015000D01*
X83386842Y-62072068D01*
X83116589Y-62184010D01*
X82873368Y-62346525D01*
X82741513Y-62478380D01*
X82719502Y-62405820D01*
X82660537Y-62295506D01*
X82581185Y-62198815D01*
X82484494Y-62119463D01*
X82374180Y-62060498D01*
X82254482Y-62024188D01*
X82130000Y-62011928D01*
X80430000Y-62011928D01*
X80305518Y-62024188D01*
X80185820Y-62060498D01*
X80075506Y-62119463D01*
X79978815Y-62198815D01*
X79899463Y-62295506D01*
X79840498Y-62405820D01*
X79804188Y-62525518D01*
X79791928Y-62650000D01*
X78867000Y-62650000D01*
X78867000Y-56564757D01*
X79583840Y-56564757D01*
X79588416Y-56845929D01*
X79913349Y-57197173D01*
X80300563Y-57478276D01*
X80735177Y-57678436D01*
X81200489Y-57789961D01*
X81678618Y-57808565D01*
X82058000Y-57597194D01*
X82058000Y-56245000D01*
X83804000Y-56245000D01*
X83804000Y-57597194D01*
X84183382Y-57808565D01*
X84661511Y-57789961D01*
X85126823Y-57678436D01*
X85561437Y-57478276D01*
X85948651Y-57197173D01*
X86273584Y-56845929D01*
X86278160Y-56564757D01*
X86267862Y-56245000D01*
X83804000Y-56245000D01*
X82058000Y-56245000D01*
X79594138Y-56245000D01*
X79583840Y-56564757D01*
X78867000Y-56564757D01*
X78867000Y-54580000D01*
X90771928Y-54580000D01*
X90771928Y-57180000D01*
X90784188Y-57304482D01*
X90820498Y-57424180D01*
X90879463Y-57534494D01*
X90958815Y-57631185D01*
X91055506Y-57710537D01*
X91165820Y-57769502D01*
X91285518Y-57805812D01*
X91410000Y-57818072D01*
X94010000Y-57818072D01*
X94134482Y-57805812D01*
X94254180Y-57769502D01*
X94364494Y-57710537D01*
X94461185Y-57631185D01*
X94540537Y-57534494D01*
X94599502Y-57424180D01*
X94635812Y-57304482D01*
X94648072Y-57180000D01*
X94648072Y-54580000D01*
X94635812Y-54455518D01*
X94599502Y-54335820D01*
X94540537Y-54225506D01*
X94461185Y-54128815D01*
X94364494Y-54049463D01*
X94254180Y-53990498D01*
X94134482Y-53954188D01*
X94010000Y-53941928D01*
X91410000Y-53941928D01*
X91285518Y-53954188D01*
X91165820Y-53990498D01*
X91055506Y-54049463D01*
X90958815Y-54128815D01*
X90879463Y-54225506D01*
X90820498Y-54335820D01*
X90784188Y-54455518D01*
X90771928Y-54580000D01*
X78867000Y-54580000D01*
X78867000Y-45847000D01*
X81531830Y-45847000D01*
X81492954Y-45858793D01*
%TA.AperFunction,Conductor*%
D26*
G36*
X81492954Y-45858793D02*
G01*
X81095823Y-46071064D01*
X80747734Y-46356733D01*
X80462065Y-46704822D01*
X80249793Y-47101953D01*
X80119077Y-47532866D01*
X80086000Y-47868705D01*
X80086000Y-50887294D01*
X80119077Y-51223133D01*
X80249793Y-51654046D01*
X80462064Y-52051177D01*
X80747733Y-52399267D01*
X81095822Y-52684936D01*
X81492953Y-52897207D01*
X81625755Y-52937492D01*
X81200489Y-52954039D01*
X80735177Y-53065564D01*
X80300563Y-53265724D01*
X79913349Y-53546827D01*
X79588416Y-53898071D01*
X79583840Y-54179243D01*
X79594138Y-54499000D01*
X82058000Y-54499000D01*
X82058000Y-53146806D01*
X83804000Y-53146806D01*
X83804000Y-54499000D01*
X86267862Y-54499000D01*
X86278160Y-54179243D01*
X86273584Y-53898071D01*
X85948651Y-53546827D01*
X85561437Y-53265724D01*
X85126823Y-53065564D01*
X84661511Y-52954039D01*
X84183382Y-52935435D01*
X83804000Y-53146806D01*
X82058000Y-53146806D01*
X81749906Y-52975153D01*
X81923866Y-53027923D01*
X82372000Y-53072060D01*
X82820133Y-53027923D01*
X83251046Y-52897207D01*
X83648177Y-52684936D01*
X83996267Y-52399267D01*
X84281936Y-52051178D01*
X84494207Y-51654047D01*
X84624923Y-51223134D01*
X84658000Y-50887295D01*
X84658000Y-47868705D01*
X84624923Y-47532866D01*
X84494207Y-47101953D01*
X84281936Y-46704822D01*
X83996267Y-46356733D01*
X83648178Y-46071064D01*
X83251047Y-45858793D01*
X83212171Y-45847000D01*
X95123000Y-45847000D01*
X95123000Y-81153000D01*
X84838171Y-81153000D01*
X84877047Y-81141207D01*
X85274178Y-80928936D01*
X85622267Y-80643267D01*
X85907936Y-80295178D01*
X86120207Y-79898047D01*
X86250923Y-79467134D01*
X86284000Y-79131295D01*
X86284000Y-76112705D01*
X86250923Y-75776866D01*
X86120207Y-75345953D01*
X85907936Y-74948822D01*
X85622267Y-74600733D01*
X85274177Y-74315064D01*
X84877046Y-74102793D01*
X84744245Y-74062508D01*
X85169511Y-74045961D01*
X85634823Y-73934436D01*
X86069437Y-73734276D01*
X86456651Y-73453173D01*
X86781584Y-73101929D01*
X86785867Y-72838732D01*
X92225877Y-72838732D01*
X92395077Y-73038690D01*
X92775446Y-73063262D01*
X93024923Y-73038690D01*
X93194123Y-72838732D01*
X92710000Y-72354608D01*
X92225877Y-72838732D01*
X86785867Y-72838732D01*
X86786160Y-72820757D01*
X86775862Y-72501000D01*
X84312000Y-72501000D01*
X84312000Y-73853194D01*
X84620095Y-74024848D01*
X84446133Y-73972077D01*
X83998000Y-73927940D01*
X83549866Y-73972077D01*
X83118953Y-74102793D01*
X82721822Y-74315064D01*
X82373733Y-74600733D01*
X82088064Y-74948823D01*
X81875793Y-75345954D01*
X81745077Y-75776867D01*
X81712000Y-76112706D01*
X81712000Y-79131295D01*
X81745077Y-79467134D01*
X81875793Y-79898047D01*
X82088065Y-80295178D01*
X82373734Y-80643267D01*
X82721823Y-80928936D01*
X83118954Y-81141207D01*
X83157830Y-81153000D01*
X78867000Y-81153000D01*
X78867000Y-72820757D01*
X80091840Y-72820757D01*
X80096416Y-73101929D01*
X80421349Y-73453173D01*
X80808563Y-73734276D01*
X81243177Y-73934436D01*
X81708489Y-74045961D01*
X82186618Y-74064565D01*
X82566000Y-73853194D01*
X82566000Y-72501000D01*
X80102138Y-72501000D01*
X80091840Y-72820757D01*
X78867000Y-72820757D01*
X78867000Y-71185446D01*
X90766738Y-71185446D01*
X90791310Y-71434923D01*
X90991268Y-71604123D01*
X91475392Y-71120000D01*
X93944608Y-71120000D01*
X94428732Y-71604123D01*
X94628690Y-71434923D01*
X94653262Y-71054554D01*
X94628690Y-70805077D01*
X94428732Y-70635877D01*
X93944608Y-71120000D01*
X91475392Y-71120000D01*
X90991268Y-70635877D01*
X90791310Y-70805077D01*
X90766738Y-71185446D01*
X78867000Y-71185446D01*
X78867000Y-70435243D01*
X80091840Y-70435243D01*
X80102138Y-70755000D01*
X82566000Y-70755000D01*
X82566000Y-69402806D01*
X84312000Y-69402806D01*
X84312000Y-70755000D01*
X86775862Y-70755000D01*
X86786160Y-70435243D01*
X86781584Y-70154071D01*
X86456651Y-69802827D01*
X86069437Y-69521724D01*
X85807887Y-69401268D01*
X92225877Y-69401268D01*
X92710000Y-69885392D01*
X93194123Y-69401268D01*
X93024923Y-69201310D01*
X92644554Y-69176738D01*
X92395077Y-69201310D01*
X92225877Y-69401268D01*
X85807887Y-69401268D01*
X85634823Y-69321564D01*
X85169511Y-69210039D01*
X84691382Y-69191435D01*
X84312000Y-69402806D01*
X82566000Y-69402806D01*
X82186618Y-69191435D01*
X81708489Y-69210039D01*
X81243177Y-69321564D01*
X80808563Y-69521724D01*
X80421349Y-69802827D01*
X80096416Y-70154071D01*
X80091840Y-70435243D01*
X78867000Y-70435243D01*
X78867000Y-62650000D01*
X79791928Y-62650000D01*
X79791928Y-64350000D01*
X79804188Y-64474482D01*
X79840498Y-64594180D01*
X79899463Y-64704494D01*
X79978815Y-64801185D01*
X80075506Y-64880537D01*
X80185820Y-64939502D01*
X80305518Y-64975812D01*
X80430000Y-64988072D01*
X82130000Y-64988072D01*
X82254482Y-64975812D01*
X82374180Y-64939502D01*
X82484494Y-64880537D01*
X82581185Y-64801185D01*
X82660537Y-64704494D01*
X82719502Y-64594180D01*
X82741513Y-64521620D01*
X82873368Y-64653475D01*
X83116589Y-64815990D01*
X83386842Y-64927932D01*
X83673740Y-64985000D01*
X83966260Y-64985000D01*
X84253158Y-64927932D01*
X84523411Y-64815990D01*
X84766632Y-64653475D01*
X84973475Y-64446632D01*
X85090000Y-64272240D01*
X85206525Y-64446632D01*
X85413368Y-64653475D01*
X85656589Y-64815990D01*
X85926842Y-64927932D01*
X86213740Y-64985000D01*
X86506260Y-64985000D01*
X86793158Y-64927932D01*
X87063411Y-64815990D01*
X87306632Y-64653475D01*
X87513475Y-64446632D01*
X87675990Y-64203411D01*
X87787932Y-63933158D01*
X87845000Y-63646260D01*
X87845000Y-63353740D01*
X87836184Y-63309419D01*
X90775000Y-63309419D01*
X90775000Y-63690581D01*
X90849361Y-64064419D01*
X90995225Y-64416566D01*
X91206987Y-64733491D01*
X91476509Y-65003013D01*
X91793434Y-65214775D01*
X92145581Y-65360639D01*
X92519419Y-65435000D01*
X92900581Y-65435000D01*
X93274419Y-65360639D01*
X93626566Y-65214775D01*
X93943491Y-65003013D01*
X94213013Y-64733491D01*
X94424775Y-64416566D01*
X94570639Y-64064419D01*
X94645000Y-63690581D01*
X94645000Y-63309419D01*
X94570639Y-62935581D01*
X94424775Y-62583434D01*
X94213013Y-62266509D01*
X93943491Y-61996987D01*
X93626566Y-61785225D01*
X93274419Y-61639361D01*
X92900581Y-61565000D01*
X92519419Y-61565000D01*
X92145581Y-61639361D01*
X91793434Y-61785225D01*
X91476509Y-61996987D01*
X91206987Y-62266509D01*
X90995225Y-62583434D01*
X90849361Y-62935581D01*
X90775000Y-63309419D01*
X87836184Y-63309419D01*
X87787932Y-63066842D01*
X87675990Y-62796589D01*
X87513475Y-62553368D01*
X87306632Y-62346525D01*
X87063411Y-62184010D01*
X86793158Y-62072068D01*
X86506260Y-62015000D01*
X86213740Y-62015000D01*
X85926842Y-62072068D01*
X85656589Y-62184010D01*
X85413368Y-62346525D01*
X85206525Y-62553368D01*
X85090000Y-62727760D01*
X84973475Y-62553368D01*
X84766632Y-62346525D01*
X84523411Y-62184010D01*
X84253158Y-62072068D01*
X83966260Y-62015000D01*
X83673740Y-62015000D01*
X83386842Y-62072068D01*
X83116589Y-62184010D01*
X82873368Y-62346525D01*
X82741513Y-62478380D01*
X82719502Y-62405820D01*
X82660537Y-62295506D01*
X82581185Y-62198815D01*
X82484494Y-62119463D01*
X82374180Y-62060498D01*
X82254482Y-62024188D01*
X82130000Y-62011928D01*
X80430000Y-62011928D01*
X80305518Y-62024188D01*
X80185820Y-62060498D01*
X80075506Y-62119463D01*
X79978815Y-62198815D01*
X79899463Y-62295506D01*
X79840498Y-62405820D01*
X79804188Y-62525518D01*
X79791928Y-62650000D01*
X78867000Y-62650000D01*
X78867000Y-56564757D01*
X79583840Y-56564757D01*
X79588416Y-56845929D01*
X79913349Y-57197173D01*
X80300563Y-57478276D01*
X80735177Y-57678436D01*
X81200489Y-57789961D01*
X81678618Y-57808565D01*
X82058000Y-57597194D01*
X82058000Y-56245000D01*
X83804000Y-56245000D01*
X83804000Y-57597194D01*
X84183382Y-57808565D01*
X84661511Y-57789961D01*
X85126823Y-57678436D01*
X85561437Y-57478276D01*
X85948651Y-57197173D01*
X86273584Y-56845929D01*
X86278160Y-56564757D01*
X86267862Y-56245000D01*
X83804000Y-56245000D01*
X82058000Y-56245000D01*
X79594138Y-56245000D01*
X79583840Y-56564757D01*
X78867000Y-56564757D01*
X78867000Y-54580000D01*
X90771928Y-54580000D01*
X90771928Y-57180000D01*
X90784188Y-57304482D01*
X90820498Y-57424180D01*
X90879463Y-57534494D01*
X90958815Y-57631185D01*
X91055506Y-57710537D01*
X91165820Y-57769502D01*
X91285518Y-57805812D01*
X91410000Y-57818072D01*
X94010000Y-57818072D01*
X94134482Y-57805812D01*
X94254180Y-57769502D01*
X94364494Y-57710537D01*
X94461185Y-57631185D01*
X94540537Y-57534494D01*
X94599502Y-57424180D01*
X94635812Y-57304482D01*
X94648072Y-57180000D01*
X94648072Y-54580000D01*
X94635812Y-54455518D01*
X94599502Y-54335820D01*
X94540537Y-54225506D01*
X94461185Y-54128815D01*
X94364494Y-54049463D01*
X94254180Y-53990498D01*
X94134482Y-53954188D01*
X94010000Y-53941928D01*
X91410000Y-53941928D01*
X91285518Y-53954188D01*
X91165820Y-53990498D01*
X91055506Y-54049463D01*
X90958815Y-54128815D01*
X90879463Y-54225506D01*
X90820498Y-54335820D01*
X90784188Y-54455518D01*
X90771928Y-54580000D01*
X78867000Y-54580000D01*
X78867000Y-45847000D01*
X81531830Y-45847000D01*
X81492954Y-45858793D01*
G37*
%TD.AperFunction*%
%TD*%
M02*
