M48
; DRILL file {KiCad (5.1.9)-1} date 04/12/21 23:16:38
; FORMAT={-:-/ absolute / inch / decimal}
; #@! TF.CreationDate,2021-04-12T23:16:38+02:00
; #@! TF.GenerationSoftware,Kicad,Pcbnew,(5.1.9)-1
; #@! TF.FileFunction,Plated,1,2,PTH
FMAT,2
INCH
T1C0.0276
T2C0.0354
T3C0.0374
T4C0.0394
T5C0.0512
T6C0.0650
T7C0.0728
%
G90
G05
T1
X4.85Y-2.4
X4.85Y-2.6
T2
X4.7Y-2.45
X4.7Y-2.55
T3
X5.25Y-2.25
X5.25Y-2.3484
X5.25Y-2.4469
X5.25Y-2.5453
X5.25Y-2.6437
X5.25Y-2.7421
T4
X3.2Y-2.5
X3.3Y-2.5
X3.4Y-2.5
X5.75Y-2.2638
X5.7524Y-2.3425
X5.7524Y-2.4213
X5.7524Y-2.5
X5.7524Y-2.5787
X5.7524Y-2.6575
X5.7524Y-2.7362
T5
X3.65Y-2.2
X3.65Y-2.5
X3.65Y-2.8
T7
X5.65Y-2.05
X5.65Y-2.2
X5.65Y-2.8
X5.65Y-2.95
T6
G00X3.243Y-1.8865
M15
G01X3.243Y-2.0015
M16
G05
G00X3.3225Y-2.18
M15
G01X3.2075Y-2.18
M16
G05
G00X3.2275Y-2.82
M15
G01X3.3425Y-2.82
M16
G05
G00X3.307Y-3.1135
M15
G01X3.307Y-2.9985
M16
G05
G00X6.0275Y-1.91
M15
G01X6.1425Y-1.91
M16
G05
G00X6.0425Y-2.76
M15
G01X6.1575Y-2.76
M16
G05
G00X6.115Y-2.2525
M15
G01X6.115Y-2.1375
M16
G05
G00X6.13Y-3.1025
M15
G01X6.13Y-2.9875
M16
G05
G00X6.4775Y-1.91
M15
G01X6.5925Y-1.91
M16
G05
G00X6.4775Y-2.76
M15
G01X6.5925Y-2.76
M16
G05
G00X6.565Y-2.2525
M15
G01X6.565Y-2.1375
M16
G05
G00X6.565Y-3.1025
M15
G01X6.565Y-2.9875
M16
G05
G00X6.9275Y-1.91
M15
G01X7.0425Y-1.91
M16
G05
G00X6.9275Y-2.76
M15
G01X7.0425Y-2.76
M16
G05
G00X7.015Y-2.2525
M15
G01X7.015Y-2.1375
M16
G05
G00X7.015Y-3.1025
M15
G01X7.015Y-2.9875
M16
G05
T0
M30
