%TF.GenerationSoftware,KiCad,Pcbnew,(5.1.9)-1*%
%TF.CreationDate,2021-04-12T23:16:36+02:00*%
%TF.ProjectId,v1_BMR480,76315f42-4d52-4343-9830-2e6b69636164,rev?*%
%TF.SameCoordinates,Original*%
%TF.FileFunction,Other,Fab,Top*%
%FSLAX46Y46*%
G04 Gerber Fmt 4.6, Leading zero omitted, Abs format (unit mm)*
G04 Created by KiCad (PCBNEW (5.1.9)-1) date 2021-04-12 23:16:36*
%MOMM*%
%LPD*%
G01*
G04 APERTURE LIST*
%ADD10C,0.100000*%
%ADD11C,0.120000*%
%ADD12C,0.150000*%
%ADD13C,0.108000*%
G04 APERTURE END LIST*
D10*
%TO.C,R1*%
X123190000Y-60960000D02*
X123190000Y-61700000D01*
X123190000Y-66040000D02*
X123190000Y-65300000D01*
X122390000Y-61700000D02*
X122390000Y-65300000D01*
X123990000Y-61700000D02*
X122390000Y-61700000D01*
X123990000Y-65300000D02*
X123990000Y-61700000D01*
X122390000Y-65300000D02*
X123990000Y-65300000D01*
%TO.C,J10*%
X87630000Y-64770000D02*
X80010000Y-64770000D01*
X87630000Y-62230000D02*
X87630000Y-64770000D01*
X80645000Y-62230000D02*
X87630000Y-62230000D01*
X80010000Y-62865000D02*
X80645000Y-62230000D01*
X80010000Y-64770000D02*
X80010000Y-62865000D01*
D11*
%TO.C,J9*%
X173990000Y-74295000D02*
X173990000Y-81229000D01*
X173990000Y-81229000D02*
X180340000Y-81229000D01*
X180340000Y-74295000D02*
X180975000Y-73660000D01*
X180340000Y-81229000D02*
X180340000Y-74295000D01*
X180975000Y-68021000D02*
X173355000Y-68021000D01*
X180975000Y-73660000D02*
X180975000Y-68021000D01*
X173355000Y-68021000D02*
X173355000Y-73660000D01*
X173355000Y-73660000D02*
X173990000Y-74295000D01*
%TO.C,J8*%
X173990000Y-52705000D02*
X173990000Y-59639000D01*
X173990000Y-59639000D02*
X180340000Y-59639000D01*
X180340000Y-52705000D02*
X180975000Y-52070000D01*
X180340000Y-59639000D02*
X180340000Y-52705000D01*
X180975000Y-46431000D02*
X173355000Y-46431000D01*
X180975000Y-52070000D02*
X180975000Y-46431000D01*
X173355000Y-46431000D02*
X173355000Y-52070000D01*
X173355000Y-52070000D02*
X173990000Y-52705000D01*
%TO.C,J7*%
X151511000Y-74295000D02*
X151511000Y-81229000D01*
X151511000Y-81229000D02*
X157861000Y-81229000D01*
X157861000Y-74295000D02*
X158496000Y-73660000D01*
X157861000Y-81229000D02*
X157861000Y-74295000D01*
X158496000Y-68021000D02*
X150876000Y-68021000D01*
X158496000Y-73660000D02*
X158496000Y-68021000D01*
X150876000Y-68021000D02*
X150876000Y-73660000D01*
X150876000Y-73660000D02*
X151511000Y-74295000D01*
%TO.C,J6*%
X162560000Y-52705000D02*
X162560000Y-59639000D01*
X162560000Y-59639000D02*
X168910000Y-59639000D01*
X168910000Y-52705000D02*
X169545000Y-52070000D01*
X168910000Y-59639000D02*
X168910000Y-52705000D01*
X169545000Y-46431000D02*
X161925000Y-46431000D01*
X169545000Y-52070000D02*
X169545000Y-46431000D01*
X161925000Y-46431000D02*
X161925000Y-52070000D01*
X161925000Y-52070000D02*
X162560000Y-52705000D01*
%TO.C,J5*%
X151130000Y-52705000D02*
X151130000Y-59639000D01*
X151130000Y-59639000D02*
X157480000Y-59639000D01*
X157480000Y-52705000D02*
X158115000Y-52070000D01*
X157480000Y-59639000D02*
X157480000Y-52705000D01*
X158115000Y-46431000D02*
X150495000Y-46431000D01*
X158115000Y-52070000D02*
X158115000Y-46431000D01*
X150495000Y-46431000D02*
X150495000Y-52070000D01*
X150495000Y-52070000D02*
X151130000Y-52705000D01*
%TO.C,J4*%
X162560000Y-74295000D02*
X162560000Y-81229000D01*
X162560000Y-81229000D02*
X168910000Y-81229000D01*
X168910000Y-74295000D02*
X169545000Y-73660000D01*
X168910000Y-81229000D02*
X168910000Y-74295000D01*
X169545000Y-68021000D02*
X161925000Y-68021000D01*
X169545000Y-73660000D02*
X169545000Y-68021000D01*
X161925000Y-68021000D02*
X161925000Y-73660000D01*
X161925000Y-73660000D02*
X162560000Y-74295000D01*
D10*
%TO.C,J3*%
X134700000Y-57150000D02*
X135700000Y-57775000D01*
X135700000Y-56525000D02*
X134700000Y-57150000D01*
X135700000Y-72100000D02*
X135700000Y-54700000D01*
X129950000Y-72100000D02*
X135700000Y-72100000D01*
X129950000Y-54700000D02*
X129950000Y-72100000D01*
X135700000Y-54700000D02*
X129950000Y-54700000D01*
D11*
%TO.C,J2*%
X79375000Y-73660000D02*
X80010000Y-74295000D01*
X80010000Y-74295000D02*
X80010000Y-81229000D01*
X86360000Y-81229000D02*
X86360000Y-74295000D01*
X86995000Y-73660000D02*
X86995000Y-68021000D01*
X80010000Y-81229000D02*
X86360000Y-81229000D01*
X86995000Y-68021000D02*
X79375000Y-68021000D01*
X86360000Y-74295000D02*
X86995000Y-73660000D01*
X79375000Y-68021000D02*
X79375000Y-73660000D01*
%TO.C,J1*%
X86995000Y-53340000D02*
X86360000Y-52705000D01*
X86360000Y-52705000D02*
X86360000Y-45771000D01*
X80010000Y-45771000D02*
X80010000Y-52705000D01*
X79375000Y-53340000D02*
X79375000Y-58979000D01*
X86360000Y-45771000D02*
X80010000Y-45771000D01*
X79375000Y-58979000D02*
X86995000Y-58979000D01*
X80010000Y-52705000D02*
X79375000Y-53340000D01*
X86995000Y-58979000D02*
X86995000Y-53340000D01*
D10*
%TO.C,D1*%
X120580000Y-65150000D02*
X120580000Y-61850000D01*
X118180000Y-65150000D02*
X120580000Y-65150000D01*
X118180000Y-61850000D02*
X118180000Y-65150000D01*
X120580000Y-61850000D02*
X118180000Y-61850000D01*
X120280000Y-63500000D02*
G75*
G03*
X120280000Y-63500000I-900000J0D01*
G01*
%TD*%
%TO.C,R1*%
D12*
X125562380Y-63619047D02*
X125562380Y-64190476D01*
X125562380Y-63904761D02*
X124562380Y-63904761D01*
X124705238Y-64000000D01*
X124800476Y-64095238D01*
X124848095Y-64190476D01*
X125562380Y-63190476D02*
X124562380Y-63190476D01*
X125181428Y-63095238D02*
X125562380Y-62809523D01*
X124895714Y-62809523D02*
X125276666Y-63190476D01*
D13*
X123515714Y-63620000D02*
X123172857Y-63860000D01*
X123515714Y-64031428D02*
X122795714Y-64031428D01*
X122795714Y-63757142D01*
X122830000Y-63688571D01*
X122864285Y-63654285D01*
X122932857Y-63620000D01*
X123035714Y-63620000D01*
X123104285Y-63654285D01*
X123138571Y-63688571D01*
X123172857Y-63757142D01*
X123172857Y-64031428D01*
X123515714Y-62934285D02*
X123515714Y-63345714D01*
X123515714Y-63140000D02*
X122795714Y-63140000D01*
X122898571Y-63208571D01*
X122967142Y-63277142D01*
X123001428Y-63345714D01*
%TO.C,J10*%
D12*
X89534761Y-71857142D02*
X89582380Y-71714285D01*
X89582380Y-71476190D01*
X89534761Y-71380952D01*
X89487142Y-71333333D01*
X89391904Y-71285714D01*
X89296666Y-71285714D01*
X89201428Y-71333333D01*
X89153809Y-71380952D01*
X89106190Y-71476190D01*
X89058571Y-71666666D01*
X89010952Y-71761904D01*
X88963333Y-71809523D01*
X88868095Y-71857142D01*
X88772857Y-71857142D01*
X88677619Y-71809523D01*
X88630000Y-71761904D01*
X88582380Y-71666666D01*
X88582380Y-71428571D01*
X88630000Y-71285714D01*
X88582380Y-70952380D02*
X89582380Y-70714285D01*
X88868095Y-70523809D01*
X89582380Y-70333333D01*
X88582380Y-70095238D01*
X88582380Y-69809523D02*
X88582380Y-69142857D01*
X89582380Y-69571428D01*
X89677619Y-69000000D02*
X89677619Y-68238095D01*
X89487142Y-67428571D02*
X89534761Y-67476190D01*
X89582380Y-67619047D01*
X89582380Y-67714285D01*
X89534761Y-67857142D01*
X89439523Y-67952380D01*
X89344285Y-68000000D01*
X89153809Y-68047619D01*
X89010952Y-68047619D01*
X88820476Y-68000000D01*
X88725238Y-67952380D01*
X88630000Y-67857142D01*
X88582380Y-67714285D01*
X88582380Y-67619047D01*
X88630000Y-67476190D01*
X88677619Y-67428571D01*
X89582380Y-66857142D02*
X89534761Y-66952380D01*
X89487142Y-67000000D01*
X89391904Y-67047619D01*
X89106190Y-67047619D01*
X89010952Y-67000000D01*
X88963333Y-66952380D01*
X88915714Y-66857142D01*
X88915714Y-66714285D01*
X88963333Y-66619047D01*
X89010952Y-66571428D01*
X89106190Y-66523809D01*
X89391904Y-66523809D01*
X89487142Y-66571428D01*
X89534761Y-66619047D01*
X89582380Y-66714285D01*
X89582380Y-66857142D01*
X88915714Y-66095238D02*
X89582380Y-66095238D01*
X89010952Y-66095238D02*
X88963333Y-66047619D01*
X88915714Y-65952380D01*
X88915714Y-65809523D01*
X88963333Y-65714285D01*
X89058571Y-65666666D01*
X89582380Y-65666666D01*
X88915714Y-65190476D02*
X89582380Y-65190476D01*
X89010952Y-65190476D02*
X88963333Y-65142857D01*
X88915714Y-65047619D01*
X88915714Y-64904761D01*
X88963333Y-64809523D01*
X89058571Y-64761904D01*
X89582380Y-64761904D01*
X89677619Y-64523809D02*
X89677619Y-63761904D01*
X88582380Y-63333333D02*
X88582380Y-63238095D01*
X88630000Y-63142857D01*
X88677619Y-63095238D01*
X88772857Y-63047619D01*
X88963333Y-63000000D01*
X89201428Y-63000000D01*
X89391904Y-63047619D01*
X89487142Y-63095238D01*
X89534761Y-63142857D01*
X89582380Y-63238095D01*
X89582380Y-63333333D01*
X89534761Y-63428571D01*
X89487142Y-63476190D01*
X89391904Y-63523809D01*
X89201428Y-63571428D01*
X88963333Y-63571428D01*
X88772857Y-63523809D01*
X88677619Y-63476190D01*
X88630000Y-63428571D01*
X88582380Y-63333333D01*
X89582380Y-62047619D02*
X89582380Y-62619047D01*
X89582380Y-62333333D02*
X88582380Y-62333333D01*
X88725238Y-62428571D01*
X88820476Y-62523809D01*
X88868095Y-62619047D01*
X89582380Y-61714285D02*
X88915714Y-61190476D01*
X88915714Y-61714285D02*
X89582380Y-61190476D01*
X88582380Y-60619047D02*
X88582380Y-60523809D01*
X88630000Y-60428571D01*
X88677619Y-60380952D01*
X88772857Y-60333333D01*
X88963333Y-60285714D01*
X89201428Y-60285714D01*
X89391904Y-60333333D01*
X89487142Y-60380952D01*
X89534761Y-60428571D01*
X89582380Y-60523809D01*
X89582380Y-60619047D01*
X89534761Y-60714285D01*
X89487142Y-60761904D01*
X89391904Y-60809523D01*
X89201428Y-60857142D01*
X88963333Y-60857142D01*
X88772857Y-60809523D01*
X88677619Y-60761904D01*
X88630000Y-60714285D01*
X88582380Y-60619047D01*
X88677619Y-59904761D02*
X88630000Y-59857142D01*
X88582380Y-59761904D01*
X88582380Y-59523809D01*
X88630000Y-59428571D01*
X88677619Y-59380952D01*
X88772857Y-59333333D01*
X88868095Y-59333333D01*
X89010952Y-59380952D01*
X89582380Y-59952380D01*
X89582380Y-59333333D01*
X89677619Y-59142857D02*
X89677619Y-58380952D01*
X89582380Y-58142857D02*
X88582380Y-58142857D01*
X89296666Y-57809523D01*
X88582380Y-57476190D01*
X89582380Y-57476190D01*
X89582380Y-56571428D02*
X89058571Y-56571428D01*
X88963333Y-56619047D01*
X88915714Y-56714285D01*
X88915714Y-56904761D01*
X88963333Y-57000000D01*
X89534761Y-56571428D02*
X89582380Y-56666666D01*
X89582380Y-56904761D01*
X89534761Y-57000000D01*
X89439523Y-57047619D01*
X89344285Y-57047619D01*
X89249047Y-57000000D01*
X89201428Y-56904761D01*
X89201428Y-56666666D01*
X89153809Y-56571428D01*
X89582380Y-55952380D02*
X89534761Y-56047619D01*
X89439523Y-56095238D01*
X88582380Y-56095238D01*
X89534761Y-55190476D02*
X89582380Y-55285714D01*
X89582380Y-55476190D01*
X89534761Y-55571428D01*
X89439523Y-55619047D01*
X89058571Y-55619047D01*
X88963333Y-55571428D01*
X88915714Y-55476190D01*
X88915714Y-55285714D01*
X88963333Y-55190476D01*
X89058571Y-55142857D01*
X89153809Y-55142857D01*
X89249047Y-55619047D01*
X83010476Y-62952380D02*
X83010476Y-63666666D01*
X82962857Y-63809523D01*
X82867619Y-63904761D01*
X82724761Y-63952380D01*
X82629523Y-63952380D01*
X84010476Y-63952380D02*
X83439047Y-63952380D01*
X83724761Y-63952380D02*
X83724761Y-62952380D01*
X83629523Y-63095238D01*
X83534285Y-63190476D01*
X83439047Y-63238095D01*
X84629523Y-62952380D02*
X84724761Y-62952380D01*
X84820000Y-63000000D01*
X84867619Y-63047619D01*
X84915238Y-63142857D01*
X84962857Y-63333333D01*
X84962857Y-63571428D01*
X84915238Y-63761904D01*
X84867619Y-63857142D01*
X84820000Y-63904761D01*
X84724761Y-63952380D01*
X84629523Y-63952380D01*
X84534285Y-63904761D01*
X84486666Y-63857142D01*
X84439047Y-63761904D01*
X84391428Y-63571428D01*
X84391428Y-63333333D01*
X84439047Y-63142857D01*
X84486666Y-63047619D01*
X84534285Y-63000000D01*
X84629523Y-62952380D01*
%TO.C,J9*%
X164776190Y-83002380D02*
X164776190Y-82002380D01*
X165014285Y-82002380D01*
X165157142Y-82050000D01*
X165252380Y-82145238D01*
X165300000Y-82240476D01*
X165347619Y-82430952D01*
X165347619Y-82573809D01*
X165300000Y-82764285D01*
X165252380Y-82859523D01*
X165157142Y-82954761D01*
X165014285Y-83002380D01*
X164776190Y-83002380D01*
X166157142Y-82954761D02*
X166061904Y-83002380D01*
X165871428Y-83002380D01*
X165776190Y-82954761D01*
X165728571Y-82859523D01*
X165728571Y-82478571D01*
X165776190Y-82383333D01*
X165871428Y-82335714D01*
X166061904Y-82335714D01*
X166157142Y-82383333D01*
X166204761Y-82478571D01*
X166204761Y-82573809D01*
X165728571Y-82669047D01*
X167061904Y-83002380D02*
X167061904Y-82478571D01*
X167014285Y-82383333D01*
X166919047Y-82335714D01*
X166728571Y-82335714D01*
X166633333Y-82383333D01*
X167061904Y-82954761D02*
X166966666Y-83002380D01*
X166728571Y-83002380D01*
X166633333Y-82954761D01*
X166585714Y-82859523D01*
X166585714Y-82764285D01*
X166633333Y-82669047D01*
X166728571Y-82621428D01*
X166966666Y-82621428D01*
X167061904Y-82573809D01*
X167538095Y-82335714D02*
X167538095Y-83002380D01*
X167538095Y-82430952D02*
X167585714Y-82383333D01*
X167680952Y-82335714D01*
X167823809Y-82335714D01*
X167919047Y-82383333D01*
X167966666Y-82478571D01*
X167966666Y-83002380D01*
X168395238Y-82954761D02*
X168490476Y-83002380D01*
X168680952Y-83002380D01*
X168776190Y-82954761D01*
X168823809Y-82859523D01*
X168823809Y-82811904D01*
X168776190Y-82716666D01*
X168680952Y-82669047D01*
X168538095Y-82669047D01*
X168442857Y-82621428D01*
X168395238Y-82526190D01*
X168395238Y-82478571D01*
X168442857Y-82383333D01*
X168538095Y-82335714D01*
X168680952Y-82335714D01*
X168776190Y-82383333D01*
X169014285Y-83097619D02*
X169776190Y-83097619D01*
X170347619Y-82478571D02*
X170014285Y-82478571D01*
X170014285Y-83002380D02*
X170014285Y-82002380D01*
X170490476Y-82002380D01*
X171252380Y-82954761D02*
X171157142Y-83002380D01*
X170966666Y-83002380D01*
X170871428Y-82954761D01*
X170823809Y-82859523D01*
X170823809Y-82478571D01*
X170871428Y-82383333D01*
X170966666Y-82335714D01*
X171157142Y-82335714D01*
X171252380Y-82383333D01*
X171300000Y-82478571D01*
X171300000Y-82573809D01*
X170823809Y-82669047D01*
X171728571Y-83002380D02*
X171728571Y-82335714D01*
X171728571Y-82430952D02*
X171776190Y-82383333D01*
X171871428Y-82335714D01*
X172014285Y-82335714D01*
X172109523Y-82383333D01*
X172157142Y-82478571D01*
X172157142Y-83002380D01*
X172157142Y-82478571D02*
X172204761Y-82383333D01*
X172300000Y-82335714D01*
X172442857Y-82335714D01*
X172538095Y-82383333D01*
X172585714Y-82478571D01*
X172585714Y-83002380D01*
X173490476Y-83002380D02*
X173490476Y-82478571D01*
X173442857Y-82383333D01*
X173347619Y-82335714D01*
X173157142Y-82335714D01*
X173061904Y-82383333D01*
X173490476Y-82954761D02*
X173395238Y-83002380D01*
X173157142Y-83002380D01*
X173061904Y-82954761D01*
X173014285Y-82859523D01*
X173014285Y-82764285D01*
X173061904Y-82669047D01*
X173157142Y-82621428D01*
X173395238Y-82621428D01*
X173490476Y-82573809D01*
X174109523Y-83002380D02*
X174014285Y-82954761D01*
X173966666Y-82859523D01*
X173966666Y-82002380D01*
X174871428Y-82954761D02*
X174776190Y-83002380D01*
X174585714Y-83002380D01*
X174490476Y-82954761D01*
X174442857Y-82859523D01*
X174442857Y-82478571D01*
X174490476Y-82383333D01*
X174585714Y-82335714D01*
X174776190Y-82335714D01*
X174871428Y-82383333D01*
X174919047Y-82478571D01*
X174919047Y-82573809D01*
X174442857Y-82669047D01*
X175109523Y-83097619D02*
X175871428Y-83097619D01*
X176680952Y-82907142D02*
X176633333Y-82954761D01*
X176490476Y-83002380D01*
X176395238Y-83002380D01*
X176252380Y-82954761D01*
X176157142Y-82859523D01*
X176109523Y-82764285D01*
X176061904Y-82573809D01*
X176061904Y-82430952D01*
X176109523Y-82240476D01*
X176157142Y-82145238D01*
X176252380Y-82050000D01*
X176395238Y-82002380D01*
X176490476Y-82002380D01*
X176633333Y-82050000D01*
X176680952Y-82097619D01*
X177252380Y-83002380D02*
X177157142Y-82954761D01*
X177109523Y-82907142D01*
X177061904Y-82811904D01*
X177061904Y-82526190D01*
X177109523Y-82430952D01*
X177157142Y-82383333D01*
X177252380Y-82335714D01*
X177395238Y-82335714D01*
X177490476Y-82383333D01*
X177538095Y-82430952D01*
X177585714Y-82526190D01*
X177585714Y-82811904D01*
X177538095Y-82907142D01*
X177490476Y-82954761D01*
X177395238Y-83002380D01*
X177252380Y-83002380D01*
X178014285Y-82335714D02*
X178014285Y-83002380D01*
X178014285Y-82430952D02*
X178061904Y-82383333D01*
X178157142Y-82335714D01*
X178300000Y-82335714D01*
X178395238Y-82383333D01*
X178442857Y-82478571D01*
X178442857Y-83002380D01*
X178919047Y-82335714D02*
X178919047Y-83002380D01*
X178919047Y-82430952D02*
X178966666Y-82383333D01*
X179061904Y-82335714D01*
X179204761Y-82335714D01*
X179300000Y-82383333D01*
X179347619Y-82478571D01*
X179347619Y-83002380D01*
X179585714Y-83097619D02*
X180347619Y-83097619D01*
X180776190Y-82002380D02*
X180871428Y-82002380D01*
X180966666Y-82050000D01*
X181014285Y-82097619D01*
X181061904Y-82192857D01*
X181109523Y-82383333D01*
X181109523Y-82621428D01*
X181061904Y-82811904D01*
X181014285Y-82907142D01*
X180966666Y-82954761D01*
X180871428Y-83002380D01*
X180776190Y-83002380D01*
X180680952Y-82954761D01*
X180633333Y-82907142D01*
X180585714Y-82811904D01*
X180538095Y-82621428D01*
X180538095Y-82383333D01*
X180585714Y-82192857D01*
X180633333Y-82097619D01*
X180680952Y-82050000D01*
X180776190Y-82002380D01*
X182061904Y-83002380D02*
X181490476Y-83002380D01*
X181776190Y-83002380D02*
X181776190Y-82002380D01*
X181680952Y-82145238D01*
X181585714Y-82240476D01*
X181490476Y-82288095D01*
X182395238Y-83002380D02*
X182919047Y-82335714D01*
X182395238Y-82335714D02*
X182919047Y-83002380D01*
X183490476Y-82002380D02*
X183585714Y-82002380D01*
X183680952Y-82050000D01*
X183728571Y-82097619D01*
X183776190Y-82192857D01*
X183823809Y-82383333D01*
X183823809Y-82621428D01*
X183776190Y-82811904D01*
X183728571Y-82907142D01*
X183680952Y-82954761D01*
X183585714Y-83002380D01*
X183490476Y-83002380D01*
X183395238Y-82954761D01*
X183347619Y-82907142D01*
X183300000Y-82811904D01*
X183252380Y-82621428D01*
X183252380Y-82383333D01*
X183300000Y-82192857D01*
X183347619Y-82097619D01*
X183395238Y-82050000D01*
X183490476Y-82002380D01*
X184204761Y-82097619D02*
X184252380Y-82050000D01*
X184347619Y-82002380D01*
X184585714Y-82002380D01*
X184680952Y-82050000D01*
X184728571Y-82097619D01*
X184776190Y-82192857D01*
X184776190Y-82288095D01*
X184728571Y-82430952D01*
X184157142Y-83002380D01*
X184776190Y-83002380D01*
X184966666Y-83097619D02*
X185728571Y-83097619D01*
X186299999Y-82478571D02*
X185966666Y-82478571D01*
X185966666Y-83002380D02*
X185966666Y-82002380D01*
X186442857Y-82002380D01*
X187204761Y-82954761D02*
X187109523Y-83002380D01*
X186919047Y-83002380D01*
X186823809Y-82954761D01*
X186776190Y-82859523D01*
X186776190Y-82478571D01*
X186823809Y-82383333D01*
X186919047Y-82335714D01*
X187109523Y-82335714D01*
X187204761Y-82383333D01*
X187252380Y-82478571D01*
X187252380Y-82573809D01*
X186776190Y-82669047D01*
X187680952Y-83002380D02*
X187680952Y-82335714D01*
X187680952Y-82430952D02*
X187728571Y-82383333D01*
X187823809Y-82335714D01*
X187966666Y-82335714D01*
X188061904Y-82383333D01*
X188109523Y-82478571D01*
X188109523Y-83002380D01*
X188109523Y-82478571D02*
X188157142Y-82383333D01*
X188252380Y-82335714D01*
X188395238Y-82335714D01*
X188490476Y-82383333D01*
X188538095Y-82478571D01*
X188538095Y-83002380D01*
X189442857Y-83002380D02*
X189442857Y-82478571D01*
X189395238Y-82383333D01*
X189299999Y-82335714D01*
X189109523Y-82335714D01*
X189014285Y-82383333D01*
X189442857Y-82954761D02*
X189347619Y-83002380D01*
X189109523Y-83002380D01*
X189014285Y-82954761D01*
X188966666Y-82859523D01*
X188966666Y-82764285D01*
X189014285Y-82669047D01*
X189109523Y-82621428D01*
X189347619Y-82621428D01*
X189442857Y-82573809D01*
X190061904Y-83002380D02*
X189966666Y-82954761D01*
X189919047Y-82859523D01*
X189919047Y-82002380D01*
X190823809Y-82954761D02*
X190728571Y-83002380D01*
X190538095Y-83002380D01*
X190442857Y-82954761D01*
X190395238Y-82859523D01*
X190395238Y-82478571D01*
X190442857Y-82383333D01*
X190538095Y-82335714D01*
X190728571Y-82335714D01*
X190823809Y-82383333D01*
X190871428Y-82478571D01*
X190871428Y-82573809D01*
X190395238Y-82669047D01*
%TO.C,J8*%
X164776190Y-61412380D02*
X164776190Y-60412380D01*
X165014285Y-60412380D01*
X165157142Y-60460000D01*
X165252380Y-60555238D01*
X165300000Y-60650476D01*
X165347619Y-60840952D01*
X165347619Y-60983809D01*
X165300000Y-61174285D01*
X165252380Y-61269523D01*
X165157142Y-61364761D01*
X165014285Y-61412380D01*
X164776190Y-61412380D01*
X166157142Y-61364761D02*
X166061904Y-61412380D01*
X165871428Y-61412380D01*
X165776190Y-61364761D01*
X165728571Y-61269523D01*
X165728571Y-60888571D01*
X165776190Y-60793333D01*
X165871428Y-60745714D01*
X166061904Y-60745714D01*
X166157142Y-60793333D01*
X166204761Y-60888571D01*
X166204761Y-60983809D01*
X165728571Y-61079047D01*
X167061904Y-61412380D02*
X167061904Y-60888571D01*
X167014285Y-60793333D01*
X166919047Y-60745714D01*
X166728571Y-60745714D01*
X166633333Y-60793333D01*
X167061904Y-61364761D02*
X166966666Y-61412380D01*
X166728571Y-61412380D01*
X166633333Y-61364761D01*
X166585714Y-61269523D01*
X166585714Y-61174285D01*
X166633333Y-61079047D01*
X166728571Y-61031428D01*
X166966666Y-61031428D01*
X167061904Y-60983809D01*
X167538095Y-60745714D02*
X167538095Y-61412380D01*
X167538095Y-60840952D02*
X167585714Y-60793333D01*
X167680952Y-60745714D01*
X167823809Y-60745714D01*
X167919047Y-60793333D01*
X167966666Y-60888571D01*
X167966666Y-61412380D01*
X168395238Y-61364761D02*
X168490476Y-61412380D01*
X168680952Y-61412380D01*
X168776190Y-61364761D01*
X168823809Y-61269523D01*
X168823809Y-61221904D01*
X168776190Y-61126666D01*
X168680952Y-61079047D01*
X168538095Y-61079047D01*
X168442857Y-61031428D01*
X168395238Y-60936190D01*
X168395238Y-60888571D01*
X168442857Y-60793333D01*
X168538095Y-60745714D01*
X168680952Y-60745714D01*
X168776190Y-60793333D01*
X169014285Y-61507619D02*
X169776190Y-61507619D01*
X170347619Y-60888571D02*
X170014285Y-60888571D01*
X170014285Y-61412380D02*
X170014285Y-60412380D01*
X170490476Y-60412380D01*
X171252380Y-61364761D02*
X171157142Y-61412380D01*
X170966666Y-61412380D01*
X170871428Y-61364761D01*
X170823809Y-61269523D01*
X170823809Y-60888571D01*
X170871428Y-60793333D01*
X170966666Y-60745714D01*
X171157142Y-60745714D01*
X171252380Y-60793333D01*
X171300000Y-60888571D01*
X171300000Y-60983809D01*
X170823809Y-61079047D01*
X171728571Y-61412380D02*
X171728571Y-60745714D01*
X171728571Y-60840952D02*
X171776190Y-60793333D01*
X171871428Y-60745714D01*
X172014285Y-60745714D01*
X172109523Y-60793333D01*
X172157142Y-60888571D01*
X172157142Y-61412380D01*
X172157142Y-60888571D02*
X172204761Y-60793333D01*
X172300000Y-60745714D01*
X172442857Y-60745714D01*
X172538095Y-60793333D01*
X172585714Y-60888571D01*
X172585714Y-61412380D01*
X173490476Y-61412380D02*
X173490476Y-60888571D01*
X173442857Y-60793333D01*
X173347619Y-60745714D01*
X173157142Y-60745714D01*
X173061904Y-60793333D01*
X173490476Y-61364761D02*
X173395238Y-61412380D01*
X173157142Y-61412380D01*
X173061904Y-61364761D01*
X173014285Y-61269523D01*
X173014285Y-61174285D01*
X173061904Y-61079047D01*
X173157142Y-61031428D01*
X173395238Y-61031428D01*
X173490476Y-60983809D01*
X174109523Y-61412380D02*
X174014285Y-61364761D01*
X173966666Y-61269523D01*
X173966666Y-60412380D01*
X174871428Y-61364761D02*
X174776190Y-61412380D01*
X174585714Y-61412380D01*
X174490476Y-61364761D01*
X174442857Y-61269523D01*
X174442857Y-60888571D01*
X174490476Y-60793333D01*
X174585714Y-60745714D01*
X174776190Y-60745714D01*
X174871428Y-60793333D01*
X174919047Y-60888571D01*
X174919047Y-60983809D01*
X174442857Y-61079047D01*
X175109523Y-61507619D02*
X175871428Y-61507619D01*
X176680952Y-61317142D02*
X176633333Y-61364761D01*
X176490476Y-61412380D01*
X176395238Y-61412380D01*
X176252380Y-61364761D01*
X176157142Y-61269523D01*
X176109523Y-61174285D01*
X176061904Y-60983809D01*
X176061904Y-60840952D01*
X176109523Y-60650476D01*
X176157142Y-60555238D01*
X176252380Y-60460000D01*
X176395238Y-60412380D01*
X176490476Y-60412380D01*
X176633333Y-60460000D01*
X176680952Y-60507619D01*
X177252380Y-61412380D02*
X177157142Y-61364761D01*
X177109523Y-61317142D01*
X177061904Y-61221904D01*
X177061904Y-60936190D01*
X177109523Y-60840952D01*
X177157142Y-60793333D01*
X177252380Y-60745714D01*
X177395238Y-60745714D01*
X177490476Y-60793333D01*
X177538095Y-60840952D01*
X177585714Y-60936190D01*
X177585714Y-61221904D01*
X177538095Y-61317142D01*
X177490476Y-61364761D01*
X177395238Y-61412380D01*
X177252380Y-61412380D01*
X178014285Y-60745714D02*
X178014285Y-61412380D01*
X178014285Y-60840952D02*
X178061904Y-60793333D01*
X178157142Y-60745714D01*
X178300000Y-60745714D01*
X178395238Y-60793333D01*
X178442857Y-60888571D01*
X178442857Y-61412380D01*
X178919047Y-60745714D02*
X178919047Y-61412380D01*
X178919047Y-60840952D02*
X178966666Y-60793333D01*
X179061904Y-60745714D01*
X179204761Y-60745714D01*
X179300000Y-60793333D01*
X179347619Y-60888571D01*
X179347619Y-61412380D01*
X179585714Y-61507619D02*
X180347619Y-61507619D01*
X180776190Y-60412380D02*
X180871428Y-60412380D01*
X180966666Y-60460000D01*
X181014285Y-60507619D01*
X181061904Y-60602857D01*
X181109523Y-60793333D01*
X181109523Y-61031428D01*
X181061904Y-61221904D01*
X181014285Y-61317142D01*
X180966666Y-61364761D01*
X180871428Y-61412380D01*
X180776190Y-61412380D01*
X180680952Y-61364761D01*
X180633333Y-61317142D01*
X180585714Y-61221904D01*
X180538095Y-61031428D01*
X180538095Y-60793333D01*
X180585714Y-60602857D01*
X180633333Y-60507619D01*
X180680952Y-60460000D01*
X180776190Y-60412380D01*
X182061904Y-61412380D02*
X181490476Y-61412380D01*
X181776190Y-61412380D02*
X181776190Y-60412380D01*
X181680952Y-60555238D01*
X181585714Y-60650476D01*
X181490476Y-60698095D01*
X182395238Y-61412380D02*
X182919047Y-60745714D01*
X182395238Y-60745714D02*
X182919047Y-61412380D01*
X183490476Y-60412380D02*
X183585714Y-60412380D01*
X183680952Y-60460000D01*
X183728571Y-60507619D01*
X183776190Y-60602857D01*
X183823809Y-60793333D01*
X183823809Y-61031428D01*
X183776190Y-61221904D01*
X183728571Y-61317142D01*
X183680952Y-61364761D01*
X183585714Y-61412380D01*
X183490476Y-61412380D01*
X183395238Y-61364761D01*
X183347619Y-61317142D01*
X183300000Y-61221904D01*
X183252380Y-61031428D01*
X183252380Y-60793333D01*
X183300000Y-60602857D01*
X183347619Y-60507619D01*
X183395238Y-60460000D01*
X183490476Y-60412380D01*
X184204761Y-60507619D02*
X184252380Y-60460000D01*
X184347619Y-60412380D01*
X184585714Y-60412380D01*
X184680952Y-60460000D01*
X184728571Y-60507619D01*
X184776190Y-60602857D01*
X184776190Y-60698095D01*
X184728571Y-60840952D01*
X184157142Y-61412380D01*
X184776190Y-61412380D01*
X184966666Y-61507619D02*
X185728571Y-61507619D01*
X186299999Y-60888571D02*
X185966666Y-60888571D01*
X185966666Y-61412380D02*
X185966666Y-60412380D01*
X186442857Y-60412380D01*
X187204761Y-61364761D02*
X187109523Y-61412380D01*
X186919047Y-61412380D01*
X186823809Y-61364761D01*
X186776190Y-61269523D01*
X186776190Y-60888571D01*
X186823809Y-60793333D01*
X186919047Y-60745714D01*
X187109523Y-60745714D01*
X187204761Y-60793333D01*
X187252380Y-60888571D01*
X187252380Y-60983809D01*
X186776190Y-61079047D01*
X187680952Y-61412380D02*
X187680952Y-60745714D01*
X187680952Y-60840952D02*
X187728571Y-60793333D01*
X187823809Y-60745714D01*
X187966666Y-60745714D01*
X188061904Y-60793333D01*
X188109523Y-60888571D01*
X188109523Y-61412380D01*
X188109523Y-60888571D02*
X188157142Y-60793333D01*
X188252380Y-60745714D01*
X188395238Y-60745714D01*
X188490476Y-60793333D01*
X188538095Y-60888571D01*
X188538095Y-61412380D01*
X189442857Y-61412380D02*
X189442857Y-60888571D01*
X189395238Y-60793333D01*
X189299999Y-60745714D01*
X189109523Y-60745714D01*
X189014285Y-60793333D01*
X189442857Y-61364761D02*
X189347619Y-61412380D01*
X189109523Y-61412380D01*
X189014285Y-61364761D01*
X188966666Y-61269523D01*
X188966666Y-61174285D01*
X189014285Y-61079047D01*
X189109523Y-61031428D01*
X189347619Y-61031428D01*
X189442857Y-60983809D01*
X190061904Y-61412380D02*
X189966666Y-61364761D01*
X189919047Y-61269523D01*
X189919047Y-60412380D01*
X190823809Y-61364761D02*
X190728571Y-61412380D01*
X190538095Y-61412380D01*
X190442857Y-61364761D01*
X190395238Y-61269523D01*
X190395238Y-60888571D01*
X190442857Y-60793333D01*
X190538095Y-60745714D01*
X190728571Y-60745714D01*
X190823809Y-60793333D01*
X190871428Y-60888571D01*
X190871428Y-60983809D01*
X190395238Y-61079047D01*
%TO.C,J7*%
X142297190Y-83002380D02*
X142297190Y-82002380D01*
X142535285Y-82002380D01*
X142678142Y-82050000D01*
X142773380Y-82145238D01*
X142821000Y-82240476D01*
X142868619Y-82430952D01*
X142868619Y-82573809D01*
X142821000Y-82764285D01*
X142773380Y-82859523D01*
X142678142Y-82954761D01*
X142535285Y-83002380D01*
X142297190Y-83002380D01*
X143678142Y-82954761D02*
X143582904Y-83002380D01*
X143392428Y-83002380D01*
X143297190Y-82954761D01*
X143249571Y-82859523D01*
X143249571Y-82478571D01*
X143297190Y-82383333D01*
X143392428Y-82335714D01*
X143582904Y-82335714D01*
X143678142Y-82383333D01*
X143725761Y-82478571D01*
X143725761Y-82573809D01*
X143249571Y-82669047D01*
X144582904Y-83002380D02*
X144582904Y-82478571D01*
X144535285Y-82383333D01*
X144440047Y-82335714D01*
X144249571Y-82335714D01*
X144154333Y-82383333D01*
X144582904Y-82954761D02*
X144487666Y-83002380D01*
X144249571Y-83002380D01*
X144154333Y-82954761D01*
X144106714Y-82859523D01*
X144106714Y-82764285D01*
X144154333Y-82669047D01*
X144249571Y-82621428D01*
X144487666Y-82621428D01*
X144582904Y-82573809D01*
X145059095Y-82335714D02*
X145059095Y-83002380D01*
X145059095Y-82430952D02*
X145106714Y-82383333D01*
X145201952Y-82335714D01*
X145344809Y-82335714D01*
X145440047Y-82383333D01*
X145487666Y-82478571D01*
X145487666Y-83002380D01*
X145916238Y-82954761D02*
X146011476Y-83002380D01*
X146201952Y-83002380D01*
X146297190Y-82954761D01*
X146344809Y-82859523D01*
X146344809Y-82811904D01*
X146297190Y-82716666D01*
X146201952Y-82669047D01*
X146059095Y-82669047D01*
X145963857Y-82621428D01*
X145916238Y-82526190D01*
X145916238Y-82478571D01*
X145963857Y-82383333D01*
X146059095Y-82335714D01*
X146201952Y-82335714D01*
X146297190Y-82383333D01*
X146535285Y-83097619D02*
X147297190Y-83097619D01*
X147868619Y-82478571D02*
X147535285Y-82478571D01*
X147535285Y-83002380D02*
X147535285Y-82002380D01*
X148011476Y-82002380D01*
X148773380Y-82954761D02*
X148678142Y-83002380D01*
X148487666Y-83002380D01*
X148392428Y-82954761D01*
X148344809Y-82859523D01*
X148344809Y-82478571D01*
X148392428Y-82383333D01*
X148487666Y-82335714D01*
X148678142Y-82335714D01*
X148773380Y-82383333D01*
X148821000Y-82478571D01*
X148821000Y-82573809D01*
X148344809Y-82669047D01*
X149249571Y-83002380D02*
X149249571Y-82335714D01*
X149249571Y-82430952D02*
X149297190Y-82383333D01*
X149392428Y-82335714D01*
X149535285Y-82335714D01*
X149630523Y-82383333D01*
X149678142Y-82478571D01*
X149678142Y-83002380D01*
X149678142Y-82478571D02*
X149725761Y-82383333D01*
X149821000Y-82335714D01*
X149963857Y-82335714D01*
X150059095Y-82383333D01*
X150106714Y-82478571D01*
X150106714Y-83002380D01*
X151011476Y-83002380D02*
X151011476Y-82478571D01*
X150963857Y-82383333D01*
X150868619Y-82335714D01*
X150678142Y-82335714D01*
X150582904Y-82383333D01*
X151011476Y-82954761D02*
X150916238Y-83002380D01*
X150678142Y-83002380D01*
X150582904Y-82954761D01*
X150535285Y-82859523D01*
X150535285Y-82764285D01*
X150582904Y-82669047D01*
X150678142Y-82621428D01*
X150916238Y-82621428D01*
X151011476Y-82573809D01*
X151630523Y-83002380D02*
X151535285Y-82954761D01*
X151487666Y-82859523D01*
X151487666Y-82002380D01*
X152392428Y-82954761D02*
X152297190Y-83002380D01*
X152106714Y-83002380D01*
X152011476Y-82954761D01*
X151963857Y-82859523D01*
X151963857Y-82478571D01*
X152011476Y-82383333D01*
X152106714Y-82335714D01*
X152297190Y-82335714D01*
X152392428Y-82383333D01*
X152440047Y-82478571D01*
X152440047Y-82573809D01*
X151963857Y-82669047D01*
X152630523Y-83097619D02*
X153392428Y-83097619D01*
X154201952Y-82907142D02*
X154154333Y-82954761D01*
X154011476Y-83002380D01*
X153916238Y-83002380D01*
X153773380Y-82954761D01*
X153678142Y-82859523D01*
X153630523Y-82764285D01*
X153582904Y-82573809D01*
X153582904Y-82430952D01*
X153630523Y-82240476D01*
X153678142Y-82145238D01*
X153773380Y-82050000D01*
X153916238Y-82002380D01*
X154011476Y-82002380D01*
X154154333Y-82050000D01*
X154201952Y-82097619D01*
X154773380Y-83002380D02*
X154678142Y-82954761D01*
X154630523Y-82907142D01*
X154582904Y-82811904D01*
X154582904Y-82526190D01*
X154630523Y-82430952D01*
X154678142Y-82383333D01*
X154773380Y-82335714D01*
X154916238Y-82335714D01*
X155011476Y-82383333D01*
X155059095Y-82430952D01*
X155106714Y-82526190D01*
X155106714Y-82811904D01*
X155059095Y-82907142D01*
X155011476Y-82954761D01*
X154916238Y-83002380D01*
X154773380Y-83002380D01*
X155535285Y-82335714D02*
X155535285Y-83002380D01*
X155535285Y-82430952D02*
X155582904Y-82383333D01*
X155678142Y-82335714D01*
X155821000Y-82335714D01*
X155916238Y-82383333D01*
X155963857Y-82478571D01*
X155963857Y-83002380D01*
X156440047Y-82335714D02*
X156440047Y-83002380D01*
X156440047Y-82430952D02*
X156487666Y-82383333D01*
X156582904Y-82335714D01*
X156725761Y-82335714D01*
X156821000Y-82383333D01*
X156868619Y-82478571D01*
X156868619Y-83002380D01*
X157106714Y-83097619D02*
X157868619Y-83097619D01*
X158297190Y-82002380D02*
X158392428Y-82002380D01*
X158487666Y-82050000D01*
X158535285Y-82097619D01*
X158582904Y-82192857D01*
X158630523Y-82383333D01*
X158630523Y-82621428D01*
X158582904Y-82811904D01*
X158535285Y-82907142D01*
X158487666Y-82954761D01*
X158392428Y-83002380D01*
X158297190Y-83002380D01*
X158201952Y-82954761D01*
X158154333Y-82907142D01*
X158106714Y-82811904D01*
X158059095Y-82621428D01*
X158059095Y-82383333D01*
X158106714Y-82192857D01*
X158154333Y-82097619D01*
X158201952Y-82050000D01*
X158297190Y-82002380D01*
X159582904Y-83002380D02*
X159011476Y-83002380D01*
X159297190Y-83002380D02*
X159297190Y-82002380D01*
X159201952Y-82145238D01*
X159106714Y-82240476D01*
X159011476Y-82288095D01*
X159916238Y-83002380D02*
X160440047Y-82335714D01*
X159916238Y-82335714D02*
X160440047Y-83002380D01*
X161011476Y-82002380D02*
X161106714Y-82002380D01*
X161201952Y-82050000D01*
X161249571Y-82097619D01*
X161297190Y-82192857D01*
X161344809Y-82383333D01*
X161344809Y-82621428D01*
X161297190Y-82811904D01*
X161249571Y-82907142D01*
X161201952Y-82954761D01*
X161106714Y-83002380D01*
X161011476Y-83002380D01*
X160916238Y-82954761D01*
X160868619Y-82907142D01*
X160821000Y-82811904D01*
X160773380Y-82621428D01*
X160773380Y-82383333D01*
X160821000Y-82192857D01*
X160868619Y-82097619D01*
X160916238Y-82050000D01*
X161011476Y-82002380D01*
X161725761Y-82097619D02*
X161773380Y-82050000D01*
X161868619Y-82002380D01*
X162106714Y-82002380D01*
X162201952Y-82050000D01*
X162249571Y-82097619D01*
X162297190Y-82192857D01*
X162297190Y-82288095D01*
X162249571Y-82430952D01*
X161678142Y-83002380D01*
X162297190Y-83002380D01*
X162487666Y-83097619D02*
X163249571Y-83097619D01*
X163820999Y-82478571D02*
X163487666Y-82478571D01*
X163487666Y-83002380D02*
X163487666Y-82002380D01*
X163963857Y-82002380D01*
X164725761Y-82954761D02*
X164630523Y-83002380D01*
X164440047Y-83002380D01*
X164344809Y-82954761D01*
X164297190Y-82859523D01*
X164297190Y-82478571D01*
X164344809Y-82383333D01*
X164440047Y-82335714D01*
X164630523Y-82335714D01*
X164725761Y-82383333D01*
X164773380Y-82478571D01*
X164773380Y-82573809D01*
X164297190Y-82669047D01*
X165201952Y-83002380D02*
X165201952Y-82335714D01*
X165201952Y-82430952D02*
X165249571Y-82383333D01*
X165344809Y-82335714D01*
X165487666Y-82335714D01*
X165582904Y-82383333D01*
X165630523Y-82478571D01*
X165630523Y-83002380D01*
X165630523Y-82478571D02*
X165678142Y-82383333D01*
X165773380Y-82335714D01*
X165916238Y-82335714D01*
X166011476Y-82383333D01*
X166059095Y-82478571D01*
X166059095Y-83002380D01*
X166963857Y-83002380D02*
X166963857Y-82478571D01*
X166916238Y-82383333D01*
X166820999Y-82335714D01*
X166630523Y-82335714D01*
X166535285Y-82383333D01*
X166963857Y-82954761D02*
X166868619Y-83002380D01*
X166630523Y-83002380D01*
X166535285Y-82954761D01*
X166487666Y-82859523D01*
X166487666Y-82764285D01*
X166535285Y-82669047D01*
X166630523Y-82621428D01*
X166868619Y-82621428D01*
X166963857Y-82573809D01*
X167582904Y-83002380D02*
X167487666Y-82954761D01*
X167440047Y-82859523D01*
X167440047Y-82002380D01*
X168344809Y-82954761D02*
X168249571Y-83002380D01*
X168059095Y-83002380D01*
X167963857Y-82954761D01*
X167916238Y-82859523D01*
X167916238Y-82478571D01*
X167963857Y-82383333D01*
X168059095Y-82335714D01*
X168249571Y-82335714D01*
X168344809Y-82383333D01*
X168392428Y-82478571D01*
X168392428Y-82573809D01*
X167916238Y-82669047D01*
%TO.C,J6*%
X153346190Y-61412380D02*
X153346190Y-60412380D01*
X153584285Y-60412380D01*
X153727142Y-60460000D01*
X153822380Y-60555238D01*
X153870000Y-60650476D01*
X153917619Y-60840952D01*
X153917619Y-60983809D01*
X153870000Y-61174285D01*
X153822380Y-61269523D01*
X153727142Y-61364761D01*
X153584285Y-61412380D01*
X153346190Y-61412380D01*
X154727142Y-61364761D02*
X154631904Y-61412380D01*
X154441428Y-61412380D01*
X154346190Y-61364761D01*
X154298571Y-61269523D01*
X154298571Y-60888571D01*
X154346190Y-60793333D01*
X154441428Y-60745714D01*
X154631904Y-60745714D01*
X154727142Y-60793333D01*
X154774761Y-60888571D01*
X154774761Y-60983809D01*
X154298571Y-61079047D01*
X155631904Y-61412380D02*
X155631904Y-60888571D01*
X155584285Y-60793333D01*
X155489047Y-60745714D01*
X155298571Y-60745714D01*
X155203333Y-60793333D01*
X155631904Y-61364761D02*
X155536666Y-61412380D01*
X155298571Y-61412380D01*
X155203333Y-61364761D01*
X155155714Y-61269523D01*
X155155714Y-61174285D01*
X155203333Y-61079047D01*
X155298571Y-61031428D01*
X155536666Y-61031428D01*
X155631904Y-60983809D01*
X156108095Y-60745714D02*
X156108095Y-61412380D01*
X156108095Y-60840952D02*
X156155714Y-60793333D01*
X156250952Y-60745714D01*
X156393809Y-60745714D01*
X156489047Y-60793333D01*
X156536666Y-60888571D01*
X156536666Y-61412380D01*
X156965238Y-61364761D02*
X157060476Y-61412380D01*
X157250952Y-61412380D01*
X157346190Y-61364761D01*
X157393809Y-61269523D01*
X157393809Y-61221904D01*
X157346190Y-61126666D01*
X157250952Y-61079047D01*
X157108095Y-61079047D01*
X157012857Y-61031428D01*
X156965238Y-60936190D01*
X156965238Y-60888571D01*
X157012857Y-60793333D01*
X157108095Y-60745714D01*
X157250952Y-60745714D01*
X157346190Y-60793333D01*
X157584285Y-61507619D02*
X158346190Y-61507619D01*
X158917619Y-60888571D02*
X158584285Y-60888571D01*
X158584285Y-61412380D02*
X158584285Y-60412380D01*
X159060476Y-60412380D01*
X159822380Y-61364761D02*
X159727142Y-61412380D01*
X159536666Y-61412380D01*
X159441428Y-61364761D01*
X159393809Y-61269523D01*
X159393809Y-60888571D01*
X159441428Y-60793333D01*
X159536666Y-60745714D01*
X159727142Y-60745714D01*
X159822380Y-60793333D01*
X159870000Y-60888571D01*
X159870000Y-60983809D01*
X159393809Y-61079047D01*
X160298571Y-61412380D02*
X160298571Y-60745714D01*
X160298571Y-60840952D02*
X160346190Y-60793333D01*
X160441428Y-60745714D01*
X160584285Y-60745714D01*
X160679523Y-60793333D01*
X160727142Y-60888571D01*
X160727142Y-61412380D01*
X160727142Y-60888571D02*
X160774761Y-60793333D01*
X160870000Y-60745714D01*
X161012857Y-60745714D01*
X161108095Y-60793333D01*
X161155714Y-60888571D01*
X161155714Y-61412380D01*
X162060476Y-61412380D02*
X162060476Y-60888571D01*
X162012857Y-60793333D01*
X161917619Y-60745714D01*
X161727142Y-60745714D01*
X161631904Y-60793333D01*
X162060476Y-61364761D02*
X161965238Y-61412380D01*
X161727142Y-61412380D01*
X161631904Y-61364761D01*
X161584285Y-61269523D01*
X161584285Y-61174285D01*
X161631904Y-61079047D01*
X161727142Y-61031428D01*
X161965238Y-61031428D01*
X162060476Y-60983809D01*
X162679523Y-61412380D02*
X162584285Y-61364761D01*
X162536666Y-61269523D01*
X162536666Y-60412380D01*
X163441428Y-61364761D02*
X163346190Y-61412380D01*
X163155714Y-61412380D01*
X163060476Y-61364761D01*
X163012857Y-61269523D01*
X163012857Y-60888571D01*
X163060476Y-60793333D01*
X163155714Y-60745714D01*
X163346190Y-60745714D01*
X163441428Y-60793333D01*
X163489047Y-60888571D01*
X163489047Y-60983809D01*
X163012857Y-61079047D01*
X163679523Y-61507619D02*
X164441428Y-61507619D01*
X165250952Y-61317142D02*
X165203333Y-61364761D01*
X165060476Y-61412380D01*
X164965238Y-61412380D01*
X164822380Y-61364761D01*
X164727142Y-61269523D01*
X164679523Y-61174285D01*
X164631904Y-60983809D01*
X164631904Y-60840952D01*
X164679523Y-60650476D01*
X164727142Y-60555238D01*
X164822380Y-60460000D01*
X164965238Y-60412380D01*
X165060476Y-60412380D01*
X165203333Y-60460000D01*
X165250952Y-60507619D01*
X165822380Y-61412380D02*
X165727142Y-61364761D01*
X165679523Y-61317142D01*
X165631904Y-61221904D01*
X165631904Y-60936190D01*
X165679523Y-60840952D01*
X165727142Y-60793333D01*
X165822380Y-60745714D01*
X165965238Y-60745714D01*
X166060476Y-60793333D01*
X166108095Y-60840952D01*
X166155714Y-60936190D01*
X166155714Y-61221904D01*
X166108095Y-61317142D01*
X166060476Y-61364761D01*
X165965238Y-61412380D01*
X165822380Y-61412380D01*
X166584285Y-60745714D02*
X166584285Y-61412380D01*
X166584285Y-60840952D02*
X166631904Y-60793333D01*
X166727142Y-60745714D01*
X166870000Y-60745714D01*
X166965238Y-60793333D01*
X167012857Y-60888571D01*
X167012857Y-61412380D01*
X167489047Y-60745714D02*
X167489047Y-61412380D01*
X167489047Y-60840952D02*
X167536666Y-60793333D01*
X167631904Y-60745714D01*
X167774761Y-60745714D01*
X167870000Y-60793333D01*
X167917619Y-60888571D01*
X167917619Y-61412380D01*
X168155714Y-61507619D02*
X168917619Y-61507619D01*
X169346190Y-60412380D02*
X169441428Y-60412380D01*
X169536666Y-60460000D01*
X169584285Y-60507619D01*
X169631904Y-60602857D01*
X169679523Y-60793333D01*
X169679523Y-61031428D01*
X169631904Y-61221904D01*
X169584285Y-61317142D01*
X169536666Y-61364761D01*
X169441428Y-61412380D01*
X169346190Y-61412380D01*
X169250952Y-61364761D01*
X169203333Y-61317142D01*
X169155714Y-61221904D01*
X169108095Y-61031428D01*
X169108095Y-60793333D01*
X169155714Y-60602857D01*
X169203333Y-60507619D01*
X169250952Y-60460000D01*
X169346190Y-60412380D01*
X170631904Y-61412380D02*
X170060476Y-61412380D01*
X170346190Y-61412380D02*
X170346190Y-60412380D01*
X170250952Y-60555238D01*
X170155714Y-60650476D01*
X170060476Y-60698095D01*
X170965238Y-61412380D02*
X171489047Y-60745714D01*
X170965238Y-60745714D02*
X171489047Y-61412380D01*
X172060476Y-60412380D02*
X172155714Y-60412380D01*
X172250952Y-60460000D01*
X172298571Y-60507619D01*
X172346190Y-60602857D01*
X172393809Y-60793333D01*
X172393809Y-61031428D01*
X172346190Y-61221904D01*
X172298571Y-61317142D01*
X172250952Y-61364761D01*
X172155714Y-61412380D01*
X172060476Y-61412380D01*
X171965238Y-61364761D01*
X171917619Y-61317142D01*
X171870000Y-61221904D01*
X171822380Y-61031428D01*
X171822380Y-60793333D01*
X171870000Y-60602857D01*
X171917619Y-60507619D01*
X171965238Y-60460000D01*
X172060476Y-60412380D01*
X172774761Y-60507619D02*
X172822380Y-60460000D01*
X172917619Y-60412380D01*
X173155714Y-60412380D01*
X173250952Y-60460000D01*
X173298571Y-60507619D01*
X173346190Y-60602857D01*
X173346190Y-60698095D01*
X173298571Y-60840952D01*
X172727142Y-61412380D01*
X173346190Y-61412380D01*
X173536666Y-61507619D02*
X174298571Y-61507619D01*
X174869999Y-60888571D02*
X174536666Y-60888571D01*
X174536666Y-61412380D02*
X174536666Y-60412380D01*
X175012857Y-60412380D01*
X175774761Y-61364761D02*
X175679523Y-61412380D01*
X175489047Y-61412380D01*
X175393809Y-61364761D01*
X175346190Y-61269523D01*
X175346190Y-60888571D01*
X175393809Y-60793333D01*
X175489047Y-60745714D01*
X175679523Y-60745714D01*
X175774761Y-60793333D01*
X175822380Y-60888571D01*
X175822380Y-60983809D01*
X175346190Y-61079047D01*
X176250952Y-61412380D02*
X176250952Y-60745714D01*
X176250952Y-60840952D02*
X176298571Y-60793333D01*
X176393809Y-60745714D01*
X176536666Y-60745714D01*
X176631904Y-60793333D01*
X176679523Y-60888571D01*
X176679523Y-61412380D01*
X176679523Y-60888571D02*
X176727142Y-60793333D01*
X176822380Y-60745714D01*
X176965238Y-60745714D01*
X177060476Y-60793333D01*
X177108095Y-60888571D01*
X177108095Y-61412380D01*
X178012857Y-61412380D02*
X178012857Y-60888571D01*
X177965238Y-60793333D01*
X177869999Y-60745714D01*
X177679523Y-60745714D01*
X177584285Y-60793333D01*
X178012857Y-61364761D02*
X177917619Y-61412380D01*
X177679523Y-61412380D01*
X177584285Y-61364761D01*
X177536666Y-61269523D01*
X177536666Y-61174285D01*
X177584285Y-61079047D01*
X177679523Y-61031428D01*
X177917619Y-61031428D01*
X178012857Y-60983809D01*
X178631904Y-61412380D02*
X178536666Y-61364761D01*
X178489047Y-61269523D01*
X178489047Y-60412380D01*
X179393809Y-61364761D02*
X179298571Y-61412380D01*
X179108095Y-61412380D01*
X179012857Y-61364761D01*
X178965238Y-61269523D01*
X178965238Y-60888571D01*
X179012857Y-60793333D01*
X179108095Y-60745714D01*
X179298571Y-60745714D01*
X179393809Y-60793333D01*
X179441428Y-60888571D01*
X179441428Y-60983809D01*
X178965238Y-61079047D01*
%TO.C,J5*%
X141916190Y-61412380D02*
X141916190Y-60412380D01*
X142154285Y-60412380D01*
X142297142Y-60460000D01*
X142392380Y-60555238D01*
X142440000Y-60650476D01*
X142487619Y-60840952D01*
X142487619Y-60983809D01*
X142440000Y-61174285D01*
X142392380Y-61269523D01*
X142297142Y-61364761D01*
X142154285Y-61412380D01*
X141916190Y-61412380D01*
X143297142Y-61364761D02*
X143201904Y-61412380D01*
X143011428Y-61412380D01*
X142916190Y-61364761D01*
X142868571Y-61269523D01*
X142868571Y-60888571D01*
X142916190Y-60793333D01*
X143011428Y-60745714D01*
X143201904Y-60745714D01*
X143297142Y-60793333D01*
X143344761Y-60888571D01*
X143344761Y-60983809D01*
X142868571Y-61079047D01*
X144201904Y-61412380D02*
X144201904Y-60888571D01*
X144154285Y-60793333D01*
X144059047Y-60745714D01*
X143868571Y-60745714D01*
X143773333Y-60793333D01*
X144201904Y-61364761D02*
X144106666Y-61412380D01*
X143868571Y-61412380D01*
X143773333Y-61364761D01*
X143725714Y-61269523D01*
X143725714Y-61174285D01*
X143773333Y-61079047D01*
X143868571Y-61031428D01*
X144106666Y-61031428D01*
X144201904Y-60983809D01*
X144678095Y-60745714D02*
X144678095Y-61412380D01*
X144678095Y-60840952D02*
X144725714Y-60793333D01*
X144820952Y-60745714D01*
X144963809Y-60745714D01*
X145059047Y-60793333D01*
X145106666Y-60888571D01*
X145106666Y-61412380D01*
X145535238Y-61364761D02*
X145630476Y-61412380D01*
X145820952Y-61412380D01*
X145916190Y-61364761D01*
X145963809Y-61269523D01*
X145963809Y-61221904D01*
X145916190Y-61126666D01*
X145820952Y-61079047D01*
X145678095Y-61079047D01*
X145582857Y-61031428D01*
X145535238Y-60936190D01*
X145535238Y-60888571D01*
X145582857Y-60793333D01*
X145678095Y-60745714D01*
X145820952Y-60745714D01*
X145916190Y-60793333D01*
X146154285Y-61507619D02*
X146916190Y-61507619D01*
X147487619Y-60888571D02*
X147154285Y-60888571D01*
X147154285Y-61412380D02*
X147154285Y-60412380D01*
X147630476Y-60412380D01*
X148392380Y-61364761D02*
X148297142Y-61412380D01*
X148106666Y-61412380D01*
X148011428Y-61364761D01*
X147963809Y-61269523D01*
X147963809Y-60888571D01*
X148011428Y-60793333D01*
X148106666Y-60745714D01*
X148297142Y-60745714D01*
X148392380Y-60793333D01*
X148440000Y-60888571D01*
X148440000Y-60983809D01*
X147963809Y-61079047D01*
X148868571Y-61412380D02*
X148868571Y-60745714D01*
X148868571Y-60840952D02*
X148916190Y-60793333D01*
X149011428Y-60745714D01*
X149154285Y-60745714D01*
X149249523Y-60793333D01*
X149297142Y-60888571D01*
X149297142Y-61412380D01*
X149297142Y-60888571D02*
X149344761Y-60793333D01*
X149440000Y-60745714D01*
X149582857Y-60745714D01*
X149678095Y-60793333D01*
X149725714Y-60888571D01*
X149725714Y-61412380D01*
X150630476Y-61412380D02*
X150630476Y-60888571D01*
X150582857Y-60793333D01*
X150487619Y-60745714D01*
X150297142Y-60745714D01*
X150201904Y-60793333D01*
X150630476Y-61364761D02*
X150535238Y-61412380D01*
X150297142Y-61412380D01*
X150201904Y-61364761D01*
X150154285Y-61269523D01*
X150154285Y-61174285D01*
X150201904Y-61079047D01*
X150297142Y-61031428D01*
X150535238Y-61031428D01*
X150630476Y-60983809D01*
X151249523Y-61412380D02*
X151154285Y-61364761D01*
X151106666Y-61269523D01*
X151106666Y-60412380D01*
X152011428Y-61364761D02*
X151916190Y-61412380D01*
X151725714Y-61412380D01*
X151630476Y-61364761D01*
X151582857Y-61269523D01*
X151582857Y-60888571D01*
X151630476Y-60793333D01*
X151725714Y-60745714D01*
X151916190Y-60745714D01*
X152011428Y-60793333D01*
X152059047Y-60888571D01*
X152059047Y-60983809D01*
X151582857Y-61079047D01*
X152249523Y-61507619D02*
X153011428Y-61507619D01*
X153820952Y-61317142D02*
X153773333Y-61364761D01*
X153630476Y-61412380D01*
X153535238Y-61412380D01*
X153392380Y-61364761D01*
X153297142Y-61269523D01*
X153249523Y-61174285D01*
X153201904Y-60983809D01*
X153201904Y-60840952D01*
X153249523Y-60650476D01*
X153297142Y-60555238D01*
X153392380Y-60460000D01*
X153535238Y-60412380D01*
X153630476Y-60412380D01*
X153773333Y-60460000D01*
X153820952Y-60507619D01*
X154392380Y-61412380D02*
X154297142Y-61364761D01*
X154249523Y-61317142D01*
X154201904Y-61221904D01*
X154201904Y-60936190D01*
X154249523Y-60840952D01*
X154297142Y-60793333D01*
X154392380Y-60745714D01*
X154535238Y-60745714D01*
X154630476Y-60793333D01*
X154678095Y-60840952D01*
X154725714Y-60936190D01*
X154725714Y-61221904D01*
X154678095Y-61317142D01*
X154630476Y-61364761D01*
X154535238Y-61412380D01*
X154392380Y-61412380D01*
X155154285Y-60745714D02*
X155154285Y-61412380D01*
X155154285Y-60840952D02*
X155201904Y-60793333D01*
X155297142Y-60745714D01*
X155440000Y-60745714D01*
X155535238Y-60793333D01*
X155582857Y-60888571D01*
X155582857Y-61412380D01*
X156059047Y-60745714D02*
X156059047Y-61412380D01*
X156059047Y-60840952D02*
X156106666Y-60793333D01*
X156201904Y-60745714D01*
X156344761Y-60745714D01*
X156440000Y-60793333D01*
X156487619Y-60888571D01*
X156487619Y-61412380D01*
X156725714Y-61507619D02*
X157487619Y-61507619D01*
X157916190Y-60412380D02*
X158011428Y-60412380D01*
X158106666Y-60460000D01*
X158154285Y-60507619D01*
X158201904Y-60602857D01*
X158249523Y-60793333D01*
X158249523Y-61031428D01*
X158201904Y-61221904D01*
X158154285Y-61317142D01*
X158106666Y-61364761D01*
X158011428Y-61412380D01*
X157916190Y-61412380D01*
X157820952Y-61364761D01*
X157773333Y-61317142D01*
X157725714Y-61221904D01*
X157678095Y-61031428D01*
X157678095Y-60793333D01*
X157725714Y-60602857D01*
X157773333Y-60507619D01*
X157820952Y-60460000D01*
X157916190Y-60412380D01*
X159201904Y-61412380D02*
X158630476Y-61412380D01*
X158916190Y-61412380D02*
X158916190Y-60412380D01*
X158820952Y-60555238D01*
X158725714Y-60650476D01*
X158630476Y-60698095D01*
X159535238Y-61412380D02*
X160059047Y-60745714D01*
X159535238Y-60745714D02*
X160059047Y-61412380D01*
X160630476Y-60412380D02*
X160725714Y-60412380D01*
X160820952Y-60460000D01*
X160868571Y-60507619D01*
X160916190Y-60602857D01*
X160963809Y-60793333D01*
X160963809Y-61031428D01*
X160916190Y-61221904D01*
X160868571Y-61317142D01*
X160820952Y-61364761D01*
X160725714Y-61412380D01*
X160630476Y-61412380D01*
X160535238Y-61364761D01*
X160487619Y-61317142D01*
X160440000Y-61221904D01*
X160392380Y-61031428D01*
X160392380Y-60793333D01*
X160440000Y-60602857D01*
X160487619Y-60507619D01*
X160535238Y-60460000D01*
X160630476Y-60412380D01*
X161344761Y-60507619D02*
X161392380Y-60460000D01*
X161487619Y-60412380D01*
X161725714Y-60412380D01*
X161820952Y-60460000D01*
X161868571Y-60507619D01*
X161916190Y-60602857D01*
X161916190Y-60698095D01*
X161868571Y-60840952D01*
X161297142Y-61412380D01*
X161916190Y-61412380D01*
X162106666Y-61507619D02*
X162868571Y-61507619D01*
X163439999Y-60888571D02*
X163106666Y-60888571D01*
X163106666Y-61412380D02*
X163106666Y-60412380D01*
X163582857Y-60412380D01*
X164344761Y-61364761D02*
X164249523Y-61412380D01*
X164059047Y-61412380D01*
X163963809Y-61364761D01*
X163916190Y-61269523D01*
X163916190Y-60888571D01*
X163963809Y-60793333D01*
X164059047Y-60745714D01*
X164249523Y-60745714D01*
X164344761Y-60793333D01*
X164392380Y-60888571D01*
X164392380Y-60983809D01*
X163916190Y-61079047D01*
X164820952Y-61412380D02*
X164820952Y-60745714D01*
X164820952Y-60840952D02*
X164868571Y-60793333D01*
X164963809Y-60745714D01*
X165106666Y-60745714D01*
X165201904Y-60793333D01*
X165249523Y-60888571D01*
X165249523Y-61412380D01*
X165249523Y-60888571D02*
X165297142Y-60793333D01*
X165392380Y-60745714D01*
X165535238Y-60745714D01*
X165630476Y-60793333D01*
X165678095Y-60888571D01*
X165678095Y-61412380D01*
X166582857Y-61412380D02*
X166582857Y-60888571D01*
X166535238Y-60793333D01*
X166439999Y-60745714D01*
X166249523Y-60745714D01*
X166154285Y-60793333D01*
X166582857Y-61364761D02*
X166487619Y-61412380D01*
X166249523Y-61412380D01*
X166154285Y-61364761D01*
X166106666Y-61269523D01*
X166106666Y-61174285D01*
X166154285Y-61079047D01*
X166249523Y-61031428D01*
X166487619Y-61031428D01*
X166582857Y-60983809D01*
X167201904Y-61412380D02*
X167106666Y-61364761D01*
X167059047Y-61269523D01*
X167059047Y-60412380D01*
X167963809Y-61364761D02*
X167868571Y-61412380D01*
X167678095Y-61412380D01*
X167582857Y-61364761D01*
X167535238Y-61269523D01*
X167535238Y-60888571D01*
X167582857Y-60793333D01*
X167678095Y-60745714D01*
X167868571Y-60745714D01*
X167963809Y-60793333D01*
X168011428Y-60888571D01*
X168011428Y-60983809D01*
X167535238Y-61079047D01*
%TO.C,J4*%
X153346190Y-83002380D02*
X153346190Y-82002380D01*
X153584285Y-82002380D01*
X153727142Y-82050000D01*
X153822380Y-82145238D01*
X153870000Y-82240476D01*
X153917619Y-82430952D01*
X153917619Y-82573809D01*
X153870000Y-82764285D01*
X153822380Y-82859523D01*
X153727142Y-82954761D01*
X153584285Y-83002380D01*
X153346190Y-83002380D01*
X154727142Y-82954761D02*
X154631904Y-83002380D01*
X154441428Y-83002380D01*
X154346190Y-82954761D01*
X154298571Y-82859523D01*
X154298571Y-82478571D01*
X154346190Y-82383333D01*
X154441428Y-82335714D01*
X154631904Y-82335714D01*
X154727142Y-82383333D01*
X154774761Y-82478571D01*
X154774761Y-82573809D01*
X154298571Y-82669047D01*
X155631904Y-83002380D02*
X155631904Y-82478571D01*
X155584285Y-82383333D01*
X155489047Y-82335714D01*
X155298571Y-82335714D01*
X155203333Y-82383333D01*
X155631904Y-82954761D02*
X155536666Y-83002380D01*
X155298571Y-83002380D01*
X155203333Y-82954761D01*
X155155714Y-82859523D01*
X155155714Y-82764285D01*
X155203333Y-82669047D01*
X155298571Y-82621428D01*
X155536666Y-82621428D01*
X155631904Y-82573809D01*
X156108095Y-82335714D02*
X156108095Y-83002380D01*
X156108095Y-82430952D02*
X156155714Y-82383333D01*
X156250952Y-82335714D01*
X156393809Y-82335714D01*
X156489047Y-82383333D01*
X156536666Y-82478571D01*
X156536666Y-83002380D01*
X156965238Y-82954761D02*
X157060476Y-83002380D01*
X157250952Y-83002380D01*
X157346190Y-82954761D01*
X157393809Y-82859523D01*
X157393809Y-82811904D01*
X157346190Y-82716666D01*
X157250952Y-82669047D01*
X157108095Y-82669047D01*
X157012857Y-82621428D01*
X156965238Y-82526190D01*
X156965238Y-82478571D01*
X157012857Y-82383333D01*
X157108095Y-82335714D01*
X157250952Y-82335714D01*
X157346190Y-82383333D01*
X157584285Y-83097619D02*
X158346190Y-83097619D01*
X158917619Y-82478571D02*
X158584285Y-82478571D01*
X158584285Y-83002380D02*
X158584285Y-82002380D01*
X159060476Y-82002380D01*
X159822380Y-82954761D02*
X159727142Y-83002380D01*
X159536666Y-83002380D01*
X159441428Y-82954761D01*
X159393809Y-82859523D01*
X159393809Y-82478571D01*
X159441428Y-82383333D01*
X159536666Y-82335714D01*
X159727142Y-82335714D01*
X159822380Y-82383333D01*
X159870000Y-82478571D01*
X159870000Y-82573809D01*
X159393809Y-82669047D01*
X160298571Y-83002380D02*
X160298571Y-82335714D01*
X160298571Y-82430952D02*
X160346190Y-82383333D01*
X160441428Y-82335714D01*
X160584285Y-82335714D01*
X160679523Y-82383333D01*
X160727142Y-82478571D01*
X160727142Y-83002380D01*
X160727142Y-82478571D02*
X160774761Y-82383333D01*
X160870000Y-82335714D01*
X161012857Y-82335714D01*
X161108095Y-82383333D01*
X161155714Y-82478571D01*
X161155714Y-83002380D01*
X162060476Y-83002380D02*
X162060476Y-82478571D01*
X162012857Y-82383333D01*
X161917619Y-82335714D01*
X161727142Y-82335714D01*
X161631904Y-82383333D01*
X162060476Y-82954761D02*
X161965238Y-83002380D01*
X161727142Y-83002380D01*
X161631904Y-82954761D01*
X161584285Y-82859523D01*
X161584285Y-82764285D01*
X161631904Y-82669047D01*
X161727142Y-82621428D01*
X161965238Y-82621428D01*
X162060476Y-82573809D01*
X162679523Y-83002380D02*
X162584285Y-82954761D01*
X162536666Y-82859523D01*
X162536666Y-82002380D01*
X163441428Y-82954761D02*
X163346190Y-83002380D01*
X163155714Y-83002380D01*
X163060476Y-82954761D01*
X163012857Y-82859523D01*
X163012857Y-82478571D01*
X163060476Y-82383333D01*
X163155714Y-82335714D01*
X163346190Y-82335714D01*
X163441428Y-82383333D01*
X163489047Y-82478571D01*
X163489047Y-82573809D01*
X163012857Y-82669047D01*
X163679523Y-83097619D02*
X164441428Y-83097619D01*
X165250952Y-82907142D02*
X165203333Y-82954761D01*
X165060476Y-83002380D01*
X164965238Y-83002380D01*
X164822380Y-82954761D01*
X164727142Y-82859523D01*
X164679523Y-82764285D01*
X164631904Y-82573809D01*
X164631904Y-82430952D01*
X164679523Y-82240476D01*
X164727142Y-82145238D01*
X164822380Y-82050000D01*
X164965238Y-82002380D01*
X165060476Y-82002380D01*
X165203333Y-82050000D01*
X165250952Y-82097619D01*
X165822380Y-83002380D02*
X165727142Y-82954761D01*
X165679523Y-82907142D01*
X165631904Y-82811904D01*
X165631904Y-82526190D01*
X165679523Y-82430952D01*
X165727142Y-82383333D01*
X165822380Y-82335714D01*
X165965238Y-82335714D01*
X166060476Y-82383333D01*
X166108095Y-82430952D01*
X166155714Y-82526190D01*
X166155714Y-82811904D01*
X166108095Y-82907142D01*
X166060476Y-82954761D01*
X165965238Y-83002380D01*
X165822380Y-83002380D01*
X166584285Y-82335714D02*
X166584285Y-83002380D01*
X166584285Y-82430952D02*
X166631904Y-82383333D01*
X166727142Y-82335714D01*
X166870000Y-82335714D01*
X166965238Y-82383333D01*
X167012857Y-82478571D01*
X167012857Y-83002380D01*
X167489047Y-82335714D02*
X167489047Y-83002380D01*
X167489047Y-82430952D02*
X167536666Y-82383333D01*
X167631904Y-82335714D01*
X167774761Y-82335714D01*
X167870000Y-82383333D01*
X167917619Y-82478571D01*
X167917619Y-83002380D01*
X168155714Y-83097619D02*
X168917619Y-83097619D01*
X169346190Y-82002380D02*
X169441428Y-82002380D01*
X169536666Y-82050000D01*
X169584285Y-82097619D01*
X169631904Y-82192857D01*
X169679523Y-82383333D01*
X169679523Y-82621428D01*
X169631904Y-82811904D01*
X169584285Y-82907142D01*
X169536666Y-82954761D01*
X169441428Y-83002380D01*
X169346190Y-83002380D01*
X169250952Y-82954761D01*
X169203333Y-82907142D01*
X169155714Y-82811904D01*
X169108095Y-82621428D01*
X169108095Y-82383333D01*
X169155714Y-82192857D01*
X169203333Y-82097619D01*
X169250952Y-82050000D01*
X169346190Y-82002380D01*
X170631904Y-83002380D02*
X170060476Y-83002380D01*
X170346190Y-83002380D02*
X170346190Y-82002380D01*
X170250952Y-82145238D01*
X170155714Y-82240476D01*
X170060476Y-82288095D01*
X170965238Y-83002380D02*
X171489047Y-82335714D01*
X170965238Y-82335714D02*
X171489047Y-83002380D01*
X172060476Y-82002380D02*
X172155714Y-82002380D01*
X172250952Y-82050000D01*
X172298571Y-82097619D01*
X172346190Y-82192857D01*
X172393809Y-82383333D01*
X172393809Y-82621428D01*
X172346190Y-82811904D01*
X172298571Y-82907142D01*
X172250952Y-82954761D01*
X172155714Y-83002380D01*
X172060476Y-83002380D01*
X171965238Y-82954761D01*
X171917619Y-82907142D01*
X171870000Y-82811904D01*
X171822380Y-82621428D01*
X171822380Y-82383333D01*
X171870000Y-82192857D01*
X171917619Y-82097619D01*
X171965238Y-82050000D01*
X172060476Y-82002380D01*
X172774761Y-82097619D02*
X172822380Y-82050000D01*
X172917619Y-82002380D01*
X173155714Y-82002380D01*
X173250952Y-82050000D01*
X173298571Y-82097619D01*
X173346190Y-82192857D01*
X173346190Y-82288095D01*
X173298571Y-82430952D01*
X172727142Y-83002380D01*
X173346190Y-83002380D01*
X173536666Y-83097619D02*
X174298571Y-83097619D01*
X174869999Y-82478571D02*
X174536666Y-82478571D01*
X174536666Y-83002380D02*
X174536666Y-82002380D01*
X175012857Y-82002380D01*
X175774761Y-82954761D02*
X175679523Y-83002380D01*
X175489047Y-83002380D01*
X175393809Y-82954761D01*
X175346190Y-82859523D01*
X175346190Y-82478571D01*
X175393809Y-82383333D01*
X175489047Y-82335714D01*
X175679523Y-82335714D01*
X175774761Y-82383333D01*
X175822380Y-82478571D01*
X175822380Y-82573809D01*
X175346190Y-82669047D01*
X176250952Y-83002380D02*
X176250952Y-82335714D01*
X176250952Y-82430952D02*
X176298571Y-82383333D01*
X176393809Y-82335714D01*
X176536666Y-82335714D01*
X176631904Y-82383333D01*
X176679523Y-82478571D01*
X176679523Y-83002380D01*
X176679523Y-82478571D02*
X176727142Y-82383333D01*
X176822380Y-82335714D01*
X176965238Y-82335714D01*
X177060476Y-82383333D01*
X177108095Y-82478571D01*
X177108095Y-83002380D01*
X178012857Y-83002380D02*
X178012857Y-82478571D01*
X177965238Y-82383333D01*
X177869999Y-82335714D01*
X177679523Y-82335714D01*
X177584285Y-82383333D01*
X178012857Y-82954761D02*
X177917619Y-83002380D01*
X177679523Y-83002380D01*
X177584285Y-82954761D01*
X177536666Y-82859523D01*
X177536666Y-82764285D01*
X177584285Y-82669047D01*
X177679523Y-82621428D01*
X177917619Y-82621428D01*
X178012857Y-82573809D01*
X178631904Y-83002380D02*
X178536666Y-82954761D01*
X178489047Y-82859523D01*
X178489047Y-82002380D01*
X179393809Y-82954761D02*
X179298571Y-83002380D01*
X179108095Y-83002380D01*
X179012857Y-82954761D01*
X178965238Y-82859523D01*
X178965238Y-82478571D01*
X179012857Y-82383333D01*
X179108095Y-82335714D01*
X179298571Y-82335714D01*
X179393809Y-82383333D01*
X179441428Y-82478571D01*
X179441428Y-82573809D01*
X178965238Y-82669047D01*
%TO.C,J3*%
X128202380Y-73471428D02*
X128916666Y-73471428D01*
X129059523Y-73519047D01*
X129154761Y-73614285D01*
X129202380Y-73757142D01*
X129202380Y-73852380D01*
X129154761Y-73042857D02*
X129202380Y-72900000D01*
X129202380Y-72661904D01*
X129154761Y-72566666D01*
X129107142Y-72519047D01*
X129011904Y-72471428D01*
X128916666Y-72471428D01*
X128821428Y-72519047D01*
X128773809Y-72566666D01*
X128726190Y-72661904D01*
X128678571Y-72852380D01*
X128630952Y-72947619D01*
X128583333Y-72995238D01*
X128488095Y-73042857D01*
X128392857Y-73042857D01*
X128297619Y-72995238D01*
X128250000Y-72947619D01*
X128202380Y-72852380D01*
X128202380Y-72614285D01*
X128250000Y-72471428D01*
X128202380Y-72185714D02*
X128202380Y-71614285D01*
X129202380Y-71900000D02*
X128202380Y-71900000D01*
X129297619Y-71519047D02*
X129297619Y-70757142D01*
X128202380Y-70614285D02*
X129202380Y-69947619D01*
X128202380Y-69947619D02*
X129202380Y-70614285D01*
X129202380Y-69566666D02*
X128202380Y-69566666D01*
X128678571Y-69566666D02*
X128678571Y-68995238D01*
X129202380Y-68995238D02*
X128202380Y-68995238D01*
X129297619Y-68757142D02*
X129297619Y-67995238D01*
X129107142Y-67185714D02*
X129154761Y-67233333D01*
X129202380Y-67376190D01*
X129202380Y-67471428D01*
X129154761Y-67614285D01*
X129059523Y-67709523D01*
X128964285Y-67757142D01*
X128773809Y-67804761D01*
X128630952Y-67804761D01*
X128440476Y-67757142D01*
X128345238Y-67709523D01*
X128250000Y-67614285D01*
X128202380Y-67471428D01*
X128202380Y-67376190D01*
X128250000Y-67233333D01*
X128297619Y-67185714D01*
X129202380Y-66614285D02*
X129154761Y-66709523D01*
X129107142Y-66757142D01*
X129011904Y-66804761D01*
X128726190Y-66804761D01*
X128630952Y-66757142D01*
X128583333Y-66709523D01*
X128535714Y-66614285D01*
X128535714Y-66471428D01*
X128583333Y-66376190D01*
X128630952Y-66328571D01*
X128726190Y-66280952D01*
X129011904Y-66280952D01*
X129107142Y-66328571D01*
X129154761Y-66376190D01*
X129202380Y-66471428D01*
X129202380Y-66614285D01*
X128535714Y-65852380D02*
X129202380Y-65852380D01*
X128630952Y-65852380D02*
X128583333Y-65804761D01*
X128535714Y-65709523D01*
X128535714Y-65566666D01*
X128583333Y-65471428D01*
X128678571Y-65423809D01*
X129202380Y-65423809D01*
X128535714Y-64947619D02*
X129202380Y-64947619D01*
X128630952Y-64947619D02*
X128583333Y-64900000D01*
X128535714Y-64804761D01*
X128535714Y-64661904D01*
X128583333Y-64566666D01*
X128678571Y-64519047D01*
X129202380Y-64519047D01*
X129297619Y-64280952D02*
X129297619Y-63519047D01*
X128202380Y-63090476D02*
X128202380Y-62995238D01*
X128250000Y-62900000D01*
X128297619Y-62852380D01*
X128392857Y-62804761D01*
X128583333Y-62757142D01*
X128821428Y-62757142D01*
X129011904Y-62804761D01*
X129107142Y-62852380D01*
X129154761Y-62900000D01*
X129202380Y-62995238D01*
X129202380Y-63090476D01*
X129154761Y-63185714D01*
X129107142Y-63233333D01*
X129011904Y-63280952D01*
X128821428Y-63328571D01*
X128583333Y-63328571D01*
X128392857Y-63280952D01*
X128297619Y-63233333D01*
X128250000Y-63185714D01*
X128202380Y-63090476D01*
X129202380Y-61804761D02*
X129202380Y-62376190D01*
X129202380Y-62090476D02*
X128202380Y-62090476D01*
X128345238Y-62185714D01*
X128440476Y-62280952D01*
X128488095Y-62376190D01*
X129202380Y-61471428D02*
X128535714Y-60947619D01*
X128535714Y-61471428D02*
X129202380Y-60947619D01*
X128202380Y-60376190D02*
X128202380Y-60280952D01*
X128250000Y-60185714D01*
X128297619Y-60138095D01*
X128392857Y-60090476D01*
X128583333Y-60042857D01*
X128821428Y-60042857D01*
X129011904Y-60090476D01*
X129107142Y-60138095D01*
X129154761Y-60185714D01*
X129202380Y-60280952D01*
X129202380Y-60376190D01*
X129154761Y-60471428D01*
X129107142Y-60519047D01*
X129011904Y-60566666D01*
X128821428Y-60614285D01*
X128583333Y-60614285D01*
X128392857Y-60566666D01*
X128297619Y-60519047D01*
X128250000Y-60471428D01*
X128202380Y-60376190D01*
X128202380Y-59185714D02*
X128202380Y-59376190D01*
X128250000Y-59471428D01*
X128297619Y-59519047D01*
X128440476Y-59614285D01*
X128630952Y-59661904D01*
X129011904Y-59661904D01*
X129107142Y-59614285D01*
X129154761Y-59566666D01*
X129202380Y-59471428D01*
X129202380Y-59280952D01*
X129154761Y-59185714D01*
X129107142Y-59138095D01*
X129011904Y-59090476D01*
X128773809Y-59090476D01*
X128678571Y-59138095D01*
X128630952Y-59185714D01*
X128583333Y-59280952D01*
X128583333Y-59471428D01*
X128630952Y-59566666D01*
X128678571Y-59614285D01*
X128773809Y-59661904D01*
X129297619Y-58900000D02*
X129297619Y-58138095D01*
X128678571Y-57566666D02*
X128678571Y-57900000D01*
X129202380Y-57900000D02*
X128202380Y-57900000D01*
X128202380Y-57423809D01*
X129154761Y-56661904D02*
X129202380Y-56757142D01*
X129202380Y-56947619D01*
X129154761Y-57042857D01*
X129059523Y-57090476D01*
X128678571Y-57090476D01*
X128583333Y-57042857D01*
X128535714Y-56947619D01*
X128535714Y-56757142D01*
X128583333Y-56661904D01*
X128678571Y-56614285D01*
X128773809Y-56614285D01*
X128869047Y-57090476D01*
X129202380Y-56185714D02*
X128535714Y-56185714D01*
X128630952Y-56185714D02*
X128583333Y-56138095D01*
X128535714Y-56042857D01*
X128535714Y-55900000D01*
X128583333Y-55804761D01*
X128678571Y-55757142D01*
X129202380Y-55757142D01*
X128678571Y-55757142D02*
X128583333Y-55709523D01*
X128535714Y-55614285D01*
X128535714Y-55471428D01*
X128583333Y-55376190D01*
X128678571Y-55328571D01*
X129202380Y-55328571D01*
X129202380Y-54423809D02*
X128678571Y-54423809D01*
X128583333Y-54471428D01*
X128535714Y-54566666D01*
X128535714Y-54757142D01*
X128583333Y-54852380D01*
X129154761Y-54423809D02*
X129202380Y-54519047D01*
X129202380Y-54757142D01*
X129154761Y-54852380D01*
X129059523Y-54900000D01*
X128964285Y-54900000D01*
X128869047Y-54852380D01*
X128821428Y-54757142D01*
X128821428Y-54519047D01*
X128773809Y-54423809D01*
X129202380Y-53804761D02*
X129154761Y-53900000D01*
X129059523Y-53947619D01*
X128202380Y-53947619D01*
X129154761Y-53042857D02*
X129202380Y-53138095D01*
X129202380Y-53328571D01*
X129154761Y-53423809D01*
X129059523Y-53471428D01*
X128678571Y-53471428D01*
X128583333Y-53423809D01*
X128535714Y-53328571D01*
X128535714Y-53138095D01*
X128583333Y-53042857D01*
X128678571Y-52995238D01*
X128773809Y-52995238D01*
X128869047Y-53471428D01*
X130102380Y-63733333D02*
X130816666Y-63733333D01*
X130959523Y-63780952D01*
X131054761Y-63876190D01*
X131102380Y-64019047D01*
X131102380Y-64114285D01*
X130102380Y-63352380D02*
X130102380Y-62733333D01*
X130483333Y-63066666D01*
X130483333Y-62923809D01*
X130530952Y-62828571D01*
X130578571Y-62780952D01*
X130673809Y-62733333D01*
X130911904Y-62733333D01*
X131007142Y-62780952D01*
X131054761Y-62828571D01*
X131102380Y-62923809D01*
X131102380Y-63209523D01*
X131054761Y-63304761D01*
X131007142Y-63352380D01*
%TO.C,J2*%
X72700952Y-83637380D02*
X72700952Y-82637380D01*
X72939047Y-82637380D01*
X73081904Y-82685000D01*
X73177142Y-82780238D01*
X73224761Y-82875476D01*
X73272380Y-83065952D01*
X73272380Y-83208809D01*
X73224761Y-83399285D01*
X73177142Y-83494523D01*
X73081904Y-83589761D01*
X72939047Y-83637380D01*
X72700952Y-83637380D01*
X74081904Y-83589761D02*
X73986666Y-83637380D01*
X73796190Y-83637380D01*
X73700952Y-83589761D01*
X73653333Y-83494523D01*
X73653333Y-83113571D01*
X73700952Y-83018333D01*
X73796190Y-82970714D01*
X73986666Y-82970714D01*
X74081904Y-83018333D01*
X74129523Y-83113571D01*
X74129523Y-83208809D01*
X73653333Y-83304047D01*
X74986666Y-83637380D02*
X74986666Y-83113571D01*
X74939047Y-83018333D01*
X74843809Y-82970714D01*
X74653333Y-82970714D01*
X74558095Y-83018333D01*
X74986666Y-83589761D02*
X74891428Y-83637380D01*
X74653333Y-83637380D01*
X74558095Y-83589761D01*
X74510476Y-83494523D01*
X74510476Y-83399285D01*
X74558095Y-83304047D01*
X74653333Y-83256428D01*
X74891428Y-83256428D01*
X74986666Y-83208809D01*
X75462857Y-82970714D02*
X75462857Y-83637380D01*
X75462857Y-83065952D02*
X75510476Y-83018333D01*
X75605714Y-82970714D01*
X75748571Y-82970714D01*
X75843809Y-83018333D01*
X75891428Y-83113571D01*
X75891428Y-83637380D01*
X76319999Y-83589761D02*
X76415238Y-83637380D01*
X76605714Y-83637380D01*
X76700952Y-83589761D01*
X76748571Y-83494523D01*
X76748571Y-83446904D01*
X76700952Y-83351666D01*
X76605714Y-83304047D01*
X76462857Y-83304047D01*
X76367619Y-83256428D01*
X76319999Y-83161190D01*
X76319999Y-83113571D01*
X76367619Y-83018333D01*
X76462857Y-82970714D01*
X76605714Y-82970714D01*
X76700952Y-83018333D01*
X76939047Y-83732619D02*
X77700952Y-83732619D01*
X77939047Y-83637380D02*
X77939047Y-82637380D01*
X78272380Y-83351666D01*
X78605714Y-82637380D01*
X78605714Y-83637380D01*
X79510476Y-83637380D02*
X79510476Y-83113571D01*
X79462857Y-83018333D01*
X79367619Y-82970714D01*
X79177142Y-82970714D01*
X79081904Y-83018333D01*
X79510476Y-83589761D02*
X79415238Y-83637380D01*
X79177142Y-83637380D01*
X79081904Y-83589761D01*
X79034285Y-83494523D01*
X79034285Y-83399285D01*
X79081904Y-83304047D01*
X79177142Y-83256428D01*
X79415238Y-83256428D01*
X79510476Y-83208809D01*
X80129523Y-83637380D02*
X80034285Y-83589761D01*
X79986666Y-83494523D01*
X79986666Y-82637380D01*
X80891428Y-83589761D02*
X80796190Y-83637380D01*
X80605714Y-83637380D01*
X80510476Y-83589761D01*
X80462857Y-83494523D01*
X80462857Y-83113571D01*
X80510476Y-83018333D01*
X80605714Y-82970714D01*
X80796190Y-82970714D01*
X80891428Y-83018333D01*
X80939047Y-83113571D01*
X80939047Y-83208809D01*
X80462857Y-83304047D01*
X81129523Y-83732619D02*
X81891428Y-83732619D01*
X82700952Y-83542142D02*
X82653333Y-83589761D01*
X82510476Y-83637380D01*
X82415238Y-83637380D01*
X82272380Y-83589761D01*
X82177142Y-83494523D01*
X82129523Y-83399285D01*
X82081904Y-83208809D01*
X82081904Y-83065952D01*
X82129523Y-82875476D01*
X82177142Y-82780238D01*
X82272380Y-82685000D01*
X82415238Y-82637380D01*
X82510476Y-82637380D01*
X82653333Y-82685000D01*
X82700952Y-82732619D01*
X83272380Y-83637380D02*
X83177142Y-83589761D01*
X83129523Y-83542142D01*
X83081904Y-83446904D01*
X83081904Y-83161190D01*
X83129523Y-83065952D01*
X83177142Y-83018333D01*
X83272380Y-82970714D01*
X83415238Y-82970714D01*
X83510476Y-83018333D01*
X83558095Y-83065952D01*
X83605714Y-83161190D01*
X83605714Y-83446904D01*
X83558095Y-83542142D01*
X83510476Y-83589761D01*
X83415238Y-83637380D01*
X83272380Y-83637380D01*
X84034285Y-82970714D02*
X84034285Y-83637380D01*
X84034285Y-83065952D02*
X84081904Y-83018333D01*
X84177142Y-82970714D01*
X84319999Y-82970714D01*
X84415238Y-83018333D01*
X84462857Y-83113571D01*
X84462857Y-83637380D01*
X84939047Y-82970714D02*
X84939047Y-83637380D01*
X84939047Y-83065952D02*
X84986666Y-83018333D01*
X85081904Y-82970714D01*
X85224761Y-82970714D01*
X85319999Y-83018333D01*
X85367619Y-83113571D01*
X85367619Y-83637380D01*
X85605714Y-83732619D02*
X86367619Y-83732619D01*
X86796190Y-82637380D02*
X86891428Y-82637380D01*
X86986666Y-82685000D01*
X87034285Y-82732619D01*
X87081904Y-82827857D01*
X87129523Y-83018333D01*
X87129523Y-83256428D01*
X87081904Y-83446904D01*
X87034285Y-83542142D01*
X86986666Y-83589761D01*
X86891428Y-83637380D01*
X86796190Y-83637380D01*
X86700952Y-83589761D01*
X86653333Y-83542142D01*
X86605714Y-83446904D01*
X86558095Y-83256428D01*
X86558095Y-83018333D01*
X86605714Y-82827857D01*
X86653333Y-82732619D01*
X86700952Y-82685000D01*
X86796190Y-82637380D01*
X88081904Y-83637380D02*
X87510476Y-83637380D01*
X87796190Y-83637380D02*
X87796190Y-82637380D01*
X87700952Y-82780238D01*
X87605714Y-82875476D01*
X87510476Y-82923095D01*
X88415238Y-83637380D02*
X88939047Y-82970714D01*
X88415238Y-82970714D02*
X88939047Y-83637380D01*
X89510476Y-82637380D02*
X89605714Y-82637380D01*
X89700952Y-82685000D01*
X89748571Y-82732619D01*
X89796190Y-82827857D01*
X89843809Y-83018333D01*
X89843809Y-83256428D01*
X89796190Y-83446904D01*
X89748571Y-83542142D01*
X89700952Y-83589761D01*
X89605714Y-83637380D01*
X89510476Y-83637380D01*
X89415238Y-83589761D01*
X89367619Y-83542142D01*
X89319999Y-83446904D01*
X89272380Y-83256428D01*
X89272380Y-83018333D01*
X89319999Y-82827857D01*
X89367619Y-82732619D01*
X89415238Y-82685000D01*
X89510476Y-82637380D01*
X90224761Y-82732619D02*
X90272380Y-82685000D01*
X90367619Y-82637380D01*
X90605714Y-82637380D01*
X90700952Y-82685000D01*
X90748571Y-82732619D01*
X90796190Y-82827857D01*
X90796190Y-82923095D01*
X90748571Y-83065952D01*
X90177142Y-83637380D01*
X90796190Y-83637380D01*
X90986666Y-83732619D02*
X91748571Y-83732619D01*
X91986666Y-83637380D02*
X91986666Y-82637380D01*
X92319999Y-83351666D01*
X92653333Y-82637380D01*
X92653333Y-83637380D01*
X93558095Y-83637380D02*
X93558095Y-83113571D01*
X93510476Y-83018333D01*
X93415238Y-82970714D01*
X93224761Y-82970714D01*
X93129523Y-83018333D01*
X93558095Y-83589761D02*
X93462857Y-83637380D01*
X93224761Y-83637380D01*
X93129523Y-83589761D01*
X93081904Y-83494523D01*
X93081904Y-83399285D01*
X93129523Y-83304047D01*
X93224761Y-83256428D01*
X93462857Y-83256428D01*
X93558095Y-83208809D01*
X94177142Y-83637380D02*
X94081904Y-83589761D01*
X94034285Y-83494523D01*
X94034285Y-82637380D01*
X94939047Y-83589761D02*
X94843809Y-83637380D01*
X94653333Y-83637380D01*
X94558095Y-83589761D01*
X94510476Y-83494523D01*
X94510476Y-83113571D01*
X94558095Y-83018333D01*
X94653333Y-82970714D01*
X94843809Y-82970714D01*
X94939047Y-83018333D01*
X94986666Y-83113571D01*
X94986666Y-83208809D01*
X94510476Y-83304047D01*
%TO.C,J1*%
X71430952Y-44267380D02*
X71430952Y-43267380D01*
X71669047Y-43267380D01*
X71811904Y-43315000D01*
X71907142Y-43410238D01*
X71954761Y-43505476D01*
X72002380Y-43695952D01*
X72002380Y-43838809D01*
X71954761Y-44029285D01*
X71907142Y-44124523D01*
X71811904Y-44219761D01*
X71669047Y-44267380D01*
X71430952Y-44267380D01*
X72811904Y-44219761D02*
X72716666Y-44267380D01*
X72526190Y-44267380D01*
X72430952Y-44219761D01*
X72383333Y-44124523D01*
X72383333Y-43743571D01*
X72430952Y-43648333D01*
X72526190Y-43600714D01*
X72716666Y-43600714D01*
X72811904Y-43648333D01*
X72859523Y-43743571D01*
X72859523Y-43838809D01*
X72383333Y-43934047D01*
X73716666Y-44267380D02*
X73716666Y-43743571D01*
X73669047Y-43648333D01*
X73573809Y-43600714D01*
X73383333Y-43600714D01*
X73288095Y-43648333D01*
X73716666Y-44219761D02*
X73621428Y-44267380D01*
X73383333Y-44267380D01*
X73288095Y-44219761D01*
X73240476Y-44124523D01*
X73240476Y-44029285D01*
X73288095Y-43934047D01*
X73383333Y-43886428D01*
X73621428Y-43886428D01*
X73716666Y-43838809D01*
X74192857Y-43600714D02*
X74192857Y-44267380D01*
X74192857Y-43695952D02*
X74240476Y-43648333D01*
X74335714Y-43600714D01*
X74478571Y-43600714D01*
X74573809Y-43648333D01*
X74621428Y-43743571D01*
X74621428Y-44267380D01*
X75049999Y-44219761D02*
X75145238Y-44267380D01*
X75335714Y-44267380D01*
X75430952Y-44219761D01*
X75478571Y-44124523D01*
X75478571Y-44076904D01*
X75430952Y-43981666D01*
X75335714Y-43934047D01*
X75192857Y-43934047D01*
X75097619Y-43886428D01*
X75049999Y-43791190D01*
X75049999Y-43743571D01*
X75097619Y-43648333D01*
X75192857Y-43600714D01*
X75335714Y-43600714D01*
X75430952Y-43648333D01*
X75669047Y-44362619D02*
X76430952Y-44362619D01*
X76669047Y-44267380D02*
X76669047Y-43267380D01*
X77002380Y-43981666D01*
X77335714Y-43267380D01*
X77335714Y-44267380D01*
X78240476Y-44267380D02*
X78240476Y-43743571D01*
X78192857Y-43648333D01*
X78097619Y-43600714D01*
X77907142Y-43600714D01*
X77811904Y-43648333D01*
X78240476Y-44219761D02*
X78145238Y-44267380D01*
X77907142Y-44267380D01*
X77811904Y-44219761D01*
X77764285Y-44124523D01*
X77764285Y-44029285D01*
X77811904Y-43934047D01*
X77907142Y-43886428D01*
X78145238Y-43886428D01*
X78240476Y-43838809D01*
X78859523Y-44267380D02*
X78764285Y-44219761D01*
X78716666Y-44124523D01*
X78716666Y-43267380D01*
X79621428Y-44219761D02*
X79526190Y-44267380D01*
X79335714Y-44267380D01*
X79240476Y-44219761D01*
X79192857Y-44124523D01*
X79192857Y-43743571D01*
X79240476Y-43648333D01*
X79335714Y-43600714D01*
X79526190Y-43600714D01*
X79621428Y-43648333D01*
X79669047Y-43743571D01*
X79669047Y-43838809D01*
X79192857Y-43934047D01*
X79859523Y-44362619D02*
X80621428Y-44362619D01*
X81430952Y-44172142D02*
X81383333Y-44219761D01*
X81240476Y-44267380D01*
X81145238Y-44267380D01*
X81002380Y-44219761D01*
X80907142Y-44124523D01*
X80859523Y-44029285D01*
X80811904Y-43838809D01*
X80811904Y-43695952D01*
X80859523Y-43505476D01*
X80907142Y-43410238D01*
X81002380Y-43315000D01*
X81145238Y-43267380D01*
X81240476Y-43267380D01*
X81383333Y-43315000D01*
X81430952Y-43362619D01*
X82002380Y-44267380D02*
X81907142Y-44219761D01*
X81859523Y-44172142D01*
X81811904Y-44076904D01*
X81811904Y-43791190D01*
X81859523Y-43695952D01*
X81907142Y-43648333D01*
X82002380Y-43600714D01*
X82145238Y-43600714D01*
X82240476Y-43648333D01*
X82288095Y-43695952D01*
X82335714Y-43791190D01*
X82335714Y-44076904D01*
X82288095Y-44172142D01*
X82240476Y-44219761D01*
X82145238Y-44267380D01*
X82002380Y-44267380D01*
X82764285Y-43600714D02*
X82764285Y-44267380D01*
X82764285Y-43695952D02*
X82811904Y-43648333D01*
X82907142Y-43600714D01*
X83049999Y-43600714D01*
X83145238Y-43648333D01*
X83192857Y-43743571D01*
X83192857Y-44267380D01*
X83669047Y-43600714D02*
X83669047Y-44267380D01*
X83669047Y-43695952D02*
X83716666Y-43648333D01*
X83811904Y-43600714D01*
X83954761Y-43600714D01*
X84049999Y-43648333D01*
X84097619Y-43743571D01*
X84097619Y-44267380D01*
X84335714Y-44362619D02*
X85097619Y-44362619D01*
X85526190Y-43267380D02*
X85621428Y-43267380D01*
X85716666Y-43315000D01*
X85764285Y-43362619D01*
X85811904Y-43457857D01*
X85859523Y-43648333D01*
X85859523Y-43886428D01*
X85811904Y-44076904D01*
X85764285Y-44172142D01*
X85716666Y-44219761D01*
X85621428Y-44267380D01*
X85526190Y-44267380D01*
X85430952Y-44219761D01*
X85383333Y-44172142D01*
X85335714Y-44076904D01*
X85288095Y-43886428D01*
X85288095Y-43648333D01*
X85335714Y-43457857D01*
X85383333Y-43362619D01*
X85430952Y-43315000D01*
X85526190Y-43267380D01*
X86811904Y-44267380D02*
X86240476Y-44267380D01*
X86526190Y-44267380D02*
X86526190Y-43267380D01*
X86430952Y-43410238D01*
X86335714Y-43505476D01*
X86240476Y-43553095D01*
X87145238Y-44267380D02*
X87669047Y-43600714D01*
X87145238Y-43600714D02*
X87669047Y-44267380D01*
X88240476Y-43267380D02*
X88335714Y-43267380D01*
X88430952Y-43315000D01*
X88478571Y-43362619D01*
X88526190Y-43457857D01*
X88573809Y-43648333D01*
X88573809Y-43886428D01*
X88526190Y-44076904D01*
X88478571Y-44172142D01*
X88430952Y-44219761D01*
X88335714Y-44267380D01*
X88240476Y-44267380D01*
X88145238Y-44219761D01*
X88097619Y-44172142D01*
X88049999Y-44076904D01*
X88002380Y-43886428D01*
X88002380Y-43648333D01*
X88049999Y-43457857D01*
X88097619Y-43362619D01*
X88145238Y-43315000D01*
X88240476Y-43267380D01*
X88954761Y-43362619D02*
X89002380Y-43315000D01*
X89097619Y-43267380D01*
X89335714Y-43267380D01*
X89430952Y-43315000D01*
X89478571Y-43362619D01*
X89526190Y-43457857D01*
X89526190Y-43553095D01*
X89478571Y-43695952D01*
X88907142Y-44267380D01*
X89526190Y-44267380D01*
X89716666Y-44362619D02*
X90478571Y-44362619D01*
X90716666Y-44267380D02*
X90716666Y-43267380D01*
X91049999Y-43981666D01*
X91383333Y-43267380D01*
X91383333Y-44267380D01*
X92288095Y-44267380D02*
X92288095Y-43743571D01*
X92240476Y-43648333D01*
X92145238Y-43600714D01*
X91954761Y-43600714D01*
X91859523Y-43648333D01*
X92288095Y-44219761D02*
X92192857Y-44267380D01*
X91954761Y-44267380D01*
X91859523Y-44219761D01*
X91811904Y-44124523D01*
X91811904Y-44029285D01*
X91859523Y-43934047D01*
X91954761Y-43886428D01*
X92192857Y-43886428D01*
X92288095Y-43838809D01*
X92907142Y-44267380D02*
X92811904Y-44219761D01*
X92764285Y-44124523D01*
X92764285Y-43267380D01*
X93669047Y-44219761D02*
X93573809Y-44267380D01*
X93383333Y-44267380D01*
X93288095Y-44219761D01*
X93240476Y-44124523D01*
X93240476Y-43743571D01*
X93288095Y-43648333D01*
X93383333Y-43600714D01*
X93573809Y-43600714D01*
X93669047Y-43648333D01*
X93716666Y-43743571D01*
X93716666Y-43838809D01*
X93240476Y-43934047D01*
%TO.C,D1*%
X117572380Y-64142857D02*
X117572380Y-64619047D01*
X116572380Y-64619047D01*
X117048571Y-63809523D02*
X117048571Y-63476190D01*
X117572380Y-63333333D02*
X117572380Y-63809523D01*
X116572380Y-63809523D01*
X116572380Y-63333333D01*
X117572380Y-62904761D02*
X116572380Y-62904761D01*
X116572380Y-62666666D01*
X116620000Y-62523809D01*
X116715238Y-62428571D01*
X116810476Y-62380952D01*
X117000952Y-62333333D01*
X117143809Y-62333333D01*
X117334285Y-62380952D01*
X117429523Y-62428571D01*
X117524761Y-62523809D01*
X117572380Y-62666666D01*
X117572380Y-62904761D01*
%TD*%
M02*
