%TF.GenerationSoftware,KiCad,Pcbnew,(5.1.9)-1*%
%TF.CreationDate,2021-04-12T23:16:35+02:00*%
%TF.ProjectId,v1_BMR480,76315f42-4d52-4343-9830-2e6b69636164,rev?*%
%TF.SameCoordinates,Original*%
%TF.FileFunction,Copper,L1,Top*%
%TF.FilePolarity,Positive*%
%FSLAX46Y46*%
G04 Gerber Fmt 4.6, Leading zero omitted, Abs format (unit mm)*
G04 Created by KiCad (PCBNEW (5.1.9)-1) date 2021-04-12 23:16:35*
%MOMM*%
%LPD*%
G01*
G04 APERTURE LIST*
%TA.AperFunction,ComponentPad*%
%ADD10C,0.100000*%
%TD*%
%TA.AperFunction,ComponentPad*%
%ADD11O,2.200000X1.200000*%
%TD*%
%TA.AperFunction,ComponentPad*%
%ADD12C,3.500001*%
%TD*%
%TA.AperFunction,ComponentPad*%
%ADD13R,3.500000X3.500000*%
%TD*%
%TA.AperFunction,ComponentPad*%
%ADD14R,2.600000X2.600000*%
%TD*%
%TA.AperFunction,ComponentPad*%
%ADD15C,2.600000*%
%TD*%
%TA.AperFunction,ComponentPad*%
%ADD16O,1.400000X1.400000*%
%TD*%
%TA.AperFunction,ComponentPad*%
%ADD17C,1.400000*%
%TD*%
%TA.AperFunction,ComponentPad*%
%ADD18O,1.700000X1.700000*%
%TD*%
%TA.AperFunction,ComponentPad*%
%ADD19R,1.700000X1.700000*%
%TD*%
%TA.AperFunction,ComponentPad*%
%ADD20O,6.096000X3.302000*%
%TD*%
%TA.AperFunction,ComponentPad*%
%ADD21O,3.302000X6.096000*%
%TD*%
%TA.AperFunction,ComponentPad*%
%ADD22O,1.950000X1.700000*%
%TD*%
%TA.AperFunction,ComponentPad*%
%ADD23C,1.800000*%
%TD*%
%TA.AperFunction,ComponentPad*%
%ADD24R,1.800000X1.800000*%
%TD*%
%TA.AperFunction,Conductor*%
%ADD25C,0.700000*%
%TD*%
%TA.AperFunction,Conductor*%
%ADD26C,2.000000*%
%TD*%
%TA.AperFunction,Conductor*%
%ADD27C,0.254000*%
%TD*%
%TA.AperFunction,Conductor*%
%ADD28C,0.100000*%
%TD*%
G04 APERTURE END LIST*
%TA.AperFunction,ComponentPad*%
D10*
%TO.P,PS1,5*%
%TO.N,-VOUT*%
G36*
X143760000Y-57630000D02*
G01*
X141760000Y-57630000D01*
X141760000Y-54130000D01*
X145260000Y-54130000D01*
X145260000Y-56130000D01*
X143760000Y-57630000D01*
G37*
%TD.AperFunction*%
D11*
%TO.P,PS1,15*%
%TO.N,SA0*%
X146110000Y-69500000D03*
%TO.P,PS1,14*%
%TO.N,SA1*%
X146110000Y-67500000D03*
%TO.P,PS1,13*%
%TO.N,Net-(J3-Pad5)*%
X146110000Y-65500000D03*
%TO.P,PS1,12*%
%TO.N,Net-(J3-Pad4)*%
X146110000Y-63500000D03*
%TO.P,PS1,11*%
%TO.N,Net-(J3-Pad3)*%
X146110000Y-61500000D03*
%TO.P,PS1,10*%
%TO.N,Net-(J3-Pad2)*%
X146110000Y-59500000D03*
%TO.P,PS1,9*%
%TO.N,Net-(J3-Pad1)*%
X146050000Y-57500000D03*
D12*
%TO.P,PS1,8*%
%TO.N,+VOUT*%
X143510000Y-74930000D03*
D13*
%TO.P,PS1,4*%
%TO.N,-VOUT*%
X143510000Y-52070000D03*
%TA.AperFunction,ComponentPad*%
D10*
%TO.P,PS1,7*%
%TO.N,+VOUT*%
G36*
X145260000Y-70870000D02*
G01*
X145260000Y-71995000D01*
X144385000Y-72870000D01*
X142635000Y-72870000D01*
X141760000Y-71995000D01*
X141760000Y-70245000D01*
X142635000Y-69370000D01*
X143760000Y-69370000D01*
X145260000Y-70870000D01*
G37*
%TD.AperFunction*%
D14*
%TO.P,PS1,3*%
%TO.N,-VIN*%
X92710000Y-55880000D03*
D15*
%TO.P,PS1,2*%
%TO.N,ONOFF_INV*%
X92710000Y-63500000D03*
%TO.P,PS1,1*%
%TO.N,+VIN*%
X92710000Y-71120000D03*
%TD*%
D16*
%TO.P,R1,2*%
%TO.N,Net-(D1-Pad2)*%
X123190000Y-60960000D03*
D17*
%TO.P,R1,1*%
%TO.N,+VOUT*%
X123190000Y-66040000D03*
%TD*%
D18*
%TO.P,J10,3*%
%TO.N,N/C*%
X86360000Y-63500000D03*
%TO.P,J10,2*%
%TO.N,ONOFF_INV*%
X83820000Y-63500000D03*
D19*
%TO.P,J10,1*%
%TO.N,-VIN*%
X81280000Y-63500000D03*
%TD*%
D20*
%TO.P,J9,2*%
%TO.N,+VOUT*%
X177419000Y-70104000D03*
D21*
%TO.P,J9,1*%
%TO.N,-VOUT*%
X178181000Y-77343000D03*
%TD*%
D20*
%TO.P,J8,2*%
%TO.N,+VOUT*%
X177419000Y-48514000D03*
D21*
%TO.P,J8,1*%
%TO.N,-VOUT*%
X178181000Y-55753000D03*
%TD*%
D20*
%TO.P,J7,2*%
%TO.N,+VOUT*%
X154940000Y-70104000D03*
D21*
%TO.P,J7,1*%
%TO.N,-VOUT*%
X155702000Y-77343000D03*
%TD*%
D20*
%TO.P,J6,2*%
%TO.N,+VOUT*%
X165989000Y-48514000D03*
D21*
%TO.P,J6,1*%
%TO.N,-VOUT*%
X166751000Y-55753000D03*
%TD*%
D20*
%TO.P,J5,2*%
%TO.N,+VOUT*%
X154559000Y-48514000D03*
D21*
%TO.P,J5,1*%
%TO.N,-VOUT*%
X155321000Y-55753000D03*
%TD*%
D20*
%TO.P,J4,2*%
%TO.N,+VOUT*%
X165989000Y-70104000D03*
D21*
%TO.P,J4,1*%
%TO.N,-VOUT*%
X166751000Y-77343000D03*
%TD*%
D22*
%TO.P,J3,6*%
%TO.N,SA1*%
X133350000Y-69650000D03*
%TO.P,J3,5*%
%TO.N,Net-(J3-Pad5)*%
X133350000Y-67150000D03*
%TO.P,J3,4*%
%TO.N,Net-(J3-Pad4)*%
X133350000Y-64650000D03*
%TO.P,J3,3*%
%TO.N,Net-(J3-Pad3)*%
X133350000Y-62150000D03*
%TO.P,J3,2*%
%TO.N,Net-(J3-Pad2)*%
X133350000Y-59650000D03*
%TO.P,J3,1*%
%TO.N,Net-(J3-Pad1)*%
%TA.AperFunction,ComponentPad*%
G36*
G01*
X132625000Y-56300000D02*
X134075000Y-56300000D01*
G75*
G02*
X134325000Y-56550000I0J-250000D01*
G01*
X134325000Y-57750000D01*
G75*
G02*
X134075000Y-58000000I-250000J0D01*
G01*
X132625000Y-58000000D01*
G75*
G02*
X132375000Y-57750000I0J250000D01*
G01*
X132375000Y-56550000D01*
G75*
G02*
X132625000Y-56300000I250000J0D01*
G01*
G37*
%TD.AperFunction*%
%TD*%
D21*
%TO.P,J2,1*%
%TO.N,-VIN*%
X83998000Y-77622000D03*
D20*
%TO.P,J2,2*%
%TO.N,+VIN*%
X83439000Y-71628000D03*
%TD*%
D21*
%TO.P,J1,1*%
%TO.N,-VIN*%
X82372000Y-49378000D03*
D20*
%TO.P,J1,2*%
%TO.N,+VIN*%
X82931000Y-55372000D03*
%TD*%
D23*
%TO.P,D1,2*%
%TO.N,Net-(D1-Pad2)*%
X119380000Y-64770000D03*
D24*
%TO.P,D1,1*%
%TO.N,-VOUT*%
X119380000Y-62230000D03*
%TD*%
D25*
%TO.N,Net-(D1-Pad2)*%
X120369949Y-64770000D02*
X119380000Y-64770000D01*
X123190000Y-61949949D02*
X120369949Y-64770000D01*
X123190000Y-60960000D02*
X123190000Y-61949949D01*
%TO.N,-VOUT*%
X129540000Y-52070000D02*
X143510000Y-52070000D01*
X119380000Y-62230000D02*
X129540000Y-52070000D01*
D26*
X143510000Y-52070000D02*
X143510000Y-55880000D01*
X143510000Y-55880000D02*
X144780000Y-54610000D01*
X144780000Y-54610000D02*
X147320000Y-54610000D01*
D25*
%TO.N,SA1*%
X135025000Y-69650000D02*
X133350000Y-69650000D01*
X137175000Y-67500000D02*
X135025000Y-69650000D01*
X146110000Y-67500000D02*
X137175000Y-67500000D01*
%TO.N,Net-(J3-Pad5)*%
X146110000Y-65500000D02*
X136430000Y-65500000D01*
X134780000Y-67150000D02*
X133350000Y-67150000D01*
X136430000Y-65500000D02*
X134780000Y-67150000D01*
%TO.N,Net-(J3-Pad4)*%
X134500000Y-63500000D02*
X133350000Y-64650000D01*
X146110000Y-63500000D02*
X134500000Y-63500000D01*
%TO.N,Net-(J3-Pad3)*%
X134000000Y-61500000D02*
X133350000Y-62150000D01*
X146110000Y-61500000D02*
X134000000Y-61500000D01*
%TO.N,Net-(J3-Pad2)*%
X133500000Y-59500000D02*
X133350000Y-59650000D01*
X146110000Y-59500000D02*
X133500000Y-59500000D01*
%TO.N,Net-(J3-Pad1)*%
X146050000Y-57500000D02*
X145054606Y-57500000D01*
X145054606Y-57500000D02*
X144134606Y-58420000D01*
X144134606Y-58420000D02*
X140970000Y-58420000D01*
X139700000Y-57150000D02*
X133350000Y-57150000D01*
X140970000Y-58420000D02*
X139700000Y-57150000D01*
%TO.N,+VOUT*%
X123190000Y-66040000D02*
X123190000Y-68580000D01*
X129540000Y-74930000D02*
X143510000Y-74930000D01*
X123190000Y-68580000D02*
X129540000Y-74930000D01*
%TO.N,ONOFF_INV*%
X92710000Y-63500000D02*
X90170000Y-60960000D01*
X86360000Y-60960000D02*
X83820000Y-63500000D01*
X90170000Y-60960000D02*
X86360000Y-60960000D01*
%TD*%
D27*
%TO.N,-VOUT*%
X181483000Y-81153000D02*
X141097000Y-81153000D01*
X141097000Y-78595382D01*
X153265435Y-78595382D01*
X153284039Y-79073511D01*
X153395564Y-79538823D01*
X153595724Y-79973437D01*
X153876827Y-80360651D01*
X154228071Y-80685584D01*
X154509243Y-80690160D01*
X154829000Y-80679862D01*
X154829000Y-78216000D01*
X156575000Y-78216000D01*
X156575000Y-80679862D01*
X156894757Y-80690160D01*
X157175929Y-80685584D01*
X157527173Y-80360651D01*
X157808276Y-79973437D01*
X158008436Y-79538823D01*
X158119961Y-79073511D01*
X158138565Y-78595382D01*
X164314435Y-78595382D01*
X164333039Y-79073511D01*
X164444564Y-79538823D01*
X164644724Y-79973437D01*
X164925827Y-80360651D01*
X165277071Y-80685584D01*
X165558243Y-80690160D01*
X165878000Y-80679862D01*
X165878000Y-78216000D01*
X167624000Y-78216000D01*
X167624000Y-80679862D01*
X167943757Y-80690160D01*
X168224929Y-80685584D01*
X168576173Y-80360651D01*
X168857276Y-79973437D01*
X169057436Y-79538823D01*
X169168961Y-79073511D01*
X169187565Y-78595382D01*
X175744435Y-78595382D01*
X175763039Y-79073511D01*
X175874564Y-79538823D01*
X176074724Y-79973437D01*
X176355827Y-80360651D01*
X176707071Y-80685584D01*
X176988243Y-80690160D01*
X177308000Y-80679862D01*
X177308000Y-78216000D01*
X179054000Y-78216000D01*
X179054000Y-80679862D01*
X179373757Y-80690160D01*
X179654929Y-80685584D01*
X180006173Y-80360651D01*
X180287276Y-79973437D01*
X180487436Y-79538823D01*
X180598961Y-79073511D01*
X180617565Y-78595382D01*
X180406194Y-78216000D01*
X179054000Y-78216000D01*
X177308000Y-78216000D01*
X175955806Y-78216000D01*
X175744435Y-78595382D01*
X169187565Y-78595382D01*
X168976194Y-78216000D01*
X167624000Y-78216000D01*
X165878000Y-78216000D01*
X164525806Y-78216000D01*
X164314435Y-78595382D01*
X158138565Y-78595382D01*
X157927194Y-78216000D01*
X156575000Y-78216000D01*
X154829000Y-78216000D01*
X153476806Y-78216000D01*
X153265435Y-78595382D01*
X141097000Y-78595382D01*
X141097000Y-75915000D01*
X141336495Y-75915000D01*
X141396440Y-76059721D01*
X141657450Y-76450349D01*
X141989651Y-76782550D01*
X142380279Y-77043560D01*
X142814321Y-77223346D01*
X143275098Y-77315000D01*
X143744902Y-77315000D01*
X144205679Y-77223346D01*
X144639721Y-77043560D01*
X145030349Y-76782550D01*
X145362550Y-76450349D01*
X145602915Y-76090618D01*
X153265435Y-76090618D01*
X153476806Y-76470000D01*
X154829000Y-76470000D01*
X154829000Y-74006138D01*
X156575000Y-74006138D01*
X156575000Y-76470000D01*
X157927194Y-76470000D01*
X158138565Y-76090618D01*
X164314435Y-76090618D01*
X164525806Y-76470000D01*
X165878000Y-76470000D01*
X165878000Y-74006138D01*
X167624000Y-74006138D01*
X167624000Y-76470000D01*
X168976194Y-76470000D01*
X169187565Y-76090618D01*
X175744435Y-76090618D01*
X175955806Y-76470000D01*
X177308000Y-76470000D01*
X177308000Y-74006138D01*
X179054000Y-74006138D01*
X179054000Y-76470000D01*
X180406194Y-76470000D01*
X180617565Y-76090618D01*
X180598961Y-75612489D01*
X180487436Y-75147177D01*
X180287276Y-74712563D01*
X180006173Y-74325349D01*
X179654929Y-74000416D01*
X179373757Y-73995840D01*
X179054000Y-74006138D01*
X177308000Y-74006138D01*
X176988243Y-73995840D01*
X176707071Y-74000416D01*
X176355827Y-74325349D01*
X176074724Y-74712563D01*
X175874564Y-75147177D01*
X175763039Y-75612489D01*
X175744435Y-76090618D01*
X169187565Y-76090618D01*
X169168961Y-75612489D01*
X169057436Y-75147177D01*
X168857276Y-74712563D01*
X168576173Y-74325349D01*
X168224929Y-74000416D01*
X167943757Y-73995840D01*
X167624000Y-74006138D01*
X165878000Y-74006138D01*
X165558243Y-73995840D01*
X165277071Y-74000416D01*
X164925827Y-74325349D01*
X164644724Y-74712563D01*
X164444564Y-75147177D01*
X164333039Y-75612489D01*
X164314435Y-76090618D01*
X158138565Y-76090618D01*
X158119961Y-75612489D01*
X158008436Y-75147177D01*
X157808276Y-74712563D01*
X157527173Y-74325349D01*
X157175929Y-74000416D01*
X156894757Y-73995840D01*
X156575000Y-74006138D01*
X154829000Y-74006138D01*
X154509243Y-73995840D01*
X154228071Y-74000416D01*
X153876827Y-74325349D01*
X153595724Y-74712563D01*
X153395564Y-75147177D01*
X153284039Y-75612489D01*
X153265435Y-76090618D01*
X145602915Y-76090618D01*
X145623560Y-76059721D01*
X145803346Y-75625679D01*
X145895000Y-75164902D01*
X145895000Y-74695098D01*
X145803346Y-74234321D01*
X145623560Y-73800279D01*
X145362550Y-73409651D01*
X145055135Y-73102236D01*
X145711185Y-72446185D01*
X145790537Y-72349494D01*
X145849502Y-72239180D01*
X145885812Y-72119482D01*
X145898072Y-71995000D01*
X145898072Y-70870000D01*
X145885812Y-70745518D01*
X145882621Y-70735000D01*
X146670665Y-70735000D01*
X146852102Y-70717130D01*
X147084901Y-70646511D01*
X147299449Y-70531833D01*
X147487502Y-70377502D01*
X147641833Y-70189449D01*
X147687506Y-70104000D01*
X151245940Y-70104000D01*
X151290077Y-70552134D01*
X151420793Y-70983047D01*
X151633064Y-71380178D01*
X151918733Y-71728267D01*
X152266822Y-72013936D01*
X152663953Y-72226207D01*
X153094866Y-72356923D01*
X153430705Y-72390000D01*
X156449295Y-72390000D01*
X156785134Y-72356923D01*
X157216047Y-72226207D01*
X157613178Y-72013936D01*
X157961267Y-71728267D01*
X158246936Y-71380178D01*
X158459207Y-70983047D01*
X158589923Y-70552134D01*
X158634060Y-70104000D01*
X162294940Y-70104000D01*
X162339077Y-70552134D01*
X162469793Y-70983047D01*
X162682064Y-71380178D01*
X162967733Y-71728267D01*
X163315822Y-72013936D01*
X163712953Y-72226207D01*
X164143866Y-72356923D01*
X164479705Y-72390000D01*
X167498295Y-72390000D01*
X167834134Y-72356923D01*
X168265047Y-72226207D01*
X168662178Y-72013936D01*
X169010267Y-71728267D01*
X169295936Y-71380178D01*
X169508207Y-70983047D01*
X169638923Y-70552134D01*
X169683060Y-70104000D01*
X173724940Y-70104000D01*
X173769077Y-70552134D01*
X173899793Y-70983047D01*
X174112064Y-71380178D01*
X174397733Y-71728267D01*
X174745822Y-72013936D01*
X175142953Y-72226207D01*
X175573866Y-72356923D01*
X175909705Y-72390000D01*
X178928295Y-72390000D01*
X179264134Y-72356923D01*
X179695047Y-72226207D01*
X180092178Y-72013936D01*
X180440267Y-71728267D01*
X180725936Y-71380178D01*
X180938207Y-70983047D01*
X181068923Y-70552134D01*
X181113060Y-70104000D01*
X181068923Y-69655866D01*
X180938207Y-69224953D01*
X180725936Y-68827822D01*
X180440267Y-68479733D01*
X180092178Y-68194064D01*
X179695047Y-67981793D01*
X179264134Y-67851077D01*
X178928295Y-67818000D01*
X175909705Y-67818000D01*
X175573866Y-67851077D01*
X175142953Y-67981793D01*
X174745822Y-68194064D01*
X174397733Y-68479733D01*
X174112064Y-68827822D01*
X173899793Y-69224953D01*
X173769077Y-69655866D01*
X173724940Y-70104000D01*
X169683060Y-70104000D01*
X169638923Y-69655866D01*
X169508207Y-69224953D01*
X169295936Y-68827822D01*
X169010267Y-68479733D01*
X168662178Y-68194064D01*
X168265047Y-67981793D01*
X167834134Y-67851077D01*
X167498295Y-67818000D01*
X164479705Y-67818000D01*
X164143866Y-67851077D01*
X163712953Y-67981793D01*
X163315822Y-68194064D01*
X162967733Y-68479733D01*
X162682064Y-68827822D01*
X162469793Y-69224953D01*
X162339077Y-69655866D01*
X162294940Y-70104000D01*
X158634060Y-70104000D01*
X158589923Y-69655866D01*
X158459207Y-69224953D01*
X158246936Y-68827822D01*
X157961267Y-68479733D01*
X157613178Y-68194064D01*
X157216047Y-67981793D01*
X156785134Y-67851077D01*
X156449295Y-67818000D01*
X153430705Y-67818000D01*
X153094866Y-67851077D01*
X152663953Y-67981793D01*
X152266822Y-68194064D01*
X151918733Y-68479733D01*
X151633064Y-68827822D01*
X151420793Y-69224953D01*
X151290077Y-69655866D01*
X151245940Y-70104000D01*
X147687506Y-70104000D01*
X147756511Y-69974901D01*
X147827130Y-69742102D01*
X147850975Y-69500000D01*
X147827130Y-69257898D01*
X147756511Y-69025099D01*
X147641833Y-68810551D01*
X147487502Y-68622498D01*
X147338238Y-68500000D01*
X147487502Y-68377502D01*
X147641833Y-68189449D01*
X147756511Y-67974901D01*
X147827130Y-67742102D01*
X147850975Y-67500000D01*
X147827130Y-67257898D01*
X147756511Y-67025099D01*
X147641833Y-66810551D01*
X147487502Y-66622498D01*
X147338238Y-66500000D01*
X147487502Y-66377502D01*
X147641833Y-66189449D01*
X147756511Y-65974901D01*
X147827130Y-65742102D01*
X147850975Y-65500000D01*
X147827130Y-65257898D01*
X147756511Y-65025099D01*
X147641833Y-64810551D01*
X147487502Y-64622498D01*
X147338238Y-64500000D01*
X147487502Y-64377502D01*
X147641833Y-64189449D01*
X147756511Y-63974901D01*
X147827130Y-63742102D01*
X147850975Y-63500000D01*
X147827130Y-63257898D01*
X147756511Y-63025099D01*
X147641833Y-62810551D01*
X147487502Y-62622498D01*
X147338238Y-62500000D01*
X147487502Y-62377502D01*
X147641833Y-62189449D01*
X147756511Y-61974901D01*
X147827130Y-61742102D01*
X147850975Y-61500000D01*
X147827130Y-61257898D01*
X147756511Y-61025099D01*
X147641833Y-60810551D01*
X147487502Y-60622498D01*
X147338238Y-60500000D01*
X147487502Y-60377502D01*
X147641833Y-60189449D01*
X147756511Y-59974901D01*
X147827130Y-59742102D01*
X147850975Y-59500000D01*
X147827130Y-59257898D01*
X147756511Y-59025099D01*
X147641833Y-58810551D01*
X147487502Y-58622498D01*
X147308238Y-58475380D01*
X147427502Y-58377502D01*
X147581833Y-58189449D01*
X147696511Y-57974901D01*
X147767130Y-57742102D01*
X147790975Y-57500000D01*
X147767130Y-57257898D01*
X147696511Y-57025099D01*
X147685973Y-57005382D01*
X152884435Y-57005382D01*
X152903039Y-57483511D01*
X153014564Y-57948823D01*
X153214724Y-58383437D01*
X153495827Y-58770651D01*
X153847071Y-59095584D01*
X154128243Y-59100160D01*
X154448000Y-59089862D01*
X154448000Y-56626000D01*
X156194000Y-56626000D01*
X156194000Y-59089862D01*
X156513757Y-59100160D01*
X156794929Y-59095584D01*
X157146173Y-58770651D01*
X157427276Y-58383437D01*
X157627436Y-57948823D01*
X157738961Y-57483511D01*
X157757565Y-57005382D01*
X164314435Y-57005382D01*
X164333039Y-57483511D01*
X164444564Y-57948823D01*
X164644724Y-58383437D01*
X164925827Y-58770651D01*
X165277071Y-59095584D01*
X165558243Y-59100160D01*
X165878000Y-59089862D01*
X165878000Y-56626000D01*
X167624000Y-56626000D01*
X167624000Y-59089862D01*
X167943757Y-59100160D01*
X168224929Y-59095584D01*
X168576173Y-58770651D01*
X168857276Y-58383437D01*
X169057436Y-57948823D01*
X169168961Y-57483511D01*
X169187565Y-57005382D01*
X175744435Y-57005382D01*
X175763039Y-57483511D01*
X175874564Y-57948823D01*
X176074724Y-58383437D01*
X176355827Y-58770651D01*
X176707071Y-59095584D01*
X176988243Y-59100160D01*
X177308000Y-59089862D01*
X177308000Y-56626000D01*
X179054000Y-56626000D01*
X179054000Y-59089862D01*
X179373757Y-59100160D01*
X179654929Y-59095584D01*
X180006173Y-58770651D01*
X180287276Y-58383437D01*
X180487436Y-57948823D01*
X180598961Y-57483511D01*
X180617565Y-57005382D01*
X180406194Y-56626000D01*
X179054000Y-56626000D01*
X177308000Y-56626000D01*
X175955806Y-56626000D01*
X175744435Y-57005382D01*
X169187565Y-57005382D01*
X168976194Y-56626000D01*
X167624000Y-56626000D01*
X165878000Y-56626000D01*
X164525806Y-56626000D01*
X164314435Y-57005382D01*
X157757565Y-57005382D01*
X157546194Y-56626000D01*
X156194000Y-56626000D01*
X154448000Y-56626000D01*
X153095806Y-56626000D01*
X152884435Y-57005382D01*
X147685973Y-57005382D01*
X147581833Y-56810551D01*
X147427502Y-56622498D01*
X147239449Y-56468167D01*
X147024901Y-56353489D01*
X146792102Y-56282870D01*
X146610665Y-56265000D01*
X145882621Y-56265000D01*
X145885812Y-56254482D01*
X145898072Y-56130000D01*
X145898072Y-54500618D01*
X152884435Y-54500618D01*
X153095806Y-54880000D01*
X154448000Y-54880000D01*
X154448000Y-52416138D01*
X156194000Y-52416138D01*
X156194000Y-54880000D01*
X157546194Y-54880000D01*
X157757565Y-54500618D01*
X164314435Y-54500618D01*
X164525806Y-54880000D01*
X165878000Y-54880000D01*
X165878000Y-52416138D01*
X167624000Y-52416138D01*
X167624000Y-54880000D01*
X168976194Y-54880000D01*
X169187565Y-54500618D01*
X175744435Y-54500618D01*
X175955806Y-54880000D01*
X177308000Y-54880000D01*
X177308000Y-52416138D01*
X179054000Y-52416138D01*
X179054000Y-54880000D01*
X180406194Y-54880000D01*
X180617565Y-54500618D01*
X180598961Y-54022489D01*
X180487436Y-53557177D01*
X180287276Y-53122563D01*
X180006173Y-52735349D01*
X179654929Y-52410416D01*
X179373757Y-52405840D01*
X179054000Y-52416138D01*
X177308000Y-52416138D01*
X176988243Y-52405840D01*
X176707071Y-52410416D01*
X176355827Y-52735349D01*
X176074724Y-53122563D01*
X175874564Y-53557177D01*
X175763039Y-54022489D01*
X175744435Y-54500618D01*
X169187565Y-54500618D01*
X169168961Y-54022489D01*
X169057436Y-53557177D01*
X168857276Y-53122563D01*
X168576173Y-52735349D01*
X168224929Y-52410416D01*
X167943757Y-52405840D01*
X167624000Y-52416138D01*
X165878000Y-52416138D01*
X165558243Y-52405840D01*
X165277071Y-52410416D01*
X164925827Y-52735349D01*
X164644724Y-53122563D01*
X164444564Y-53557177D01*
X164333039Y-54022489D01*
X164314435Y-54500618D01*
X157757565Y-54500618D01*
X157738961Y-54022489D01*
X157627436Y-53557177D01*
X157427276Y-53122563D01*
X157146173Y-52735349D01*
X156794929Y-52410416D01*
X156513757Y-52405840D01*
X156194000Y-52416138D01*
X154448000Y-52416138D01*
X154128243Y-52405840D01*
X153847071Y-52410416D01*
X153495827Y-52735349D01*
X153214724Y-53122563D01*
X153014564Y-53557177D01*
X152903039Y-54022489D01*
X152884435Y-54500618D01*
X145898072Y-54500618D01*
X145898072Y-54130000D01*
X145885812Y-54005518D01*
X145876554Y-53975000D01*
X145885812Y-53944482D01*
X145898072Y-53820000D01*
X145895000Y-53101750D01*
X145736250Y-52943000D01*
X144383000Y-52943000D01*
X144383000Y-52963000D01*
X142637000Y-52963000D01*
X142637000Y-52943000D01*
X141283750Y-52943000D01*
X141125000Y-53101750D01*
X141121928Y-53820000D01*
X141134188Y-53944482D01*
X141143446Y-53975000D01*
X141134188Y-54005518D01*
X141121928Y-54130000D01*
X141121928Y-57178928D01*
X141097000Y-57154000D01*
X141097000Y-50320000D01*
X141121928Y-50320000D01*
X141125000Y-51038250D01*
X141283750Y-51197000D01*
X142637000Y-51197000D01*
X142637000Y-49843750D01*
X144383000Y-49843750D01*
X144383000Y-51197000D01*
X145736250Y-51197000D01*
X145895000Y-51038250D01*
X145898072Y-50320000D01*
X145885812Y-50195518D01*
X145849502Y-50075820D01*
X145790537Y-49965506D01*
X145711185Y-49868815D01*
X145614494Y-49789463D01*
X145504180Y-49730498D01*
X145384482Y-49694188D01*
X145260000Y-49681928D01*
X144541750Y-49685000D01*
X144383000Y-49843750D01*
X142637000Y-49843750D01*
X142478250Y-49685000D01*
X141760000Y-49681928D01*
X141635518Y-49694188D01*
X141515820Y-49730498D01*
X141405506Y-49789463D01*
X141308815Y-49868815D01*
X141229463Y-49965506D01*
X141170498Y-50075820D01*
X141134188Y-50195518D01*
X141121928Y-50320000D01*
X141097000Y-50320000D01*
X141097000Y-48514000D01*
X150864940Y-48514000D01*
X150909077Y-48962134D01*
X151039793Y-49393047D01*
X151252064Y-49790178D01*
X151537733Y-50138267D01*
X151885822Y-50423936D01*
X152282953Y-50636207D01*
X152713866Y-50766923D01*
X153049705Y-50800000D01*
X156068295Y-50800000D01*
X156404134Y-50766923D01*
X156835047Y-50636207D01*
X157232178Y-50423936D01*
X157580267Y-50138267D01*
X157865936Y-49790178D01*
X158078207Y-49393047D01*
X158208923Y-48962134D01*
X158253060Y-48514000D01*
X162294940Y-48514000D01*
X162339077Y-48962134D01*
X162469793Y-49393047D01*
X162682064Y-49790178D01*
X162967733Y-50138267D01*
X163315822Y-50423936D01*
X163712953Y-50636207D01*
X164143866Y-50766923D01*
X164479705Y-50800000D01*
X167498295Y-50800000D01*
X167834134Y-50766923D01*
X168265047Y-50636207D01*
X168662178Y-50423936D01*
X169010267Y-50138267D01*
X169295936Y-49790178D01*
X169508207Y-49393047D01*
X169638923Y-48962134D01*
X169683060Y-48514000D01*
X173724940Y-48514000D01*
X173769077Y-48962134D01*
X173899793Y-49393047D01*
X174112064Y-49790178D01*
X174397733Y-50138267D01*
X174745822Y-50423936D01*
X175142953Y-50636207D01*
X175573866Y-50766923D01*
X175909705Y-50800000D01*
X178928295Y-50800000D01*
X179264134Y-50766923D01*
X179695047Y-50636207D01*
X180092178Y-50423936D01*
X180440267Y-50138267D01*
X180725936Y-49790178D01*
X180938207Y-49393047D01*
X181068923Y-48962134D01*
X181113060Y-48514000D01*
X181068923Y-48065866D01*
X180938207Y-47634953D01*
X180725936Y-47237822D01*
X180440267Y-46889733D01*
X180092178Y-46604064D01*
X179695047Y-46391793D01*
X179264134Y-46261077D01*
X178928295Y-46228000D01*
X175909705Y-46228000D01*
X175573866Y-46261077D01*
X175142953Y-46391793D01*
X174745822Y-46604064D01*
X174397733Y-46889733D01*
X174112064Y-47237822D01*
X173899793Y-47634953D01*
X173769077Y-48065866D01*
X173724940Y-48514000D01*
X169683060Y-48514000D01*
X169638923Y-48065866D01*
X169508207Y-47634953D01*
X169295936Y-47237822D01*
X169010267Y-46889733D01*
X168662178Y-46604064D01*
X168265047Y-46391793D01*
X167834134Y-46261077D01*
X167498295Y-46228000D01*
X164479705Y-46228000D01*
X164143866Y-46261077D01*
X163712953Y-46391793D01*
X163315822Y-46604064D01*
X162967733Y-46889733D01*
X162682064Y-47237822D01*
X162469793Y-47634953D01*
X162339077Y-48065866D01*
X162294940Y-48514000D01*
X158253060Y-48514000D01*
X158208923Y-48065866D01*
X158078207Y-47634953D01*
X157865936Y-47237822D01*
X157580267Y-46889733D01*
X157232178Y-46604064D01*
X156835047Y-46391793D01*
X156404134Y-46261077D01*
X156068295Y-46228000D01*
X153049705Y-46228000D01*
X152713866Y-46261077D01*
X152282953Y-46391793D01*
X151885822Y-46604064D01*
X151537733Y-46889733D01*
X151252064Y-47237822D01*
X151039793Y-47634953D01*
X150909077Y-48065866D01*
X150864940Y-48514000D01*
X141097000Y-48514000D01*
X141097000Y-45847000D01*
X181483000Y-45847000D01*
X181483000Y-81153000D01*
%TA.AperFunction,Conductor*%
D28*
G36*
X181483000Y-81153000D02*
G01*
X141097000Y-81153000D01*
X141097000Y-78595382D01*
X153265435Y-78595382D01*
X153284039Y-79073511D01*
X153395564Y-79538823D01*
X153595724Y-79973437D01*
X153876827Y-80360651D01*
X154228071Y-80685584D01*
X154509243Y-80690160D01*
X154829000Y-80679862D01*
X154829000Y-78216000D01*
X156575000Y-78216000D01*
X156575000Y-80679862D01*
X156894757Y-80690160D01*
X157175929Y-80685584D01*
X157527173Y-80360651D01*
X157808276Y-79973437D01*
X158008436Y-79538823D01*
X158119961Y-79073511D01*
X158138565Y-78595382D01*
X164314435Y-78595382D01*
X164333039Y-79073511D01*
X164444564Y-79538823D01*
X164644724Y-79973437D01*
X164925827Y-80360651D01*
X165277071Y-80685584D01*
X165558243Y-80690160D01*
X165878000Y-80679862D01*
X165878000Y-78216000D01*
X167624000Y-78216000D01*
X167624000Y-80679862D01*
X167943757Y-80690160D01*
X168224929Y-80685584D01*
X168576173Y-80360651D01*
X168857276Y-79973437D01*
X169057436Y-79538823D01*
X169168961Y-79073511D01*
X169187565Y-78595382D01*
X175744435Y-78595382D01*
X175763039Y-79073511D01*
X175874564Y-79538823D01*
X176074724Y-79973437D01*
X176355827Y-80360651D01*
X176707071Y-80685584D01*
X176988243Y-80690160D01*
X177308000Y-80679862D01*
X177308000Y-78216000D01*
X179054000Y-78216000D01*
X179054000Y-80679862D01*
X179373757Y-80690160D01*
X179654929Y-80685584D01*
X180006173Y-80360651D01*
X180287276Y-79973437D01*
X180487436Y-79538823D01*
X180598961Y-79073511D01*
X180617565Y-78595382D01*
X180406194Y-78216000D01*
X179054000Y-78216000D01*
X177308000Y-78216000D01*
X175955806Y-78216000D01*
X175744435Y-78595382D01*
X169187565Y-78595382D01*
X168976194Y-78216000D01*
X167624000Y-78216000D01*
X165878000Y-78216000D01*
X164525806Y-78216000D01*
X164314435Y-78595382D01*
X158138565Y-78595382D01*
X157927194Y-78216000D01*
X156575000Y-78216000D01*
X154829000Y-78216000D01*
X153476806Y-78216000D01*
X153265435Y-78595382D01*
X141097000Y-78595382D01*
X141097000Y-75915000D01*
X141336495Y-75915000D01*
X141396440Y-76059721D01*
X141657450Y-76450349D01*
X141989651Y-76782550D01*
X142380279Y-77043560D01*
X142814321Y-77223346D01*
X143275098Y-77315000D01*
X143744902Y-77315000D01*
X144205679Y-77223346D01*
X144639721Y-77043560D01*
X145030349Y-76782550D01*
X145362550Y-76450349D01*
X145602915Y-76090618D01*
X153265435Y-76090618D01*
X153476806Y-76470000D01*
X154829000Y-76470000D01*
X154829000Y-74006138D01*
X156575000Y-74006138D01*
X156575000Y-76470000D01*
X157927194Y-76470000D01*
X158138565Y-76090618D01*
X164314435Y-76090618D01*
X164525806Y-76470000D01*
X165878000Y-76470000D01*
X165878000Y-74006138D01*
X167624000Y-74006138D01*
X167624000Y-76470000D01*
X168976194Y-76470000D01*
X169187565Y-76090618D01*
X175744435Y-76090618D01*
X175955806Y-76470000D01*
X177308000Y-76470000D01*
X177308000Y-74006138D01*
X179054000Y-74006138D01*
X179054000Y-76470000D01*
X180406194Y-76470000D01*
X180617565Y-76090618D01*
X180598961Y-75612489D01*
X180487436Y-75147177D01*
X180287276Y-74712563D01*
X180006173Y-74325349D01*
X179654929Y-74000416D01*
X179373757Y-73995840D01*
X179054000Y-74006138D01*
X177308000Y-74006138D01*
X176988243Y-73995840D01*
X176707071Y-74000416D01*
X176355827Y-74325349D01*
X176074724Y-74712563D01*
X175874564Y-75147177D01*
X175763039Y-75612489D01*
X175744435Y-76090618D01*
X169187565Y-76090618D01*
X169168961Y-75612489D01*
X169057436Y-75147177D01*
X168857276Y-74712563D01*
X168576173Y-74325349D01*
X168224929Y-74000416D01*
X167943757Y-73995840D01*
X167624000Y-74006138D01*
X165878000Y-74006138D01*
X165558243Y-73995840D01*
X165277071Y-74000416D01*
X164925827Y-74325349D01*
X164644724Y-74712563D01*
X164444564Y-75147177D01*
X164333039Y-75612489D01*
X164314435Y-76090618D01*
X158138565Y-76090618D01*
X158119961Y-75612489D01*
X158008436Y-75147177D01*
X157808276Y-74712563D01*
X157527173Y-74325349D01*
X157175929Y-74000416D01*
X156894757Y-73995840D01*
X156575000Y-74006138D01*
X154829000Y-74006138D01*
X154509243Y-73995840D01*
X154228071Y-74000416D01*
X153876827Y-74325349D01*
X153595724Y-74712563D01*
X153395564Y-75147177D01*
X153284039Y-75612489D01*
X153265435Y-76090618D01*
X145602915Y-76090618D01*
X145623560Y-76059721D01*
X145803346Y-75625679D01*
X145895000Y-75164902D01*
X145895000Y-74695098D01*
X145803346Y-74234321D01*
X145623560Y-73800279D01*
X145362550Y-73409651D01*
X145055135Y-73102236D01*
X145711185Y-72446185D01*
X145790537Y-72349494D01*
X145849502Y-72239180D01*
X145885812Y-72119482D01*
X145898072Y-71995000D01*
X145898072Y-70870000D01*
X145885812Y-70745518D01*
X145882621Y-70735000D01*
X146670665Y-70735000D01*
X146852102Y-70717130D01*
X147084901Y-70646511D01*
X147299449Y-70531833D01*
X147487502Y-70377502D01*
X147641833Y-70189449D01*
X147687506Y-70104000D01*
X151245940Y-70104000D01*
X151290077Y-70552134D01*
X151420793Y-70983047D01*
X151633064Y-71380178D01*
X151918733Y-71728267D01*
X152266822Y-72013936D01*
X152663953Y-72226207D01*
X153094866Y-72356923D01*
X153430705Y-72390000D01*
X156449295Y-72390000D01*
X156785134Y-72356923D01*
X157216047Y-72226207D01*
X157613178Y-72013936D01*
X157961267Y-71728267D01*
X158246936Y-71380178D01*
X158459207Y-70983047D01*
X158589923Y-70552134D01*
X158634060Y-70104000D01*
X162294940Y-70104000D01*
X162339077Y-70552134D01*
X162469793Y-70983047D01*
X162682064Y-71380178D01*
X162967733Y-71728267D01*
X163315822Y-72013936D01*
X163712953Y-72226207D01*
X164143866Y-72356923D01*
X164479705Y-72390000D01*
X167498295Y-72390000D01*
X167834134Y-72356923D01*
X168265047Y-72226207D01*
X168662178Y-72013936D01*
X169010267Y-71728267D01*
X169295936Y-71380178D01*
X169508207Y-70983047D01*
X169638923Y-70552134D01*
X169683060Y-70104000D01*
X173724940Y-70104000D01*
X173769077Y-70552134D01*
X173899793Y-70983047D01*
X174112064Y-71380178D01*
X174397733Y-71728267D01*
X174745822Y-72013936D01*
X175142953Y-72226207D01*
X175573866Y-72356923D01*
X175909705Y-72390000D01*
X178928295Y-72390000D01*
X179264134Y-72356923D01*
X179695047Y-72226207D01*
X180092178Y-72013936D01*
X180440267Y-71728267D01*
X180725936Y-71380178D01*
X180938207Y-70983047D01*
X181068923Y-70552134D01*
X181113060Y-70104000D01*
X181068923Y-69655866D01*
X180938207Y-69224953D01*
X180725936Y-68827822D01*
X180440267Y-68479733D01*
X180092178Y-68194064D01*
X179695047Y-67981793D01*
X179264134Y-67851077D01*
X178928295Y-67818000D01*
X175909705Y-67818000D01*
X175573866Y-67851077D01*
X175142953Y-67981793D01*
X174745822Y-68194064D01*
X174397733Y-68479733D01*
X174112064Y-68827822D01*
X173899793Y-69224953D01*
X173769077Y-69655866D01*
X173724940Y-70104000D01*
X169683060Y-70104000D01*
X169638923Y-69655866D01*
X169508207Y-69224953D01*
X169295936Y-68827822D01*
X169010267Y-68479733D01*
X168662178Y-68194064D01*
X168265047Y-67981793D01*
X167834134Y-67851077D01*
X167498295Y-67818000D01*
X164479705Y-67818000D01*
X164143866Y-67851077D01*
X163712953Y-67981793D01*
X163315822Y-68194064D01*
X162967733Y-68479733D01*
X162682064Y-68827822D01*
X162469793Y-69224953D01*
X162339077Y-69655866D01*
X162294940Y-70104000D01*
X158634060Y-70104000D01*
X158589923Y-69655866D01*
X158459207Y-69224953D01*
X158246936Y-68827822D01*
X157961267Y-68479733D01*
X157613178Y-68194064D01*
X157216047Y-67981793D01*
X156785134Y-67851077D01*
X156449295Y-67818000D01*
X153430705Y-67818000D01*
X153094866Y-67851077D01*
X152663953Y-67981793D01*
X152266822Y-68194064D01*
X151918733Y-68479733D01*
X151633064Y-68827822D01*
X151420793Y-69224953D01*
X151290077Y-69655866D01*
X151245940Y-70104000D01*
X147687506Y-70104000D01*
X147756511Y-69974901D01*
X147827130Y-69742102D01*
X147850975Y-69500000D01*
X147827130Y-69257898D01*
X147756511Y-69025099D01*
X147641833Y-68810551D01*
X147487502Y-68622498D01*
X147338238Y-68500000D01*
X147487502Y-68377502D01*
X147641833Y-68189449D01*
X147756511Y-67974901D01*
X147827130Y-67742102D01*
X147850975Y-67500000D01*
X147827130Y-67257898D01*
X147756511Y-67025099D01*
X147641833Y-66810551D01*
X147487502Y-66622498D01*
X147338238Y-66500000D01*
X147487502Y-66377502D01*
X147641833Y-66189449D01*
X147756511Y-65974901D01*
X147827130Y-65742102D01*
X147850975Y-65500000D01*
X147827130Y-65257898D01*
X147756511Y-65025099D01*
X147641833Y-64810551D01*
X147487502Y-64622498D01*
X147338238Y-64500000D01*
X147487502Y-64377502D01*
X147641833Y-64189449D01*
X147756511Y-63974901D01*
X147827130Y-63742102D01*
X147850975Y-63500000D01*
X147827130Y-63257898D01*
X147756511Y-63025099D01*
X147641833Y-62810551D01*
X147487502Y-62622498D01*
X147338238Y-62500000D01*
X147487502Y-62377502D01*
X147641833Y-62189449D01*
X147756511Y-61974901D01*
X147827130Y-61742102D01*
X147850975Y-61500000D01*
X147827130Y-61257898D01*
X147756511Y-61025099D01*
X147641833Y-60810551D01*
X147487502Y-60622498D01*
X147338238Y-60500000D01*
X147487502Y-60377502D01*
X147641833Y-60189449D01*
X147756511Y-59974901D01*
X147827130Y-59742102D01*
X147850975Y-59500000D01*
X147827130Y-59257898D01*
X147756511Y-59025099D01*
X147641833Y-58810551D01*
X147487502Y-58622498D01*
X147308238Y-58475380D01*
X147427502Y-58377502D01*
X147581833Y-58189449D01*
X147696511Y-57974901D01*
X147767130Y-57742102D01*
X147790975Y-57500000D01*
X147767130Y-57257898D01*
X147696511Y-57025099D01*
X147685973Y-57005382D01*
X152884435Y-57005382D01*
X152903039Y-57483511D01*
X153014564Y-57948823D01*
X153214724Y-58383437D01*
X153495827Y-58770651D01*
X153847071Y-59095584D01*
X154128243Y-59100160D01*
X154448000Y-59089862D01*
X154448000Y-56626000D01*
X156194000Y-56626000D01*
X156194000Y-59089862D01*
X156513757Y-59100160D01*
X156794929Y-59095584D01*
X157146173Y-58770651D01*
X157427276Y-58383437D01*
X157627436Y-57948823D01*
X157738961Y-57483511D01*
X157757565Y-57005382D01*
X164314435Y-57005382D01*
X164333039Y-57483511D01*
X164444564Y-57948823D01*
X164644724Y-58383437D01*
X164925827Y-58770651D01*
X165277071Y-59095584D01*
X165558243Y-59100160D01*
X165878000Y-59089862D01*
X165878000Y-56626000D01*
X167624000Y-56626000D01*
X167624000Y-59089862D01*
X167943757Y-59100160D01*
X168224929Y-59095584D01*
X168576173Y-58770651D01*
X168857276Y-58383437D01*
X169057436Y-57948823D01*
X169168961Y-57483511D01*
X169187565Y-57005382D01*
X175744435Y-57005382D01*
X175763039Y-57483511D01*
X175874564Y-57948823D01*
X176074724Y-58383437D01*
X176355827Y-58770651D01*
X176707071Y-59095584D01*
X176988243Y-59100160D01*
X177308000Y-59089862D01*
X177308000Y-56626000D01*
X179054000Y-56626000D01*
X179054000Y-59089862D01*
X179373757Y-59100160D01*
X179654929Y-59095584D01*
X180006173Y-58770651D01*
X180287276Y-58383437D01*
X180487436Y-57948823D01*
X180598961Y-57483511D01*
X180617565Y-57005382D01*
X180406194Y-56626000D01*
X179054000Y-56626000D01*
X177308000Y-56626000D01*
X175955806Y-56626000D01*
X175744435Y-57005382D01*
X169187565Y-57005382D01*
X168976194Y-56626000D01*
X167624000Y-56626000D01*
X165878000Y-56626000D01*
X164525806Y-56626000D01*
X164314435Y-57005382D01*
X157757565Y-57005382D01*
X157546194Y-56626000D01*
X156194000Y-56626000D01*
X154448000Y-56626000D01*
X153095806Y-56626000D01*
X152884435Y-57005382D01*
X147685973Y-57005382D01*
X147581833Y-56810551D01*
X147427502Y-56622498D01*
X147239449Y-56468167D01*
X147024901Y-56353489D01*
X146792102Y-56282870D01*
X146610665Y-56265000D01*
X145882621Y-56265000D01*
X145885812Y-56254482D01*
X145898072Y-56130000D01*
X145898072Y-54500618D01*
X152884435Y-54500618D01*
X153095806Y-54880000D01*
X154448000Y-54880000D01*
X154448000Y-52416138D01*
X156194000Y-52416138D01*
X156194000Y-54880000D01*
X157546194Y-54880000D01*
X157757565Y-54500618D01*
X164314435Y-54500618D01*
X164525806Y-54880000D01*
X165878000Y-54880000D01*
X165878000Y-52416138D01*
X167624000Y-52416138D01*
X167624000Y-54880000D01*
X168976194Y-54880000D01*
X169187565Y-54500618D01*
X175744435Y-54500618D01*
X175955806Y-54880000D01*
X177308000Y-54880000D01*
X177308000Y-52416138D01*
X179054000Y-52416138D01*
X179054000Y-54880000D01*
X180406194Y-54880000D01*
X180617565Y-54500618D01*
X180598961Y-54022489D01*
X180487436Y-53557177D01*
X180287276Y-53122563D01*
X180006173Y-52735349D01*
X179654929Y-52410416D01*
X179373757Y-52405840D01*
X179054000Y-52416138D01*
X177308000Y-52416138D01*
X176988243Y-52405840D01*
X176707071Y-52410416D01*
X176355827Y-52735349D01*
X176074724Y-53122563D01*
X175874564Y-53557177D01*
X175763039Y-54022489D01*
X175744435Y-54500618D01*
X169187565Y-54500618D01*
X169168961Y-54022489D01*
X169057436Y-53557177D01*
X168857276Y-53122563D01*
X168576173Y-52735349D01*
X168224929Y-52410416D01*
X167943757Y-52405840D01*
X167624000Y-52416138D01*
X165878000Y-52416138D01*
X165558243Y-52405840D01*
X165277071Y-52410416D01*
X164925827Y-52735349D01*
X164644724Y-53122563D01*
X164444564Y-53557177D01*
X164333039Y-54022489D01*
X164314435Y-54500618D01*
X157757565Y-54500618D01*
X157738961Y-54022489D01*
X157627436Y-53557177D01*
X157427276Y-53122563D01*
X157146173Y-52735349D01*
X156794929Y-52410416D01*
X156513757Y-52405840D01*
X156194000Y-52416138D01*
X154448000Y-52416138D01*
X154128243Y-52405840D01*
X153847071Y-52410416D01*
X153495827Y-52735349D01*
X153214724Y-53122563D01*
X153014564Y-53557177D01*
X152903039Y-54022489D01*
X152884435Y-54500618D01*
X145898072Y-54500618D01*
X145898072Y-54130000D01*
X145885812Y-54005518D01*
X145876554Y-53975000D01*
X145885812Y-53944482D01*
X145898072Y-53820000D01*
X145895000Y-53101750D01*
X145736250Y-52943000D01*
X144383000Y-52943000D01*
X144383000Y-52963000D01*
X142637000Y-52963000D01*
X142637000Y-52943000D01*
X141283750Y-52943000D01*
X141125000Y-53101750D01*
X141121928Y-53820000D01*
X141134188Y-53944482D01*
X141143446Y-53975000D01*
X141134188Y-54005518D01*
X141121928Y-54130000D01*
X141121928Y-57178928D01*
X141097000Y-57154000D01*
X141097000Y-50320000D01*
X141121928Y-50320000D01*
X141125000Y-51038250D01*
X141283750Y-51197000D01*
X142637000Y-51197000D01*
X142637000Y-49843750D01*
X144383000Y-49843750D01*
X144383000Y-51197000D01*
X145736250Y-51197000D01*
X145895000Y-51038250D01*
X145898072Y-50320000D01*
X145885812Y-50195518D01*
X145849502Y-50075820D01*
X145790537Y-49965506D01*
X145711185Y-49868815D01*
X145614494Y-49789463D01*
X145504180Y-49730498D01*
X145384482Y-49694188D01*
X145260000Y-49681928D01*
X144541750Y-49685000D01*
X144383000Y-49843750D01*
X142637000Y-49843750D01*
X142478250Y-49685000D01*
X141760000Y-49681928D01*
X141635518Y-49694188D01*
X141515820Y-49730498D01*
X141405506Y-49789463D01*
X141308815Y-49868815D01*
X141229463Y-49965506D01*
X141170498Y-50075820D01*
X141134188Y-50195518D01*
X141121928Y-50320000D01*
X141097000Y-50320000D01*
X141097000Y-48514000D01*
X150864940Y-48514000D01*
X150909077Y-48962134D01*
X151039793Y-49393047D01*
X151252064Y-49790178D01*
X151537733Y-50138267D01*
X151885822Y-50423936D01*
X152282953Y-50636207D01*
X152713866Y-50766923D01*
X153049705Y-50800000D01*
X156068295Y-50800000D01*
X156404134Y-50766923D01*
X156835047Y-50636207D01*
X157232178Y-50423936D01*
X157580267Y-50138267D01*
X157865936Y-49790178D01*
X158078207Y-49393047D01*
X158208923Y-48962134D01*
X158253060Y-48514000D01*
X162294940Y-48514000D01*
X162339077Y-48962134D01*
X162469793Y-49393047D01*
X162682064Y-49790178D01*
X162967733Y-50138267D01*
X163315822Y-50423936D01*
X163712953Y-50636207D01*
X164143866Y-50766923D01*
X164479705Y-50800000D01*
X167498295Y-50800000D01*
X167834134Y-50766923D01*
X168265047Y-50636207D01*
X168662178Y-50423936D01*
X169010267Y-50138267D01*
X169295936Y-49790178D01*
X169508207Y-49393047D01*
X169638923Y-48962134D01*
X169683060Y-48514000D01*
X173724940Y-48514000D01*
X173769077Y-48962134D01*
X173899793Y-49393047D01*
X174112064Y-49790178D01*
X174397733Y-50138267D01*
X174745822Y-50423936D01*
X175142953Y-50636207D01*
X175573866Y-50766923D01*
X175909705Y-50800000D01*
X178928295Y-50800000D01*
X179264134Y-50766923D01*
X179695047Y-50636207D01*
X180092178Y-50423936D01*
X180440267Y-50138267D01*
X180725936Y-49790178D01*
X180938207Y-49393047D01*
X181068923Y-48962134D01*
X181113060Y-48514000D01*
X181068923Y-48065866D01*
X180938207Y-47634953D01*
X180725936Y-47237822D01*
X180440267Y-46889733D01*
X180092178Y-46604064D01*
X179695047Y-46391793D01*
X179264134Y-46261077D01*
X178928295Y-46228000D01*
X175909705Y-46228000D01*
X175573866Y-46261077D01*
X175142953Y-46391793D01*
X174745822Y-46604064D01*
X174397733Y-46889733D01*
X174112064Y-47237822D01*
X173899793Y-47634953D01*
X173769077Y-48065866D01*
X173724940Y-48514000D01*
X169683060Y-48514000D01*
X169638923Y-48065866D01*
X169508207Y-47634953D01*
X169295936Y-47237822D01*
X169010267Y-46889733D01*
X168662178Y-46604064D01*
X168265047Y-46391793D01*
X167834134Y-46261077D01*
X167498295Y-46228000D01*
X164479705Y-46228000D01*
X164143866Y-46261077D01*
X163712953Y-46391793D01*
X163315822Y-46604064D01*
X162967733Y-46889733D01*
X162682064Y-47237822D01*
X162469793Y-47634953D01*
X162339077Y-48065866D01*
X162294940Y-48514000D01*
X158253060Y-48514000D01*
X158208923Y-48065866D01*
X158078207Y-47634953D01*
X157865936Y-47237822D01*
X157580267Y-46889733D01*
X157232178Y-46604064D01*
X156835047Y-46391793D01*
X156404134Y-46261077D01*
X156068295Y-46228000D01*
X153049705Y-46228000D01*
X152713866Y-46261077D01*
X152282953Y-46391793D01*
X151885822Y-46604064D01*
X151537733Y-46889733D01*
X151252064Y-47237822D01*
X151039793Y-47634953D01*
X150909077Y-48065866D01*
X150864940Y-48514000D01*
X141097000Y-48514000D01*
X141097000Y-45847000D01*
X181483000Y-45847000D01*
X181483000Y-81153000D01*
G37*
%TD.AperFunction*%
%TD*%
D27*
%TO.N,-VIN*%
X81498998Y-46041138D02*
X81179243Y-46030840D01*
X80898071Y-46035416D01*
X80546827Y-46360349D01*
X80265724Y-46747563D01*
X80065564Y-47182177D01*
X79954039Y-47647489D01*
X79935435Y-48125618D01*
X80146806Y-48505000D01*
X81499000Y-48505000D01*
X81499000Y-48485000D01*
X83245000Y-48485000D01*
X83245000Y-48505000D01*
X84597194Y-48505000D01*
X84808565Y-48125618D01*
X84789961Y-47647489D01*
X84678436Y-47182177D01*
X84478276Y-46747563D01*
X84197173Y-46360349D01*
X83845929Y-46035416D01*
X83564757Y-46030840D01*
X83245002Y-46041138D01*
X83245002Y-45847000D01*
X95123000Y-45847000D01*
X95123000Y-81153000D01*
X84871002Y-81153000D01*
X84871002Y-80958862D01*
X85190757Y-80969160D01*
X85471929Y-80964584D01*
X85823173Y-80639651D01*
X86104276Y-80252437D01*
X86304436Y-79817823D01*
X86415961Y-79352511D01*
X86434565Y-78874382D01*
X86223194Y-78495000D01*
X84871000Y-78495000D01*
X84871000Y-78515000D01*
X83125000Y-78515000D01*
X83125000Y-78495000D01*
X81772806Y-78495000D01*
X81561435Y-78874382D01*
X81580039Y-79352511D01*
X81691564Y-79817823D01*
X81891724Y-80252437D01*
X82172827Y-80639651D01*
X82524071Y-80964584D01*
X82805243Y-80969160D01*
X83124998Y-80958862D01*
X83124998Y-81153000D01*
X78867000Y-81153000D01*
X78867000Y-76369618D01*
X81561435Y-76369618D01*
X81772806Y-76749000D01*
X83125000Y-76749000D01*
X83125000Y-74285138D01*
X84871000Y-74285138D01*
X84871000Y-76749000D01*
X86223194Y-76749000D01*
X86434565Y-76369618D01*
X86415961Y-75891489D01*
X86304436Y-75426177D01*
X86104276Y-74991563D01*
X85823173Y-74604349D01*
X85471929Y-74279416D01*
X85190757Y-74274840D01*
X84871000Y-74285138D01*
X83125000Y-74285138D01*
X82805243Y-74274840D01*
X82524071Y-74279416D01*
X82172827Y-74604349D01*
X81891724Y-74991563D01*
X81691564Y-75426177D01*
X81580039Y-75891489D01*
X81561435Y-76369618D01*
X78867000Y-76369618D01*
X78867000Y-71628000D01*
X79744940Y-71628000D01*
X79789077Y-72076134D01*
X79919793Y-72507047D01*
X80132064Y-72904178D01*
X80417733Y-73252267D01*
X80765822Y-73537936D01*
X81162953Y-73750207D01*
X81593866Y-73880923D01*
X81929705Y-73914000D01*
X84948295Y-73914000D01*
X85284134Y-73880923D01*
X85715047Y-73750207D01*
X86112178Y-73537936D01*
X86460267Y-73252267D01*
X86745936Y-72904178D01*
X86958207Y-72507047D01*
X87088923Y-72076134D01*
X87133060Y-71628000D01*
X87088923Y-71179866D01*
X87012951Y-70929419D01*
X90775000Y-70929419D01*
X90775000Y-71310581D01*
X90849361Y-71684419D01*
X90995225Y-72036566D01*
X91206987Y-72353491D01*
X91476509Y-72623013D01*
X91793434Y-72834775D01*
X92145581Y-72980639D01*
X92519419Y-73055000D01*
X92900581Y-73055000D01*
X93274419Y-72980639D01*
X93626566Y-72834775D01*
X93943491Y-72623013D01*
X94213013Y-72353491D01*
X94424775Y-72036566D01*
X94570639Y-71684419D01*
X94645000Y-71310581D01*
X94645000Y-70929419D01*
X94570639Y-70555581D01*
X94424775Y-70203434D01*
X94213013Y-69886509D01*
X93943491Y-69616987D01*
X93626566Y-69405225D01*
X93274419Y-69259361D01*
X92900581Y-69185000D01*
X92519419Y-69185000D01*
X92145581Y-69259361D01*
X91793434Y-69405225D01*
X91476509Y-69616987D01*
X91206987Y-69886509D01*
X90995225Y-70203434D01*
X90849361Y-70555581D01*
X90775000Y-70929419D01*
X87012951Y-70929419D01*
X86958207Y-70748953D01*
X86745936Y-70351822D01*
X86460267Y-70003733D01*
X86112178Y-69718064D01*
X85715047Y-69505793D01*
X85284134Y-69375077D01*
X84948295Y-69342000D01*
X81929705Y-69342000D01*
X81593866Y-69375077D01*
X81162953Y-69505793D01*
X80765822Y-69718064D01*
X80417733Y-70003733D01*
X80132064Y-70351822D01*
X79919793Y-70748953D01*
X79789077Y-71179866D01*
X79744940Y-71628000D01*
X78867000Y-71628000D01*
X78867000Y-64381750D01*
X79795000Y-64381750D01*
X79805939Y-64482979D01*
X79843873Y-64602172D01*
X79904331Y-64711674D01*
X79984991Y-64807278D01*
X80082752Y-64885308D01*
X80193858Y-64942767D01*
X80314038Y-64977446D01*
X80398250Y-64985000D01*
X80557000Y-64826250D01*
X80557000Y-64223000D01*
X79953750Y-64223000D01*
X79795000Y-64381750D01*
X78867000Y-64381750D01*
X78867000Y-62618250D01*
X79795000Y-62618250D01*
X79953750Y-62777000D01*
X80557000Y-62777000D01*
X80557000Y-62173750D01*
X82003000Y-62173750D01*
X82003000Y-62777000D01*
X82130000Y-62777000D01*
X82130000Y-64223000D01*
X82003000Y-64223000D01*
X82003000Y-64826250D01*
X82161750Y-64985000D01*
X82245962Y-64977446D01*
X82366142Y-64942767D01*
X82477248Y-64885308D01*
X82575009Y-64807278D01*
X82655669Y-64711674D01*
X82716127Y-64602172D01*
X82741703Y-64521810D01*
X82873368Y-64653475D01*
X83116589Y-64815990D01*
X83386842Y-64927932D01*
X83673740Y-64985000D01*
X83966260Y-64985000D01*
X84253158Y-64927932D01*
X84523411Y-64815990D01*
X84766632Y-64653475D01*
X84973475Y-64446632D01*
X85090000Y-64272240D01*
X85206525Y-64446632D01*
X85413368Y-64653475D01*
X85656589Y-64815990D01*
X85926842Y-64927932D01*
X86213740Y-64985000D01*
X86506260Y-64985000D01*
X86793158Y-64927932D01*
X87063411Y-64815990D01*
X87306632Y-64653475D01*
X87513475Y-64446632D01*
X87675990Y-64203411D01*
X87787932Y-63933158D01*
X87845000Y-63646260D01*
X87845000Y-63353740D01*
X87787932Y-63066842D01*
X87675990Y-62796589D01*
X87513475Y-62553368D01*
X87306632Y-62346525D01*
X87063411Y-62184010D01*
X86793158Y-62072068D01*
X86666188Y-62046812D01*
X86768000Y-61945000D01*
X89762000Y-61945000D01*
X90833304Y-63016304D01*
X90775000Y-63309419D01*
X90775000Y-63690581D01*
X90849361Y-64064419D01*
X90995225Y-64416566D01*
X91206987Y-64733491D01*
X91476509Y-65003013D01*
X91793434Y-65214775D01*
X92145581Y-65360639D01*
X92519419Y-65435000D01*
X92900581Y-65435000D01*
X93274419Y-65360639D01*
X93626566Y-65214775D01*
X93943491Y-65003013D01*
X94213013Y-64733491D01*
X94424775Y-64416566D01*
X94570639Y-64064419D01*
X94645000Y-63690581D01*
X94645000Y-63309419D01*
X94570639Y-62935581D01*
X94424775Y-62583434D01*
X94213013Y-62266509D01*
X93943491Y-61996987D01*
X93626566Y-61785225D01*
X93274419Y-61639361D01*
X92900581Y-61565000D01*
X92519419Y-61565000D01*
X92226304Y-61623304D01*
X90900716Y-60297716D01*
X90869870Y-60260130D01*
X90719884Y-60137040D01*
X90548767Y-60045576D01*
X90363094Y-59989253D01*
X90218380Y-59975000D01*
X90170000Y-59970235D01*
X90121620Y-59975000D01*
X86408377Y-59975000D01*
X86359999Y-59970235D01*
X86311621Y-59975000D01*
X86311620Y-59975000D01*
X86166906Y-59989253D01*
X85981233Y-60045576D01*
X85810116Y-60137040D01*
X85660130Y-60260130D01*
X85629284Y-60297716D01*
X83912000Y-62015000D01*
X83673740Y-62015000D01*
X83386842Y-62072068D01*
X83116589Y-62184010D01*
X82873368Y-62346525D01*
X82741703Y-62478190D01*
X82716127Y-62397828D01*
X82655669Y-62288326D01*
X82575009Y-62192722D01*
X82477248Y-62114692D01*
X82366142Y-62057233D01*
X82245962Y-62022554D01*
X82161750Y-62015000D01*
X82003000Y-62173750D01*
X80557000Y-62173750D01*
X80398250Y-62015000D01*
X80314038Y-62022554D01*
X80193858Y-62057233D01*
X80082752Y-62114692D01*
X79984991Y-62192722D01*
X79904331Y-62288326D01*
X79843873Y-62397828D01*
X79805939Y-62517021D01*
X79795000Y-62618250D01*
X78867000Y-62618250D01*
X78867000Y-55372000D01*
X79236940Y-55372000D01*
X79281077Y-55820134D01*
X79411793Y-56251047D01*
X79624064Y-56648178D01*
X79909733Y-56996267D01*
X80257822Y-57281936D01*
X80654953Y-57494207D01*
X81085866Y-57624923D01*
X81421705Y-57658000D01*
X84440295Y-57658000D01*
X84776134Y-57624923D01*
X85207047Y-57494207D01*
X85604178Y-57281936D01*
X85728387Y-57180000D01*
X90771928Y-57180000D01*
X90784188Y-57304482D01*
X90820498Y-57424180D01*
X90879463Y-57534494D01*
X90958815Y-57631185D01*
X91055506Y-57710537D01*
X91165820Y-57769502D01*
X91285518Y-57805812D01*
X91410000Y-57818072D01*
X91678250Y-57815000D01*
X91837000Y-57656250D01*
X91837000Y-56753000D01*
X93583000Y-56753000D01*
X93583000Y-57656250D01*
X93741750Y-57815000D01*
X94010000Y-57818072D01*
X94134482Y-57805812D01*
X94254180Y-57769502D01*
X94364494Y-57710537D01*
X94461185Y-57631185D01*
X94540537Y-57534494D01*
X94599502Y-57424180D01*
X94635812Y-57304482D01*
X94648072Y-57180000D01*
X94645000Y-56911750D01*
X94486250Y-56753000D01*
X93583000Y-56753000D01*
X91837000Y-56753000D01*
X90933750Y-56753000D01*
X90775000Y-56911750D01*
X90771928Y-57180000D01*
X85728387Y-57180000D01*
X85952267Y-56996267D01*
X86237936Y-56648178D01*
X86450207Y-56251047D01*
X86580923Y-55820134D01*
X86625060Y-55372000D01*
X86580923Y-54923866D01*
X86476613Y-54580000D01*
X90771928Y-54580000D01*
X90775000Y-54848250D01*
X90933750Y-55007000D01*
X91837000Y-55007000D01*
X91837000Y-54103750D01*
X93583000Y-54103750D01*
X93583000Y-55007000D01*
X94486250Y-55007000D01*
X94645000Y-54848250D01*
X94648072Y-54580000D01*
X94635812Y-54455518D01*
X94599502Y-54335820D01*
X94540537Y-54225506D01*
X94461185Y-54128815D01*
X94364494Y-54049463D01*
X94254180Y-53990498D01*
X94134482Y-53954188D01*
X94010000Y-53941928D01*
X93741750Y-53945000D01*
X93583000Y-54103750D01*
X91837000Y-54103750D01*
X91678250Y-53945000D01*
X91410000Y-53941928D01*
X91285518Y-53954188D01*
X91165820Y-53990498D01*
X91055506Y-54049463D01*
X90958815Y-54128815D01*
X90879463Y-54225506D01*
X90820498Y-54335820D01*
X90784188Y-54455518D01*
X90771928Y-54580000D01*
X86476613Y-54580000D01*
X86450207Y-54492953D01*
X86237936Y-54095822D01*
X85952267Y-53747733D01*
X85604178Y-53462064D01*
X85207047Y-53249793D01*
X84776134Y-53119077D01*
X84440295Y-53086000D01*
X81421705Y-53086000D01*
X81085866Y-53119077D01*
X80654953Y-53249793D01*
X80257822Y-53462064D01*
X79909733Y-53747733D01*
X79624064Y-54095822D01*
X79411793Y-54492953D01*
X79281077Y-54923866D01*
X79236940Y-55372000D01*
X78867000Y-55372000D01*
X78867000Y-50630382D01*
X79935435Y-50630382D01*
X79954039Y-51108511D01*
X80065564Y-51573823D01*
X80265724Y-52008437D01*
X80546827Y-52395651D01*
X80898071Y-52720584D01*
X81179243Y-52725160D01*
X81499000Y-52714862D01*
X81499000Y-50251000D01*
X83245000Y-50251000D01*
X83245000Y-52714862D01*
X83564757Y-52725160D01*
X83845929Y-52720584D01*
X84197173Y-52395651D01*
X84478276Y-52008437D01*
X84678436Y-51573823D01*
X84789961Y-51108511D01*
X84808565Y-50630382D01*
X84597194Y-50251000D01*
X83245000Y-50251000D01*
X81499000Y-50251000D01*
X80146806Y-50251000D01*
X79935435Y-50630382D01*
X78867000Y-50630382D01*
X78867000Y-45847000D01*
X81498998Y-45847000D01*
X81498998Y-46041138D01*
%TA.AperFunction,Conductor*%
D28*
G36*
X81498998Y-46041138D02*
G01*
X81179243Y-46030840D01*
X80898071Y-46035416D01*
X80546827Y-46360349D01*
X80265724Y-46747563D01*
X80065564Y-47182177D01*
X79954039Y-47647489D01*
X79935435Y-48125618D01*
X80146806Y-48505000D01*
X81499000Y-48505000D01*
X81499000Y-48485000D01*
X83245000Y-48485000D01*
X83245000Y-48505000D01*
X84597194Y-48505000D01*
X84808565Y-48125618D01*
X84789961Y-47647489D01*
X84678436Y-47182177D01*
X84478276Y-46747563D01*
X84197173Y-46360349D01*
X83845929Y-46035416D01*
X83564757Y-46030840D01*
X83245002Y-46041138D01*
X83245002Y-45847000D01*
X95123000Y-45847000D01*
X95123000Y-81153000D01*
X84871002Y-81153000D01*
X84871002Y-80958862D01*
X85190757Y-80969160D01*
X85471929Y-80964584D01*
X85823173Y-80639651D01*
X86104276Y-80252437D01*
X86304436Y-79817823D01*
X86415961Y-79352511D01*
X86434565Y-78874382D01*
X86223194Y-78495000D01*
X84871000Y-78495000D01*
X84871000Y-78515000D01*
X83125000Y-78515000D01*
X83125000Y-78495000D01*
X81772806Y-78495000D01*
X81561435Y-78874382D01*
X81580039Y-79352511D01*
X81691564Y-79817823D01*
X81891724Y-80252437D01*
X82172827Y-80639651D01*
X82524071Y-80964584D01*
X82805243Y-80969160D01*
X83124998Y-80958862D01*
X83124998Y-81153000D01*
X78867000Y-81153000D01*
X78867000Y-76369618D01*
X81561435Y-76369618D01*
X81772806Y-76749000D01*
X83125000Y-76749000D01*
X83125000Y-74285138D01*
X84871000Y-74285138D01*
X84871000Y-76749000D01*
X86223194Y-76749000D01*
X86434565Y-76369618D01*
X86415961Y-75891489D01*
X86304436Y-75426177D01*
X86104276Y-74991563D01*
X85823173Y-74604349D01*
X85471929Y-74279416D01*
X85190757Y-74274840D01*
X84871000Y-74285138D01*
X83125000Y-74285138D01*
X82805243Y-74274840D01*
X82524071Y-74279416D01*
X82172827Y-74604349D01*
X81891724Y-74991563D01*
X81691564Y-75426177D01*
X81580039Y-75891489D01*
X81561435Y-76369618D01*
X78867000Y-76369618D01*
X78867000Y-71628000D01*
X79744940Y-71628000D01*
X79789077Y-72076134D01*
X79919793Y-72507047D01*
X80132064Y-72904178D01*
X80417733Y-73252267D01*
X80765822Y-73537936D01*
X81162953Y-73750207D01*
X81593866Y-73880923D01*
X81929705Y-73914000D01*
X84948295Y-73914000D01*
X85284134Y-73880923D01*
X85715047Y-73750207D01*
X86112178Y-73537936D01*
X86460267Y-73252267D01*
X86745936Y-72904178D01*
X86958207Y-72507047D01*
X87088923Y-72076134D01*
X87133060Y-71628000D01*
X87088923Y-71179866D01*
X87012951Y-70929419D01*
X90775000Y-70929419D01*
X90775000Y-71310581D01*
X90849361Y-71684419D01*
X90995225Y-72036566D01*
X91206987Y-72353491D01*
X91476509Y-72623013D01*
X91793434Y-72834775D01*
X92145581Y-72980639D01*
X92519419Y-73055000D01*
X92900581Y-73055000D01*
X93274419Y-72980639D01*
X93626566Y-72834775D01*
X93943491Y-72623013D01*
X94213013Y-72353491D01*
X94424775Y-72036566D01*
X94570639Y-71684419D01*
X94645000Y-71310581D01*
X94645000Y-70929419D01*
X94570639Y-70555581D01*
X94424775Y-70203434D01*
X94213013Y-69886509D01*
X93943491Y-69616987D01*
X93626566Y-69405225D01*
X93274419Y-69259361D01*
X92900581Y-69185000D01*
X92519419Y-69185000D01*
X92145581Y-69259361D01*
X91793434Y-69405225D01*
X91476509Y-69616987D01*
X91206987Y-69886509D01*
X90995225Y-70203434D01*
X90849361Y-70555581D01*
X90775000Y-70929419D01*
X87012951Y-70929419D01*
X86958207Y-70748953D01*
X86745936Y-70351822D01*
X86460267Y-70003733D01*
X86112178Y-69718064D01*
X85715047Y-69505793D01*
X85284134Y-69375077D01*
X84948295Y-69342000D01*
X81929705Y-69342000D01*
X81593866Y-69375077D01*
X81162953Y-69505793D01*
X80765822Y-69718064D01*
X80417733Y-70003733D01*
X80132064Y-70351822D01*
X79919793Y-70748953D01*
X79789077Y-71179866D01*
X79744940Y-71628000D01*
X78867000Y-71628000D01*
X78867000Y-64381750D01*
X79795000Y-64381750D01*
X79805939Y-64482979D01*
X79843873Y-64602172D01*
X79904331Y-64711674D01*
X79984991Y-64807278D01*
X80082752Y-64885308D01*
X80193858Y-64942767D01*
X80314038Y-64977446D01*
X80398250Y-64985000D01*
X80557000Y-64826250D01*
X80557000Y-64223000D01*
X79953750Y-64223000D01*
X79795000Y-64381750D01*
X78867000Y-64381750D01*
X78867000Y-62618250D01*
X79795000Y-62618250D01*
X79953750Y-62777000D01*
X80557000Y-62777000D01*
X80557000Y-62173750D01*
X82003000Y-62173750D01*
X82003000Y-62777000D01*
X82130000Y-62777000D01*
X82130000Y-64223000D01*
X82003000Y-64223000D01*
X82003000Y-64826250D01*
X82161750Y-64985000D01*
X82245962Y-64977446D01*
X82366142Y-64942767D01*
X82477248Y-64885308D01*
X82575009Y-64807278D01*
X82655669Y-64711674D01*
X82716127Y-64602172D01*
X82741703Y-64521810D01*
X82873368Y-64653475D01*
X83116589Y-64815990D01*
X83386842Y-64927932D01*
X83673740Y-64985000D01*
X83966260Y-64985000D01*
X84253158Y-64927932D01*
X84523411Y-64815990D01*
X84766632Y-64653475D01*
X84973475Y-64446632D01*
X85090000Y-64272240D01*
X85206525Y-64446632D01*
X85413368Y-64653475D01*
X85656589Y-64815990D01*
X85926842Y-64927932D01*
X86213740Y-64985000D01*
X86506260Y-64985000D01*
X86793158Y-64927932D01*
X87063411Y-64815990D01*
X87306632Y-64653475D01*
X87513475Y-64446632D01*
X87675990Y-64203411D01*
X87787932Y-63933158D01*
X87845000Y-63646260D01*
X87845000Y-63353740D01*
X87787932Y-63066842D01*
X87675990Y-62796589D01*
X87513475Y-62553368D01*
X87306632Y-62346525D01*
X87063411Y-62184010D01*
X86793158Y-62072068D01*
X86666188Y-62046812D01*
X86768000Y-61945000D01*
X89762000Y-61945000D01*
X90833304Y-63016304D01*
X90775000Y-63309419D01*
X90775000Y-63690581D01*
X90849361Y-64064419D01*
X90995225Y-64416566D01*
X91206987Y-64733491D01*
X91476509Y-65003013D01*
X91793434Y-65214775D01*
X92145581Y-65360639D01*
X92519419Y-65435000D01*
X92900581Y-65435000D01*
X93274419Y-65360639D01*
X93626566Y-65214775D01*
X93943491Y-65003013D01*
X94213013Y-64733491D01*
X94424775Y-64416566D01*
X94570639Y-64064419D01*
X94645000Y-63690581D01*
X94645000Y-63309419D01*
X94570639Y-62935581D01*
X94424775Y-62583434D01*
X94213013Y-62266509D01*
X93943491Y-61996987D01*
X93626566Y-61785225D01*
X93274419Y-61639361D01*
X92900581Y-61565000D01*
X92519419Y-61565000D01*
X92226304Y-61623304D01*
X90900716Y-60297716D01*
X90869870Y-60260130D01*
X90719884Y-60137040D01*
X90548767Y-60045576D01*
X90363094Y-59989253D01*
X90218380Y-59975000D01*
X90170000Y-59970235D01*
X90121620Y-59975000D01*
X86408377Y-59975000D01*
X86359999Y-59970235D01*
X86311621Y-59975000D01*
X86311620Y-59975000D01*
X86166906Y-59989253D01*
X85981233Y-60045576D01*
X85810116Y-60137040D01*
X85660130Y-60260130D01*
X85629284Y-60297716D01*
X83912000Y-62015000D01*
X83673740Y-62015000D01*
X83386842Y-62072068D01*
X83116589Y-62184010D01*
X82873368Y-62346525D01*
X82741703Y-62478190D01*
X82716127Y-62397828D01*
X82655669Y-62288326D01*
X82575009Y-62192722D01*
X82477248Y-62114692D01*
X82366142Y-62057233D01*
X82245962Y-62022554D01*
X82161750Y-62015000D01*
X82003000Y-62173750D01*
X80557000Y-62173750D01*
X80398250Y-62015000D01*
X80314038Y-62022554D01*
X80193858Y-62057233D01*
X80082752Y-62114692D01*
X79984991Y-62192722D01*
X79904331Y-62288326D01*
X79843873Y-62397828D01*
X79805939Y-62517021D01*
X79795000Y-62618250D01*
X78867000Y-62618250D01*
X78867000Y-55372000D01*
X79236940Y-55372000D01*
X79281077Y-55820134D01*
X79411793Y-56251047D01*
X79624064Y-56648178D01*
X79909733Y-56996267D01*
X80257822Y-57281936D01*
X80654953Y-57494207D01*
X81085866Y-57624923D01*
X81421705Y-57658000D01*
X84440295Y-57658000D01*
X84776134Y-57624923D01*
X85207047Y-57494207D01*
X85604178Y-57281936D01*
X85728387Y-57180000D01*
X90771928Y-57180000D01*
X90784188Y-57304482D01*
X90820498Y-57424180D01*
X90879463Y-57534494D01*
X90958815Y-57631185D01*
X91055506Y-57710537D01*
X91165820Y-57769502D01*
X91285518Y-57805812D01*
X91410000Y-57818072D01*
X91678250Y-57815000D01*
X91837000Y-57656250D01*
X91837000Y-56753000D01*
X93583000Y-56753000D01*
X93583000Y-57656250D01*
X93741750Y-57815000D01*
X94010000Y-57818072D01*
X94134482Y-57805812D01*
X94254180Y-57769502D01*
X94364494Y-57710537D01*
X94461185Y-57631185D01*
X94540537Y-57534494D01*
X94599502Y-57424180D01*
X94635812Y-57304482D01*
X94648072Y-57180000D01*
X94645000Y-56911750D01*
X94486250Y-56753000D01*
X93583000Y-56753000D01*
X91837000Y-56753000D01*
X90933750Y-56753000D01*
X90775000Y-56911750D01*
X90771928Y-57180000D01*
X85728387Y-57180000D01*
X85952267Y-56996267D01*
X86237936Y-56648178D01*
X86450207Y-56251047D01*
X86580923Y-55820134D01*
X86625060Y-55372000D01*
X86580923Y-54923866D01*
X86476613Y-54580000D01*
X90771928Y-54580000D01*
X90775000Y-54848250D01*
X90933750Y-55007000D01*
X91837000Y-55007000D01*
X91837000Y-54103750D01*
X93583000Y-54103750D01*
X93583000Y-55007000D01*
X94486250Y-55007000D01*
X94645000Y-54848250D01*
X94648072Y-54580000D01*
X94635812Y-54455518D01*
X94599502Y-54335820D01*
X94540537Y-54225506D01*
X94461185Y-54128815D01*
X94364494Y-54049463D01*
X94254180Y-53990498D01*
X94134482Y-53954188D01*
X94010000Y-53941928D01*
X93741750Y-53945000D01*
X93583000Y-54103750D01*
X91837000Y-54103750D01*
X91678250Y-53945000D01*
X91410000Y-53941928D01*
X91285518Y-53954188D01*
X91165820Y-53990498D01*
X91055506Y-54049463D01*
X90958815Y-54128815D01*
X90879463Y-54225506D01*
X90820498Y-54335820D01*
X90784188Y-54455518D01*
X90771928Y-54580000D01*
X86476613Y-54580000D01*
X86450207Y-54492953D01*
X86237936Y-54095822D01*
X85952267Y-53747733D01*
X85604178Y-53462064D01*
X85207047Y-53249793D01*
X84776134Y-53119077D01*
X84440295Y-53086000D01*
X81421705Y-53086000D01*
X81085866Y-53119077D01*
X80654953Y-53249793D01*
X80257822Y-53462064D01*
X79909733Y-53747733D01*
X79624064Y-54095822D01*
X79411793Y-54492953D01*
X79281077Y-54923866D01*
X79236940Y-55372000D01*
X78867000Y-55372000D01*
X78867000Y-50630382D01*
X79935435Y-50630382D01*
X79954039Y-51108511D01*
X80065564Y-51573823D01*
X80265724Y-52008437D01*
X80546827Y-52395651D01*
X80898071Y-52720584D01*
X81179243Y-52725160D01*
X81499000Y-52714862D01*
X81499000Y-50251000D01*
X83245000Y-50251000D01*
X83245000Y-52714862D01*
X83564757Y-52725160D01*
X83845929Y-52720584D01*
X84197173Y-52395651D01*
X84478276Y-52008437D01*
X84678436Y-51573823D01*
X84789961Y-51108511D01*
X84808565Y-50630382D01*
X84597194Y-50251000D01*
X83245000Y-50251000D01*
X81499000Y-50251000D01*
X80146806Y-50251000D01*
X79935435Y-50630382D01*
X78867000Y-50630382D01*
X78867000Y-45847000D01*
X81498998Y-45847000D01*
X81498998Y-46041138D01*
G37*
%TD.AperFunction*%
%TD*%
M02*
