%TF.GenerationSoftware,KiCad,Pcbnew,(5.1.9)-1*%
%TF.CreationDate,2021-04-12T23:16:35+02:00*%
%TF.ProjectId,v1_BMR480,76315f42-4d52-4343-9830-2e6b69636164,rev?*%
%TF.SameCoordinates,Original*%
%TF.FileFunction,Soldermask,Top*%
%TF.FilePolarity,Negative*%
%FSLAX46Y46*%
G04 Gerber Fmt 4.6, Leading zero omitted, Abs format (unit mm)*
G04 Created by KiCad (PCBNEW (5.1.9)-1) date 2021-04-12 23:16:35*
%MOMM*%
%LPD*%
G01*
G04 APERTURE LIST*
%ADD10C,0.100000*%
%ADD11O,2.200000X1.200000*%
%ADD12C,3.500001*%
%ADD13R,3.500000X3.500000*%
%ADD14R,2.600000X2.600000*%
%ADD15C,2.600000*%
%ADD16O,1.400000X1.400000*%
%ADD17C,1.400000*%
%ADD18O,1.700000X1.700000*%
%ADD19R,1.700000X1.700000*%
%ADD20O,6.096000X3.302000*%
%ADD21O,3.302000X6.096000*%
%ADD22O,1.950000X1.700000*%
%ADD23C,1.800000*%
%ADD24R,1.800000X1.800000*%
G04 APERTURE END LIST*
D10*
%TO.C,PS1*%
G36*
X143760000Y-57630000D02*
G01*
X141760000Y-57630000D01*
X141760000Y-54130000D01*
X145260000Y-54130000D01*
X145260000Y-56130000D01*
X143760000Y-57630000D01*
G37*
D11*
X146110000Y-69500000D03*
X146110000Y-67500000D03*
X146110000Y-65500000D03*
X146110000Y-63500000D03*
X146110000Y-61500000D03*
X146110000Y-59500000D03*
X146050000Y-57500000D03*
D12*
X143510000Y-74930000D03*
D13*
X143510000Y-52070000D03*
D10*
G36*
X145260000Y-70870000D02*
G01*
X145260000Y-71995000D01*
X144385000Y-72870000D01*
X142635000Y-72870000D01*
X141760000Y-71995000D01*
X141760000Y-70245000D01*
X142635000Y-69370000D01*
X143760000Y-69370000D01*
X145260000Y-70870000D01*
G37*
D14*
X92710000Y-55880000D03*
D15*
X92710000Y-63500000D03*
X92710000Y-71120000D03*
%TD*%
D16*
%TO.C,R1*%
X123190000Y-60960000D03*
D17*
X123190000Y-66040000D03*
%TD*%
D18*
%TO.C,J10*%
X86360000Y-63500000D03*
X83820000Y-63500000D03*
D19*
X81280000Y-63500000D03*
%TD*%
D20*
%TO.C,J9*%
X177419000Y-70104000D03*
D21*
X178181000Y-77343000D03*
%TD*%
D20*
%TO.C,J8*%
X177419000Y-48514000D03*
D21*
X178181000Y-55753000D03*
%TD*%
D20*
%TO.C,J7*%
X154940000Y-70104000D03*
D21*
X155702000Y-77343000D03*
%TD*%
D20*
%TO.C,J6*%
X165989000Y-48514000D03*
D21*
X166751000Y-55753000D03*
%TD*%
D20*
%TO.C,J5*%
X154559000Y-48514000D03*
D21*
X155321000Y-55753000D03*
%TD*%
D20*
%TO.C,J4*%
X165989000Y-70104000D03*
D21*
X166751000Y-77343000D03*
%TD*%
D22*
%TO.C,J3*%
X133350000Y-69650000D03*
X133350000Y-67150000D03*
X133350000Y-64650000D03*
X133350000Y-62150000D03*
X133350000Y-59650000D03*
G36*
G01*
X132625000Y-56300000D02*
X134075000Y-56300000D01*
G75*
G02*
X134325000Y-56550000I0J-250000D01*
G01*
X134325000Y-57750000D01*
G75*
G02*
X134075000Y-58000000I-250000J0D01*
G01*
X132625000Y-58000000D01*
G75*
G02*
X132375000Y-57750000I0J250000D01*
G01*
X132375000Y-56550000D01*
G75*
G02*
X132625000Y-56300000I250000J0D01*
G01*
G37*
%TD*%
D21*
%TO.C,J2*%
X83998000Y-77622000D03*
D20*
X83439000Y-71628000D03*
%TD*%
D21*
%TO.C,J1*%
X82372000Y-49378000D03*
D20*
X82931000Y-55372000D03*
%TD*%
D23*
%TO.C,D1*%
X119380000Y-64770000D03*
D24*
X119380000Y-62230000D03*
%TD*%
M02*
