%TF.GenerationSoftware,KiCad,Pcbnew,(5.1.9)-1*%
%TF.CreationDate,2021-04-12T23:12:51+02:00*%
%TF.ProjectId,Version1Female,56657273-696f-46e3-9146-656d616c652e,rev?*%
%TF.SameCoordinates,Original*%
%TF.FileFunction,Soldermask,Bot*%
%TF.FilePolarity,Negative*%
%FSLAX46Y46*%
G04 Gerber Fmt 4.6, Leading zero omitted, Abs format (unit mm)*
G04 Created by KiCad (PCBNEW (5.1.9)-1) date 2021-04-12 23:12:51*
%MOMM*%
%LPD*%
G01*
G04 APERTURE LIST*
%ADD10R,1.700000X1.700000*%
%ADD11O,1.700000X1.700000*%
%ADD12C,1.700000*%
%ADD13C,0.100000*%
%ADD14R,3.000000X3.000000*%
%ADD15C,6.400000*%
%ADD16C,1.500000*%
%ADD17R,1.500000X1.500000*%
%ADD18C,10.600000*%
G04 APERTURE END LIST*
D10*
%TO.C,J17*%
X113030000Y-47625000D03*
D11*
X113030000Y-50165000D03*
X113030000Y-52705000D03*
D12*
X113030000Y-55245000D03*
%TD*%
D10*
%TO.C,J6*%
X123190000Y-47625000D03*
D11*
X123190000Y-50165000D03*
X123190000Y-52705000D03*
D12*
X123190000Y-55245000D03*
%TD*%
D10*
%TO.C,J14*%
X107560000Y-47625000D03*
D11*
X107560000Y-50165000D03*
X107560000Y-52705000D03*
D12*
X107560000Y-55245000D03*
%TD*%
D10*
%TO.C,J12*%
X128905000Y-47625000D03*
D11*
X128905000Y-50165000D03*
X128905000Y-52705000D03*
D12*
X128905000Y-55245000D03*
%TD*%
D10*
%TO.C,J9*%
X133985000Y-47625000D03*
D11*
X133985000Y-50165000D03*
X133985000Y-52705000D03*
X133985000Y-55245000D03*
%TD*%
D10*
%TO.C,J4*%
X118110000Y-47625000D03*
D11*
X118110000Y-50165000D03*
X118110000Y-52705000D03*
D12*
X118110000Y-55245000D03*
%TD*%
D11*
%TO.C,J59*%
X147955000Y-55245000D03*
X145415000Y-55245000D03*
X147955000Y-52705000D03*
X145415000Y-52705000D03*
X147955000Y-50165000D03*
X145415000Y-50165000D03*
X147955000Y-47625000D03*
D10*
X145415000Y-47625000D03*
%TD*%
D13*
%TO.C,J58*%
G36*
X159833918Y-59690000D02*
G01*
X161036000Y-58487918D01*
X162238082Y-59690000D01*
X161036000Y-60892082D01*
X159833918Y-59690000D01*
G37*
G36*
G01*
X158638908Y-57292908D02*
X158638908Y-57292908D01*
G75*
G02*
X159840990Y-57292908I601041J-601041D01*
G01*
X159840990Y-57292908D01*
G75*
G02*
X159840990Y-58494990I-601041J-601041D01*
G01*
X159840990Y-58494990D01*
G75*
G02*
X158638908Y-58494990I-601041J601041D01*
G01*
X158638908Y-58494990D01*
G75*
G02*
X158638908Y-57292908I601041J601041D01*
G01*
G37*
G36*
G01*
X162231010Y-57292908D02*
X162231010Y-57292908D01*
G75*
G02*
X163433092Y-57292908I601041J-601041D01*
G01*
X163433092Y-57292908D01*
G75*
G02*
X163433092Y-58494990I-601041J-601041D01*
G01*
X163433092Y-58494990D01*
G75*
G02*
X162231010Y-58494990I-601041J601041D01*
G01*
X162231010Y-58494990D01*
G75*
G02*
X162231010Y-57292908I601041J601041D01*
G01*
G37*
G36*
G01*
X160434959Y-55496857D02*
X160434959Y-55496857D01*
G75*
G02*
X161637041Y-55496857I601041J-601041D01*
G01*
X161637041Y-55496857D01*
G75*
G02*
X161637041Y-56698939I-601041J-601041D01*
G01*
X161637041Y-56698939D01*
G75*
G02*
X160434959Y-56698939I-601041J601041D01*
G01*
X160434959Y-56698939D01*
G75*
G02*
X160434959Y-55496857I601041J601041D01*
G01*
G37*
G36*
G01*
X164027061Y-55496857D02*
X164027061Y-55496857D01*
G75*
G02*
X165229143Y-55496857I601041J-601041D01*
G01*
X165229143Y-55496857D01*
G75*
G02*
X165229143Y-56698939I-601041J-601041D01*
G01*
X165229143Y-56698939D01*
G75*
G02*
X164027061Y-56698939I-601041J601041D01*
G01*
X164027061Y-56698939D01*
G75*
G02*
X164027061Y-55496857I601041J601041D01*
G01*
G37*
G36*
G01*
X162231010Y-53700805D02*
X162231010Y-53700805D01*
G75*
G02*
X163433092Y-53700805I601041J-601041D01*
G01*
X163433092Y-53700805D01*
G75*
G02*
X163433092Y-54902887I-601041J-601041D01*
G01*
X163433092Y-54902887D01*
G75*
G02*
X162231010Y-54902887I-601041J601041D01*
G01*
X162231010Y-54902887D01*
G75*
G02*
X162231010Y-53700805I601041J601041D01*
G01*
G37*
G36*
G01*
X165823113Y-53700805D02*
X165823113Y-53700805D01*
G75*
G02*
X167025195Y-53700805I601041J-601041D01*
G01*
X167025195Y-53700805D01*
G75*
G02*
X167025195Y-54902887I-601041J-601041D01*
G01*
X167025195Y-54902887D01*
G75*
G02*
X165823113Y-54902887I-601041J601041D01*
G01*
X165823113Y-54902887D01*
G75*
G02*
X165823113Y-53700805I601041J601041D01*
G01*
G37*
G36*
G01*
X164027061Y-51904754D02*
X164027061Y-51904754D01*
G75*
G02*
X165229143Y-51904754I601041J-601041D01*
G01*
X165229143Y-51904754D01*
G75*
G02*
X165229143Y-53106836I-601041J-601041D01*
G01*
X165229143Y-53106836D01*
G75*
G02*
X164027061Y-53106836I-601041J601041D01*
G01*
X164027061Y-53106836D01*
G75*
G02*
X164027061Y-51904754I601041J601041D01*
G01*
G37*
%TD*%
D11*
%TO.C,J57*%
X191770000Y-77470000D03*
X189230000Y-77470000D03*
D10*
X186690000Y-77470000D03*
%TD*%
D11*
%TO.C,J56*%
X191770000Y-74930000D03*
X189230000Y-74930000D03*
D10*
X186690000Y-74930000D03*
%TD*%
D11*
%TO.C,J55*%
X167640000Y-139065000D03*
X165100000Y-139065000D03*
X167640000Y-136525000D03*
X165100000Y-136525000D03*
X167640000Y-133985000D03*
X165100000Y-133985000D03*
X167640000Y-131445000D03*
X165100000Y-131445000D03*
X167640000Y-128905000D03*
D10*
X165100000Y-128905000D03*
%TD*%
D11*
%TO.C,J54*%
X117475000Y-128905000D03*
X120015000Y-128905000D03*
X117475000Y-131445000D03*
X120015000Y-131445000D03*
X117475000Y-133985000D03*
X120015000Y-133985000D03*
X117475000Y-136525000D03*
X120015000Y-136525000D03*
X117475000Y-139065000D03*
D10*
X120015000Y-139065000D03*
%TD*%
D11*
%TO.C,J53*%
X112395000Y-128905000D03*
X114935000Y-128905000D03*
X112395000Y-131445000D03*
X114935000Y-131445000D03*
X112395000Y-133985000D03*
X114935000Y-133985000D03*
X112395000Y-136525000D03*
X114935000Y-136525000D03*
X112395000Y-139065000D03*
D10*
X114935000Y-139065000D03*
%TD*%
D11*
%TO.C,J52*%
X95250000Y-80645000D03*
X95250000Y-83185000D03*
X92710000Y-80645000D03*
X92710000Y-83185000D03*
X90170000Y-80645000D03*
X90170000Y-83185000D03*
X87630000Y-80645000D03*
X87630000Y-83185000D03*
X85090000Y-80645000D03*
D10*
X85090000Y-83185000D03*
%TD*%
D11*
%TO.C,J51*%
X95250000Y-85725000D03*
X95250000Y-88265000D03*
X92710000Y-85725000D03*
X92710000Y-88265000D03*
X90170000Y-85725000D03*
X90170000Y-88265000D03*
X87630000Y-85725000D03*
X87630000Y-88265000D03*
X85090000Y-85725000D03*
D10*
X85090000Y-88265000D03*
%TD*%
D11*
%TO.C,J50*%
X95250000Y-90805000D03*
X95250000Y-93345000D03*
X92710000Y-90805000D03*
X92710000Y-93345000D03*
X90170000Y-90805000D03*
X90170000Y-93345000D03*
X87630000Y-90805000D03*
X87630000Y-93345000D03*
X85090000Y-90805000D03*
D10*
X85090000Y-93345000D03*
%TD*%
D11*
%TO.C,J48*%
X97790000Y-97790000D03*
X97790000Y-100330000D03*
X95250000Y-97790000D03*
X95250000Y-100330000D03*
X92710000Y-97790000D03*
X92710000Y-100330000D03*
X90170000Y-97790000D03*
X90170000Y-100330000D03*
X87630000Y-97790000D03*
D10*
X87630000Y-100330000D03*
%TD*%
D11*
%TO.C,J47*%
X97790000Y-102870000D03*
X97790000Y-105410000D03*
X95250000Y-102870000D03*
X95250000Y-105410000D03*
X92710000Y-102870000D03*
X92710000Y-105410000D03*
X90170000Y-102870000D03*
X90170000Y-105410000D03*
X87630000Y-102870000D03*
D10*
X87630000Y-105410000D03*
%TD*%
D11*
%TO.C,J46*%
X97790000Y-107950000D03*
X97790000Y-110490000D03*
X95250000Y-107950000D03*
X95250000Y-110490000D03*
X92710000Y-107950000D03*
X92710000Y-110490000D03*
X90170000Y-107950000D03*
X90170000Y-110490000D03*
X87630000Y-107950000D03*
D10*
X87630000Y-110490000D03*
%TD*%
D11*
%TO.C,J45*%
X98425000Y-71120000D03*
X95885000Y-71120000D03*
X93345000Y-71120000D03*
X90805000Y-71120000D03*
D10*
X88265000Y-71120000D03*
%TD*%
D11*
%TO.C,J44*%
X107315000Y-114300000D03*
X109855000Y-114300000D03*
X107315000Y-116840000D03*
X109855000Y-116840000D03*
X107315000Y-119380000D03*
X109855000Y-119380000D03*
X107315000Y-121920000D03*
X109855000Y-121920000D03*
X107315000Y-124460000D03*
D10*
X109855000Y-124460000D03*
%TD*%
D11*
%TO.C,J43*%
X102235000Y-114300000D03*
X104775000Y-114300000D03*
X102235000Y-116840000D03*
X104775000Y-116840000D03*
X102235000Y-119380000D03*
X104775000Y-119380000D03*
X102235000Y-121920000D03*
X104775000Y-121920000D03*
X102235000Y-124460000D03*
D10*
X104775000Y-124460000D03*
%TD*%
D11*
%TO.C,J42*%
X97155000Y-114300000D03*
X99695000Y-114300000D03*
X97155000Y-116840000D03*
X99695000Y-116840000D03*
X97155000Y-119380000D03*
X99695000Y-119380000D03*
X97155000Y-121920000D03*
X99695000Y-121920000D03*
X97155000Y-124460000D03*
D10*
X99695000Y-124460000D03*
%TD*%
D11*
%TO.C,J41*%
X182245000Y-98425000D03*
X182245000Y-95885000D03*
X184785000Y-98425000D03*
X184785000Y-95885000D03*
X187325000Y-98425000D03*
X187325000Y-95885000D03*
X189865000Y-98425000D03*
X189865000Y-95885000D03*
X192405000Y-98425000D03*
D10*
X192405000Y-95885000D03*
%TD*%
D11*
%TO.C,J40*%
X182245000Y-103505000D03*
X182245000Y-100965000D03*
X184785000Y-103505000D03*
X184785000Y-100965000D03*
X187325000Y-103505000D03*
X187325000Y-100965000D03*
X189865000Y-103505000D03*
X189865000Y-100965000D03*
X192405000Y-103505000D03*
D10*
X192405000Y-100965000D03*
%TD*%
D11*
%TO.C,J39*%
X182245000Y-108585000D03*
X182245000Y-106045000D03*
X184785000Y-108585000D03*
X184785000Y-106045000D03*
X187325000Y-108585000D03*
X187325000Y-106045000D03*
X189865000Y-108585000D03*
X189865000Y-106045000D03*
X192405000Y-108585000D03*
D10*
X192405000Y-106045000D03*
%TD*%
D11*
%TO.C,J38*%
X182245000Y-113665000D03*
X184785000Y-113665000D03*
X182245000Y-116205000D03*
X184785000Y-116205000D03*
X182245000Y-118745000D03*
X184785000Y-118745000D03*
X182245000Y-121285000D03*
X184785000Y-121285000D03*
X182245000Y-123825000D03*
D10*
X184785000Y-123825000D03*
%TD*%
D11*
%TO.C,J37*%
X191770000Y-72390000D03*
X189230000Y-72390000D03*
D10*
X186690000Y-72390000D03*
%TD*%
%TO.C,J36*%
X179705000Y-72390000D03*
D11*
X177165000Y-72390000D03*
X174625000Y-72390000D03*
%TD*%
%TO.C,J35*%
X117475000Y-71120000D03*
X114935000Y-71120000D03*
D10*
X112395000Y-71120000D03*
%TD*%
D11*
%TO.C,J34*%
X161925000Y-72390000D03*
X164465000Y-72390000D03*
D10*
X167005000Y-72390000D03*
%TD*%
D11*
%TO.C,J33*%
X98425000Y-73660000D03*
X95885000Y-73660000D03*
X93345000Y-73660000D03*
X90805000Y-73660000D03*
D10*
X88265000Y-73660000D03*
%TD*%
D11*
%TO.C,J32*%
X177165000Y-113665000D03*
X179705000Y-113665000D03*
X177165000Y-116205000D03*
X179705000Y-116205000D03*
X177165000Y-118745000D03*
X179705000Y-118745000D03*
X177165000Y-121285000D03*
X179705000Y-121285000D03*
X177165000Y-123825000D03*
D10*
X179705000Y-123825000D03*
%TD*%
D11*
%TO.C,J31*%
X172085000Y-113665000D03*
X174625000Y-113665000D03*
X172085000Y-116205000D03*
X174625000Y-116205000D03*
X172085000Y-118745000D03*
X174625000Y-118745000D03*
X172085000Y-121285000D03*
X174625000Y-121285000D03*
X172085000Y-123825000D03*
D10*
X174625000Y-123825000D03*
%TD*%
D11*
%TO.C,J30*%
X162560000Y-139065000D03*
X160020000Y-139065000D03*
X162560000Y-136525000D03*
X160020000Y-136525000D03*
X162560000Y-133985000D03*
X160020000Y-133985000D03*
X162560000Y-131445000D03*
X160020000Y-131445000D03*
X162560000Y-128905000D03*
D10*
X160020000Y-128905000D03*
%TD*%
D11*
%TO.C,J29*%
X157480000Y-139065000D03*
X154940000Y-139065000D03*
X157480000Y-136525000D03*
X154940000Y-136525000D03*
X157480000Y-133985000D03*
X154940000Y-133985000D03*
X157480000Y-131445000D03*
X154940000Y-131445000D03*
X157480000Y-128905000D03*
D10*
X154940000Y-128905000D03*
%TD*%
D11*
%TO.C,J28*%
X144145000Y-128905000D03*
X146685000Y-128905000D03*
X144145000Y-131445000D03*
X146685000Y-131445000D03*
X144145000Y-133985000D03*
X146685000Y-133985000D03*
X144145000Y-136525000D03*
X146685000Y-136525000D03*
X144145000Y-139065000D03*
D10*
X146685000Y-139065000D03*
%TD*%
D11*
%TO.C,J27*%
X139065000Y-128905000D03*
X141605000Y-128905000D03*
X139065000Y-131445000D03*
X141605000Y-131445000D03*
X139065000Y-133985000D03*
X141605000Y-133985000D03*
X139065000Y-136525000D03*
X141605000Y-136525000D03*
X139065000Y-139065000D03*
D10*
X141605000Y-139065000D03*
%TD*%
D11*
%TO.C,J26*%
X133985000Y-128905000D03*
X136525000Y-128905000D03*
X133985000Y-131445000D03*
X136525000Y-131445000D03*
X133985000Y-133985000D03*
X136525000Y-133985000D03*
X133985000Y-136525000D03*
X136525000Y-136525000D03*
X133985000Y-139065000D03*
D10*
X136525000Y-139065000D03*
%TD*%
%TO.C,J25*%
X179705000Y-74930000D03*
D11*
X177165000Y-74930000D03*
X174625000Y-74930000D03*
%TD*%
%TO.C,J24*%
X117475000Y-73660000D03*
X114935000Y-73660000D03*
D10*
X112395000Y-73660000D03*
%TD*%
D11*
%TO.C,J23*%
X161925000Y-74930000D03*
X164465000Y-74930000D03*
D10*
X167005000Y-74930000D03*
%TD*%
D11*
%TO.C,J22*%
X98425000Y-76200000D03*
X95885000Y-76200000D03*
X93345000Y-76200000D03*
X90805000Y-76200000D03*
D10*
X88265000Y-76200000D03*
%TD*%
%TO.C,J21*%
X179705000Y-77470000D03*
D11*
X177165000Y-77470000D03*
X174625000Y-77470000D03*
%TD*%
%TO.C,J20*%
X117475000Y-76200000D03*
X114935000Y-76200000D03*
D10*
X112395000Y-76200000D03*
%TD*%
D11*
%TO.C,J19*%
X161925000Y-77470000D03*
X164465000Y-77470000D03*
D10*
X167005000Y-77470000D03*
%TD*%
D11*
%TO.C,J18*%
X122555000Y-128905000D03*
X125095000Y-128905000D03*
X122555000Y-131445000D03*
X125095000Y-131445000D03*
X122555000Y-133985000D03*
X125095000Y-133985000D03*
X122555000Y-136525000D03*
X125095000Y-136525000D03*
X122555000Y-139065000D03*
D10*
X125095000Y-139065000D03*
%TD*%
D11*
%TO.C,J15*%
X136652000Y-62738000D03*
X134112000Y-62738000D03*
X131572000Y-62738000D03*
D10*
X129032000Y-62738000D03*
%TD*%
D11*
%TO.C,J7*%
X181610000Y-91440000D03*
X181610000Y-88900000D03*
X184150000Y-91440000D03*
X184150000Y-88900000D03*
X186690000Y-91440000D03*
X186690000Y-88900000D03*
X189230000Y-91440000D03*
X189230000Y-88900000D03*
X191770000Y-91440000D03*
X191770000Y-88900000D03*
X194310000Y-91440000D03*
D10*
X194310000Y-88900000D03*
%TD*%
D11*
%TO.C,J3*%
X128270000Y-111760000D03*
X125730000Y-111760000D03*
X128270000Y-109220000D03*
X125730000Y-109220000D03*
X128270000Y-106680000D03*
X125730000Y-106680000D03*
X128270000Y-104140000D03*
X125730000Y-104140000D03*
X128270000Y-101600000D03*
X125730000Y-101600000D03*
X128270000Y-99060000D03*
X125730000Y-99060000D03*
X128270000Y-96520000D03*
X125730000Y-96520000D03*
X128270000Y-93980000D03*
X125730000Y-93980000D03*
X128270000Y-91440000D03*
X125730000Y-91440000D03*
X128270000Y-88900000D03*
X125730000Y-88900000D03*
X128270000Y-86360000D03*
X125730000Y-86360000D03*
X128270000Y-83820000D03*
X125730000Y-83820000D03*
X128270000Y-81280000D03*
X125730000Y-81280000D03*
X128270000Y-78740000D03*
X125730000Y-78740000D03*
X128270000Y-76200000D03*
D10*
X125730000Y-76200000D03*
%TD*%
D11*
%TO.C,J2*%
X181610000Y-86360000D03*
X181610000Y-83820000D03*
X184150000Y-86360000D03*
X184150000Y-83820000D03*
X186690000Y-86360000D03*
X186690000Y-83820000D03*
X189230000Y-86360000D03*
X189230000Y-83820000D03*
X191770000Y-86360000D03*
X191770000Y-83820000D03*
X194310000Y-86360000D03*
D10*
X194310000Y-83820000D03*
%TD*%
D11*
%TO.C,J1*%
X152400000Y-111760000D03*
X149860000Y-111760000D03*
X152400000Y-109220000D03*
X149860000Y-109220000D03*
X152400000Y-106680000D03*
X149860000Y-106680000D03*
X152400000Y-104140000D03*
X149860000Y-104140000D03*
X152400000Y-101600000D03*
X149860000Y-101600000D03*
X152400000Y-99060000D03*
X149860000Y-99060000D03*
X152400000Y-96520000D03*
X149860000Y-96520000D03*
X152400000Y-93980000D03*
X149860000Y-93980000D03*
X152400000Y-91440000D03*
X149860000Y-91440000D03*
X152400000Y-88900000D03*
X149860000Y-88900000D03*
X152400000Y-86360000D03*
X149860000Y-86360000D03*
X152400000Y-83820000D03*
X149860000Y-83820000D03*
X152400000Y-81280000D03*
X149860000Y-81280000D03*
X152400000Y-78740000D03*
X149860000Y-78740000D03*
X152400000Y-76200000D03*
D10*
X149860000Y-76200000D03*
%TD*%
D14*
%TO.C,TP43*%
X183515000Y-78105000D03*
%TD*%
%TO.C,TP42*%
X183515000Y-74295000D03*
%TD*%
%TO.C,TP41*%
X183515000Y-70485000D03*
%TD*%
%TO.C,TP40*%
X177165000Y-90170000D03*
%TD*%
%TO.C,TP39*%
X177165000Y-84455000D03*
%TD*%
%TO.C,TP38*%
X120015000Y-106680000D03*
%TD*%
%TO.C,TP38*%
X120015000Y-111125000D03*
%TD*%
%TO.C,TP37*%
X158115000Y-107315000D03*
%TD*%
%TO.C,TP37*%
X158115000Y-111760000D03*
%TD*%
%TO.C,TP36*%
X171450000Y-70485000D03*
%TD*%
%TO.C,TP35*%
X171450000Y-74930000D03*
%TD*%
%TO.C,TP34*%
X171450000Y-79375000D03*
%TD*%
%TO.C,TP33*%
X113665000Y-67310000D03*
%TD*%
%TO.C,TP32*%
X121285000Y-67310000D03*
%TD*%
%TO.C,TP31*%
X126365000Y-67310000D03*
%TD*%
%TO.C,TP30*%
X165735000Y-68580000D03*
%TD*%
%TO.C,TP29*%
X160020000Y-68580000D03*
%TD*%
%TO.C,TP28*%
X155575000Y-68580000D03*
%TD*%
%TO.C,TP27*%
X98425000Y-67310000D03*
%TD*%
%TO.C,TP26*%
X102870000Y-71755000D03*
%TD*%
%TO.C,TP25*%
X102870000Y-76200000D03*
%TD*%
%TO.C,TP24*%
X99060000Y-81915000D03*
%TD*%
%TO.C,TP23*%
X99060000Y-86995000D03*
%TD*%
%TO.C,TP22*%
X99060000Y-92075000D03*
%TD*%
%TO.C,TP21*%
X101600000Y-99060000D03*
%TD*%
%TO.C,TP20*%
X101600000Y-104140000D03*
%TD*%
%TO.C,TP19*%
X101600000Y-109220000D03*
%TD*%
%TO.C,TP18*%
X108585000Y-128270000D03*
%TD*%
%TO.C,TP17*%
X103505000Y-128270000D03*
%TD*%
%TO.C,TP16*%
X97790000Y-128270000D03*
%TD*%
%TO.C,TP15*%
X178435000Y-96520000D03*
%TD*%
%TO.C,TP14*%
X178435000Y-102235000D03*
%TD*%
%TO.C,TP13*%
X178435000Y-107315000D03*
%TD*%
%TO.C,TP12*%
X182880000Y-127000000D03*
%TD*%
%TO.C,TP11*%
X178435000Y-127000000D03*
%TD*%
%TO.C,TP10*%
X173355000Y-127000000D03*
%TD*%
%TO.C,TP9*%
X166370000Y-125095000D03*
%TD*%
%TO.C,TP8*%
X161290000Y-125095000D03*
%TD*%
%TO.C,TP7*%
X156210000Y-125095000D03*
%TD*%
%TO.C,TP6*%
X146050000Y-125095000D03*
%TD*%
%TO.C,TP5*%
X140335000Y-125095000D03*
%TD*%
%TO.C,TP4*%
X135255000Y-125095000D03*
%TD*%
%TO.C,TP3*%
X123825000Y-125095000D03*
%TD*%
%TO.C,TP2*%
X118745000Y-125095000D03*
%TD*%
%TO.C,TP1*%
X113665000Y-125095000D03*
%TD*%
D15*
%TO.C,REF\u002A\u002A*%
X139750000Y-71500000D03*
%TD*%
%TO.C,REF\u002A\u002A*%
X119750000Y-91500000D03*
%TD*%
%TO.C,REF\u002A\u002A*%
X139750000Y-111500000D03*
%TD*%
%TO.C,REF\u002A\u002A*%
X158500000Y-91500000D03*
%TD*%
D16*
%TO.C,J49*%
X176530000Y-57150000D03*
X176530000Y-59690000D03*
X176530000Y-52070000D03*
D17*
X173990000Y-50800000D03*
D16*
X173990000Y-58420000D03*
X176530000Y-54610000D03*
X173990000Y-55880000D03*
X173990000Y-53340000D03*
%TD*%
D18*
%TO.C,REF\u002A\u002A*%
X139750000Y-91500000D03*
%TD*%
M02*
