%TF.GenerationSoftware,KiCad,Pcbnew,(5.1.9)-1*%
%TF.CreationDate,2021-04-12T23:12:51+02:00*%
%TF.ProjectId,Version1Female,56657273-696f-46e3-9146-656d616c652e,rev?*%
%TF.SameCoordinates,Original*%
%TF.FileFunction,Legend,Bot*%
%TF.FilePolarity,Positive*%
%FSLAX46Y46*%
G04 Gerber Fmt 4.6, Leading zero omitted, Abs format (unit mm)*
G04 Created by KiCad (PCBNEW (5.1.9)-1) date 2021-04-12 23:12:51*
%MOMM*%
%LPD*%
G01*
G04 APERTURE LIST*
%ADD10C,0.120000*%
%ADD11C,0.150000*%
G04 APERTURE END LIST*
D10*
%TO.C,J17*%
X113030000Y-56575000D02*
X114360000Y-56575000D01*
X114360000Y-56575000D02*
X114360000Y-55245000D01*
X114360000Y-53975000D02*
X114360000Y-46295000D01*
X111700000Y-46295000D02*
X114360000Y-46295000D01*
X111700000Y-53975000D02*
X111700000Y-46295000D01*
X111700000Y-53975000D02*
X114360000Y-53975000D01*
%TO.C,J6*%
X123190000Y-56575000D02*
X124520000Y-56575000D01*
X124520000Y-56575000D02*
X124520000Y-55245000D01*
X124520000Y-53975000D02*
X124520000Y-46295000D01*
X121860000Y-46295000D02*
X124520000Y-46295000D01*
X121860000Y-53975000D02*
X121860000Y-46295000D01*
X121860000Y-53975000D02*
X124520000Y-53975000D01*
%TO.C,J14*%
X107560000Y-56575000D02*
X108890000Y-56575000D01*
X108890000Y-56575000D02*
X108890000Y-55245000D01*
X108890000Y-53975000D02*
X108890000Y-46295000D01*
X106230000Y-46295000D02*
X108890000Y-46295000D01*
X106230000Y-53975000D02*
X106230000Y-46295000D01*
X106230000Y-53975000D02*
X108890000Y-53975000D01*
%TO.C,J12*%
X128905000Y-56575000D02*
X130235000Y-56575000D01*
X130235000Y-56575000D02*
X130235000Y-55245000D01*
X130235000Y-53975000D02*
X130235000Y-46295000D01*
X127575000Y-46295000D02*
X130235000Y-46295000D01*
X127575000Y-53975000D02*
X127575000Y-46295000D01*
X127575000Y-53975000D02*
X130235000Y-53975000D01*
%TO.C,J9*%
X133985000Y-56575000D02*
X135315000Y-56575000D01*
X135315000Y-56575000D02*
X135315000Y-55245000D01*
X135315000Y-53975000D02*
X135315000Y-46295000D01*
X132655000Y-46295000D02*
X135315000Y-46295000D01*
X132655000Y-53975000D02*
X132655000Y-46295000D01*
X132655000Y-53975000D02*
X135315000Y-53975000D01*
%TO.C,J4*%
X118110000Y-56575000D02*
X119440000Y-56575000D01*
X119440000Y-56575000D02*
X119440000Y-55245000D01*
X119440000Y-53975000D02*
X119440000Y-46295000D01*
X116780000Y-46295000D02*
X119440000Y-46295000D01*
X116780000Y-53975000D02*
X116780000Y-46295000D01*
X116780000Y-53975000D02*
X119440000Y-53975000D01*
%TO.C,J59*%
X145415000Y-46295000D02*
X144085000Y-46295000D01*
X144085000Y-46295000D02*
X144085000Y-47625000D01*
X146685000Y-46295000D02*
X146685000Y-48895000D01*
X146685000Y-48895000D02*
X144085000Y-48895000D01*
X144085000Y-48895000D02*
X144085000Y-56575000D01*
X149285000Y-56575000D02*
X144085000Y-56575000D01*
X149285000Y-46295000D02*
X149285000Y-56575000D01*
X149285000Y-46295000D02*
X146685000Y-46295000D01*
%TO.C,J58*%
X157359045Y-57893949D02*
X159197522Y-59732426D01*
X157359045Y-57893949D02*
X164628102Y-50624891D01*
X164628102Y-50624891D02*
X168305058Y-54301846D01*
X162874478Y-59732426D02*
X168305058Y-54301846D01*
X161036000Y-57893949D02*
X162874478Y-59732426D01*
X159197522Y-59732426D02*
X161036000Y-57893949D01*
X161036000Y-61570904D02*
X161976452Y-60630452D01*
X160095548Y-60630452D02*
X161036000Y-61570904D01*
%TO.C,J57*%
X185360000Y-77470000D02*
X185360000Y-78800000D01*
X185360000Y-78800000D02*
X186690000Y-78800000D01*
X187960000Y-78800000D02*
X193100000Y-78800000D01*
X193100000Y-76140000D02*
X193100000Y-78800000D01*
X187960000Y-76140000D02*
X193100000Y-76140000D01*
X187960000Y-76140000D02*
X187960000Y-78800000D01*
%TO.C,J56*%
X185360000Y-74930000D02*
X185360000Y-76260000D01*
X185360000Y-76260000D02*
X186690000Y-76260000D01*
X187960000Y-76260000D02*
X193100000Y-76260000D01*
X193100000Y-73600000D02*
X193100000Y-76260000D01*
X187960000Y-73600000D02*
X193100000Y-73600000D01*
X187960000Y-73600000D02*
X187960000Y-76260000D01*
%TO.C,J55*%
X165100000Y-127575000D02*
X163770000Y-127575000D01*
X163770000Y-127575000D02*
X163770000Y-128905000D01*
X166370000Y-127575000D02*
X166370000Y-130175000D01*
X166370000Y-130175000D02*
X163770000Y-130175000D01*
X163770000Y-130175000D02*
X163770000Y-140395000D01*
X168970000Y-140395000D02*
X163770000Y-140395000D01*
X168970000Y-127575000D02*
X168970000Y-140395000D01*
X168970000Y-127575000D02*
X166370000Y-127575000D01*
%TO.C,J54*%
X120015000Y-140395000D02*
X121345000Y-140395000D01*
X121345000Y-140395000D02*
X121345000Y-139065000D01*
X118745000Y-140395000D02*
X118745000Y-137795000D01*
X118745000Y-137795000D02*
X121345000Y-137795000D01*
X121345000Y-137795000D02*
X121345000Y-127575000D01*
X116145000Y-127575000D02*
X121345000Y-127575000D01*
X116145000Y-140395000D02*
X116145000Y-127575000D01*
X116145000Y-140395000D02*
X118745000Y-140395000D01*
%TO.C,J53*%
X114935000Y-140395000D02*
X116265000Y-140395000D01*
X116265000Y-140395000D02*
X116265000Y-139065000D01*
X113665000Y-140395000D02*
X113665000Y-137795000D01*
X113665000Y-137795000D02*
X116265000Y-137795000D01*
X116265000Y-137795000D02*
X116265000Y-127575000D01*
X111065000Y-127575000D02*
X116265000Y-127575000D01*
X111065000Y-140395000D02*
X111065000Y-127575000D01*
X111065000Y-140395000D02*
X113665000Y-140395000D01*
%TO.C,J52*%
X83760000Y-83185000D02*
X83760000Y-84515000D01*
X83760000Y-84515000D02*
X85090000Y-84515000D01*
X83760000Y-81915000D02*
X86360000Y-81915000D01*
X86360000Y-81915000D02*
X86360000Y-84515000D01*
X86360000Y-84515000D02*
X96580000Y-84515000D01*
X96580000Y-79315000D02*
X96580000Y-84515000D01*
X83760000Y-79315000D02*
X96580000Y-79315000D01*
X83760000Y-79315000D02*
X83760000Y-81915000D01*
%TO.C,J51*%
X83760000Y-88265000D02*
X83760000Y-89595000D01*
X83760000Y-89595000D02*
X85090000Y-89595000D01*
X83760000Y-86995000D02*
X86360000Y-86995000D01*
X86360000Y-86995000D02*
X86360000Y-89595000D01*
X86360000Y-89595000D02*
X96580000Y-89595000D01*
X96580000Y-84395000D02*
X96580000Y-89595000D01*
X83760000Y-84395000D02*
X96580000Y-84395000D01*
X83760000Y-84395000D02*
X83760000Y-86995000D01*
%TO.C,J50*%
X83760000Y-93345000D02*
X83760000Y-94675000D01*
X83760000Y-94675000D02*
X85090000Y-94675000D01*
X83760000Y-92075000D02*
X86360000Y-92075000D01*
X86360000Y-92075000D02*
X86360000Y-94675000D01*
X86360000Y-94675000D02*
X96580000Y-94675000D01*
X96580000Y-89475000D02*
X96580000Y-94675000D01*
X83760000Y-89475000D02*
X96580000Y-89475000D01*
X83760000Y-89475000D02*
X83760000Y-92075000D01*
%TO.C,J48*%
X86300000Y-100330000D02*
X86300000Y-101660000D01*
X86300000Y-101660000D02*
X87630000Y-101660000D01*
X86300000Y-99060000D02*
X88900000Y-99060000D01*
X88900000Y-99060000D02*
X88900000Y-101660000D01*
X88900000Y-101660000D02*
X99120000Y-101660000D01*
X99120000Y-96460000D02*
X99120000Y-101660000D01*
X86300000Y-96460000D02*
X99120000Y-96460000D01*
X86300000Y-96460000D02*
X86300000Y-99060000D01*
%TO.C,J47*%
X86300000Y-105410000D02*
X86300000Y-106740000D01*
X86300000Y-106740000D02*
X87630000Y-106740000D01*
X86300000Y-104140000D02*
X88900000Y-104140000D01*
X88900000Y-104140000D02*
X88900000Y-106740000D01*
X88900000Y-106740000D02*
X99120000Y-106740000D01*
X99120000Y-101540000D02*
X99120000Y-106740000D01*
X86300000Y-101540000D02*
X99120000Y-101540000D01*
X86300000Y-101540000D02*
X86300000Y-104140000D01*
%TO.C,J46*%
X86300000Y-110490000D02*
X86300000Y-111820000D01*
X86300000Y-111820000D02*
X87630000Y-111820000D01*
X86300000Y-109220000D02*
X88900000Y-109220000D01*
X88900000Y-109220000D02*
X88900000Y-111820000D01*
X88900000Y-111820000D02*
X99120000Y-111820000D01*
X99120000Y-106620000D02*
X99120000Y-111820000D01*
X86300000Y-106620000D02*
X99120000Y-106620000D01*
X86300000Y-106620000D02*
X86300000Y-109220000D01*
%TO.C,J45*%
X86935000Y-71120000D02*
X86935000Y-72450000D01*
X86935000Y-72450000D02*
X88265000Y-72450000D01*
X89535000Y-72450000D02*
X99755000Y-72450000D01*
X99755000Y-69790000D02*
X99755000Y-72450000D01*
X89535000Y-69790000D02*
X99755000Y-69790000D01*
X89535000Y-69790000D02*
X89535000Y-72450000D01*
%TO.C,J44*%
X109855000Y-125790000D02*
X111185000Y-125790000D01*
X111185000Y-125790000D02*
X111185000Y-124460000D01*
X108585000Y-125790000D02*
X108585000Y-123190000D01*
X108585000Y-123190000D02*
X111185000Y-123190000D01*
X111185000Y-123190000D02*
X111185000Y-112970000D01*
X105985000Y-112970000D02*
X111185000Y-112970000D01*
X105985000Y-125790000D02*
X105985000Y-112970000D01*
X105985000Y-125790000D02*
X108585000Y-125790000D01*
%TO.C,J43*%
X104775000Y-125790000D02*
X106105000Y-125790000D01*
X106105000Y-125790000D02*
X106105000Y-124460000D01*
X103505000Y-125790000D02*
X103505000Y-123190000D01*
X103505000Y-123190000D02*
X106105000Y-123190000D01*
X106105000Y-123190000D02*
X106105000Y-112970000D01*
X100905000Y-112970000D02*
X106105000Y-112970000D01*
X100905000Y-125790000D02*
X100905000Y-112970000D01*
X100905000Y-125790000D02*
X103505000Y-125790000D01*
%TO.C,J42*%
X99695000Y-125790000D02*
X101025000Y-125790000D01*
X101025000Y-125790000D02*
X101025000Y-124460000D01*
X98425000Y-125790000D02*
X98425000Y-123190000D01*
X98425000Y-123190000D02*
X101025000Y-123190000D01*
X101025000Y-123190000D02*
X101025000Y-112970000D01*
X95825000Y-112970000D02*
X101025000Y-112970000D01*
X95825000Y-125790000D02*
X95825000Y-112970000D01*
X95825000Y-125790000D02*
X98425000Y-125790000D01*
%TO.C,J41*%
X193735000Y-95885000D02*
X193735000Y-94555000D01*
X193735000Y-94555000D02*
X192405000Y-94555000D01*
X193735000Y-97155000D02*
X191135000Y-97155000D01*
X191135000Y-97155000D02*
X191135000Y-94555000D01*
X191135000Y-94555000D02*
X180915000Y-94555000D01*
X180915000Y-99755000D02*
X180915000Y-94555000D01*
X193735000Y-99755000D02*
X180915000Y-99755000D01*
X193735000Y-99755000D02*
X193735000Y-97155000D01*
%TO.C,J40*%
X193735000Y-100965000D02*
X193735000Y-99635000D01*
X193735000Y-99635000D02*
X192405000Y-99635000D01*
X193735000Y-102235000D02*
X191135000Y-102235000D01*
X191135000Y-102235000D02*
X191135000Y-99635000D01*
X191135000Y-99635000D02*
X180915000Y-99635000D01*
X180915000Y-104835000D02*
X180915000Y-99635000D01*
X193735000Y-104835000D02*
X180915000Y-104835000D01*
X193735000Y-104835000D02*
X193735000Y-102235000D01*
%TO.C,J39*%
X193735000Y-106045000D02*
X193735000Y-104715000D01*
X193735000Y-104715000D02*
X192405000Y-104715000D01*
X193735000Y-107315000D02*
X191135000Y-107315000D01*
X191135000Y-107315000D02*
X191135000Y-104715000D01*
X191135000Y-104715000D02*
X180915000Y-104715000D01*
X180915000Y-109915000D02*
X180915000Y-104715000D01*
X193735000Y-109915000D02*
X180915000Y-109915000D01*
X193735000Y-109915000D02*
X193735000Y-107315000D01*
%TO.C,J38*%
X184785000Y-125155000D02*
X186115000Y-125155000D01*
X186115000Y-125155000D02*
X186115000Y-123825000D01*
X183515000Y-125155000D02*
X183515000Y-122555000D01*
X183515000Y-122555000D02*
X186115000Y-122555000D01*
X186115000Y-122555000D02*
X186115000Y-112335000D01*
X180915000Y-112335000D02*
X186115000Y-112335000D01*
X180915000Y-125155000D02*
X180915000Y-112335000D01*
X180915000Y-125155000D02*
X183515000Y-125155000D01*
%TO.C,J37*%
X185360000Y-72390000D02*
X185360000Y-73720000D01*
X185360000Y-73720000D02*
X186690000Y-73720000D01*
X187960000Y-73720000D02*
X193100000Y-73720000D01*
X193100000Y-71060000D02*
X193100000Y-73720000D01*
X187960000Y-71060000D02*
X193100000Y-71060000D01*
X187960000Y-71060000D02*
X187960000Y-73720000D01*
%TO.C,J36*%
X178435000Y-73720000D02*
X178435000Y-71060000D01*
X178435000Y-73720000D02*
X173295000Y-73720000D01*
X173295000Y-73720000D02*
X173295000Y-71060000D01*
X178435000Y-71060000D02*
X173295000Y-71060000D01*
X181035000Y-71060000D02*
X179705000Y-71060000D01*
X181035000Y-72390000D02*
X181035000Y-71060000D01*
%TO.C,J35*%
X111065000Y-71120000D02*
X111065000Y-72450000D01*
X111065000Y-72450000D02*
X112395000Y-72450000D01*
X113665000Y-72450000D02*
X118805000Y-72450000D01*
X118805000Y-69790000D02*
X118805000Y-72450000D01*
X113665000Y-69790000D02*
X118805000Y-69790000D01*
X113665000Y-69790000D02*
X113665000Y-72450000D01*
%TO.C,J34*%
X168335000Y-72390000D02*
X168335000Y-71060000D01*
X168335000Y-71060000D02*
X167005000Y-71060000D01*
X165735000Y-71060000D02*
X160595000Y-71060000D01*
X160595000Y-73720000D02*
X160595000Y-71060000D01*
X165735000Y-73720000D02*
X160595000Y-73720000D01*
X165735000Y-73720000D02*
X165735000Y-71060000D01*
%TO.C,J33*%
X86935000Y-73660000D02*
X86935000Y-74990000D01*
X86935000Y-74990000D02*
X88265000Y-74990000D01*
X89535000Y-74990000D02*
X99755000Y-74990000D01*
X99755000Y-72330000D02*
X99755000Y-74990000D01*
X89535000Y-72330000D02*
X99755000Y-72330000D01*
X89535000Y-72330000D02*
X89535000Y-74990000D01*
%TO.C,J32*%
X179705000Y-125155000D02*
X181035000Y-125155000D01*
X181035000Y-125155000D02*
X181035000Y-123825000D01*
X178435000Y-125155000D02*
X178435000Y-122555000D01*
X178435000Y-122555000D02*
X181035000Y-122555000D01*
X181035000Y-122555000D02*
X181035000Y-112335000D01*
X175835000Y-112335000D02*
X181035000Y-112335000D01*
X175835000Y-125155000D02*
X175835000Y-112335000D01*
X175835000Y-125155000D02*
X178435000Y-125155000D01*
%TO.C,J31*%
X174625000Y-125155000D02*
X175955000Y-125155000D01*
X175955000Y-125155000D02*
X175955000Y-123825000D01*
X173355000Y-125155000D02*
X173355000Y-122555000D01*
X173355000Y-122555000D02*
X175955000Y-122555000D01*
X175955000Y-122555000D02*
X175955000Y-112335000D01*
X170755000Y-112335000D02*
X175955000Y-112335000D01*
X170755000Y-125155000D02*
X170755000Y-112335000D01*
X170755000Y-125155000D02*
X173355000Y-125155000D01*
%TO.C,J30*%
X160020000Y-127575000D02*
X158690000Y-127575000D01*
X158690000Y-127575000D02*
X158690000Y-128905000D01*
X161290000Y-127575000D02*
X161290000Y-130175000D01*
X161290000Y-130175000D02*
X158690000Y-130175000D01*
X158690000Y-130175000D02*
X158690000Y-140395000D01*
X163890000Y-140395000D02*
X158690000Y-140395000D01*
X163890000Y-127575000D02*
X163890000Y-140395000D01*
X163890000Y-127575000D02*
X161290000Y-127575000D01*
%TO.C,J29*%
X154940000Y-127575000D02*
X153610000Y-127575000D01*
X153610000Y-127575000D02*
X153610000Y-128905000D01*
X156210000Y-127575000D02*
X156210000Y-130175000D01*
X156210000Y-130175000D02*
X153610000Y-130175000D01*
X153610000Y-130175000D02*
X153610000Y-140395000D01*
X158810000Y-140395000D02*
X153610000Y-140395000D01*
X158810000Y-127575000D02*
X158810000Y-140395000D01*
X158810000Y-127575000D02*
X156210000Y-127575000D01*
%TO.C,J28*%
X146685000Y-140395000D02*
X148015000Y-140395000D01*
X148015000Y-140395000D02*
X148015000Y-139065000D01*
X145415000Y-140395000D02*
X145415000Y-137795000D01*
X145415000Y-137795000D02*
X148015000Y-137795000D01*
X148015000Y-137795000D02*
X148015000Y-127575000D01*
X142815000Y-127575000D02*
X148015000Y-127575000D01*
X142815000Y-140395000D02*
X142815000Y-127575000D01*
X142815000Y-140395000D02*
X145415000Y-140395000D01*
%TO.C,J27*%
X141605000Y-140395000D02*
X142935000Y-140395000D01*
X142935000Y-140395000D02*
X142935000Y-139065000D01*
X140335000Y-140395000D02*
X140335000Y-137795000D01*
X140335000Y-137795000D02*
X142935000Y-137795000D01*
X142935000Y-137795000D02*
X142935000Y-127575000D01*
X137735000Y-127575000D02*
X142935000Y-127575000D01*
X137735000Y-140395000D02*
X137735000Y-127575000D01*
X137735000Y-140395000D02*
X140335000Y-140395000D01*
%TO.C,J26*%
X136525000Y-140395000D02*
X137855000Y-140395000D01*
X137855000Y-140395000D02*
X137855000Y-139065000D01*
X135255000Y-140395000D02*
X135255000Y-137795000D01*
X135255000Y-137795000D02*
X137855000Y-137795000D01*
X137855000Y-137795000D02*
X137855000Y-127575000D01*
X132655000Y-127575000D02*
X137855000Y-127575000D01*
X132655000Y-140395000D02*
X132655000Y-127575000D01*
X132655000Y-140395000D02*
X135255000Y-140395000D01*
%TO.C,J25*%
X178435000Y-76260000D02*
X178435000Y-73600000D01*
X178435000Y-76260000D02*
X173295000Y-76260000D01*
X173295000Y-76260000D02*
X173295000Y-73600000D01*
X178435000Y-73600000D02*
X173295000Y-73600000D01*
X181035000Y-73600000D02*
X179705000Y-73600000D01*
X181035000Y-74930000D02*
X181035000Y-73600000D01*
%TO.C,J24*%
X111065000Y-73660000D02*
X111065000Y-74990000D01*
X111065000Y-74990000D02*
X112395000Y-74990000D01*
X113665000Y-74990000D02*
X118805000Y-74990000D01*
X118805000Y-72330000D02*
X118805000Y-74990000D01*
X113665000Y-72330000D02*
X118805000Y-72330000D01*
X113665000Y-72330000D02*
X113665000Y-74990000D01*
%TO.C,J23*%
X168335000Y-74930000D02*
X168335000Y-73600000D01*
X168335000Y-73600000D02*
X167005000Y-73600000D01*
X165735000Y-73600000D02*
X160595000Y-73600000D01*
X160595000Y-76260000D02*
X160595000Y-73600000D01*
X165735000Y-76260000D02*
X160595000Y-76260000D01*
X165735000Y-76260000D02*
X165735000Y-73600000D01*
%TO.C,J22*%
X86935000Y-76200000D02*
X86935000Y-77530000D01*
X86935000Y-77530000D02*
X88265000Y-77530000D01*
X89535000Y-77530000D02*
X99755000Y-77530000D01*
X99755000Y-74870000D02*
X99755000Y-77530000D01*
X89535000Y-74870000D02*
X99755000Y-74870000D01*
X89535000Y-74870000D02*
X89535000Y-77530000D01*
%TO.C,J21*%
X178435000Y-78800000D02*
X178435000Y-76140000D01*
X178435000Y-78800000D02*
X173295000Y-78800000D01*
X173295000Y-78800000D02*
X173295000Y-76140000D01*
X178435000Y-76140000D02*
X173295000Y-76140000D01*
X181035000Y-76140000D02*
X179705000Y-76140000D01*
X181035000Y-77470000D02*
X181035000Y-76140000D01*
%TO.C,J20*%
X111065000Y-76200000D02*
X111065000Y-77530000D01*
X111065000Y-77530000D02*
X112395000Y-77530000D01*
X113665000Y-77530000D02*
X118805000Y-77530000D01*
X118805000Y-74870000D02*
X118805000Y-77530000D01*
X113665000Y-74870000D02*
X118805000Y-74870000D01*
X113665000Y-74870000D02*
X113665000Y-77530000D01*
%TO.C,J19*%
X168335000Y-77470000D02*
X168335000Y-76140000D01*
X168335000Y-76140000D02*
X167005000Y-76140000D01*
X165735000Y-76140000D02*
X160595000Y-76140000D01*
X160595000Y-78800000D02*
X160595000Y-76140000D01*
X165735000Y-78800000D02*
X160595000Y-78800000D01*
X165735000Y-78800000D02*
X165735000Y-76140000D01*
%TO.C,J18*%
X125095000Y-140395000D02*
X126425000Y-140395000D01*
X126425000Y-140395000D02*
X126425000Y-139065000D01*
X123825000Y-140395000D02*
X123825000Y-137795000D01*
X123825000Y-137795000D02*
X126425000Y-137795000D01*
X126425000Y-137795000D02*
X126425000Y-127575000D01*
X121225000Y-127575000D02*
X126425000Y-127575000D01*
X121225000Y-140395000D02*
X121225000Y-127575000D01*
X121225000Y-140395000D02*
X123825000Y-140395000D01*
%TO.C,J15*%
X127702000Y-62738000D02*
X127702000Y-64068000D01*
X127702000Y-64068000D02*
X129032000Y-64068000D01*
X130302000Y-64068000D02*
X137982000Y-64068000D01*
X137982000Y-61408000D02*
X137982000Y-64068000D01*
X130302000Y-61408000D02*
X137982000Y-61408000D01*
X130302000Y-61408000D02*
X130302000Y-64068000D01*
%TO.C,J7*%
X195640000Y-88900000D02*
X195640000Y-87570000D01*
X195640000Y-87570000D02*
X194310000Y-87570000D01*
X195640000Y-90170000D02*
X193040000Y-90170000D01*
X193040000Y-90170000D02*
X193040000Y-87570000D01*
X193040000Y-87570000D02*
X180280000Y-87570000D01*
X180280000Y-92770000D02*
X180280000Y-87570000D01*
X195640000Y-92770000D02*
X180280000Y-92770000D01*
X195640000Y-92770000D02*
X195640000Y-90170000D01*
%TO.C,J3*%
X125730000Y-74870000D02*
X124400000Y-74870000D01*
X124400000Y-74870000D02*
X124400000Y-76200000D01*
X127000000Y-74870000D02*
X127000000Y-77470000D01*
X127000000Y-77470000D02*
X124400000Y-77470000D01*
X124400000Y-77470000D02*
X124400000Y-113090000D01*
X129600000Y-113090000D02*
X124400000Y-113090000D01*
X129600000Y-74870000D02*
X129600000Y-113090000D01*
X129600000Y-74870000D02*
X127000000Y-74870000D01*
%TO.C,J2*%
X195640000Y-83820000D02*
X195640000Y-82490000D01*
X195640000Y-82490000D02*
X194310000Y-82490000D01*
X195640000Y-85090000D02*
X193040000Y-85090000D01*
X193040000Y-85090000D02*
X193040000Y-82490000D01*
X193040000Y-82490000D02*
X180280000Y-82490000D01*
X180280000Y-87690000D02*
X180280000Y-82490000D01*
X195640000Y-87690000D02*
X180280000Y-87690000D01*
X195640000Y-87690000D02*
X195640000Y-85090000D01*
%TO.C,J1*%
X149860000Y-74870000D02*
X148530000Y-74870000D01*
X148530000Y-74870000D02*
X148530000Y-76200000D01*
X151130000Y-74870000D02*
X151130000Y-77470000D01*
X151130000Y-77470000D02*
X148530000Y-77470000D01*
X148530000Y-77470000D02*
X148530000Y-113090000D01*
X153730000Y-113090000D02*
X148530000Y-113090000D01*
X153730000Y-74870000D02*
X153730000Y-113090000D01*
X153730000Y-74870000D02*
X151130000Y-74870000D01*
%TO.C,TP43*%
X181815000Y-76405000D02*
X181815000Y-79805000D01*
X181815000Y-79805000D02*
X185215000Y-79805000D01*
X185215000Y-79805000D02*
X185215000Y-76405000D01*
X185215000Y-76405000D02*
X181815000Y-76405000D01*
%TO.C,TP42*%
X181815000Y-72595000D02*
X181815000Y-75995000D01*
X181815000Y-75995000D02*
X185215000Y-75995000D01*
X185215000Y-75995000D02*
X185215000Y-72595000D01*
X185215000Y-72595000D02*
X181815000Y-72595000D01*
%TO.C,TP41*%
X181815000Y-68785000D02*
X181815000Y-72185000D01*
X181815000Y-72185000D02*
X185215000Y-72185000D01*
X185215000Y-72185000D02*
X185215000Y-68785000D01*
X185215000Y-68785000D02*
X181815000Y-68785000D01*
%TO.C,TP40*%
X178865000Y-88470000D02*
X175465000Y-88470000D01*
X175465000Y-88470000D02*
X175465000Y-91870000D01*
X175465000Y-91870000D02*
X178865000Y-91870000D01*
X178865000Y-91870000D02*
X178865000Y-88470000D01*
%TO.C,TP39*%
X178865000Y-82755000D02*
X175465000Y-82755000D01*
X175465000Y-82755000D02*
X175465000Y-86155000D01*
X175465000Y-86155000D02*
X178865000Y-86155000D01*
X178865000Y-86155000D02*
X178865000Y-82755000D01*
%TO.C,TP38*%
X118315000Y-108380000D02*
X121715000Y-108380000D01*
X121715000Y-108380000D02*
X121715000Y-104980000D01*
X121715000Y-104980000D02*
X118315000Y-104980000D01*
X118315000Y-104980000D02*
X118315000Y-108380000D01*
X118315000Y-112825000D02*
X121715000Y-112825000D01*
X121715000Y-112825000D02*
X121715000Y-109425000D01*
X121715000Y-109425000D02*
X118315000Y-109425000D01*
X118315000Y-109425000D02*
X118315000Y-112825000D01*
%TO.C,TP37*%
X156415000Y-109015000D02*
X159815000Y-109015000D01*
X159815000Y-109015000D02*
X159815000Y-105615000D01*
X159815000Y-105615000D02*
X156415000Y-105615000D01*
X156415000Y-105615000D02*
X156415000Y-109015000D01*
X156415000Y-113460000D02*
X159815000Y-113460000D01*
X159815000Y-113460000D02*
X159815000Y-110060000D01*
X159815000Y-110060000D02*
X156415000Y-110060000D01*
X156415000Y-110060000D02*
X156415000Y-113460000D01*
%TO.C,TP36*%
X169750000Y-68785000D02*
X169750000Y-72185000D01*
X169750000Y-72185000D02*
X173150000Y-72185000D01*
X173150000Y-72185000D02*
X173150000Y-68785000D01*
X173150000Y-68785000D02*
X169750000Y-68785000D01*
%TO.C,TP35*%
X169750000Y-73230000D02*
X169750000Y-76630000D01*
X169750000Y-76630000D02*
X173150000Y-76630000D01*
X173150000Y-76630000D02*
X173150000Y-73230000D01*
X173150000Y-73230000D02*
X169750000Y-73230000D01*
%TO.C,TP34*%
X169750000Y-77675000D02*
X169750000Y-81075000D01*
X169750000Y-81075000D02*
X173150000Y-81075000D01*
X173150000Y-81075000D02*
X173150000Y-77675000D01*
X173150000Y-77675000D02*
X169750000Y-77675000D01*
%TO.C,TP33*%
X111965000Y-65610000D02*
X111965000Y-69010000D01*
X111965000Y-69010000D02*
X115365000Y-69010000D01*
X115365000Y-69010000D02*
X115365000Y-65610000D01*
X115365000Y-65610000D02*
X111965000Y-65610000D01*
%TO.C,TP32*%
X119585000Y-65610000D02*
X119585000Y-69010000D01*
X119585000Y-69010000D02*
X122985000Y-69010000D01*
X122985000Y-69010000D02*
X122985000Y-65610000D01*
X122985000Y-65610000D02*
X119585000Y-65610000D01*
%TO.C,TP31*%
X124665000Y-65610000D02*
X124665000Y-69010000D01*
X124665000Y-69010000D02*
X128065000Y-69010000D01*
X128065000Y-69010000D02*
X128065000Y-65610000D01*
X128065000Y-65610000D02*
X124665000Y-65610000D01*
%TO.C,TP30*%
X164035000Y-66880000D02*
X164035000Y-70280000D01*
X164035000Y-70280000D02*
X167435000Y-70280000D01*
X167435000Y-70280000D02*
X167435000Y-66880000D01*
X167435000Y-66880000D02*
X164035000Y-66880000D01*
%TO.C,TP29*%
X158320000Y-66880000D02*
X158320000Y-70280000D01*
X158320000Y-70280000D02*
X161720000Y-70280000D01*
X161720000Y-70280000D02*
X161720000Y-66880000D01*
X161720000Y-66880000D02*
X158320000Y-66880000D01*
%TO.C,TP28*%
X153875000Y-66880000D02*
X153875000Y-70280000D01*
X153875000Y-70280000D02*
X157275000Y-70280000D01*
X157275000Y-70280000D02*
X157275000Y-66880000D01*
X157275000Y-66880000D02*
X153875000Y-66880000D01*
%TO.C,TP27*%
X100125000Y-65610000D02*
X96725000Y-65610000D01*
X96725000Y-65610000D02*
X96725000Y-69010000D01*
X96725000Y-69010000D02*
X100125000Y-69010000D01*
X100125000Y-69010000D02*
X100125000Y-65610000D01*
%TO.C,TP26*%
X101170000Y-70055000D02*
X101170000Y-73455000D01*
X101170000Y-73455000D02*
X104570000Y-73455000D01*
X104570000Y-73455000D02*
X104570000Y-70055000D01*
X104570000Y-70055000D02*
X101170000Y-70055000D01*
%TO.C,TP25*%
X101170000Y-74500000D02*
X101170000Y-77900000D01*
X101170000Y-77900000D02*
X104570000Y-77900000D01*
X104570000Y-77900000D02*
X104570000Y-74500000D01*
X104570000Y-74500000D02*
X101170000Y-74500000D01*
%TO.C,TP24*%
X97360000Y-80215000D02*
X97360000Y-83615000D01*
X97360000Y-83615000D02*
X100760000Y-83615000D01*
X100760000Y-83615000D02*
X100760000Y-80215000D01*
X100760000Y-80215000D02*
X97360000Y-80215000D01*
%TO.C,TP23*%
X97360000Y-85295000D02*
X97360000Y-88695000D01*
X97360000Y-88695000D02*
X100760000Y-88695000D01*
X100760000Y-88695000D02*
X100760000Y-85295000D01*
X100760000Y-85295000D02*
X97360000Y-85295000D01*
%TO.C,TP22*%
X97360000Y-90375000D02*
X97360000Y-93775000D01*
X97360000Y-93775000D02*
X100760000Y-93775000D01*
X100760000Y-93775000D02*
X100760000Y-90375000D01*
X100760000Y-90375000D02*
X97360000Y-90375000D01*
%TO.C,TP21*%
X99900000Y-97360000D02*
X99900000Y-100760000D01*
X99900000Y-100760000D02*
X103300000Y-100760000D01*
X103300000Y-100760000D02*
X103300000Y-97360000D01*
X103300000Y-97360000D02*
X99900000Y-97360000D01*
%TO.C,TP20*%
X99900000Y-102440000D02*
X99900000Y-105840000D01*
X99900000Y-105840000D02*
X103300000Y-105840000D01*
X103300000Y-105840000D02*
X103300000Y-102440000D01*
X103300000Y-102440000D02*
X99900000Y-102440000D01*
%TO.C,TP19*%
X99900000Y-107520000D02*
X99900000Y-110920000D01*
X99900000Y-110920000D02*
X103300000Y-110920000D01*
X103300000Y-110920000D02*
X103300000Y-107520000D01*
X103300000Y-107520000D02*
X99900000Y-107520000D01*
%TO.C,TP18*%
X106885000Y-126570000D02*
X106885000Y-129970000D01*
X106885000Y-129970000D02*
X110285000Y-129970000D01*
X110285000Y-129970000D02*
X110285000Y-126570000D01*
X110285000Y-126570000D02*
X106885000Y-126570000D01*
%TO.C,TP17*%
X101805000Y-126570000D02*
X101805000Y-129970000D01*
X101805000Y-129970000D02*
X105205000Y-129970000D01*
X105205000Y-129970000D02*
X105205000Y-126570000D01*
X105205000Y-126570000D02*
X101805000Y-126570000D01*
%TO.C,TP16*%
X96090000Y-126570000D02*
X96090000Y-129970000D01*
X96090000Y-129970000D02*
X99490000Y-129970000D01*
X99490000Y-129970000D02*
X99490000Y-126570000D01*
X99490000Y-126570000D02*
X96090000Y-126570000D01*
%TO.C,TP15*%
X176735000Y-94820000D02*
X176735000Y-98220000D01*
X176735000Y-98220000D02*
X180135000Y-98220000D01*
X180135000Y-98220000D02*
X180135000Y-94820000D01*
X180135000Y-94820000D02*
X176735000Y-94820000D01*
%TO.C,TP14*%
X176735000Y-100535000D02*
X176735000Y-103935000D01*
X176735000Y-103935000D02*
X180135000Y-103935000D01*
X180135000Y-103935000D02*
X180135000Y-100535000D01*
X180135000Y-100535000D02*
X176735000Y-100535000D01*
%TO.C,TP13*%
X176735000Y-105615000D02*
X176735000Y-109015000D01*
X176735000Y-109015000D02*
X180135000Y-109015000D01*
X180135000Y-109015000D02*
X180135000Y-105615000D01*
X180135000Y-105615000D02*
X176735000Y-105615000D01*
%TO.C,TP12*%
X181180000Y-125300000D02*
X181180000Y-128700000D01*
X181180000Y-128700000D02*
X184580000Y-128700000D01*
X184580000Y-128700000D02*
X184580000Y-125300000D01*
X184580000Y-125300000D02*
X181180000Y-125300000D01*
%TO.C,TP11*%
X176735000Y-125300000D02*
X176735000Y-128700000D01*
X176735000Y-128700000D02*
X180135000Y-128700000D01*
X180135000Y-128700000D02*
X180135000Y-125300000D01*
X180135000Y-125300000D02*
X176735000Y-125300000D01*
%TO.C,TP10*%
X175055000Y-125300000D02*
X171655000Y-125300000D01*
X171655000Y-125300000D02*
X171655000Y-128700000D01*
X171655000Y-128700000D02*
X175055000Y-128700000D01*
X175055000Y-128700000D02*
X175055000Y-125300000D01*
%TO.C,TP9*%
X168070000Y-123395000D02*
X164670000Y-123395000D01*
X164670000Y-123395000D02*
X164670000Y-126795000D01*
X164670000Y-126795000D02*
X168070000Y-126795000D01*
X168070000Y-126795000D02*
X168070000Y-123395000D01*
%TO.C,TP8*%
X162990000Y-123395000D02*
X159590000Y-123395000D01*
X159590000Y-123395000D02*
X159590000Y-126795000D01*
X159590000Y-126795000D02*
X162990000Y-126795000D01*
X162990000Y-126795000D02*
X162990000Y-123395000D01*
%TO.C,TP7*%
X157910000Y-123395000D02*
X154510000Y-123395000D01*
X154510000Y-123395000D02*
X154510000Y-126795000D01*
X154510000Y-126795000D02*
X157910000Y-126795000D01*
X157910000Y-126795000D02*
X157910000Y-123395000D01*
%TO.C,TP6*%
X144350000Y-123395000D02*
X144350000Y-126795000D01*
X144350000Y-126795000D02*
X147750000Y-126795000D01*
X147750000Y-126795000D02*
X147750000Y-123395000D01*
X147750000Y-123395000D02*
X144350000Y-123395000D01*
%TO.C,TP5*%
X138635000Y-123395000D02*
X138635000Y-126795000D01*
X138635000Y-126795000D02*
X142035000Y-126795000D01*
X142035000Y-126795000D02*
X142035000Y-123395000D01*
X142035000Y-123395000D02*
X138635000Y-123395000D01*
%TO.C,TP4*%
X133555000Y-123395000D02*
X133555000Y-126795000D01*
X133555000Y-126795000D02*
X136955000Y-126795000D01*
X136955000Y-126795000D02*
X136955000Y-123395000D01*
X136955000Y-123395000D02*
X133555000Y-123395000D01*
%TO.C,TP3*%
X122125000Y-123395000D02*
X122125000Y-126795000D01*
X122125000Y-126795000D02*
X125525000Y-126795000D01*
X125525000Y-126795000D02*
X125525000Y-123395000D01*
X125525000Y-123395000D02*
X122125000Y-123395000D01*
%TO.C,TP2*%
X117045000Y-123395000D02*
X117045000Y-126795000D01*
X117045000Y-126795000D02*
X120445000Y-126795000D01*
X120445000Y-126795000D02*
X120445000Y-123395000D01*
X120445000Y-123395000D02*
X117045000Y-123395000D01*
%TO.C,TP1*%
X111965000Y-123395000D02*
X111965000Y-126795000D01*
X111965000Y-126795000D02*
X115365000Y-126795000D01*
X115365000Y-126795000D02*
X115365000Y-123395000D01*
X115365000Y-123395000D02*
X111965000Y-123395000D01*
%TO.C,J17*%
D11*
X113839523Y-57467380D02*
X113839523Y-58181666D01*
X113887142Y-58324523D01*
X113982380Y-58419761D01*
X114125238Y-58467380D01*
X114220476Y-58467380D01*
X112839523Y-58467380D02*
X113410952Y-58467380D01*
X113125238Y-58467380D02*
X113125238Y-57467380D01*
X113220476Y-57610238D01*
X113315714Y-57705476D01*
X113410952Y-57753095D01*
X112506190Y-57467380D02*
X111839523Y-57467380D01*
X112268095Y-58467380D01*
%TO.C,J6*%
X123523333Y-57467380D02*
X123523333Y-58181666D01*
X123570952Y-58324523D01*
X123666190Y-58419761D01*
X123809047Y-58467380D01*
X123904285Y-58467380D01*
X122618571Y-57467380D02*
X122809047Y-57467380D01*
X122904285Y-57515000D01*
X122951904Y-57562619D01*
X123047142Y-57705476D01*
X123094761Y-57895952D01*
X123094761Y-58276904D01*
X123047142Y-58372142D01*
X122999523Y-58419761D01*
X122904285Y-58467380D01*
X122713809Y-58467380D01*
X122618571Y-58419761D01*
X122570952Y-58372142D01*
X122523333Y-58276904D01*
X122523333Y-58038809D01*
X122570952Y-57943571D01*
X122618571Y-57895952D01*
X122713809Y-57848333D01*
X122904285Y-57848333D01*
X122999523Y-57895952D01*
X123047142Y-57943571D01*
X123094761Y-58038809D01*
%TO.C,J14*%
X108369523Y-57467380D02*
X108369523Y-58181666D01*
X108417142Y-58324523D01*
X108512380Y-58419761D01*
X108655238Y-58467380D01*
X108750476Y-58467380D01*
X107369523Y-58467380D02*
X107940952Y-58467380D01*
X107655238Y-58467380D02*
X107655238Y-57467380D01*
X107750476Y-57610238D01*
X107845714Y-57705476D01*
X107940952Y-57753095D01*
X106512380Y-57800714D02*
X106512380Y-58467380D01*
X106750476Y-57419761D02*
X106988571Y-58134047D01*
X106369523Y-58134047D01*
%TO.C,J12*%
X129714523Y-57467380D02*
X129714523Y-58181666D01*
X129762142Y-58324523D01*
X129857380Y-58419761D01*
X130000238Y-58467380D01*
X130095476Y-58467380D01*
X128714523Y-58467380D02*
X129285952Y-58467380D01*
X129000238Y-58467380D02*
X129000238Y-57467380D01*
X129095476Y-57610238D01*
X129190714Y-57705476D01*
X129285952Y-57753095D01*
X128333571Y-57562619D02*
X128285952Y-57515000D01*
X128190714Y-57467380D01*
X127952619Y-57467380D01*
X127857380Y-57515000D01*
X127809761Y-57562619D01*
X127762142Y-57657857D01*
X127762142Y-57753095D01*
X127809761Y-57895952D01*
X128381190Y-58467380D01*
X127762142Y-58467380D01*
%TO.C,J9*%
X134318333Y-57467380D02*
X134318333Y-58181666D01*
X134365952Y-58324523D01*
X134461190Y-58419761D01*
X134604047Y-58467380D01*
X134699285Y-58467380D01*
X133794523Y-58467380D02*
X133604047Y-58467380D01*
X133508809Y-58419761D01*
X133461190Y-58372142D01*
X133365952Y-58229285D01*
X133318333Y-58038809D01*
X133318333Y-57657857D01*
X133365952Y-57562619D01*
X133413571Y-57515000D01*
X133508809Y-57467380D01*
X133699285Y-57467380D01*
X133794523Y-57515000D01*
X133842142Y-57562619D01*
X133889761Y-57657857D01*
X133889761Y-57895952D01*
X133842142Y-57991190D01*
X133794523Y-58038809D01*
X133699285Y-58086428D01*
X133508809Y-58086428D01*
X133413571Y-58038809D01*
X133365952Y-57991190D01*
X133318333Y-57895952D01*
%TO.C,J4*%
X118443333Y-57467380D02*
X118443333Y-58181666D01*
X118490952Y-58324523D01*
X118586190Y-58419761D01*
X118729047Y-58467380D01*
X118824285Y-58467380D01*
X117538571Y-57800714D02*
X117538571Y-58467380D01*
X117776666Y-57419761D02*
X118014761Y-58134047D01*
X117395714Y-58134047D01*
%TO.C,J59*%
X147494523Y-44307380D02*
X147494523Y-45021666D01*
X147542142Y-45164523D01*
X147637380Y-45259761D01*
X147780238Y-45307380D01*
X147875476Y-45307380D01*
X146542142Y-44307380D02*
X147018333Y-44307380D01*
X147065952Y-44783571D01*
X147018333Y-44735952D01*
X146923095Y-44688333D01*
X146685000Y-44688333D01*
X146589761Y-44735952D01*
X146542142Y-44783571D01*
X146494523Y-44878809D01*
X146494523Y-45116904D01*
X146542142Y-45212142D01*
X146589761Y-45259761D01*
X146685000Y-45307380D01*
X146923095Y-45307380D01*
X147018333Y-45259761D01*
X147065952Y-45212142D01*
X146018333Y-45307380D02*
X145827857Y-45307380D01*
X145732619Y-45259761D01*
X145685000Y-45212142D01*
X145589761Y-45069285D01*
X145542142Y-44878809D01*
X145542142Y-44497857D01*
X145589761Y-44402619D01*
X145637380Y-44355000D01*
X145732619Y-44307380D01*
X145923095Y-44307380D01*
X146018333Y-44355000D01*
X146065952Y-44402619D01*
X146113571Y-44497857D01*
X146113571Y-44735952D01*
X146065952Y-44831190D01*
X146018333Y-44878809D01*
X145923095Y-44926428D01*
X145732619Y-44926428D01*
X145637380Y-44878809D01*
X145589761Y-44831190D01*
X145542142Y-44735952D01*
%TO.C,J58*%
X159138933Y-60935854D02*
X158633857Y-61440930D01*
X158566514Y-61575617D01*
X158566514Y-61710304D01*
X158633857Y-61844991D01*
X158701201Y-61912335D01*
X158465498Y-60262419D02*
X158802216Y-60599137D01*
X158499170Y-60969526D01*
X158499170Y-60902182D01*
X158465498Y-60801167D01*
X158297140Y-60632808D01*
X158196124Y-60599137D01*
X158128781Y-60599137D01*
X158027766Y-60632808D01*
X157859407Y-60801167D01*
X157825735Y-60902182D01*
X157825735Y-60969526D01*
X157859407Y-61070541D01*
X158027766Y-61238900D01*
X158128781Y-61272572D01*
X158196124Y-61272572D01*
X157724720Y-60127732D02*
X157825735Y-60161404D01*
X157893079Y-60161404D01*
X157994094Y-60127732D01*
X158027766Y-60094060D01*
X158061437Y-59993045D01*
X158061437Y-59925702D01*
X158027766Y-59824686D01*
X157893079Y-59689999D01*
X157792063Y-59656328D01*
X157724720Y-59656328D01*
X157623705Y-59689999D01*
X157590033Y-59723671D01*
X157556361Y-59824686D01*
X157556361Y-59892030D01*
X157590033Y-59993045D01*
X157724720Y-60127732D01*
X157758392Y-60228747D01*
X157758392Y-60296091D01*
X157724720Y-60397106D01*
X157590033Y-60531793D01*
X157489018Y-60565465D01*
X157421674Y-60565465D01*
X157320659Y-60531793D01*
X157185972Y-60397106D01*
X157152300Y-60296091D01*
X157152300Y-60228747D01*
X157185972Y-60127732D01*
X157320659Y-59993045D01*
X157421674Y-59959373D01*
X157489018Y-59959373D01*
X157590033Y-59993045D01*
%TO.C,J57*%
X183372380Y-76660476D02*
X184086666Y-76660476D01*
X184229523Y-76612857D01*
X184324761Y-76517619D01*
X184372380Y-76374761D01*
X184372380Y-76279523D01*
X183372380Y-77612857D02*
X183372380Y-77136666D01*
X183848571Y-77089047D01*
X183800952Y-77136666D01*
X183753333Y-77231904D01*
X183753333Y-77470000D01*
X183800952Y-77565238D01*
X183848571Y-77612857D01*
X183943809Y-77660476D01*
X184181904Y-77660476D01*
X184277142Y-77612857D01*
X184324761Y-77565238D01*
X184372380Y-77470000D01*
X184372380Y-77231904D01*
X184324761Y-77136666D01*
X184277142Y-77089047D01*
X183372380Y-77993809D02*
X183372380Y-78660476D01*
X184372380Y-78231904D01*
%TO.C,J56*%
X183372380Y-74120476D02*
X184086666Y-74120476D01*
X184229523Y-74072857D01*
X184324761Y-73977619D01*
X184372380Y-73834761D01*
X184372380Y-73739523D01*
X183372380Y-75072857D02*
X183372380Y-74596666D01*
X183848571Y-74549047D01*
X183800952Y-74596666D01*
X183753333Y-74691904D01*
X183753333Y-74930000D01*
X183800952Y-75025238D01*
X183848571Y-75072857D01*
X183943809Y-75120476D01*
X184181904Y-75120476D01*
X184277142Y-75072857D01*
X184324761Y-75025238D01*
X184372380Y-74930000D01*
X184372380Y-74691904D01*
X184324761Y-74596666D01*
X184277142Y-74549047D01*
X183372380Y-75977619D02*
X183372380Y-75787142D01*
X183420000Y-75691904D01*
X183467619Y-75644285D01*
X183610476Y-75549047D01*
X183800952Y-75501428D01*
X184181904Y-75501428D01*
X184277142Y-75549047D01*
X184324761Y-75596666D01*
X184372380Y-75691904D01*
X184372380Y-75882380D01*
X184324761Y-75977619D01*
X184277142Y-76025238D01*
X184181904Y-76072857D01*
X183943809Y-76072857D01*
X183848571Y-76025238D01*
X183800952Y-75977619D01*
X183753333Y-75882380D01*
X183753333Y-75691904D01*
X183800952Y-75596666D01*
X183848571Y-75549047D01*
X183943809Y-75501428D01*
%TO.C,J55*%
X167179523Y-125587380D02*
X167179523Y-126301666D01*
X167227142Y-126444523D01*
X167322380Y-126539761D01*
X167465238Y-126587380D01*
X167560476Y-126587380D01*
X166227142Y-125587380D02*
X166703333Y-125587380D01*
X166750952Y-126063571D01*
X166703333Y-126015952D01*
X166608095Y-125968333D01*
X166370000Y-125968333D01*
X166274761Y-126015952D01*
X166227142Y-126063571D01*
X166179523Y-126158809D01*
X166179523Y-126396904D01*
X166227142Y-126492142D01*
X166274761Y-126539761D01*
X166370000Y-126587380D01*
X166608095Y-126587380D01*
X166703333Y-126539761D01*
X166750952Y-126492142D01*
X165274761Y-125587380D02*
X165750952Y-125587380D01*
X165798571Y-126063571D01*
X165750952Y-126015952D01*
X165655714Y-125968333D01*
X165417619Y-125968333D01*
X165322380Y-126015952D01*
X165274761Y-126063571D01*
X165227142Y-126158809D01*
X165227142Y-126396904D01*
X165274761Y-126492142D01*
X165322380Y-126539761D01*
X165417619Y-126587380D01*
X165655714Y-126587380D01*
X165750952Y-126539761D01*
X165798571Y-126492142D01*
%TO.C,J54*%
X119554523Y-141287380D02*
X119554523Y-142001666D01*
X119602142Y-142144523D01*
X119697380Y-142239761D01*
X119840238Y-142287380D01*
X119935476Y-142287380D01*
X118602142Y-141287380D02*
X119078333Y-141287380D01*
X119125952Y-141763571D01*
X119078333Y-141715952D01*
X118983095Y-141668333D01*
X118745000Y-141668333D01*
X118649761Y-141715952D01*
X118602142Y-141763571D01*
X118554523Y-141858809D01*
X118554523Y-142096904D01*
X118602142Y-142192142D01*
X118649761Y-142239761D01*
X118745000Y-142287380D01*
X118983095Y-142287380D01*
X119078333Y-142239761D01*
X119125952Y-142192142D01*
X117697380Y-141620714D02*
X117697380Y-142287380D01*
X117935476Y-141239761D02*
X118173571Y-141954047D01*
X117554523Y-141954047D01*
%TO.C,J53*%
X114474523Y-141287380D02*
X114474523Y-142001666D01*
X114522142Y-142144523D01*
X114617380Y-142239761D01*
X114760238Y-142287380D01*
X114855476Y-142287380D01*
X113522142Y-141287380D02*
X113998333Y-141287380D01*
X114045952Y-141763571D01*
X113998333Y-141715952D01*
X113903095Y-141668333D01*
X113665000Y-141668333D01*
X113569761Y-141715952D01*
X113522142Y-141763571D01*
X113474523Y-141858809D01*
X113474523Y-142096904D01*
X113522142Y-142192142D01*
X113569761Y-142239761D01*
X113665000Y-142287380D01*
X113903095Y-142287380D01*
X113998333Y-142239761D01*
X114045952Y-142192142D01*
X113141190Y-141287380D02*
X112522142Y-141287380D01*
X112855476Y-141668333D01*
X112712619Y-141668333D01*
X112617380Y-141715952D01*
X112569761Y-141763571D01*
X112522142Y-141858809D01*
X112522142Y-142096904D01*
X112569761Y-142192142D01*
X112617380Y-142239761D01*
X112712619Y-142287380D01*
X112998333Y-142287380D01*
X113093571Y-142239761D01*
X113141190Y-142192142D01*
%TO.C,J52*%
X81772380Y-81105476D02*
X82486666Y-81105476D01*
X82629523Y-81057857D01*
X82724761Y-80962619D01*
X82772380Y-80819761D01*
X82772380Y-80724523D01*
X81772380Y-82057857D02*
X81772380Y-81581666D01*
X82248571Y-81534047D01*
X82200952Y-81581666D01*
X82153333Y-81676904D01*
X82153333Y-81915000D01*
X82200952Y-82010238D01*
X82248571Y-82057857D01*
X82343809Y-82105476D01*
X82581904Y-82105476D01*
X82677142Y-82057857D01*
X82724761Y-82010238D01*
X82772380Y-81915000D01*
X82772380Y-81676904D01*
X82724761Y-81581666D01*
X82677142Y-81534047D01*
X81867619Y-82486428D02*
X81820000Y-82534047D01*
X81772380Y-82629285D01*
X81772380Y-82867380D01*
X81820000Y-82962619D01*
X81867619Y-83010238D01*
X81962857Y-83057857D01*
X82058095Y-83057857D01*
X82200952Y-83010238D01*
X82772380Y-82438809D01*
X82772380Y-83057857D01*
%TO.C,J51*%
X81772380Y-86185476D02*
X82486666Y-86185476D01*
X82629523Y-86137857D01*
X82724761Y-86042619D01*
X82772380Y-85899761D01*
X82772380Y-85804523D01*
X81772380Y-87137857D02*
X81772380Y-86661666D01*
X82248571Y-86614047D01*
X82200952Y-86661666D01*
X82153333Y-86756904D01*
X82153333Y-86995000D01*
X82200952Y-87090238D01*
X82248571Y-87137857D01*
X82343809Y-87185476D01*
X82581904Y-87185476D01*
X82677142Y-87137857D01*
X82724761Y-87090238D01*
X82772380Y-86995000D01*
X82772380Y-86756904D01*
X82724761Y-86661666D01*
X82677142Y-86614047D01*
X82772380Y-88137857D02*
X82772380Y-87566428D01*
X82772380Y-87852142D02*
X81772380Y-87852142D01*
X81915238Y-87756904D01*
X82010476Y-87661666D01*
X82058095Y-87566428D01*
%TO.C,J50*%
X81772380Y-91265476D02*
X82486666Y-91265476D01*
X82629523Y-91217857D01*
X82724761Y-91122619D01*
X82772380Y-90979761D01*
X82772380Y-90884523D01*
X81772380Y-92217857D02*
X81772380Y-91741666D01*
X82248571Y-91694047D01*
X82200952Y-91741666D01*
X82153333Y-91836904D01*
X82153333Y-92075000D01*
X82200952Y-92170238D01*
X82248571Y-92217857D01*
X82343809Y-92265476D01*
X82581904Y-92265476D01*
X82677142Y-92217857D01*
X82724761Y-92170238D01*
X82772380Y-92075000D01*
X82772380Y-91836904D01*
X82724761Y-91741666D01*
X82677142Y-91694047D01*
X81772380Y-92884523D02*
X81772380Y-92979761D01*
X81820000Y-93075000D01*
X81867619Y-93122619D01*
X81962857Y-93170238D01*
X82153333Y-93217857D01*
X82391428Y-93217857D01*
X82581904Y-93170238D01*
X82677142Y-93122619D01*
X82724761Y-93075000D01*
X82772380Y-92979761D01*
X82772380Y-92884523D01*
X82724761Y-92789285D01*
X82677142Y-92741666D01*
X82581904Y-92694047D01*
X82391428Y-92646428D01*
X82153333Y-92646428D01*
X81962857Y-92694047D01*
X81867619Y-92741666D01*
X81820000Y-92789285D01*
X81772380Y-92884523D01*
%TO.C,J48*%
X84312380Y-98250476D02*
X85026666Y-98250476D01*
X85169523Y-98202857D01*
X85264761Y-98107619D01*
X85312380Y-97964761D01*
X85312380Y-97869523D01*
X84645714Y-99155238D02*
X85312380Y-99155238D01*
X84264761Y-98917142D02*
X84979047Y-98679047D01*
X84979047Y-99298095D01*
X84740952Y-99821904D02*
X84693333Y-99726666D01*
X84645714Y-99679047D01*
X84550476Y-99631428D01*
X84502857Y-99631428D01*
X84407619Y-99679047D01*
X84360000Y-99726666D01*
X84312380Y-99821904D01*
X84312380Y-100012380D01*
X84360000Y-100107619D01*
X84407619Y-100155238D01*
X84502857Y-100202857D01*
X84550476Y-100202857D01*
X84645714Y-100155238D01*
X84693333Y-100107619D01*
X84740952Y-100012380D01*
X84740952Y-99821904D01*
X84788571Y-99726666D01*
X84836190Y-99679047D01*
X84931428Y-99631428D01*
X85121904Y-99631428D01*
X85217142Y-99679047D01*
X85264761Y-99726666D01*
X85312380Y-99821904D01*
X85312380Y-100012380D01*
X85264761Y-100107619D01*
X85217142Y-100155238D01*
X85121904Y-100202857D01*
X84931428Y-100202857D01*
X84836190Y-100155238D01*
X84788571Y-100107619D01*
X84740952Y-100012380D01*
%TO.C,J47*%
X84312380Y-103330476D02*
X85026666Y-103330476D01*
X85169523Y-103282857D01*
X85264761Y-103187619D01*
X85312380Y-103044761D01*
X85312380Y-102949523D01*
X84645714Y-104235238D02*
X85312380Y-104235238D01*
X84264761Y-103997142D02*
X84979047Y-103759047D01*
X84979047Y-104378095D01*
X84312380Y-104663809D02*
X84312380Y-105330476D01*
X85312380Y-104901904D01*
%TO.C,J46*%
X84312380Y-108410476D02*
X85026666Y-108410476D01*
X85169523Y-108362857D01*
X85264761Y-108267619D01*
X85312380Y-108124761D01*
X85312380Y-108029523D01*
X84645714Y-109315238D02*
X85312380Y-109315238D01*
X84264761Y-109077142D02*
X84979047Y-108839047D01*
X84979047Y-109458095D01*
X84312380Y-110267619D02*
X84312380Y-110077142D01*
X84360000Y-109981904D01*
X84407619Y-109934285D01*
X84550476Y-109839047D01*
X84740952Y-109791428D01*
X85121904Y-109791428D01*
X85217142Y-109839047D01*
X85264761Y-109886666D01*
X85312380Y-109981904D01*
X85312380Y-110172380D01*
X85264761Y-110267619D01*
X85217142Y-110315238D01*
X85121904Y-110362857D01*
X84883809Y-110362857D01*
X84788571Y-110315238D01*
X84740952Y-110267619D01*
X84693333Y-110172380D01*
X84693333Y-109981904D01*
X84740952Y-109886666D01*
X84788571Y-109839047D01*
X84883809Y-109791428D01*
%TO.C,J45*%
X84947380Y-70310476D02*
X85661666Y-70310476D01*
X85804523Y-70262857D01*
X85899761Y-70167619D01*
X85947380Y-70024761D01*
X85947380Y-69929523D01*
X85280714Y-71215238D02*
X85947380Y-71215238D01*
X84899761Y-70977142D02*
X85614047Y-70739047D01*
X85614047Y-71358095D01*
X84947380Y-72215238D02*
X84947380Y-71739047D01*
X85423571Y-71691428D01*
X85375952Y-71739047D01*
X85328333Y-71834285D01*
X85328333Y-72072380D01*
X85375952Y-72167619D01*
X85423571Y-72215238D01*
X85518809Y-72262857D01*
X85756904Y-72262857D01*
X85852142Y-72215238D01*
X85899761Y-72167619D01*
X85947380Y-72072380D01*
X85947380Y-71834285D01*
X85899761Y-71739047D01*
X85852142Y-71691428D01*
%TO.C,J44*%
X109394523Y-126682380D02*
X109394523Y-127396666D01*
X109442142Y-127539523D01*
X109537380Y-127634761D01*
X109680238Y-127682380D01*
X109775476Y-127682380D01*
X108489761Y-127015714D02*
X108489761Y-127682380D01*
X108727857Y-126634761D02*
X108965952Y-127349047D01*
X108346904Y-127349047D01*
X107537380Y-127015714D02*
X107537380Y-127682380D01*
X107775476Y-126634761D02*
X108013571Y-127349047D01*
X107394523Y-127349047D01*
%TO.C,J43*%
X104314523Y-126682380D02*
X104314523Y-127396666D01*
X104362142Y-127539523D01*
X104457380Y-127634761D01*
X104600238Y-127682380D01*
X104695476Y-127682380D01*
X103409761Y-127015714D02*
X103409761Y-127682380D01*
X103647857Y-126634761D02*
X103885952Y-127349047D01*
X103266904Y-127349047D01*
X102981190Y-126682380D02*
X102362142Y-126682380D01*
X102695476Y-127063333D01*
X102552619Y-127063333D01*
X102457380Y-127110952D01*
X102409761Y-127158571D01*
X102362142Y-127253809D01*
X102362142Y-127491904D01*
X102409761Y-127587142D01*
X102457380Y-127634761D01*
X102552619Y-127682380D01*
X102838333Y-127682380D01*
X102933571Y-127634761D01*
X102981190Y-127587142D01*
%TO.C,J42*%
X99234523Y-126682380D02*
X99234523Y-127396666D01*
X99282142Y-127539523D01*
X99377380Y-127634761D01*
X99520238Y-127682380D01*
X99615476Y-127682380D01*
X98329761Y-127015714D02*
X98329761Y-127682380D01*
X98567857Y-126634761D02*
X98805952Y-127349047D01*
X98186904Y-127349047D01*
X97853571Y-126777619D02*
X97805952Y-126730000D01*
X97710714Y-126682380D01*
X97472619Y-126682380D01*
X97377380Y-126730000D01*
X97329761Y-126777619D01*
X97282142Y-126872857D01*
X97282142Y-126968095D01*
X97329761Y-127110952D01*
X97901190Y-127682380D01*
X97282142Y-127682380D01*
%TO.C,J41*%
X194627380Y-96345476D02*
X195341666Y-96345476D01*
X195484523Y-96297857D01*
X195579761Y-96202619D01*
X195627380Y-96059761D01*
X195627380Y-95964523D01*
X194960714Y-97250238D02*
X195627380Y-97250238D01*
X194579761Y-97012142D02*
X195294047Y-96774047D01*
X195294047Y-97393095D01*
X195627380Y-98297857D02*
X195627380Y-97726428D01*
X195627380Y-98012142D02*
X194627380Y-98012142D01*
X194770238Y-97916904D01*
X194865476Y-97821666D01*
X194913095Y-97726428D01*
%TO.C,J40*%
X194627380Y-101425476D02*
X195341666Y-101425476D01*
X195484523Y-101377857D01*
X195579761Y-101282619D01*
X195627380Y-101139761D01*
X195627380Y-101044523D01*
X194960714Y-102330238D02*
X195627380Y-102330238D01*
X194579761Y-102092142D02*
X195294047Y-101854047D01*
X195294047Y-102473095D01*
X194627380Y-103044523D02*
X194627380Y-103139761D01*
X194675000Y-103235000D01*
X194722619Y-103282619D01*
X194817857Y-103330238D01*
X195008333Y-103377857D01*
X195246428Y-103377857D01*
X195436904Y-103330238D01*
X195532142Y-103282619D01*
X195579761Y-103235000D01*
X195627380Y-103139761D01*
X195627380Y-103044523D01*
X195579761Y-102949285D01*
X195532142Y-102901666D01*
X195436904Y-102854047D01*
X195246428Y-102806428D01*
X195008333Y-102806428D01*
X194817857Y-102854047D01*
X194722619Y-102901666D01*
X194675000Y-102949285D01*
X194627380Y-103044523D01*
%TO.C,J39*%
X194627380Y-106505476D02*
X195341666Y-106505476D01*
X195484523Y-106457857D01*
X195579761Y-106362619D01*
X195627380Y-106219761D01*
X195627380Y-106124523D01*
X194627380Y-106886428D02*
X194627380Y-107505476D01*
X195008333Y-107172142D01*
X195008333Y-107315000D01*
X195055952Y-107410238D01*
X195103571Y-107457857D01*
X195198809Y-107505476D01*
X195436904Y-107505476D01*
X195532142Y-107457857D01*
X195579761Y-107410238D01*
X195627380Y-107315000D01*
X195627380Y-107029285D01*
X195579761Y-106934047D01*
X195532142Y-106886428D01*
X195627380Y-107981666D02*
X195627380Y-108172142D01*
X195579761Y-108267380D01*
X195532142Y-108315000D01*
X195389285Y-108410238D01*
X195198809Y-108457857D01*
X194817857Y-108457857D01*
X194722619Y-108410238D01*
X194675000Y-108362619D01*
X194627380Y-108267380D01*
X194627380Y-108076904D01*
X194675000Y-107981666D01*
X194722619Y-107934047D01*
X194817857Y-107886428D01*
X195055952Y-107886428D01*
X195151190Y-107934047D01*
X195198809Y-107981666D01*
X195246428Y-108076904D01*
X195246428Y-108267380D01*
X195198809Y-108362619D01*
X195151190Y-108410238D01*
X195055952Y-108457857D01*
%TO.C,J38*%
X184324523Y-126047380D02*
X184324523Y-126761666D01*
X184372142Y-126904523D01*
X184467380Y-126999761D01*
X184610238Y-127047380D01*
X184705476Y-127047380D01*
X183943571Y-126047380D02*
X183324523Y-126047380D01*
X183657857Y-126428333D01*
X183515000Y-126428333D01*
X183419761Y-126475952D01*
X183372142Y-126523571D01*
X183324523Y-126618809D01*
X183324523Y-126856904D01*
X183372142Y-126952142D01*
X183419761Y-126999761D01*
X183515000Y-127047380D01*
X183800714Y-127047380D01*
X183895952Y-126999761D01*
X183943571Y-126952142D01*
X182753095Y-126475952D02*
X182848333Y-126428333D01*
X182895952Y-126380714D01*
X182943571Y-126285476D01*
X182943571Y-126237857D01*
X182895952Y-126142619D01*
X182848333Y-126095000D01*
X182753095Y-126047380D01*
X182562619Y-126047380D01*
X182467380Y-126095000D01*
X182419761Y-126142619D01*
X182372142Y-126237857D01*
X182372142Y-126285476D01*
X182419761Y-126380714D01*
X182467380Y-126428333D01*
X182562619Y-126475952D01*
X182753095Y-126475952D01*
X182848333Y-126523571D01*
X182895952Y-126571190D01*
X182943571Y-126666428D01*
X182943571Y-126856904D01*
X182895952Y-126952142D01*
X182848333Y-126999761D01*
X182753095Y-127047380D01*
X182562619Y-127047380D01*
X182467380Y-126999761D01*
X182419761Y-126952142D01*
X182372142Y-126856904D01*
X182372142Y-126666428D01*
X182419761Y-126571190D01*
X182467380Y-126523571D01*
X182562619Y-126475952D01*
%TO.C,J37*%
X183372380Y-71580476D02*
X184086666Y-71580476D01*
X184229523Y-71532857D01*
X184324761Y-71437619D01*
X184372380Y-71294761D01*
X184372380Y-71199523D01*
X183372380Y-71961428D02*
X183372380Y-72580476D01*
X183753333Y-72247142D01*
X183753333Y-72390000D01*
X183800952Y-72485238D01*
X183848571Y-72532857D01*
X183943809Y-72580476D01*
X184181904Y-72580476D01*
X184277142Y-72532857D01*
X184324761Y-72485238D01*
X184372380Y-72390000D01*
X184372380Y-72104285D01*
X184324761Y-72009047D01*
X184277142Y-71961428D01*
X183372380Y-72913809D02*
X183372380Y-73580476D01*
X184372380Y-73151904D01*
%TO.C,J36*%
X181927380Y-71580476D02*
X182641666Y-71580476D01*
X182784523Y-71532857D01*
X182879761Y-71437619D01*
X182927380Y-71294761D01*
X182927380Y-71199523D01*
X181927380Y-71961428D02*
X181927380Y-72580476D01*
X182308333Y-72247142D01*
X182308333Y-72390000D01*
X182355952Y-72485238D01*
X182403571Y-72532857D01*
X182498809Y-72580476D01*
X182736904Y-72580476D01*
X182832142Y-72532857D01*
X182879761Y-72485238D01*
X182927380Y-72390000D01*
X182927380Y-72104285D01*
X182879761Y-72009047D01*
X182832142Y-71961428D01*
X181927380Y-73437619D02*
X181927380Y-73247142D01*
X181975000Y-73151904D01*
X182022619Y-73104285D01*
X182165476Y-73009047D01*
X182355952Y-72961428D01*
X182736904Y-72961428D01*
X182832142Y-73009047D01*
X182879761Y-73056666D01*
X182927380Y-73151904D01*
X182927380Y-73342380D01*
X182879761Y-73437619D01*
X182832142Y-73485238D01*
X182736904Y-73532857D01*
X182498809Y-73532857D01*
X182403571Y-73485238D01*
X182355952Y-73437619D01*
X182308333Y-73342380D01*
X182308333Y-73151904D01*
X182355952Y-73056666D01*
X182403571Y-73009047D01*
X182498809Y-72961428D01*
%TO.C,J35*%
X109077380Y-70310476D02*
X109791666Y-70310476D01*
X109934523Y-70262857D01*
X110029761Y-70167619D01*
X110077380Y-70024761D01*
X110077380Y-69929523D01*
X109077380Y-70691428D02*
X109077380Y-71310476D01*
X109458333Y-70977142D01*
X109458333Y-71120000D01*
X109505952Y-71215238D01*
X109553571Y-71262857D01*
X109648809Y-71310476D01*
X109886904Y-71310476D01*
X109982142Y-71262857D01*
X110029761Y-71215238D01*
X110077380Y-71120000D01*
X110077380Y-70834285D01*
X110029761Y-70739047D01*
X109982142Y-70691428D01*
X109077380Y-72215238D02*
X109077380Y-71739047D01*
X109553571Y-71691428D01*
X109505952Y-71739047D01*
X109458333Y-71834285D01*
X109458333Y-72072380D01*
X109505952Y-72167619D01*
X109553571Y-72215238D01*
X109648809Y-72262857D01*
X109886904Y-72262857D01*
X109982142Y-72215238D01*
X110029761Y-72167619D01*
X110077380Y-72072380D01*
X110077380Y-71834285D01*
X110029761Y-71739047D01*
X109982142Y-71691428D01*
%TO.C,J34*%
X169227380Y-71580476D02*
X169941666Y-71580476D01*
X170084523Y-71532857D01*
X170179761Y-71437619D01*
X170227380Y-71294761D01*
X170227380Y-71199523D01*
X169227380Y-71961428D02*
X169227380Y-72580476D01*
X169608333Y-72247142D01*
X169608333Y-72390000D01*
X169655952Y-72485238D01*
X169703571Y-72532857D01*
X169798809Y-72580476D01*
X170036904Y-72580476D01*
X170132142Y-72532857D01*
X170179761Y-72485238D01*
X170227380Y-72390000D01*
X170227380Y-72104285D01*
X170179761Y-72009047D01*
X170132142Y-71961428D01*
X169560714Y-73437619D02*
X170227380Y-73437619D01*
X169179761Y-73199523D02*
X169894047Y-72961428D01*
X169894047Y-73580476D01*
%TO.C,J33*%
X84947380Y-72850476D02*
X85661666Y-72850476D01*
X85804523Y-72802857D01*
X85899761Y-72707619D01*
X85947380Y-72564761D01*
X85947380Y-72469523D01*
X84947380Y-73231428D02*
X84947380Y-73850476D01*
X85328333Y-73517142D01*
X85328333Y-73660000D01*
X85375952Y-73755238D01*
X85423571Y-73802857D01*
X85518809Y-73850476D01*
X85756904Y-73850476D01*
X85852142Y-73802857D01*
X85899761Y-73755238D01*
X85947380Y-73660000D01*
X85947380Y-73374285D01*
X85899761Y-73279047D01*
X85852142Y-73231428D01*
X84947380Y-74183809D02*
X84947380Y-74802857D01*
X85328333Y-74469523D01*
X85328333Y-74612380D01*
X85375952Y-74707619D01*
X85423571Y-74755238D01*
X85518809Y-74802857D01*
X85756904Y-74802857D01*
X85852142Y-74755238D01*
X85899761Y-74707619D01*
X85947380Y-74612380D01*
X85947380Y-74326666D01*
X85899761Y-74231428D01*
X85852142Y-74183809D01*
%TO.C,J32*%
X179244523Y-126047380D02*
X179244523Y-126761666D01*
X179292142Y-126904523D01*
X179387380Y-126999761D01*
X179530238Y-127047380D01*
X179625476Y-127047380D01*
X178863571Y-126047380D02*
X178244523Y-126047380D01*
X178577857Y-126428333D01*
X178435000Y-126428333D01*
X178339761Y-126475952D01*
X178292142Y-126523571D01*
X178244523Y-126618809D01*
X178244523Y-126856904D01*
X178292142Y-126952142D01*
X178339761Y-126999761D01*
X178435000Y-127047380D01*
X178720714Y-127047380D01*
X178815952Y-126999761D01*
X178863571Y-126952142D01*
X177863571Y-126142619D02*
X177815952Y-126095000D01*
X177720714Y-126047380D01*
X177482619Y-126047380D01*
X177387380Y-126095000D01*
X177339761Y-126142619D01*
X177292142Y-126237857D01*
X177292142Y-126333095D01*
X177339761Y-126475952D01*
X177911190Y-127047380D01*
X177292142Y-127047380D01*
%TO.C,J31*%
X174164523Y-126047380D02*
X174164523Y-126761666D01*
X174212142Y-126904523D01*
X174307380Y-126999761D01*
X174450238Y-127047380D01*
X174545476Y-127047380D01*
X173783571Y-126047380D02*
X173164523Y-126047380D01*
X173497857Y-126428333D01*
X173355000Y-126428333D01*
X173259761Y-126475952D01*
X173212142Y-126523571D01*
X173164523Y-126618809D01*
X173164523Y-126856904D01*
X173212142Y-126952142D01*
X173259761Y-126999761D01*
X173355000Y-127047380D01*
X173640714Y-127047380D01*
X173735952Y-126999761D01*
X173783571Y-126952142D01*
X172212142Y-127047380D02*
X172783571Y-127047380D01*
X172497857Y-127047380D02*
X172497857Y-126047380D01*
X172593095Y-126190238D01*
X172688333Y-126285476D01*
X172783571Y-126333095D01*
%TO.C,J30*%
X162099523Y-125587380D02*
X162099523Y-126301666D01*
X162147142Y-126444523D01*
X162242380Y-126539761D01*
X162385238Y-126587380D01*
X162480476Y-126587380D01*
X161718571Y-125587380D02*
X161099523Y-125587380D01*
X161432857Y-125968333D01*
X161290000Y-125968333D01*
X161194761Y-126015952D01*
X161147142Y-126063571D01*
X161099523Y-126158809D01*
X161099523Y-126396904D01*
X161147142Y-126492142D01*
X161194761Y-126539761D01*
X161290000Y-126587380D01*
X161575714Y-126587380D01*
X161670952Y-126539761D01*
X161718571Y-126492142D01*
X160480476Y-125587380D02*
X160385238Y-125587380D01*
X160290000Y-125635000D01*
X160242380Y-125682619D01*
X160194761Y-125777857D01*
X160147142Y-125968333D01*
X160147142Y-126206428D01*
X160194761Y-126396904D01*
X160242380Y-126492142D01*
X160290000Y-126539761D01*
X160385238Y-126587380D01*
X160480476Y-126587380D01*
X160575714Y-126539761D01*
X160623333Y-126492142D01*
X160670952Y-126396904D01*
X160718571Y-126206428D01*
X160718571Y-125968333D01*
X160670952Y-125777857D01*
X160623333Y-125682619D01*
X160575714Y-125635000D01*
X160480476Y-125587380D01*
%TO.C,J29*%
X157019523Y-125587380D02*
X157019523Y-126301666D01*
X157067142Y-126444523D01*
X157162380Y-126539761D01*
X157305238Y-126587380D01*
X157400476Y-126587380D01*
X156590952Y-125682619D02*
X156543333Y-125635000D01*
X156448095Y-125587380D01*
X156210000Y-125587380D01*
X156114761Y-125635000D01*
X156067142Y-125682619D01*
X156019523Y-125777857D01*
X156019523Y-125873095D01*
X156067142Y-126015952D01*
X156638571Y-126587380D01*
X156019523Y-126587380D01*
X155543333Y-126587380D02*
X155352857Y-126587380D01*
X155257619Y-126539761D01*
X155210000Y-126492142D01*
X155114761Y-126349285D01*
X155067142Y-126158809D01*
X155067142Y-125777857D01*
X155114761Y-125682619D01*
X155162380Y-125635000D01*
X155257619Y-125587380D01*
X155448095Y-125587380D01*
X155543333Y-125635000D01*
X155590952Y-125682619D01*
X155638571Y-125777857D01*
X155638571Y-126015952D01*
X155590952Y-126111190D01*
X155543333Y-126158809D01*
X155448095Y-126206428D01*
X155257619Y-126206428D01*
X155162380Y-126158809D01*
X155114761Y-126111190D01*
X155067142Y-126015952D01*
%TO.C,J28*%
X146224523Y-141287380D02*
X146224523Y-142001666D01*
X146272142Y-142144523D01*
X146367380Y-142239761D01*
X146510238Y-142287380D01*
X146605476Y-142287380D01*
X145795952Y-141382619D02*
X145748333Y-141335000D01*
X145653095Y-141287380D01*
X145415000Y-141287380D01*
X145319761Y-141335000D01*
X145272142Y-141382619D01*
X145224523Y-141477857D01*
X145224523Y-141573095D01*
X145272142Y-141715952D01*
X145843571Y-142287380D01*
X145224523Y-142287380D01*
X144653095Y-141715952D02*
X144748333Y-141668333D01*
X144795952Y-141620714D01*
X144843571Y-141525476D01*
X144843571Y-141477857D01*
X144795952Y-141382619D01*
X144748333Y-141335000D01*
X144653095Y-141287380D01*
X144462619Y-141287380D01*
X144367380Y-141335000D01*
X144319761Y-141382619D01*
X144272142Y-141477857D01*
X144272142Y-141525476D01*
X144319761Y-141620714D01*
X144367380Y-141668333D01*
X144462619Y-141715952D01*
X144653095Y-141715952D01*
X144748333Y-141763571D01*
X144795952Y-141811190D01*
X144843571Y-141906428D01*
X144843571Y-142096904D01*
X144795952Y-142192142D01*
X144748333Y-142239761D01*
X144653095Y-142287380D01*
X144462619Y-142287380D01*
X144367380Y-142239761D01*
X144319761Y-142192142D01*
X144272142Y-142096904D01*
X144272142Y-141906428D01*
X144319761Y-141811190D01*
X144367380Y-141763571D01*
X144462619Y-141715952D01*
%TO.C,J27*%
X141144523Y-141287380D02*
X141144523Y-142001666D01*
X141192142Y-142144523D01*
X141287380Y-142239761D01*
X141430238Y-142287380D01*
X141525476Y-142287380D01*
X140715952Y-141382619D02*
X140668333Y-141335000D01*
X140573095Y-141287380D01*
X140335000Y-141287380D01*
X140239761Y-141335000D01*
X140192142Y-141382619D01*
X140144523Y-141477857D01*
X140144523Y-141573095D01*
X140192142Y-141715952D01*
X140763571Y-142287380D01*
X140144523Y-142287380D01*
X139811190Y-141287380D02*
X139144523Y-141287380D01*
X139573095Y-142287380D01*
%TO.C,J26*%
X136064523Y-141287380D02*
X136064523Y-142001666D01*
X136112142Y-142144523D01*
X136207380Y-142239761D01*
X136350238Y-142287380D01*
X136445476Y-142287380D01*
X135635952Y-141382619D02*
X135588333Y-141335000D01*
X135493095Y-141287380D01*
X135255000Y-141287380D01*
X135159761Y-141335000D01*
X135112142Y-141382619D01*
X135064523Y-141477857D01*
X135064523Y-141573095D01*
X135112142Y-141715952D01*
X135683571Y-142287380D01*
X135064523Y-142287380D01*
X134207380Y-141287380D02*
X134397857Y-141287380D01*
X134493095Y-141335000D01*
X134540714Y-141382619D01*
X134635952Y-141525476D01*
X134683571Y-141715952D01*
X134683571Y-142096904D01*
X134635952Y-142192142D01*
X134588333Y-142239761D01*
X134493095Y-142287380D01*
X134302619Y-142287380D01*
X134207380Y-142239761D01*
X134159761Y-142192142D01*
X134112142Y-142096904D01*
X134112142Y-141858809D01*
X134159761Y-141763571D01*
X134207380Y-141715952D01*
X134302619Y-141668333D01*
X134493095Y-141668333D01*
X134588333Y-141715952D01*
X134635952Y-141763571D01*
X134683571Y-141858809D01*
%TO.C,J25*%
X181927380Y-74120476D02*
X182641666Y-74120476D01*
X182784523Y-74072857D01*
X182879761Y-73977619D01*
X182927380Y-73834761D01*
X182927380Y-73739523D01*
X182022619Y-74549047D02*
X181975000Y-74596666D01*
X181927380Y-74691904D01*
X181927380Y-74930000D01*
X181975000Y-75025238D01*
X182022619Y-75072857D01*
X182117857Y-75120476D01*
X182213095Y-75120476D01*
X182355952Y-75072857D01*
X182927380Y-74501428D01*
X182927380Y-75120476D01*
X181927380Y-76025238D02*
X181927380Y-75549047D01*
X182403571Y-75501428D01*
X182355952Y-75549047D01*
X182308333Y-75644285D01*
X182308333Y-75882380D01*
X182355952Y-75977619D01*
X182403571Y-76025238D01*
X182498809Y-76072857D01*
X182736904Y-76072857D01*
X182832142Y-76025238D01*
X182879761Y-75977619D01*
X182927380Y-75882380D01*
X182927380Y-75644285D01*
X182879761Y-75549047D01*
X182832142Y-75501428D01*
%TO.C,J24*%
X109077380Y-72850476D02*
X109791666Y-72850476D01*
X109934523Y-72802857D01*
X110029761Y-72707619D01*
X110077380Y-72564761D01*
X110077380Y-72469523D01*
X109172619Y-73279047D02*
X109125000Y-73326666D01*
X109077380Y-73421904D01*
X109077380Y-73660000D01*
X109125000Y-73755238D01*
X109172619Y-73802857D01*
X109267857Y-73850476D01*
X109363095Y-73850476D01*
X109505952Y-73802857D01*
X110077380Y-73231428D01*
X110077380Y-73850476D01*
X109410714Y-74707619D02*
X110077380Y-74707619D01*
X109029761Y-74469523D02*
X109744047Y-74231428D01*
X109744047Y-74850476D01*
%TO.C,J23*%
X169227380Y-74120476D02*
X169941666Y-74120476D01*
X170084523Y-74072857D01*
X170179761Y-73977619D01*
X170227380Y-73834761D01*
X170227380Y-73739523D01*
X169322619Y-74549047D02*
X169275000Y-74596666D01*
X169227380Y-74691904D01*
X169227380Y-74930000D01*
X169275000Y-75025238D01*
X169322619Y-75072857D01*
X169417857Y-75120476D01*
X169513095Y-75120476D01*
X169655952Y-75072857D01*
X170227380Y-74501428D01*
X170227380Y-75120476D01*
X169227380Y-75453809D02*
X169227380Y-76072857D01*
X169608333Y-75739523D01*
X169608333Y-75882380D01*
X169655952Y-75977619D01*
X169703571Y-76025238D01*
X169798809Y-76072857D01*
X170036904Y-76072857D01*
X170132142Y-76025238D01*
X170179761Y-75977619D01*
X170227380Y-75882380D01*
X170227380Y-75596666D01*
X170179761Y-75501428D01*
X170132142Y-75453809D01*
%TO.C,J22*%
X84947380Y-75390476D02*
X85661666Y-75390476D01*
X85804523Y-75342857D01*
X85899761Y-75247619D01*
X85947380Y-75104761D01*
X85947380Y-75009523D01*
X85042619Y-75819047D02*
X84995000Y-75866666D01*
X84947380Y-75961904D01*
X84947380Y-76200000D01*
X84995000Y-76295238D01*
X85042619Y-76342857D01*
X85137857Y-76390476D01*
X85233095Y-76390476D01*
X85375952Y-76342857D01*
X85947380Y-75771428D01*
X85947380Y-76390476D01*
X85042619Y-76771428D02*
X84995000Y-76819047D01*
X84947380Y-76914285D01*
X84947380Y-77152380D01*
X84995000Y-77247619D01*
X85042619Y-77295238D01*
X85137857Y-77342857D01*
X85233095Y-77342857D01*
X85375952Y-77295238D01*
X85947380Y-76723809D01*
X85947380Y-77342857D01*
%TO.C,J21*%
X181927380Y-76660476D02*
X182641666Y-76660476D01*
X182784523Y-76612857D01*
X182879761Y-76517619D01*
X182927380Y-76374761D01*
X182927380Y-76279523D01*
X182022619Y-77089047D02*
X181975000Y-77136666D01*
X181927380Y-77231904D01*
X181927380Y-77470000D01*
X181975000Y-77565238D01*
X182022619Y-77612857D01*
X182117857Y-77660476D01*
X182213095Y-77660476D01*
X182355952Y-77612857D01*
X182927380Y-77041428D01*
X182927380Y-77660476D01*
X182927380Y-78612857D02*
X182927380Y-78041428D01*
X182927380Y-78327142D02*
X181927380Y-78327142D01*
X182070238Y-78231904D01*
X182165476Y-78136666D01*
X182213095Y-78041428D01*
%TO.C,J20*%
X109077380Y-75390476D02*
X109791666Y-75390476D01*
X109934523Y-75342857D01*
X110029761Y-75247619D01*
X110077380Y-75104761D01*
X110077380Y-75009523D01*
X109172619Y-75819047D02*
X109125000Y-75866666D01*
X109077380Y-75961904D01*
X109077380Y-76200000D01*
X109125000Y-76295238D01*
X109172619Y-76342857D01*
X109267857Y-76390476D01*
X109363095Y-76390476D01*
X109505952Y-76342857D01*
X110077380Y-75771428D01*
X110077380Y-76390476D01*
X109077380Y-77009523D02*
X109077380Y-77104761D01*
X109125000Y-77200000D01*
X109172619Y-77247619D01*
X109267857Y-77295238D01*
X109458333Y-77342857D01*
X109696428Y-77342857D01*
X109886904Y-77295238D01*
X109982142Y-77247619D01*
X110029761Y-77200000D01*
X110077380Y-77104761D01*
X110077380Y-77009523D01*
X110029761Y-76914285D01*
X109982142Y-76866666D01*
X109886904Y-76819047D01*
X109696428Y-76771428D01*
X109458333Y-76771428D01*
X109267857Y-76819047D01*
X109172619Y-76866666D01*
X109125000Y-76914285D01*
X109077380Y-77009523D01*
%TO.C,J19*%
X169227380Y-76660476D02*
X169941666Y-76660476D01*
X170084523Y-76612857D01*
X170179761Y-76517619D01*
X170227380Y-76374761D01*
X170227380Y-76279523D01*
X170227380Y-77660476D02*
X170227380Y-77089047D01*
X170227380Y-77374761D02*
X169227380Y-77374761D01*
X169370238Y-77279523D01*
X169465476Y-77184285D01*
X169513095Y-77089047D01*
X170227380Y-78136666D02*
X170227380Y-78327142D01*
X170179761Y-78422380D01*
X170132142Y-78470000D01*
X169989285Y-78565238D01*
X169798809Y-78612857D01*
X169417857Y-78612857D01*
X169322619Y-78565238D01*
X169275000Y-78517619D01*
X169227380Y-78422380D01*
X169227380Y-78231904D01*
X169275000Y-78136666D01*
X169322619Y-78089047D01*
X169417857Y-78041428D01*
X169655952Y-78041428D01*
X169751190Y-78089047D01*
X169798809Y-78136666D01*
X169846428Y-78231904D01*
X169846428Y-78422380D01*
X169798809Y-78517619D01*
X169751190Y-78565238D01*
X169655952Y-78612857D01*
%TO.C,J18*%
X124634523Y-141287380D02*
X124634523Y-142001666D01*
X124682142Y-142144523D01*
X124777380Y-142239761D01*
X124920238Y-142287380D01*
X125015476Y-142287380D01*
X123634523Y-142287380D02*
X124205952Y-142287380D01*
X123920238Y-142287380D02*
X123920238Y-141287380D01*
X124015476Y-141430238D01*
X124110714Y-141525476D01*
X124205952Y-141573095D01*
X123063095Y-141715952D02*
X123158333Y-141668333D01*
X123205952Y-141620714D01*
X123253571Y-141525476D01*
X123253571Y-141477857D01*
X123205952Y-141382619D01*
X123158333Y-141335000D01*
X123063095Y-141287380D01*
X122872619Y-141287380D01*
X122777380Y-141335000D01*
X122729761Y-141382619D01*
X122682142Y-141477857D01*
X122682142Y-141525476D01*
X122729761Y-141620714D01*
X122777380Y-141668333D01*
X122872619Y-141715952D01*
X123063095Y-141715952D01*
X123158333Y-141763571D01*
X123205952Y-141811190D01*
X123253571Y-141906428D01*
X123253571Y-142096904D01*
X123205952Y-142192142D01*
X123158333Y-142239761D01*
X123063095Y-142287380D01*
X122872619Y-142287380D01*
X122777380Y-142239761D01*
X122729761Y-142192142D01*
X122682142Y-142096904D01*
X122682142Y-141906428D01*
X122729761Y-141811190D01*
X122777380Y-141763571D01*
X122872619Y-141715952D01*
%TO.C,J15*%
X125714380Y-61928476D02*
X126428666Y-61928476D01*
X126571523Y-61880857D01*
X126666761Y-61785619D01*
X126714380Y-61642761D01*
X126714380Y-61547523D01*
X126714380Y-62928476D02*
X126714380Y-62357047D01*
X126714380Y-62642761D02*
X125714380Y-62642761D01*
X125857238Y-62547523D01*
X125952476Y-62452285D01*
X126000095Y-62357047D01*
X125714380Y-63833238D02*
X125714380Y-63357047D01*
X126190571Y-63309428D01*
X126142952Y-63357047D01*
X126095333Y-63452285D01*
X126095333Y-63690380D01*
X126142952Y-63785619D01*
X126190571Y-63833238D01*
X126285809Y-63880857D01*
X126523904Y-63880857D01*
X126619142Y-63833238D01*
X126666761Y-63785619D01*
X126714380Y-63690380D01*
X126714380Y-63452285D01*
X126666761Y-63357047D01*
X126619142Y-63309428D01*
%TO.C,J7*%
X196532380Y-89836666D02*
X197246666Y-89836666D01*
X197389523Y-89789047D01*
X197484761Y-89693809D01*
X197532380Y-89550952D01*
X197532380Y-89455714D01*
X196532380Y-90217619D02*
X196532380Y-90884285D01*
X197532380Y-90455714D01*
%TO.C,J3*%
X127333333Y-72882380D02*
X127333333Y-73596666D01*
X127380952Y-73739523D01*
X127476190Y-73834761D01*
X127619047Y-73882380D01*
X127714285Y-73882380D01*
X126952380Y-72882380D02*
X126333333Y-72882380D01*
X126666666Y-73263333D01*
X126523809Y-73263333D01*
X126428571Y-73310952D01*
X126380952Y-73358571D01*
X126333333Y-73453809D01*
X126333333Y-73691904D01*
X126380952Y-73787142D01*
X126428571Y-73834761D01*
X126523809Y-73882380D01*
X126809523Y-73882380D01*
X126904761Y-73834761D01*
X126952380Y-73787142D01*
%TO.C,J2*%
X196532380Y-84756666D02*
X197246666Y-84756666D01*
X197389523Y-84709047D01*
X197484761Y-84613809D01*
X197532380Y-84470952D01*
X197532380Y-84375714D01*
X196627619Y-85185238D02*
X196580000Y-85232857D01*
X196532380Y-85328095D01*
X196532380Y-85566190D01*
X196580000Y-85661428D01*
X196627619Y-85709047D01*
X196722857Y-85756666D01*
X196818095Y-85756666D01*
X196960952Y-85709047D01*
X197532380Y-85137619D01*
X197532380Y-85756666D01*
%TO.C,J1*%
X151463333Y-72882380D02*
X151463333Y-73596666D01*
X151510952Y-73739523D01*
X151606190Y-73834761D01*
X151749047Y-73882380D01*
X151844285Y-73882380D01*
X150463333Y-73882380D02*
X151034761Y-73882380D01*
X150749047Y-73882380D02*
X150749047Y-72882380D01*
X150844285Y-73025238D01*
X150939523Y-73120476D01*
X151034761Y-73168095D01*
%TO.C,TP43*%
X180569380Y-76366904D02*
X180569380Y-76938333D01*
X181569380Y-76652619D02*
X180569380Y-76652619D01*
X181569380Y-77271666D02*
X180569380Y-77271666D01*
X180569380Y-77652619D01*
X180617000Y-77747857D01*
X180664619Y-77795476D01*
X180759857Y-77843095D01*
X180902714Y-77843095D01*
X180997952Y-77795476D01*
X181045571Y-77747857D01*
X181093190Y-77652619D01*
X181093190Y-77271666D01*
X180902714Y-78700238D02*
X181569380Y-78700238D01*
X180521761Y-78462142D02*
X181236047Y-78224047D01*
X181236047Y-78843095D01*
X180569380Y-79128809D02*
X180569380Y-79747857D01*
X180950333Y-79414523D01*
X180950333Y-79557380D01*
X180997952Y-79652619D01*
X181045571Y-79700238D01*
X181140809Y-79747857D01*
X181378904Y-79747857D01*
X181474142Y-79700238D01*
X181521761Y-79652619D01*
X181569380Y-79557380D01*
X181569380Y-79271666D01*
X181521761Y-79176428D01*
X181474142Y-79128809D01*
%TO.C,TP42*%
X180569380Y-72556904D02*
X180569380Y-73128333D01*
X181569380Y-72842619D02*
X180569380Y-72842619D01*
X181569380Y-73461666D02*
X180569380Y-73461666D01*
X180569380Y-73842619D01*
X180617000Y-73937857D01*
X180664619Y-73985476D01*
X180759857Y-74033095D01*
X180902714Y-74033095D01*
X180997952Y-73985476D01*
X181045571Y-73937857D01*
X181093190Y-73842619D01*
X181093190Y-73461666D01*
X180902714Y-74890238D02*
X181569380Y-74890238D01*
X180521761Y-74652142D02*
X181236047Y-74414047D01*
X181236047Y-75033095D01*
X180664619Y-75366428D02*
X180617000Y-75414047D01*
X180569380Y-75509285D01*
X180569380Y-75747380D01*
X180617000Y-75842619D01*
X180664619Y-75890238D01*
X180759857Y-75937857D01*
X180855095Y-75937857D01*
X180997952Y-75890238D01*
X181569380Y-75318809D01*
X181569380Y-75937857D01*
%TO.C,TP41*%
X180569380Y-68746904D02*
X180569380Y-69318333D01*
X181569380Y-69032619D02*
X180569380Y-69032619D01*
X181569380Y-69651666D02*
X180569380Y-69651666D01*
X180569380Y-70032619D01*
X180617000Y-70127857D01*
X180664619Y-70175476D01*
X180759857Y-70223095D01*
X180902714Y-70223095D01*
X180997952Y-70175476D01*
X181045571Y-70127857D01*
X181093190Y-70032619D01*
X181093190Y-69651666D01*
X180902714Y-71080238D02*
X181569380Y-71080238D01*
X180521761Y-70842142D02*
X181236047Y-70604047D01*
X181236047Y-71223095D01*
X181569380Y-72127857D02*
X181569380Y-71556428D01*
X181569380Y-71842142D02*
X180569380Y-71842142D01*
X180712238Y-71746904D01*
X180807476Y-71651666D01*
X180855095Y-71556428D01*
%TO.C,TP40*%
X178903095Y-87224380D02*
X178331666Y-87224380D01*
X178617380Y-88224380D02*
X178617380Y-87224380D01*
X177998333Y-88224380D02*
X177998333Y-87224380D01*
X177617380Y-87224380D01*
X177522142Y-87272000D01*
X177474523Y-87319619D01*
X177426904Y-87414857D01*
X177426904Y-87557714D01*
X177474523Y-87652952D01*
X177522142Y-87700571D01*
X177617380Y-87748190D01*
X177998333Y-87748190D01*
X176569761Y-87557714D02*
X176569761Y-88224380D01*
X176807857Y-87176761D02*
X177045952Y-87891047D01*
X176426904Y-87891047D01*
X175855476Y-87224380D02*
X175760238Y-87224380D01*
X175665000Y-87272000D01*
X175617380Y-87319619D01*
X175569761Y-87414857D01*
X175522142Y-87605333D01*
X175522142Y-87843428D01*
X175569761Y-88033904D01*
X175617380Y-88129142D01*
X175665000Y-88176761D01*
X175760238Y-88224380D01*
X175855476Y-88224380D01*
X175950714Y-88176761D01*
X175998333Y-88129142D01*
X176045952Y-88033904D01*
X176093571Y-87843428D01*
X176093571Y-87605333D01*
X176045952Y-87414857D01*
X175998333Y-87319619D01*
X175950714Y-87272000D01*
X175855476Y-87224380D01*
%TO.C,TP39*%
X178903095Y-81509380D02*
X178331666Y-81509380D01*
X178617380Y-82509380D02*
X178617380Y-81509380D01*
X177998333Y-82509380D02*
X177998333Y-81509380D01*
X177617380Y-81509380D01*
X177522142Y-81557000D01*
X177474523Y-81604619D01*
X177426904Y-81699857D01*
X177426904Y-81842714D01*
X177474523Y-81937952D01*
X177522142Y-81985571D01*
X177617380Y-82033190D01*
X177998333Y-82033190D01*
X177093571Y-81509380D02*
X176474523Y-81509380D01*
X176807857Y-81890333D01*
X176665000Y-81890333D01*
X176569761Y-81937952D01*
X176522142Y-81985571D01*
X176474523Y-82080809D01*
X176474523Y-82318904D01*
X176522142Y-82414142D01*
X176569761Y-82461761D01*
X176665000Y-82509380D01*
X176950714Y-82509380D01*
X177045952Y-82461761D01*
X177093571Y-82414142D01*
X175998333Y-82509380D02*
X175807857Y-82509380D01*
X175712619Y-82461761D01*
X175665000Y-82414142D01*
X175569761Y-82271285D01*
X175522142Y-82080809D01*
X175522142Y-81699857D01*
X175569761Y-81604619D01*
X175617380Y-81557000D01*
X175712619Y-81509380D01*
X175903095Y-81509380D01*
X175998333Y-81557000D01*
X176045952Y-81604619D01*
X176093571Y-81699857D01*
X176093571Y-81937952D01*
X176045952Y-82033190D01*
X175998333Y-82080809D01*
X175903095Y-82128428D01*
X175712619Y-82128428D01*
X175617380Y-82080809D01*
X175569761Y-82033190D01*
X175522142Y-81937952D01*
%TO.C,TP38*%
X121753095Y-108530380D02*
X121181666Y-108530380D01*
X121467380Y-109530380D02*
X121467380Y-108530380D01*
X120848333Y-109530380D02*
X120848333Y-108530380D01*
X120467380Y-108530380D01*
X120372142Y-108578000D01*
X120324523Y-108625619D01*
X120276904Y-108720857D01*
X120276904Y-108863714D01*
X120324523Y-108958952D01*
X120372142Y-109006571D01*
X120467380Y-109054190D01*
X120848333Y-109054190D01*
X119943571Y-108530380D02*
X119324523Y-108530380D01*
X119657857Y-108911333D01*
X119515000Y-108911333D01*
X119419761Y-108958952D01*
X119372142Y-109006571D01*
X119324523Y-109101809D01*
X119324523Y-109339904D01*
X119372142Y-109435142D01*
X119419761Y-109482761D01*
X119515000Y-109530380D01*
X119800714Y-109530380D01*
X119895952Y-109482761D01*
X119943571Y-109435142D01*
X118753095Y-108958952D02*
X118848333Y-108911333D01*
X118895952Y-108863714D01*
X118943571Y-108768476D01*
X118943571Y-108720857D01*
X118895952Y-108625619D01*
X118848333Y-108578000D01*
X118753095Y-108530380D01*
X118562619Y-108530380D01*
X118467380Y-108578000D01*
X118419761Y-108625619D01*
X118372142Y-108720857D01*
X118372142Y-108768476D01*
X118419761Y-108863714D01*
X118467380Y-108911333D01*
X118562619Y-108958952D01*
X118753095Y-108958952D01*
X118848333Y-109006571D01*
X118895952Y-109054190D01*
X118943571Y-109149428D01*
X118943571Y-109339904D01*
X118895952Y-109435142D01*
X118848333Y-109482761D01*
X118753095Y-109530380D01*
X118562619Y-109530380D01*
X118467380Y-109482761D01*
X118419761Y-109435142D01*
X118372142Y-109339904D01*
X118372142Y-109149428D01*
X118419761Y-109054190D01*
X118467380Y-109006571D01*
X118562619Y-108958952D01*
X121753095Y-112975380D02*
X121181666Y-112975380D01*
X121467380Y-113975380D02*
X121467380Y-112975380D01*
X120848333Y-113975380D02*
X120848333Y-112975380D01*
X120467380Y-112975380D01*
X120372142Y-113023000D01*
X120324523Y-113070619D01*
X120276904Y-113165857D01*
X120276904Y-113308714D01*
X120324523Y-113403952D01*
X120372142Y-113451571D01*
X120467380Y-113499190D01*
X120848333Y-113499190D01*
X119943571Y-112975380D02*
X119324523Y-112975380D01*
X119657857Y-113356333D01*
X119515000Y-113356333D01*
X119419761Y-113403952D01*
X119372142Y-113451571D01*
X119324523Y-113546809D01*
X119324523Y-113784904D01*
X119372142Y-113880142D01*
X119419761Y-113927761D01*
X119515000Y-113975380D01*
X119800714Y-113975380D01*
X119895952Y-113927761D01*
X119943571Y-113880142D01*
X118753095Y-113403952D02*
X118848333Y-113356333D01*
X118895952Y-113308714D01*
X118943571Y-113213476D01*
X118943571Y-113165857D01*
X118895952Y-113070619D01*
X118848333Y-113023000D01*
X118753095Y-112975380D01*
X118562619Y-112975380D01*
X118467380Y-113023000D01*
X118419761Y-113070619D01*
X118372142Y-113165857D01*
X118372142Y-113213476D01*
X118419761Y-113308714D01*
X118467380Y-113356333D01*
X118562619Y-113403952D01*
X118753095Y-113403952D01*
X118848333Y-113451571D01*
X118895952Y-113499190D01*
X118943571Y-113594428D01*
X118943571Y-113784904D01*
X118895952Y-113880142D01*
X118848333Y-113927761D01*
X118753095Y-113975380D01*
X118562619Y-113975380D01*
X118467380Y-113927761D01*
X118419761Y-113880142D01*
X118372142Y-113784904D01*
X118372142Y-113594428D01*
X118419761Y-113499190D01*
X118467380Y-113451571D01*
X118562619Y-113403952D01*
%TO.C,TP37*%
X159853095Y-109165380D02*
X159281666Y-109165380D01*
X159567380Y-110165380D02*
X159567380Y-109165380D01*
X158948333Y-110165380D02*
X158948333Y-109165380D01*
X158567380Y-109165380D01*
X158472142Y-109213000D01*
X158424523Y-109260619D01*
X158376904Y-109355857D01*
X158376904Y-109498714D01*
X158424523Y-109593952D01*
X158472142Y-109641571D01*
X158567380Y-109689190D01*
X158948333Y-109689190D01*
X158043571Y-109165380D02*
X157424523Y-109165380D01*
X157757857Y-109546333D01*
X157615000Y-109546333D01*
X157519761Y-109593952D01*
X157472142Y-109641571D01*
X157424523Y-109736809D01*
X157424523Y-109974904D01*
X157472142Y-110070142D01*
X157519761Y-110117761D01*
X157615000Y-110165380D01*
X157900714Y-110165380D01*
X157995952Y-110117761D01*
X158043571Y-110070142D01*
X157091190Y-109165380D02*
X156424523Y-109165380D01*
X156853095Y-110165380D01*
X159853095Y-113610380D02*
X159281666Y-113610380D01*
X159567380Y-114610380D02*
X159567380Y-113610380D01*
X158948333Y-114610380D02*
X158948333Y-113610380D01*
X158567380Y-113610380D01*
X158472142Y-113658000D01*
X158424523Y-113705619D01*
X158376904Y-113800857D01*
X158376904Y-113943714D01*
X158424523Y-114038952D01*
X158472142Y-114086571D01*
X158567380Y-114134190D01*
X158948333Y-114134190D01*
X158043571Y-113610380D02*
X157424523Y-113610380D01*
X157757857Y-113991333D01*
X157615000Y-113991333D01*
X157519761Y-114038952D01*
X157472142Y-114086571D01*
X157424523Y-114181809D01*
X157424523Y-114419904D01*
X157472142Y-114515142D01*
X157519761Y-114562761D01*
X157615000Y-114610380D01*
X157900714Y-114610380D01*
X157995952Y-114562761D01*
X158043571Y-114515142D01*
X157091190Y-113610380D02*
X156424523Y-113610380D01*
X156853095Y-114610380D01*
%TO.C,TP36*%
X168504380Y-68746904D02*
X168504380Y-69318333D01*
X169504380Y-69032619D02*
X168504380Y-69032619D01*
X169504380Y-69651666D02*
X168504380Y-69651666D01*
X168504380Y-70032619D01*
X168552000Y-70127857D01*
X168599619Y-70175476D01*
X168694857Y-70223095D01*
X168837714Y-70223095D01*
X168932952Y-70175476D01*
X168980571Y-70127857D01*
X169028190Y-70032619D01*
X169028190Y-69651666D01*
X168504380Y-70556428D02*
X168504380Y-71175476D01*
X168885333Y-70842142D01*
X168885333Y-70985000D01*
X168932952Y-71080238D01*
X168980571Y-71127857D01*
X169075809Y-71175476D01*
X169313904Y-71175476D01*
X169409142Y-71127857D01*
X169456761Y-71080238D01*
X169504380Y-70985000D01*
X169504380Y-70699285D01*
X169456761Y-70604047D01*
X169409142Y-70556428D01*
X168504380Y-72032619D02*
X168504380Y-71842142D01*
X168552000Y-71746904D01*
X168599619Y-71699285D01*
X168742476Y-71604047D01*
X168932952Y-71556428D01*
X169313904Y-71556428D01*
X169409142Y-71604047D01*
X169456761Y-71651666D01*
X169504380Y-71746904D01*
X169504380Y-71937380D01*
X169456761Y-72032619D01*
X169409142Y-72080238D01*
X169313904Y-72127857D01*
X169075809Y-72127857D01*
X168980571Y-72080238D01*
X168932952Y-72032619D01*
X168885333Y-71937380D01*
X168885333Y-71746904D01*
X168932952Y-71651666D01*
X168980571Y-71604047D01*
X169075809Y-71556428D01*
%TO.C,TP35*%
X168504380Y-73191904D02*
X168504380Y-73763333D01*
X169504380Y-73477619D02*
X168504380Y-73477619D01*
X169504380Y-74096666D02*
X168504380Y-74096666D01*
X168504380Y-74477619D01*
X168552000Y-74572857D01*
X168599619Y-74620476D01*
X168694857Y-74668095D01*
X168837714Y-74668095D01*
X168932952Y-74620476D01*
X168980571Y-74572857D01*
X169028190Y-74477619D01*
X169028190Y-74096666D01*
X168504380Y-75001428D02*
X168504380Y-75620476D01*
X168885333Y-75287142D01*
X168885333Y-75430000D01*
X168932952Y-75525238D01*
X168980571Y-75572857D01*
X169075809Y-75620476D01*
X169313904Y-75620476D01*
X169409142Y-75572857D01*
X169456761Y-75525238D01*
X169504380Y-75430000D01*
X169504380Y-75144285D01*
X169456761Y-75049047D01*
X169409142Y-75001428D01*
X168504380Y-76525238D02*
X168504380Y-76049047D01*
X168980571Y-76001428D01*
X168932952Y-76049047D01*
X168885333Y-76144285D01*
X168885333Y-76382380D01*
X168932952Y-76477619D01*
X168980571Y-76525238D01*
X169075809Y-76572857D01*
X169313904Y-76572857D01*
X169409142Y-76525238D01*
X169456761Y-76477619D01*
X169504380Y-76382380D01*
X169504380Y-76144285D01*
X169456761Y-76049047D01*
X169409142Y-76001428D01*
%TO.C,TP34*%
X168504380Y-77636904D02*
X168504380Y-78208333D01*
X169504380Y-77922619D02*
X168504380Y-77922619D01*
X169504380Y-78541666D02*
X168504380Y-78541666D01*
X168504380Y-78922619D01*
X168552000Y-79017857D01*
X168599619Y-79065476D01*
X168694857Y-79113095D01*
X168837714Y-79113095D01*
X168932952Y-79065476D01*
X168980571Y-79017857D01*
X169028190Y-78922619D01*
X169028190Y-78541666D01*
X168504380Y-79446428D02*
X168504380Y-80065476D01*
X168885333Y-79732142D01*
X168885333Y-79875000D01*
X168932952Y-79970238D01*
X168980571Y-80017857D01*
X169075809Y-80065476D01*
X169313904Y-80065476D01*
X169409142Y-80017857D01*
X169456761Y-79970238D01*
X169504380Y-79875000D01*
X169504380Y-79589285D01*
X169456761Y-79494047D01*
X169409142Y-79446428D01*
X168837714Y-80922619D02*
X169504380Y-80922619D01*
X168456761Y-80684523D02*
X169171047Y-80446428D01*
X169171047Y-81065476D01*
%TO.C,TP33*%
X110719380Y-65571904D02*
X110719380Y-66143333D01*
X111719380Y-65857619D02*
X110719380Y-65857619D01*
X111719380Y-66476666D02*
X110719380Y-66476666D01*
X110719380Y-66857619D01*
X110767000Y-66952857D01*
X110814619Y-67000476D01*
X110909857Y-67048095D01*
X111052714Y-67048095D01*
X111147952Y-67000476D01*
X111195571Y-66952857D01*
X111243190Y-66857619D01*
X111243190Y-66476666D01*
X110719380Y-67381428D02*
X110719380Y-68000476D01*
X111100333Y-67667142D01*
X111100333Y-67810000D01*
X111147952Y-67905238D01*
X111195571Y-67952857D01*
X111290809Y-68000476D01*
X111528904Y-68000476D01*
X111624142Y-67952857D01*
X111671761Y-67905238D01*
X111719380Y-67810000D01*
X111719380Y-67524285D01*
X111671761Y-67429047D01*
X111624142Y-67381428D01*
X110719380Y-68333809D02*
X110719380Y-68952857D01*
X111100333Y-68619523D01*
X111100333Y-68762380D01*
X111147952Y-68857619D01*
X111195571Y-68905238D01*
X111290809Y-68952857D01*
X111528904Y-68952857D01*
X111624142Y-68905238D01*
X111671761Y-68857619D01*
X111719380Y-68762380D01*
X111719380Y-68476666D01*
X111671761Y-68381428D01*
X111624142Y-68333809D01*
%TO.C,TP32*%
X118339380Y-65571904D02*
X118339380Y-66143333D01*
X119339380Y-65857619D02*
X118339380Y-65857619D01*
X119339380Y-66476666D02*
X118339380Y-66476666D01*
X118339380Y-66857619D01*
X118387000Y-66952857D01*
X118434619Y-67000476D01*
X118529857Y-67048095D01*
X118672714Y-67048095D01*
X118767952Y-67000476D01*
X118815571Y-66952857D01*
X118863190Y-66857619D01*
X118863190Y-66476666D01*
X118339380Y-67381428D02*
X118339380Y-68000476D01*
X118720333Y-67667142D01*
X118720333Y-67810000D01*
X118767952Y-67905238D01*
X118815571Y-67952857D01*
X118910809Y-68000476D01*
X119148904Y-68000476D01*
X119244142Y-67952857D01*
X119291761Y-67905238D01*
X119339380Y-67810000D01*
X119339380Y-67524285D01*
X119291761Y-67429047D01*
X119244142Y-67381428D01*
X118434619Y-68381428D02*
X118387000Y-68429047D01*
X118339380Y-68524285D01*
X118339380Y-68762380D01*
X118387000Y-68857619D01*
X118434619Y-68905238D01*
X118529857Y-68952857D01*
X118625095Y-68952857D01*
X118767952Y-68905238D01*
X119339380Y-68333809D01*
X119339380Y-68952857D01*
%TO.C,TP31*%
X123419380Y-65571904D02*
X123419380Y-66143333D01*
X124419380Y-65857619D02*
X123419380Y-65857619D01*
X124419380Y-66476666D02*
X123419380Y-66476666D01*
X123419380Y-66857619D01*
X123467000Y-66952857D01*
X123514619Y-67000476D01*
X123609857Y-67048095D01*
X123752714Y-67048095D01*
X123847952Y-67000476D01*
X123895571Y-66952857D01*
X123943190Y-66857619D01*
X123943190Y-66476666D01*
X123419380Y-67381428D02*
X123419380Y-68000476D01*
X123800333Y-67667142D01*
X123800333Y-67810000D01*
X123847952Y-67905238D01*
X123895571Y-67952857D01*
X123990809Y-68000476D01*
X124228904Y-68000476D01*
X124324142Y-67952857D01*
X124371761Y-67905238D01*
X124419380Y-67810000D01*
X124419380Y-67524285D01*
X124371761Y-67429047D01*
X124324142Y-67381428D01*
X124419380Y-68952857D02*
X124419380Y-68381428D01*
X124419380Y-68667142D02*
X123419380Y-68667142D01*
X123562238Y-68571904D01*
X123657476Y-68476666D01*
X123705095Y-68381428D01*
%TO.C,TP30*%
X162789380Y-66841904D02*
X162789380Y-67413333D01*
X163789380Y-67127619D02*
X162789380Y-67127619D01*
X163789380Y-67746666D02*
X162789380Y-67746666D01*
X162789380Y-68127619D01*
X162837000Y-68222857D01*
X162884619Y-68270476D01*
X162979857Y-68318095D01*
X163122714Y-68318095D01*
X163217952Y-68270476D01*
X163265571Y-68222857D01*
X163313190Y-68127619D01*
X163313190Y-67746666D01*
X162789380Y-68651428D02*
X162789380Y-69270476D01*
X163170333Y-68937142D01*
X163170333Y-69080000D01*
X163217952Y-69175238D01*
X163265571Y-69222857D01*
X163360809Y-69270476D01*
X163598904Y-69270476D01*
X163694142Y-69222857D01*
X163741761Y-69175238D01*
X163789380Y-69080000D01*
X163789380Y-68794285D01*
X163741761Y-68699047D01*
X163694142Y-68651428D01*
X162789380Y-69889523D02*
X162789380Y-69984761D01*
X162837000Y-70080000D01*
X162884619Y-70127619D01*
X162979857Y-70175238D01*
X163170333Y-70222857D01*
X163408428Y-70222857D01*
X163598904Y-70175238D01*
X163694142Y-70127619D01*
X163741761Y-70080000D01*
X163789380Y-69984761D01*
X163789380Y-69889523D01*
X163741761Y-69794285D01*
X163694142Y-69746666D01*
X163598904Y-69699047D01*
X163408428Y-69651428D01*
X163170333Y-69651428D01*
X162979857Y-69699047D01*
X162884619Y-69746666D01*
X162837000Y-69794285D01*
X162789380Y-69889523D01*
%TO.C,TP29*%
X157074380Y-66841904D02*
X157074380Y-67413333D01*
X158074380Y-67127619D02*
X157074380Y-67127619D01*
X158074380Y-67746666D02*
X157074380Y-67746666D01*
X157074380Y-68127619D01*
X157122000Y-68222857D01*
X157169619Y-68270476D01*
X157264857Y-68318095D01*
X157407714Y-68318095D01*
X157502952Y-68270476D01*
X157550571Y-68222857D01*
X157598190Y-68127619D01*
X157598190Y-67746666D01*
X157169619Y-68699047D02*
X157122000Y-68746666D01*
X157074380Y-68841904D01*
X157074380Y-69080000D01*
X157122000Y-69175238D01*
X157169619Y-69222857D01*
X157264857Y-69270476D01*
X157360095Y-69270476D01*
X157502952Y-69222857D01*
X158074380Y-68651428D01*
X158074380Y-69270476D01*
X158074380Y-69746666D02*
X158074380Y-69937142D01*
X158026761Y-70032380D01*
X157979142Y-70080000D01*
X157836285Y-70175238D01*
X157645809Y-70222857D01*
X157264857Y-70222857D01*
X157169619Y-70175238D01*
X157122000Y-70127619D01*
X157074380Y-70032380D01*
X157074380Y-69841904D01*
X157122000Y-69746666D01*
X157169619Y-69699047D01*
X157264857Y-69651428D01*
X157502952Y-69651428D01*
X157598190Y-69699047D01*
X157645809Y-69746666D01*
X157693428Y-69841904D01*
X157693428Y-70032380D01*
X157645809Y-70127619D01*
X157598190Y-70175238D01*
X157502952Y-70222857D01*
%TO.C,TP28*%
X152629380Y-66841904D02*
X152629380Y-67413333D01*
X153629380Y-67127619D02*
X152629380Y-67127619D01*
X153629380Y-67746666D02*
X152629380Y-67746666D01*
X152629380Y-68127619D01*
X152677000Y-68222857D01*
X152724619Y-68270476D01*
X152819857Y-68318095D01*
X152962714Y-68318095D01*
X153057952Y-68270476D01*
X153105571Y-68222857D01*
X153153190Y-68127619D01*
X153153190Y-67746666D01*
X152724619Y-68699047D02*
X152677000Y-68746666D01*
X152629380Y-68841904D01*
X152629380Y-69080000D01*
X152677000Y-69175238D01*
X152724619Y-69222857D01*
X152819857Y-69270476D01*
X152915095Y-69270476D01*
X153057952Y-69222857D01*
X153629380Y-68651428D01*
X153629380Y-69270476D01*
X153057952Y-69841904D02*
X153010333Y-69746666D01*
X152962714Y-69699047D01*
X152867476Y-69651428D01*
X152819857Y-69651428D01*
X152724619Y-69699047D01*
X152677000Y-69746666D01*
X152629380Y-69841904D01*
X152629380Y-70032380D01*
X152677000Y-70127619D01*
X152724619Y-70175238D01*
X152819857Y-70222857D01*
X152867476Y-70222857D01*
X152962714Y-70175238D01*
X153010333Y-70127619D01*
X153057952Y-70032380D01*
X153057952Y-69841904D01*
X153105571Y-69746666D01*
X153153190Y-69699047D01*
X153248428Y-69651428D01*
X153438904Y-69651428D01*
X153534142Y-69699047D01*
X153581761Y-69746666D01*
X153629380Y-69841904D01*
X153629380Y-70032380D01*
X153581761Y-70127619D01*
X153534142Y-70175238D01*
X153438904Y-70222857D01*
X153248428Y-70222857D01*
X153153190Y-70175238D01*
X153105571Y-70127619D01*
X153057952Y-70032380D01*
%TO.C,TP27*%
X100163095Y-64364380D02*
X99591666Y-64364380D01*
X99877380Y-65364380D02*
X99877380Y-64364380D01*
X99258333Y-65364380D02*
X99258333Y-64364380D01*
X98877380Y-64364380D01*
X98782142Y-64412000D01*
X98734523Y-64459619D01*
X98686904Y-64554857D01*
X98686904Y-64697714D01*
X98734523Y-64792952D01*
X98782142Y-64840571D01*
X98877380Y-64888190D01*
X99258333Y-64888190D01*
X98305952Y-64459619D02*
X98258333Y-64412000D01*
X98163095Y-64364380D01*
X97925000Y-64364380D01*
X97829761Y-64412000D01*
X97782142Y-64459619D01*
X97734523Y-64554857D01*
X97734523Y-64650095D01*
X97782142Y-64792952D01*
X98353571Y-65364380D01*
X97734523Y-65364380D01*
X97401190Y-64364380D02*
X96734523Y-64364380D01*
X97163095Y-65364380D01*
%TO.C,TP26*%
X99924380Y-70016904D02*
X99924380Y-70588333D01*
X100924380Y-70302619D02*
X99924380Y-70302619D01*
X100924380Y-70921666D02*
X99924380Y-70921666D01*
X99924380Y-71302619D01*
X99972000Y-71397857D01*
X100019619Y-71445476D01*
X100114857Y-71493095D01*
X100257714Y-71493095D01*
X100352952Y-71445476D01*
X100400571Y-71397857D01*
X100448190Y-71302619D01*
X100448190Y-70921666D01*
X100019619Y-71874047D02*
X99972000Y-71921666D01*
X99924380Y-72016904D01*
X99924380Y-72255000D01*
X99972000Y-72350238D01*
X100019619Y-72397857D01*
X100114857Y-72445476D01*
X100210095Y-72445476D01*
X100352952Y-72397857D01*
X100924380Y-71826428D01*
X100924380Y-72445476D01*
X99924380Y-73302619D02*
X99924380Y-73112142D01*
X99972000Y-73016904D01*
X100019619Y-72969285D01*
X100162476Y-72874047D01*
X100352952Y-72826428D01*
X100733904Y-72826428D01*
X100829142Y-72874047D01*
X100876761Y-72921666D01*
X100924380Y-73016904D01*
X100924380Y-73207380D01*
X100876761Y-73302619D01*
X100829142Y-73350238D01*
X100733904Y-73397857D01*
X100495809Y-73397857D01*
X100400571Y-73350238D01*
X100352952Y-73302619D01*
X100305333Y-73207380D01*
X100305333Y-73016904D01*
X100352952Y-72921666D01*
X100400571Y-72874047D01*
X100495809Y-72826428D01*
%TO.C,TP25*%
X99924380Y-74461904D02*
X99924380Y-75033333D01*
X100924380Y-74747619D02*
X99924380Y-74747619D01*
X100924380Y-75366666D02*
X99924380Y-75366666D01*
X99924380Y-75747619D01*
X99972000Y-75842857D01*
X100019619Y-75890476D01*
X100114857Y-75938095D01*
X100257714Y-75938095D01*
X100352952Y-75890476D01*
X100400571Y-75842857D01*
X100448190Y-75747619D01*
X100448190Y-75366666D01*
X100019619Y-76319047D02*
X99972000Y-76366666D01*
X99924380Y-76461904D01*
X99924380Y-76700000D01*
X99972000Y-76795238D01*
X100019619Y-76842857D01*
X100114857Y-76890476D01*
X100210095Y-76890476D01*
X100352952Y-76842857D01*
X100924380Y-76271428D01*
X100924380Y-76890476D01*
X99924380Y-77795238D02*
X99924380Y-77319047D01*
X100400571Y-77271428D01*
X100352952Y-77319047D01*
X100305333Y-77414285D01*
X100305333Y-77652380D01*
X100352952Y-77747619D01*
X100400571Y-77795238D01*
X100495809Y-77842857D01*
X100733904Y-77842857D01*
X100829142Y-77795238D01*
X100876761Y-77747619D01*
X100924380Y-77652380D01*
X100924380Y-77414285D01*
X100876761Y-77319047D01*
X100829142Y-77271428D01*
%TO.C,TP24*%
X96114380Y-80176904D02*
X96114380Y-80748333D01*
X97114380Y-80462619D02*
X96114380Y-80462619D01*
X97114380Y-81081666D02*
X96114380Y-81081666D01*
X96114380Y-81462619D01*
X96162000Y-81557857D01*
X96209619Y-81605476D01*
X96304857Y-81653095D01*
X96447714Y-81653095D01*
X96542952Y-81605476D01*
X96590571Y-81557857D01*
X96638190Y-81462619D01*
X96638190Y-81081666D01*
X96209619Y-82034047D02*
X96162000Y-82081666D01*
X96114380Y-82176904D01*
X96114380Y-82415000D01*
X96162000Y-82510238D01*
X96209619Y-82557857D01*
X96304857Y-82605476D01*
X96400095Y-82605476D01*
X96542952Y-82557857D01*
X97114380Y-81986428D01*
X97114380Y-82605476D01*
X96447714Y-83462619D02*
X97114380Y-83462619D01*
X96066761Y-83224523D02*
X96781047Y-82986428D01*
X96781047Y-83605476D01*
%TO.C,TP23*%
X96114380Y-85256904D02*
X96114380Y-85828333D01*
X97114380Y-85542619D02*
X96114380Y-85542619D01*
X97114380Y-86161666D02*
X96114380Y-86161666D01*
X96114380Y-86542619D01*
X96162000Y-86637857D01*
X96209619Y-86685476D01*
X96304857Y-86733095D01*
X96447714Y-86733095D01*
X96542952Y-86685476D01*
X96590571Y-86637857D01*
X96638190Y-86542619D01*
X96638190Y-86161666D01*
X96209619Y-87114047D02*
X96162000Y-87161666D01*
X96114380Y-87256904D01*
X96114380Y-87495000D01*
X96162000Y-87590238D01*
X96209619Y-87637857D01*
X96304857Y-87685476D01*
X96400095Y-87685476D01*
X96542952Y-87637857D01*
X97114380Y-87066428D01*
X97114380Y-87685476D01*
X96114380Y-88018809D02*
X96114380Y-88637857D01*
X96495333Y-88304523D01*
X96495333Y-88447380D01*
X96542952Y-88542619D01*
X96590571Y-88590238D01*
X96685809Y-88637857D01*
X96923904Y-88637857D01*
X97019142Y-88590238D01*
X97066761Y-88542619D01*
X97114380Y-88447380D01*
X97114380Y-88161666D01*
X97066761Y-88066428D01*
X97019142Y-88018809D01*
%TO.C,TP22*%
X96114380Y-90336904D02*
X96114380Y-90908333D01*
X97114380Y-90622619D02*
X96114380Y-90622619D01*
X97114380Y-91241666D02*
X96114380Y-91241666D01*
X96114380Y-91622619D01*
X96162000Y-91717857D01*
X96209619Y-91765476D01*
X96304857Y-91813095D01*
X96447714Y-91813095D01*
X96542952Y-91765476D01*
X96590571Y-91717857D01*
X96638190Y-91622619D01*
X96638190Y-91241666D01*
X96209619Y-92194047D02*
X96162000Y-92241666D01*
X96114380Y-92336904D01*
X96114380Y-92575000D01*
X96162000Y-92670238D01*
X96209619Y-92717857D01*
X96304857Y-92765476D01*
X96400095Y-92765476D01*
X96542952Y-92717857D01*
X97114380Y-92146428D01*
X97114380Y-92765476D01*
X96209619Y-93146428D02*
X96162000Y-93194047D01*
X96114380Y-93289285D01*
X96114380Y-93527380D01*
X96162000Y-93622619D01*
X96209619Y-93670238D01*
X96304857Y-93717857D01*
X96400095Y-93717857D01*
X96542952Y-93670238D01*
X97114380Y-93098809D01*
X97114380Y-93717857D01*
%TO.C,TP21*%
X98654380Y-97321904D02*
X98654380Y-97893333D01*
X99654380Y-97607619D02*
X98654380Y-97607619D01*
X99654380Y-98226666D02*
X98654380Y-98226666D01*
X98654380Y-98607619D01*
X98702000Y-98702857D01*
X98749619Y-98750476D01*
X98844857Y-98798095D01*
X98987714Y-98798095D01*
X99082952Y-98750476D01*
X99130571Y-98702857D01*
X99178190Y-98607619D01*
X99178190Y-98226666D01*
X98749619Y-99179047D02*
X98702000Y-99226666D01*
X98654380Y-99321904D01*
X98654380Y-99560000D01*
X98702000Y-99655238D01*
X98749619Y-99702857D01*
X98844857Y-99750476D01*
X98940095Y-99750476D01*
X99082952Y-99702857D01*
X99654380Y-99131428D01*
X99654380Y-99750476D01*
X99654380Y-100702857D02*
X99654380Y-100131428D01*
X99654380Y-100417142D02*
X98654380Y-100417142D01*
X98797238Y-100321904D01*
X98892476Y-100226666D01*
X98940095Y-100131428D01*
%TO.C,TP20*%
X98654380Y-102401904D02*
X98654380Y-102973333D01*
X99654380Y-102687619D02*
X98654380Y-102687619D01*
X99654380Y-103306666D02*
X98654380Y-103306666D01*
X98654380Y-103687619D01*
X98702000Y-103782857D01*
X98749619Y-103830476D01*
X98844857Y-103878095D01*
X98987714Y-103878095D01*
X99082952Y-103830476D01*
X99130571Y-103782857D01*
X99178190Y-103687619D01*
X99178190Y-103306666D01*
X98749619Y-104259047D02*
X98702000Y-104306666D01*
X98654380Y-104401904D01*
X98654380Y-104640000D01*
X98702000Y-104735238D01*
X98749619Y-104782857D01*
X98844857Y-104830476D01*
X98940095Y-104830476D01*
X99082952Y-104782857D01*
X99654380Y-104211428D01*
X99654380Y-104830476D01*
X98654380Y-105449523D02*
X98654380Y-105544761D01*
X98702000Y-105640000D01*
X98749619Y-105687619D01*
X98844857Y-105735238D01*
X99035333Y-105782857D01*
X99273428Y-105782857D01*
X99463904Y-105735238D01*
X99559142Y-105687619D01*
X99606761Y-105640000D01*
X99654380Y-105544761D01*
X99654380Y-105449523D01*
X99606761Y-105354285D01*
X99559142Y-105306666D01*
X99463904Y-105259047D01*
X99273428Y-105211428D01*
X99035333Y-105211428D01*
X98844857Y-105259047D01*
X98749619Y-105306666D01*
X98702000Y-105354285D01*
X98654380Y-105449523D01*
%TO.C,TP19*%
X98654380Y-107481904D02*
X98654380Y-108053333D01*
X99654380Y-107767619D02*
X98654380Y-107767619D01*
X99654380Y-108386666D02*
X98654380Y-108386666D01*
X98654380Y-108767619D01*
X98702000Y-108862857D01*
X98749619Y-108910476D01*
X98844857Y-108958095D01*
X98987714Y-108958095D01*
X99082952Y-108910476D01*
X99130571Y-108862857D01*
X99178190Y-108767619D01*
X99178190Y-108386666D01*
X99654380Y-109910476D02*
X99654380Y-109339047D01*
X99654380Y-109624761D02*
X98654380Y-109624761D01*
X98797238Y-109529523D01*
X98892476Y-109434285D01*
X98940095Y-109339047D01*
X99654380Y-110386666D02*
X99654380Y-110577142D01*
X99606761Y-110672380D01*
X99559142Y-110720000D01*
X99416285Y-110815238D01*
X99225809Y-110862857D01*
X98844857Y-110862857D01*
X98749619Y-110815238D01*
X98702000Y-110767619D01*
X98654380Y-110672380D01*
X98654380Y-110481904D01*
X98702000Y-110386666D01*
X98749619Y-110339047D01*
X98844857Y-110291428D01*
X99082952Y-110291428D01*
X99178190Y-110339047D01*
X99225809Y-110386666D01*
X99273428Y-110481904D01*
X99273428Y-110672380D01*
X99225809Y-110767619D01*
X99178190Y-110815238D01*
X99082952Y-110862857D01*
%TO.C,TP18*%
X105639380Y-126531904D02*
X105639380Y-127103333D01*
X106639380Y-126817619D02*
X105639380Y-126817619D01*
X106639380Y-127436666D02*
X105639380Y-127436666D01*
X105639380Y-127817619D01*
X105687000Y-127912857D01*
X105734619Y-127960476D01*
X105829857Y-128008095D01*
X105972714Y-128008095D01*
X106067952Y-127960476D01*
X106115571Y-127912857D01*
X106163190Y-127817619D01*
X106163190Y-127436666D01*
X106639380Y-128960476D02*
X106639380Y-128389047D01*
X106639380Y-128674761D02*
X105639380Y-128674761D01*
X105782238Y-128579523D01*
X105877476Y-128484285D01*
X105925095Y-128389047D01*
X106067952Y-129531904D02*
X106020333Y-129436666D01*
X105972714Y-129389047D01*
X105877476Y-129341428D01*
X105829857Y-129341428D01*
X105734619Y-129389047D01*
X105687000Y-129436666D01*
X105639380Y-129531904D01*
X105639380Y-129722380D01*
X105687000Y-129817619D01*
X105734619Y-129865238D01*
X105829857Y-129912857D01*
X105877476Y-129912857D01*
X105972714Y-129865238D01*
X106020333Y-129817619D01*
X106067952Y-129722380D01*
X106067952Y-129531904D01*
X106115571Y-129436666D01*
X106163190Y-129389047D01*
X106258428Y-129341428D01*
X106448904Y-129341428D01*
X106544142Y-129389047D01*
X106591761Y-129436666D01*
X106639380Y-129531904D01*
X106639380Y-129722380D01*
X106591761Y-129817619D01*
X106544142Y-129865238D01*
X106448904Y-129912857D01*
X106258428Y-129912857D01*
X106163190Y-129865238D01*
X106115571Y-129817619D01*
X106067952Y-129722380D01*
%TO.C,TP17*%
X100559380Y-126531904D02*
X100559380Y-127103333D01*
X101559380Y-126817619D02*
X100559380Y-126817619D01*
X101559380Y-127436666D02*
X100559380Y-127436666D01*
X100559380Y-127817619D01*
X100607000Y-127912857D01*
X100654619Y-127960476D01*
X100749857Y-128008095D01*
X100892714Y-128008095D01*
X100987952Y-127960476D01*
X101035571Y-127912857D01*
X101083190Y-127817619D01*
X101083190Y-127436666D01*
X101559380Y-128960476D02*
X101559380Y-128389047D01*
X101559380Y-128674761D02*
X100559380Y-128674761D01*
X100702238Y-128579523D01*
X100797476Y-128484285D01*
X100845095Y-128389047D01*
X100559380Y-129293809D02*
X100559380Y-129960476D01*
X101559380Y-129531904D01*
%TO.C,TP16*%
X94844380Y-126531904D02*
X94844380Y-127103333D01*
X95844380Y-126817619D02*
X94844380Y-126817619D01*
X95844380Y-127436666D02*
X94844380Y-127436666D01*
X94844380Y-127817619D01*
X94892000Y-127912857D01*
X94939619Y-127960476D01*
X95034857Y-128008095D01*
X95177714Y-128008095D01*
X95272952Y-127960476D01*
X95320571Y-127912857D01*
X95368190Y-127817619D01*
X95368190Y-127436666D01*
X95844380Y-128960476D02*
X95844380Y-128389047D01*
X95844380Y-128674761D02*
X94844380Y-128674761D01*
X94987238Y-128579523D01*
X95082476Y-128484285D01*
X95130095Y-128389047D01*
X94844380Y-129817619D02*
X94844380Y-129627142D01*
X94892000Y-129531904D01*
X94939619Y-129484285D01*
X95082476Y-129389047D01*
X95272952Y-129341428D01*
X95653904Y-129341428D01*
X95749142Y-129389047D01*
X95796761Y-129436666D01*
X95844380Y-129531904D01*
X95844380Y-129722380D01*
X95796761Y-129817619D01*
X95749142Y-129865238D01*
X95653904Y-129912857D01*
X95415809Y-129912857D01*
X95320571Y-129865238D01*
X95272952Y-129817619D01*
X95225333Y-129722380D01*
X95225333Y-129531904D01*
X95272952Y-129436666D01*
X95320571Y-129389047D01*
X95415809Y-129341428D01*
%TO.C,TP15*%
X175489380Y-94781904D02*
X175489380Y-95353333D01*
X176489380Y-95067619D02*
X175489380Y-95067619D01*
X176489380Y-95686666D02*
X175489380Y-95686666D01*
X175489380Y-96067619D01*
X175537000Y-96162857D01*
X175584619Y-96210476D01*
X175679857Y-96258095D01*
X175822714Y-96258095D01*
X175917952Y-96210476D01*
X175965571Y-96162857D01*
X176013190Y-96067619D01*
X176013190Y-95686666D01*
X176489380Y-97210476D02*
X176489380Y-96639047D01*
X176489380Y-96924761D02*
X175489380Y-96924761D01*
X175632238Y-96829523D01*
X175727476Y-96734285D01*
X175775095Y-96639047D01*
X175489380Y-98115238D02*
X175489380Y-97639047D01*
X175965571Y-97591428D01*
X175917952Y-97639047D01*
X175870333Y-97734285D01*
X175870333Y-97972380D01*
X175917952Y-98067619D01*
X175965571Y-98115238D01*
X176060809Y-98162857D01*
X176298904Y-98162857D01*
X176394142Y-98115238D01*
X176441761Y-98067619D01*
X176489380Y-97972380D01*
X176489380Y-97734285D01*
X176441761Y-97639047D01*
X176394142Y-97591428D01*
%TO.C,TP14*%
X175489380Y-100496904D02*
X175489380Y-101068333D01*
X176489380Y-100782619D02*
X175489380Y-100782619D01*
X176489380Y-101401666D02*
X175489380Y-101401666D01*
X175489380Y-101782619D01*
X175537000Y-101877857D01*
X175584619Y-101925476D01*
X175679857Y-101973095D01*
X175822714Y-101973095D01*
X175917952Y-101925476D01*
X175965571Y-101877857D01*
X176013190Y-101782619D01*
X176013190Y-101401666D01*
X176489380Y-102925476D02*
X176489380Y-102354047D01*
X176489380Y-102639761D02*
X175489380Y-102639761D01*
X175632238Y-102544523D01*
X175727476Y-102449285D01*
X175775095Y-102354047D01*
X175822714Y-103782619D02*
X176489380Y-103782619D01*
X175441761Y-103544523D02*
X176156047Y-103306428D01*
X176156047Y-103925476D01*
%TO.C,TP13*%
X175489380Y-105576904D02*
X175489380Y-106148333D01*
X176489380Y-105862619D02*
X175489380Y-105862619D01*
X176489380Y-106481666D02*
X175489380Y-106481666D01*
X175489380Y-106862619D01*
X175537000Y-106957857D01*
X175584619Y-107005476D01*
X175679857Y-107053095D01*
X175822714Y-107053095D01*
X175917952Y-107005476D01*
X175965571Y-106957857D01*
X176013190Y-106862619D01*
X176013190Y-106481666D01*
X176489380Y-108005476D02*
X176489380Y-107434047D01*
X176489380Y-107719761D02*
X175489380Y-107719761D01*
X175632238Y-107624523D01*
X175727476Y-107529285D01*
X175775095Y-107434047D01*
X175489380Y-108338809D02*
X175489380Y-108957857D01*
X175870333Y-108624523D01*
X175870333Y-108767380D01*
X175917952Y-108862619D01*
X175965571Y-108910238D01*
X176060809Y-108957857D01*
X176298904Y-108957857D01*
X176394142Y-108910238D01*
X176441761Y-108862619D01*
X176489380Y-108767380D01*
X176489380Y-108481666D01*
X176441761Y-108386428D01*
X176394142Y-108338809D01*
%TO.C,TP12*%
X179934380Y-125261904D02*
X179934380Y-125833333D01*
X180934380Y-125547619D02*
X179934380Y-125547619D01*
X180934380Y-126166666D02*
X179934380Y-126166666D01*
X179934380Y-126547619D01*
X179982000Y-126642857D01*
X180029619Y-126690476D01*
X180124857Y-126738095D01*
X180267714Y-126738095D01*
X180362952Y-126690476D01*
X180410571Y-126642857D01*
X180458190Y-126547619D01*
X180458190Y-126166666D01*
X180934380Y-127690476D02*
X180934380Y-127119047D01*
X180934380Y-127404761D02*
X179934380Y-127404761D01*
X180077238Y-127309523D01*
X180172476Y-127214285D01*
X180220095Y-127119047D01*
X180029619Y-128071428D02*
X179982000Y-128119047D01*
X179934380Y-128214285D01*
X179934380Y-128452380D01*
X179982000Y-128547619D01*
X180029619Y-128595238D01*
X180124857Y-128642857D01*
X180220095Y-128642857D01*
X180362952Y-128595238D01*
X180934380Y-128023809D01*
X180934380Y-128642857D01*
%TO.C,TP11*%
X175489380Y-125261904D02*
X175489380Y-125833333D01*
X176489380Y-125547619D02*
X175489380Y-125547619D01*
X176489380Y-126166666D02*
X175489380Y-126166666D01*
X175489380Y-126547619D01*
X175537000Y-126642857D01*
X175584619Y-126690476D01*
X175679857Y-126738095D01*
X175822714Y-126738095D01*
X175917952Y-126690476D01*
X175965571Y-126642857D01*
X176013190Y-126547619D01*
X176013190Y-126166666D01*
X176489380Y-127690476D02*
X176489380Y-127119047D01*
X176489380Y-127404761D02*
X175489380Y-127404761D01*
X175632238Y-127309523D01*
X175727476Y-127214285D01*
X175775095Y-127119047D01*
X176489380Y-128642857D02*
X176489380Y-128071428D01*
X176489380Y-128357142D02*
X175489380Y-128357142D01*
X175632238Y-128261904D01*
X175727476Y-128166666D01*
X175775095Y-128071428D01*
%TO.C,TP10*%
X175093095Y-124054380D02*
X174521666Y-124054380D01*
X174807380Y-125054380D02*
X174807380Y-124054380D01*
X174188333Y-125054380D02*
X174188333Y-124054380D01*
X173807380Y-124054380D01*
X173712142Y-124102000D01*
X173664523Y-124149619D01*
X173616904Y-124244857D01*
X173616904Y-124387714D01*
X173664523Y-124482952D01*
X173712142Y-124530571D01*
X173807380Y-124578190D01*
X174188333Y-124578190D01*
X172664523Y-125054380D02*
X173235952Y-125054380D01*
X172950238Y-125054380D02*
X172950238Y-124054380D01*
X173045476Y-124197238D01*
X173140714Y-124292476D01*
X173235952Y-124340095D01*
X172045476Y-124054380D02*
X171950238Y-124054380D01*
X171855000Y-124102000D01*
X171807380Y-124149619D01*
X171759761Y-124244857D01*
X171712142Y-124435333D01*
X171712142Y-124673428D01*
X171759761Y-124863904D01*
X171807380Y-124959142D01*
X171855000Y-125006761D01*
X171950238Y-125054380D01*
X172045476Y-125054380D01*
X172140714Y-125006761D01*
X172188333Y-124959142D01*
X172235952Y-124863904D01*
X172283571Y-124673428D01*
X172283571Y-124435333D01*
X172235952Y-124244857D01*
X172188333Y-124149619D01*
X172140714Y-124102000D01*
X172045476Y-124054380D01*
%TO.C,TP9*%
X167631904Y-122149380D02*
X167060476Y-122149380D01*
X167346190Y-123149380D02*
X167346190Y-122149380D01*
X166727142Y-123149380D02*
X166727142Y-122149380D01*
X166346190Y-122149380D01*
X166250952Y-122197000D01*
X166203333Y-122244619D01*
X166155714Y-122339857D01*
X166155714Y-122482714D01*
X166203333Y-122577952D01*
X166250952Y-122625571D01*
X166346190Y-122673190D01*
X166727142Y-122673190D01*
X165679523Y-123149380D02*
X165489047Y-123149380D01*
X165393809Y-123101761D01*
X165346190Y-123054142D01*
X165250952Y-122911285D01*
X165203333Y-122720809D01*
X165203333Y-122339857D01*
X165250952Y-122244619D01*
X165298571Y-122197000D01*
X165393809Y-122149380D01*
X165584285Y-122149380D01*
X165679523Y-122197000D01*
X165727142Y-122244619D01*
X165774761Y-122339857D01*
X165774761Y-122577952D01*
X165727142Y-122673190D01*
X165679523Y-122720809D01*
X165584285Y-122768428D01*
X165393809Y-122768428D01*
X165298571Y-122720809D01*
X165250952Y-122673190D01*
X165203333Y-122577952D01*
%TO.C,TP8*%
X162551904Y-122149380D02*
X161980476Y-122149380D01*
X162266190Y-123149380D02*
X162266190Y-122149380D01*
X161647142Y-123149380D02*
X161647142Y-122149380D01*
X161266190Y-122149380D01*
X161170952Y-122197000D01*
X161123333Y-122244619D01*
X161075714Y-122339857D01*
X161075714Y-122482714D01*
X161123333Y-122577952D01*
X161170952Y-122625571D01*
X161266190Y-122673190D01*
X161647142Y-122673190D01*
X160504285Y-122577952D02*
X160599523Y-122530333D01*
X160647142Y-122482714D01*
X160694761Y-122387476D01*
X160694761Y-122339857D01*
X160647142Y-122244619D01*
X160599523Y-122197000D01*
X160504285Y-122149380D01*
X160313809Y-122149380D01*
X160218571Y-122197000D01*
X160170952Y-122244619D01*
X160123333Y-122339857D01*
X160123333Y-122387476D01*
X160170952Y-122482714D01*
X160218571Y-122530333D01*
X160313809Y-122577952D01*
X160504285Y-122577952D01*
X160599523Y-122625571D01*
X160647142Y-122673190D01*
X160694761Y-122768428D01*
X160694761Y-122958904D01*
X160647142Y-123054142D01*
X160599523Y-123101761D01*
X160504285Y-123149380D01*
X160313809Y-123149380D01*
X160218571Y-123101761D01*
X160170952Y-123054142D01*
X160123333Y-122958904D01*
X160123333Y-122768428D01*
X160170952Y-122673190D01*
X160218571Y-122625571D01*
X160313809Y-122577952D01*
%TO.C,TP7*%
X157471904Y-122149380D02*
X156900476Y-122149380D01*
X157186190Y-123149380D02*
X157186190Y-122149380D01*
X156567142Y-123149380D02*
X156567142Y-122149380D01*
X156186190Y-122149380D01*
X156090952Y-122197000D01*
X156043333Y-122244619D01*
X155995714Y-122339857D01*
X155995714Y-122482714D01*
X156043333Y-122577952D01*
X156090952Y-122625571D01*
X156186190Y-122673190D01*
X156567142Y-122673190D01*
X155662380Y-122149380D02*
X154995714Y-122149380D01*
X155424285Y-123149380D01*
%TO.C,TP6*%
X143104380Y-123833095D02*
X143104380Y-124404523D01*
X144104380Y-124118809D02*
X143104380Y-124118809D01*
X144104380Y-124737857D02*
X143104380Y-124737857D01*
X143104380Y-125118809D01*
X143152000Y-125214047D01*
X143199619Y-125261666D01*
X143294857Y-125309285D01*
X143437714Y-125309285D01*
X143532952Y-125261666D01*
X143580571Y-125214047D01*
X143628190Y-125118809D01*
X143628190Y-124737857D01*
X143104380Y-126166428D02*
X143104380Y-125975952D01*
X143152000Y-125880714D01*
X143199619Y-125833095D01*
X143342476Y-125737857D01*
X143532952Y-125690238D01*
X143913904Y-125690238D01*
X144009142Y-125737857D01*
X144056761Y-125785476D01*
X144104380Y-125880714D01*
X144104380Y-126071190D01*
X144056761Y-126166428D01*
X144009142Y-126214047D01*
X143913904Y-126261666D01*
X143675809Y-126261666D01*
X143580571Y-126214047D01*
X143532952Y-126166428D01*
X143485333Y-126071190D01*
X143485333Y-125880714D01*
X143532952Y-125785476D01*
X143580571Y-125737857D01*
X143675809Y-125690238D01*
%TO.C,TP5*%
X137389380Y-123833095D02*
X137389380Y-124404523D01*
X138389380Y-124118809D02*
X137389380Y-124118809D01*
X138389380Y-124737857D02*
X137389380Y-124737857D01*
X137389380Y-125118809D01*
X137437000Y-125214047D01*
X137484619Y-125261666D01*
X137579857Y-125309285D01*
X137722714Y-125309285D01*
X137817952Y-125261666D01*
X137865571Y-125214047D01*
X137913190Y-125118809D01*
X137913190Y-124737857D01*
X137389380Y-126214047D02*
X137389380Y-125737857D01*
X137865571Y-125690238D01*
X137817952Y-125737857D01*
X137770333Y-125833095D01*
X137770333Y-126071190D01*
X137817952Y-126166428D01*
X137865571Y-126214047D01*
X137960809Y-126261666D01*
X138198904Y-126261666D01*
X138294142Y-126214047D01*
X138341761Y-126166428D01*
X138389380Y-126071190D01*
X138389380Y-125833095D01*
X138341761Y-125737857D01*
X138294142Y-125690238D01*
%TO.C,TP4*%
X132309380Y-123833095D02*
X132309380Y-124404523D01*
X133309380Y-124118809D02*
X132309380Y-124118809D01*
X133309380Y-124737857D02*
X132309380Y-124737857D01*
X132309380Y-125118809D01*
X132357000Y-125214047D01*
X132404619Y-125261666D01*
X132499857Y-125309285D01*
X132642714Y-125309285D01*
X132737952Y-125261666D01*
X132785571Y-125214047D01*
X132833190Y-125118809D01*
X132833190Y-124737857D01*
X132642714Y-126166428D02*
X133309380Y-126166428D01*
X132261761Y-125928333D02*
X132976047Y-125690238D01*
X132976047Y-126309285D01*
%TO.C,TP3*%
X120879380Y-123833095D02*
X120879380Y-124404523D01*
X121879380Y-124118809D02*
X120879380Y-124118809D01*
X121879380Y-124737857D02*
X120879380Y-124737857D01*
X120879380Y-125118809D01*
X120927000Y-125214047D01*
X120974619Y-125261666D01*
X121069857Y-125309285D01*
X121212714Y-125309285D01*
X121307952Y-125261666D01*
X121355571Y-125214047D01*
X121403190Y-125118809D01*
X121403190Y-124737857D01*
X120879380Y-125642619D02*
X120879380Y-126261666D01*
X121260333Y-125928333D01*
X121260333Y-126071190D01*
X121307952Y-126166428D01*
X121355571Y-126214047D01*
X121450809Y-126261666D01*
X121688904Y-126261666D01*
X121784142Y-126214047D01*
X121831761Y-126166428D01*
X121879380Y-126071190D01*
X121879380Y-125785476D01*
X121831761Y-125690238D01*
X121784142Y-125642619D01*
%TO.C,TP2*%
X115799380Y-123833095D02*
X115799380Y-124404523D01*
X116799380Y-124118809D02*
X115799380Y-124118809D01*
X116799380Y-124737857D02*
X115799380Y-124737857D01*
X115799380Y-125118809D01*
X115847000Y-125214047D01*
X115894619Y-125261666D01*
X115989857Y-125309285D01*
X116132714Y-125309285D01*
X116227952Y-125261666D01*
X116275571Y-125214047D01*
X116323190Y-125118809D01*
X116323190Y-124737857D01*
X115894619Y-125690238D02*
X115847000Y-125737857D01*
X115799380Y-125833095D01*
X115799380Y-126071190D01*
X115847000Y-126166428D01*
X115894619Y-126214047D01*
X115989857Y-126261666D01*
X116085095Y-126261666D01*
X116227952Y-126214047D01*
X116799380Y-125642619D01*
X116799380Y-126261666D01*
%TO.C,TP1*%
X110719380Y-123833095D02*
X110719380Y-124404523D01*
X111719380Y-124118809D02*
X110719380Y-124118809D01*
X111719380Y-124737857D02*
X110719380Y-124737857D01*
X110719380Y-125118809D01*
X110767000Y-125214047D01*
X110814619Y-125261666D01*
X110909857Y-125309285D01*
X111052714Y-125309285D01*
X111147952Y-125261666D01*
X111195571Y-125214047D01*
X111243190Y-125118809D01*
X111243190Y-124737857D01*
X111719380Y-126261666D02*
X111719380Y-125690238D01*
X111719380Y-125975952D02*
X110719380Y-125975952D01*
X110862238Y-125880714D01*
X110957476Y-125785476D01*
X111005095Y-125690238D01*
%TD*%
M02*
