%TF.GenerationSoftware,KiCad,Pcbnew,(5.1.9)-1*%
%TF.CreationDate,2021-04-12T23:12:51+02:00*%
%TF.ProjectId,Version1Female,56657273-696f-46e3-9146-656d616c652e,rev?*%
%TF.SameCoordinates,Original*%
%TF.FileFunction,Other,User*%
%FSLAX46Y46*%
G04 Gerber Fmt 4.6, Leading zero omitted, Abs format (unit mm)*
G04 Created by KiCad (PCBNEW (5.1.9)-1) date 2021-04-12 23:12:51*
%MOMM*%
%LPD*%
G01*
G04 APERTURE LIST*
%ADD10C,0.050000*%
G04 APERTURE END LIST*
D10*
%TO.C,J17*%
X111230000Y-45845000D02*
X111230000Y-57045000D01*
X114780000Y-45845000D02*
X111230000Y-45845000D01*
X114780000Y-57045000D02*
X114780000Y-45845000D01*
X111230000Y-57045000D02*
X114780000Y-57045000D01*
%TO.C,J6*%
X121390000Y-45845000D02*
X121390000Y-57045000D01*
X124940000Y-45845000D02*
X121390000Y-45845000D01*
X124940000Y-57045000D02*
X124940000Y-45845000D01*
X121390000Y-57045000D02*
X124940000Y-57045000D01*
%TO.C,J14*%
X105760000Y-45845000D02*
X105760000Y-57045000D01*
X109310000Y-45845000D02*
X105760000Y-45845000D01*
X109310000Y-57045000D02*
X109310000Y-45845000D01*
X105760000Y-57045000D02*
X109310000Y-57045000D01*
%TO.C,J12*%
X127105000Y-45845000D02*
X127105000Y-57045000D01*
X130655000Y-45845000D02*
X127105000Y-45845000D01*
X130655000Y-57045000D02*
X130655000Y-45845000D01*
X127105000Y-57045000D02*
X130655000Y-57045000D01*
%TO.C,J9*%
X132185000Y-45845000D02*
X132185000Y-57045000D01*
X135735000Y-45845000D02*
X132185000Y-45845000D01*
X135735000Y-57045000D02*
X135735000Y-45845000D01*
X132185000Y-57045000D02*
X135735000Y-57045000D01*
%TO.C,J4*%
X116310000Y-45845000D02*
X116310000Y-57045000D01*
X119860000Y-45845000D02*
X116310000Y-45845000D01*
X119860000Y-57045000D02*
X119860000Y-45845000D01*
X116310000Y-57045000D02*
X119860000Y-57045000D01*
%TO.C,J59*%
X149755000Y-57025000D02*
X149755000Y-45825000D01*
X143655000Y-57025000D02*
X149755000Y-57025000D01*
X143655000Y-45825000D02*
X143655000Y-57025000D01*
X149755000Y-45825000D02*
X143655000Y-45825000D01*
%TO.C,J58*%
X156694364Y-57893949D02*
X161007716Y-62207300D01*
X161007716Y-62207300D02*
X168927312Y-54287704D01*
X168927312Y-54287704D02*
X164613960Y-49974353D01*
X164613960Y-49974353D02*
X156694364Y-57893949D01*
%TO.C,J57*%
X193540000Y-75670000D02*
X184890000Y-75670000D01*
X193540000Y-79220000D02*
X193540000Y-75670000D01*
X184890000Y-79220000D02*
X193540000Y-79220000D01*
X184890000Y-75670000D02*
X184890000Y-79220000D01*
%TO.C,J56*%
X193540000Y-73130000D02*
X184890000Y-73130000D01*
X193540000Y-76680000D02*
X193540000Y-73130000D01*
X184890000Y-76680000D02*
X193540000Y-76680000D01*
X184890000Y-73130000D02*
X184890000Y-76680000D01*
%TO.C,J55*%
X169440000Y-140805000D02*
X169440000Y-127105000D01*
X163340000Y-140805000D02*
X169440000Y-140805000D01*
X163340000Y-127105000D02*
X163340000Y-140805000D01*
X169440000Y-127105000D02*
X163340000Y-127105000D01*
%TO.C,J54*%
X115675000Y-127165000D02*
X115675000Y-140865000D01*
X121775000Y-127165000D02*
X115675000Y-127165000D01*
X121775000Y-140865000D02*
X121775000Y-127165000D01*
X115675000Y-140865000D02*
X121775000Y-140865000D01*
%TO.C,J53*%
X110595000Y-127165000D02*
X110595000Y-140865000D01*
X116695000Y-127165000D02*
X110595000Y-127165000D01*
X116695000Y-140865000D02*
X116695000Y-127165000D01*
X110595000Y-140865000D02*
X116695000Y-140865000D01*
%TO.C,J52*%
X96990000Y-78845000D02*
X83290000Y-78845000D01*
X96990000Y-84945000D02*
X96990000Y-78845000D01*
X83290000Y-84945000D02*
X96990000Y-84945000D01*
X83290000Y-78845000D02*
X83290000Y-84945000D01*
%TO.C,J51*%
X96990000Y-83925000D02*
X83290000Y-83925000D01*
X96990000Y-90025000D02*
X96990000Y-83925000D01*
X83290000Y-90025000D02*
X96990000Y-90025000D01*
X83290000Y-83925000D02*
X83290000Y-90025000D01*
%TO.C,J50*%
X96990000Y-89005000D02*
X83290000Y-89005000D01*
X96990000Y-95105000D02*
X96990000Y-89005000D01*
X83290000Y-95105000D02*
X96990000Y-95105000D01*
X83290000Y-89005000D02*
X83290000Y-95105000D01*
%TO.C,J48*%
X99530000Y-95990000D02*
X85830000Y-95990000D01*
X99530000Y-102090000D02*
X99530000Y-95990000D01*
X85830000Y-102090000D02*
X99530000Y-102090000D01*
X85830000Y-95990000D02*
X85830000Y-102090000D01*
%TO.C,J47*%
X99530000Y-101070000D02*
X85830000Y-101070000D01*
X99530000Y-107170000D02*
X99530000Y-101070000D01*
X85830000Y-107170000D02*
X99530000Y-107170000D01*
X85830000Y-101070000D02*
X85830000Y-107170000D01*
%TO.C,J46*%
X99530000Y-106150000D02*
X85830000Y-106150000D01*
X99530000Y-112250000D02*
X99530000Y-106150000D01*
X85830000Y-112250000D02*
X99530000Y-112250000D01*
X85830000Y-106150000D02*
X85830000Y-112250000D01*
%TO.C,J45*%
X100165000Y-69320000D02*
X86465000Y-69320000D01*
X100165000Y-72870000D02*
X100165000Y-69320000D01*
X86465000Y-72870000D02*
X100165000Y-72870000D01*
X86465000Y-69320000D02*
X86465000Y-72870000D01*
%TO.C,J44*%
X105515000Y-112560000D02*
X105515000Y-126260000D01*
X111615000Y-112560000D02*
X105515000Y-112560000D01*
X111615000Y-126260000D02*
X111615000Y-112560000D01*
X105515000Y-126260000D02*
X111615000Y-126260000D01*
%TO.C,J43*%
X100435000Y-112560000D02*
X100435000Y-126260000D01*
X106535000Y-112560000D02*
X100435000Y-112560000D01*
X106535000Y-126260000D02*
X106535000Y-112560000D01*
X100435000Y-126260000D02*
X106535000Y-126260000D01*
%TO.C,J42*%
X95355000Y-112560000D02*
X95355000Y-126260000D01*
X101455000Y-112560000D02*
X95355000Y-112560000D01*
X101455000Y-126260000D02*
X101455000Y-112560000D01*
X95355000Y-126260000D02*
X101455000Y-126260000D01*
%TO.C,J41*%
X180505000Y-100225000D02*
X194205000Y-100225000D01*
X180505000Y-94125000D02*
X180505000Y-100225000D01*
X194205000Y-94125000D02*
X180505000Y-94125000D01*
X194205000Y-100225000D02*
X194205000Y-94125000D01*
%TO.C,J40*%
X180505000Y-105305000D02*
X194205000Y-105305000D01*
X180505000Y-99205000D02*
X180505000Y-105305000D01*
X194205000Y-99205000D02*
X180505000Y-99205000D01*
X194205000Y-105305000D02*
X194205000Y-99205000D01*
%TO.C,J39*%
X180505000Y-110385000D02*
X194205000Y-110385000D01*
X180505000Y-104285000D02*
X180505000Y-110385000D01*
X194205000Y-104285000D02*
X180505000Y-104285000D01*
X194205000Y-110385000D02*
X194205000Y-104285000D01*
%TO.C,J38*%
X180445000Y-111925000D02*
X180445000Y-125625000D01*
X186545000Y-111925000D02*
X180445000Y-111925000D01*
X186545000Y-125625000D02*
X186545000Y-111925000D01*
X180445000Y-125625000D02*
X186545000Y-125625000D01*
%TO.C,J37*%
X193540000Y-70590000D02*
X184890000Y-70590000D01*
X193540000Y-74140000D02*
X193540000Y-70590000D01*
X184890000Y-74140000D02*
X193540000Y-74140000D01*
X184890000Y-70590000D02*
X184890000Y-74140000D01*
%TO.C,J36*%
X181505000Y-74190000D02*
X181505000Y-70640000D01*
X181505000Y-70640000D02*
X172855000Y-70640000D01*
X172855000Y-70640000D02*
X172855000Y-74190000D01*
X172855000Y-74190000D02*
X181505000Y-74190000D01*
%TO.C,J35*%
X119245000Y-69320000D02*
X110595000Y-69320000D01*
X119245000Y-72870000D02*
X119245000Y-69320000D01*
X110595000Y-72870000D02*
X119245000Y-72870000D01*
X110595000Y-69320000D02*
X110595000Y-72870000D01*
%TO.C,J34*%
X160155000Y-74190000D02*
X168805000Y-74190000D01*
X160155000Y-70640000D02*
X160155000Y-74190000D01*
X168805000Y-70640000D02*
X160155000Y-70640000D01*
X168805000Y-74190000D02*
X168805000Y-70640000D01*
%TO.C,J33*%
X100165000Y-71860000D02*
X86465000Y-71860000D01*
X100165000Y-75410000D02*
X100165000Y-71860000D01*
X86465000Y-75410000D02*
X100165000Y-75410000D01*
X86465000Y-71860000D02*
X86465000Y-75410000D01*
%TO.C,J32*%
X175365000Y-111925000D02*
X175365000Y-125625000D01*
X181465000Y-111925000D02*
X175365000Y-111925000D01*
X181465000Y-125625000D02*
X181465000Y-111925000D01*
X175365000Y-125625000D02*
X181465000Y-125625000D01*
%TO.C,J31*%
X170285000Y-111925000D02*
X170285000Y-125625000D01*
X176385000Y-111925000D02*
X170285000Y-111925000D01*
X176385000Y-125625000D02*
X176385000Y-111925000D01*
X170285000Y-125625000D02*
X176385000Y-125625000D01*
%TO.C,J30*%
X164360000Y-140805000D02*
X164360000Y-127105000D01*
X158260000Y-140805000D02*
X164360000Y-140805000D01*
X158260000Y-127105000D02*
X158260000Y-140805000D01*
X164360000Y-127105000D02*
X158260000Y-127105000D01*
%TO.C,J29*%
X159280000Y-140805000D02*
X159280000Y-127105000D01*
X153180000Y-140805000D02*
X159280000Y-140805000D01*
X153180000Y-127105000D02*
X153180000Y-140805000D01*
X159280000Y-127105000D02*
X153180000Y-127105000D01*
%TO.C,J28*%
X142345000Y-127165000D02*
X142345000Y-140865000D01*
X148445000Y-127165000D02*
X142345000Y-127165000D01*
X148445000Y-140865000D02*
X148445000Y-127165000D01*
X142345000Y-140865000D02*
X148445000Y-140865000D01*
%TO.C,J27*%
X137265000Y-127165000D02*
X137265000Y-140865000D01*
X143365000Y-127165000D02*
X137265000Y-127165000D01*
X143365000Y-140865000D02*
X143365000Y-127165000D01*
X137265000Y-140865000D02*
X143365000Y-140865000D01*
%TO.C,J26*%
X132185000Y-127165000D02*
X132185000Y-140865000D01*
X138285000Y-127165000D02*
X132185000Y-127165000D01*
X138285000Y-140865000D02*
X138285000Y-127165000D01*
X132185000Y-140865000D02*
X138285000Y-140865000D01*
%TO.C,J25*%
X181505000Y-76730000D02*
X181505000Y-73180000D01*
X181505000Y-73180000D02*
X172855000Y-73180000D01*
X172855000Y-73180000D02*
X172855000Y-76730000D01*
X172855000Y-76730000D02*
X181505000Y-76730000D01*
%TO.C,J24*%
X119245000Y-71860000D02*
X110595000Y-71860000D01*
X119245000Y-75410000D02*
X119245000Y-71860000D01*
X110595000Y-75410000D02*
X119245000Y-75410000D01*
X110595000Y-71860000D02*
X110595000Y-75410000D01*
%TO.C,J23*%
X160155000Y-76730000D02*
X168805000Y-76730000D01*
X160155000Y-73180000D02*
X160155000Y-76730000D01*
X168805000Y-73180000D02*
X160155000Y-73180000D01*
X168805000Y-76730000D02*
X168805000Y-73180000D01*
%TO.C,J22*%
X100165000Y-74400000D02*
X86465000Y-74400000D01*
X100165000Y-77950000D02*
X100165000Y-74400000D01*
X86465000Y-77950000D02*
X100165000Y-77950000D01*
X86465000Y-74400000D02*
X86465000Y-77950000D01*
%TO.C,J21*%
X181505000Y-79270000D02*
X181505000Y-75720000D01*
X181505000Y-75720000D02*
X172855000Y-75720000D01*
X172855000Y-75720000D02*
X172855000Y-79270000D01*
X172855000Y-79270000D02*
X181505000Y-79270000D01*
%TO.C,J20*%
X119245000Y-74400000D02*
X110595000Y-74400000D01*
X119245000Y-77950000D02*
X119245000Y-74400000D01*
X110595000Y-77950000D02*
X119245000Y-77950000D01*
X110595000Y-74400000D02*
X110595000Y-77950000D01*
%TO.C,J19*%
X160155000Y-79270000D02*
X168805000Y-79270000D01*
X160155000Y-75720000D02*
X160155000Y-79270000D01*
X168805000Y-75720000D02*
X160155000Y-75720000D01*
X168805000Y-79270000D02*
X168805000Y-75720000D01*
%TO.C,J18*%
X120755000Y-127165000D02*
X120755000Y-140865000D01*
X126855000Y-127165000D02*
X120755000Y-127165000D01*
X126855000Y-140865000D02*
X126855000Y-127165000D01*
X120755000Y-140865000D02*
X126855000Y-140865000D01*
%TO.C,J15*%
X138432000Y-60938000D02*
X127232000Y-60938000D01*
X138432000Y-64488000D02*
X138432000Y-60938000D01*
X127232000Y-64488000D02*
X138432000Y-64488000D01*
X127232000Y-60938000D02*
X127232000Y-64488000D01*
%TO.C,J7*%
X179860000Y-93240000D02*
X196110000Y-93240000D01*
X179860000Y-87140000D02*
X179860000Y-93240000D01*
X196110000Y-87140000D02*
X179860000Y-87140000D01*
X196110000Y-93240000D02*
X196110000Y-87140000D01*
%TO.C,J3*%
X130070000Y-113500000D02*
X130070000Y-74400000D01*
X123970000Y-113500000D02*
X130070000Y-113500000D01*
X123970000Y-74400000D02*
X123970000Y-113500000D01*
X130070000Y-74400000D02*
X123970000Y-74400000D01*
%TO.C,J2*%
X179860000Y-88160000D02*
X196110000Y-88160000D01*
X179860000Y-82060000D02*
X179860000Y-88160000D01*
X196110000Y-82060000D02*
X179860000Y-82060000D01*
X196110000Y-88160000D02*
X196110000Y-82060000D01*
%TO.C,J1*%
X154200000Y-113500000D02*
X154200000Y-74400000D01*
X148100000Y-113500000D02*
X154200000Y-113500000D01*
X148100000Y-74400000D02*
X148100000Y-113500000D01*
X154200000Y-74400000D02*
X148100000Y-74400000D01*
%TO.C,TP43*%
X181515000Y-76105000D02*
X181515000Y-80105000D01*
X181515000Y-76105000D02*
X185515000Y-76105000D01*
X185515000Y-80105000D02*
X181515000Y-80105000D01*
X185515000Y-80105000D02*
X185515000Y-76105000D01*
%TO.C,TP42*%
X181515000Y-72295000D02*
X181515000Y-76295000D01*
X181515000Y-72295000D02*
X185515000Y-72295000D01*
X185515000Y-76295000D02*
X181515000Y-76295000D01*
X185515000Y-76295000D02*
X185515000Y-72295000D01*
%TO.C,TP41*%
X181515000Y-68485000D02*
X181515000Y-72485000D01*
X181515000Y-68485000D02*
X185515000Y-68485000D01*
X185515000Y-72485000D02*
X181515000Y-72485000D01*
X185515000Y-72485000D02*
X185515000Y-68485000D01*
%TO.C,TP40*%
X179165000Y-88170000D02*
X175165000Y-88170000D01*
X179165000Y-88170000D02*
X179165000Y-92170000D01*
X175165000Y-92170000D02*
X175165000Y-88170000D01*
X175165000Y-92170000D02*
X179165000Y-92170000D01*
%TO.C,TP39*%
X179165000Y-82455000D02*
X175165000Y-82455000D01*
X179165000Y-82455000D02*
X179165000Y-86455000D01*
X175165000Y-86455000D02*
X175165000Y-82455000D01*
X175165000Y-86455000D02*
X179165000Y-86455000D01*
%TO.C,TP38*%
X118015000Y-108680000D02*
X122015000Y-108680000D01*
X118015000Y-108680000D02*
X118015000Y-104680000D01*
X122015000Y-104680000D02*
X122015000Y-108680000D01*
X122015000Y-104680000D02*
X118015000Y-104680000D01*
X118015000Y-113125000D02*
X122015000Y-113125000D01*
X118015000Y-113125000D02*
X118015000Y-109125000D01*
X122015000Y-109125000D02*
X122015000Y-113125000D01*
X122015000Y-109125000D02*
X118015000Y-109125000D01*
%TO.C,TP37*%
X156115000Y-109315000D02*
X160115000Y-109315000D01*
X156115000Y-109315000D02*
X156115000Y-105315000D01*
X160115000Y-105315000D02*
X160115000Y-109315000D01*
X160115000Y-105315000D02*
X156115000Y-105315000D01*
X156115000Y-113760000D02*
X160115000Y-113760000D01*
X156115000Y-113760000D02*
X156115000Y-109760000D01*
X160115000Y-109760000D02*
X160115000Y-113760000D01*
X160115000Y-109760000D02*
X156115000Y-109760000D01*
%TO.C,TP36*%
X169450000Y-68485000D02*
X169450000Y-72485000D01*
X169450000Y-68485000D02*
X173450000Y-68485000D01*
X173450000Y-72485000D02*
X169450000Y-72485000D01*
X173450000Y-72485000D02*
X173450000Y-68485000D01*
%TO.C,TP35*%
X169450000Y-72930000D02*
X169450000Y-76930000D01*
X169450000Y-72930000D02*
X173450000Y-72930000D01*
X173450000Y-76930000D02*
X169450000Y-76930000D01*
X173450000Y-76930000D02*
X173450000Y-72930000D01*
%TO.C,TP34*%
X169450000Y-77375000D02*
X169450000Y-81375000D01*
X169450000Y-77375000D02*
X173450000Y-77375000D01*
X173450000Y-81375000D02*
X169450000Y-81375000D01*
X173450000Y-81375000D02*
X173450000Y-77375000D01*
%TO.C,TP33*%
X111665000Y-65310000D02*
X111665000Y-69310000D01*
X111665000Y-65310000D02*
X115665000Y-65310000D01*
X115665000Y-69310000D02*
X111665000Y-69310000D01*
X115665000Y-69310000D02*
X115665000Y-65310000D01*
%TO.C,TP32*%
X119285000Y-65310000D02*
X119285000Y-69310000D01*
X119285000Y-65310000D02*
X123285000Y-65310000D01*
X123285000Y-69310000D02*
X119285000Y-69310000D01*
X123285000Y-69310000D02*
X123285000Y-65310000D01*
%TO.C,TP31*%
X124365000Y-65310000D02*
X124365000Y-69310000D01*
X124365000Y-65310000D02*
X128365000Y-65310000D01*
X128365000Y-69310000D02*
X124365000Y-69310000D01*
X128365000Y-69310000D02*
X128365000Y-65310000D01*
%TO.C,TP30*%
X163735000Y-66580000D02*
X163735000Y-70580000D01*
X163735000Y-66580000D02*
X167735000Y-66580000D01*
X167735000Y-70580000D02*
X163735000Y-70580000D01*
X167735000Y-70580000D02*
X167735000Y-66580000D01*
%TO.C,TP29*%
X158020000Y-66580000D02*
X158020000Y-70580000D01*
X158020000Y-66580000D02*
X162020000Y-66580000D01*
X162020000Y-70580000D02*
X158020000Y-70580000D01*
X162020000Y-70580000D02*
X162020000Y-66580000D01*
%TO.C,TP28*%
X153575000Y-66580000D02*
X153575000Y-70580000D01*
X153575000Y-66580000D02*
X157575000Y-66580000D01*
X157575000Y-70580000D02*
X153575000Y-70580000D01*
X157575000Y-70580000D02*
X157575000Y-66580000D01*
%TO.C,TP27*%
X100425000Y-65310000D02*
X96425000Y-65310000D01*
X100425000Y-65310000D02*
X100425000Y-69310000D01*
X96425000Y-69310000D02*
X96425000Y-65310000D01*
X96425000Y-69310000D02*
X100425000Y-69310000D01*
%TO.C,TP26*%
X100870000Y-69755000D02*
X100870000Y-73755000D01*
X100870000Y-69755000D02*
X104870000Y-69755000D01*
X104870000Y-73755000D02*
X100870000Y-73755000D01*
X104870000Y-73755000D02*
X104870000Y-69755000D01*
%TO.C,TP25*%
X100870000Y-74200000D02*
X100870000Y-78200000D01*
X100870000Y-74200000D02*
X104870000Y-74200000D01*
X104870000Y-78200000D02*
X100870000Y-78200000D01*
X104870000Y-78200000D02*
X104870000Y-74200000D01*
%TO.C,TP24*%
X97060000Y-79915000D02*
X97060000Y-83915000D01*
X97060000Y-79915000D02*
X101060000Y-79915000D01*
X101060000Y-83915000D02*
X97060000Y-83915000D01*
X101060000Y-83915000D02*
X101060000Y-79915000D01*
%TO.C,TP23*%
X97060000Y-84995000D02*
X97060000Y-88995000D01*
X97060000Y-84995000D02*
X101060000Y-84995000D01*
X101060000Y-88995000D02*
X97060000Y-88995000D01*
X101060000Y-88995000D02*
X101060000Y-84995000D01*
%TO.C,TP22*%
X97060000Y-90075000D02*
X97060000Y-94075000D01*
X97060000Y-90075000D02*
X101060000Y-90075000D01*
X101060000Y-94075000D02*
X97060000Y-94075000D01*
X101060000Y-94075000D02*
X101060000Y-90075000D01*
%TO.C,TP21*%
X99600000Y-97060000D02*
X99600000Y-101060000D01*
X99600000Y-97060000D02*
X103600000Y-97060000D01*
X103600000Y-101060000D02*
X99600000Y-101060000D01*
X103600000Y-101060000D02*
X103600000Y-97060000D01*
%TO.C,TP20*%
X99600000Y-102140000D02*
X99600000Y-106140000D01*
X99600000Y-102140000D02*
X103600000Y-102140000D01*
X103600000Y-106140000D02*
X99600000Y-106140000D01*
X103600000Y-106140000D02*
X103600000Y-102140000D01*
%TO.C,TP19*%
X99600000Y-107220000D02*
X99600000Y-111220000D01*
X99600000Y-107220000D02*
X103600000Y-107220000D01*
X103600000Y-111220000D02*
X99600000Y-111220000D01*
X103600000Y-111220000D02*
X103600000Y-107220000D01*
%TO.C,TP18*%
X106585000Y-126270000D02*
X106585000Y-130270000D01*
X106585000Y-126270000D02*
X110585000Y-126270000D01*
X110585000Y-130270000D02*
X106585000Y-130270000D01*
X110585000Y-130270000D02*
X110585000Y-126270000D01*
%TO.C,TP17*%
X101505000Y-126270000D02*
X101505000Y-130270000D01*
X101505000Y-126270000D02*
X105505000Y-126270000D01*
X105505000Y-130270000D02*
X101505000Y-130270000D01*
X105505000Y-130270000D02*
X105505000Y-126270000D01*
%TO.C,TP16*%
X95790000Y-126270000D02*
X95790000Y-130270000D01*
X95790000Y-126270000D02*
X99790000Y-126270000D01*
X99790000Y-130270000D02*
X95790000Y-130270000D01*
X99790000Y-130270000D02*
X99790000Y-126270000D01*
%TO.C,TP15*%
X176435000Y-94520000D02*
X176435000Y-98520000D01*
X176435000Y-94520000D02*
X180435000Y-94520000D01*
X180435000Y-98520000D02*
X176435000Y-98520000D01*
X180435000Y-98520000D02*
X180435000Y-94520000D01*
%TO.C,TP14*%
X176435000Y-100235000D02*
X176435000Y-104235000D01*
X176435000Y-100235000D02*
X180435000Y-100235000D01*
X180435000Y-104235000D02*
X176435000Y-104235000D01*
X180435000Y-104235000D02*
X180435000Y-100235000D01*
%TO.C,TP13*%
X176435000Y-105315000D02*
X176435000Y-109315000D01*
X176435000Y-105315000D02*
X180435000Y-105315000D01*
X180435000Y-109315000D02*
X176435000Y-109315000D01*
X180435000Y-109315000D02*
X180435000Y-105315000D01*
%TO.C,TP12*%
X180880000Y-125000000D02*
X180880000Y-129000000D01*
X180880000Y-125000000D02*
X184880000Y-125000000D01*
X184880000Y-129000000D02*
X180880000Y-129000000D01*
X184880000Y-129000000D02*
X184880000Y-125000000D01*
%TO.C,TP11*%
X176435000Y-125000000D02*
X176435000Y-129000000D01*
X176435000Y-125000000D02*
X180435000Y-125000000D01*
X180435000Y-129000000D02*
X176435000Y-129000000D01*
X180435000Y-129000000D02*
X180435000Y-125000000D01*
%TO.C,TP10*%
X175355000Y-125000000D02*
X171355000Y-125000000D01*
X175355000Y-125000000D02*
X175355000Y-129000000D01*
X171355000Y-129000000D02*
X171355000Y-125000000D01*
X171355000Y-129000000D02*
X175355000Y-129000000D01*
%TO.C,TP9*%
X168370000Y-123095000D02*
X164370000Y-123095000D01*
X168370000Y-123095000D02*
X168370000Y-127095000D01*
X164370000Y-127095000D02*
X164370000Y-123095000D01*
X164370000Y-127095000D02*
X168370000Y-127095000D01*
%TO.C,TP8*%
X163290000Y-123095000D02*
X159290000Y-123095000D01*
X163290000Y-123095000D02*
X163290000Y-127095000D01*
X159290000Y-127095000D02*
X159290000Y-123095000D01*
X159290000Y-127095000D02*
X163290000Y-127095000D01*
%TO.C,TP7*%
X158210000Y-123095000D02*
X154210000Y-123095000D01*
X158210000Y-123095000D02*
X158210000Y-127095000D01*
X154210000Y-127095000D02*
X154210000Y-123095000D01*
X154210000Y-127095000D02*
X158210000Y-127095000D01*
%TO.C,TP6*%
X144050000Y-123095000D02*
X144050000Y-127095000D01*
X144050000Y-123095000D02*
X148050000Y-123095000D01*
X148050000Y-127095000D02*
X144050000Y-127095000D01*
X148050000Y-127095000D02*
X148050000Y-123095000D01*
%TO.C,TP5*%
X138335000Y-123095000D02*
X138335000Y-127095000D01*
X138335000Y-123095000D02*
X142335000Y-123095000D01*
X142335000Y-127095000D02*
X138335000Y-127095000D01*
X142335000Y-127095000D02*
X142335000Y-123095000D01*
%TO.C,TP4*%
X133255000Y-123095000D02*
X133255000Y-127095000D01*
X133255000Y-123095000D02*
X137255000Y-123095000D01*
X137255000Y-127095000D02*
X133255000Y-127095000D01*
X137255000Y-127095000D02*
X137255000Y-123095000D01*
%TO.C,TP3*%
X121825000Y-123095000D02*
X121825000Y-127095000D01*
X121825000Y-123095000D02*
X125825000Y-123095000D01*
X125825000Y-127095000D02*
X121825000Y-127095000D01*
X125825000Y-127095000D02*
X125825000Y-123095000D01*
%TO.C,TP2*%
X116745000Y-123095000D02*
X116745000Y-127095000D01*
X116745000Y-123095000D02*
X120745000Y-123095000D01*
X120745000Y-127095000D02*
X116745000Y-127095000D01*
X120745000Y-127095000D02*
X120745000Y-123095000D01*
%TO.C,TP1*%
X111665000Y-123095000D02*
X111665000Y-127095000D01*
X111665000Y-123095000D02*
X115665000Y-123095000D01*
X115665000Y-127095000D02*
X111665000Y-127095000D01*
X115665000Y-127095000D02*
X115665000Y-123095000D01*
%TD*%
M02*
