%TF.GenerationSoftware,KiCad,Pcbnew,(5.1.9)-1*%
%TF.CreationDate,2021-04-12T23:12:51+02:00*%
%TF.ProjectId,Version1Female,56657273-696f-46e3-9146-656d616c652e,rev?*%
%TF.SameCoordinates,Original*%
%TF.FileFunction,Legend,Top*%
%TF.FilePolarity,Positive*%
%FSLAX46Y46*%
G04 Gerber Fmt 4.6, Leading zero omitted, Abs format (unit mm)*
G04 Created by KiCad (PCBNEW (5.1.9)-1) date 2021-04-12 23:12:51*
%MOMM*%
%LPD*%
G01*
G04 APERTURE LIST*
%ADD10C,0.120000*%
%ADD11C,0.150000*%
G04 APERTURE END LIST*
D10*
%TO.C,J5*%
X126225000Y-56625000D02*
X124895000Y-56625000D01*
X124895000Y-56625000D02*
X124895000Y-55295000D01*
X124895000Y-54025000D02*
X124895000Y-46345000D01*
X127555000Y-46345000D02*
X124895000Y-46345000D01*
X127555000Y-54025000D02*
X127555000Y-46345000D01*
X127555000Y-54025000D02*
X124895000Y-54025000D01*
%TO.C,J13*%
X121285000Y-56575000D02*
X119955000Y-56575000D01*
X119955000Y-56575000D02*
X119955000Y-55245000D01*
X119955000Y-53975000D02*
X119955000Y-46295000D01*
X122615000Y-46295000D02*
X119955000Y-46295000D01*
X122615000Y-53975000D02*
X122615000Y-46295000D01*
X122615000Y-53975000D02*
X119955000Y-53975000D01*
%TO.C,J11*%
X116205000Y-56575000D02*
X114875000Y-56575000D01*
X114875000Y-56575000D02*
X114875000Y-55245000D01*
X114875000Y-53975000D02*
X114875000Y-46295000D01*
X117535000Y-46295000D02*
X114875000Y-46295000D01*
X117535000Y-53975000D02*
X117535000Y-46295000D01*
X117535000Y-53975000D02*
X114875000Y-53975000D01*
%TO.C,J16*%
X131690000Y-56575000D02*
X130360000Y-56575000D01*
X130360000Y-56575000D02*
X130360000Y-55245000D01*
X130360000Y-53975000D02*
X130360000Y-46295000D01*
X133020000Y-46295000D02*
X130360000Y-46295000D01*
X133020000Y-53975000D02*
X133020000Y-46295000D01*
X133020000Y-53975000D02*
X130360000Y-53975000D01*
%TO.C,J8*%
X105410000Y-56575000D02*
X104080000Y-56575000D01*
X104080000Y-56575000D02*
X104080000Y-55245000D01*
X104080000Y-53975000D02*
X104080000Y-46295000D01*
X106740000Y-46295000D02*
X104080000Y-46295000D01*
X106740000Y-53975000D02*
X106740000Y-46295000D01*
X106740000Y-53975000D02*
X104080000Y-53975000D01*
%TO.C,J10*%
X110490000Y-56575000D02*
X109160000Y-56575000D01*
X109160000Y-56575000D02*
X109160000Y-55245000D01*
X109160000Y-53975000D02*
X109160000Y-46295000D01*
X111820000Y-46295000D02*
X109160000Y-46295000D01*
X111820000Y-53975000D02*
X111820000Y-46295000D01*
X111820000Y-53975000D02*
X109160000Y-53975000D01*
%TO.C,TP44*%
X135833000Y-58744000D02*
X138233000Y-58744000D01*
X138233000Y-58744000D02*
X138233000Y-61144000D01*
X138233000Y-61144000D02*
X135833000Y-61144000D01*
X135833000Y-61144000D02*
X135833000Y-58744000D01*
%TO.C,J49*%
X162840000Y-47235000D02*
X159400000Y-47235000D01*
X173482000Y-46359000D02*
X173990000Y-46867000D01*
X174498000Y-46359000D02*
X173482000Y-46359000D01*
X173990000Y-46867000D02*
X174498000Y-46359000D01*
X162840000Y-63255000D02*
X159400000Y-63255000D01*
X159400000Y-63255000D02*
X159400000Y-47235000D01*
X178270000Y-47235000D02*
X166340000Y-47235000D01*
X178270000Y-63255000D02*
X178270000Y-47235000D01*
X178270000Y-63255000D02*
X166340000Y-63255000D01*
%TO.C,TP55*%
X138246000Y-45536000D02*
X140646000Y-45536000D01*
X138246000Y-47936000D02*
X138246000Y-45536000D01*
X140646000Y-47936000D02*
X138246000Y-47936000D01*
X140646000Y-45536000D02*
X140646000Y-47936000D01*
%TO.C,TP54*%
X143792757Y-57870483D02*
X146192757Y-57870483D01*
X143792757Y-60270483D02*
X143792757Y-57870483D01*
X146192757Y-60270483D02*
X143792757Y-60270483D01*
X146192757Y-57870483D02*
X146192757Y-60270483D01*
%TO.C,TP53*%
X146967757Y-57870483D02*
X149367757Y-57870483D01*
X146967757Y-60270483D02*
X146967757Y-57870483D01*
X149367757Y-60270483D02*
X146967757Y-60270483D01*
X149367757Y-57870483D02*
X149367757Y-60270483D01*
%TO.C,TP52*%
X140659000Y-48584000D02*
X143059000Y-48584000D01*
X140659000Y-50984000D02*
X140659000Y-48584000D01*
X143059000Y-50984000D02*
X140659000Y-50984000D01*
X143059000Y-48584000D02*
X143059000Y-50984000D01*
%TO.C,TP51*%
X140659000Y-51759000D02*
X143059000Y-51759000D01*
X140659000Y-54159000D02*
X140659000Y-51759000D01*
X143059000Y-54159000D02*
X140659000Y-54159000D01*
X143059000Y-51759000D02*
X143059000Y-54159000D01*
%TO.C,TP50*%
X152330000Y-54159000D02*
X149930000Y-54159000D01*
X152330000Y-51759000D02*
X152330000Y-54159000D01*
X149930000Y-51759000D02*
X152330000Y-51759000D01*
X149930000Y-54159000D02*
X149930000Y-51759000D01*
%TO.C,TP49*%
X152330000Y-50984000D02*
X149930000Y-50984000D01*
X152330000Y-48584000D02*
X152330000Y-50984000D01*
X149930000Y-48584000D02*
X152330000Y-48584000D01*
X149930000Y-50984000D02*
X149930000Y-48584000D01*
%TO.C,TP48*%
X153105000Y-45790000D02*
X155505000Y-45790000D01*
X153105000Y-48190000D02*
X153105000Y-45790000D01*
X155505000Y-48190000D02*
X153105000Y-48190000D01*
X155505000Y-45790000D02*
X155505000Y-48190000D01*
%TO.C,TP47*%
X126308000Y-61144000D02*
X126308000Y-58744000D01*
X128708000Y-61144000D02*
X126308000Y-61144000D01*
X128708000Y-58744000D02*
X128708000Y-61144000D01*
X126308000Y-58744000D02*
X128708000Y-58744000D01*
%TO.C,TP46*%
X129483000Y-61144000D02*
X129483000Y-58744000D01*
X131883000Y-61144000D02*
X129483000Y-61144000D01*
X131883000Y-58744000D02*
X131883000Y-61144000D01*
X129483000Y-58744000D02*
X131883000Y-58744000D01*
%TO.C,TP45*%
X132658000Y-58744000D02*
X135058000Y-58744000D01*
X135058000Y-58744000D02*
X135058000Y-61144000D01*
X135058000Y-61144000D02*
X132658000Y-61144000D01*
X132658000Y-61144000D02*
X132658000Y-58744000D01*
%TO.C,J5*%
D11*
X125891666Y-57517380D02*
X125891666Y-58231666D01*
X125844047Y-58374523D01*
X125748809Y-58469761D01*
X125605952Y-58517380D01*
X125510714Y-58517380D01*
X126844047Y-57517380D02*
X126367857Y-57517380D01*
X126320238Y-57993571D01*
X126367857Y-57945952D01*
X126463095Y-57898333D01*
X126701190Y-57898333D01*
X126796428Y-57945952D01*
X126844047Y-57993571D01*
X126891666Y-58088809D01*
X126891666Y-58326904D01*
X126844047Y-58422142D01*
X126796428Y-58469761D01*
X126701190Y-58517380D01*
X126463095Y-58517380D01*
X126367857Y-58469761D01*
X126320238Y-58422142D01*
%TO.C,J13*%
X120475476Y-57467380D02*
X120475476Y-58181666D01*
X120427857Y-58324523D01*
X120332619Y-58419761D01*
X120189761Y-58467380D01*
X120094523Y-58467380D01*
X121475476Y-58467380D02*
X120904047Y-58467380D01*
X121189761Y-58467380D02*
X121189761Y-57467380D01*
X121094523Y-57610238D01*
X120999285Y-57705476D01*
X120904047Y-57753095D01*
X121808809Y-57467380D02*
X122427857Y-57467380D01*
X122094523Y-57848333D01*
X122237380Y-57848333D01*
X122332619Y-57895952D01*
X122380238Y-57943571D01*
X122427857Y-58038809D01*
X122427857Y-58276904D01*
X122380238Y-58372142D01*
X122332619Y-58419761D01*
X122237380Y-58467380D01*
X121951666Y-58467380D01*
X121856428Y-58419761D01*
X121808809Y-58372142D01*
%TO.C,J11*%
X115395476Y-57467380D02*
X115395476Y-58181666D01*
X115347857Y-58324523D01*
X115252619Y-58419761D01*
X115109761Y-58467380D01*
X115014523Y-58467380D01*
X116395476Y-58467380D02*
X115824047Y-58467380D01*
X116109761Y-58467380D02*
X116109761Y-57467380D01*
X116014523Y-57610238D01*
X115919285Y-57705476D01*
X115824047Y-57753095D01*
X117347857Y-58467380D02*
X116776428Y-58467380D01*
X117062142Y-58467380D02*
X117062142Y-57467380D01*
X116966904Y-57610238D01*
X116871666Y-57705476D01*
X116776428Y-57753095D01*
%TO.C,J16*%
X130880476Y-57467380D02*
X130880476Y-58181666D01*
X130832857Y-58324523D01*
X130737619Y-58419761D01*
X130594761Y-58467380D01*
X130499523Y-58467380D01*
X131880476Y-58467380D02*
X131309047Y-58467380D01*
X131594761Y-58467380D02*
X131594761Y-57467380D01*
X131499523Y-57610238D01*
X131404285Y-57705476D01*
X131309047Y-57753095D01*
X132737619Y-57467380D02*
X132547142Y-57467380D01*
X132451904Y-57515000D01*
X132404285Y-57562619D01*
X132309047Y-57705476D01*
X132261428Y-57895952D01*
X132261428Y-58276904D01*
X132309047Y-58372142D01*
X132356666Y-58419761D01*
X132451904Y-58467380D01*
X132642380Y-58467380D01*
X132737619Y-58419761D01*
X132785238Y-58372142D01*
X132832857Y-58276904D01*
X132832857Y-58038809D01*
X132785238Y-57943571D01*
X132737619Y-57895952D01*
X132642380Y-57848333D01*
X132451904Y-57848333D01*
X132356666Y-57895952D01*
X132309047Y-57943571D01*
X132261428Y-58038809D01*
%TO.C,J8*%
X105076666Y-57467380D02*
X105076666Y-58181666D01*
X105029047Y-58324523D01*
X104933809Y-58419761D01*
X104790952Y-58467380D01*
X104695714Y-58467380D01*
X105695714Y-57895952D02*
X105600476Y-57848333D01*
X105552857Y-57800714D01*
X105505238Y-57705476D01*
X105505238Y-57657857D01*
X105552857Y-57562619D01*
X105600476Y-57515000D01*
X105695714Y-57467380D01*
X105886190Y-57467380D01*
X105981428Y-57515000D01*
X106029047Y-57562619D01*
X106076666Y-57657857D01*
X106076666Y-57705476D01*
X106029047Y-57800714D01*
X105981428Y-57848333D01*
X105886190Y-57895952D01*
X105695714Y-57895952D01*
X105600476Y-57943571D01*
X105552857Y-57991190D01*
X105505238Y-58086428D01*
X105505238Y-58276904D01*
X105552857Y-58372142D01*
X105600476Y-58419761D01*
X105695714Y-58467380D01*
X105886190Y-58467380D01*
X105981428Y-58419761D01*
X106029047Y-58372142D01*
X106076666Y-58276904D01*
X106076666Y-58086428D01*
X106029047Y-57991190D01*
X105981428Y-57943571D01*
X105886190Y-57895952D01*
%TO.C,J10*%
X109680476Y-57467380D02*
X109680476Y-58181666D01*
X109632857Y-58324523D01*
X109537619Y-58419761D01*
X109394761Y-58467380D01*
X109299523Y-58467380D01*
X110680476Y-58467380D02*
X110109047Y-58467380D01*
X110394761Y-58467380D02*
X110394761Y-57467380D01*
X110299523Y-57610238D01*
X110204285Y-57705476D01*
X110109047Y-57753095D01*
X111299523Y-57467380D02*
X111394761Y-57467380D01*
X111490000Y-57515000D01*
X111537619Y-57562619D01*
X111585238Y-57657857D01*
X111632857Y-57848333D01*
X111632857Y-58086428D01*
X111585238Y-58276904D01*
X111537619Y-58372142D01*
X111490000Y-58419761D01*
X111394761Y-58467380D01*
X111299523Y-58467380D01*
X111204285Y-58419761D01*
X111156666Y-58372142D01*
X111109047Y-58276904D01*
X111061428Y-58086428D01*
X111061428Y-57848333D01*
X111109047Y-57657857D01*
X111156666Y-57562619D01*
X111204285Y-57515000D01*
X111299523Y-57467380D01*
%TO.C,TP44*%
X135294904Y-57398380D02*
X135866333Y-57398380D01*
X135580619Y-58398380D02*
X135580619Y-57398380D01*
X136199666Y-58398380D02*
X136199666Y-57398380D01*
X136580619Y-57398380D01*
X136675857Y-57446000D01*
X136723476Y-57493619D01*
X136771095Y-57588857D01*
X136771095Y-57731714D01*
X136723476Y-57826952D01*
X136675857Y-57874571D01*
X136580619Y-57922190D01*
X136199666Y-57922190D01*
X137628238Y-57731714D02*
X137628238Y-58398380D01*
X137390142Y-57350761D02*
X137152047Y-58065047D01*
X137771095Y-58065047D01*
X138580619Y-57731714D02*
X138580619Y-58398380D01*
X138342523Y-57350761D02*
X138104428Y-58065047D01*
X138723476Y-58065047D01*
%TO.C,REF\u002A\u002A*%
X138416666Y-67752380D02*
X138083333Y-67276190D01*
X137845238Y-67752380D02*
X137845238Y-66752380D01*
X138226190Y-66752380D01*
X138321428Y-66800000D01*
X138369047Y-66847619D01*
X138416666Y-66942857D01*
X138416666Y-67085714D01*
X138369047Y-67180952D01*
X138321428Y-67228571D01*
X138226190Y-67276190D01*
X137845238Y-67276190D01*
X138845238Y-67228571D02*
X139178571Y-67228571D01*
X139321428Y-67752380D02*
X138845238Y-67752380D01*
X138845238Y-66752380D01*
X139321428Y-66752380D01*
X140083333Y-67228571D02*
X139750000Y-67228571D01*
X139750000Y-67752380D02*
X139750000Y-66752380D01*
X140226190Y-66752380D01*
X140750000Y-66752380D02*
X140750000Y-66990476D01*
X140511904Y-66895238D02*
X140750000Y-66990476D01*
X140988095Y-66895238D01*
X140607142Y-67180952D02*
X140750000Y-66990476D01*
X140892857Y-67180952D01*
X141511904Y-66752380D02*
X141511904Y-66990476D01*
X141273809Y-66895238D02*
X141511904Y-66990476D01*
X141750000Y-66895238D01*
X141369047Y-67180952D02*
X141511904Y-66990476D01*
X141654761Y-67180952D01*
X118416666Y-87752380D02*
X118083333Y-87276190D01*
X117845238Y-87752380D02*
X117845238Y-86752380D01*
X118226190Y-86752380D01*
X118321428Y-86800000D01*
X118369047Y-86847619D01*
X118416666Y-86942857D01*
X118416666Y-87085714D01*
X118369047Y-87180952D01*
X118321428Y-87228571D01*
X118226190Y-87276190D01*
X117845238Y-87276190D01*
X118845238Y-87228571D02*
X119178571Y-87228571D01*
X119321428Y-87752380D02*
X118845238Y-87752380D01*
X118845238Y-86752380D01*
X119321428Y-86752380D01*
X120083333Y-87228571D02*
X119750000Y-87228571D01*
X119750000Y-87752380D02*
X119750000Y-86752380D01*
X120226190Y-86752380D01*
X120750000Y-86752380D02*
X120750000Y-86990476D01*
X120511904Y-86895238D02*
X120750000Y-86990476D01*
X120988095Y-86895238D01*
X120607142Y-87180952D02*
X120750000Y-86990476D01*
X120892857Y-87180952D01*
X121511904Y-86752380D02*
X121511904Y-86990476D01*
X121273809Y-86895238D02*
X121511904Y-86990476D01*
X121750000Y-86895238D01*
X121369047Y-87180952D02*
X121511904Y-86990476D01*
X121654761Y-87180952D01*
X138416666Y-107752380D02*
X138083333Y-107276190D01*
X137845238Y-107752380D02*
X137845238Y-106752380D01*
X138226190Y-106752380D01*
X138321428Y-106800000D01*
X138369047Y-106847619D01*
X138416666Y-106942857D01*
X138416666Y-107085714D01*
X138369047Y-107180952D01*
X138321428Y-107228571D01*
X138226190Y-107276190D01*
X137845238Y-107276190D01*
X138845238Y-107228571D02*
X139178571Y-107228571D01*
X139321428Y-107752380D02*
X138845238Y-107752380D01*
X138845238Y-106752380D01*
X139321428Y-106752380D01*
X140083333Y-107228571D02*
X139750000Y-107228571D01*
X139750000Y-107752380D02*
X139750000Y-106752380D01*
X140226190Y-106752380D01*
X140750000Y-106752380D02*
X140750000Y-106990476D01*
X140511904Y-106895238D02*
X140750000Y-106990476D01*
X140988095Y-106895238D01*
X140607142Y-107180952D02*
X140750000Y-106990476D01*
X140892857Y-107180952D01*
X141511904Y-106752380D02*
X141511904Y-106990476D01*
X141273809Y-106895238D02*
X141511904Y-106990476D01*
X141750000Y-106895238D01*
X141369047Y-107180952D02*
X141511904Y-106990476D01*
X141654761Y-107180952D01*
X157166666Y-87752380D02*
X156833333Y-87276190D01*
X156595238Y-87752380D02*
X156595238Y-86752380D01*
X156976190Y-86752380D01*
X157071428Y-86800000D01*
X157119047Y-86847619D01*
X157166666Y-86942857D01*
X157166666Y-87085714D01*
X157119047Y-87180952D01*
X157071428Y-87228571D01*
X156976190Y-87276190D01*
X156595238Y-87276190D01*
X157595238Y-87228571D02*
X157928571Y-87228571D01*
X158071428Y-87752380D02*
X157595238Y-87752380D01*
X157595238Y-86752380D01*
X158071428Y-86752380D01*
X158833333Y-87228571D02*
X158500000Y-87228571D01*
X158500000Y-87752380D02*
X158500000Y-86752380D01*
X158976190Y-86752380D01*
X159500000Y-86752380D02*
X159500000Y-86990476D01*
X159261904Y-86895238D02*
X159500000Y-86990476D01*
X159738095Y-86895238D01*
X159357142Y-87180952D02*
X159500000Y-86990476D01*
X159642857Y-87180952D01*
X160261904Y-86752380D02*
X160261904Y-86990476D01*
X160023809Y-86895238D02*
X160261904Y-86990476D01*
X160500000Y-86895238D01*
X160119047Y-87180952D02*
X160261904Y-86990476D01*
X160404761Y-87180952D01*
%TO.C,J49*%
X178782380Y-56054523D02*
X179496666Y-56054523D01*
X179639523Y-56102142D01*
X179734761Y-56197380D01*
X179782380Y-56340238D01*
X179782380Y-56435476D01*
X179115714Y-55149761D02*
X179782380Y-55149761D01*
X178734761Y-55387857D02*
X179449047Y-55625952D01*
X179449047Y-55006904D01*
X179782380Y-54578333D02*
X179782380Y-54387857D01*
X179734761Y-54292619D01*
X179687142Y-54245000D01*
X179544285Y-54149761D01*
X179353809Y-54102142D01*
X178972857Y-54102142D01*
X178877619Y-54149761D01*
X178830000Y-54197380D01*
X178782380Y-54292619D01*
X178782380Y-54483095D01*
X178830000Y-54578333D01*
X178877619Y-54625952D01*
X178972857Y-54673571D01*
X179210952Y-54673571D01*
X179306190Y-54625952D01*
X179353809Y-54578333D01*
X179401428Y-54483095D01*
X179401428Y-54292619D01*
X179353809Y-54197380D01*
X179306190Y-54149761D01*
X179210952Y-54102142D01*
%TO.C,REF\u002A\u002A*%
X138416666Y-85652380D02*
X138083333Y-85176190D01*
X137845238Y-85652380D02*
X137845238Y-84652380D01*
X138226190Y-84652380D01*
X138321428Y-84700000D01*
X138369047Y-84747619D01*
X138416666Y-84842857D01*
X138416666Y-84985714D01*
X138369047Y-85080952D01*
X138321428Y-85128571D01*
X138226190Y-85176190D01*
X137845238Y-85176190D01*
X138845238Y-85128571D02*
X139178571Y-85128571D01*
X139321428Y-85652380D02*
X138845238Y-85652380D01*
X138845238Y-84652380D01*
X139321428Y-84652380D01*
X140083333Y-85128571D02*
X139750000Y-85128571D01*
X139750000Y-85652380D02*
X139750000Y-84652380D01*
X140226190Y-84652380D01*
X140750000Y-84652380D02*
X140750000Y-84890476D01*
X140511904Y-84795238D02*
X140750000Y-84890476D01*
X140988095Y-84795238D01*
X140607142Y-85080952D02*
X140750000Y-84890476D01*
X140892857Y-85080952D01*
X141511904Y-84652380D02*
X141511904Y-84890476D01*
X141273809Y-84795238D02*
X141511904Y-84890476D01*
X141750000Y-84795238D01*
X141369047Y-85080952D02*
X141511904Y-84890476D01*
X141654761Y-85080952D01*
%TO.C,TP55*%
X140896380Y-48474095D02*
X140896380Y-47902666D01*
X141896380Y-48188380D02*
X140896380Y-48188380D01*
X141896380Y-47569333D02*
X140896380Y-47569333D01*
X140896380Y-47188380D01*
X140944000Y-47093142D01*
X140991619Y-47045523D01*
X141086857Y-46997904D01*
X141229714Y-46997904D01*
X141324952Y-47045523D01*
X141372571Y-47093142D01*
X141420190Y-47188380D01*
X141420190Y-47569333D01*
X140896380Y-46093142D02*
X140896380Y-46569333D01*
X141372571Y-46616952D01*
X141324952Y-46569333D01*
X141277333Y-46474095D01*
X141277333Y-46236000D01*
X141324952Y-46140761D01*
X141372571Y-46093142D01*
X141467809Y-46045523D01*
X141705904Y-46045523D01*
X141801142Y-46093142D01*
X141848761Y-46140761D01*
X141896380Y-46236000D01*
X141896380Y-46474095D01*
X141848761Y-46569333D01*
X141801142Y-46616952D01*
X140896380Y-45140761D02*
X140896380Y-45616952D01*
X141372571Y-45664571D01*
X141324952Y-45616952D01*
X141277333Y-45521714D01*
X141277333Y-45283619D01*
X141324952Y-45188380D01*
X141372571Y-45140761D01*
X141467809Y-45093142D01*
X141705904Y-45093142D01*
X141801142Y-45140761D01*
X141848761Y-45188380D01*
X141896380Y-45283619D01*
X141896380Y-45521714D01*
X141848761Y-45616952D01*
X141801142Y-45664571D01*
%TO.C,TP54*%
X146443137Y-60808578D02*
X146443137Y-60237149D01*
X147443137Y-60522863D02*
X146443137Y-60522863D01*
X147443137Y-59903816D02*
X146443137Y-59903816D01*
X146443137Y-59522863D01*
X146490757Y-59427625D01*
X146538376Y-59380006D01*
X146633614Y-59332387D01*
X146776471Y-59332387D01*
X146871709Y-59380006D01*
X146919328Y-59427625D01*
X146966947Y-59522863D01*
X146966947Y-59903816D01*
X146443137Y-58427625D02*
X146443137Y-58903816D01*
X146919328Y-58951435D01*
X146871709Y-58903816D01*
X146824090Y-58808578D01*
X146824090Y-58570483D01*
X146871709Y-58475244D01*
X146919328Y-58427625D01*
X147014566Y-58380006D01*
X147252661Y-58380006D01*
X147347899Y-58427625D01*
X147395518Y-58475244D01*
X147443137Y-58570483D01*
X147443137Y-58808578D01*
X147395518Y-58903816D01*
X147347899Y-58951435D01*
X146776471Y-57522863D02*
X147443137Y-57522863D01*
X146395518Y-57760959D02*
X147109804Y-57999054D01*
X147109804Y-57380006D01*
%TO.C,TP53*%
X149618137Y-60808578D02*
X149618137Y-60237149D01*
X150618137Y-60522863D02*
X149618137Y-60522863D01*
X150618137Y-59903816D02*
X149618137Y-59903816D01*
X149618137Y-59522863D01*
X149665757Y-59427625D01*
X149713376Y-59380006D01*
X149808614Y-59332387D01*
X149951471Y-59332387D01*
X150046709Y-59380006D01*
X150094328Y-59427625D01*
X150141947Y-59522863D01*
X150141947Y-59903816D01*
X149618137Y-58427625D02*
X149618137Y-58903816D01*
X150094328Y-58951435D01*
X150046709Y-58903816D01*
X149999090Y-58808578D01*
X149999090Y-58570483D01*
X150046709Y-58475244D01*
X150094328Y-58427625D01*
X150189566Y-58380006D01*
X150427661Y-58380006D01*
X150522899Y-58427625D01*
X150570518Y-58475244D01*
X150618137Y-58570483D01*
X150618137Y-58808578D01*
X150570518Y-58903816D01*
X150522899Y-58951435D01*
X149618137Y-58046673D02*
X149618137Y-57427625D01*
X149999090Y-57760959D01*
X149999090Y-57618102D01*
X150046709Y-57522863D01*
X150094328Y-57475244D01*
X150189566Y-57427625D01*
X150427661Y-57427625D01*
X150522899Y-57475244D01*
X150570518Y-57522863D01*
X150618137Y-57618102D01*
X150618137Y-57903816D01*
X150570518Y-57999054D01*
X150522899Y-58046673D01*
%TO.C,TP52*%
X143309380Y-51522095D02*
X143309380Y-50950666D01*
X144309380Y-51236380D02*
X143309380Y-51236380D01*
X144309380Y-50617333D02*
X143309380Y-50617333D01*
X143309380Y-50236380D01*
X143357000Y-50141142D01*
X143404619Y-50093523D01*
X143499857Y-50045904D01*
X143642714Y-50045904D01*
X143737952Y-50093523D01*
X143785571Y-50141142D01*
X143833190Y-50236380D01*
X143833190Y-50617333D01*
X143309380Y-49141142D02*
X143309380Y-49617333D01*
X143785571Y-49664952D01*
X143737952Y-49617333D01*
X143690333Y-49522095D01*
X143690333Y-49284000D01*
X143737952Y-49188761D01*
X143785571Y-49141142D01*
X143880809Y-49093523D01*
X144118904Y-49093523D01*
X144214142Y-49141142D01*
X144261761Y-49188761D01*
X144309380Y-49284000D01*
X144309380Y-49522095D01*
X144261761Y-49617333D01*
X144214142Y-49664952D01*
X143404619Y-48712571D02*
X143357000Y-48664952D01*
X143309380Y-48569714D01*
X143309380Y-48331619D01*
X143357000Y-48236380D01*
X143404619Y-48188761D01*
X143499857Y-48141142D01*
X143595095Y-48141142D01*
X143737952Y-48188761D01*
X144309380Y-48760190D01*
X144309380Y-48141142D01*
%TO.C,TP51*%
X143309380Y-54697095D02*
X143309380Y-54125666D01*
X144309380Y-54411380D02*
X143309380Y-54411380D01*
X144309380Y-53792333D02*
X143309380Y-53792333D01*
X143309380Y-53411380D01*
X143357000Y-53316142D01*
X143404619Y-53268523D01*
X143499857Y-53220904D01*
X143642714Y-53220904D01*
X143737952Y-53268523D01*
X143785571Y-53316142D01*
X143833190Y-53411380D01*
X143833190Y-53792333D01*
X143309380Y-52316142D02*
X143309380Y-52792333D01*
X143785571Y-52839952D01*
X143737952Y-52792333D01*
X143690333Y-52697095D01*
X143690333Y-52459000D01*
X143737952Y-52363761D01*
X143785571Y-52316142D01*
X143880809Y-52268523D01*
X144118904Y-52268523D01*
X144214142Y-52316142D01*
X144261761Y-52363761D01*
X144309380Y-52459000D01*
X144309380Y-52697095D01*
X144261761Y-52792333D01*
X144214142Y-52839952D01*
X144309380Y-51316142D02*
X144309380Y-51887571D01*
X144309380Y-51601857D02*
X143309380Y-51601857D01*
X143452238Y-51697095D01*
X143547476Y-51792333D01*
X143595095Y-51887571D01*
%TO.C,TP50*%
X148584380Y-54697095D02*
X148584380Y-54125666D01*
X149584380Y-54411380D02*
X148584380Y-54411380D01*
X149584380Y-53792333D02*
X148584380Y-53792333D01*
X148584380Y-53411380D01*
X148632000Y-53316142D01*
X148679619Y-53268523D01*
X148774857Y-53220904D01*
X148917714Y-53220904D01*
X149012952Y-53268523D01*
X149060571Y-53316142D01*
X149108190Y-53411380D01*
X149108190Y-53792333D01*
X148584380Y-52316142D02*
X148584380Y-52792333D01*
X149060571Y-52839952D01*
X149012952Y-52792333D01*
X148965333Y-52697095D01*
X148965333Y-52459000D01*
X149012952Y-52363761D01*
X149060571Y-52316142D01*
X149155809Y-52268523D01*
X149393904Y-52268523D01*
X149489142Y-52316142D01*
X149536761Y-52363761D01*
X149584380Y-52459000D01*
X149584380Y-52697095D01*
X149536761Y-52792333D01*
X149489142Y-52839952D01*
X148584380Y-51649476D02*
X148584380Y-51554238D01*
X148632000Y-51459000D01*
X148679619Y-51411380D01*
X148774857Y-51363761D01*
X148965333Y-51316142D01*
X149203428Y-51316142D01*
X149393904Y-51363761D01*
X149489142Y-51411380D01*
X149536761Y-51459000D01*
X149584380Y-51554238D01*
X149584380Y-51649476D01*
X149536761Y-51744714D01*
X149489142Y-51792333D01*
X149393904Y-51839952D01*
X149203428Y-51887571D01*
X148965333Y-51887571D01*
X148774857Y-51839952D01*
X148679619Y-51792333D01*
X148632000Y-51744714D01*
X148584380Y-51649476D01*
%TO.C,TP49*%
X148584380Y-51522095D02*
X148584380Y-50950666D01*
X149584380Y-51236380D02*
X148584380Y-51236380D01*
X149584380Y-50617333D02*
X148584380Y-50617333D01*
X148584380Y-50236380D01*
X148632000Y-50141142D01*
X148679619Y-50093523D01*
X148774857Y-50045904D01*
X148917714Y-50045904D01*
X149012952Y-50093523D01*
X149060571Y-50141142D01*
X149108190Y-50236380D01*
X149108190Y-50617333D01*
X148917714Y-49188761D02*
X149584380Y-49188761D01*
X148536761Y-49426857D02*
X149251047Y-49664952D01*
X149251047Y-49045904D01*
X149584380Y-48617333D02*
X149584380Y-48426857D01*
X149536761Y-48331619D01*
X149489142Y-48284000D01*
X149346285Y-48188761D01*
X149155809Y-48141142D01*
X148774857Y-48141142D01*
X148679619Y-48188761D01*
X148632000Y-48236380D01*
X148584380Y-48331619D01*
X148584380Y-48522095D01*
X148632000Y-48617333D01*
X148679619Y-48664952D01*
X148774857Y-48712571D01*
X149012952Y-48712571D01*
X149108190Y-48664952D01*
X149155809Y-48617333D01*
X149203428Y-48522095D01*
X149203428Y-48331619D01*
X149155809Y-48236380D01*
X149108190Y-48188761D01*
X149012952Y-48141142D01*
%TO.C,TP48*%
X155755380Y-48728095D02*
X155755380Y-48156666D01*
X156755380Y-48442380D02*
X155755380Y-48442380D01*
X156755380Y-47823333D02*
X155755380Y-47823333D01*
X155755380Y-47442380D01*
X155803000Y-47347142D01*
X155850619Y-47299523D01*
X155945857Y-47251904D01*
X156088714Y-47251904D01*
X156183952Y-47299523D01*
X156231571Y-47347142D01*
X156279190Y-47442380D01*
X156279190Y-47823333D01*
X156088714Y-46394761D02*
X156755380Y-46394761D01*
X155707761Y-46632857D02*
X156422047Y-46870952D01*
X156422047Y-46251904D01*
X156183952Y-45728095D02*
X156136333Y-45823333D01*
X156088714Y-45870952D01*
X155993476Y-45918571D01*
X155945857Y-45918571D01*
X155850619Y-45870952D01*
X155803000Y-45823333D01*
X155755380Y-45728095D01*
X155755380Y-45537619D01*
X155803000Y-45442380D01*
X155850619Y-45394761D01*
X155945857Y-45347142D01*
X155993476Y-45347142D01*
X156088714Y-45394761D01*
X156136333Y-45442380D01*
X156183952Y-45537619D01*
X156183952Y-45728095D01*
X156231571Y-45823333D01*
X156279190Y-45870952D01*
X156374428Y-45918571D01*
X156564904Y-45918571D01*
X156660142Y-45870952D01*
X156707761Y-45823333D01*
X156755380Y-45728095D01*
X156755380Y-45537619D01*
X156707761Y-45442380D01*
X156660142Y-45394761D01*
X156564904Y-45347142D01*
X156374428Y-45347142D01*
X156279190Y-45394761D01*
X156231571Y-45442380D01*
X156183952Y-45537619D01*
%TO.C,TP47*%
X125769904Y-57398380D02*
X126341333Y-57398380D01*
X126055619Y-58398380D02*
X126055619Y-57398380D01*
X126674666Y-58398380D02*
X126674666Y-57398380D01*
X127055619Y-57398380D01*
X127150857Y-57446000D01*
X127198476Y-57493619D01*
X127246095Y-57588857D01*
X127246095Y-57731714D01*
X127198476Y-57826952D01*
X127150857Y-57874571D01*
X127055619Y-57922190D01*
X126674666Y-57922190D01*
X128103238Y-57731714D02*
X128103238Y-58398380D01*
X127865142Y-57350761D02*
X127627047Y-58065047D01*
X128246095Y-58065047D01*
X128531809Y-57398380D02*
X129198476Y-57398380D01*
X128769904Y-58398380D01*
%TO.C,TP46*%
X128944904Y-57398380D02*
X129516333Y-57398380D01*
X129230619Y-58398380D02*
X129230619Y-57398380D01*
X129849666Y-58398380D02*
X129849666Y-57398380D01*
X130230619Y-57398380D01*
X130325857Y-57446000D01*
X130373476Y-57493619D01*
X130421095Y-57588857D01*
X130421095Y-57731714D01*
X130373476Y-57826952D01*
X130325857Y-57874571D01*
X130230619Y-57922190D01*
X129849666Y-57922190D01*
X131278238Y-57731714D02*
X131278238Y-58398380D01*
X131040142Y-57350761D02*
X130802047Y-58065047D01*
X131421095Y-58065047D01*
X132230619Y-57398380D02*
X132040142Y-57398380D01*
X131944904Y-57446000D01*
X131897285Y-57493619D01*
X131802047Y-57636476D01*
X131754428Y-57826952D01*
X131754428Y-58207904D01*
X131802047Y-58303142D01*
X131849666Y-58350761D01*
X131944904Y-58398380D01*
X132135380Y-58398380D01*
X132230619Y-58350761D01*
X132278238Y-58303142D01*
X132325857Y-58207904D01*
X132325857Y-57969809D01*
X132278238Y-57874571D01*
X132230619Y-57826952D01*
X132135380Y-57779333D01*
X131944904Y-57779333D01*
X131849666Y-57826952D01*
X131802047Y-57874571D01*
X131754428Y-57969809D01*
%TO.C,TP45*%
X132119904Y-57398380D02*
X132691333Y-57398380D01*
X132405619Y-58398380D02*
X132405619Y-57398380D01*
X133024666Y-58398380D02*
X133024666Y-57398380D01*
X133405619Y-57398380D01*
X133500857Y-57446000D01*
X133548476Y-57493619D01*
X133596095Y-57588857D01*
X133596095Y-57731714D01*
X133548476Y-57826952D01*
X133500857Y-57874571D01*
X133405619Y-57922190D01*
X133024666Y-57922190D01*
X134453238Y-57731714D02*
X134453238Y-58398380D01*
X134215142Y-57350761D02*
X133977047Y-58065047D01*
X134596095Y-58065047D01*
X135453238Y-57398380D02*
X134977047Y-57398380D01*
X134929428Y-57874571D01*
X134977047Y-57826952D01*
X135072285Y-57779333D01*
X135310380Y-57779333D01*
X135405619Y-57826952D01*
X135453238Y-57874571D01*
X135500857Y-57969809D01*
X135500857Y-58207904D01*
X135453238Y-58303142D01*
X135405619Y-58350761D01*
X135310380Y-58398380D01*
X135072285Y-58398380D01*
X134977047Y-58350761D01*
X134929428Y-58303142D01*
%TD*%
M02*
