%TF.GenerationSoftware,KiCad,Pcbnew,(5.1.9)-1*%
%TF.CreationDate,2021-04-12T23:12:51+02:00*%
%TF.ProjectId,Version1Female,56657273-696f-46e3-9146-656d616c652e,rev?*%
%TF.SameCoordinates,Original*%
%TF.FileFunction,Other,User*%
%FSLAX46Y46*%
G04 Gerber Fmt 4.6, Leading zero omitted, Abs format (unit mm)*
G04 Created by KiCad (PCBNEW (5.1.9)-1) date 2021-04-12 23:12:51*
%MOMM*%
%LPD*%
G01*
G04 APERTURE LIST*
%ADD10C,0.050000*%
G04 APERTURE END LIST*
D10*
%TO.C,J5*%
X128025000Y-45895000D02*
X128025000Y-57095000D01*
X124475000Y-45895000D02*
X128025000Y-45895000D01*
X124475000Y-57095000D02*
X124475000Y-45895000D01*
X128025000Y-57095000D02*
X124475000Y-57095000D01*
%TO.C,J13*%
X123085000Y-45845000D02*
X123085000Y-57045000D01*
X119535000Y-45845000D02*
X123085000Y-45845000D01*
X119535000Y-57045000D02*
X119535000Y-45845000D01*
X123085000Y-57045000D02*
X119535000Y-57045000D01*
%TO.C,J11*%
X118005000Y-45845000D02*
X118005000Y-57045000D01*
X114455000Y-45845000D02*
X118005000Y-45845000D01*
X114455000Y-57045000D02*
X114455000Y-45845000D01*
X118005000Y-57045000D02*
X114455000Y-57045000D01*
%TO.C,J16*%
X133490000Y-45845000D02*
X133490000Y-57045000D01*
X129940000Y-45845000D02*
X133490000Y-45845000D01*
X129940000Y-57045000D02*
X129940000Y-45845000D01*
X133490000Y-57045000D02*
X129940000Y-57045000D01*
%TO.C,J8*%
X107210000Y-45845000D02*
X107210000Y-57045000D01*
X103660000Y-45845000D02*
X107210000Y-45845000D01*
X103660000Y-57045000D02*
X103660000Y-45845000D01*
X107210000Y-57045000D02*
X103660000Y-57045000D01*
%TO.C,J10*%
X112290000Y-45845000D02*
X112290000Y-57045000D01*
X108740000Y-45845000D02*
X112290000Y-45845000D01*
X108740000Y-57045000D02*
X108740000Y-45845000D01*
X112290000Y-57045000D02*
X108740000Y-57045000D01*
%TO.C,TP44*%
X135533000Y-58444000D02*
X138533000Y-58444000D01*
X135533000Y-58444000D02*
X135533000Y-61444000D01*
X138533000Y-61444000D02*
X138533000Y-58444000D01*
X138533000Y-61444000D02*
X135533000Y-61444000D01*
%TO.C,REF\u002A\u002A*%
X143200000Y-71500000D02*
G75*
G03*
X143200000Y-71500000I-3450000J0D01*
G01*
X123200000Y-91500000D02*
G75*
G03*
X123200000Y-91500000I-3450000J0D01*
G01*
X143200000Y-111500000D02*
G75*
G03*
X143200000Y-111500000I-3450000J0D01*
G01*
X161950000Y-91500000D02*
G75*
G03*
X161950000Y-91500000I-3450000J0D01*
G01*
%TO.C,J49*%
X159010000Y-45470000D02*
X178660000Y-45470000D01*
X159010000Y-65020000D02*
X159010000Y-45470000D01*
X178660000Y-65020000D02*
X159010000Y-65020000D01*
X178660000Y-45470000D02*
X178660000Y-65020000D01*
%TO.C,REF\u002A\u002A*%
X145300000Y-91500000D02*
G75*
G03*
X145300000Y-91500000I-5550000J0D01*
G01*
%TO.C,TP55*%
X137946000Y-48236000D02*
X137946000Y-45236000D01*
X137946000Y-48236000D02*
X140946000Y-48236000D01*
X140946000Y-45236000D02*
X137946000Y-45236000D01*
X140946000Y-45236000D02*
X140946000Y-48236000D01*
%TO.C,TP54*%
X143492757Y-60570483D02*
X143492757Y-57570483D01*
X143492757Y-60570483D02*
X146492757Y-60570483D01*
X146492757Y-57570483D02*
X143492757Y-57570483D01*
X146492757Y-57570483D02*
X146492757Y-60570483D01*
%TO.C,TP53*%
X146667757Y-60570483D02*
X146667757Y-57570483D01*
X146667757Y-60570483D02*
X149667757Y-60570483D01*
X149667757Y-57570483D02*
X146667757Y-57570483D01*
X149667757Y-57570483D02*
X149667757Y-60570483D01*
%TO.C,TP52*%
X140359000Y-51284000D02*
X140359000Y-48284000D01*
X140359000Y-51284000D02*
X143359000Y-51284000D01*
X143359000Y-48284000D02*
X140359000Y-48284000D01*
X143359000Y-48284000D02*
X143359000Y-51284000D01*
%TO.C,TP51*%
X140359000Y-54459000D02*
X140359000Y-51459000D01*
X140359000Y-54459000D02*
X143359000Y-54459000D01*
X143359000Y-51459000D02*
X140359000Y-51459000D01*
X143359000Y-51459000D02*
X143359000Y-54459000D01*
%TO.C,TP50*%
X152630000Y-51459000D02*
X152630000Y-54459000D01*
X152630000Y-51459000D02*
X149630000Y-51459000D01*
X149630000Y-54459000D02*
X152630000Y-54459000D01*
X149630000Y-54459000D02*
X149630000Y-51459000D01*
%TO.C,TP49*%
X152630000Y-48284000D02*
X152630000Y-51284000D01*
X152630000Y-48284000D02*
X149630000Y-48284000D01*
X149630000Y-51284000D02*
X152630000Y-51284000D01*
X149630000Y-51284000D02*
X149630000Y-48284000D01*
%TO.C,TP48*%
X152805000Y-48490000D02*
X152805000Y-45490000D01*
X152805000Y-48490000D02*
X155805000Y-48490000D01*
X155805000Y-45490000D02*
X152805000Y-45490000D01*
X155805000Y-45490000D02*
X155805000Y-48490000D01*
%TO.C,TP47*%
X129008000Y-61444000D02*
X126008000Y-61444000D01*
X129008000Y-61444000D02*
X129008000Y-58444000D01*
X126008000Y-58444000D02*
X126008000Y-61444000D01*
X126008000Y-58444000D02*
X129008000Y-58444000D01*
%TO.C,TP46*%
X132183000Y-61444000D02*
X129183000Y-61444000D01*
X132183000Y-61444000D02*
X132183000Y-58444000D01*
X129183000Y-58444000D02*
X129183000Y-61444000D01*
X129183000Y-58444000D02*
X132183000Y-58444000D01*
%TO.C,TP45*%
X132358000Y-58444000D02*
X135358000Y-58444000D01*
X132358000Y-58444000D02*
X132358000Y-61444000D01*
X135358000Y-61444000D02*
X135358000Y-58444000D01*
X135358000Y-61444000D02*
X132358000Y-61444000D01*
%TD*%
M02*
