%TF.GenerationSoftware,KiCad,Pcbnew,(5.1.9)-1*%
%TF.CreationDate,2021-04-12T23:14:18+02:00*%
%TF.ProjectId,Version1Male,56657273-696f-46e3-914d-616c652e6b69,rev?*%
%TF.SameCoordinates,Original*%
%TF.FileFunction,Copper,L2,Bot*%
%TF.FilePolarity,Positive*%
%FSLAX46Y46*%
G04 Gerber Fmt 4.6, Leading zero omitted, Abs format (unit mm)*
G04 Created by KiCad (PCBNEW (5.1.9)-1) date 2021-04-12 23:14:18*
%MOMM*%
%LPD*%
G01*
G04 APERTURE LIST*
%TA.AperFunction,ComponentPad*%
%ADD10R,3.000000X3.000000*%
%TD*%
%TA.AperFunction,SMDPad,CuDef*%
%ADD11R,2.000000X2.000000*%
%TD*%
%TA.AperFunction,SMDPad,CuDef*%
%ADD12O,1.700000X1.700000*%
%TD*%
%TA.AperFunction,SMDPad,CuDef*%
%ADD13R,1.700000X1.700000*%
%TD*%
%TA.AperFunction,ConnectorPad*%
%ADD14R,1.700000X1.700000*%
%TD*%
%TA.AperFunction,ComponentPad*%
%ADD15C,6.400000*%
%TD*%
%TA.AperFunction,ComponentPad*%
%ADD16C,1.500000*%
%TD*%
%TA.AperFunction,ComponentPad*%
%ADD17R,1.500000X1.500000*%
%TD*%
%TA.AperFunction,ComponentPad*%
%ADD18C,10.600000*%
%TD*%
%TA.AperFunction,ComponentPad*%
%ADD19O,1.700000X1.700000*%
%TD*%
%TA.AperFunction,ComponentPad*%
%ADD20R,1.700000X1.700000*%
%TD*%
%TA.AperFunction,ComponentPad*%
%ADD21C,0.100000*%
%TD*%
%TA.AperFunction,Conductor*%
%ADD22C,1.000000*%
%TD*%
%TA.AperFunction,Conductor*%
%ADD23C,1.800000*%
%TD*%
%TA.AperFunction,Conductor*%
%ADD24C,0.700000*%
%TD*%
%TA.AperFunction,Conductor*%
%ADD25C,0.500000*%
%TD*%
%TA.AperFunction,Conductor*%
%ADD26C,0.254000*%
%TD*%
%TA.AperFunction,Conductor*%
%ADD27C,0.100000*%
%TD*%
G04 APERTURE END LIST*
D10*
%TO.P,TP43,1*%
%TO.N,XM4*%
X183515000Y-78105000D03*
%TD*%
%TO.P,TP42,1*%
%TO.N,-M4*%
X183515000Y-74295000D03*
%TD*%
%TO.P,TP41,1*%
%TO.N,+M4*%
X183515000Y-70485000D03*
%TD*%
%TO.P,TP40,1*%
%TO.N,GND_VB1*%
X177165000Y-90170000D03*
%TD*%
%TO.P,TP39,1*%
%TO.N,+12_VB1*%
X177165000Y-84455000D03*
%TD*%
%TO.P,TP38,1*%
%TO.N,GND_VA*%
X120015000Y-106680000D03*
%TD*%
%TO.P,TP38,1*%
%TO.N,GND_VA*%
X120015000Y-111125000D03*
%TD*%
%TO.P,TP37,1*%
%TO.N,+48_VA*%
X158115000Y-107315000D03*
%TD*%
%TO.P,TP37,1*%
%TO.N,+48_VA*%
X158115000Y-111760000D03*
%TD*%
%TO.P,TP36,1*%
%TO.N,XM3*%
X171450000Y-70485000D03*
%TD*%
%TO.P,TP35,1*%
%TO.N,-M3*%
X171450000Y-74930000D03*
%TD*%
%TO.P,TP34,1*%
%TO.N,+M3*%
X171450000Y-79375000D03*
%TD*%
%TO.P,TP33,1*%
%TO.N,XM2*%
X113665000Y-67310000D03*
%TD*%
%TO.P,TP32,1*%
%TO.N,-M2*%
X121285000Y-67310000D03*
%TD*%
%TO.P,TP31,1*%
%TO.N,+M2*%
X126365000Y-67310000D03*
%TD*%
%TO.P,TP30,1*%
%TO.N,XM1*%
X165735000Y-68580000D03*
%TD*%
%TO.P,TP29,1*%
%TO.N,-M1*%
X160020000Y-68580000D03*
%TD*%
%TO.P,TP28,1*%
%TO.N,+M1*%
X155575000Y-68580000D03*
%TD*%
%TO.P,TP27,1*%
%TO.N,XM0*%
X98425000Y-67310000D03*
%TD*%
%TO.P,TP26,1*%
%TO.N,-M0*%
X102870000Y-71755000D03*
%TD*%
%TO.P,TP25,1*%
%TO.N,+M0*%
X102870000Y-76200000D03*
%TD*%
%TO.P,TP24,1*%
%TO.N,T7B*%
X99060000Y-81915000D03*
%TD*%
%TO.P,TP23,1*%
%TO.N,T7G*%
X99060000Y-86995000D03*
%TD*%
%TO.P,TP22,1*%
%TO.N,T7R*%
X99060000Y-92075000D03*
%TD*%
%TO.P,TP21,1*%
%TO.N,T6B*%
X101600000Y-99060000D03*
%TD*%
%TO.P,TP20,1*%
%TO.N,T6G*%
X101600000Y-104140000D03*
%TD*%
%TO.P,TP19,1*%
%TO.N,T6R*%
X101600000Y-109220000D03*
%TD*%
%TO.P,TP18,1*%
%TO.N,T5B*%
X108585000Y-128270000D03*
%TD*%
%TO.P,TP17,1*%
%TO.N,T5G*%
X103505000Y-128270000D03*
%TD*%
%TO.P,TP16,1*%
%TO.N,T5R*%
X97790000Y-128270000D03*
%TD*%
%TO.P,TP15,1*%
%TO.N,T4B*%
X178435000Y-96520000D03*
%TD*%
%TO.P,TP14,1*%
%TO.N,T4G*%
X178435000Y-102235000D03*
%TD*%
%TO.P,TP13,1*%
%TO.N,T4R*%
X178435000Y-107315000D03*
%TD*%
%TO.P,TP12,1*%
%TO.N,T3B*%
X182880000Y-127000000D03*
%TD*%
%TO.P,TP11,1*%
%TO.N,T3G*%
X178435000Y-127000000D03*
%TD*%
%TO.P,TP10,1*%
%TO.N,T3R*%
X173355000Y-127000000D03*
%TD*%
%TO.P,TP9,1*%
%TO.N,T2B*%
X166370000Y-125095000D03*
%TD*%
%TO.P,TP8,1*%
%TO.N,T2G*%
X161290000Y-125095000D03*
%TD*%
%TO.P,TP7,1*%
%TO.N,T2R*%
X156210000Y-125095000D03*
%TD*%
%TO.P,TP6,1*%
%TO.N,T1B*%
X146050000Y-125095000D03*
%TD*%
%TO.P,TP5,1*%
%TO.N,T1G*%
X140335000Y-125095000D03*
%TD*%
%TO.P,TP4,1*%
%TO.N,T1R*%
X135255000Y-125095000D03*
%TD*%
%TO.P,TP3,1*%
%TO.N,T0B*%
X123825000Y-125095000D03*
%TD*%
%TO.P,TP2,1*%
%TO.N,T0G*%
X118745000Y-125095000D03*
%TD*%
%TO.P,TP1,1*%
%TO.N,T0R*%
X113665000Y-125095000D03*
%TD*%
D11*
%TO.P,TP44,1*%
%TO.N,GND*%
X128397000Y-59944000D03*
%TD*%
D12*
%TO.P,J8,4*%
%TO.N,RD4*%
X105410000Y-55245000D03*
%TO.P,J8,3*%
%TO.N,RD3*%
X105410000Y-52705000D03*
%TO.P,J8,2*%
%TO.N,RD2*%
X105410000Y-50165000D03*
D13*
%TO.P,J8,1*%
%TO.N,RD1*%
X105410000Y-47625000D03*
%TD*%
D12*
%TO.P,J13,4*%
%TO.N,RC4*%
X121285000Y-55245000D03*
%TO.P,J13,3*%
%TO.N,RC3*%
X121285000Y-52705000D03*
%TO.P,J13,2*%
%TO.N,RC2*%
X121285000Y-50165000D03*
D13*
%TO.P,J13,1*%
%TO.N,RC1*%
X121285000Y-47625000D03*
%TD*%
D12*
%TO.P,J11,4*%
%TO.N,RA4*%
X116205000Y-55245000D03*
%TO.P,J11,3*%
%TO.N,RA3*%
X116205000Y-52705000D03*
%TO.P,J11,2*%
%TO.N,RA2*%
X116205000Y-50165000D03*
D13*
%TO.P,J11,1*%
%TO.N,RA1*%
X116205000Y-47625000D03*
%TD*%
D12*
%TO.P,J10,4*%
%TO.N,RF4*%
X110490000Y-55245000D03*
%TO.P,J10,3*%
%TO.N,RF3*%
X110490000Y-52705000D03*
%TO.P,J10,2*%
%TO.N,RF2*%
X110490000Y-50165000D03*
D14*
%TO.P,J10,1*%
%TO.N,RF1*%
X110490000Y-47625000D03*
%TD*%
D15*
%TO.P,REF\u002A\u002A,1*%
%TO.N,N/C*%
X139750000Y-71500000D03*
%TD*%
%TO.P,REF\u002A\u002A,1*%
%TO.N,N/C*%
X119750000Y-91500000D03*
%TD*%
%TO.P,REF\u002A\u002A,1*%
%TO.N,N/C*%
X139750000Y-111500000D03*
%TD*%
%TO.P,REF\u002A\u002A,1*%
%TO.N,N/C*%
X158500000Y-91500000D03*
%TD*%
D16*
%TO.P,J49,6*%
%TO.N,EthB+*%
X176530000Y-53975000D03*
%TO.P,J49,8*%
%TO.N,EthD+*%
X176530000Y-51435000D03*
%TO.P,J49,2*%
%TO.N,EthA+*%
X176530000Y-59055000D03*
D17*
%TO.P,J49,1*%
%TO.N,EthA-*%
X173990000Y-60325000D03*
D16*
%TO.P,J49,7*%
%TO.N,EthD-*%
X173990000Y-52705000D03*
%TO.P,J49,4*%
%TO.N,EthC-*%
X176530000Y-56515000D03*
%TO.P,J49,5*%
%TO.N,EthC+*%
X173990000Y-55245000D03*
%TO.P,J49,3*%
%TO.N,EthB-*%
X173990000Y-57785000D03*
%TD*%
D18*
%TO.P,REF\u002A\u002A,1*%
%TO.N,N/C*%
X139750000Y-91500000D03*
%TD*%
D11*
%TO.P,TP55,1*%
%TO.N,GND*%
X153924000Y-46736000D03*
%TD*%
%TO.P,TP54,1*%
%TO.N,USB0_TX+*%
X148377243Y-59070483D03*
%TD*%
%TO.P,TP53,1*%
%TO.N,USB0_TX-*%
X145202243Y-59070483D03*
%TD*%
%TO.P,TP52,1*%
%TO.N,USB0_RX+*%
X151511000Y-49784000D03*
%TD*%
%TO.P,TP51,1*%
%TO.N,USB0_RX-*%
X151511000Y-52959000D03*
%TD*%
%TO.P,TP50,1*%
%TO.N,USB0_D+*%
X142240000Y-52959000D03*
%TD*%
%TO.P,TP49,1*%
%TO.N,USB0_D-*%
X142240000Y-49784000D03*
%TD*%
%TO.P,TP48,1*%
%TO.N,5V*%
X139065000Y-46990000D03*
%TD*%
%TO.P,TP47,1*%
%TO.N,SCL*%
X137922000Y-59944000D03*
%TD*%
%TO.P,TP46,1*%
%TO.N,SDA*%
X134747000Y-59944000D03*
%TD*%
%TO.P,TP45,1*%
%TO.N,3V3*%
X131572000Y-59944000D03*
%TD*%
D19*
%TO.P,J59,8*%
%TO.N,USB0_TX+*%
X147955000Y-55245000D03*
%TO.P,J59,7*%
%TO.N,USB0_TX-*%
X145415000Y-55245000D03*
%TO.P,J59,6*%
%TO.N,USB0_RX-*%
X147955000Y-52705000D03*
%TO.P,J59,5*%
%TO.N,USB0_D+*%
X145415000Y-52705000D03*
%TO.P,J59,4*%
%TO.N,USB0_RX+*%
X147955000Y-50165000D03*
%TO.P,J59,3*%
%TO.N,USB0_D-*%
X145415000Y-50165000D03*
%TO.P,J59,2*%
%TO.N,GND*%
X147955000Y-47625000D03*
D20*
%TO.P,J59,1*%
%TO.N,5V*%
X145415000Y-47625000D03*
%TD*%
%TO.P,J58,8*%
%TO.N,EthD+*%
%TA.AperFunction,ComponentPad*%
G36*
G01*
X165229143Y-53106836D02*
X165229143Y-53106836D01*
G75*
G02*
X164027061Y-53106836I-601041J601041D01*
G01*
X164027061Y-53106836D01*
G75*
G02*
X164027061Y-51904754I601041J601041D01*
G01*
X164027061Y-51904754D01*
G75*
G02*
X165229143Y-51904754I601041J-601041D01*
G01*
X165229143Y-51904754D01*
G75*
G02*
X165229143Y-53106836I-601041J-601041D01*
G01*
G37*
%TD.AperFunction*%
%TO.P,J58,7*%
%TO.N,EthD-*%
%TA.AperFunction,ComponentPad*%
G36*
G01*
X167025195Y-54902887D02*
X167025195Y-54902887D01*
G75*
G02*
X165823113Y-54902887I-601041J601041D01*
G01*
X165823113Y-54902887D01*
G75*
G02*
X165823113Y-53700805I601041J601041D01*
G01*
X165823113Y-53700805D01*
G75*
G02*
X167025195Y-53700805I601041J-601041D01*
G01*
X167025195Y-53700805D01*
G75*
G02*
X167025195Y-54902887I-601041J-601041D01*
G01*
G37*
%TD.AperFunction*%
%TO.P,J58,6*%
%TO.N,EthC-*%
%TA.AperFunction,ComponentPad*%
G36*
G01*
X163433092Y-54902887D02*
X163433092Y-54902887D01*
G75*
G02*
X162231010Y-54902887I-601041J601041D01*
G01*
X162231010Y-54902887D01*
G75*
G02*
X162231010Y-53700805I601041J601041D01*
G01*
X162231010Y-53700805D01*
G75*
G02*
X163433092Y-53700805I601041J-601041D01*
G01*
X163433092Y-53700805D01*
G75*
G02*
X163433092Y-54902887I-601041J-601041D01*
G01*
G37*
%TD.AperFunction*%
%TO.P,J58,5*%
%TO.N,EthC+*%
%TA.AperFunction,ComponentPad*%
G36*
G01*
X165229143Y-56698939D02*
X165229143Y-56698939D01*
G75*
G02*
X164027061Y-56698939I-601041J601041D01*
G01*
X164027061Y-56698939D01*
G75*
G02*
X164027061Y-55496857I601041J601041D01*
G01*
X164027061Y-55496857D01*
G75*
G02*
X165229143Y-55496857I601041J-601041D01*
G01*
X165229143Y-55496857D01*
G75*
G02*
X165229143Y-56698939I-601041J-601041D01*
G01*
G37*
%TD.AperFunction*%
%TO.P,J58,4*%
%TO.N,EthB+*%
%TA.AperFunction,ComponentPad*%
G36*
G01*
X161637041Y-56698939D02*
X161637041Y-56698939D01*
G75*
G02*
X160434959Y-56698939I-601041J601041D01*
G01*
X160434959Y-56698939D01*
G75*
G02*
X160434959Y-55496857I601041J601041D01*
G01*
X160434959Y-55496857D01*
G75*
G02*
X161637041Y-55496857I601041J-601041D01*
G01*
X161637041Y-55496857D01*
G75*
G02*
X161637041Y-56698939I-601041J-601041D01*
G01*
G37*
%TD.AperFunction*%
%TO.P,J58,3*%
%TO.N,EthB-*%
%TA.AperFunction,ComponentPad*%
G36*
G01*
X163433092Y-58494990D02*
X163433092Y-58494990D01*
G75*
G02*
X162231010Y-58494990I-601041J601041D01*
G01*
X162231010Y-58494990D01*
G75*
G02*
X162231010Y-57292908I601041J601041D01*
G01*
X162231010Y-57292908D01*
G75*
G02*
X163433092Y-57292908I601041J-601041D01*
G01*
X163433092Y-57292908D01*
G75*
G02*
X163433092Y-58494990I-601041J-601041D01*
G01*
G37*
%TD.AperFunction*%
%TO.P,J58,2*%
%TO.N,EthA+*%
%TA.AperFunction,ComponentPad*%
G36*
G01*
X159840990Y-58494990D02*
X159840990Y-58494990D01*
G75*
G02*
X158638908Y-58494990I-601041J601041D01*
G01*
X158638908Y-58494990D01*
G75*
G02*
X158638908Y-57292908I601041J601041D01*
G01*
X158638908Y-57292908D01*
G75*
G02*
X159840990Y-57292908I601041J-601041D01*
G01*
X159840990Y-57292908D01*
G75*
G02*
X159840990Y-58494990I-601041J-601041D01*
G01*
G37*
%TD.AperFunction*%
%TA.AperFunction,ComponentPad*%
D21*
%TO.P,J58,1*%
%TO.N,EthA-*%
G36*
X162238082Y-59690000D02*
G01*
X161036000Y-60892082D01*
X159833918Y-59690000D01*
X161036000Y-58487918D01*
X162238082Y-59690000D01*
G37*
%TD.AperFunction*%
%TD*%
D19*
%TO.P,J57,3*%
%TO.N,XM4*%
X186690000Y-77470000D03*
%TO.P,J57,2*%
X189230000Y-77470000D03*
D20*
%TO.P,J57,1*%
X191770000Y-77470000D03*
%TD*%
D19*
%TO.P,J56,3*%
%TO.N,-M4*%
X186690000Y-74930000D03*
%TO.P,J56,2*%
X189230000Y-74930000D03*
D20*
%TO.P,J56,1*%
X191770000Y-74930000D03*
%TD*%
D19*
%TO.P,J55,10*%
%TO.N,T2B*%
X165100000Y-128970000D03*
%TO.P,J55,9*%
X167640000Y-128970000D03*
%TO.P,J55,8*%
X165100000Y-131510000D03*
%TO.P,J55,7*%
X167640000Y-131510000D03*
%TO.P,J55,6*%
X165100000Y-134050000D03*
%TO.P,J55,5*%
X167640000Y-134050000D03*
%TO.P,J55,4*%
X165100000Y-136590000D03*
%TO.P,J55,3*%
X167640000Y-136590000D03*
%TO.P,J55,2*%
X165100000Y-139130000D03*
D20*
%TO.P,J55,1*%
X167640000Y-139130000D03*
%TD*%
D19*
%TO.P,J54,10*%
%TO.N,T0G*%
X120015000Y-139065000D03*
%TO.P,J54,9*%
X117475000Y-139065000D03*
%TO.P,J54,8*%
X120015000Y-136525000D03*
%TO.P,J54,7*%
X117475000Y-136525000D03*
%TO.P,J54,6*%
X120015000Y-133985000D03*
%TO.P,J54,5*%
X117475000Y-133985000D03*
%TO.P,J54,4*%
X120015000Y-131445000D03*
%TO.P,J54,3*%
X117475000Y-131445000D03*
%TO.P,J54,2*%
X120015000Y-128905000D03*
D20*
%TO.P,J54,1*%
X117475000Y-128905000D03*
%TD*%
D19*
%TO.P,J53,10*%
%TO.N,T0R*%
X114935000Y-139065000D03*
%TO.P,J53,9*%
X112395000Y-139065000D03*
%TO.P,J53,8*%
X114935000Y-136525000D03*
%TO.P,J53,7*%
X112395000Y-136525000D03*
%TO.P,J53,6*%
X114935000Y-133985000D03*
%TO.P,J53,5*%
X112395000Y-133985000D03*
%TO.P,J53,4*%
X114935000Y-131445000D03*
%TO.P,J53,3*%
X112395000Y-131445000D03*
%TO.P,J53,2*%
X114935000Y-128905000D03*
D20*
%TO.P,J53,1*%
X112395000Y-128905000D03*
%TD*%
D19*
%TO.P,J52,10*%
%TO.N,T7B*%
X95250000Y-80645000D03*
%TO.P,J52,9*%
X95250000Y-83185000D03*
%TO.P,J52,8*%
X92710000Y-80645000D03*
%TO.P,J52,7*%
X92710000Y-83185000D03*
%TO.P,J52,6*%
X90170000Y-80645000D03*
%TO.P,J52,5*%
X90170000Y-83185000D03*
%TO.P,J52,4*%
X87630000Y-80645000D03*
%TO.P,J52,3*%
X87630000Y-83185000D03*
%TO.P,J52,2*%
X85090000Y-80645000D03*
D20*
%TO.P,J52,1*%
X85090000Y-83185000D03*
%TD*%
D19*
%TO.P,J51,10*%
%TO.N,T7G*%
X95250000Y-85725000D03*
%TO.P,J51,9*%
X95250000Y-88265000D03*
%TO.P,J51,8*%
X92710000Y-85725000D03*
%TO.P,J51,7*%
X92710000Y-88265000D03*
%TO.P,J51,6*%
X90170000Y-85725000D03*
%TO.P,J51,5*%
X90170000Y-88265000D03*
%TO.P,J51,4*%
X87630000Y-85725000D03*
%TO.P,J51,3*%
X87630000Y-88265000D03*
%TO.P,J51,2*%
X85090000Y-85725000D03*
D20*
%TO.P,J51,1*%
X85090000Y-88265000D03*
%TD*%
D19*
%TO.P,J50,10*%
%TO.N,T7R*%
X95250000Y-90805000D03*
%TO.P,J50,9*%
X95250000Y-93345000D03*
%TO.P,J50,8*%
X92710000Y-90805000D03*
%TO.P,J50,7*%
X92710000Y-93345000D03*
%TO.P,J50,6*%
X90170000Y-90805000D03*
%TO.P,J50,5*%
X90170000Y-93345000D03*
%TO.P,J50,4*%
X87630000Y-90805000D03*
%TO.P,J50,3*%
X87630000Y-93345000D03*
%TO.P,J50,2*%
X85090000Y-90805000D03*
D20*
%TO.P,J50,1*%
X85090000Y-93345000D03*
%TD*%
D19*
%TO.P,J48,10*%
%TO.N,T6B*%
X97790000Y-97790000D03*
%TO.P,J48,9*%
X97790000Y-100330000D03*
%TO.P,J48,8*%
X95250000Y-97790000D03*
%TO.P,J48,7*%
X95250000Y-100330000D03*
%TO.P,J48,6*%
X92710000Y-97790000D03*
%TO.P,J48,5*%
X92710000Y-100330000D03*
%TO.P,J48,4*%
X90170000Y-97790000D03*
%TO.P,J48,3*%
X90170000Y-100330000D03*
%TO.P,J48,2*%
X87630000Y-97790000D03*
D20*
%TO.P,J48,1*%
X87630000Y-100330000D03*
%TD*%
D19*
%TO.P,J47,10*%
%TO.N,T6G*%
X97790000Y-102870000D03*
%TO.P,J47,9*%
X97790000Y-105410000D03*
%TO.P,J47,8*%
X95250000Y-102870000D03*
%TO.P,J47,7*%
X95250000Y-105410000D03*
%TO.P,J47,6*%
X92710000Y-102870000D03*
%TO.P,J47,5*%
X92710000Y-105410000D03*
%TO.P,J47,4*%
X90170000Y-102870000D03*
%TO.P,J47,3*%
X90170000Y-105410000D03*
%TO.P,J47,2*%
X87630000Y-102870000D03*
D20*
%TO.P,J47,1*%
X87630000Y-105410000D03*
%TD*%
D19*
%TO.P,J46,10*%
%TO.N,T6R*%
X97790000Y-107950000D03*
%TO.P,J46,9*%
X97790000Y-110490000D03*
%TO.P,J46,8*%
X95250000Y-107950000D03*
%TO.P,J46,7*%
X95250000Y-110490000D03*
%TO.P,J46,6*%
X92710000Y-107950000D03*
%TO.P,J46,5*%
X92710000Y-110490000D03*
%TO.P,J46,4*%
X90170000Y-107950000D03*
%TO.P,J46,3*%
X90170000Y-110490000D03*
%TO.P,J46,2*%
X87630000Y-107950000D03*
D20*
%TO.P,J46,1*%
X87630000Y-110490000D03*
%TD*%
D19*
%TO.P,J45,5*%
%TO.N,XM0*%
X98425000Y-71120000D03*
%TO.P,J45,4*%
X95885000Y-71120000D03*
%TO.P,J45,3*%
X93345000Y-71120000D03*
%TO.P,J45,2*%
X90805000Y-71120000D03*
D20*
%TO.P,J45,1*%
X88265000Y-71120000D03*
%TD*%
D19*
%TO.P,J44,10*%
%TO.N,T5B*%
X109855000Y-124460000D03*
%TO.P,J44,9*%
X107315000Y-124460000D03*
%TO.P,J44,8*%
X109855000Y-121920000D03*
%TO.P,J44,7*%
X107315000Y-121920000D03*
%TO.P,J44,6*%
X109855000Y-119380000D03*
%TO.P,J44,5*%
X107315000Y-119380000D03*
%TO.P,J44,4*%
X109855000Y-116840000D03*
%TO.P,J44,3*%
X107315000Y-116840000D03*
%TO.P,J44,2*%
X109855000Y-114300000D03*
D20*
%TO.P,J44,1*%
X107315000Y-114300000D03*
%TD*%
D19*
%TO.P,J43,10*%
%TO.N,T5G*%
X104775000Y-124460000D03*
%TO.P,J43,9*%
X102235000Y-124460000D03*
%TO.P,J43,8*%
X104775000Y-121920000D03*
%TO.P,J43,7*%
X102235000Y-121920000D03*
%TO.P,J43,6*%
X104775000Y-119380000D03*
%TO.P,J43,5*%
X102235000Y-119380000D03*
%TO.P,J43,4*%
X104775000Y-116840000D03*
%TO.P,J43,3*%
X102235000Y-116840000D03*
%TO.P,J43,2*%
X104775000Y-114300000D03*
D20*
%TO.P,J43,1*%
X102235000Y-114300000D03*
%TD*%
D19*
%TO.P,J42,10*%
%TO.N,T5R*%
X99695000Y-124460000D03*
%TO.P,J42,9*%
X97155000Y-124460000D03*
%TO.P,J42,8*%
X99695000Y-121920000D03*
%TO.P,J42,7*%
X97155000Y-121920000D03*
%TO.P,J42,6*%
X99695000Y-119380000D03*
%TO.P,J42,5*%
X97155000Y-119380000D03*
%TO.P,J42,4*%
X99695000Y-116840000D03*
%TO.P,J42,3*%
X97155000Y-116840000D03*
%TO.P,J42,2*%
X99695000Y-114300000D03*
D20*
%TO.P,J42,1*%
X97155000Y-114300000D03*
%TD*%
D19*
%TO.P,J41,10*%
%TO.N,T4B*%
X192405000Y-95885000D03*
%TO.P,J41,9*%
X192405000Y-98425000D03*
%TO.P,J41,8*%
X189865000Y-95885000D03*
%TO.P,J41,7*%
X189865000Y-98425000D03*
%TO.P,J41,6*%
X187325000Y-95885000D03*
%TO.P,J41,5*%
X187325000Y-98425000D03*
%TO.P,J41,4*%
X184785000Y-95885000D03*
%TO.P,J41,3*%
X184785000Y-98425000D03*
%TO.P,J41,2*%
X182245000Y-95885000D03*
D20*
%TO.P,J41,1*%
X182245000Y-98425000D03*
%TD*%
D19*
%TO.P,J40,10*%
%TO.N,T4G*%
X192405000Y-100965000D03*
%TO.P,J40,9*%
X192405000Y-103505000D03*
%TO.P,J40,8*%
X189865000Y-100965000D03*
%TO.P,J40,7*%
X189865000Y-103505000D03*
%TO.P,J40,6*%
X187325000Y-100965000D03*
%TO.P,J40,5*%
X187325000Y-103505000D03*
%TO.P,J40,4*%
X184785000Y-100965000D03*
%TO.P,J40,3*%
X184785000Y-103505000D03*
%TO.P,J40,2*%
X182245000Y-100965000D03*
D20*
%TO.P,J40,1*%
X182245000Y-103505000D03*
%TD*%
D19*
%TO.P,J39,10*%
%TO.N,T4R*%
X192405000Y-106045000D03*
%TO.P,J39,9*%
X192405000Y-108585000D03*
%TO.P,J39,8*%
X189865000Y-106045000D03*
%TO.P,J39,7*%
X189865000Y-108585000D03*
%TO.P,J39,6*%
X187325000Y-106045000D03*
%TO.P,J39,5*%
X187325000Y-108585000D03*
%TO.P,J39,4*%
X184785000Y-106045000D03*
%TO.P,J39,3*%
X184785000Y-108585000D03*
%TO.P,J39,2*%
X182245000Y-106045000D03*
D20*
%TO.P,J39,1*%
X182245000Y-108585000D03*
%TD*%
D19*
%TO.P,J38,10*%
%TO.N,T3B*%
X184785000Y-123825000D03*
%TO.P,J38,9*%
X182245000Y-123825000D03*
%TO.P,J38,8*%
X184785000Y-121285000D03*
%TO.P,J38,7*%
X182245000Y-121285000D03*
%TO.P,J38,6*%
X184785000Y-118745000D03*
%TO.P,J38,5*%
X182245000Y-118745000D03*
%TO.P,J38,4*%
X184785000Y-116205000D03*
%TO.P,J38,3*%
X182245000Y-116205000D03*
%TO.P,J38,2*%
X184785000Y-113665000D03*
D20*
%TO.P,J38,1*%
X182245000Y-113665000D03*
%TD*%
D19*
%TO.P,J37,3*%
%TO.N,+M4*%
X186690000Y-72390000D03*
%TO.P,J37,2*%
X189230000Y-72390000D03*
D20*
%TO.P,J37,1*%
X191770000Y-72390000D03*
%TD*%
D19*
%TO.P,J36,3*%
%TO.N,XM3*%
X179705000Y-72390000D03*
%TO.P,J36,2*%
X177165000Y-72390000D03*
D20*
%TO.P,J36,1*%
X174625000Y-72390000D03*
%TD*%
D19*
%TO.P,J35,3*%
%TO.N,XM2*%
X117475000Y-71120000D03*
%TO.P,J35,2*%
X114935000Y-71120000D03*
D20*
%TO.P,J35,1*%
X112395000Y-71120000D03*
%TD*%
D19*
%TO.P,J34,3*%
%TO.N,XM1*%
X167005000Y-72390000D03*
%TO.P,J34,2*%
X164465000Y-72390000D03*
D20*
%TO.P,J34,1*%
X161925000Y-72390000D03*
%TD*%
D19*
%TO.P,J33,5*%
%TO.N,-M0*%
X98425000Y-73660000D03*
%TO.P,J33,4*%
X95885000Y-73660000D03*
%TO.P,J33,3*%
X93345000Y-73660000D03*
%TO.P,J33,2*%
X90805000Y-73660000D03*
D20*
%TO.P,J33,1*%
X88265000Y-73660000D03*
%TD*%
D19*
%TO.P,J32,10*%
%TO.N,T3G*%
X179705000Y-123825000D03*
%TO.P,J32,9*%
X177165000Y-123825000D03*
%TO.P,J32,8*%
X179705000Y-121285000D03*
%TO.P,J32,7*%
X177165000Y-121285000D03*
%TO.P,J32,6*%
X179705000Y-118745000D03*
%TO.P,J32,5*%
X177165000Y-118745000D03*
%TO.P,J32,4*%
X179705000Y-116205000D03*
%TO.P,J32,3*%
X177165000Y-116205000D03*
%TO.P,J32,2*%
X179705000Y-113665000D03*
D20*
%TO.P,J32,1*%
X177165000Y-113665000D03*
%TD*%
D19*
%TO.P,J31,10*%
%TO.N,T3R*%
X174625000Y-123825000D03*
%TO.P,J31,9*%
X172085000Y-123825000D03*
%TO.P,J31,8*%
X174625000Y-121285000D03*
%TO.P,J31,7*%
X172085000Y-121285000D03*
%TO.P,J31,6*%
X174625000Y-118745000D03*
%TO.P,J31,5*%
X172085000Y-118745000D03*
%TO.P,J31,4*%
X174625000Y-116205000D03*
%TO.P,J31,3*%
X172085000Y-116205000D03*
%TO.P,J31,2*%
X174625000Y-113665000D03*
D20*
%TO.P,J31,1*%
X172085000Y-113665000D03*
%TD*%
D19*
%TO.P,J30,10*%
%TO.N,T2G*%
X160020000Y-128970000D03*
%TO.P,J30,9*%
X162560000Y-128970000D03*
%TO.P,J30,8*%
X160020000Y-131510000D03*
%TO.P,J30,7*%
X162560000Y-131510000D03*
%TO.P,J30,6*%
X160020000Y-134050000D03*
%TO.P,J30,5*%
X162560000Y-134050000D03*
%TO.P,J30,4*%
X160020000Y-136590000D03*
%TO.P,J30,3*%
X162560000Y-136590000D03*
%TO.P,J30,2*%
X160020000Y-139130000D03*
D20*
%TO.P,J30,1*%
X162560000Y-139130000D03*
%TD*%
D19*
%TO.P,J29,10*%
%TO.N,T2R*%
X154940000Y-128970000D03*
%TO.P,J29,9*%
X157480000Y-128970000D03*
%TO.P,J29,8*%
X154940000Y-131510000D03*
%TO.P,J29,7*%
X157480000Y-131510000D03*
%TO.P,J29,6*%
X154940000Y-134050000D03*
%TO.P,J29,5*%
X157480000Y-134050000D03*
%TO.P,J29,4*%
X154940000Y-136590000D03*
%TO.P,J29,3*%
X157480000Y-136590000D03*
%TO.P,J29,2*%
X154940000Y-139130000D03*
D20*
%TO.P,J29,1*%
X157480000Y-139130000D03*
%TD*%
D19*
%TO.P,J28,10*%
%TO.N,T1B*%
X146685000Y-139065000D03*
%TO.P,J28,9*%
X144145000Y-139065000D03*
%TO.P,J28,8*%
X146685000Y-136525000D03*
%TO.P,J28,7*%
X144145000Y-136525000D03*
%TO.P,J28,6*%
X146685000Y-133985000D03*
%TO.P,J28,5*%
X144145000Y-133985000D03*
%TO.P,J28,4*%
X146685000Y-131445000D03*
%TO.P,J28,3*%
X144145000Y-131445000D03*
%TO.P,J28,2*%
X146685000Y-128905000D03*
D20*
%TO.P,J28,1*%
X144145000Y-128905000D03*
%TD*%
D19*
%TO.P,J27,10*%
%TO.N,T1G*%
X141605000Y-139065000D03*
%TO.P,J27,9*%
X139065000Y-139065000D03*
%TO.P,J27,8*%
X141605000Y-136525000D03*
%TO.P,J27,7*%
X139065000Y-136525000D03*
%TO.P,J27,6*%
X141605000Y-133985000D03*
%TO.P,J27,5*%
X139065000Y-133985000D03*
%TO.P,J27,4*%
X141605000Y-131445000D03*
%TO.P,J27,3*%
X139065000Y-131445000D03*
%TO.P,J27,2*%
X141605000Y-128905000D03*
D20*
%TO.P,J27,1*%
X139065000Y-128905000D03*
%TD*%
D19*
%TO.P,J26,10*%
%TO.N,T1R*%
X136525000Y-139065000D03*
%TO.P,J26,9*%
X133985000Y-139065000D03*
%TO.P,J26,8*%
X136525000Y-136525000D03*
%TO.P,J26,7*%
X133985000Y-136525000D03*
%TO.P,J26,6*%
X136525000Y-133985000D03*
%TO.P,J26,5*%
X133985000Y-133985000D03*
%TO.P,J26,4*%
X136525000Y-131445000D03*
%TO.P,J26,3*%
X133985000Y-131445000D03*
%TO.P,J26,2*%
X136525000Y-128905000D03*
D20*
%TO.P,J26,1*%
X133985000Y-128905000D03*
%TD*%
D19*
%TO.P,J25,3*%
%TO.N,-M3*%
X179705000Y-74930000D03*
%TO.P,J25,2*%
X177165000Y-74930000D03*
D20*
%TO.P,J25,1*%
X174625000Y-74930000D03*
%TD*%
D19*
%TO.P,J24,3*%
%TO.N,-M2*%
X117475000Y-73660000D03*
%TO.P,J24,2*%
X114935000Y-73660000D03*
D20*
%TO.P,J24,1*%
X112395000Y-73660000D03*
%TD*%
D19*
%TO.P,J23,3*%
%TO.N,-M1*%
X167005000Y-74930000D03*
%TO.P,J23,2*%
X164465000Y-74930000D03*
D20*
%TO.P,J23,1*%
X161925000Y-74930000D03*
%TD*%
D19*
%TO.P,J22,5*%
%TO.N,+M0*%
X98425000Y-76200000D03*
%TO.P,J22,4*%
X95885000Y-76200000D03*
%TO.P,J22,3*%
X93345000Y-76200000D03*
%TO.P,J22,2*%
X90805000Y-76200000D03*
D20*
%TO.P,J22,1*%
X88265000Y-76200000D03*
%TD*%
D19*
%TO.P,J21,3*%
%TO.N,+M3*%
X179705000Y-77470000D03*
%TO.P,J21,2*%
X177165000Y-77470000D03*
D20*
%TO.P,J21,1*%
X174625000Y-77470000D03*
%TD*%
D19*
%TO.P,J20,3*%
%TO.N,+M2*%
X117475000Y-76200000D03*
%TO.P,J20,2*%
X114935000Y-76200000D03*
D20*
%TO.P,J20,1*%
X112395000Y-76200000D03*
%TD*%
D19*
%TO.P,J19,3*%
%TO.N,+M1*%
X167005000Y-77470000D03*
%TO.P,J19,2*%
X164465000Y-77470000D03*
D20*
%TO.P,J19,1*%
X161925000Y-77470000D03*
%TD*%
D19*
%TO.P,J18,10*%
%TO.N,T0B*%
X125095000Y-139065000D03*
%TO.P,J18,9*%
X122555000Y-139065000D03*
%TO.P,J18,8*%
X125095000Y-136525000D03*
%TO.P,J18,7*%
X122555000Y-136525000D03*
%TO.P,J18,6*%
X125095000Y-133985000D03*
%TO.P,J18,5*%
X122555000Y-133985000D03*
%TO.P,J18,4*%
X125095000Y-131445000D03*
%TO.P,J18,3*%
X122555000Y-131445000D03*
%TO.P,J18,2*%
X125095000Y-128905000D03*
D20*
%TO.P,J18,1*%
X122555000Y-128905000D03*
%TD*%
D19*
%TO.P,J17,4*%
%TO.N,RF4*%
X113030000Y-55245000D03*
%TO.P,J17,3*%
%TO.N,RF3*%
X113030000Y-52705000D03*
%TO.P,J17,2*%
%TO.N,RF2*%
X113030000Y-50165000D03*
D20*
%TO.P,J17,1*%
%TO.N,RF1*%
X113030000Y-47625000D03*
%TD*%
D12*
%TO.P,J16,4*%
%TO.N,RE4*%
X131690000Y-55245000D03*
%TO.P,J16,3*%
%TO.N,RE3*%
X131690000Y-52705000D03*
%TO.P,J16,2*%
%TO.N,RE2*%
X131690000Y-50165000D03*
D13*
%TO.P,J16,1*%
%TO.N,RE1*%
X131690000Y-47625000D03*
%TD*%
D19*
%TO.P,J15,4*%
%TO.N,SCL*%
X136652000Y-62738000D03*
%TO.P,J15,3*%
%TO.N,SDA*%
X134112000Y-62738000D03*
%TO.P,J15,2*%
%TO.N,3V3*%
X131572000Y-62738000D03*
D20*
%TO.P,J15,1*%
%TO.N,GND*%
X129032000Y-62738000D03*
%TD*%
D19*
%TO.P,J14,4*%
%TO.N,RD4*%
X107560000Y-55245000D03*
%TO.P,J14,3*%
%TO.N,RD3*%
X107560000Y-52705000D03*
%TO.P,J14,2*%
%TO.N,RD2*%
X107560000Y-50165000D03*
D20*
%TO.P,J14,1*%
%TO.N,RD1*%
X107560000Y-47625000D03*
%TD*%
D19*
%TO.P,J12,4*%
%TO.N,RB4*%
X128905000Y-55245000D03*
%TO.P,J12,3*%
%TO.N,RB3*%
X128905000Y-52705000D03*
%TO.P,J12,2*%
%TO.N,RB2*%
X128905000Y-50165000D03*
D20*
%TO.P,J12,1*%
%TO.N,RB1*%
X128905000Y-47625000D03*
%TD*%
D19*
%TO.P,J9,4*%
%TO.N,RE4*%
X133985000Y-55245000D03*
%TO.P,J9,3*%
%TO.N,RE3*%
X133985000Y-52705000D03*
%TO.P,J9,2*%
%TO.N,RE2*%
X133985000Y-50165000D03*
D20*
%TO.P,J9,1*%
%TO.N,RE1*%
X133985000Y-47625000D03*
%TD*%
D19*
%TO.P,J7,12*%
%TO.N,GND_VB1*%
X194310000Y-88900000D03*
%TO.P,J7,11*%
X194310000Y-91440000D03*
%TO.P,J7,10*%
X191770000Y-88900000D03*
%TO.P,J7,9*%
X191770000Y-91440000D03*
%TO.P,J7,8*%
X189230000Y-88900000D03*
%TO.P,J7,7*%
X189230000Y-91440000D03*
%TO.P,J7,6*%
X186690000Y-88900000D03*
%TO.P,J7,5*%
X186690000Y-91440000D03*
%TO.P,J7,4*%
X184150000Y-88900000D03*
%TO.P,J7,3*%
X184150000Y-91440000D03*
%TO.P,J7,2*%
X181610000Y-88900000D03*
D20*
%TO.P,J7,1*%
X181610000Y-91440000D03*
%TD*%
D19*
%TO.P,J6,4*%
%TO.N,RC4*%
X123190000Y-55245000D03*
%TO.P,J6,3*%
%TO.N,RC3*%
X123190000Y-52705000D03*
%TO.P,J6,2*%
%TO.N,RC2*%
X123190000Y-50165000D03*
D20*
%TO.P,J6,1*%
%TO.N,RC1*%
X123190000Y-47625000D03*
%TD*%
D12*
%TO.P,J5,4*%
%TO.N,RB4*%
X126225000Y-55195000D03*
%TO.P,J5,3*%
%TO.N,RB3*%
X126225000Y-52655000D03*
%TO.P,J5,2*%
%TO.N,RB2*%
X126225000Y-50115000D03*
D13*
%TO.P,J5,1*%
%TO.N,RB1*%
X126225000Y-47575000D03*
%TD*%
D19*
%TO.P,J4,4*%
%TO.N,RA4*%
X118110000Y-55245000D03*
%TO.P,J4,3*%
%TO.N,RA3*%
X118110000Y-52705000D03*
%TO.P,J4,2*%
%TO.N,RA2*%
X118110000Y-50165000D03*
D20*
%TO.P,J4,1*%
%TO.N,RA1*%
X118110000Y-47625000D03*
%TD*%
D19*
%TO.P,J3,30*%
%TO.N,GND_VA*%
X128270000Y-111760000D03*
%TO.P,J3,29*%
X125730000Y-111760000D03*
%TO.P,J3,28*%
X128270000Y-109220000D03*
%TO.P,J3,27*%
X125730000Y-109220000D03*
%TO.P,J3,26*%
X128270000Y-106680000D03*
%TO.P,J3,25*%
X125730000Y-106680000D03*
%TO.P,J3,24*%
X128270000Y-104140000D03*
%TO.P,J3,23*%
X125730000Y-104140000D03*
%TO.P,J3,22*%
X128270000Y-101600000D03*
%TO.P,J3,21*%
X125730000Y-101600000D03*
%TO.P,J3,20*%
X128270000Y-99060000D03*
%TO.P,J3,19*%
X125730000Y-99060000D03*
%TO.P,J3,18*%
X128270000Y-96520000D03*
%TO.P,J3,17*%
X125730000Y-96520000D03*
%TO.P,J3,16*%
X128270000Y-93980000D03*
%TO.P,J3,15*%
X125730000Y-93980000D03*
%TO.P,J3,14*%
X128270000Y-91440000D03*
%TO.P,J3,13*%
X125730000Y-91440000D03*
%TO.P,J3,12*%
X128270000Y-88900000D03*
%TO.P,J3,11*%
X125730000Y-88900000D03*
%TO.P,J3,10*%
X128270000Y-86360000D03*
%TO.P,J3,9*%
X125730000Y-86360000D03*
%TO.P,J3,8*%
X128270000Y-83820000D03*
%TO.P,J3,7*%
X125730000Y-83820000D03*
%TO.P,J3,6*%
X128270000Y-81280000D03*
%TO.P,J3,5*%
X125730000Y-81280000D03*
%TO.P,J3,4*%
X128270000Y-78740000D03*
%TO.P,J3,3*%
X125730000Y-78740000D03*
%TO.P,J3,2*%
X128270000Y-76200000D03*
D20*
%TO.P,J3,1*%
X125730000Y-76200000D03*
%TD*%
D19*
%TO.P,J2,12*%
%TO.N,+12_VB1*%
X194310000Y-83820000D03*
%TO.P,J2,11*%
X194310000Y-86360000D03*
%TO.P,J2,10*%
X191770000Y-83820000D03*
%TO.P,J2,9*%
X191770000Y-86360000D03*
%TO.P,J2,8*%
X189230000Y-83820000D03*
%TO.P,J2,7*%
X189230000Y-86360000D03*
%TO.P,J2,6*%
X186690000Y-83820000D03*
%TO.P,J2,5*%
X186690000Y-86360000D03*
%TO.P,J2,4*%
X184150000Y-83820000D03*
%TO.P,J2,3*%
X184150000Y-86360000D03*
%TO.P,J2,2*%
X181610000Y-83820000D03*
D20*
%TO.P,J2,1*%
X181610000Y-86360000D03*
%TD*%
D19*
%TO.P,J1,30*%
%TO.N,+48_VA*%
X152400000Y-111760000D03*
%TO.P,J1,29*%
X149860000Y-111760000D03*
%TO.P,J1,28*%
X152400000Y-109220000D03*
%TO.P,J1,27*%
X149860000Y-109220000D03*
%TO.P,J1,26*%
X152400000Y-106680000D03*
%TO.P,J1,25*%
X149860000Y-106680000D03*
%TO.P,J1,24*%
X152400000Y-104140000D03*
%TO.P,J1,23*%
X149860000Y-104140000D03*
%TO.P,J1,22*%
X152400000Y-101600000D03*
%TO.P,J1,21*%
X149860000Y-101600000D03*
%TO.P,J1,20*%
X152400000Y-99060000D03*
%TO.P,J1,19*%
X149860000Y-99060000D03*
%TO.P,J1,18*%
X152400000Y-96520000D03*
%TO.P,J1,17*%
X149860000Y-96520000D03*
%TO.P,J1,16*%
X152400000Y-93980000D03*
%TO.P,J1,15*%
X149860000Y-93980000D03*
%TO.P,J1,14*%
X152400000Y-91440000D03*
%TO.P,J1,13*%
X149860000Y-91440000D03*
%TO.P,J1,12*%
X152400000Y-88900000D03*
%TO.P,J1,11*%
X149860000Y-88900000D03*
%TO.P,J1,10*%
X152400000Y-86360000D03*
%TO.P,J1,9*%
X149860000Y-86360000D03*
%TO.P,J1,8*%
X152400000Y-83820000D03*
%TO.P,J1,7*%
X149860000Y-83820000D03*
%TO.P,J1,6*%
X152400000Y-81280000D03*
%TO.P,J1,5*%
X149860000Y-81280000D03*
%TO.P,J1,4*%
X152400000Y-78740000D03*
%TO.P,J1,3*%
X149860000Y-78740000D03*
%TO.P,J1,2*%
X152400000Y-76200000D03*
D20*
%TO.P,J1,1*%
X149860000Y-76200000D03*
%TD*%
D22*
%TO.N,RA4*%
X116205000Y-55245000D02*
X118110000Y-55245000D01*
%TO.N,RA3*%
X116205000Y-52705000D02*
X118110000Y-52705000D01*
%TO.N,RA2*%
X116205000Y-50165000D02*
X118110000Y-50165000D01*
%TO.N,RA1*%
X116205000Y-47625000D02*
X118110000Y-47625000D01*
%TO.N,RB4*%
X126275000Y-55245000D02*
X126225000Y-55195000D01*
X128905000Y-55245000D02*
X126275000Y-55245000D01*
%TO.N,RB3*%
X126275000Y-52705000D02*
X126225000Y-52655000D01*
X128905000Y-52705000D02*
X126275000Y-52705000D01*
%TO.N,RB2*%
X126275000Y-50165000D02*
X126225000Y-50115000D01*
X128905000Y-50165000D02*
X126275000Y-50165000D01*
%TO.N,RB1*%
X126275000Y-47625000D02*
X126225000Y-47575000D01*
X128905000Y-47625000D02*
X126275000Y-47625000D01*
%TO.N,RC4*%
X121285000Y-55245000D02*
X123190000Y-55245000D01*
%TO.N,RC3*%
X121285000Y-52705000D02*
X123190000Y-52705000D01*
%TO.N,RC2*%
X121285000Y-50165000D02*
X123190000Y-50165000D01*
%TO.N,RC1*%
X121285000Y-47625000D02*
X123190000Y-47625000D01*
%TO.N,RD4*%
X105410000Y-55245000D02*
X107560000Y-55245000D01*
%TO.N,RD3*%
X105410000Y-52705000D02*
X107560000Y-52705000D01*
%TO.N,RD2*%
X105410000Y-50165000D02*
X107560000Y-50165000D01*
%TO.N,RD1*%
X105410000Y-47625000D02*
X107560000Y-47625000D01*
%TO.N,RE4*%
X133985000Y-55245000D02*
X131690000Y-55245000D01*
%TO.N,RE3*%
X133985000Y-52705000D02*
X131690000Y-52705000D01*
%TO.N,RE2*%
X133985000Y-50165000D02*
X131690000Y-50165000D01*
%TO.N,RE1*%
X133985000Y-47625000D02*
X131690000Y-47625000D01*
%TO.N,RF4*%
X110490000Y-55245000D02*
X113030000Y-55245000D01*
%TO.N,RF3*%
X110490000Y-52705000D02*
X113030000Y-52705000D01*
%TO.N,RF2*%
X110490000Y-50165000D02*
X113030000Y-50165000D01*
%TO.N,RF1*%
X110490000Y-47625000D02*
X113030000Y-47625000D01*
D23*
%TO.N,SCL*%
X137922000Y-61468000D02*
X136652000Y-62738000D01*
X137922000Y-59944000D02*
X137922000Y-61468000D01*
%TO.N,SDA*%
X134112000Y-61651998D02*
X134112000Y-62738000D01*
X134747000Y-61016998D02*
X134112000Y-61651998D01*
X134747000Y-59944000D02*
X134747000Y-61016998D01*
%TO.N,3V3*%
X131572000Y-59944000D02*
X131572000Y-62738000D01*
D22*
%TO.N,GND*%
X148844000Y-46736000D02*
X147955000Y-47625000D01*
X153924000Y-46736000D02*
X148844000Y-46736000D01*
D23*
X128397000Y-62103000D02*
X129032000Y-62738000D01*
X128397000Y-59944000D02*
X128397000Y-62103000D01*
%TO.N,+M2*%
X117514991Y-76160009D02*
X117475000Y-76200000D01*
X119145539Y-76160009D02*
X117514991Y-76160009D01*
X126365000Y-68940548D02*
X119145539Y-76160009D01*
X126365000Y-67310000D02*
X126365000Y-68940548D01*
X117475000Y-76200000D02*
X112395000Y-76200000D01*
%TO.N,+M0*%
X102870000Y-76200000D02*
X98425000Y-76200000D01*
X98425000Y-76200000D02*
X88265000Y-76200000D01*
%TO.N,-M2*%
X121285000Y-67310000D02*
X121285000Y-70485000D01*
X118110000Y-73660000D02*
X112395000Y-73660000D01*
X121285000Y-70485000D02*
X118110000Y-73660000D01*
%TO.N,-M0*%
X102870000Y-71755000D02*
X100965000Y-71755000D01*
X100965000Y-71755000D02*
X100965000Y-72390000D01*
X99695000Y-73660000D02*
X88265000Y-73660000D01*
X100965000Y-72390000D02*
X99695000Y-73660000D01*
%TO.N,XM1*%
X165735000Y-71120000D02*
X164465000Y-72390000D01*
X165735000Y-71120000D02*
X167005000Y-72390000D01*
X165735000Y-68580000D02*
X165735000Y-71120000D01*
X167005000Y-72390000D02*
X161925000Y-72390000D01*
%TO.N,XM2*%
X113665000Y-69850000D02*
X112395000Y-71120000D01*
X113665000Y-69850000D02*
X114935000Y-71120000D01*
X113665000Y-67310000D02*
X113665000Y-69850000D01*
%TO.N,XM0*%
X98425000Y-67310000D02*
X98425000Y-69850000D01*
X97155000Y-71120000D02*
X88265000Y-71120000D01*
X98425000Y-69850000D02*
X97155000Y-71120000D01*
X98425000Y-67310000D02*
X98425000Y-71120000D01*
%TO.N,-M4*%
X183515000Y-74295000D02*
X184785000Y-74295000D01*
X185420000Y-74930000D02*
X191770000Y-74930000D01*
X184785000Y-74295000D02*
X185420000Y-74930000D01*
D24*
%TO.N,USB0_TX+*%
X148377243Y-55667243D02*
X147955000Y-55245000D01*
X148377243Y-59070483D02*
X148377243Y-55667243D01*
%TO.N,USB0_TX-*%
X145202243Y-55457757D02*
X145415000Y-55245000D01*
X145202243Y-59070483D02*
X145202243Y-55457757D01*
%TO.N,USB0_RX+*%
X148336000Y-49784000D02*
X147955000Y-50165000D01*
X151511000Y-49784000D02*
X148336000Y-49784000D01*
%TO.N,USB0_RX-*%
X148209000Y-52959000D02*
X147955000Y-52705000D01*
X151511000Y-52959000D02*
X148209000Y-52959000D01*
%TO.N,USB0_D+*%
X145161000Y-52959000D02*
X145415000Y-52705000D01*
X142240000Y-52959000D02*
X145161000Y-52959000D01*
%TO.N,USB0_D-*%
X145034000Y-49784000D02*
X145415000Y-50165000D01*
X142240000Y-49784000D02*
X145034000Y-49784000D01*
D22*
%TO.N,5V*%
X144780000Y-46990000D02*
X145415000Y-47625000D01*
X139065000Y-46990000D02*
X144780000Y-46990000D01*
D25*
%TO.N,EthD+*%
X166929263Y-51435000D02*
X165858468Y-52505795D01*
X172891998Y-51435000D02*
X166929263Y-51435000D01*
X173221999Y-51104999D02*
X172891998Y-51435000D01*
X165858468Y-52505795D02*
X164628102Y-52505795D01*
X174758001Y-51104999D02*
X173221999Y-51104999D01*
X175088002Y-51435000D02*
X174758001Y-51104999D01*
X176530000Y-51435000D02*
X175088002Y-51435000D01*
%TO.N,EthD-*%
X166424154Y-53071481D02*
X166424154Y-54301846D01*
X167260635Y-52235000D02*
X166424154Y-53071481D01*
X173520000Y-52235000D02*
X167260635Y-52235000D01*
X173990000Y-52705000D02*
X173520000Y-52235000D01*
%TO.N,EthB+*%
X176530000Y-53975000D02*
X176092000Y-53975000D01*
X164782896Y-49834999D02*
X161132050Y-53485845D01*
X176092000Y-53975000D02*
X175590001Y-53473001D01*
X161132050Y-53485845D02*
X161132050Y-55117847D01*
X175590001Y-53473001D02*
X176860001Y-53473001D01*
X176860001Y-53473001D02*
X178130001Y-52203001D01*
X178130001Y-52203001D02*
X178130001Y-50666999D01*
X178130001Y-50666999D02*
X177298001Y-49834999D01*
X162362416Y-56001847D02*
X162266365Y-56097898D01*
X177298001Y-49834999D02*
X164782896Y-49834999D01*
X162266365Y-56097898D02*
X161036000Y-56097898D01*
X161132050Y-55117847D02*
X162016050Y-56001847D01*
X162016050Y-56001847D02*
X162362416Y-56001847D01*
%TO.N,EthB-*%
X165444103Y-57797899D02*
X163812101Y-57797899D01*
X168467002Y-54775000D02*
X165444103Y-57797899D01*
X162928101Y-56913899D02*
X162928101Y-56567534D01*
X173990000Y-57785000D02*
X170980000Y-54775000D01*
X163812101Y-57797899D02*
X162928101Y-56913899D01*
X162928101Y-56567534D02*
X162832051Y-56663584D01*
X162832051Y-56663584D02*
X162832051Y-57893949D01*
X170980000Y-54775000D02*
X168467002Y-54775000D01*
%TD*%
D26*
%TO.N,+48_VA*%
X151926998Y-75203950D02*
X151764218Y-75209463D01*
X151583190Y-75352531D01*
X151433552Y-75528167D01*
X151409488Y-75564222D01*
X151412152Y-75727000D01*
X151927000Y-75727000D01*
X151927000Y-75707000D01*
X152873000Y-75707000D01*
X152873000Y-75727000D01*
X153387848Y-75727000D01*
X153390512Y-75564222D01*
X153366448Y-75528167D01*
X153216810Y-75352531D01*
X153035782Y-75209463D01*
X152873002Y-75203950D01*
X152873002Y-75057000D01*
X154239644Y-75057000D01*
X160527112Y-83859456D01*
X160445312Y-87622263D01*
X159762139Y-87339284D01*
X158926172Y-87173000D01*
X158073828Y-87173000D01*
X157237861Y-87339284D01*
X156450397Y-87665462D01*
X155741698Y-88138999D01*
X155138999Y-88741698D01*
X154665462Y-89450397D01*
X154339284Y-90237861D01*
X154173000Y-91073828D01*
X154173000Y-91926172D01*
X154339284Y-92762139D01*
X154665462Y-93549603D01*
X155138999Y-94258302D01*
X155741698Y-94861001D01*
X156450397Y-95334538D01*
X157237861Y-95660716D01*
X158073828Y-95827000D01*
X158926172Y-95827000D01*
X159762139Y-95660716D01*
X160275183Y-95448206D01*
X159942781Y-110738707D01*
X159943582Y-110260000D01*
X159937268Y-110195897D01*
X159918570Y-110134257D01*
X159888206Y-110077450D01*
X159847343Y-110027657D01*
X159797550Y-109986794D01*
X159740743Y-109956430D01*
X159679103Y-109937732D01*
X159615000Y-109931418D01*
X158669750Y-109933000D01*
X158588000Y-110014750D01*
X158588000Y-111287000D01*
X158608000Y-111287000D01*
X158608000Y-112233000D01*
X158588000Y-112233000D01*
X158588000Y-112253000D01*
X157642000Y-112253000D01*
X157642000Y-112233000D01*
X156369750Y-112233000D01*
X156288000Y-112314750D01*
X156287015Y-112903000D01*
X152873002Y-112903000D01*
X152873002Y-112756050D01*
X153035782Y-112750537D01*
X153216810Y-112607469D01*
X153366448Y-112431833D01*
X153390512Y-112395778D01*
X153387848Y-112233000D01*
X152873000Y-112233000D01*
X152873000Y-112253000D01*
X151927000Y-112253000D01*
X151927000Y-112233000D01*
X151412152Y-112233000D01*
X151409488Y-112395778D01*
X151433552Y-112431833D01*
X151583190Y-112607469D01*
X151764218Y-112750537D01*
X151926998Y-112756050D01*
X151926998Y-112903000D01*
X150333002Y-112903000D01*
X150333002Y-112756050D01*
X150495782Y-112750537D01*
X150676810Y-112607469D01*
X150826448Y-112431833D01*
X150850512Y-112395778D01*
X150847848Y-112233000D01*
X150333000Y-112233000D01*
X150333000Y-112253000D01*
X149387000Y-112253000D01*
X149387000Y-112233000D01*
X149367000Y-112233000D01*
X149367000Y-111287000D01*
X149387000Y-111287000D01*
X150333000Y-111287000D01*
X150847848Y-111287000D01*
X150850512Y-111124222D01*
X151409488Y-111124222D01*
X151412152Y-111287000D01*
X151927000Y-111287000D01*
X152873000Y-111287000D01*
X153387848Y-111287000D01*
X153390512Y-111124222D01*
X153366448Y-111088167D01*
X153216810Y-110912531D01*
X153035782Y-110769463D01*
X152873000Y-110763950D01*
X152873000Y-111287000D01*
X151927000Y-111287000D01*
X151927000Y-110763950D01*
X151764218Y-110769463D01*
X151583190Y-110912531D01*
X151433552Y-111088167D01*
X151409488Y-111124222D01*
X150850512Y-111124222D01*
X150826448Y-111088167D01*
X150676810Y-110912531D01*
X150495782Y-110769463D01*
X150333000Y-110763950D01*
X150333000Y-111287000D01*
X149387000Y-111287000D01*
X149387000Y-110763950D01*
X149224218Y-110769463D01*
X149043190Y-110912531D01*
X148893552Y-111088167D01*
X148869488Y-111124222D01*
X148872152Y-111286998D01*
X148717000Y-111286998D01*
X148717000Y-110260000D01*
X156286418Y-110260000D01*
X156288000Y-111205250D01*
X156369750Y-111287000D01*
X157642000Y-111287000D01*
X157642000Y-110014750D01*
X157560250Y-109933000D01*
X156615000Y-109931418D01*
X156550897Y-109937732D01*
X156489257Y-109956430D01*
X156432450Y-109986794D01*
X156382657Y-110027657D01*
X156341794Y-110077450D01*
X156311430Y-110134257D01*
X156292732Y-110195897D01*
X156286418Y-110260000D01*
X148717000Y-110260000D01*
X148717000Y-109693002D01*
X148872152Y-109693002D01*
X148869488Y-109855778D01*
X148893552Y-109891833D01*
X149043190Y-110067469D01*
X149224218Y-110210537D01*
X149387000Y-110216050D01*
X149387000Y-109693000D01*
X150333000Y-109693000D01*
X150333000Y-110216050D01*
X150495782Y-110210537D01*
X150676810Y-110067469D01*
X150826448Y-109891833D01*
X150850512Y-109855778D01*
X151409488Y-109855778D01*
X151433552Y-109891833D01*
X151583190Y-110067469D01*
X151764218Y-110210537D01*
X151927000Y-110216050D01*
X151927000Y-109693000D01*
X152873000Y-109693000D01*
X152873000Y-110216050D01*
X153035782Y-110210537D01*
X153216810Y-110067469D01*
X153366448Y-109891833D01*
X153390512Y-109855778D01*
X153387848Y-109693000D01*
X152873000Y-109693000D01*
X151927000Y-109693000D01*
X151412152Y-109693000D01*
X151409488Y-109855778D01*
X150850512Y-109855778D01*
X150847848Y-109693000D01*
X150333000Y-109693000D01*
X149387000Y-109693000D01*
X149367000Y-109693000D01*
X149367000Y-108815000D01*
X156286418Y-108815000D01*
X156292732Y-108879103D01*
X156311430Y-108940743D01*
X156341794Y-108997550D01*
X156382657Y-109047343D01*
X156432450Y-109088206D01*
X156489257Y-109118570D01*
X156550897Y-109137268D01*
X156615000Y-109143582D01*
X157560250Y-109142000D01*
X157642000Y-109060250D01*
X157642000Y-107788000D01*
X158588000Y-107788000D01*
X158588000Y-109060250D01*
X158669750Y-109142000D01*
X159615000Y-109143582D01*
X159679103Y-109137268D01*
X159740743Y-109118570D01*
X159797550Y-109088206D01*
X159847343Y-109047343D01*
X159888206Y-108997550D01*
X159918570Y-108940743D01*
X159937268Y-108879103D01*
X159943582Y-108815000D01*
X159942000Y-107869750D01*
X159860250Y-107788000D01*
X158588000Y-107788000D01*
X157642000Y-107788000D01*
X156369750Y-107788000D01*
X156288000Y-107869750D01*
X156286418Y-108815000D01*
X149367000Y-108815000D01*
X149367000Y-108747000D01*
X149387000Y-108747000D01*
X150333000Y-108747000D01*
X150847848Y-108747000D01*
X150850512Y-108584222D01*
X151409488Y-108584222D01*
X151412152Y-108747000D01*
X151927000Y-108747000D01*
X152873000Y-108747000D01*
X153387848Y-108747000D01*
X153390512Y-108584222D01*
X153366448Y-108548167D01*
X153216810Y-108372531D01*
X153035782Y-108229463D01*
X152873000Y-108223950D01*
X152873000Y-108747000D01*
X151927000Y-108747000D01*
X151927000Y-108223950D01*
X151764218Y-108229463D01*
X151583190Y-108372531D01*
X151433552Y-108548167D01*
X151409488Y-108584222D01*
X150850512Y-108584222D01*
X150826448Y-108548167D01*
X150676810Y-108372531D01*
X150495782Y-108229463D01*
X150333000Y-108223950D01*
X150333000Y-108747000D01*
X149387000Y-108747000D01*
X149387000Y-108223950D01*
X149224218Y-108229463D01*
X149043190Y-108372531D01*
X148893552Y-108548167D01*
X148869488Y-108584222D01*
X148872152Y-108746998D01*
X148717000Y-108746998D01*
X148717000Y-107153002D01*
X148872152Y-107153002D01*
X148869488Y-107315778D01*
X148893552Y-107351833D01*
X149043190Y-107527469D01*
X149224218Y-107670537D01*
X149387000Y-107676050D01*
X149387000Y-107153000D01*
X150333000Y-107153000D01*
X150333000Y-107676050D01*
X150495782Y-107670537D01*
X150676810Y-107527469D01*
X150826448Y-107351833D01*
X150850512Y-107315778D01*
X151409488Y-107315778D01*
X151433552Y-107351833D01*
X151583190Y-107527469D01*
X151764218Y-107670537D01*
X151927000Y-107676050D01*
X151927000Y-107153000D01*
X152873000Y-107153000D01*
X152873000Y-107676050D01*
X153035782Y-107670537D01*
X153216810Y-107527469D01*
X153366448Y-107351833D01*
X153390512Y-107315778D01*
X153387848Y-107153000D01*
X152873000Y-107153000D01*
X151927000Y-107153000D01*
X151412152Y-107153000D01*
X151409488Y-107315778D01*
X150850512Y-107315778D01*
X150847848Y-107153000D01*
X150333000Y-107153000D01*
X149387000Y-107153000D01*
X149367000Y-107153000D01*
X149367000Y-106207000D01*
X149387000Y-106207000D01*
X150333000Y-106207000D01*
X150847848Y-106207000D01*
X150850512Y-106044222D01*
X151409488Y-106044222D01*
X151412152Y-106207000D01*
X151927000Y-106207000D01*
X152873000Y-106207000D01*
X153387848Y-106207000D01*
X153390512Y-106044222D01*
X153366448Y-106008167D01*
X153216810Y-105832531D01*
X153194628Y-105815000D01*
X156286418Y-105815000D01*
X156288000Y-106760250D01*
X156369750Y-106842000D01*
X157642000Y-106842000D01*
X157642000Y-105569750D01*
X158588000Y-105569750D01*
X158588000Y-106842000D01*
X159860250Y-106842000D01*
X159942000Y-106760250D01*
X159943582Y-105815000D01*
X159937268Y-105750897D01*
X159918570Y-105689257D01*
X159888206Y-105632450D01*
X159847343Y-105582657D01*
X159797550Y-105541794D01*
X159740743Y-105511430D01*
X159679103Y-105492732D01*
X159615000Y-105486418D01*
X158669750Y-105488000D01*
X158588000Y-105569750D01*
X157642000Y-105569750D01*
X157560250Y-105488000D01*
X156615000Y-105486418D01*
X156550897Y-105492732D01*
X156489257Y-105511430D01*
X156432450Y-105541794D01*
X156382657Y-105582657D01*
X156341794Y-105632450D01*
X156311430Y-105689257D01*
X156292732Y-105750897D01*
X156286418Y-105815000D01*
X153194628Y-105815000D01*
X153035782Y-105689463D01*
X152873000Y-105683950D01*
X152873000Y-106207000D01*
X151927000Y-106207000D01*
X151927000Y-105683950D01*
X151764218Y-105689463D01*
X151583190Y-105832531D01*
X151433552Y-106008167D01*
X151409488Y-106044222D01*
X150850512Y-106044222D01*
X150826448Y-106008167D01*
X150676810Y-105832531D01*
X150495782Y-105689463D01*
X150333000Y-105683950D01*
X150333000Y-106207000D01*
X149387000Y-106207000D01*
X149387000Y-105683950D01*
X149224218Y-105689463D01*
X149043190Y-105832531D01*
X148893552Y-106008167D01*
X148869488Y-106044222D01*
X148872152Y-106206998D01*
X148717000Y-106206998D01*
X148717000Y-104613002D01*
X148872152Y-104613002D01*
X148869488Y-104775778D01*
X148893552Y-104811833D01*
X149043190Y-104987469D01*
X149224218Y-105130537D01*
X149387000Y-105136050D01*
X149387000Y-104613000D01*
X150333000Y-104613000D01*
X150333000Y-105136050D01*
X150495782Y-105130537D01*
X150676810Y-104987469D01*
X150826448Y-104811833D01*
X150850512Y-104775778D01*
X151409488Y-104775778D01*
X151433552Y-104811833D01*
X151583190Y-104987469D01*
X151764218Y-105130537D01*
X151927000Y-105136050D01*
X151927000Y-104613000D01*
X152873000Y-104613000D01*
X152873000Y-105136050D01*
X153035782Y-105130537D01*
X153216810Y-104987469D01*
X153366448Y-104811833D01*
X153390512Y-104775778D01*
X153387848Y-104613000D01*
X152873000Y-104613000D01*
X151927000Y-104613000D01*
X151412152Y-104613000D01*
X151409488Y-104775778D01*
X150850512Y-104775778D01*
X150847848Y-104613000D01*
X150333000Y-104613000D01*
X149387000Y-104613000D01*
X149367000Y-104613000D01*
X149367000Y-103667000D01*
X149387000Y-103667000D01*
X150333000Y-103667000D01*
X150847848Y-103667000D01*
X150850512Y-103504222D01*
X151409488Y-103504222D01*
X151412152Y-103667000D01*
X151927000Y-103667000D01*
X152873000Y-103667000D01*
X153387848Y-103667000D01*
X153390512Y-103504222D01*
X153366448Y-103468167D01*
X153216810Y-103292531D01*
X153035782Y-103149463D01*
X152873000Y-103143950D01*
X152873000Y-103667000D01*
X151927000Y-103667000D01*
X151927000Y-103143950D01*
X151764218Y-103149463D01*
X151583190Y-103292531D01*
X151433552Y-103468167D01*
X151409488Y-103504222D01*
X150850512Y-103504222D01*
X150826448Y-103468167D01*
X150676810Y-103292531D01*
X150495782Y-103149463D01*
X150333000Y-103143950D01*
X150333000Y-103667000D01*
X149387000Y-103667000D01*
X149387000Y-103143950D01*
X149224218Y-103149463D01*
X149043190Y-103292531D01*
X148893552Y-103468167D01*
X148869488Y-103504222D01*
X148872152Y-103666998D01*
X148717000Y-103666998D01*
X148717000Y-102073002D01*
X148872152Y-102073002D01*
X148869488Y-102235778D01*
X148893552Y-102271833D01*
X149043190Y-102447469D01*
X149224218Y-102590537D01*
X149387000Y-102596050D01*
X149387000Y-102073000D01*
X150333000Y-102073000D01*
X150333000Y-102596050D01*
X150495782Y-102590537D01*
X150676810Y-102447469D01*
X150826448Y-102271833D01*
X150850512Y-102235778D01*
X151409488Y-102235778D01*
X151433552Y-102271833D01*
X151583190Y-102447469D01*
X151764218Y-102590537D01*
X151927000Y-102596050D01*
X151927000Y-102073000D01*
X152873000Y-102073000D01*
X152873000Y-102596050D01*
X153035782Y-102590537D01*
X153216810Y-102447469D01*
X153366448Y-102271833D01*
X153390512Y-102235778D01*
X153387848Y-102073000D01*
X152873000Y-102073000D01*
X151927000Y-102073000D01*
X151412152Y-102073000D01*
X151409488Y-102235778D01*
X150850512Y-102235778D01*
X150847848Y-102073000D01*
X150333000Y-102073000D01*
X149387000Y-102073000D01*
X149367000Y-102073000D01*
X149367000Y-101127000D01*
X149387000Y-101127000D01*
X150333000Y-101127000D01*
X150847848Y-101127000D01*
X150850512Y-100964222D01*
X151409488Y-100964222D01*
X151412152Y-101127000D01*
X151927000Y-101127000D01*
X152873000Y-101127000D01*
X153387848Y-101127000D01*
X153390512Y-100964222D01*
X153366448Y-100928167D01*
X153216810Y-100752531D01*
X153035782Y-100609463D01*
X152873000Y-100603950D01*
X152873000Y-101127000D01*
X151927000Y-101127000D01*
X151927000Y-100603950D01*
X151764218Y-100609463D01*
X151583190Y-100752531D01*
X151433552Y-100928167D01*
X151409488Y-100964222D01*
X150850512Y-100964222D01*
X150826448Y-100928167D01*
X150676810Y-100752531D01*
X150495782Y-100609463D01*
X150333000Y-100603950D01*
X150333000Y-101127000D01*
X149387000Y-101127000D01*
X149387000Y-100603950D01*
X149224218Y-100609463D01*
X149043190Y-100752531D01*
X148893552Y-100928167D01*
X148869488Y-100964222D01*
X148872152Y-101126998D01*
X148717000Y-101126998D01*
X148717000Y-99533002D01*
X148872152Y-99533002D01*
X148869488Y-99695778D01*
X148893552Y-99731833D01*
X149043190Y-99907469D01*
X149224218Y-100050537D01*
X149387000Y-100056050D01*
X149387000Y-99533000D01*
X150333000Y-99533000D01*
X150333000Y-100056050D01*
X150495782Y-100050537D01*
X150676810Y-99907469D01*
X150826448Y-99731833D01*
X150850512Y-99695778D01*
X151409488Y-99695778D01*
X151433552Y-99731833D01*
X151583190Y-99907469D01*
X151764218Y-100050537D01*
X151927000Y-100056050D01*
X151927000Y-99533000D01*
X152873000Y-99533000D01*
X152873000Y-100056050D01*
X153035782Y-100050537D01*
X153216810Y-99907469D01*
X153366448Y-99731833D01*
X153390512Y-99695778D01*
X153387848Y-99533000D01*
X152873000Y-99533000D01*
X151927000Y-99533000D01*
X151412152Y-99533000D01*
X151409488Y-99695778D01*
X150850512Y-99695778D01*
X150847848Y-99533000D01*
X150333000Y-99533000D01*
X149387000Y-99533000D01*
X149367000Y-99533000D01*
X149367000Y-98587000D01*
X149387000Y-98587000D01*
X150333000Y-98587000D01*
X150847848Y-98587000D01*
X150850512Y-98424222D01*
X151409488Y-98424222D01*
X151412152Y-98587000D01*
X151927000Y-98587000D01*
X152873000Y-98587000D01*
X153387848Y-98587000D01*
X153390512Y-98424222D01*
X153366448Y-98388167D01*
X153216810Y-98212531D01*
X153035782Y-98069463D01*
X152873000Y-98063950D01*
X152873000Y-98587000D01*
X151927000Y-98587000D01*
X151927000Y-98063950D01*
X151764218Y-98069463D01*
X151583190Y-98212531D01*
X151433552Y-98388167D01*
X151409488Y-98424222D01*
X150850512Y-98424222D01*
X150826448Y-98388167D01*
X150676810Y-98212531D01*
X150495782Y-98069463D01*
X150333000Y-98063950D01*
X150333000Y-98587000D01*
X149387000Y-98587000D01*
X149387000Y-98063950D01*
X149224218Y-98069463D01*
X149043190Y-98212531D01*
X148893552Y-98388167D01*
X148869488Y-98424222D01*
X148872152Y-98586998D01*
X148717000Y-98586998D01*
X148717000Y-96993002D01*
X148872152Y-96993002D01*
X148869488Y-97155778D01*
X148893552Y-97191833D01*
X149043190Y-97367469D01*
X149224218Y-97510537D01*
X149387000Y-97516050D01*
X149387000Y-96993000D01*
X150333000Y-96993000D01*
X150333000Y-97516050D01*
X150495782Y-97510537D01*
X150676810Y-97367469D01*
X150826448Y-97191833D01*
X150850512Y-97155778D01*
X151409488Y-97155778D01*
X151433552Y-97191833D01*
X151583190Y-97367469D01*
X151764218Y-97510537D01*
X151927000Y-97516050D01*
X151927000Y-96993000D01*
X152873000Y-96993000D01*
X152873000Y-97516050D01*
X153035782Y-97510537D01*
X153216810Y-97367469D01*
X153366448Y-97191833D01*
X153390512Y-97155778D01*
X153387848Y-96993000D01*
X152873000Y-96993000D01*
X151927000Y-96993000D01*
X151412152Y-96993000D01*
X151409488Y-97155778D01*
X150850512Y-97155778D01*
X150847848Y-96993000D01*
X150333000Y-96993000D01*
X149387000Y-96993000D01*
X149367000Y-96993000D01*
X149367000Y-96047000D01*
X149387000Y-96047000D01*
X150333000Y-96047000D01*
X150847848Y-96047000D01*
X150850512Y-95884222D01*
X151409488Y-95884222D01*
X151412152Y-96047000D01*
X151927000Y-96047000D01*
X152873000Y-96047000D01*
X153387848Y-96047000D01*
X153390512Y-95884222D01*
X153366448Y-95848167D01*
X153216810Y-95672531D01*
X153035782Y-95529463D01*
X152873000Y-95523950D01*
X152873000Y-96047000D01*
X151927000Y-96047000D01*
X151927000Y-95523950D01*
X151764218Y-95529463D01*
X151583190Y-95672531D01*
X151433552Y-95848167D01*
X151409488Y-95884222D01*
X150850512Y-95884222D01*
X150826448Y-95848167D01*
X150676810Y-95672531D01*
X150495782Y-95529463D01*
X150333000Y-95523950D01*
X150333000Y-96047000D01*
X149387000Y-96047000D01*
X149387000Y-95523950D01*
X149224218Y-95529463D01*
X149043190Y-95672531D01*
X148893552Y-95848167D01*
X148869488Y-95884222D01*
X148872152Y-96046998D01*
X148717000Y-96046998D01*
X148717000Y-94453002D01*
X148872152Y-94453002D01*
X148869488Y-94615778D01*
X148893552Y-94651833D01*
X149043190Y-94827469D01*
X149224218Y-94970537D01*
X149387000Y-94976050D01*
X149387000Y-94453000D01*
X150333000Y-94453000D01*
X150333000Y-94976050D01*
X150495782Y-94970537D01*
X150676810Y-94827469D01*
X150826448Y-94651833D01*
X150850512Y-94615778D01*
X151409488Y-94615778D01*
X151433552Y-94651833D01*
X151583190Y-94827469D01*
X151764218Y-94970537D01*
X151927000Y-94976050D01*
X151927000Y-94453000D01*
X152873000Y-94453000D01*
X152873000Y-94976050D01*
X153035782Y-94970537D01*
X153216810Y-94827469D01*
X153366448Y-94651833D01*
X153390512Y-94615778D01*
X153387848Y-94453000D01*
X152873000Y-94453000D01*
X151927000Y-94453000D01*
X151412152Y-94453000D01*
X151409488Y-94615778D01*
X150850512Y-94615778D01*
X150847848Y-94453000D01*
X150333000Y-94453000D01*
X149387000Y-94453000D01*
X149367000Y-94453000D01*
X149367000Y-93507000D01*
X149387000Y-93507000D01*
X150333000Y-93507000D01*
X150847848Y-93507000D01*
X150850512Y-93344222D01*
X151409488Y-93344222D01*
X151412152Y-93507000D01*
X151927000Y-93507000D01*
X152873000Y-93507000D01*
X153387848Y-93507000D01*
X153390512Y-93344222D01*
X153366448Y-93308167D01*
X153216810Y-93132531D01*
X153035782Y-92989463D01*
X152873000Y-92983950D01*
X152873000Y-93507000D01*
X151927000Y-93507000D01*
X151927000Y-92983950D01*
X151764218Y-92989463D01*
X151583190Y-93132531D01*
X151433552Y-93308167D01*
X151409488Y-93344222D01*
X150850512Y-93344222D01*
X150826448Y-93308167D01*
X150676810Y-93132531D01*
X150495782Y-92989463D01*
X150333000Y-92983950D01*
X150333000Y-93507000D01*
X149387000Y-93507000D01*
X149387000Y-92983950D01*
X149224218Y-92989463D01*
X149043190Y-93132531D01*
X148893552Y-93308167D01*
X148869488Y-93344222D01*
X148872152Y-93506998D01*
X148717000Y-93506998D01*
X148717000Y-91913002D01*
X148872152Y-91913002D01*
X148869488Y-92075778D01*
X148893552Y-92111833D01*
X149043190Y-92287469D01*
X149224218Y-92430537D01*
X149387000Y-92436050D01*
X149387000Y-91913000D01*
X150333000Y-91913000D01*
X150333000Y-92436050D01*
X150495782Y-92430537D01*
X150676810Y-92287469D01*
X150826448Y-92111833D01*
X150850512Y-92075778D01*
X151409488Y-92075778D01*
X151433552Y-92111833D01*
X151583190Y-92287469D01*
X151764218Y-92430537D01*
X151927000Y-92436050D01*
X151927000Y-91913000D01*
X152873000Y-91913000D01*
X152873000Y-92436050D01*
X153035782Y-92430537D01*
X153216810Y-92287469D01*
X153366448Y-92111833D01*
X153390512Y-92075778D01*
X153387848Y-91913000D01*
X152873000Y-91913000D01*
X151927000Y-91913000D01*
X151412152Y-91913000D01*
X151409488Y-92075778D01*
X150850512Y-92075778D01*
X150847848Y-91913000D01*
X150333000Y-91913000D01*
X149387000Y-91913000D01*
X149367000Y-91913000D01*
X149367000Y-90967000D01*
X149387000Y-90967000D01*
X150333000Y-90967000D01*
X150847848Y-90967000D01*
X150850512Y-90804222D01*
X151409488Y-90804222D01*
X151412152Y-90967000D01*
X151927000Y-90967000D01*
X152873000Y-90967000D01*
X153387848Y-90967000D01*
X153390512Y-90804222D01*
X153366448Y-90768167D01*
X153216810Y-90592531D01*
X153035782Y-90449463D01*
X152873000Y-90443950D01*
X152873000Y-90967000D01*
X151927000Y-90967000D01*
X151927000Y-90443950D01*
X151764218Y-90449463D01*
X151583190Y-90592531D01*
X151433552Y-90768167D01*
X151409488Y-90804222D01*
X150850512Y-90804222D01*
X150826448Y-90768167D01*
X150676810Y-90592531D01*
X150495782Y-90449463D01*
X150333000Y-90443950D01*
X150333000Y-90967000D01*
X149387000Y-90967000D01*
X149387000Y-90443950D01*
X149224218Y-90449463D01*
X149043190Y-90592531D01*
X148893552Y-90768167D01*
X148869488Y-90804222D01*
X148872152Y-90966998D01*
X148717000Y-90966998D01*
X148717000Y-89373002D01*
X148872152Y-89373002D01*
X148869488Y-89535778D01*
X148893552Y-89571833D01*
X149043190Y-89747469D01*
X149224218Y-89890537D01*
X149387000Y-89896050D01*
X149387000Y-89373000D01*
X150333000Y-89373000D01*
X150333000Y-89896050D01*
X150495782Y-89890537D01*
X150676810Y-89747469D01*
X150826448Y-89571833D01*
X150850512Y-89535778D01*
X151409488Y-89535778D01*
X151433552Y-89571833D01*
X151583190Y-89747469D01*
X151764218Y-89890537D01*
X151927000Y-89896050D01*
X151927000Y-89373000D01*
X152873000Y-89373000D01*
X152873000Y-89896050D01*
X153035782Y-89890537D01*
X153216810Y-89747469D01*
X153366448Y-89571833D01*
X153390512Y-89535778D01*
X153387848Y-89373000D01*
X152873000Y-89373000D01*
X151927000Y-89373000D01*
X151412152Y-89373000D01*
X151409488Y-89535778D01*
X150850512Y-89535778D01*
X150847848Y-89373000D01*
X150333000Y-89373000D01*
X149387000Y-89373000D01*
X149367000Y-89373000D01*
X149367000Y-88427000D01*
X149387000Y-88427000D01*
X150333000Y-88427000D01*
X150847848Y-88427000D01*
X150850512Y-88264222D01*
X151409488Y-88264222D01*
X151412152Y-88427000D01*
X151927000Y-88427000D01*
X152873000Y-88427000D01*
X153387848Y-88427000D01*
X153390512Y-88264222D01*
X153366448Y-88228167D01*
X153216810Y-88052531D01*
X153035782Y-87909463D01*
X152873000Y-87903950D01*
X152873000Y-88427000D01*
X151927000Y-88427000D01*
X151927000Y-87903950D01*
X151764218Y-87909463D01*
X151583190Y-88052531D01*
X151433552Y-88228167D01*
X151409488Y-88264222D01*
X150850512Y-88264222D01*
X150826448Y-88228167D01*
X150676810Y-88052531D01*
X150495782Y-87909463D01*
X150333000Y-87903950D01*
X150333000Y-88427000D01*
X149387000Y-88427000D01*
X149387000Y-87903950D01*
X149224218Y-87909463D01*
X149043190Y-88052531D01*
X148893552Y-88228167D01*
X148869488Y-88264222D01*
X148872152Y-88426998D01*
X148717000Y-88426998D01*
X148717000Y-86833002D01*
X148872152Y-86833002D01*
X148869488Y-86995778D01*
X148893552Y-87031833D01*
X149043190Y-87207469D01*
X149224218Y-87350537D01*
X149387000Y-87356050D01*
X149387000Y-86833000D01*
X150333000Y-86833000D01*
X150333000Y-87356050D01*
X150495782Y-87350537D01*
X150676810Y-87207469D01*
X150826448Y-87031833D01*
X150850512Y-86995778D01*
X151409488Y-86995778D01*
X151433552Y-87031833D01*
X151583190Y-87207469D01*
X151764218Y-87350537D01*
X151927000Y-87356050D01*
X151927000Y-86833000D01*
X152873000Y-86833000D01*
X152873000Y-87356050D01*
X153035782Y-87350537D01*
X153216810Y-87207469D01*
X153366448Y-87031833D01*
X153390512Y-86995778D01*
X153387848Y-86833000D01*
X152873000Y-86833000D01*
X151927000Y-86833000D01*
X151412152Y-86833000D01*
X151409488Y-86995778D01*
X150850512Y-86995778D01*
X150847848Y-86833000D01*
X150333000Y-86833000D01*
X149387000Y-86833000D01*
X149367000Y-86833000D01*
X149367000Y-85887000D01*
X149387000Y-85887000D01*
X150333000Y-85887000D01*
X150847848Y-85887000D01*
X150850512Y-85724222D01*
X151409488Y-85724222D01*
X151412152Y-85887000D01*
X151927000Y-85887000D01*
X152873000Y-85887000D01*
X153387848Y-85887000D01*
X153390512Y-85724222D01*
X153366448Y-85688167D01*
X153216810Y-85512531D01*
X153035782Y-85369463D01*
X152873000Y-85363950D01*
X152873000Y-85887000D01*
X151927000Y-85887000D01*
X151927000Y-85363950D01*
X151764218Y-85369463D01*
X151583190Y-85512531D01*
X151433552Y-85688167D01*
X151409488Y-85724222D01*
X150850512Y-85724222D01*
X150826448Y-85688167D01*
X150676810Y-85512531D01*
X150495782Y-85369463D01*
X150333000Y-85363950D01*
X150333000Y-85887000D01*
X149387000Y-85887000D01*
X149387000Y-85363950D01*
X149224218Y-85369463D01*
X149043190Y-85512531D01*
X148893552Y-85688167D01*
X148869488Y-85724222D01*
X148872152Y-85886998D01*
X148717000Y-85886998D01*
X148717000Y-84293002D01*
X148872152Y-84293002D01*
X148869488Y-84455778D01*
X148893552Y-84491833D01*
X149043190Y-84667469D01*
X149224218Y-84810537D01*
X149387000Y-84816050D01*
X149387000Y-84293000D01*
X150333000Y-84293000D01*
X150333000Y-84816050D01*
X150495782Y-84810537D01*
X150676810Y-84667469D01*
X150826448Y-84491833D01*
X150850512Y-84455778D01*
X151409488Y-84455778D01*
X151433552Y-84491833D01*
X151583190Y-84667469D01*
X151764218Y-84810537D01*
X151927000Y-84816050D01*
X151927000Y-84293000D01*
X152873000Y-84293000D01*
X152873000Y-84816050D01*
X153035782Y-84810537D01*
X153216810Y-84667469D01*
X153366448Y-84491833D01*
X153390512Y-84455778D01*
X153387848Y-84293000D01*
X152873000Y-84293000D01*
X151927000Y-84293000D01*
X151412152Y-84293000D01*
X151409488Y-84455778D01*
X150850512Y-84455778D01*
X150847848Y-84293000D01*
X150333000Y-84293000D01*
X149387000Y-84293000D01*
X149367000Y-84293000D01*
X149367000Y-83347000D01*
X149387000Y-83347000D01*
X150333000Y-83347000D01*
X150847848Y-83347000D01*
X150850512Y-83184222D01*
X151409488Y-83184222D01*
X151412152Y-83347000D01*
X151927000Y-83347000D01*
X152873000Y-83347000D01*
X153387848Y-83347000D01*
X153390512Y-83184222D01*
X153366448Y-83148167D01*
X153216810Y-82972531D01*
X153035782Y-82829463D01*
X152873000Y-82823950D01*
X152873000Y-83347000D01*
X151927000Y-83347000D01*
X151927000Y-82823950D01*
X151764218Y-82829463D01*
X151583190Y-82972531D01*
X151433552Y-83148167D01*
X151409488Y-83184222D01*
X150850512Y-83184222D01*
X150826448Y-83148167D01*
X150676810Y-82972531D01*
X150495782Y-82829463D01*
X150333000Y-82823950D01*
X150333000Y-83347000D01*
X149387000Y-83347000D01*
X149387000Y-82823950D01*
X149224218Y-82829463D01*
X149043190Y-82972531D01*
X148893552Y-83148167D01*
X148869488Y-83184222D01*
X148872152Y-83346998D01*
X148717000Y-83346998D01*
X148717000Y-81753002D01*
X148872152Y-81753002D01*
X148869488Y-81915778D01*
X148893552Y-81951833D01*
X149043190Y-82127469D01*
X149224218Y-82270537D01*
X149387000Y-82276050D01*
X149387000Y-81753000D01*
X150333000Y-81753000D01*
X150333000Y-82276050D01*
X150495782Y-82270537D01*
X150676810Y-82127469D01*
X150826448Y-81951833D01*
X150850512Y-81915778D01*
X151409488Y-81915778D01*
X151433552Y-81951833D01*
X151583190Y-82127469D01*
X151764218Y-82270537D01*
X151927000Y-82276050D01*
X151927000Y-81753000D01*
X152873000Y-81753000D01*
X152873000Y-82276050D01*
X153035782Y-82270537D01*
X153216810Y-82127469D01*
X153366448Y-81951833D01*
X153390512Y-81915778D01*
X153387848Y-81753000D01*
X152873000Y-81753000D01*
X151927000Y-81753000D01*
X151412152Y-81753000D01*
X151409488Y-81915778D01*
X150850512Y-81915778D01*
X150847848Y-81753000D01*
X150333000Y-81753000D01*
X149387000Y-81753000D01*
X149367000Y-81753000D01*
X149367000Y-80807000D01*
X149387000Y-80807000D01*
X150333000Y-80807000D01*
X150847848Y-80807000D01*
X150850512Y-80644222D01*
X151409488Y-80644222D01*
X151412152Y-80807000D01*
X151927000Y-80807000D01*
X152873000Y-80807000D01*
X153387848Y-80807000D01*
X153390512Y-80644222D01*
X153366448Y-80608167D01*
X153216810Y-80432531D01*
X153035782Y-80289463D01*
X152873000Y-80283950D01*
X152873000Y-80807000D01*
X151927000Y-80807000D01*
X151927000Y-80283950D01*
X151764218Y-80289463D01*
X151583190Y-80432531D01*
X151433552Y-80608167D01*
X151409488Y-80644222D01*
X150850512Y-80644222D01*
X150826448Y-80608167D01*
X150676810Y-80432531D01*
X150495782Y-80289463D01*
X150333000Y-80283950D01*
X150333000Y-80807000D01*
X149387000Y-80807000D01*
X149387000Y-80283950D01*
X149224218Y-80289463D01*
X149043190Y-80432531D01*
X148893552Y-80608167D01*
X148869488Y-80644222D01*
X148872152Y-80806998D01*
X148717000Y-80806998D01*
X148717000Y-79213002D01*
X148872152Y-79213002D01*
X148869488Y-79375778D01*
X148893552Y-79411833D01*
X149043190Y-79587469D01*
X149224218Y-79730537D01*
X149387000Y-79736050D01*
X149387000Y-79213000D01*
X150333000Y-79213000D01*
X150333000Y-79736050D01*
X150495782Y-79730537D01*
X150676810Y-79587469D01*
X150826448Y-79411833D01*
X150850512Y-79375778D01*
X151409488Y-79375778D01*
X151433552Y-79411833D01*
X151583190Y-79587469D01*
X151764218Y-79730537D01*
X151927000Y-79736050D01*
X151927000Y-79213000D01*
X152873000Y-79213000D01*
X152873000Y-79736050D01*
X153035782Y-79730537D01*
X153216810Y-79587469D01*
X153366448Y-79411833D01*
X153390512Y-79375778D01*
X153387848Y-79213000D01*
X152873000Y-79213000D01*
X151927000Y-79213000D01*
X151412152Y-79213000D01*
X151409488Y-79375778D01*
X150850512Y-79375778D01*
X150847848Y-79213000D01*
X150333000Y-79213000D01*
X149387000Y-79213000D01*
X149367000Y-79213000D01*
X149367000Y-78267000D01*
X149387000Y-78267000D01*
X150333000Y-78267000D01*
X150847848Y-78267000D01*
X150850512Y-78104222D01*
X151409488Y-78104222D01*
X151412152Y-78267000D01*
X151927000Y-78267000D01*
X152873000Y-78267000D01*
X153387848Y-78267000D01*
X153390512Y-78104222D01*
X153366448Y-78068167D01*
X153216810Y-77892531D01*
X153035782Y-77749463D01*
X152873000Y-77743950D01*
X152873000Y-78267000D01*
X151927000Y-78267000D01*
X151927000Y-77743950D01*
X151764218Y-77749463D01*
X151583190Y-77892531D01*
X151433552Y-78068167D01*
X151409488Y-78104222D01*
X150850512Y-78104222D01*
X150826448Y-78068167D01*
X150676810Y-77892531D01*
X150495782Y-77749463D01*
X150333000Y-77743950D01*
X150333000Y-78267000D01*
X149387000Y-78267000D01*
X149387000Y-77743950D01*
X149224218Y-77749463D01*
X149043190Y-77892531D01*
X148893552Y-78068167D01*
X148869488Y-78104222D01*
X148872152Y-78266998D01*
X148717000Y-78266998D01*
X148717000Y-77195518D01*
X148736794Y-77232550D01*
X148777657Y-77282343D01*
X148827450Y-77323206D01*
X148884257Y-77353570D01*
X148945897Y-77372268D01*
X149010000Y-77378582D01*
X149305250Y-77377000D01*
X149387000Y-77295250D01*
X149387000Y-76673000D01*
X150333000Y-76673000D01*
X150333000Y-77295250D01*
X150414750Y-77377000D01*
X150710000Y-77378582D01*
X150774103Y-77372268D01*
X150835743Y-77353570D01*
X150892550Y-77323206D01*
X150942343Y-77282343D01*
X150983206Y-77232550D01*
X151013570Y-77175743D01*
X151032268Y-77114103D01*
X151038582Y-77050000D01*
X151037435Y-76835778D01*
X151409488Y-76835778D01*
X151433552Y-76871833D01*
X151583190Y-77047469D01*
X151764218Y-77190537D01*
X151927000Y-77196050D01*
X151927000Y-76673000D01*
X152873000Y-76673000D01*
X152873000Y-77196050D01*
X153035782Y-77190537D01*
X153216810Y-77047469D01*
X153366448Y-76871833D01*
X153390512Y-76835778D01*
X153387848Y-76673000D01*
X152873000Y-76673000D01*
X151927000Y-76673000D01*
X151412152Y-76673000D01*
X151409488Y-76835778D01*
X151037435Y-76835778D01*
X151037000Y-76754750D01*
X150955250Y-76673000D01*
X150333000Y-76673000D01*
X149387000Y-76673000D01*
X149367000Y-76673000D01*
X149367000Y-75727000D01*
X149387000Y-75727000D01*
X149387000Y-75707000D01*
X150333000Y-75707000D01*
X150333000Y-75727000D01*
X150955250Y-75727000D01*
X151037000Y-75645250D01*
X151038582Y-75350000D01*
X151032268Y-75285897D01*
X151013570Y-75224257D01*
X150983206Y-75167450D01*
X150942343Y-75117657D01*
X150892550Y-75076794D01*
X150855518Y-75057000D01*
X151926998Y-75057000D01*
X151926998Y-75203950D01*
%TA.AperFunction,Conductor*%
D27*
G36*
X151926998Y-75203950D02*
G01*
X151764218Y-75209463D01*
X151583190Y-75352531D01*
X151433552Y-75528167D01*
X151409488Y-75564222D01*
X151412152Y-75727000D01*
X151927000Y-75727000D01*
X151927000Y-75707000D01*
X152873000Y-75707000D01*
X152873000Y-75727000D01*
X153387848Y-75727000D01*
X153390512Y-75564222D01*
X153366448Y-75528167D01*
X153216810Y-75352531D01*
X153035782Y-75209463D01*
X152873002Y-75203950D01*
X152873002Y-75057000D01*
X154239644Y-75057000D01*
X160527112Y-83859456D01*
X160445312Y-87622263D01*
X159762139Y-87339284D01*
X158926172Y-87173000D01*
X158073828Y-87173000D01*
X157237861Y-87339284D01*
X156450397Y-87665462D01*
X155741698Y-88138999D01*
X155138999Y-88741698D01*
X154665462Y-89450397D01*
X154339284Y-90237861D01*
X154173000Y-91073828D01*
X154173000Y-91926172D01*
X154339284Y-92762139D01*
X154665462Y-93549603D01*
X155138999Y-94258302D01*
X155741698Y-94861001D01*
X156450397Y-95334538D01*
X157237861Y-95660716D01*
X158073828Y-95827000D01*
X158926172Y-95827000D01*
X159762139Y-95660716D01*
X160275183Y-95448206D01*
X159942781Y-110738707D01*
X159943582Y-110260000D01*
X159937268Y-110195897D01*
X159918570Y-110134257D01*
X159888206Y-110077450D01*
X159847343Y-110027657D01*
X159797550Y-109986794D01*
X159740743Y-109956430D01*
X159679103Y-109937732D01*
X159615000Y-109931418D01*
X158669750Y-109933000D01*
X158588000Y-110014750D01*
X158588000Y-111287000D01*
X158608000Y-111287000D01*
X158608000Y-112233000D01*
X158588000Y-112233000D01*
X158588000Y-112253000D01*
X157642000Y-112253000D01*
X157642000Y-112233000D01*
X156369750Y-112233000D01*
X156288000Y-112314750D01*
X156287015Y-112903000D01*
X152873002Y-112903000D01*
X152873002Y-112756050D01*
X153035782Y-112750537D01*
X153216810Y-112607469D01*
X153366448Y-112431833D01*
X153390512Y-112395778D01*
X153387848Y-112233000D01*
X152873000Y-112233000D01*
X152873000Y-112253000D01*
X151927000Y-112253000D01*
X151927000Y-112233000D01*
X151412152Y-112233000D01*
X151409488Y-112395778D01*
X151433552Y-112431833D01*
X151583190Y-112607469D01*
X151764218Y-112750537D01*
X151926998Y-112756050D01*
X151926998Y-112903000D01*
X150333002Y-112903000D01*
X150333002Y-112756050D01*
X150495782Y-112750537D01*
X150676810Y-112607469D01*
X150826448Y-112431833D01*
X150850512Y-112395778D01*
X150847848Y-112233000D01*
X150333000Y-112233000D01*
X150333000Y-112253000D01*
X149387000Y-112253000D01*
X149387000Y-112233000D01*
X149367000Y-112233000D01*
X149367000Y-111287000D01*
X149387000Y-111287000D01*
X150333000Y-111287000D01*
X150847848Y-111287000D01*
X150850512Y-111124222D01*
X151409488Y-111124222D01*
X151412152Y-111287000D01*
X151927000Y-111287000D01*
X152873000Y-111287000D01*
X153387848Y-111287000D01*
X153390512Y-111124222D01*
X153366448Y-111088167D01*
X153216810Y-110912531D01*
X153035782Y-110769463D01*
X152873000Y-110763950D01*
X152873000Y-111287000D01*
X151927000Y-111287000D01*
X151927000Y-110763950D01*
X151764218Y-110769463D01*
X151583190Y-110912531D01*
X151433552Y-111088167D01*
X151409488Y-111124222D01*
X150850512Y-111124222D01*
X150826448Y-111088167D01*
X150676810Y-110912531D01*
X150495782Y-110769463D01*
X150333000Y-110763950D01*
X150333000Y-111287000D01*
X149387000Y-111287000D01*
X149387000Y-110763950D01*
X149224218Y-110769463D01*
X149043190Y-110912531D01*
X148893552Y-111088167D01*
X148869488Y-111124222D01*
X148872152Y-111286998D01*
X148717000Y-111286998D01*
X148717000Y-110260000D01*
X156286418Y-110260000D01*
X156288000Y-111205250D01*
X156369750Y-111287000D01*
X157642000Y-111287000D01*
X157642000Y-110014750D01*
X157560250Y-109933000D01*
X156615000Y-109931418D01*
X156550897Y-109937732D01*
X156489257Y-109956430D01*
X156432450Y-109986794D01*
X156382657Y-110027657D01*
X156341794Y-110077450D01*
X156311430Y-110134257D01*
X156292732Y-110195897D01*
X156286418Y-110260000D01*
X148717000Y-110260000D01*
X148717000Y-109693002D01*
X148872152Y-109693002D01*
X148869488Y-109855778D01*
X148893552Y-109891833D01*
X149043190Y-110067469D01*
X149224218Y-110210537D01*
X149387000Y-110216050D01*
X149387000Y-109693000D01*
X150333000Y-109693000D01*
X150333000Y-110216050D01*
X150495782Y-110210537D01*
X150676810Y-110067469D01*
X150826448Y-109891833D01*
X150850512Y-109855778D01*
X151409488Y-109855778D01*
X151433552Y-109891833D01*
X151583190Y-110067469D01*
X151764218Y-110210537D01*
X151927000Y-110216050D01*
X151927000Y-109693000D01*
X152873000Y-109693000D01*
X152873000Y-110216050D01*
X153035782Y-110210537D01*
X153216810Y-110067469D01*
X153366448Y-109891833D01*
X153390512Y-109855778D01*
X153387848Y-109693000D01*
X152873000Y-109693000D01*
X151927000Y-109693000D01*
X151412152Y-109693000D01*
X151409488Y-109855778D01*
X150850512Y-109855778D01*
X150847848Y-109693000D01*
X150333000Y-109693000D01*
X149387000Y-109693000D01*
X149367000Y-109693000D01*
X149367000Y-108815000D01*
X156286418Y-108815000D01*
X156292732Y-108879103D01*
X156311430Y-108940743D01*
X156341794Y-108997550D01*
X156382657Y-109047343D01*
X156432450Y-109088206D01*
X156489257Y-109118570D01*
X156550897Y-109137268D01*
X156615000Y-109143582D01*
X157560250Y-109142000D01*
X157642000Y-109060250D01*
X157642000Y-107788000D01*
X158588000Y-107788000D01*
X158588000Y-109060250D01*
X158669750Y-109142000D01*
X159615000Y-109143582D01*
X159679103Y-109137268D01*
X159740743Y-109118570D01*
X159797550Y-109088206D01*
X159847343Y-109047343D01*
X159888206Y-108997550D01*
X159918570Y-108940743D01*
X159937268Y-108879103D01*
X159943582Y-108815000D01*
X159942000Y-107869750D01*
X159860250Y-107788000D01*
X158588000Y-107788000D01*
X157642000Y-107788000D01*
X156369750Y-107788000D01*
X156288000Y-107869750D01*
X156286418Y-108815000D01*
X149367000Y-108815000D01*
X149367000Y-108747000D01*
X149387000Y-108747000D01*
X150333000Y-108747000D01*
X150847848Y-108747000D01*
X150850512Y-108584222D01*
X151409488Y-108584222D01*
X151412152Y-108747000D01*
X151927000Y-108747000D01*
X152873000Y-108747000D01*
X153387848Y-108747000D01*
X153390512Y-108584222D01*
X153366448Y-108548167D01*
X153216810Y-108372531D01*
X153035782Y-108229463D01*
X152873000Y-108223950D01*
X152873000Y-108747000D01*
X151927000Y-108747000D01*
X151927000Y-108223950D01*
X151764218Y-108229463D01*
X151583190Y-108372531D01*
X151433552Y-108548167D01*
X151409488Y-108584222D01*
X150850512Y-108584222D01*
X150826448Y-108548167D01*
X150676810Y-108372531D01*
X150495782Y-108229463D01*
X150333000Y-108223950D01*
X150333000Y-108747000D01*
X149387000Y-108747000D01*
X149387000Y-108223950D01*
X149224218Y-108229463D01*
X149043190Y-108372531D01*
X148893552Y-108548167D01*
X148869488Y-108584222D01*
X148872152Y-108746998D01*
X148717000Y-108746998D01*
X148717000Y-107153002D01*
X148872152Y-107153002D01*
X148869488Y-107315778D01*
X148893552Y-107351833D01*
X149043190Y-107527469D01*
X149224218Y-107670537D01*
X149387000Y-107676050D01*
X149387000Y-107153000D01*
X150333000Y-107153000D01*
X150333000Y-107676050D01*
X150495782Y-107670537D01*
X150676810Y-107527469D01*
X150826448Y-107351833D01*
X150850512Y-107315778D01*
X151409488Y-107315778D01*
X151433552Y-107351833D01*
X151583190Y-107527469D01*
X151764218Y-107670537D01*
X151927000Y-107676050D01*
X151927000Y-107153000D01*
X152873000Y-107153000D01*
X152873000Y-107676050D01*
X153035782Y-107670537D01*
X153216810Y-107527469D01*
X153366448Y-107351833D01*
X153390512Y-107315778D01*
X153387848Y-107153000D01*
X152873000Y-107153000D01*
X151927000Y-107153000D01*
X151412152Y-107153000D01*
X151409488Y-107315778D01*
X150850512Y-107315778D01*
X150847848Y-107153000D01*
X150333000Y-107153000D01*
X149387000Y-107153000D01*
X149367000Y-107153000D01*
X149367000Y-106207000D01*
X149387000Y-106207000D01*
X150333000Y-106207000D01*
X150847848Y-106207000D01*
X150850512Y-106044222D01*
X151409488Y-106044222D01*
X151412152Y-106207000D01*
X151927000Y-106207000D01*
X152873000Y-106207000D01*
X153387848Y-106207000D01*
X153390512Y-106044222D01*
X153366448Y-106008167D01*
X153216810Y-105832531D01*
X153194628Y-105815000D01*
X156286418Y-105815000D01*
X156288000Y-106760250D01*
X156369750Y-106842000D01*
X157642000Y-106842000D01*
X157642000Y-105569750D01*
X158588000Y-105569750D01*
X158588000Y-106842000D01*
X159860250Y-106842000D01*
X159942000Y-106760250D01*
X159943582Y-105815000D01*
X159937268Y-105750897D01*
X159918570Y-105689257D01*
X159888206Y-105632450D01*
X159847343Y-105582657D01*
X159797550Y-105541794D01*
X159740743Y-105511430D01*
X159679103Y-105492732D01*
X159615000Y-105486418D01*
X158669750Y-105488000D01*
X158588000Y-105569750D01*
X157642000Y-105569750D01*
X157560250Y-105488000D01*
X156615000Y-105486418D01*
X156550897Y-105492732D01*
X156489257Y-105511430D01*
X156432450Y-105541794D01*
X156382657Y-105582657D01*
X156341794Y-105632450D01*
X156311430Y-105689257D01*
X156292732Y-105750897D01*
X156286418Y-105815000D01*
X153194628Y-105815000D01*
X153035782Y-105689463D01*
X152873000Y-105683950D01*
X152873000Y-106207000D01*
X151927000Y-106207000D01*
X151927000Y-105683950D01*
X151764218Y-105689463D01*
X151583190Y-105832531D01*
X151433552Y-106008167D01*
X151409488Y-106044222D01*
X150850512Y-106044222D01*
X150826448Y-106008167D01*
X150676810Y-105832531D01*
X150495782Y-105689463D01*
X150333000Y-105683950D01*
X150333000Y-106207000D01*
X149387000Y-106207000D01*
X149387000Y-105683950D01*
X149224218Y-105689463D01*
X149043190Y-105832531D01*
X148893552Y-106008167D01*
X148869488Y-106044222D01*
X148872152Y-106206998D01*
X148717000Y-106206998D01*
X148717000Y-104613002D01*
X148872152Y-104613002D01*
X148869488Y-104775778D01*
X148893552Y-104811833D01*
X149043190Y-104987469D01*
X149224218Y-105130537D01*
X149387000Y-105136050D01*
X149387000Y-104613000D01*
X150333000Y-104613000D01*
X150333000Y-105136050D01*
X150495782Y-105130537D01*
X150676810Y-104987469D01*
X150826448Y-104811833D01*
X150850512Y-104775778D01*
X151409488Y-104775778D01*
X151433552Y-104811833D01*
X151583190Y-104987469D01*
X151764218Y-105130537D01*
X151927000Y-105136050D01*
X151927000Y-104613000D01*
X152873000Y-104613000D01*
X152873000Y-105136050D01*
X153035782Y-105130537D01*
X153216810Y-104987469D01*
X153366448Y-104811833D01*
X153390512Y-104775778D01*
X153387848Y-104613000D01*
X152873000Y-104613000D01*
X151927000Y-104613000D01*
X151412152Y-104613000D01*
X151409488Y-104775778D01*
X150850512Y-104775778D01*
X150847848Y-104613000D01*
X150333000Y-104613000D01*
X149387000Y-104613000D01*
X149367000Y-104613000D01*
X149367000Y-103667000D01*
X149387000Y-103667000D01*
X150333000Y-103667000D01*
X150847848Y-103667000D01*
X150850512Y-103504222D01*
X151409488Y-103504222D01*
X151412152Y-103667000D01*
X151927000Y-103667000D01*
X152873000Y-103667000D01*
X153387848Y-103667000D01*
X153390512Y-103504222D01*
X153366448Y-103468167D01*
X153216810Y-103292531D01*
X153035782Y-103149463D01*
X152873000Y-103143950D01*
X152873000Y-103667000D01*
X151927000Y-103667000D01*
X151927000Y-103143950D01*
X151764218Y-103149463D01*
X151583190Y-103292531D01*
X151433552Y-103468167D01*
X151409488Y-103504222D01*
X150850512Y-103504222D01*
X150826448Y-103468167D01*
X150676810Y-103292531D01*
X150495782Y-103149463D01*
X150333000Y-103143950D01*
X150333000Y-103667000D01*
X149387000Y-103667000D01*
X149387000Y-103143950D01*
X149224218Y-103149463D01*
X149043190Y-103292531D01*
X148893552Y-103468167D01*
X148869488Y-103504222D01*
X148872152Y-103666998D01*
X148717000Y-103666998D01*
X148717000Y-102073002D01*
X148872152Y-102073002D01*
X148869488Y-102235778D01*
X148893552Y-102271833D01*
X149043190Y-102447469D01*
X149224218Y-102590537D01*
X149387000Y-102596050D01*
X149387000Y-102073000D01*
X150333000Y-102073000D01*
X150333000Y-102596050D01*
X150495782Y-102590537D01*
X150676810Y-102447469D01*
X150826448Y-102271833D01*
X150850512Y-102235778D01*
X151409488Y-102235778D01*
X151433552Y-102271833D01*
X151583190Y-102447469D01*
X151764218Y-102590537D01*
X151927000Y-102596050D01*
X151927000Y-102073000D01*
X152873000Y-102073000D01*
X152873000Y-102596050D01*
X153035782Y-102590537D01*
X153216810Y-102447469D01*
X153366448Y-102271833D01*
X153390512Y-102235778D01*
X153387848Y-102073000D01*
X152873000Y-102073000D01*
X151927000Y-102073000D01*
X151412152Y-102073000D01*
X151409488Y-102235778D01*
X150850512Y-102235778D01*
X150847848Y-102073000D01*
X150333000Y-102073000D01*
X149387000Y-102073000D01*
X149367000Y-102073000D01*
X149367000Y-101127000D01*
X149387000Y-101127000D01*
X150333000Y-101127000D01*
X150847848Y-101127000D01*
X150850512Y-100964222D01*
X151409488Y-100964222D01*
X151412152Y-101127000D01*
X151927000Y-101127000D01*
X152873000Y-101127000D01*
X153387848Y-101127000D01*
X153390512Y-100964222D01*
X153366448Y-100928167D01*
X153216810Y-100752531D01*
X153035782Y-100609463D01*
X152873000Y-100603950D01*
X152873000Y-101127000D01*
X151927000Y-101127000D01*
X151927000Y-100603950D01*
X151764218Y-100609463D01*
X151583190Y-100752531D01*
X151433552Y-100928167D01*
X151409488Y-100964222D01*
X150850512Y-100964222D01*
X150826448Y-100928167D01*
X150676810Y-100752531D01*
X150495782Y-100609463D01*
X150333000Y-100603950D01*
X150333000Y-101127000D01*
X149387000Y-101127000D01*
X149387000Y-100603950D01*
X149224218Y-100609463D01*
X149043190Y-100752531D01*
X148893552Y-100928167D01*
X148869488Y-100964222D01*
X148872152Y-101126998D01*
X148717000Y-101126998D01*
X148717000Y-99533002D01*
X148872152Y-99533002D01*
X148869488Y-99695778D01*
X148893552Y-99731833D01*
X149043190Y-99907469D01*
X149224218Y-100050537D01*
X149387000Y-100056050D01*
X149387000Y-99533000D01*
X150333000Y-99533000D01*
X150333000Y-100056050D01*
X150495782Y-100050537D01*
X150676810Y-99907469D01*
X150826448Y-99731833D01*
X150850512Y-99695778D01*
X151409488Y-99695778D01*
X151433552Y-99731833D01*
X151583190Y-99907469D01*
X151764218Y-100050537D01*
X151927000Y-100056050D01*
X151927000Y-99533000D01*
X152873000Y-99533000D01*
X152873000Y-100056050D01*
X153035782Y-100050537D01*
X153216810Y-99907469D01*
X153366448Y-99731833D01*
X153390512Y-99695778D01*
X153387848Y-99533000D01*
X152873000Y-99533000D01*
X151927000Y-99533000D01*
X151412152Y-99533000D01*
X151409488Y-99695778D01*
X150850512Y-99695778D01*
X150847848Y-99533000D01*
X150333000Y-99533000D01*
X149387000Y-99533000D01*
X149367000Y-99533000D01*
X149367000Y-98587000D01*
X149387000Y-98587000D01*
X150333000Y-98587000D01*
X150847848Y-98587000D01*
X150850512Y-98424222D01*
X151409488Y-98424222D01*
X151412152Y-98587000D01*
X151927000Y-98587000D01*
X152873000Y-98587000D01*
X153387848Y-98587000D01*
X153390512Y-98424222D01*
X153366448Y-98388167D01*
X153216810Y-98212531D01*
X153035782Y-98069463D01*
X152873000Y-98063950D01*
X152873000Y-98587000D01*
X151927000Y-98587000D01*
X151927000Y-98063950D01*
X151764218Y-98069463D01*
X151583190Y-98212531D01*
X151433552Y-98388167D01*
X151409488Y-98424222D01*
X150850512Y-98424222D01*
X150826448Y-98388167D01*
X150676810Y-98212531D01*
X150495782Y-98069463D01*
X150333000Y-98063950D01*
X150333000Y-98587000D01*
X149387000Y-98587000D01*
X149387000Y-98063950D01*
X149224218Y-98069463D01*
X149043190Y-98212531D01*
X148893552Y-98388167D01*
X148869488Y-98424222D01*
X148872152Y-98586998D01*
X148717000Y-98586998D01*
X148717000Y-96993002D01*
X148872152Y-96993002D01*
X148869488Y-97155778D01*
X148893552Y-97191833D01*
X149043190Y-97367469D01*
X149224218Y-97510537D01*
X149387000Y-97516050D01*
X149387000Y-96993000D01*
X150333000Y-96993000D01*
X150333000Y-97516050D01*
X150495782Y-97510537D01*
X150676810Y-97367469D01*
X150826448Y-97191833D01*
X150850512Y-97155778D01*
X151409488Y-97155778D01*
X151433552Y-97191833D01*
X151583190Y-97367469D01*
X151764218Y-97510537D01*
X151927000Y-97516050D01*
X151927000Y-96993000D01*
X152873000Y-96993000D01*
X152873000Y-97516050D01*
X153035782Y-97510537D01*
X153216810Y-97367469D01*
X153366448Y-97191833D01*
X153390512Y-97155778D01*
X153387848Y-96993000D01*
X152873000Y-96993000D01*
X151927000Y-96993000D01*
X151412152Y-96993000D01*
X151409488Y-97155778D01*
X150850512Y-97155778D01*
X150847848Y-96993000D01*
X150333000Y-96993000D01*
X149387000Y-96993000D01*
X149367000Y-96993000D01*
X149367000Y-96047000D01*
X149387000Y-96047000D01*
X150333000Y-96047000D01*
X150847848Y-96047000D01*
X150850512Y-95884222D01*
X151409488Y-95884222D01*
X151412152Y-96047000D01*
X151927000Y-96047000D01*
X152873000Y-96047000D01*
X153387848Y-96047000D01*
X153390512Y-95884222D01*
X153366448Y-95848167D01*
X153216810Y-95672531D01*
X153035782Y-95529463D01*
X152873000Y-95523950D01*
X152873000Y-96047000D01*
X151927000Y-96047000D01*
X151927000Y-95523950D01*
X151764218Y-95529463D01*
X151583190Y-95672531D01*
X151433552Y-95848167D01*
X151409488Y-95884222D01*
X150850512Y-95884222D01*
X150826448Y-95848167D01*
X150676810Y-95672531D01*
X150495782Y-95529463D01*
X150333000Y-95523950D01*
X150333000Y-96047000D01*
X149387000Y-96047000D01*
X149387000Y-95523950D01*
X149224218Y-95529463D01*
X149043190Y-95672531D01*
X148893552Y-95848167D01*
X148869488Y-95884222D01*
X148872152Y-96046998D01*
X148717000Y-96046998D01*
X148717000Y-94453002D01*
X148872152Y-94453002D01*
X148869488Y-94615778D01*
X148893552Y-94651833D01*
X149043190Y-94827469D01*
X149224218Y-94970537D01*
X149387000Y-94976050D01*
X149387000Y-94453000D01*
X150333000Y-94453000D01*
X150333000Y-94976050D01*
X150495782Y-94970537D01*
X150676810Y-94827469D01*
X150826448Y-94651833D01*
X150850512Y-94615778D01*
X151409488Y-94615778D01*
X151433552Y-94651833D01*
X151583190Y-94827469D01*
X151764218Y-94970537D01*
X151927000Y-94976050D01*
X151927000Y-94453000D01*
X152873000Y-94453000D01*
X152873000Y-94976050D01*
X153035782Y-94970537D01*
X153216810Y-94827469D01*
X153366448Y-94651833D01*
X153390512Y-94615778D01*
X153387848Y-94453000D01*
X152873000Y-94453000D01*
X151927000Y-94453000D01*
X151412152Y-94453000D01*
X151409488Y-94615778D01*
X150850512Y-94615778D01*
X150847848Y-94453000D01*
X150333000Y-94453000D01*
X149387000Y-94453000D01*
X149367000Y-94453000D01*
X149367000Y-93507000D01*
X149387000Y-93507000D01*
X150333000Y-93507000D01*
X150847848Y-93507000D01*
X150850512Y-93344222D01*
X151409488Y-93344222D01*
X151412152Y-93507000D01*
X151927000Y-93507000D01*
X152873000Y-93507000D01*
X153387848Y-93507000D01*
X153390512Y-93344222D01*
X153366448Y-93308167D01*
X153216810Y-93132531D01*
X153035782Y-92989463D01*
X152873000Y-92983950D01*
X152873000Y-93507000D01*
X151927000Y-93507000D01*
X151927000Y-92983950D01*
X151764218Y-92989463D01*
X151583190Y-93132531D01*
X151433552Y-93308167D01*
X151409488Y-93344222D01*
X150850512Y-93344222D01*
X150826448Y-93308167D01*
X150676810Y-93132531D01*
X150495782Y-92989463D01*
X150333000Y-92983950D01*
X150333000Y-93507000D01*
X149387000Y-93507000D01*
X149387000Y-92983950D01*
X149224218Y-92989463D01*
X149043190Y-93132531D01*
X148893552Y-93308167D01*
X148869488Y-93344222D01*
X148872152Y-93506998D01*
X148717000Y-93506998D01*
X148717000Y-91913002D01*
X148872152Y-91913002D01*
X148869488Y-92075778D01*
X148893552Y-92111833D01*
X149043190Y-92287469D01*
X149224218Y-92430537D01*
X149387000Y-92436050D01*
X149387000Y-91913000D01*
X150333000Y-91913000D01*
X150333000Y-92436050D01*
X150495782Y-92430537D01*
X150676810Y-92287469D01*
X150826448Y-92111833D01*
X150850512Y-92075778D01*
X151409488Y-92075778D01*
X151433552Y-92111833D01*
X151583190Y-92287469D01*
X151764218Y-92430537D01*
X151927000Y-92436050D01*
X151927000Y-91913000D01*
X152873000Y-91913000D01*
X152873000Y-92436050D01*
X153035782Y-92430537D01*
X153216810Y-92287469D01*
X153366448Y-92111833D01*
X153390512Y-92075778D01*
X153387848Y-91913000D01*
X152873000Y-91913000D01*
X151927000Y-91913000D01*
X151412152Y-91913000D01*
X151409488Y-92075778D01*
X150850512Y-92075778D01*
X150847848Y-91913000D01*
X150333000Y-91913000D01*
X149387000Y-91913000D01*
X149367000Y-91913000D01*
X149367000Y-90967000D01*
X149387000Y-90967000D01*
X150333000Y-90967000D01*
X150847848Y-90967000D01*
X150850512Y-90804222D01*
X151409488Y-90804222D01*
X151412152Y-90967000D01*
X151927000Y-90967000D01*
X152873000Y-90967000D01*
X153387848Y-90967000D01*
X153390512Y-90804222D01*
X153366448Y-90768167D01*
X153216810Y-90592531D01*
X153035782Y-90449463D01*
X152873000Y-90443950D01*
X152873000Y-90967000D01*
X151927000Y-90967000D01*
X151927000Y-90443950D01*
X151764218Y-90449463D01*
X151583190Y-90592531D01*
X151433552Y-90768167D01*
X151409488Y-90804222D01*
X150850512Y-90804222D01*
X150826448Y-90768167D01*
X150676810Y-90592531D01*
X150495782Y-90449463D01*
X150333000Y-90443950D01*
X150333000Y-90967000D01*
X149387000Y-90967000D01*
X149387000Y-90443950D01*
X149224218Y-90449463D01*
X149043190Y-90592531D01*
X148893552Y-90768167D01*
X148869488Y-90804222D01*
X148872152Y-90966998D01*
X148717000Y-90966998D01*
X148717000Y-89373002D01*
X148872152Y-89373002D01*
X148869488Y-89535778D01*
X148893552Y-89571833D01*
X149043190Y-89747469D01*
X149224218Y-89890537D01*
X149387000Y-89896050D01*
X149387000Y-89373000D01*
X150333000Y-89373000D01*
X150333000Y-89896050D01*
X150495782Y-89890537D01*
X150676810Y-89747469D01*
X150826448Y-89571833D01*
X150850512Y-89535778D01*
X151409488Y-89535778D01*
X151433552Y-89571833D01*
X151583190Y-89747469D01*
X151764218Y-89890537D01*
X151927000Y-89896050D01*
X151927000Y-89373000D01*
X152873000Y-89373000D01*
X152873000Y-89896050D01*
X153035782Y-89890537D01*
X153216810Y-89747469D01*
X153366448Y-89571833D01*
X153390512Y-89535778D01*
X153387848Y-89373000D01*
X152873000Y-89373000D01*
X151927000Y-89373000D01*
X151412152Y-89373000D01*
X151409488Y-89535778D01*
X150850512Y-89535778D01*
X150847848Y-89373000D01*
X150333000Y-89373000D01*
X149387000Y-89373000D01*
X149367000Y-89373000D01*
X149367000Y-88427000D01*
X149387000Y-88427000D01*
X150333000Y-88427000D01*
X150847848Y-88427000D01*
X150850512Y-88264222D01*
X151409488Y-88264222D01*
X151412152Y-88427000D01*
X151927000Y-88427000D01*
X152873000Y-88427000D01*
X153387848Y-88427000D01*
X153390512Y-88264222D01*
X153366448Y-88228167D01*
X153216810Y-88052531D01*
X153035782Y-87909463D01*
X152873000Y-87903950D01*
X152873000Y-88427000D01*
X151927000Y-88427000D01*
X151927000Y-87903950D01*
X151764218Y-87909463D01*
X151583190Y-88052531D01*
X151433552Y-88228167D01*
X151409488Y-88264222D01*
X150850512Y-88264222D01*
X150826448Y-88228167D01*
X150676810Y-88052531D01*
X150495782Y-87909463D01*
X150333000Y-87903950D01*
X150333000Y-88427000D01*
X149387000Y-88427000D01*
X149387000Y-87903950D01*
X149224218Y-87909463D01*
X149043190Y-88052531D01*
X148893552Y-88228167D01*
X148869488Y-88264222D01*
X148872152Y-88426998D01*
X148717000Y-88426998D01*
X148717000Y-86833002D01*
X148872152Y-86833002D01*
X148869488Y-86995778D01*
X148893552Y-87031833D01*
X149043190Y-87207469D01*
X149224218Y-87350537D01*
X149387000Y-87356050D01*
X149387000Y-86833000D01*
X150333000Y-86833000D01*
X150333000Y-87356050D01*
X150495782Y-87350537D01*
X150676810Y-87207469D01*
X150826448Y-87031833D01*
X150850512Y-86995778D01*
X151409488Y-86995778D01*
X151433552Y-87031833D01*
X151583190Y-87207469D01*
X151764218Y-87350537D01*
X151927000Y-87356050D01*
X151927000Y-86833000D01*
X152873000Y-86833000D01*
X152873000Y-87356050D01*
X153035782Y-87350537D01*
X153216810Y-87207469D01*
X153366448Y-87031833D01*
X153390512Y-86995778D01*
X153387848Y-86833000D01*
X152873000Y-86833000D01*
X151927000Y-86833000D01*
X151412152Y-86833000D01*
X151409488Y-86995778D01*
X150850512Y-86995778D01*
X150847848Y-86833000D01*
X150333000Y-86833000D01*
X149387000Y-86833000D01*
X149367000Y-86833000D01*
X149367000Y-85887000D01*
X149387000Y-85887000D01*
X150333000Y-85887000D01*
X150847848Y-85887000D01*
X150850512Y-85724222D01*
X151409488Y-85724222D01*
X151412152Y-85887000D01*
X151927000Y-85887000D01*
X152873000Y-85887000D01*
X153387848Y-85887000D01*
X153390512Y-85724222D01*
X153366448Y-85688167D01*
X153216810Y-85512531D01*
X153035782Y-85369463D01*
X152873000Y-85363950D01*
X152873000Y-85887000D01*
X151927000Y-85887000D01*
X151927000Y-85363950D01*
X151764218Y-85369463D01*
X151583190Y-85512531D01*
X151433552Y-85688167D01*
X151409488Y-85724222D01*
X150850512Y-85724222D01*
X150826448Y-85688167D01*
X150676810Y-85512531D01*
X150495782Y-85369463D01*
X150333000Y-85363950D01*
X150333000Y-85887000D01*
X149387000Y-85887000D01*
X149387000Y-85363950D01*
X149224218Y-85369463D01*
X149043190Y-85512531D01*
X148893552Y-85688167D01*
X148869488Y-85724222D01*
X148872152Y-85886998D01*
X148717000Y-85886998D01*
X148717000Y-84293002D01*
X148872152Y-84293002D01*
X148869488Y-84455778D01*
X148893552Y-84491833D01*
X149043190Y-84667469D01*
X149224218Y-84810537D01*
X149387000Y-84816050D01*
X149387000Y-84293000D01*
X150333000Y-84293000D01*
X150333000Y-84816050D01*
X150495782Y-84810537D01*
X150676810Y-84667469D01*
X150826448Y-84491833D01*
X150850512Y-84455778D01*
X151409488Y-84455778D01*
X151433552Y-84491833D01*
X151583190Y-84667469D01*
X151764218Y-84810537D01*
X151927000Y-84816050D01*
X151927000Y-84293000D01*
X152873000Y-84293000D01*
X152873000Y-84816050D01*
X153035782Y-84810537D01*
X153216810Y-84667469D01*
X153366448Y-84491833D01*
X153390512Y-84455778D01*
X153387848Y-84293000D01*
X152873000Y-84293000D01*
X151927000Y-84293000D01*
X151412152Y-84293000D01*
X151409488Y-84455778D01*
X150850512Y-84455778D01*
X150847848Y-84293000D01*
X150333000Y-84293000D01*
X149387000Y-84293000D01*
X149367000Y-84293000D01*
X149367000Y-83347000D01*
X149387000Y-83347000D01*
X150333000Y-83347000D01*
X150847848Y-83347000D01*
X150850512Y-83184222D01*
X151409488Y-83184222D01*
X151412152Y-83347000D01*
X151927000Y-83347000D01*
X152873000Y-83347000D01*
X153387848Y-83347000D01*
X153390512Y-83184222D01*
X153366448Y-83148167D01*
X153216810Y-82972531D01*
X153035782Y-82829463D01*
X152873000Y-82823950D01*
X152873000Y-83347000D01*
X151927000Y-83347000D01*
X151927000Y-82823950D01*
X151764218Y-82829463D01*
X151583190Y-82972531D01*
X151433552Y-83148167D01*
X151409488Y-83184222D01*
X150850512Y-83184222D01*
X150826448Y-83148167D01*
X150676810Y-82972531D01*
X150495782Y-82829463D01*
X150333000Y-82823950D01*
X150333000Y-83347000D01*
X149387000Y-83347000D01*
X149387000Y-82823950D01*
X149224218Y-82829463D01*
X149043190Y-82972531D01*
X148893552Y-83148167D01*
X148869488Y-83184222D01*
X148872152Y-83346998D01*
X148717000Y-83346998D01*
X148717000Y-81753002D01*
X148872152Y-81753002D01*
X148869488Y-81915778D01*
X148893552Y-81951833D01*
X149043190Y-82127469D01*
X149224218Y-82270537D01*
X149387000Y-82276050D01*
X149387000Y-81753000D01*
X150333000Y-81753000D01*
X150333000Y-82276050D01*
X150495782Y-82270537D01*
X150676810Y-82127469D01*
X150826448Y-81951833D01*
X150850512Y-81915778D01*
X151409488Y-81915778D01*
X151433552Y-81951833D01*
X151583190Y-82127469D01*
X151764218Y-82270537D01*
X151927000Y-82276050D01*
X151927000Y-81753000D01*
X152873000Y-81753000D01*
X152873000Y-82276050D01*
X153035782Y-82270537D01*
X153216810Y-82127469D01*
X153366448Y-81951833D01*
X153390512Y-81915778D01*
X153387848Y-81753000D01*
X152873000Y-81753000D01*
X151927000Y-81753000D01*
X151412152Y-81753000D01*
X151409488Y-81915778D01*
X150850512Y-81915778D01*
X150847848Y-81753000D01*
X150333000Y-81753000D01*
X149387000Y-81753000D01*
X149367000Y-81753000D01*
X149367000Y-80807000D01*
X149387000Y-80807000D01*
X150333000Y-80807000D01*
X150847848Y-80807000D01*
X150850512Y-80644222D01*
X151409488Y-80644222D01*
X151412152Y-80807000D01*
X151927000Y-80807000D01*
X152873000Y-80807000D01*
X153387848Y-80807000D01*
X153390512Y-80644222D01*
X153366448Y-80608167D01*
X153216810Y-80432531D01*
X153035782Y-80289463D01*
X152873000Y-80283950D01*
X152873000Y-80807000D01*
X151927000Y-80807000D01*
X151927000Y-80283950D01*
X151764218Y-80289463D01*
X151583190Y-80432531D01*
X151433552Y-80608167D01*
X151409488Y-80644222D01*
X150850512Y-80644222D01*
X150826448Y-80608167D01*
X150676810Y-80432531D01*
X150495782Y-80289463D01*
X150333000Y-80283950D01*
X150333000Y-80807000D01*
X149387000Y-80807000D01*
X149387000Y-80283950D01*
X149224218Y-80289463D01*
X149043190Y-80432531D01*
X148893552Y-80608167D01*
X148869488Y-80644222D01*
X148872152Y-80806998D01*
X148717000Y-80806998D01*
X148717000Y-79213002D01*
X148872152Y-79213002D01*
X148869488Y-79375778D01*
X148893552Y-79411833D01*
X149043190Y-79587469D01*
X149224218Y-79730537D01*
X149387000Y-79736050D01*
X149387000Y-79213000D01*
X150333000Y-79213000D01*
X150333000Y-79736050D01*
X150495782Y-79730537D01*
X150676810Y-79587469D01*
X150826448Y-79411833D01*
X150850512Y-79375778D01*
X151409488Y-79375778D01*
X151433552Y-79411833D01*
X151583190Y-79587469D01*
X151764218Y-79730537D01*
X151927000Y-79736050D01*
X151927000Y-79213000D01*
X152873000Y-79213000D01*
X152873000Y-79736050D01*
X153035782Y-79730537D01*
X153216810Y-79587469D01*
X153366448Y-79411833D01*
X153390512Y-79375778D01*
X153387848Y-79213000D01*
X152873000Y-79213000D01*
X151927000Y-79213000D01*
X151412152Y-79213000D01*
X151409488Y-79375778D01*
X150850512Y-79375778D01*
X150847848Y-79213000D01*
X150333000Y-79213000D01*
X149387000Y-79213000D01*
X149367000Y-79213000D01*
X149367000Y-78267000D01*
X149387000Y-78267000D01*
X150333000Y-78267000D01*
X150847848Y-78267000D01*
X150850512Y-78104222D01*
X151409488Y-78104222D01*
X151412152Y-78267000D01*
X151927000Y-78267000D01*
X152873000Y-78267000D01*
X153387848Y-78267000D01*
X153390512Y-78104222D01*
X153366448Y-78068167D01*
X153216810Y-77892531D01*
X153035782Y-77749463D01*
X152873000Y-77743950D01*
X152873000Y-78267000D01*
X151927000Y-78267000D01*
X151927000Y-77743950D01*
X151764218Y-77749463D01*
X151583190Y-77892531D01*
X151433552Y-78068167D01*
X151409488Y-78104222D01*
X150850512Y-78104222D01*
X150826448Y-78068167D01*
X150676810Y-77892531D01*
X150495782Y-77749463D01*
X150333000Y-77743950D01*
X150333000Y-78267000D01*
X149387000Y-78267000D01*
X149387000Y-77743950D01*
X149224218Y-77749463D01*
X149043190Y-77892531D01*
X148893552Y-78068167D01*
X148869488Y-78104222D01*
X148872152Y-78266998D01*
X148717000Y-78266998D01*
X148717000Y-77195518D01*
X148736794Y-77232550D01*
X148777657Y-77282343D01*
X148827450Y-77323206D01*
X148884257Y-77353570D01*
X148945897Y-77372268D01*
X149010000Y-77378582D01*
X149305250Y-77377000D01*
X149387000Y-77295250D01*
X149387000Y-76673000D01*
X150333000Y-76673000D01*
X150333000Y-77295250D01*
X150414750Y-77377000D01*
X150710000Y-77378582D01*
X150774103Y-77372268D01*
X150835743Y-77353570D01*
X150892550Y-77323206D01*
X150942343Y-77282343D01*
X150983206Y-77232550D01*
X151013570Y-77175743D01*
X151032268Y-77114103D01*
X151038582Y-77050000D01*
X151037435Y-76835778D01*
X151409488Y-76835778D01*
X151433552Y-76871833D01*
X151583190Y-77047469D01*
X151764218Y-77190537D01*
X151927000Y-77196050D01*
X151927000Y-76673000D01*
X152873000Y-76673000D01*
X152873000Y-77196050D01*
X153035782Y-77190537D01*
X153216810Y-77047469D01*
X153366448Y-76871833D01*
X153390512Y-76835778D01*
X153387848Y-76673000D01*
X152873000Y-76673000D01*
X151927000Y-76673000D01*
X151412152Y-76673000D01*
X151409488Y-76835778D01*
X151037435Y-76835778D01*
X151037000Y-76754750D01*
X150955250Y-76673000D01*
X150333000Y-76673000D01*
X149387000Y-76673000D01*
X149367000Y-76673000D01*
X149367000Y-75727000D01*
X149387000Y-75727000D01*
X149387000Y-75707000D01*
X150333000Y-75707000D01*
X150333000Y-75727000D01*
X150955250Y-75727000D01*
X151037000Y-75645250D01*
X151038582Y-75350000D01*
X151032268Y-75285897D01*
X151013570Y-75224257D01*
X150983206Y-75167450D01*
X150942343Y-75117657D01*
X150892550Y-75076794D01*
X150855518Y-75057000D01*
X151926998Y-75057000D01*
X151926998Y-75203950D01*
G37*
%TD.AperFunction*%
%TD*%
D26*
%TO.N,GND_VA*%
X124697450Y-75076794D02*
X124647657Y-75117657D01*
X124606794Y-75167450D01*
X124576430Y-75224257D01*
X124557732Y-75285897D01*
X124551418Y-75350000D01*
X124553000Y-75645250D01*
X124634750Y-75727000D01*
X125257000Y-75727000D01*
X125257000Y-75707000D01*
X126203000Y-75707000D01*
X126203000Y-75727000D01*
X126825250Y-75727000D01*
X126907000Y-75645250D01*
X126908582Y-75350000D01*
X126902268Y-75285897D01*
X126883570Y-75224257D01*
X126853206Y-75167450D01*
X126812343Y-75117657D01*
X126762550Y-75076794D01*
X126725518Y-75057000D01*
X127796998Y-75057000D01*
X127796998Y-75203950D01*
X127634218Y-75209463D01*
X127453190Y-75352531D01*
X127303552Y-75528167D01*
X127279488Y-75564222D01*
X127282152Y-75727000D01*
X127797000Y-75727000D01*
X127797000Y-75707000D01*
X128743000Y-75707000D01*
X128743000Y-75727000D01*
X128763000Y-75727000D01*
X128763000Y-76673000D01*
X128743000Y-76673000D01*
X128743000Y-77196050D01*
X128905782Y-77190537D01*
X129086810Y-77047469D01*
X129236448Y-76871833D01*
X129260512Y-76835778D01*
X129257848Y-76673002D01*
X129413000Y-76673002D01*
X129413000Y-78266998D01*
X129257848Y-78266998D01*
X129260512Y-78104222D01*
X129236448Y-78068167D01*
X129086810Y-77892531D01*
X128905782Y-77749463D01*
X128743000Y-77743950D01*
X128743000Y-78267000D01*
X128763000Y-78267000D01*
X128763000Y-79213000D01*
X128743000Y-79213000D01*
X128743000Y-79736050D01*
X128905782Y-79730537D01*
X129086810Y-79587469D01*
X129236448Y-79411833D01*
X129260512Y-79375778D01*
X129257848Y-79213002D01*
X129413000Y-79213002D01*
X129413000Y-80806998D01*
X129257848Y-80806998D01*
X129260512Y-80644222D01*
X129236448Y-80608167D01*
X129086810Y-80432531D01*
X128905782Y-80289463D01*
X128743000Y-80283950D01*
X128743000Y-80807000D01*
X128763000Y-80807000D01*
X128763000Y-81753000D01*
X128743000Y-81753000D01*
X128743000Y-82276050D01*
X128905782Y-82270537D01*
X129086810Y-82127469D01*
X129236448Y-81951833D01*
X129260512Y-81915778D01*
X129257848Y-81753002D01*
X129413000Y-81753002D01*
X129413000Y-83346998D01*
X129257848Y-83346998D01*
X129260512Y-83184222D01*
X129236448Y-83148167D01*
X129086810Y-82972531D01*
X128905782Y-82829463D01*
X128743000Y-82823950D01*
X128743000Y-83347000D01*
X128763000Y-83347000D01*
X128763000Y-84293000D01*
X128743000Y-84293000D01*
X128743000Y-84816050D01*
X128905782Y-84810537D01*
X129086810Y-84667469D01*
X129236448Y-84491833D01*
X129260512Y-84455778D01*
X129257848Y-84293002D01*
X129413000Y-84293002D01*
X129413000Y-85886998D01*
X129257848Y-85886998D01*
X129260512Y-85724222D01*
X129236448Y-85688167D01*
X129086810Y-85512531D01*
X128905782Y-85369463D01*
X128743000Y-85363950D01*
X128743000Y-85887000D01*
X128763000Y-85887000D01*
X128763000Y-86833000D01*
X128743000Y-86833000D01*
X128743000Y-87356050D01*
X128905782Y-87350537D01*
X129086810Y-87207469D01*
X129236448Y-87031833D01*
X129260512Y-86995778D01*
X129257848Y-86833002D01*
X129413000Y-86833002D01*
X129413000Y-88426998D01*
X129257848Y-88426998D01*
X129260512Y-88264222D01*
X129236448Y-88228167D01*
X129086810Y-88052531D01*
X128905782Y-87909463D01*
X128743000Y-87903950D01*
X128743000Y-88427000D01*
X128763000Y-88427000D01*
X128763000Y-89373000D01*
X128743000Y-89373000D01*
X128743000Y-89896050D01*
X128905782Y-89890537D01*
X129086810Y-89747469D01*
X129236448Y-89571833D01*
X129260512Y-89535778D01*
X129257848Y-89373002D01*
X129413000Y-89373002D01*
X129413000Y-90966998D01*
X129257848Y-90966998D01*
X129260512Y-90804222D01*
X129236448Y-90768167D01*
X129086810Y-90592531D01*
X128905782Y-90449463D01*
X128743000Y-90443950D01*
X128743000Y-90967000D01*
X128763000Y-90967000D01*
X128763000Y-91913000D01*
X128743000Y-91913000D01*
X128743000Y-92436050D01*
X128905782Y-92430537D01*
X129086810Y-92287469D01*
X129236448Y-92111833D01*
X129260512Y-92075778D01*
X129257848Y-91913002D01*
X129413000Y-91913002D01*
X129413000Y-93506998D01*
X129257848Y-93506998D01*
X129260512Y-93344222D01*
X129236448Y-93308167D01*
X129086810Y-93132531D01*
X128905782Y-92989463D01*
X128743000Y-92983950D01*
X128743000Y-93507000D01*
X128763000Y-93507000D01*
X128763000Y-94453000D01*
X128743000Y-94453000D01*
X128743000Y-94976050D01*
X128905782Y-94970537D01*
X129086810Y-94827469D01*
X129236448Y-94651833D01*
X129260512Y-94615778D01*
X129257848Y-94453002D01*
X129413000Y-94453002D01*
X129413000Y-96046998D01*
X129257848Y-96046998D01*
X129260512Y-95884222D01*
X129236448Y-95848167D01*
X129086810Y-95672531D01*
X128905782Y-95529463D01*
X128743000Y-95523950D01*
X128743000Y-96047000D01*
X128763000Y-96047000D01*
X128763000Y-96993000D01*
X128743000Y-96993000D01*
X128743000Y-97516050D01*
X128905782Y-97510537D01*
X129086810Y-97367469D01*
X129236448Y-97191833D01*
X129260512Y-97155778D01*
X129257848Y-96993002D01*
X129413000Y-96993002D01*
X129413000Y-98586998D01*
X129257848Y-98586998D01*
X129260512Y-98424222D01*
X129236448Y-98388167D01*
X129086810Y-98212531D01*
X128905782Y-98069463D01*
X128743000Y-98063950D01*
X128743000Y-98587000D01*
X128763000Y-98587000D01*
X128763000Y-99533000D01*
X128743000Y-99533000D01*
X128743000Y-100056050D01*
X128905782Y-100050537D01*
X129086810Y-99907469D01*
X129236448Y-99731833D01*
X129260512Y-99695778D01*
X129257848Y-99533002D01*
X129413000Y-99533002D01*
X129413000Y-101126998D01*
X129257848Y-101126998D01*
X129260512Y-100964222D01*
X129236448Y-100928167D01*
X129086810Y-100752531D01*
X128905782Y-100609463D01*
X128743000Y-100603950D01*
X128743000Y-101127000D01*
X128763000Y-101127000D01*
X128763000Y-102073000D01*
X128743000Y-102073000D01*
X128743000Y-102596050D01*
X128905782Y-102590537D01*
X129086810Y-102447469D01*
X129236448Y-102271833D01*
X129260512Y-102235778D01*
X129257848Y-102073002D01*
X129413000Y-102073002D01*
X129413000Y-103666998D01*
X129257848Y-103666998D01*
X129260512Y-103504222D01*
X129236448Y-103468167D01*
X129086810Y-103292531D01*
X128905782Y-103149463D01*
X128743000Y-103143950D01*
X128743000Y-103667000D01*
X128763000Y-103667000D01*
X128763000Y-104613000D01*
X128743000Y-104613000D01*
X128743000Y-105136050D01*
X128905782Y-105130537D01*
X129086810Y-104987469D01*
X129236448Y-104811833D01*
X129260512Y-104775778D01*
X129257848Y-104613002D01*
X129413000Y-104613002D01*
X129413000Y-106206998D01*
X129257848Y-106206998D01*
X129260512Y-106044222D01*
X129236448Y-106008167D01*
X129086810Y-105832531D01*
X128905782Y-105689463D01*
X128743000Y-105683950D01*
X128743000Y-106207000D01*
X128763000Y-106207000D01*
X128763000Y-107153000D01*
X128743000Y-107153000D01*
X128743000Y-107676050D01*
X128905782Y-107670537D01*
X129086810Y-107527469D01*
X129236448Y-107351833D01*
X129260512Y-107315778D01*
X129257848Y-107153002D01*
X129413000Y-107153002D01*
X129413000Y-108746998D01*
X129257848Y-108746998D01*
X129260512Y-108584222D01*
X129236448Y-108548167D01*
X129086810Y-108372531D01*
X128905782Y-108229463D01*
X128743000Y-108223950D01*
X128743000Y-108747000D01*
X128763000Y-108747000D01*
X128763000Y-109693000D01*
X128743000Y-109693000D01*
X128743000Y-110216050D01*
X128905782Y-110210537D01*
X129086810Y-110067469D01*
X129236448Y-109891833D01*
X129260512Y-109855778D01*
X129257848Y-109693002D01*
X129413000Y-109693002D01*
X129413000Y-111286998D01*
X129257848Y-111286998D01*
X129260512Y-111124222D01*
X129236448Y-111088167D01*
X129086810Y-110912531D01*
X128905782Y-110769463D01*
X128743000Y-110763950D01*
X128743000Y-111287000D01*
X128763000Y-111287000D01*
X128763000Y-112233000D01*
X128743000Y-112233000D01*
X128743000Y-112253000D01*
X127797000Y-112253000D01*
X127797000Y-112233000D01*
X127282152Y-112233000D01*
X127279488Y-112395778D01*
X127303552Y-112431833D01*
X127453190Y-112607469D01*
X127634218Y-112750537D01*
X127796998Y-112756050D01*
X127796998Y-112903000D01*
X126203002Y-112903000D01*
X126203002Y-112756050D01*
X126365782Y-112750537D01*
X126546810Y-112607469D01*
X126696448Y-112431833D01*
X126720512Y-112395778D01*
X126717848Y-112233000D01*
X126203000Y-112233000D01*
X126203000Y-112253000D01*
X125257000Y-112253000D01*
X125257000Y-112233000D01*
X124742152Y-112233000D01*
X124739488Y-112395778D01*
X124763552Y-112431833D01*
X124913190Y-112607469D01*
X125094218Y-112750537D01*
X125256998Y-112756050D01*
X125256998Y-112903000D01*
X121688581Y-112903000D01*
X121697550Y-112898206D01*
X121747343Y-112857343D01*
X121788206Y-112807550D01*
X121818570Y-112750743D01*
X121837268Y-112689103D01*
X121843582Y-112625000D01*
X121842000Y-111679750D01*
X121760250Y-111598000D01*
X120488000Y-111598000D01*
X120488000Y-111618000D01*
X119542000Y-111618000D01*
X119542000Y-111598000D01*
X119522000Y-111598000D01*
X119522000Y-111124222D01*
X124739488Y-111124222D01*
X124742152Y-111287000D01*
X125257000Y-111287000D01*
X126203000Y-111287000D01*
X126717848Y-111287000D01*
X126720512Y-111124222D01*
X127279488Y-111124222D01*
X127282152Y-111287000D01*
X127797000Y-111287000D01*
X127797000Y-110763950D01*
X127634218Y-110769463D01*
X127453190Y-110912531D01*
X127303552Y-111088167D01*
X127279488Y-111124222D01*
X126720512Y-111124222D01*
X126696448Y-111088167D01*
X126546810Y-110912531D01*
X126365782Y-110769463D01*
X126203000Y-110763950D01*
X126203000Y-111287000D01*
X125257000Y-111287000D01*
X125257000Y-110763950D01*
X125094218Y-110769463D01*
X124913190Y-110912531D01*
X124763552Y-111088167D01*
X124739488Y-111124222D01*
X119522000Y-111124222D01*
X119522000Y-110652000D01*
X119542000Y-110652000D01*
X119542000Y-109379750D01*
X120488000Y-109379750D01*
X120488000Y-110652000D01*
X121760250Y-110652000D01*
X121842000Y-110570250D01*
X121843195Y-109855778D01*
X124739488Y-109855778D01*
X124763552Y-109891833D01*
X124913190Y-110067469D01*
X125094218Y-110210537D01*
X125257000Y-110216050D01*
X125257000Y-109693000D01*
X126203000Y-109693000D01*
X126203000Y-110216050D01*
X126365782Y-110210537D01*
X126546810Y-110067469D01*
X126696448Y-109891833D01*
X126720512Y-109855778D01*
X127279488Y-109855778D01*
X127303552Y-109891833D01*
X127453190Y-110067469D01*
X127634218Y-110210537D01*
X127797000Y-110216050D01*
X127797000Y-109693000D01*
X127282152Y-109693000D01*
X127279488Y-109855778D01*
X126720512Y-109855778D01*
X126717848Y-109693000D01*
X126203000Y-109693000D01*
X125257000Y-109693000D01*
X124742152Y-109693000D01*
X124739488Y-109855778D01*
X121843195Y-109855778D01*
X121843582Y-109625000D01*
X121837268Y-109560897D01*
X121818570Y-109499257D01*
X121788206Y-109442450D01*
X121747343Y-109392657D01*
X121697550Y-109351794D01*
X121640743Y-109321430D01*
X121579103Y-109302732D01*
X121515000Y-109296418D01*
X120569750Y-109298000D01*
X120488000Y-109379750D01*
X119542000Y-109379750D01*
X119460250Y-109298000D01*
X118515000Y-109296418D01*
X118450897Y-109302732D01*
X118389257Y-109321430D01*
X118332450Y-109351794D01*
X118282657Y-109392657D01*
X118241794Y-109442450D01*
X118237000Y-109451419D01*
X118237000Y-108584222D01*
X124739488Y-108584222D01*
X124742152Y-108747000D01*
X125257000Y-108747000D01*
X126203000Y-108747000D01*
X126717848Y-108747000D01*
X126720512Y-108584222D01*
X127279488Y-108584222D01*
X127282152Y-108747000D01*
X127797000Y-108747000D01*
X127797000Y-108223950D01*
X127634218Y-108229463D01*
X127453190Y-108372531D01*
X127303552Y-108548167D01*
X127279488Y-108584222D01*
X126720512Y-108584222D01*
X126696448Y-108548167D01*
X126546810Y-108372531D01*
X126365782Y-108229463D01*
X126203000Y-108223950D01*
X126203000Y-108747000D01*
X125257000Y-108747000D01*
X125257000Y-108223950D01*
X125094218Y-108229463D01*
X124913190Y-108372531D01*
X124763552Y-108548167D01*
X124739488Y-108584222D01*
X118237000Y-108584222D01*
X118237000Y-108353581D01*
X118241794Y-108362550D01*
X118282657Y-108412343D01*
X118332450Y-108453206D01*
X118389257Y-108483570D01*
X118450897Y-108502268D01*
X118515000Y-108508582D01*
X119460250Y-108507000D01*
X119542000Y-108425250D01*
X119542000Y-107153000D01*
X120488000Y-107153000D01*
X120488000Y-108425250D01*
X120569750Y-108507000D01*
X121515000Y-108508582D01*
X121579103Y-108502268D01*
X121640743Y-108483570D01*
X121697550Y-108453206D01*
X121747343Y-108412343D01*
X121788206Y-108362550D01*
X121818570Y-108305743D01*
X121837268Y-108244103D01*
X121843582Y-108180000D01*
X121842136Y-107315778D01*
X124739488Y-107315778D01*
X124763552Y-107351833D01*
X124913190Y-107527469D01*
X125094218Y-107670537D01*
X125257000Y-107676050D01*
X125257000Y-107153000D01*
X126203000Y-107153000D01*
X126203000Y-107676050D01*
X126365782Y-107670537D01*
X126546810Y-107527469D01*
X126696448Y-107351833D01*
X126720512Y-107315778D01*
X127279488Y-107315778D01*
X127303552Y-107351833D01*
X127453190Y-107527469D01*
X127634218Y-107670537D01*
X127797000Y-107676050D01*
X127797000Y-107153000D01*
X127282152Y-107153000D01*
X127279488Y-107315778D01*
X126720512Y-107315778D01*
X126717848Y-107153000D01*
X126203000Y-107153000D01*
X125257000Y-107153000D01*
X124742152Y-107153000D01*
X124739488Y-107315778D01*
X121842136Y-107315778D01*
X121842000Y-107234750D01*
X121760250Y-107153000D01*
X120488000Y-107153000D01*
X119542000Y-107153000D01*
X119522000Y-107153000D01*
X119522000Y-106207000D01*
X119542000Y-106207000D01*
X119542000Y-104934750D01*
X120488000Y-104934750D01*
X120488000Y-106207000D01*
X121760250Y-106207000D01*
X121842000Y-106125250D01*
X121842135Y-106044222D01*
X124739488Y-106044222D01*
X124742152Y-106207000D01*
X125257000Y-106207000D01*
X126203000Y-106207000D01*
X126717848Y-106207000D01*
X126720512Y-106044222D01*
X127279488Y-106044222D01*
X127282152Y-106207000D01*
X127797000Y-106207000D01*
X127797000Y-105683950D01*
X127634218Y-105689463D01*
X127453190Y-105832531D01*
X127303552Y-106008167D01*
X127279488Y-106044222D01*
X126720512Y-106044222D01*
X126696448Y-106008167D01*
X126546810Y-105832531D01*
X126365782Y-105689463D01*
X126203000Y-105683950D01*
X126203000Y-106207000D01*
X125257000Y-106207000D01*
X125257000Y-105683950D01*
X125094218Y-105689463D01*
X124913190Y-105832531D01*
X124763552Y-106008167D01*
X124739488Y-106044222D01*
X121842135Y-106044222D01*
X121843582Y-105180000D01*
X121837268Y-105115897D01*
X121818570Y-105054257D01*
X121788206Y-104997450D01*
X121747343Y-104947657D01*
X121697550Y-104906794D01*
X121640743Y-104876430D01*
X121579103Y-104857732D01*
X121515000Y-104851418D01*
X120569750Y-104853000D01*
X120488000Y-104934750D01*
X119542000Y-104934750D01*
X119460250Y-104853000D01*
X118515000Y-104851418D01*
X118450897Y-104857732D01*
X118389257Y-104876430D01*
X118332450Y-104906794D01*
X118282657Y-104947657D01*
X118241794Y-104997450D01*
X118237000Y-105006419D01*
X118237000Y-104775778D01*
X124739488Y-104775778D01*
X124763552Y-104811833D01*
X124913190Y-104987469D01*
X125094218Y-105130537D01*
X125257000Y-105136050D01*
X125257000Y-104613000D01*
X126203000Y-104613000D01*
X126203000Y-105136050D01*
X126365782Y-105130537D01*
X126546810Y-104987469D01*
X126696448Y-104811833D01*
X126720512Y-104775778D01*
X127279488Y-104775778D01*
X127303552Y-104811833D01*
X127453190Y-104987469D01*
X127634218Y-105130537D01*
X127797000Y-105136050D01*
X127797000Y-104613000D01*
X127282152Y-104613000D01*
X127279488Y-104775778D01*
X126720512Y-104775778D01*
X126717848Y-104613000D01*
X126203000Y-104613000D01*
X125257000Y-104613000D01*
X124742152Y-104613000D01*
X124739488Y-104775778D01*
X118237000Y-104775778D01*
X118237000Y-103504222D01*
X124739488Y-103504222D01*
X124742152Y-103667000D01*
X125257000Y-103667000D01*
X126203000Y-103667000D01*
X126717848Y-103667000D01*
X126720512Y-103504222D01*
X127279488Y-103504222D01*
X127282152Y-103667000D01*
X127797000Y-103667000D01*
X127797000Y-103143950D01*
X127634218Y-103149463D01*
X127453190Y-103292531D01*
X127303552Y-103468167D01*
X127279488Y-103504222D01*
X126720512Y-103504222D01*
X126696448Y-103468167D01*
X126546810Y-103292531D01*
X126365782Y-103149463D01*
X126203000Y-103143950D01*
X126203000Y-103667000D01*
X125257000Y-103667000D01*
X125257000Y-103143950D01*
X125094218Y-103149463D01*
X124913190Y-103292531D01*
X124763552Y-103468167D01*
X124739488Y-103504222D01*
X118237000Y-103504222D01*
X118237000Y-102235778D01*
X124739488Y-102235778D01*
X124763552Y-102271833D01*
X124913190Y-102447469D01*
X125094218Y-102590537D01*
X125257000Y-102596050D01*
X125257000Y-102073000D01*
X126203000Y-102073000D01*
X126203000Y-102596050D01*
X126365782Y-102590537D01*
X126546810Y-102447469D01*
X126696448Y-102271833D01*
X126720512Y-102235778D01*
X127279488Y-102235778D01*
X127303552Y-102271833D01*
X127453190Y-102447469D01*
X127634218Y-102590537D01*
X127797000Y-102596050D01*
X127797000Y-102073000D01*
X127282152Y-102073000D01*
X127279488Y-102235778D01*
X126720512Y-102235778D01*
X126717848Y-102073000D01*
X126203000Y-102073000D01*
X125257000Y-102073000D01*
X124742152Y-102073000D01*
X124739488Y-102235778D01*
X118237000Y-102235778D01*
X118237000Y-100964222D01*
X124739488Y-100964222D01*
X124742152Y-101127000D01*
X125257000Y-101127000D01*
X126203000Y-101127000D01*
X126717848Y-101127000D01*
X126720512Y-100964222D01*
X127279488Y-100964222D01*
X127282152Y-101127000D01*
X127797000Y-101127000D01*
X127797000Y-100603950D01*
X127634218Y-100609463D01*
X127453190Y-100752531D01*
X127303552Y-100928167D01*
X127279488Y-100964222D01*
X126720512Y-100964222D01*
X126696448Y-100928167D01*
X126546810Y-100752531D01*
X126365782Y-100609463D01*
X126203000Y-100603950D01*
X126203000Y-101127000D01*
X125257000Y-101127000D01*
X125257000Y-100603950D01*
X125094218Y-100609463D01*
X124913190Y-100752531D01*
X124763552Y-100928167D01*
X124739488Y-100964222D01*
X118237000Y-100964222D01*
X118237000Y-99695778D01*
X124739488Y-99695778D01*
X124763552Y-99731833D01*
X124913190Y-99907469D01*
X125094218Y-100050537D01*
X125257000Y-100056050D01*
X125257000Y-99533000D01*
X126203000Y-99533000D01*
X126203000Y-100056050D01*
X126365782Y-100050537D01*
X126546810Y-99907469D01*
X126696448Y-99731833D01*
X126720512Y-99695778D01*
X127279488Y-99695778D01*
X127303552Y-99731833D01*
X127453190Y-99907469D01*
X127634218Y-100050537D01*
X127797000Y-100056050D01*
X127797000Y-99533000D01*
X127282152Y-99533000D01*
X127279488Y-99695778D01*
X126720512Y-99695778D01*
X126717848Y-99533000D01*
X126203000Y-99533000D01*
X125257000Y-99533000D01*
X124742152Y-99533000D01*
X124739488Y-99695778D01*
X118237000Y-99695778D01*
X118237000Y-98424222D01*
X124739488Y-98424222D01*
X124742152Y-98587000D01*
X125257000Y-98587000D01*
X126203000Y-98587000D01*
X126717848Y-98587000D01*
X126720512Y-98424222D01*
X127279488Y-98424222D01*
X127282152Y-98587000D01*
X127797000Y-98587000D01*
X127797000Y-98063950D01*
X127634218Y-98069463D01*
X127453190Y-98212531D01*
X127303552Y-98388167D01*
X127279488Y-98424222D01*
X126720512Y-98424222D01*
X126696448Y-98388167D01*
X126546810Y-98212531D01*
X126365782Y-98069463D01*
X126203000Y-98063950D01*
X126203000Y-98587000D01*
X125257000Y-98587000D01*
X125257000Y-98063950D01*
X125094218Y-98069463D01*
X124913190Y-98212531D01*
X124763552Y-98388167D01*
X124739488Y-98424222D01*
X118237000Y-98424222D01*
X118237000Y-97155778D01*
X124739488Y-97155778D01*
X124763552Y-97191833D01*
X124913190Y-97367469D01*
X125094218Y-97510537D01*
X125257000Y-97516050D01*
X125257000Y-96993000D01*
X126203000Y-96993000D01*
X126203000Y-97516050D01*
X126365782Y-97510537D01*
X126546810Y-97367469D01*
X126696448Y-97191833D01*
X126720512Y-97155778D01*
X127279488Y-97155778D01*
X127303552Y-97191833D01*
X127453190Y-97367469D01*
X127634218Y-97510537D01*
X127797000Y-97516050D01*
X127797000Y-96993000D01*
X127282152Y-96993000D01*
X127279488Y-97155778D01*
X126720512Y-97155778D01*
X126717848Y-96993000D01*
X126203000Y-96993000D01*
X125257000Y-96993000D01*
X124742152Y-96993000D01*
X124739488Y-97155778D01*
X118237000Y-97155778D01*
X118237000Y-95884222D01*
X124739488Y-95884222D01*
X124742152Y-96047000D01*
X125257000Y-96047000D01*
X126203000Y-96047000D01*
X126717848Y-96047000D01*
X126720512Y-95884222D01*
X127279488Y-95884222D01*
X127282152Y-96047000D01*
X127797000Y-96047000D01*
X127797000Y-95523950D01*
X127634218Y-95529463D01*
X127453190Y-95672531D01*
X127303552Y-95848167D01*
X127279488Y-95884222D01*
X126720512Y-95884222D01*
X126696448Y-95848167D01*
X126546810Y-95672531D01*
X126365782Y-95529463D01*
X126203000Y-95523950D01*
X126203000Y-96047000D01*
X125257000Y-96047000D01*
X125257000Y-95523950D01*
X125094218Y-95529463D01*
X124913190Y-95672531D01*
X124763552Y-95848167D01*
X124739488Y-95884222D01*
X118237000Y-95884222D01*
X118237000Y-95556806D01*
X118487861Y-95660716D01*
X119323828Y-95827000D01*
X120176172Y-95827000D01*
X121012139Y-95660716D01*
X121799603Y-95334538D01*
X122508302Y-94861001D01*
X122753525Y-94615778D01*
X124739488Y-94615778D01*
X124763552Y-94651833D01*
X124913190Y-94827469D01*
X125094218Y-94970537D01*
X125257000Y-94976050D01*
X125257000Y-94453000D01*
X126203000Y-94453000D01*
X126203000Y-94976050D01*
X126365782Y-94970537D01*
X126546810Y-94827469D01*
X126696448Y-94651833D01*
X126720512Y-94615778D01*
X127279488Y-94615778D01*
X127303552Y-94651833D01*
X127453190Y-94827469D01*
X127634218Y-94970537D01*
X127797000Y-94976050D01*
X127797000Y-94453000D01*
X127282152Y-94453000D01*
X127279488Y-94615778D01*
X126720512Y-94615778D01*
X126717848Y-94453000D01*
X126203000Y-94453000D01*
X125257000Y-94453000D01*
X124742152Y-94453000D01*
X124739488Y-94615778D01*
X122753525Y-94615778D01*
X123111001Y-94258302D01*
X123584538Y-93549603D01*
X123669609Y-93344222D01*
X124739488Y-93344222D01*
X124742152Y-93507000D01*
X125257000Y-93507000D01*
X126203000Y-93507000D01*
X126717848Y-93507000D01*
X126720512Y-93344222D01*
X127279488Y-93344222D01*
X127282152Y-93507000D01*
X127797000Y-93507000D01*
X127797000Y-92983950D01*
X127634218Y-92989463D01*
X127453190Y-93132531D01*
X127303552Y-93308167D01*
X127279488Y-93344222D01*
X126720512Y-93344222D01*
X126696448Y-93308167D01*
X126546810Y-93132531D01*
X126365782Y-92989463D01*
X126203000Y-92983950D01*
X126203000Y-93507000D01*
X125257000Y-93507000D01*
X125257000Y-92983950D01*
X125094218Y-92989463D01*
X124913190Y-93132531D01*
X124763552Y-93308167D01*
X124739488Y-93344222D01*
X123669609Y-93344222D01*
X123910716Y-92762139D01*
X124047241Y-92075778D01*
X124739488Y-92075778D01*
X124763552Y-92111833D01*
X124913190Y-92287469D01*
X125094218Y-92430537D01*
X125257000Y-92436050D01*
X125257000Y-91913000D01*
X126203000Y-91913000D01*
X126203000Y-92436050D01*
X126365782Y-92430537D01*
X126546810Y-92287469D01*
X126696448Y-92111833D01*
X126720512Y-92075778D01*
X127279488Y-92075778D01*
X127303552Y-92111833D01*
X127453190Y-92287469D01*
X127634218Y-92430537D01*
X127797000Y-92436050D01*
X127797000Y-91913000D01*
X127282152Y-91913000D01*
X127279488Y-92075778D01*
X126720512Y-92075778D01*
X126717848Y-91913000D01*
X126203000Y-91913000D01*
X125257000Y-91913000D01*
X124742152Y-91913000D01*
X124739488Y-92075778D01*
X124047241Y-92075778D01*
X124077000Y-91926172D01*
X124077000Y-91073828D01*
X124023373Y-90804222D01*
X124739488Y-90804222D01*
X124742152Y-90967000D01*
X125257000Y-90967000D01*
X126203000Y-90967000D01*
X126717848Y-90967000D01*
X126720512Y-90804222D01*
X127279488Y-90804222D01*
X127282152Y-90967000D01*
X127797000Y-90967000D01*
X127797000Y-90443950D01*
X127634218Y-90449463D01*
X127453190Y-90592531D01*
X127303552Y-90768167D01*
X127279488Y-90804222D01*
X126720512Y-90804222D01*
X126696448Y-90768167D01*
X126546810Y-90592531D01*
X126365782Y-90449463D01*
X126203000Y-90443950D01*
X126203000Y-90967000D01*
X125257000Y-90967000D01*
X125257000Y-90443950D01*
X125094218Y-90449463D01*
X124913190Y-90592531D01*
X124763552Y-90768167D01*
X124739488Y-90804222D01*
X124023373Y-90804222D01*
X123910716Y-90237861D01*
X123619904Y-89535778D01*
X124739488Y-89535778D01*
X124763552Y-89571833D01*
X124913190Y-89747469D01*
X125094218Y-89890537D01*
X125257000Y-89896050D01*
X125257000Y-89373000D01*
X126203000Y-89373000D01*
X126203000Y-89896050D01*
X126365782Y-89890537D01*
X126546810Y-89747469D01*
X126696448Y-89571833D01*
X126720512Y-89535778D01*
X127279488Y-89535778D01*
X127303552Y-89571833D01*
X127453190Y-89747469D01*
X127634218Y-89890537D01*
X127797000Y-89896050D01*
X127797000Y-89373000D01*
X127282152Y-89373000D01*
X127279488Y-89535778D01*
X126720512Y-89535778D01*
X126717848Y-89373000D01*
X126203000Y-89373000D01*
X125257000Y-89373000D01*
X124742152Y-89373000D01*
X124739488Y-89535778D01*
X123619904Y-89535778D01*
X123584538Y-89450397D01*
X123111001Y-88741698D01*
X122633525Y-88264222D01*
X124739488Y-88264222D01*
X124742152Y-88427000D01*
X125257000Y-88427000D01*
X126203000Y-88427000D01*
X126717848Y-88427000D01*
X126720512Y-88264222D01*
X127279488Y-88264222D01*
X127282152Y-88427000D01*
X127797000Y-88427000D01*
X127797000Y-87903950D01*
X127634218Y-87909463D01*
X127453190Y-88052531D01*
X127303552Y-88228167D01*
X127279488Y-88264222D01*
X126720512Y-88264222D01*
X126696448Y-88228167D01*
X126546810Y-88052531D01*
X126365782Y-87909463D01*
X126203000Y-87903950D01*
X126203000Y-88427000D01*
X125257000Y-88427000D01*
X125257000Y-87903950D01*
X125094218Y-87909463D01*
X124913190Y-88052531D01*
X124763552Y-88228167D01*
X124739488Y-88264222D01*
X122633525Y-88264222D01*
X122508302Y-88138999D01*
X121799603Y-87665462D01*
X121012139Y-87339284D01*
X120176172Y-87173000D01*
X119323828Y-87173000D01*
X118487861Y-87339284D01*
X118237000Y-87443194D01*
X118237000Y-86995778D01*
X124739488Y-86995778D01*
X124763552Y-87031833D01*
X124913190Y-87207469D01*
X125094218Y-87350537D01*
X125257000Y-87356050D01*
X125257000Y-86833000D01*
X126203000Y-86833000D01*
X126203000Y-87356050D01*
X126365782Y-87350537D01*
X126546810Y-87207469D01*
X126696448Y-87031833D01*
X126720512Y-86995778D01*
X127279488Y-86995778D01*
X127303552Y-87031833D01*
X127453190Y-87207469D01*
X127634218Y-87350537D01*
X127797000Y-87356050D01*
X127797000Y-86833000D01*
X127282152Y-86833000D01*
X127279488Y-86995778D01*
X126720512Y-86995778D01*
X126717848Y-86833000D01*
X126203000Y-86833000D01*
X125257000Y-86833000D01*
X124742152Y-86833000D01*
X124739488Y-86995778D01*
X118237000Y-86995778D01*
X118237000Y-85724222D01*
X124739488Y-85724222D01*
X124742152Y-85887000D01*
X125257000Y-85887000D01*
X126203000Y-85887000D01*
X126717848Y-85887000D01*
X126720512Y-85724222D01*
X127279488Y-85724222D01*
X127282152Y-85887000D01*
X127797000Y-85887000D01*
X127797000Y-85363950D01*
X127634218Y-85369463D01*
X127453190Y-85512531D01*
X127303552Y-85688167D01*
X127279488Y-85724222D01*
X126720512Y-85724222D01*
X126696448Y-85688167D01*
X126546810Y-85512531D01*
X126365782Y-85369463D01*
X126203000Y-85363950D01*
X126203000Y-85887000D01*
X125257000Y-85887000D01*
X125257000Y-85363950D01*
X125094218Y-85369463D01*
X124913190Y-85512531D01*
X124763552Y-85688167D01*
X124739488Y-85724222D01*
X118237000Y-85724222D01*
X118237000Y-84455778D01*
X124739488Y-84455778D01*
X124763552Y-84491833D01*
X124913190Y-84667469D01*
X125094218Y-84810537D01*
X125257000Y-84816050D01*
X125257000Y-84293000D01*
X126203000Y-84293000D01*
X126203000Y-84816050D01*
X126365782Y-84810537D01*
X126546810Y-84667469D01*
X126696448Y-84491833D01*
X126720512Y-84455778D01*
X127279488Y-84455778D01*
X127303552Y-84491833D01*
X127453190Y-84667469D01*
X127634218Y-84810537D01*
X127797000Y-84816050D01*
X127797000Y-84293000D01*
X127282152Y-84293000D01*
X127279488Y-84455778D01*
X126720512Y-84455778D01*
X126717848Y-84293000D01*
X126203000Y-84293000D01*
X125257000Y-84293000D01*
X124742152Y-84293000D01*
X124739488Y-84455778D01*
X118237000Y-84455778D01*
X118237000Y-83853727D01*
X118619574Y-83184222D01*
X124739488Y-83184222D01*
X124742152Y-83347000D01*
X125257000Y-83347000D01*
X126203000Y-83347000D01*
X126717848Y-83347000D01*
X126720512Y-83184222D01*
X127279488Y-83184222D01*
X127282152Y-83347000D01*
X127797000Y-83347000D01*
X127797000Y-82823950D01*
X127634218Y-82829463D01*
X127453190Y-82972531D01*
X127303552Y-83148167D01*
X127279488Y-83184222D01*
X126720512Y-83184222D01*
X126696448Y-83148167D01*
X126546810Y-82972531D01*
X126365782Y-82829463D01*
X126203000Y-82823950D01*
X126203000Y-83347000D01*
X125257000Y-83347000D01*
X125257000Y-82823950D01*
X125094218Y-82829463D01*
X124913190Y-82972531D01*
X124763552Y-83148167D01*
X124739488Y-83184222D01*
X118619574Y-83184222D01*
X119344398Y-81915778D01*
X124739488Y-81915778D01*
X124763552Y-81951833D01*
X124913190Y-82127469D01*
X125094218Y-82270537D01*
X125257000Y-82276050D01*
X125257000Y-81753000D01*
X126203000Y-81753000D01*
X126203000Y-82276050D01*
X126365782Y-82270537D01*
X126546810Y-82127469D01*
X126696448Y-81951833D01*
X126720512Y-81915778D01*
X127279488Y-81915778D01*
X127303552Y-81951833D01*
X127453190Y-82127469D01*
X127634218Y-82270537D01*
X127797000Y-82276050D01*
X127797000Y-81753000D01*
X127282152Y-81753000D01*
X127279488Y-81915778D01*
X126720512Y-81915778D01*
X126717848Y-81753000D01*
X126203000Y-81753000D01*
X125257000Y-81753000D01*
X124742152Y-81753000D01*
X124739488Y-81915778D01*
X119344398Y-81915778D01*
X120071001Y-80644222D01*
X124739488Y-80644222D01*
X124742152Y-80807000D01*
X125257000Y-80807000D01*
X126203000Y-80807000D01*
X126717848Y-80807000D01*
X126720512Y-80644222D01*
X127279488Y-80644222D01*
X127282152Y-80807000D01*
X127797000Y-80807000D01*
X127797000Y-80283950D01*
X127634218Y-80289463D01*
X127453190Y-80432531D01*
X127303552Y-80608167D01*
X127279488Y-80644222D01*
X126720512Y-80644222D01*
X126696448Y-80608167D01*
X126546810Y-80432531D01*
X126365782Y-80289463D01*
X126203000Y-80283950D01*
X126203000Y-80807000D01*
X125257000Y-80807000D01*
X125257000Y-80283950D01*
X125094218Y-80289463D01*
X124913190Y-80432531D01*
X124763552Y-80608167D01*
X124739488Y-80644222D01*
X120071001Y-80644222D01*
X120795826Y-79375778D01*
X124739488Y-79375778D01*
X124763552Y-79411833D01*
X124913190Y-79587469D01*
X125094218Y-79730537D01*
X125257000Y-79736050D01*
X125257000Y-79213000D01*
X126203000Y-79213000D01*
X126203000Y-79736050D01*
X126365782Y-79730537D01*
X126546810Y-79587469D01*
X126696448Y-79411833D01*
X126720512Y-79375778D01*
X127279488Y-79375778D01*
X127303552Y-79411833D01*
X127453190Y-79587469D01*
X127634218Y-79730537D01*
X127797000Y-79736050D01*
X127797000Y-79213000D01*
X127282152Y-79213000D01*
X127279488Y-79375778D01*
X126720512Y-79375778D01*
X126717848Y-79213000D01*
X126203000Y-79213000D01*
X125257000Y-79213000D01*
X124742152Y-79213000D01*
X124739488Y-79375778D01*
X120795826Y-79375778D01*
X121522429Y-78104222D01*
X124739488Y-78104222D01*
X124742152Y-78267000D01*
X125257000Y-78267000D01*
X126203000Y-78267000D01*
X126717848Y-78267000D01*
X126720512Y-78104222D01*
X127279488Y-78104222D01*
X127282152Y-78267000D01*
X127797000Y-78267000D01*
X127797000Y-77743950D01*
X127634218Y-77749463D01*
X127453190Y-77892531D01*
X127303552Y-78068167D01*
X127279488Y-78104222D01*
X126720512Y-78104222D01*
X126696448Y-78068167D01*
X126546810Y-77892531D01*
X126365782Y-77749463D01*
X126203000Y-77743950D01*
X126203000Y-78267000D01*
X125257000Y-78267000D01*
X125257000Y-77743950D01*
X125094218Y-77749463D01*
X124913190Y-77892531D01*
X124763552Y-78068167D01*
X124739488Y-78104222D01*
X121522429Y-78104222D01*
X122124843Y-77050000D01*
X124551418Y-77050000D01*
X124557732Y-77114103D01*
X124576430Y-77175743D01*
X124606794Y-77232550D01*
X124647657Y-77282343D01*
X124697450Y-77323206D01*
X124754257Y-77353570D01*
X124815897Y-77372268D01*
X124880000Y-77378582D01*
X125175250Y-77377000D01*
X125257000Y-77295250D01*
X125257000Y-76673000D01*
X126203000Y-76673000D01*
X126203000Y-77295250D01*
X126284750Y-77377000D01*
X126580000Y-77378582D01*
X126644103Y-77372268D01*
X126705743Y-77353570D01*
X126762550Y-77323206D01*
X126812343Y-77282343D01*
X126853206Y-77232550D01*
X126883570Y-77175743D01*
X126902268Y-77114103D01*
X126908582Y-77050000D01*
X126907435Y-76835778D01*
X127279488Y-76835778D01*
X127303552Y-76871833D01*
X127453190Y-77047469D01*
X127634218Y-77190537D01*
X127797000Y-77196050D01*
X127797000Y-76673000D01*
X127282152Y-76673000D01*
X127279488Y-76835778D01*
X126907435Y-76835778D01*
X126907000Y-76754750D01*
X126825250Y-76673000D01*
X126203000Y-76673000D01*
X125257000Y-76673000D01*
X124634750Y-76673000D01*
X124553000Y-76754750D01*
X124551418Y-77050000D01*
X122124843Y-77050000D01*
X123263701Y-75057000D01*
X124734482Y-75057000D01*
X124697450Y-75076794D01*
%TA.AperFunction,Conductor*%
D27*
G36*
X124697450Y-75076794D02*
G01*
X124647657Y-75117657D01*
X124606794Y-75167450D01*
X124576430Y-75224257D01*
X124557732Y-75285897D01*
X124551418Y-75350000D01*
X124553000Y-75645250D01*
X124634750Y-75727000D01*
X125257000Y-75727000D01*
X125257000Y-75707000D01*
X126203000Y-75707000D01*
X126203000Y-75727000D01*
X126825250Y-75727000D01*
X126907000Y-75645250D01*
X126908582Y-75350000D01*
X126902268Y-75285897D01*
X126883570Y-75224257D01*
X126853206Y-75167450D01*
X126812343Y-75117657D01*
X126762550Y-75076794D01*
X126725518Y-75057000D01*
X127796998Y-75057000D01*
X127796998Y-75203950D01*
X127634218Y-75209463D01*
X127453190Y-75352531D01*
X127303552Y-75528167D01*
X127279488Y-75564222D01*
X127282152Y-75727000D01*
X127797000Y-75727000D01*
X127797000Y-75707000D01*
X128743000Y-75707000D01*
X128743000Y-75727000D01*
X128763000Y-75727000D01*
X128763000Y-76673000D01*
X128743000Y-76673000D01*
X128743000Y-77196050D01*
X128905782Y-77190537D01*
X129086810Y-77047469D01*
X129236448Y-76871833D01*
X129260512Y-76835778D01*
X129257848Y-76673002D01*
X129413000Y-76673002D01*
X129413000Y-78266998D01*
X129257848Y-78266998D01*
X129260512Y-78104222D01*
X129236448Y-78068167D01*
X129086810Y-77892531D01*
X128905782Y-77749463D01*
X128743000Y-77743950D01*
X128743000Y-78267000D01*
X128763000Y-78267000D01*
X128763000Y-79213000D01*
X128743000Y-79213000D01*
X128743000Y-79736050D01*
X128905782Y-79730537D01*
X129086810Y-79587469D01*
X129236448Y-79411833D01*
X129260512Y-79375778D01*
X129257848Y-79213002D01*
X129413000Y-79213002D01*
X129413000Y-80806998D01*
X129257848Y-80806998D01*
X129260512Y-80644222D01*
X129236448Y-80608167D01*
X129086810Y-80432531D01*
X128905782Y-80289463D01*
X128743000Y-80283950D01*
X128743000Y-80807000D01*
X128763000Y-80807000D01*
X128763000Y-81753000D01*
X128743000Y-81753000D01*
X128743000Y-82276050D01*
X128905782Y-82270537D01*
X129086810Y-82127469D01*
X129236448Y-81951833D01*
X129260512Y-81915778D01*
X129257848Y-81753002D01*
X129413000Y-81753002D01*
X129413000Y-83346998D01*
X129257848Y-83346998D01*
X129260512Y-83184222D01*
X129236448Y-83148167D01*
X129086810Y-82972531D01*
X128905782Y-82829463D01*
X128743000Y-82823950D01*
X128743000Y-83347000D01*
X128763000Y-83347000D01*
X128763000Y-84293000D01*
X128743000Y-84293000D01*
X128743000Y-84816050D01*
X128905782Y-84810537D01*
X129086810Y-84667469D01*
X129236448Y-84491833D01*
X129260512Y-84455778D01*
X129257848Y-84293002D01*
X129413000Y-84293002D01*
X129413000Y-85886998D01*
X129257848Y-85886998D01*
X129260512Y-85724222D01*
X129236448Y-85688167D01*
X129086810Y-85512531D01*
X128905782Y-85369463D01*
X128743000Y-85363950D01*
X128743000Y-85887000D01*
X128763000Y-85887000D01*
X128763000Y-86833000D01*
X128743000Y-86833000D01*
X128743000Y-87356050D01*
X128905782Y-87350537D01*
X129086810Y-87207469D01*
X129236448Y-87031833D01*
X129260512Y-86995778D01*
X129257848Y-86833002D01*
X129413000Y-86833002D01*
X129413000Y-88426998D01*
X129257848Y-88426998D01*
X129260512Y-88264222D01*
X129236448Y-88228167D01*
X129086810Y-88052531D01*
X128905782Y-87909463D01*
X128743000Y-87903950D01*
X128743000Y-88427000D01*
X128763000Y-88427000D01*
X128763000Y-89373000D01*
X128743000Y-89373000D01*
X128743000Y-89896050D01*
X128905782Y-89890537D01*
X129086810Y-89747469D01*
X129236448Y-89571833D01*
X129260512Y-89535778D01*
X129257848Y-89373002D01*
X129413000Y-89373002D01*
X129413000Y-90966998D01*
X129257848Y-90966998D01*
X129260512Y-90804222D01*
X129236448Y-90768167D01*
X129086810Y-90592531D01*
X128905782Y-90449463D01*
X128743000Y-90443950D01*
X128743000Y-90967000D01*
X128763000Y-90967000D01*
X128763000Y-91913000D01*
X128743000Y-91913000D01*
X128743000Y-92436050D01*
X128905782Y-92430537D01*
X129086810Y-92287469D01*
X129236448Y-92111833D01*
X129260512Y-92075778D01*
X129257848Y-91913002D01*
X129413000Y-91913002D01*
X129413000Y-93506998D01*
X129257848Y-93506998D01*
X129260512Y-93344222D01*
X129236448Y-93308167D01*
X129086810Y-93132531D01*
X128905782Y-92989463D01*
X128743000Y-92983950D01*
X128743000Y-93507000D01*
X128763000Y-93507000D01*
X128763000Y-94453000D01*
X128743000Y-94453000D01*
X128743000Y-94976050D01*
X128905782Y-94970537D01*
X129086810Y-94827469D01*
X129236448Y-94651833D01*
X129260512Y-94615778D01*
X129257848Y-94453002D01*
X129413000Y-94453002D01*
X129413000Y-96046998D01*
X129257848Y-96046998D01*
X129260512Y-95884222D01*
X129236448Y-95848167D01*
X129086810Y-95672531D01*
X128905782Y-95529463D01*
X128743000Y-95523950D01*
X128743000Y-96047000D01*
X128763000Y-96047000D01*
X128763000Y-96993000D01*
X128743000Y-96993000D01*
X128743000Y-97516050D01*
X128905782Y-97510537D01*
X129086810Y-97367469D01*
X129236448Y-97191833D01*
X129260512Y-97155778D01*
X129257848Y-96993002D01*
X129413000Y-96993002D01*
X129413000Y-98586998D01*
X129257848Y-98586998D01*
X129260512Y-98424222D01*
X129236448Y-98388167D01*
X129086810Y-98212531D01*
X128905782Y-98069463D01*
X128743000Y-98063950D01*
X128743000Y-98587000D01*
X128763000Y-98587000D01*
X128763000Y-99533000D01*
X128743000Y-99533000D01*
X128743000Y-100056050D01*
X128905782Y-100050537D01*
X129086810Y-99907469D01*
X129236448Y-99731833D01*
X129260512Y-99695778D01*
X129257848Y-99533002D01*
X129413000Y-99533002D01*
X129413000Y-101126998D01*
X129257848Y-101126998D01*
X129260512Y-100964222D01*
X129236448Y-100928167D01*
X129086810Y-100752531D01*
X128905782Y-100609463D01*
X128743000Y-100603950D01*
X128743000Y-101127000D01*
X128763000Y-101127000D01*
X128763000Y-102073000D01*
X128743000Y-102073000D01*
X128743000Y-102596050D01*
X128905782Y-102590537D01*
X129086810Y-102447469D01*
X129236448Y-102271833D01*
X129260512Y-102235778D01*
X129257848Y-102073002D01*
X129413000Y-102073002D01*
X129413000Y-103666998D01*
X129257848Y-103666998D01*
X129260512Y-103504222D01*
X129236448Y-103468167D01*
X129086810Y-103292531D01*
X128905782Y-103149463D01*
X128743000Y-103143950D01*
X128743000Y-103667000D01*
X128763000Y-103667000D01*
X128763000Y-104613000D01*
X128743000Y-104613000D01*
X128743000Y-105136050D01*
X128905782Y-105130537D01*
X129086810Y-104987469D01*
X129236448Y-104811833D01*
X129260512Y-104775778D01*
X129257848Y-104613002D01*
X129413000Y-104613002D01*
X129413000Y-106206998D01*
X129257848Y-106206998D01*
X129260512Y-106044222D01*
X129236448Y-106008167D01*
X129086810Y-105832531D01*
X128905782Y-105689463D01*
X128743000Y-105683950D01*
X128743000Y-106207000D01*
X128763000Y-106207000D01*
X128763000Y-107153000D01*
X128743000Y-107153000D01*
X128743000Y-107676050D01*
X128905782Y-107670537D01*
X129086810Y-107527469D01*
X129236448Y-107351833D01*
X129260512Y-107315778D01*
X129257848Y-107153002D01*
X129413000Y-107153002D01*
X129413000Y-108746998D01*
X129257848Y-108746998D01*
X129260512Y-108584222D01*
X129236448Y-108548167D01*
X129086810Y-108372531D01*
X128905782Y-108229463D01*
X128743000Y-108223950D01*
X128743000Y-108747000D01*
X128763000Y-108747000D01*
X128763000Y-109693000D01*
X128743000Y-109693000D01*
X128743000Y-110216050D01*
X128905782Y-110210537D01*
X129086810Y-110067469D01*
X129236448Y-109891833D01*
X129260512Y-109855778D01*
X129257848Y-109693002D01*
X129413000Y-109693002D01*
X129413000Y-111286998D01*
X129257848Y-111286998D01*
X129260512Y-111124222D01*
X129236448Y-111088167D01*
X129086810Y-110912531D01*
X128905782Y-110769463D01*
X128743000Y-110763950D01*
X128743000Y-111287000D01*
X128763000Y-111287000D01*
X128763000Y-112233000D01*
X128743000Y-112233000D01*
X128743000Y-112253000D01*
X127797000Y-112253000D01*
X127797000Y-112233000D01*
X127282152Y-112233000D01*
X127279488Y-112395778D01*
X127303552Y-112431833D01*
X127453190Y-112607469D01*
X127634218Y-112750537D01*
X127796998Y-112756050D01*
X127796998Y-112903000D01*
X126203002Y-112903000D01*
X126203002Y-112756050D01*
X126365782Y-112750537D01*
X126546810Y-112607469D01*
X126696448Y-112431833D01*
X126720512Y-112395778D01*
X126717848Y-112233000D01*
X126203000Y-112233000D01*
X126203000Y-112253000D01*
X125257000Y-112253000D01*
X125257000Y-112233000D01*
X124742152Y-112233000D01*
X124739488Y-112395778D01*
X124763552Y-112431833D01*
X124913190Y-112607469D01*
X125094218Y-112750537D01*
X125256998Y-112756050D01*
X125256998Y-112903000D01*
X121688581Y-112903000D01*
X121697550Y-112898206D01*
X121747343Y-112857343D01*
X121788206Y-112807550D01*
X121818570Y-112750743D01*
X121837268Y-112689103D01*
X121843582Y-112625000D01*
X121842000Y-111679750D01*
X121760250Y-111598000D01*
X120488000Y-111598000D01*
X120488000Y-111618000D01*
X119542000Y-111618000D01*
X119542000Y-111598000D01*
X119522000Y-111598000D01*
X119522000Y-111124222D01*
X124739488Y-111124222D01*
X124742152Y-111287000D01*
X125257000Y-111287000D01*
X126203000Y-111287000D01*
X126717848Y-111287000D01*
X126720512Y-111124222D01*
X127279488Y-111124222D01*
X127282152Y-111287000D01*
X127797000Y-111287000D01*
X127797000Y-110763950D01*
X127634218Y-110769463D01*
X127453190Y-110912531D01*
X127303552Y-111088167D01*
X127279488Y-111124222D01*
X126720512Y-111124222D01*
X126696448Y-111088167D01*
X126546810Y-110912531D01*
X126365782Y-110769463D01*
X126203000Y-110763950D01*
X126203000Y-111287000D01*
X125257000Y-111287000D01*
X125257000Y-110763950D01*
X125094218Y-110769463D01*
X124913190Y-110912531D01*
X124763552Y-111088167D01*
X124739488Y-111124222D01*
X119522000Y-111124222D01*
X119522000Y-110652000D01*
X119542000Y-110652000D01*
X119542000Y-109379750D01*
X120488000Y-109379750D01*
X120488000Y-110652000D01*
X121760250Y-110652000D01*
X121842000Y-110570250D01*
X121843195Y-109855778D01*
X124739488Y-109855778D01*
X124763552Y-109891833D01*
X124913190Y-110067469D01*
X125094218Y-110210537D01*
X125257000Y-110216050D01*
X125257000Y-109693000D01*
X126203000Y-109693000D01*
X126203000Y-110216050D01*
X126365782Y-110210537D01*
X126546810Y-110067469D01*
X126696448Y-109891833D01*
X126720512Y-109855778D01*
X127279488Y-109855778D01*
X127303552Y-109891833D01*
X127453190Y-110067469D01*
X127634218Y-110210537D01*
X127797000Y-110216050D01*
X127797000Y-109693000D01*
X127282152Y-109693000D01*
X127279488Y-109855778D01*
X126720512Y-109855778D01*
X126717848Y-109693000D01*
X126203000Y-109693000D01*
X125257000Y-109693000D01*
X124742152Y-109693000D01*
X124739488Y-109855778D01*
X121843195Y-109855778D01*
X121843582Y-109625000D01*
X121837268Y-109560897D01*
X121818570Y-109499257D01*
X121788206Y-109442450D01*
X121747343Y-109392657D01*
X121697550Y-109351794D01*
X121640743Y-109321430D01*
X121579103Y-109302732D01*
X121515000Y-109296418D01*
X120569750Y-109298000D01*
X120488000Y-109379750D01*
X119542000Y-109379750D01*
X119460250Y-109298000D01*
X118515000Y-109296418D01*
X118450897Y-109302732D01*
X118389257Y-109321430D01*
X118332450Y-109351794D01*
X118282657Y-109392657D01*
X118241794Y-109442450D01*
X118237000Y-109451419D01*
X118237000Y-108584222D01*
X124739488Y-108584222D01*
X124742152Y-108747000D01*
X125257000Y-108747000D01*
X126203000Y-108747000D01*
X126717848Y-108747000D01*
X126720512Y-108584222D01*
X127279488Y-108584222D01*
X127282152Y-108747000D01*
X127797000Y-108747000D01*
X127797000Y-108223950D01*
X127634218Y-108229463D01*
X127453190Y-108372531D01*
X127303552Y-108548167D01*
X127279488Y-108584222D01*
X126720512Y-108584222D01*
X126696448Y-108548167D01*
X126546810Y-108372531D01*
X126365782Y-108229463D01*
X126203000Y-108223950D01*
X126203000Y-108747000D01*
X125257000Y-108747000D01*
X125257000Y-108223950D01*
X125094218Y-108229463D01*
X124913190Y-108372531D01*
X124763552Y-108548167D01*
X124739488Y-108584222D01*
X118237000Y-108584222D01*
X118237000Y-108353581D01*
X118241794Y-108362550D01*
X118282657Y-108412343D01*
X118332450Y-108453206D01*
X118389257Y-108483570D01*
X118450897Y-108502268D01*
X118515000Y-108508582D01*
X119460250Y-108507000D01*
X119542000Y-108425250D01*
X119542000Y-107153000D01*
X120488000Y-107153000D01*
X120488000Y-108425250D01*
X120569750Y-108507000D01*
X121515000Y-108508582D01*
X121579103Y-108502268D01*
X121640743Y-108483570D01*
X121697550Y-108453206D01*
X121747343Y-108412343D01*
X121788206Y-108362550D01*
X121818570Y-108305743D01*
X121837268Y-108244103D01*
X121843582Y-108180000D01*
X121842136Y-107315778D01*
X124739488Y-107315778D01*
X124763552Y-107351833D01*
X124913190Y-107527469D01*
X125094218Y-107670537D01*
X125257000Y-107676050D01*
X125257000Y-107153000D01*
X126203000Y-107153000D01*
X126203000Y-107676050D01*
X126365782Y-107670537D01*
X126546810Y-107527469D01*
X126696448Y-107351833D01*
X126720512Y-107315778D01*
X127279488Y-107315778D01*
X127303552Y-107351833D01*
X127453190Y-107527469D01*
X127634218Y-107670537D01*
X127797000Y-107676050D01*
X127797000Y-107153000D01*
X127282152Y-107153000D01*
X127279488Y-107315778D01*
X126720512Y-107315778D01*
X126717848Y-107153000D01*
X126203000Y-107153000D01*
X125257000Y-107153000D01*
X124742152Y-107153000D01*
X124739488Y-107315778D01*
X121842136Y-107315778D01*
X121842000Y-107234750D01*
X121760250Y-107153000D01*
X120488000Y-107153000D01*
X119542000Y-107153000D01*
X119522000Y-107153000D01*
X119522000Y-106207000D01*
X119542000Y-106207000D01*
X119542000Y-104934750D01*
X120488000Y-104934750D01*
X120488000Y-106207000D01*
X121760250Y-106207000D01*
X121842000Y-106125250D01*
X121842135Y-106044222D01*
X124739488Y-106044222D01*
X124742152Y-106207000D01*
X125257000Y-106207000D01*
X126203000Y-106207000D01*
X126717848Y-106207000D01*
X126720512Y-106044222D01*
X127279488Y-106044222D01*
X127282152Y-106207000D01*
X127797000Y-106207000D01*
X127797000Y-105683950D01*
X127634218Y-105689463D01*
X127453190Y-105832531D01*
X127303552Y-106008167D01*
X127279488Y-106044222D01*
X126720512Y-106044222D01*
X126696448Y-106008167D01*
X126546810Y-105832531D01*
X126365782Y-105689463D01*
X126203000Y-105683950D01*
X126203000Y-106207000D01*
X125257000Y-106207000D01*
X125257000Y-105683950D01*
X125094218Y-105689463D01*
X124913190Y-105832531D01*
X124763552Y-106008167D01*
X124739488Y-106044222D01*
X121842135Y-106044222D01*
X121843582Y-105180000D01*
X121837268Y-105115897D01*
X121818570Y-105054257D01*
X121788206Y-104997450D01*
X121747343Y-104947657D01*
X121697550Y-104906794D01*
X121640743Y-104876430D01*
X121579103Y-104857732D01*
X121515000Y-104851418D01*
X120569750Y-104853000D01*
X120488000Y-104934750D01*
X119542000Y-104934750D01*
X119460250Y-104853000D01*
X118515000Y-104851418D01*
X118450897Y-104857732D01*
X118389257Y-104876430D01*
X118332450Y-104906794D01*
X118282657Y-104947657D01*
X118241794Y-104997450D01*
X118237000Y-105006419D01*
X118237000Y-104775778D01*
X124739488Y-104775778D01*
X124763552Y-104811833D01*
X124913190Y-104987469D01*
X125094218Y-105130537D01*
X125257000Y-105136050D01*
X125257000Y-104613000D01*
X126203000Y-104613000D01*
X126203000Y-105136050D01*
X126365782Y-105130537D01*
X126546810Y-104987469D01*
X126696448Y-104811833D01*
X126720512Y-104775778D01*
X127279488Y-104775778D01*
X127303552Y-104811833D01*
X127453190Y-104987469D01*
X127634218Y-105130537D01*
X127797000Y-105136050D01*
X127797000Y-104613000D01*
X127282152Y-104613000D01*
X127279488Y-104775778D01*
X126720512Y-104775778D01*
X126717848Y-104613000D01*
X126203000Y-104613000D01*
X125257000Y-104613000D01*
X124742152Y-104613000D01*
X124739488Y-104775778D01*
X118237000Y-104775778D01*
X118237000Y-103504222D01*
X124739488Y-103504222D01*
X124742152Y-103667000D01*
X125257000Y-103667000D01*
X126203000Y-103667000D01*
X126717848Y-103667000D01*
X126720512Y-103504222D01*
X127279488Y-103504222D01*
X127282152Y-103667000D01*
X127797000Y-103667000D01*
X127797000Y-103143950D01*
X127634218Y-103149463D01*
X127453190Y-103292531D01*
X127303552Y-103468167D01*
X127279488Y-103504222D01*
X126720512Y-103504222D01*
X126696448Y-103468167D01*
X126546810Y-103292531D01*
X126365782Y-103149463D01*
X126203000Y-103143950D01*
X126203000Y-103667000D01*
X125257000Y-103667000D01*
X125257000Y-103143950D01*
X125094218Y-103149463D01*
X124913190Y-103292531D01*
X124763552Y-103468167D01*
X124739488Y-103504222D01*
X118237000Y-103504222D01*
X118237000Y-102235778D01*
X124739488Y-102235778D01*
X124763552Y-102271833D01*
X124913190Y-102447469D01*
X125094218Y-102590537D01*
X125257000Y-102596050D01*
X125257000Y-102073000D01*
X126203000Y-102073000D01*
X126203000Y-102596050D01*
X126365782Y-102590537D01*
X126546810Y-102447469D01*
X126696448Y-102271833D01*
X126720512Y-102235778D01*
X127279488Y-102235778D01*
X127303552Y-102271833D01*
X127453190Y-102447469D01*
X127634218Y-102590537D01*
X127797000Y-102596050D01*
X127797000Y-102073000D01*
X127282152Y-102073000D01*
X127279488Y-102235778D01*
X126720512Y-102235778D01*
X126717848Y-102073000D01*
X126203000Y-102073000D01*
X125257000Y-102073000D01*
X124742152Y-102073000D01*
X124739488Y-102235778D01*
X118237000Y-102235778D01*
X118237000Y-100964222D01*
X124739488Y-100964222D01*
X124742152Y-101127000D01*
X125257000Y-101127000D01*
X126203000Y-101127000D01*
X126717848Y-101127000D01*
X126720512Y-100964222D01*
X127279488Y-100964222D01*
X127282152Y-101127000D01*
X127797000Y-101127000D01*
X127797000Y-100603950D01*
X127634218Y-100609463D01*
X127453190Y-100752531D01*
X127303552Y-100928167D01*
X127279488Y-100964222D01*
X126720512Y-100964222D01*
X126696448Y-100928167D01*
X126546810Y-100752531D01*
X126365782Y-100609463D01*
X126203000Y-100603950D01*
X126203000Y-101127000D01*
X125257000Y-101127000D01*
X125257000Y-100603950D01*
X125094218Y-100609463D01*
X124913190Y-100752531D01*
X124763552Y-100928167D01*
X124739488Y-100964222D01*
X118237000Y-100964222D01*
X118237000Y-99695778D01*
X124739488Y-99695778D01*
X124763552Y-99731833D01*
X124913190Y-99907469D01*
X125094218Y-100050537D01*
X125257000Y-100056050D01*
X125257000Y-99533000D01*
X126203000Y-99533000D01*
X126203000Y-100056050D01*
X126365782Y-100050537D01*
X126546810Y-99907469D01*
X126696448Y-99731833D01*
X126720512Y-99695778D01*
X127279488Y-99695778D01*
X127303552Y-99731833D01*
X127453190Y-99907469D01*
X127634218Y-100050537D01*
X127797000Y-100056050D01*
X127797000Y-99533000D01*
X127282152Y-99533000D01*
X127279488Y-99695778D01*
X126720512Y-99695778D01*
X126717848Y-99533000D01*
X126203000Y-99533000D01*
X125257000Y-99533000D01*
X124742152Y-99533000D01*
X124739488Y-99695778D01*
X118237000Y-99695778D01*
X118237000Y-98424222D01*
X124739488Y-98424222D01*
X124742152Y-98587000D01*
X125257000Y-98587000D01*
X126203000Y-98587000D01*
X126717848Y-98587000D01*
X126720512Y-98424222D01*
X127279488Y-98424222D01*
X127282152Y-98587000D01*
X127797000Y-98587000D01*
X127797000Y-98063950D01*
X127634218Y-98069463D01*
X127453190Y-98212531D01*
X127303552Y-98388167D01*
X127279488Y-98424222D01*
X126720512Y-98424222D01*
X126696448Y-98388167D01*
X126546810Y-98212531D01*
X126365782Y-98069463D01*
X126203000Y-98063950D01*
X126203000Y-98587000D01*
X125257000Y-98587000D01*
X125257000Y-98063950D01*
X125094218Y-98069463D01*
X124913190Y-98212531D01*
X124763552Y-98388167D01*
X124739488Y-98424222D01*
X118237000Y-98424222D01*
X118237000Y-97155778D01*
X124739488Y-97155778D01*
X124763552Y-97191833D01*
X124913190Y-97367469D01*
X125094218Y-97510537D01*
X125257000Y-97516050D01*
X125257000Y-96993000D01*
X126203000Y-96993000D01*
X126203000Y-97516050D01*
X126365782Y-97510537D01*
X126546810Y-97367469D01*
X126696448Y-97191833D01*
X126720512Y-97155778D01*
X127279488Y-97155778D01*
X127303552Y-97191833D01*
X127453190Y-97367469D01*
X127634218Y-97510537D01*
X127797000Y-97516050D01*
X127797000Y-96993000D01*
X127282152Y-96993000D01*
X127279488Y-97155778D01*
X126720512Y-97155778D01*
X126717848Y-96993000D01*
X126203000Y-96993000D01*
X125257000Y-96993000D01*
X124742152Y-96993000D01*
X124739488Y-97155778D01*
X118237000Y-97155778D01*
X118237000Y-95884222D01*
X124739488Y-95884222D01*
X124742152Y-96047000D01*
X125257000Y-96047000D01*
X126203000Y-96047000D01*
X126717848Y-96047000D01*
X126720512Y-95884222D01*
X127279488Y-95884222D01*
X127282152Y-96047000D01*
X127797000Y-96047000D01*
X127797000Y-95523950D01*
X127634218Y-95529463D01*
X127453190Y-95672531D01*
X127303552Y-95848167D01*
X127279488Y-95884222D01*
X126720512Y-95884222D01*
X126696448Y-95848167D01*
X126546810Y-95672531D01*
X126365782Y-95529463D01*
X126203000Y-95523950D01*
X126203000Y-96047000D01*
X125257000Y-96047000D01*
X125257000Y-95523950D01*
X125094218Y-95529463D01*
X124913190Y-95672531D01*
X124763552Y-95848167D01*
X124739488Y-95884222D01*
X118237000Y-95884222D01*
X118237000Y-95556806D01*
X118487861Y-95660716D01*
X119323828Y-95827000D01*
X120176172Y-95827000D01*
X121012139Y-95660716D01*
X121799603Y-95334538D01*
X122508302Y-94861001D01*
X122753525Y-94615778D01*
X124739488Y-94615778D01*
X124763552Y-94651833D01*
X124913190Y-94827469D01*
X125094218Y-94970537D01*
X125257000Y-94976050D01*
X125257000Y-94453000D01*
X126203000Y-94453000D01*
X126203000Y-94976050D01*
X126365782Y-94970537D01*
X126546810Y-94827469D01*
X126696448Y-94651833D01*
X126720512Y-94615778D01*
X127279488Y-94615778D01*
X127303552Y-94651833D01*
X127453190Y-94827469D01*
X127634218Y-94970537D01*
X127797000Y-94976050D01*
X127797000Y-94453000D01*
X127282152Y-94453000D01*
X127279488Y-94615778D01*
X126720512Y-94615778D01*
X126717848Y-94453000D01*
X126203000Y-94453000D01*
X125257000Y-94453000D01*
X124742152Y-94453000D01*
X124739488Y-94615778D01*
X122753525Y-94615778D01*
X123111001Y-94258302D01*
X123584538Y-93549603D01*
X123669609Y-93344222D01*
X124739488Y-93344222D01*
X124742152Y-93507000D01*
X125257000Y-93507000D01*
X126203000Y-93507000D01*
X126717848Y-93507000D01*
X126720512Y-93344222D01*
X127279488Y-93344222D01*
X127282152Y-93507000D01*
X127797000Y-93507000D01*
X127797000Y-92983950D01*
X127634218Y-92989463D01*
X127453190Y-93132531D01*
X127303552Y-93308167D01*
X127279488Y-93344222D01*
X126720512Y-93344222D01*
X126696448Y-93308167D01*
X126546810Y-93132531D01*
X126365782Y-92989463D01*
X126203000Y-92983950D01*
X126203000Y-93507000D01*
X125257000Y-93507000D01*
X125257000Y-92983950D01*
X125094218Y-92989463D01*
X124913190Y-93132531D01*
X124763552Y-93308167D01*
X124739488Y-93344222D01*
X123669609Y-93344222D01*
X123910716Y-92762139D01*
X124047241Y-92075778D01*
X124739488Y-92075778D01*
X124763552Y-92111833D01*
X124913190Y-92287469D01*
X125094218Y-92430537D01*
X125257000Y-92436050D01*
X125257000Y-91913000D01*
X126203000Y-91913000D01*
X126203000Y-92436050D01*
X126365782Y-92430537D01*
X126546810Y-92287469D01*
X126696448Y-92111833D01*
X126720512Y-92075778D01*
X127279488Y-92075778D01*
X127303552Y-92111833D01*
X127453190Y-92287469D01*
X127634218Y-92430537D01*
X127797000Y-92436050D01*
X127797000Y-91913000D01*
X127282152Y-91913000D01*
X127279488Y-92075778D01*
X126720512Y-92075778D01*
X126717848Y-91913000D01*
X126203000Y-91913000D01*
X125257000Y-91913000D01*
X124742152Y-91913000D01*
X124739488Y-92075778D01*
X124047241Y-92075778D01*
X124077000Y-91926172D01*
X124077000Y-91073828D01*
X124023373Y-90804222D01*
X124739488Y-90804222D01*
X124742152Y-90967000D01*
X125257000Y-90967000D01*
X126203000Y-90967000D01*
X126717848Y-90967000D01*
X126720512Y-90804222D01*
X127279488Y-90804222D01*
X127282152Y-90967000D01*
X127797000Y-90967000D01*
X127797000Y-90443950D01*
X127634218Y-90449463D01*
X127453190Y-90592531D01*
X127303552Y-90768167D01*
X127279488Y-90804222D01*
X126720512Y-90804222D01*
X126696448Y-90768167D01*
X126546810Y-90592531D01*
X126365782Y-90449463D01*
X126203000Y-90443950D01*
X126203000Y-90967000D01*
X125257000Y-90967000D01*
X125257000Y-90443950D01*
X125094218Y-90449463D01*
X124913190Y-90592531D01*
X124763552Y-90768167D01*
X124739488Y-90804222D01*
X124023373Y-90804222D01*
X123910716Y-90237861D01*
X123619904Y-89535778D01*
X124739488Y-89535778D01*
X124763552Y-89571833D01*
X124913190Y-89747469D01*
X125094218Y-89890537D01*
X125257000Y-89896050D01*
X125257000Y-89373000D01*
X126203000Y-89373000D01*
X126203000Y-89896050D01*
X126365782Y-89890537D01*
X126546810Y-89747469D01*
X126696448Y-89571833D01*
X126720512Y-89535778D01*
X127279488Y-89535778D01*
X127303552Y-89571833D01*
X127453190Y-89747469D01*
X127634218Y-89890537D01*
X127797000Y-89896050D01*
X127797000Y-89373000D01*
X127282152Y-89373000D01*
X127279488Y-89535778D01*
X126720512Y-89535778D01*
X126717848Y-89373000D01*
X126203000Y-89373000D01*
X125257000Y-89373000D01*
X124742152Y-89373000D01*
X124739488Y-89535778D01*
X123619904Y-89535778D01*
X123584538Y-89450397D01*
X123111001Y-88741698D01*
X122633525Y-88264222D01*
X124739488Y-88264222D01*
X124742152Y-88427000D01*
X125257000Y-88427000D01*
X126203000Y-88427000D01*
X126717848Y-88427000D01*
X126720512Y-88264222D01*
X127279488Y-88264222D01*
X127282152Y-88427000D01*
X127797000Y-88427000D01*
X127797000Y-87903950D01*
X127634218Y-87909463D01*
X127453190Y-88052531D01*
X127303552Y-88228167D01*
X127279488Y-88264222D01*
X126720512Y-88264222D01*
X126696448Y-88228167D01*
X126546810Y-88052531D01*
X126365782Y-87909463D01*
X126203000Y-87903950D01*
X126203000Y-88427000D01*
X125257000Y-88427000D01*
X125257000Y-87903950D01*
X125094218Y-87909463D01*
X124913190Y-88052531D01*
X124763552Y-88228167D01*
X124739488Y-88264222D01*
X122633525Y-88264222D01*
X122508302Y-88138999D01*
X121799603Y-87665462D01*
X121012139Y-87339284D01*
X120176172Y-87173000D01*
X119323828Y-87173000D01*
X118487861Y-87339284D01*
X118237000Y-87443194D01*
X118237000Y-86995778D01*
X124739488Y-86995778D01*
X124763552Y-87031833D01*
X124913190Y-87207469D01*
X125094218Y-87350537D01*
X125257000Y-87356050D01*
X125257000Y-86833000D01*
X126203000Y-86833000D01*
X126203000Y-87356050D01*
X126365782Y-87350537D01*
X126546810Y-87207469D01*
X126696448Y-87031833D01*
X126720512Y-86995778D01*
X127279488Y-86995778D01*
X127303552Y-87031833D01*
X127453190Y-87207469D01*
X127634218Y-87350537D01*
X127797000Y-87356050D01*
X127797000Y-86833000D01*
X127282152Y-86833000D01*
X127279488Y-86995778D01*
X126720512Y-86995778D01*
X126717848Y-86833000D01*
X126203000Y-86833000D01*
X125257000Y-86833000D01*
X124742152Y-86833000D01*
X124739488Y-86995778D01*
X118237000Y-86995778D01*
X118237000Y-85724222D01*
X124739488Y-85724222D01*
X124742152Y-85887000D01*
X125257000Y-85887000D01*
X126203000Y-85887000D01*
X126717848Y-85887000D01*
X126720512Y-85724222D01*
X127279488Y-85724222D01*
X127282152Y-85887000D01*
X127797000Y-85887000D01*
X127797000Y-85363950D01*
X127634218Y-85369463D01*
X127453190Y-85512531D01*
X127303552Y-85688167D01*
X127279488Y-85724222D01*
X126720512Y-85724222D01*
X126696448Y-85688167D01*
X126546810Y-85512531D01*
X126365782Y-85369463D01*
X126203000Y-85363950D01*
X126203000Y-85887000D01*
X125257000Y-85887000D01*
X125257000Y-85363950D01*
X125094218Y-85369463D01*
X124913190Y-85512531D01*
X124763552Y-85688167D01*
X124739488Y-85724222D01*
X118237000Y-85724222D01*
X118237000Y-84455778D01*
X124739488Y-84455778D01*
X124763552Y-84491833D01*
X124913190Y-84667469D01*
X125094218Y-84810537D01*
X125257000Y-84816050D01*
X125257000Y-84293000D01*
X126203000Y-84293000D01*
X126203000Y-84816050D01*
X126365782Y-84810537D01*
X126546810Y-84667469D01*
X126696448Y-84491833D01*
X126720512Y-84455778D01*
X127279488Y-84455778D01*
X127303552Y-84491833D01*
X127453190Y-84667469D01*
X127634218Y-84810537D01*
X127797000Y-84816050D01*
X127797000Y-84293000D01*
X127282152Y-84293000D01*
X127279488Y-84455778D01*
X126720512Y-84455778D01*
X126717848Y-84293000D01*
X126203000Y-84293000D01*
X125257000Y-84293000D01*
X124742152Y-84293000D01*
X124739488Y-84455778D01*
X118237000Y-84455778D01*
X118237000Y-83853727D01*
X118619574Y-83184222D01*
X124739488Y-83184222D01*
X124742152Y-83347000D01*
X125257000Y-83347000D01*
X126203000Y-83347000D01*
X126717848Y-83347000D01*
X126720512Y-83184222D01*
X127279488Y-83184222D01*
X127282152Y-83347000D01*
X127797000Y-83347000D01*
X127797000Y-82823950D01*
X127634218Y-82829463D01*
X127453190Y-82972531D01*
X127303552Y-83148167D01*
X127279488Y-83184222D01*
X126720512Y-83184222D01*
X126696448Y-83148167D01*
X126546810Y-82972531D01*
X126365782Y-82829463D01*
X126203000Y-82823950D01*
X126203000Y-83347000D01*
X125257000Y-83347000D01*
X125257000Y-82823950D01*
X125094218Y-82829463D01*
X124913190Y-82972531D01*
X124763552Y-83148167D01*
X124739488Y-83184222D01*
X118619574Y-83184222D01*
X119344398Y-81915778D01*
X124739488Y-81915778D01*
X124763552Y-81951833D01*
X124913190Y-82127469D01*
X125094218Y-82270537D01*
X125257000Y-82276050D01*
X125257000Y-81753000D01*
X126203000Y-81753000D01*
X126203000Y-82276050D01*
X126365782Y-82270537D01*
X126546810Y-82127469D01*
X126696448Y-81951833D01*
X126720512Y-81915778D01*
X127279488Y-81915778D01*
X127303552Y-81951833D01*
X127453190Y-82127469D01*
X127634218Y-82270537D01*
X127797000Y-82276050D01*
X127797000Y-81753000D01*
X127282152Y-81753000D01*
X127279488Y-81915778D01*
X126720512Y-81915778D01*
X126717848Y-81753000D01*
X126203000Y-81753000D01*
X125257000Y-81753000D01*
X124742152Y-81753000D01*
X124739488Y-81915778D01*
X119344398Y-81915778D01*
X120071001Y-80644222D01*
X124739488Y-80644222D01*
X124742152Y-80807000D01*
X125257000Y-80807000D01*
X126203000Y-80807000D01*
X126717848Y-80807000D01*
X126720512Y-80644222D01*
X127279488Y-80644222D01*
X127282152Y-80807000D01*
X127797000Y-80807000D01*
X127797000Y-80283950D01*
X127634218Y-80289463D01*
X127453190Y-80432531D01*
X127303552Y-80608167D01*
X127279488Y-80644222D01*
X126720512Y-80644222D01*
X126696448Y-80608167D01*
X126546810Y-80432531D01*
X126365782Y-80289463D01*
X126203000Y-80283950D01*
X126203000Y-80807000D01*
X125257000Y-80807000D01*
X125257000Y-80283950D01*
X125094218Y-80289463D01*
X124913190Y-80432531D01*
X124763552Y-80608167D01*
X124739488Y-80644222D01*
X120071001Y-80644222D01*
X120795826Y-79375778D01*
X124739488Y-79375778D01*
X124763552Y-79411833D01*
X124913190Y-79587469D01*
X125094218Y-79730537D01*
X125257000Y-79736050D01*
X125257000Y-79213000D01*
X126203000Y-79213000D01*
X126203000Y-79736050D01*
X126365782Y-79730537D01*
X126546810Y-79587469D01*
X126696448Y-79411833D01*
X126720512Y-79375778D01*
X127279488Y-79375778D01*
X127303552Y-79411833D01*
X127453190Y-79587469D01*
X127634218Y-79730537D01*
X127797000Y-79736050D01*
X127797000Y-79213000D01*
X127282152Y-79213000D01*
X127279488Y-79375778D01*
X126720512Y-79375778D01*
X126717848Y-79213000D01*
X126203000Y-79213000D01*
X125257000Y-79213000D01*
X124742152Y-79213000D01*
X124739488Y-79375778D01*
X120795826Y-79375778D01*
X121522429Y-78104222D01*
X124739488Y-78104222D01*
X124742152Y-78267000D01*
X125257000Y-78267000D01*
X126203000Y-78267000D01*
X126717848Y-78267000D01*
X126720512Y-78104222D01*
X127279488Y-78104222D01*
X127282152Y-78267000D01*
X127797000Y-78267000D01*
X127797000Y-77743950D01*
X127634218Y-77749463D01*
X127453190Y-77892531D01*
X127303552Y-78068167D01*
X127279488Y-78104222D01*
X126720512Y-78104222D01*
X126696448Y-78068167D01*
X126546810Y-77892531D01*
X126365782Y-77749463D01*
X126203000Y-77743950D01*
X126203000Y-78267000D01*
X125257000Y-78267000D01*
X125257000Y-77743950D01*
X125094218Y-77749463D01*
X124913190Y-77892531D01*
X124763552Y-78068167D01*
X124739488Y-78104222D01*
X121522429Y-78104222D01*
X122124843Y-77050000D01*
X124551418Y-77050000D01*
X124557732Y-77114103D01*
X124576430Y-77175743D01*
X124606794Y-77232550D01*
X124647657Y-77282343D01*
X124697450Y-77323206D01*
X124754257Y-77353570D01*
X124815897Y-77372268D01*
X124880000Y-77378582D01*
X125175250Y-77377000D01*
X125257000Y-77295250D01*
X125257000Y-76673000D01*
X126203000Y-76673000D01*
X126203000Y-77295250D01*
X126284750Y-77377000D01*
X126580000Y-77378582D01*
X126644103Y-77372268D01*
X126705743Y-77353570D01*
X126762550Y-77323206D01*
X126812343Y-77282343D01*
X126853206Y-77232550D01*
X126883570Y-77175743D01*
X126902268Y-77114103D01*
X126908582Y-77050000D01*
X126907435Y-76835778D01*
X127279488Y-76835778D01*
X127303552Y-76871833D01*
X127453190Y-77047469D01*
X127634218Y-77190537D01*
X127797000Y-77196050D01*
X127797000Y-76673000D01*
X127282152Y-76673000D01*
X127279488Y-76835778D01*
X126907435Y-76835778D01*
X126907000Y-76754750D01*
X126825250Y-76673000D01*
X126203000Y-76673000D01*
X125257000Y-76673000D01*
X124634750Y-76673000D01*
X124553000Y-76754750D01*
X124551418Y-77050000D01*
X122124843Y-77050000D01*
X123263701Y-75057000D01*
X124734482Y-75057000D01*
X124697450Y-75076794D01*
G37*
%TD.AperFunction*%
%TD*%
D26*
%TO.N,GND_VB1*%
X194183000Y-91948000D02*
X181622577Y-91948000D01*
X178459907Y-91315466D01*
X178435000Y-91313000D01*
X176022000Y-91313000D01*
X176022000Y-89027000D01*
X178435000Y-89027000D01*
X178459907Y-89024534D01*
X181622577Y-88392000D01*
X194183000Y-88392000D01*
X194183000Y-91948000D01*
%TA.AperFunction,Conductor*%
D27*
G36*
X194183000Y-91948000D02*
G01*
X181622577Y-91948000D01*
X178459907Y-91315466D01*
X178435000Y-91313000D01*
X176022000Y-91313000D01*
X176022000Y-89027000D01*
X178435000Y-89027000D01*
X178459907Y-89024534D01*
X181622577Y-88392000D01*
X194183000Y-88392000D01*
X194183000Y-91948000D01*
G37*
%TD.AperFunction*%
%TD*%
D26*
%TO.N,+12_VB1*%
X194183000Y-86868000D02*
X181004980Y-86868000D01*
X178491796Y-85611408D01*
X178468544Y-85602510D01*
X178435000Y-85598000D01*
X176022000Y-85598000D01*
X176022000Y-83312000D01*
X194183000Y-83312000D01*
X194183000Y-86868000D01*
%TA.AperFunction,Conductor*%
D27*
G36*
X194183000Y-86868000D02*
G01*
X181004980Y-86868000D01*
X178491796Y-85611408D01*
X178468544Y-85602510D01*
X178435000Y-85598000D01*
X176022000Y-85598000D01*
X176022000Y-83312000D01*
X194183000Y-83312000D01*
X194183000Y-86868000D01*
G37*
%TD.AperFunction*%
%TD*%
D26*
%TO.N,T0R*%
X114808000Y-126365000D02*
X114810440Y-126389776D01*
X114814517Y-126405161D01*
X115443000Y-128290610D01*
X115443000Y-139573000D01*
X111887000Y-139573000D01*
X111887000Y-128290610D01*
X112515483Y-126405161D01*
X112521003Y-126380884D01*
X112522000Y-126365000D01*
X112522000Y-123952000D01*
X114808000Y-123952000D01*
X114808000Y-126365000D01*
%TA.AperFunction,Conductor*%
D27*
G36*
X114808000Y-126365000D02*
G01*
X114810440Y-126389776D01*
X114814517Y-126405161D01*
X115443000Y-128290610D01*
X115443000Y-139573000D01*
X111887000Y-139573000D01*
X111887000Y-128290610D01*
X112515483Y-126405161D01*
X112521003Y-126380884D01*
X112522000Y-126365000D01*
X112522000Y-123952000D01*
X114808000Y-123952000D01*
X114808000Y-126365000D01*
G37*
%TD.AperFunction*%
%TD*%
D26*
%TO.N,T0G*%
X119888000Y-126365000D02*
X119890440Y-126389776D01*
X119894517Y-126405161D01*
X120523000Y-128290610D01*
X120523000Y-139573000D01*
X116967000Y-139573000D01*
X116967000Y-128290610D01*
X117595483Y-126405161D01*
X117601003Y-126380884D01*
X117602000Y-126365000D01*
X117602000Y-123952000D01*
X119888000Y-123952000D01*
X119888000Y-126365000D01*
%TA.AperFunction,Conductor*%
D27*
G36*
X119888000Y-126365000D02*
G01*
X119890440Y-126389776D01*
X119894517Y-126405161D01*
X120523000Y-128290610D01*
X120523000Y-139573000D01*
X116967000Y-139573000D01*
X116967000Y-128290610D01*
X117595483Y-126405161D01*
X117601003Y-126380884D01*
X117602000Y-126365000D01*
X117602000Y-123952000D01*
X119888000Y-123952000D01*
X119888000Y-126365000D01*
G37*
%TD.AperFunction*%
%TD*%
D26*
%TO.N,T0B*%
X124968000Y-126365000D02*
X124970440Y-126389776D01*
X124974517Y-126405161D01*
X125603000Y-128290610D01*
X125603000Y-139573000D01*
X122047000Y-139573000D01*
X122047000Y-128290610D01*
X122675483Y-126405161D01*
X122681003Y-126380884D01*
X122682000Y-126365000D01*
X122682000Y-123952000D01*
X124968000Y-123952000D01*
X124968000Y-126365000D01*
%TA.AperFunction,Conductor*%
D27*
G36*
X124968000Y-126365000D02*
G01*
X124970440Y-126389776D01*
X124974517Y-126405161D01*
X125603000Y-128290610D01*
X125603000Y-139573000D01*
X122047000Y-139573000D01*
X122047000Y-128290610D01*
X122675483Y-126405161D01*
X122681003Y-126380884D01*
X122682000Y-126365000D01*
X122682000Y-123952000D01*
X124968000Y-123952000D01*
X124968000Y-126365000D01*
G37*
%TD.AperFunction*%
%TD*%
D26*
%TO.N,T1R*%
X136398000Y-126365000D02*
X136400440Y-126389776D01*
X136404517Y-126405161D01*
X137033000Y-128290610D01*
X137033000Y-139573000D01*
X133477000Y-139573000D01*
X133477000Y-128290610D01*
X134105483Y-126405161D01*
X134111003Y-126380884D01*
X134112000Y-126365000D01*
X134112000Y-123952000D01*
X136398000Y-123952000D01*
X136398000Y-126365000D01*
%TA.AperFunction,Conductor*%
D27*
G36*
X136398000Y-126365000D02*
G01*
X136400440Y-126389776D01*
X136404517Y-126405161D01*
X137033000Y-128290610D01*
X137033000Y-139573000D01*
X133477000Y-139573000D01*
X133477000Y-128290610D01*
X134105483Y-126405161D01*
X134111003Y-126380884D01*
X134112000Y-126365000D01*
X134112000Y-123952000D01*
X136398000Y-123952000D01*
X136398000Y-126365000D01*
G37*
%TD.AperFunction*%
%TD*%
D26*
%TO.N,T1G*%
X141478000Y-126365000D02*
X141480440Y-126389776D01*
X141484517Y-126405161D01*
X142113000Y-128290610D01*
X142113000Y-139573000D01*
X138557000Y-139573000D01*
X138557000Y-128290610D01*
X139185483Y-126405161D01*
X139191003Y-126380884D01*
X139192000Y-126365000D01*
X139192000Y-123952000D01*
X141478000Y-123952000D01*
X141478000Y-126365000D01*
%TA.AperFunction,Conductor*%
D27*
G36*
X141478000Y-126365000D02*
G01*
X141480440Y-126389776D01*
X141484517Y-126405161D01*
X142113000Y-128290610D01*
X142113000Y-139573000D01*
X138557000Y-139573000D01*
X138557000Y-128290610D01*
X139185483Y-126405161D01*
X139191003Y-126380884D01*
X139192000Y-126365000D01*
X139192000Y-123952000D01*
X141478000Y-123952000D01*
X141478000Y-126365000D01*
G37*
%TD.AperFunction*%
%TD*%
D26*
%TO.N,T1B*%
X147193000Y-126365000D02*
X147195440Y-126389776D01*
X147199517Y-126405161D01*
X147828000Y-128290610D01*
X147828000Y-139573000D01*
X144272000Y-139573000D01*
X144272000Y-128290610D01*
X144900483Y-126405161D01*
X144906003Y-126380884D01*
X144907000Y-126365000D01*
X144907000Y-123952000D01*
X147193000Y-123952000D01*
X147193000Y-126365000D01*
%TA.AperFunction,Conductor*%
D27*
G36*
X147193000Y-126365000D02*
G01*
X147195440Y-126389776D01*
X147199517Y-126405161D01*
X147828000Y-128290610D01*
X147828000Y-139573000D01*
X144272000Y-139573000D01*
X144272000Y-128290610D01*
X144900483Y-126405161D01*
X144906003Y-126380884D01*
X144907000Y-126365000D01*
X144907000Y-123952000D01*
X147193000Y-123952000D01*
X147193000Y-126365000D01*
G37*
%TD.AperFunction*%
%TD*%
D26*
%TO.N,T2R*%
X157353000Y-126365000D02*
X157355440Y-126389776D01*
X157359517Y-126405161D01*
X157988000Y-128290610D01*
X157988000Y-139573000D01*
X154432000Y-139573000D01*
X154432000Y-128920634D01*
X155063208Y-126395802D01*
X155067000Y-126365000D01*
X155067000Y-123952000D01*
X157353000Y-123952000D01*
X157353000Y-126365000D01*
%TA.AperFunction,Conductor*%
D27*
G36*
X157353000Y-126365000D02*
G01*
X157355440Y-126389776D01*
X157359517Y-126405161D01*
X157988000Y-128290610D01*
X157988000Y-139573000D01*
X154432000Y-139573000D01*
X154432000Y-128920634D01*
X155063208Y-126395802D01*
X155067000Y-126365000D01*
X155067000Y-123952000D01*
X157353000Y-123952000D01*
X157353000Y-126365000D01*
G37*
%TD.AperFunction*%
%TD*%
D26*
%TO.N,T2G*%
X162433000Y-126365000D02*
X162435440Y-126389776D01*
X162439517Y-126405161D01*
X163068000Y-128290610D01*
X163068000Y-139573000D01*
X159512000Y-139573000D01*
X159512000Y-128290610D01*
X160140483Y-126405161D01*
X160146003Y-126380884D01*
X160147000Y-126365000D01*
X160147000Y-123952000D01*
X162433000Y-123952000D01*
X162433000Y-126365000D01*
%TA.AperFunction,Conductor*%
D27*
G36*
X162433000Y-126365000D02*
G01*
X162435440Y-126389776D01*
X162439517Y-126405161D01*
X163068000Y-128290610D01*
X163068000Y-139573000D01*
X159512000Y-139573000D01*
X159512000Y-128290610D01*
X160140483Y-126405161D01*
X160146003Y-126380884D01*
X160147000Y-126365000D01*
X160147000Y-123952000D01*
X162433000Y-123952000D01*
X162433000Y-126365000D01*
G37*
%TD.AperFunction*%
%TD*%
D26*
%TO.N,T2B*%
X167513000Y-126365000D02*
X167515440Y-126389776D01*
X167519517Y-126405161D01*
X168148000Y-128290610D01*
X168148000Y-139573000D01*
X164592000Y-139573000D01*
X164592000Y-128290610D01*
X165220483Y-126405161D01*
X165226003Y-126380884D01*
X165227000Y-126365000D01*
X165227000Y-123952000D01*
X167513000Y-123952000D01*
X167513000Y-126365000D01*
%TA.AperFunction,Conductor*%
D27*
G36*
X167513000Y-126365000D02*
G01*
X167515440Y-126389776D01*
X167519517Y-126405161D01*
X168148000Y-128290610D01*
X168148000Y-139573000D01*
X164592000Y-139573000D01*
X164592000Y-128290610D01*
X165220483Y-126405161D01*
X165226003Y-126380884D01*
X165227000Y-126365000D01*
X165227000Y-123952000D01*
X167513000Y-123952000D01*
X167513000Y-126365000D01*
G37*
%TD.AperFunction*%
%TD*%
D26*
%TO.N,T3B*%
X185293000Y-124407394D02*
X184060197Y-125640197D01*
X184044403Y-125659443D01*
X184032667Y-125681399D01*
X184025440Y-125705224D01*
X184023000Y-125730000D01*
X184023000Y-128143000D01*
X181737000Y-128143000D01*
X181737000Y-113157000D01*
X185293000Y-113157000D01*
X185293000Y-124407394D01*
%TA.AperFunction,Conductor*%
D27*
G36*
X185293000Y-124407394D02*
G01*
X184060197Y-125640197D01*
X184044403Y-125659443D01*
X184032667Y-125681399D01*
X184025440Y-125705224D01*
X184023000Y-125730000D01*
X184023000Y-128143000D01*
X181737000Y-128143000D01*
X181737000Y-113157000D01*
X185293000Y-113157000D01*
X185293000Y-124407394D01*
G37*
%TD.AperFunction*%
%TD*%
D26*
%TO.N,T3G*%
X180213000Y-124430020D02*
X179591408Y-125673204D01*
X179582510Y-125696456D01*
X179578000Y-125730000D01*
X179578000Y-128143000D01*
X177292000Y-128143000D01*
X177292000Y-125730000D01*
X177289560Y-125705224D01*
X177278592Y-125673204D01*
X176657000Y-124430020D01*
X176657000Y-113157000D01*
X180213000Y-113157000D01*
X180213000Y-124430020D01*
%TA.AperFunction,Conductor*%
D27*
G36*
X180213000Y-124430020D02*
G01*
X179591408Y-125673204D01*
X179582510Y-125696456D01*
X179578000Y-125730000D01*
X179578000Y-128143000D01*
X177292000Y-128143000D01*
X177292000Y-125730000D01*
X177289560Y-125705224D01*
X177278592Y-125673204D01*
X176657000Y-124430020D01*
X176657000Y-113157000D01*
X180213000Y-113157000D01*
X180213000Y-124430020D01*
G37*
%TD.AperFunction*%
%TD*%
D26*
%TO.N,T3R*%
X175133000Y-124430020D02*
X174511408Y-125673204D01*
X174502510Y-125696456D01*
X174498000Y-125730000D01*
X174498000Y-128143000D01*
X172212000Y-128143000D01*
X172212000Y-125730000D01*
X172209560Y-125705224D01*
X172205483Y-125689839D01*
X171577000Y-123804390D01*
X171577000Y-113157000D01*
X175133000Y-113157000D01*
X175133000Y-124430020D01*
%TA.AperFunction,Conductor*%
D27*
G36*
X175133000Y-124430020D02*
G01*
X174511408Y-125673204D01*
X174502510Y-125696456D01*
X174498000Y-125730000D01*
X174498000Y-128143000D01*
X172212000Y-128143000D01*
X172212000Y-125730000D01*
X172209560Y-125705224D01*
X172205483Y-125689839D01*
X171577000Y-123804390D01*
X171577000Y-113157000D01*
X175133000Y-113157000D01*
X175133000Y-124430020D01*
G37*
%TD.AperFunction*%
%TD*%
D26*
%TO.N,T4B*%
X192913000Y-98933000D02*
X181648452Y-98933000D01*
X179775447Y-97684330D01*
X179753478Y-97672617D01*
X179729646Y-97665414D01*
X179705000Y-97663000D01*
X177292000Y-97663000D01*
X177292000Y-95377000D01*
X192913000Y-95377000D01*
X192913000Y-98933000D01*
%TA.AperFunction,Conductor*%
D27*
G36*
X192913000Y-98933000D02*
G01*
X181648452Y-98933000D01*
X179775447Y-97684330D01*
X179753478Y-97672617D01*
X179729646Y-97665414D01*
X179705000Y-97663000D01*
X177292000Y-97663000D01*
X177292000Y-95377000D01*
X192913000Y-95377000D01*
X192913000Y-98933000D01*
G37*
%TD.AperFunction*%
%TD*%
D26*
%TO.N,T4G*%
X192913000Y-104013000D02*
X181630610Y-104013000D01*
X179745161Y-103384517D01*
X179720884Y-103378997D01*
X179705000Y-103378000D01*
X177292000Y-103378000D01*
X177292000Y-101092000D01*
X179705000Y-101092000D01*
X179735802Y-101088208D01*
X182260634Y-100457000D01*
X192913000Y-100457000D01*
X192913000Y-104013000D01*
%TA.AperFunction,Conductor*%
D27*
G36*
X192913000Y-104013000D02*
G01*
X181630610Y-104013000D01*
X179745161Y-103384517D01*
X179720884Y-103378997D01*
X179705000Y-103378000D01*
X177292000Y-103378000D01*
X177292000Y-101092000D01*
X179705000Y-101092000D01*
X179735802Y-101088208D01*
X182260634Y-100457000D01*
X192913000Y-100457000D01*
X192913000Y-104013000D01*
G37*
%TD.AperFunction*%
%TD*%
D26*
%TO.N,T4R*%
X192278000Y-109093000D02*
X181630610Y-109093000D01*
X179745161Y-108464517D01*
X179720884Y-108458997D01*
X179705000Y-108458000D01*
X177292000Y-108458000D01*
X177292000Y-106172000D01*
X179705000Y-106172000D01*
X179735802Y-106168208D01*
X182260634Y-105537000D01*
X192278000Y-105537000D01*
X192278000Y-109093000D01*
%TA.AperFunction,Conductor*%
D27*
G36*
X192278000Y-109093000D02*
G01*
X181630610Y-109093000D01*
X179745161Y-108464517D01*
X179720884Y-108458997D01*
X179705000Y-108458000D01*
X177292000Y-108458000D01*
X177292000Y-106172000D01*
X179705000Y-106172000D01*
X179735802Y-106168208D01*
X182260634Y-105537000D01*
X192278000Y-105537000D01*
X192278000Y-109093000D01*
G37*
%TD.AperFunction*%
%TD*%
D26*
%TO.N,T5B*%
X110363000Y-124444366D02*
X109731792Y-126969198D01*
X109728000Y-127000000D01*
X109728000Y-129413000D01*
X107442000Y-129413000D01*
X107442000Y-127000000D01*
X107439560Y-126975224D01*
X107435483Y-126959839D01*
X106807000Y-125074390D01*
X106807000Y-113792000D01*
X110363000Y-113792000D01*
X110363000Y-124444366D01*
%TA.AperFunction,Conductor*%
D27*
G36*
X110363000Y-124444366D02*
G01*
X109731792Y-126969198D01*
X109728000Y-127000000D01*
X109728000Y-129413000D01*
X107442000Y-129413000D01*
X107442000Y-127000000D01*
X107439560Y-126975224D01*
X107435483Y-126959839D01*
X106807000Y-125074390D01*
X106807000Y-113792000D01*
X110363000Y-113792000D01*
X110363000Y-124444366D01*
G37*
%TD.AperFunction*%
%TD*%
D26*
%TO.N,T5G*%
X105283000Y-124444366D02*
X104651792Y-126969198D01*
X104648000Y-127000000D01*
X104648000Y-129413000D01*
X102362000Y-129413000D01*
X102362000Y-127000000D01*
X102358208Y-126969198D01*
X101727000Y-124444366D01*
X101727000Y-113792000D01*
X105283000Y-113792000D01*
X105283000Y-124444366D01*
%TA.AperFunction,Conductor*%
D27*
G36*
X105283000Y-124444366D02*
G01*
X104651792Y-126969198D01*
X104648000Y-127000000D01*
X104648000Y-129413000D01*
X102362000Y-129413000D01*
X102362000Y-127000000D01*
X102358208Y-126969198D01*
X101727000Y-124444366D01*
X101727000Y-113792000D01*
X105283000Y-113792000D01*
X105283000Y-124444366D01*
G37*
%TD.AperFunction*%
%TD*%
D26*
%TO.N,T5R*%
X100203000Y-124430020D02*
X98946408Y-126943204D01*
X98937510Y-126966456D01*
X98933000Y-127000000D01*
X98933000Y-129413000D01*
X96647000Y-129413000D01*
X96647000Y-113792000D01*
X100203000Y-113792000D01*
X100203000Y-124430020D01*
%TA.AperFunction,Conductor*%
D27*
G36*
X100203000Y-124430020D02*
G01*
X98946408Y-126943204D01*
X98937510Y-126966456D01*
X98933000Y-127000000D01*
X98933000Y-129413000D01*
X96647000Y-129413000D01*
X96647000Y-113792000D01*
X100203000Y-113792000D01*
X100203000Y-124430020D01*
G37*
%TD.AperFunction*%
%TD*%
D26*
%TO.N,T6B*%
X100289839Y-97910483D02*
X100314116Y-97916003D01*
X100330000Y-97917000D01*
X102743000Y-97917000D01*
X102743000Y-100203000D01*
X100330000Y-100203000D01*
X100305224Y-100205440D01*
X100289839Y-100209517D01*
X98404390Y-100838000D01*
X87122000Y-100838000D01*
X87122000Y-97282000D01*
X98404390Y-97282000D01*
X100289839Y-97910483D01*
%TA.AperFunction,Conductor*%
D27*
G36*
X100289839Y-97910483D02*
G01*
X100314116Y-97916003D01*
X100330000Y-97917000D01*
X102743000Y-97917000D01*
X102743000Y-100203000D01*
X100330000Y-100203000D01*
X100305224Y-100205440D01*
X100289839Y-100209517D01*
X98404390Y-100838000D01*
X87122000Y-100838000D01*
X87122000Y-97282000D01*
X98404390Y-97282000D01*
X100289839Y-97910483D01*
G37*
%TD.AperFunction*%
%TD*%
D26*
%TO.N,T6G*%
X100289839Y-102990483D02*
X100314116Y-102996003D01*
X100330000Y-102997000D01*
X102743000Y-102997000D01*
X102743000Y-105283000D01*
X100330000Y-105283000D01*
X100305224Y-105285440D01*
X100289839Y-105289517D01*
X98404390Y-105918000D01*
X87122000Y-105918000D01*
X87122000Y-102362000D01*
X98404390Y-102362000D01*
X100289839Y-102990483D01*
%TA.AperFunction,Conductor*%
D27*
G36*
X100289839Y-102990483D02*
G01*
X100314116Y-102996003D01*
X100330000Y-102997000D01*
X102743000Y-102997000D01*
X102743000Y-105283000D01*
X100330000Y-105283000D01*
X100305224Y-105285440D01*
X100289839Y-105289517D01*
X98404390Y-105918000D01*
X87122000Y-105918000D01*
X87122000Y-102362000D01*
X98404390Y-102362000D01*
X100289839Y-102990483D01*
G37*
%TD.AperFunction*%
%TD*%
D26*
%TO.N,T6R*%
X100289839Y-108070483D02*
X100314116Y-108076003D01*
X100330000Y-108077000D01*
X102743000Y-108077000D01*
X102743000Y-110363000D01*
X100330000Y-110363000D01*
X100305224Y-110365440D01*
X100289839Y-110369517D01*
X98404390Y-110998000D01*
X87122000Y-110998000D01*
X87122000Y-107442000D01*
X98404390Y-107442000D01*
X100289839Y-108070483D01*
%TA.AperFunction,Conductor*%
D27*
G36*
X100289839Y-108070483D02*
G01*
X100314116Y-108076003D01*
X100330000Y-108077000D01*
X102743000Y-108077000D01*
X102743000Y-110363000D01*
X100330000Y-110363000D01*
X100305224Y-110365440D01*
X100289839Y-110369517D01*
X98404390Y-110998000D01*
X87122000Y-110998000D01*
X87122000Y-107442000D01*
X98404390Y-107442000D01*
X100289839Y-108070483D01*
G37*
%TD.AperFunction*%
%TD*%
D26*
%TO.N,T7B*%
X97749839Y-80765483D02*
X97774116Y-80771003D01*
X97790000Y-80772000D01*
X100203000Y-80772000D01*
X100203000Y-83058000D01*
X97790000Y-83058000D01*
X97765224Y-83060440D01*
X97749839Y-83064517D01*
X95864390Y-83693000D01*
X84582000Y-83693000D01*
X84582000Y-80137000D01*
X95864390Y-80137000D01*
X97749839Y-80765483D01*
%TA.AperFunction,Conductor*%
D27*
G36*
X97749839Y-80765483D02*
G01*
X97774116Y-80771003D01*
X97790000Y-80772000D01*
X100203000Y-80772000D01*
X100203000Y-83058000D01*
X97790000Y-83058000D01*
X97765224Y-83060440D01*
X97749839Y-83064517D01*
X95864390Y-83693000D01*
X84582000Y-83693000D01*
X84582000Y-80137000D01*
X95864390Y-80137000D01*
X97749839Y-80765483D01*
G37*
%TD.AperFunction*%
%TD*%
D26*
%TO.N,T7G*%
X97749839Y-85845483D02*
X97774116Y-85851003D01*
X97790000Y-85852000D01*
X100203000Y-85852000D01*
X100203000Y-88138000D01*
X97790000Y-88138000D01*
X97765224Y-88140440D01*
X97749839Y-88144517D01*
X95864390Y-88773000D01*
X84582000Y-88773000D01*
X84582000Y-85217000D01*
X95864390Y-85217000D01*
X97749839Y-85845483D01*
%TA.AperFunction,Conductor*%
D27*
G36*
X97749839Y-85845483D02*
G01*
X97774116Y-85851003D01*
X97790000Y-85852000D01*
X100203000Y-85852000D01*
X100203000Y-88138000D01*
X97790000Y-88138000D01*
X97765224Y-88140440D01*
X97749839Y-88144517D01*
X95864390Y-88773000D01*
X84582000Y-88773000D01*
X84582000Y-85217000D01*
X95864390Y-85217000D01*
X97749839Y-85845483D01*
G37*
%TD.AperFunction*%
%TD*%
D26*
%TO.N,T7R*%
X97749839Y-90925483D02*
X97774116Y-90931003D01*
X97790000Y-90932000D01*
X100203000Y-90932000D01*
X100203000Y-93218000D01*
X97790000Y-93218000D01*
X97765224Y-93220440D01*
X97749839Y-93224517D01*
X95864390Y-93853000D01*
X84582000Y-93853000D01*
X84582000Y-90297000D01*
X95864390Y-90297000D01*
X97749839Y-90925483D01*
%TA.AperFunction,Conductor*%
D27*
G36*
X97749839Y-90925483D02*
G01*
X97774116Y-90931003D01*
X97790000Y-90932000D01*
X100203000Y-90932000D01*
X100203000Y-93218000D01*
X97790000Y-93218000D01*
X97765224Y-93220440D01*
X97749839Y-93224517D01*
X95864390Y-93853000D01*
X84582000Y-93853000D01*
X84582000Y-90297000D01*
X95864390Y-90297000D01*
X97749839Y-90925483D01*
G37*
%TD.AperFunction*%
%TD*%
M02*
