%TF.GenerationSoftware,KiCad,Pcbnew,(5.1.9)-1*%
%TF.CreationDate,2021-04-12T23:14:19+02:00*%
%TF.ProjectId,Version1Male,56657273-696f-46e3-914d-616c652e6b69,rev?*%
%TF.SameCoordinates,Original*%
%TF.FileFunction,Legend,Bot*%
%TF.FilePolarity,Positive*%
%FSLAX46Y46*%
G04 Gerber Fmt 4.6, Leading zero omitted, Abs format (unit mm)*
G04 Created by KiCad (PCBNEW (5.1.9)-1) date 2021-04-12 23:14:19*
%MOMM*%
%LPD*%
G01*
G04 APERTURE LIST*
%ADD10C,0.120000*%
%ADD11C,0.150000*%
G04 APERTURE END LIST*
D10*
%TO.C,TP43*%
X181815000Y-76405000D02*
X181815000Y-79805000D01*
X181815000Y-79805000D02*
X185215000Y-79805000D01*
X185215000Y-79805000D02*
X185215000Y-76405000D01*
X185215000Y-76405000D02*
X181815000Y-76405000D01*
%TO.C,TP42*%
X181815000Y-72595000D02*
X181815000Y-75995000D01*
X181815000Y-75995000D02*
X185215000Y-75995000D01*
X185215000Y-75995000D02*
X185215000Y-72595000D01*
X185215000Y-72595000D02*
X181815000Y-72595000D01*
%TO.C,TP41*%
X181815000Y-68785000D02*
X181815000Y-72185000D01*
X181815000Y-72185000D02*
X185215000Y-72185000D01*
X185215000Y-72185000D02*
X185215000Y-68785000D01*
X185215000Y-68785000D02*
X181815000Y-68785000D01*
%TO.C,TP40*%
X178865000Y-88470000D02*
X175465000Y-88470000D01*
X175465000Y-88470000D02*
X175465000Y-91870000D01*
X175465000Y-91870000D02*
X178865000Y-91870000D01*
X178865000Y-91870000D02*
X178865000Y-88470000D01*
%TO.C,TP39*%
X178865000Y-82755000D02*
X175465000Y-82755000D01*
X175465000Y-82755000D02*
X175465000Y-86155000D01*
X175465000Y-86155000D02*
X178865000Y-86155000D01*
X178865000Y-86155000D02*
X178865000Y-82755000D01*
%TO.C,TP38*%
X118315000Y-108380000D02*
X121715000Y-108380000D01*
X121715000Y-108380000D02*
X121715000Y-104980000D01*
X121715000Y-104980000D02*
X118315000Y-104980000D01*
X118315000Y-104980000D02*
X118315000Y-108380000D01*
X118315000Y-112825000D02*
X121715000Y-112825000D01*
X121715000Y-112825000D02*
X121715000Y-109425000D01*
X121715000Y-109425000D02*
X118315000Y-109425000D01*
X118315000Y-109425000D02*
X118315000Y-112825000D01*
%TO.C,TP37*%
X156415000Y-109015000D02*
X159815000Y-109015000D01*
X159815000Y-109015000D02*
X159815000Y-105615000D01*
X159815000Y-105615000D02*
X156415000Y-105615000D01*
X156415000Y-105615000D02*
X156415000Y-109015000D01*
X156415000Y-113460000D02*
X159815000Y-113460000D01*
X159815000Y-113460000D02*
X159815000Y-110060000D01*
X159815000Y-110060000D02*
X156415000Y-110060000D01*
X156415000Y-110060000D02*
X156415000Y-113460000D01*
%TO.C,TP36*%
X169750000Y-68785000D02*
X169750000Y-72185000D01*
X169750000Y-72185000D02*
X173150000Y-72185000D01*
X173150000Y-72185000D02*
X173150000Y-68785000D01*
X173150000Y-68785000D02*
X169750000Y-68785000D01*
%TO.C,TP35*%
X169750000Y-73230000D02*
X169750000Y-76630000D01*
X169750000Y-76630000D02*
X173150000Y-76630000D01*
X173150000Y-76630000D02*
X173150000Y-73230000D01*
X173150000Y-73230000D02*
X169750000Y-73230000D01*
%TO.C,TP34*%
X169750000Y-77675000D02*
X169750000Y-81075000D01*
X169750000Y-81075000D02*
X173150000Y-81075000D01*
X173150000Y-81075000D02*
X173150000Y-77675000D01*
X173150000Y-77675000D02*
X169750000Y-77675000D01*
%TO.C,TP33*%
X111965000Y-65610000D02*
X111965000Y-69010000D01*
X111965000Y-69010000D02*
X115365000Y-69010000D01*
X115365000Y-69010000D02*
X115365000Y-65610000D01*
X115365000Y-65610000D02*
X111965000Y-65610000D01*
%TO.C,TP32*%
X119585000Y-65610000D02*
X119585000Y-69010000D01*
X119585000Y-69010000D02*
X122985000Y-69010000D01*
X122985000Y-69010000D02*
X122985000Y-65610000D01*
X122985000Y-65610000D02*
X119585000Y-65610000D01*
%TO.C,TP31*%
X124665000Y-65610000D02*
X124665000Y-69010000D01*
X124665000Y-69010000D02*
X128065000Y-69010000D01*
X128065000Y-69010000D02*
X128065000Y-65610000D01*
X128065000Y-65610000D02*
X124665000Y-65610000D01*
%TO.C,TP30*%
X164035000Y-66880000D02*
X164035000Y-70280000D01*
X164035000Y-70280000D02*
X167435000Y-70280000D01*
X167435000Y-70280000D02*
X167435000Y-66880000D01*
X167435000Y-66880000D02*
X164035000Y-66880000D01*
%TO.C,TP29*%
X158320000Y-66880000D02*
X158320000Y-70280000D01*
X158320000Y-70280000D02*
X161720000Y-70280000D01*
X161720000Y-70280000D02*
X161720000Y-66880000D01*
X161720000Y-66880000D02*
X158320000Y-66880000D01*
%TO.C,TP28*%
X153875000Y-66880000D02*
X153875000Y-70280000D01*
X153875000Y-70280000D02*
X157275000Y-70280000D01*
X157275000Y-70280000D02*
X157275000Y-66880000D01*
X157275000Y-66880000D02*
X153875000Y-66880000D01*
%TO.C,TP27*%
X100125000Y-65610000D02*
X96725000Y-65610000D01*
X96725000Y-65610000D02*
X96725000Y-69010000D01*
X96725000Y-69010000D02*
X100125000Y-69010000D01*
X100125000Y-69010000D02*
X100125000Y-65610000D01*
%TO.C,TP26*%
X101170000Y-70055000D02*
X101170000Y-73455000D01*
X101170000Y-73455000D02*
X104570000Y-73455000D01*
X104570000Y-73455000D02*
X104570000Y-70055000D01*
X104570000Y-70055000D02*
X101170000Y-70055000D01*
%TO.C,TP25*%
X101170000Y-74500000D02*
X101170000Y-77900000D01*
X101170000Y-77900000D02*
X104570000Y-77900000D01*
X104570000Y-77900000D02*
X104570000Y-74500000D01*
X104570000Y-74500000D02*
X101170000Y-74500000D01*
%TO.C,TP24*%
X97360000Y-80215000D02*
X97360000Y-83615000D01*
X97360000Y-83615000D02*
X100760000Y-83615000D01*
X100760000Y-83615000D02*
X100760000Y-80215000D01*
X100760000Y-80215000D02*
X97360000Y-80215000D01*
%TO.C,TP23*%
X97360000Y-85295000D02*
X97360000Y-88695000D01*
X97360000Y-88695000D02*
X100760000Y-88695000D01*
X100760000Y-88695000D02*
X100760000Y-85295000D01*
X100760000Y-85295000D02*
X97360000Y-85295000D01*
%TO.C,TP22*%
X97360000Y-90375000D02*
X97360000Y-93775000D01*
X97360000Y-93775000D02*
X100760000Y-93775000D01*
X100760000Y-93775000D02*
X100760000Y-90375000D01*
X100760000Y-90375000D02*
X97360000Y-90375000D01*
%TO.C,TP21*%
X99900000Y-97360000D02*
X99900000Y-100760000D01*
X99900000Y-100760000D02*
X103300000Y-100760000D01*
X103300000Y-100760000D02*
X103300000Y-97360000D01*
X103300000Y-97360000D02*
X99900000Y-97360000D01*
%TO.C,TP20*%
X99900000Y-102440000D02*
X99900000Y-105840000D01*
X99900000Y-105840000D02*
X103300000Y-105840000D01*
X103300000Y-105840000D02*
X103300000Y-102440000D01*
X103300000Y-102440000D02*
X99900000Y-102440000D01*
%TO.C,TP19*%
X99900000Y-107520000D02*
X99900000Y-110920000D01*
X99900000Y-110920000D02*
X103300000Y-110920000D01*
X103300000Y-110920000D02*
X103300000Y-107520000D01*
X103300000Y-107520000D02*
X99900000Y-107520000D01*
%TO.C,TP18*%
X106885000Y-126570000D02*
X106885000Y-129970000D01*
X106885000Y-129970000D02*
X110285000Y-129970000D01*
X110285000Y-129970000D02*
X110285000Y-126570000D01*
X110285000Y-126570000D02*
X106885000Y-126570000D01*
%TO.C,TP17*%
X101805000Y-126570000D02*
X101805000Y-129970000D01*
X101805000Y-129970000D02*
X105205000Y-129970000D01*
X105205000Y-129970000D02*
X105205000Y-126570000D01*
X105205000Y-126570000D02*
X101805000Y-126570000D01*
%TO.C,TP16*%
X96090000Y-126570000D02*
X96090000Y-129970000D01*
X96090000Y-129970000D02*
X99490000Y-129970000D01*
X99490000Y-129970000D02*
X99490000Y-126570000D01*
X99490000Y-126570000D02*
X96090000Y-126570000D01*
%TO.C,TP15*%
X176735000Y-94820000D02*
X176735000Y-98220000D01*
X176735000Y-98220000D02*
X180135000Y-98220000D01*
X180135000Y-98220000D02*
X180135000Y-94820000D01*
X180135000Y-94820000D02*
X176735000Y-94820000D01*
%TO.C,TP14*%
X176735000Y-100535000D02*
X176735000Y-103935000D01*
X176735000Y-103935000D02*
X180135000Y-103935000D01*
X180135000Y-103935000D02*
X180135000Y-100535000D01*
X180135000Y-100535000D02*
X176735000Y-100535000D01*
%TO.C,TP13*%
X176735000Y-105615000D02*
X176735000Y-109015000D01*
X176735000Y-109015000D02*
X180135000Y-109015000D01*
X180135000Y-109015000D02*
X180135000Y-105615000D01*
X180135000Y-105615000D02*
X176735000Y-105615000D01*
%TO.C,TP12*%
X181180000Y-125300000D02*
X181180000Y-128700000D01*
X181180000Y-128700000D02*
X184580000Y-128700000D01*
X184580000Y-128700000D02*
X184580000Y-125300000D01*
X184580000Y-125300000D02*
X181180000Y-125300000D01*
%TO.C,TP11*%
X176735000Y-125300000D02*
X176735000Y-128700000D01*
X176735000Y-128700000D02*
X180135000Y-128700000D01*
X180135000Y-128700000D02*
X180135000Y-125300000D01*
X180135000Y-125300000D02*
X176735000Y-125300000D01*
%TO.C,TP10*%
X175055000Y-125300000D02*
X171655000Y-125300000D01*
X171655000Y-125300000D02*
X171655000Y-128700000D01*
X171655000Y-128700000D02*
X175055000Y-128700000D01*
X175055000Y-128700000D02*
X175055000Y-125300000D01*
%TO.C,TP9*%
X168070000Y-123395000D02*
X164670000Y-123395000D01*
X164670000Y-123395000D02*
X164670000Y-126795000D01*
X164670000Y-126795000D02*
X168070000Y-126795000D01*
X168070000Y-126795000D02*
X168070000Y-123395000D01*
%TO.C,TP8*%
X162990000Y-123395000D02*
X159590000Y-123395000D01*
X159590000Y-123395000D02*
X159590000Y-126795000D01*
X159590000Y-126795000D02*
X162990000Y-126795000D01*
X162990000Y-126795000D02*
X162990000Y-123395000D01*
%TO.C,TP7*%
X157910000Y-123395000D02*
X154510000Y-123395000D01*
X154510000Y-123395000D02*
X154510000Y-126795000D01*
X154510000Y-126795000D02*
X157910000Y-126795000D01*
X157910000Y-126795000D02*
X157910000Y-123395000D01*
%TO.C,TP6*%
X144350000Y-123395000D02*
X144350000Y-126795000D01*
X144350000Y-126795000D02*
X147750000Y-126795000D01*
X147750000Y-126795000D02*
X147750000Y-123395000D01*
X147750000Y-123395000D02*
X144350000Y-123395000D01*
%TO.C,TP5*%
X138635000Y-123395000D02*
X138635000Y-126795000D01*
X138635000Y-126795000D02*
X142035000Y-126795000D01*
X142035000Y-126795000D02*
X142035000Y-123395000D01*
X142035000Y-123395000D02*
X138635000Y-123395000D01*
%TO.C,TP4*%
X133555000Y-123395000D02*
X133555000Y-126795000D01*
X133555000Y-126795000D02*
X136955000Y-126795000D01*
X136955000Y-126795000D02*
X136955000Y-123395000D01*
X136955000Y-123395000D02*
X133555000Y-123395000D01*
%TO.C,TP3*%
X122125000Y-123395000D02*
X122125000Y-126795000D01*
X122125000Y-126795000D02*
X125525000Y-126795000D01*
X125525000Y-126795000D02*
X125525000Y-123395000D01*
X125525000Y-123395000D02*
X122125000Y-123395000D01*
%TO.C,TP2*%
X117045000Y-123395000D02*
X117045000Y-126795000D01*
X117045000Y-126795000D02*
X120445000Y-126795000D01*
X120445000Y-126795000D02*
X120445000Y-123395000D01*
X120445000Y-123395000D02*
X117045000Y-123395000D01*
%TO.C,TP1*%
X111965000Y-123395000D02*
X111965000Y-126795000D01*
X111965000Y-126795000D02*
X115365000Y-126795000D01*
X115365000Y-126795000D02*
X115365000Y-123395000D01*
X115365000Y-123395000D02*
X111965000Y-123395000D01*
%TO.C,TP44*%
X129597000Y-58744000D02*
X127197000Y-58744000D01*
X127197000Y-58744000D02*
X127197000Y-61144000D01*
X127197000Y-61144000D02*
X129597000Y-61144000D01*
X129597000Y-61144000D02*
X129597000Y-58744000D01*
%TO.C,J8*%
X106740000Y-46295000D02*
X105410000Y-46295000D01*
X106740000Y-47625000D02*
X106740000Y-46295000D01*
X106740000Y-48895000D02*
X104080000Y-48895000D01*
X104080000Y-48895000D02*
X104080000Y-56575000D01*
X106740000Y-48895000D02*
X106740000Y-56575000D01*
X106740000Y-56575000D02*
X104080000Y-56575000D01*
%TO.C,J13*%
X122615000Y-46295000D02*
X121285000Y-46295000D01*
X122615000Y-47625000D02*
X122615000Y-46295000D01*
X122615000Y-48895000D02*
X119955000Y-48895000D01*
X119955000Y-48895000D02*
X119955000Y-56575000D01*
X122615000Y-48895000D02*
X122615000Y-56575000D01*
X122615000Y-56575000D02*
X119955000Y-56575000D01*
%TO.C,J11*%
X117535000Y-46295000D02*
X116205000Y-46295000D01*
X117535000Y-47625000D02*
X117535000Y-46295000D01*
X117535000Y-48895000D02*
X114875000Y-48895000D01*
X114875000Y-48895000D02*
X114875000Y-56575000D01*
X117535000Y-48895000D02*
X117535000Y-56575000D01*
X117535000Y-56575000D02*
X114875000Y-56575000D01*
%TO.C,J10*%
X111820000Y-46295000D02*
X110490000Y-46295000D01*
X111820000Y-47625000D02*
X111820000Y-46295000D01*
X111820000Y-48895000D02*
X109160000Y-48895000D01*
X109160000Y-48895000D02*
X109160000Y-56575000D01*
X111820000Y-48895000D02*
X111820000Y-56575000D01*
X111820000Y-56575000D02*
X109160000Y-56575000D01*
%TO.C,J49*%
X162840000Y-63890000D02*
X159400000Y-63890000D01*
X173482000Y-64766000D02*
X173990000Y-64258000D01*
X174498000Y-64766000D02*
X173482000Y-64766000D01*
X173990000Y-64258000D02*
X174498000Y-64766000D01*
X162840000Y-47870000D02*
X159400000Y-47870000D01*
X159400000Y-47870000D02*
X159400000Y-63890000D01*
X178270000Y-63890000D02*
X166340000Y-63890000D01*
X178270000Y-47870000D02*
X178270000Y-63890000D01*
X178270000Y-47870000D02*
X166340000Y-47870000D01*
%TO.C,TP55*%
X155124000Y-45536000D02*
X152724000Y-45536000D01*
X155124000Y-47936000D02*
X155124000Y-45536000D01*
X152724000Y-47936000D02*
X155124000Y-47936000D01*
X152724000Y-45536000D02*
X152724000Y-47936000D01*
%TO.C,TP54*%
X149577243Y-57870483D02*
X147177243Y-57870483D01*
X149577243Y-60270483D02*
X149577243Y-57870483D01*
X147177243Y-60270483D02*
X149577243Y-60270483D01*
X147177243Y-57870483D02*
X147177243Y-60270483D01*
%TO.C,TP53*%
X146402243Y-57870483D02*
X144002243Y-57870483D01*
X146402243Y-60270483D02*
X146402243Y-57870483D01*
X144002243Y-60270483D02*
X146402243Y-60270483D01*
X144002243Y-57870483D02*
X144002243Y-60270483D01*
%TO.C,TP52*%
X152711000Y-48584000D02*
X150311000Y-48584000D01*
X152711000Y-50984000D02*
X152711000Y-48584000D01*
X150311000Y-50984000D02*
X152711000Y-50984000D01*
X150311000Y-48584000D02*
X150311000Y-50984000D01*
%TO.C,TP51*%
X152711000Y-51759000D02*
X150311000Y-51759000D01*
X152711000Y-54159000D02*
X152711000Y-51759000D01*
X150311000Y-54159000D02*
X152711000Y-54159000D01*
X150311000Y-51759000D02*
X150311000Y-54159000D01*
%TO.C,TP50*%
X141040000Y-54159000D02*
X143440000Y-54159000D01*
X141040000Y-51759000D02*
X141040000Y-54159000D01*
X143440000Y-51759000D02*
X141040000Y-51759000D01*
X143440000Y-54159000D02*
X143440000Y-51759000D01*
%TO.C,TP49*%
X141040000Y-50984000D02*
X143440000Y-50984000D01*
X141040000Y-48584000D02*
X141040000Y-50984000D01*
X143440000Y-48584000D02*
X141040000Y-48584000D01*
X143440000Y-50984000D02*
X143440000Y-48584000D01*
%TO.C,TP48*%
X140265000Y-45790000D02*
X137865000Y-45790000D01*
X140265000Y-48190000D02*
X140265000Y-45790000D01*
X137865000Y-48190000D02*
X140265000Y-48190000D01*
X137865000Y-45790000D02*
X137865000Y-48190000D01*
%TO.C,TP47*%
X139122000Y-61144000D02*
X139122000Y-58744000D01*
X136722000Y-61144000D02*
X139122000Y-61144000D01*
X136722000Y-58744000D02*
X136722000Y-61144000D01*
X139122000Y-58744000D02*
X136722000Y-58744000D01*
%TO.C,TP46*%
X135947000Y-61144000D02*
X135947000Y-58744000D01*
X133547000Y-61144000D02*
X135947000Y-61144000D01*
X133547000Y-58744000D02*
X133547000Y-61144000D01*
X135947000Y-58744000D02*
X133547000Y-58744000D01*
%TO.C,TP45*%
X132772000Y-58744000D02*
X130372000Y-58744000D01*
X130372000Y-58744000D02*
X130372000Y-61144000D01*
X130372000Y-61144000D02*
X132772000Y-61144000D01*
X132772000Y-61144000D02*
X132772000Y-58744000D01*
%TO.C,J16*%
X133020000Y-46295000D02*
X131690000Y-46295000D01*
X133020000Y-47625000D02*
X133020000Y-46295000D01*
X133020000Y-48895000D02*
X130360000Y-48895000D01*
X130360000Y-48895000D02*
X130360000Y-56575000D01*
X133020000Y-48895000D02*
X133020000Y-56575000D01*
X133020000Y-56575000D02*
X130360000Y-56575000D01*
%TO.C,J5*%
X127555000Y-46245000D02*
X126225000Y-46245000D01*
X127555000Y-47575000D02*
X127555000Y-46245000D01*
X127555000Y-48845000D02*
X124895000Y-48845000D01*
X124895000Y-48845000D02*
X124895000Y-56525000D01*
X127555000Y-48845000D02*
X127555000Y-56525000D01*
X127555000Y-56525000D02*
X124895000Y-56525000D01*
%TO.C,TP43*%
D11*
X180569380Y-76366904D02*
X180569380Y-76938333D01*
X181569380Y-76652619D02*
X180569380Y-76652619D01*
X181569380Y-77271666D02*
X180569380Y-77271666D01*
X180569380Y-77652619D01*
X180617000Y-77747857D01*
X180664619Y-77795476D01*
X180759857Y-77843095D01*
X180902714Y-77843095D01*
X180997952Y-77795476D01*
X181045571Y-77747857D01*
X181093190Y-77652619D01*
X181093190Y-77271666D01*
X180902714Y-78700238D02*
X181569380Y-78700238D01*
X180521761Y-78462142D02*
X181236047Y-78224047D01*
X181236047Y-78843095D01*
X180569380Y-79128809D02*
X180569380Y-79747857D01*
X180950333Y-79414523D01*
X180950333Y-79557380D01*
X180997952Y-79652619D01*
X181045571Y-79700238D01*
X181140809Y-79747857D01*
X181378904Y-79747857D01*
X181474142Y-79700238D01*
X181521761Y-79652619D01*
X181569380Y-79557380D01*
X181569380Y-79271666D01*
X181521761Y-79176428D01*
X181474142Y-79128809D01*
%TO.C,TP42*%
X180569380Y-72556904D02*
X180569380Y-73128333D01*
X181569380Y-72842619D02*
X180569380Y-72842619D01*
X181569380Y-73461666D02*
X180569380Y-73461666D01*
X180569380Y-73842619D01*
X180617000Y-73937857D01*
X180664619Y-73985476D01*
X180759857Y-74033095D01*
X180902714Y-74033095D01*
X180997952Y-73985476D01*
X181045571Y-73937857D01*
X181093190Y-73842619D01*
X181093190Y-73461666D01*
X180902714Y-74890238D02*
X181569380Y-74890238D01*
X180521761Y-74652142D02*
X181236047Y-74414047D01*
X181236047Y-75033095D01*
X180664619Y-75366428D02*
X180617000Y-75414047D01*
X180569380Y-75509285D01*
X180569380Y-75747380D01*
X180617000Y-75842619D01*
X180664619Y-75890238D01*
X180759857Y-75937857D01*
X180855095Y-75937857D01*
X180997952Y-75890238D01*
X181569380Y-75318809D01*
X181569380Y-75937857D01*
%TO.C,TP41*%
X180569380Y-68746904D02*
X180569380Y-69318333D01*
X181569380Y-69032619D02*
X180569380Y-69032619D01*
X181569380Y-69651666D02*
X180569380Y-69651666D01*
X180569380Y-70032619D01*
X180617000Y-70127857D01*
X180664619Y-70175476D01*
X180759857Y-70223095D01*
X180902714Y-70223095D01*
X180997952Y-70175476D01*
X181045571Y-70127857D01*
X181093190Y-70032619D01*
X181093190Y-69651666D01*
X180902714Y-71080238D02*
X181569380Y-71080238D01*
X180521761Y-70842142D02*
X181236047Y-70604047D01*
X181236047Y-71223095D01*
X181569380Y-72127857D02*
X181569380Y-71556428D01*
X181569380Y-71842142D02*
X180569380Y-71842142D01*
X180712238Y-71746904D01*
X180807476Y-71651666D01*
X180855095Y-71556428D01*
%TO.C,TP40*%
X178903095Y-87224380D02*
X178331666Y-87224380D01*
X178617380Y-88224380D02*
X178617380Y-87224380D01*
X177998333Y-88224380D02*
X177998333Y-87224380D01*
X177617380Y-87224380D01*
X177522142Y-87272000D01*
X177474523Y-87319619D01*
X177426904Y-87414857D01*
X177426904Y-87557714D01*
X177474523Y-87652952D01*
X177522142Y-87700571D01*
X177617380Y-87748190D01*
X177998333Y-87748190D01*
X176569761Y-87557714D02*
X176569761Y-88224380D01*
X176807857Y-87176761D02*
X177045952Y-87891047D01*
X176426904Y-87891047D01*
X175855476Y-87224380D02*
X175760238Y-87224380D01*
X175665000Y-87272000D01*
X175617380Y-87319619D01*
X175569761Y-87414857D01*
X175522142Y-87605333D01*
X175522142Y-87843428D01*
X175569761Y-88033904D01*
X175617380Y-88129142D01*
X175665000Y-88176761D01*
X175760238Y-88224380D01*
X175855476Y-88224380D01*
X175950714Y-88176761D01*
X175998333Y-88129142D01*
X176045952Y-88033904D01*
X176093571Y-87843428D01*
X176093571Y-87605333D01*
X176045952Y-87414857D01*
X175998333Y-87319619D01*
X175950714Y-87272000D01*
X175855476Y-87224380D01*
%TO.C,TP39*%
X178903095Y-81509380D02*
X178331666Y-81509380D01*
X178617380Y-82509380D02*
X178617380Y-81509380D01*
X177998333Y-82509380D02*
X177998333Y-81509380D01*
X177617380Y-81509380D01*
X177522142Y-81557000D01*
X177474523Y-81604619D01*
X177426904Y-81699857D01*
X177426904Y-81842714D01*
X177474523Y-81937952D01*
X177522142Y-81985571D01*
X177617380Y-82033190D01*
X177998333Y-82033190D01*
X177093571Y-81509380D02*
X176474523Y-81509380D01*
X176807857Y-81890333D01*
X176665000Y-81890333D01*
X176569761Y-81937952D01*
X176522142Y-81985571D01*
X176474523Y-82080809D01*
X176474523Y-82318904D01*
X176522142Y-82414142D01*
X176569761Y-82461761D01*
X176665000Y-82509380D01*
X176950714Y-82509380D01*
X177045952Y-82461761D01*
X177093571Y-82414142D01*
X175998333Y-82509380D02*
X175807857Y-82509380D01*
X175712619Y-82461761D01*
X175665000Y-82414142D01*
X175569761Y-82271285D01*
X175522142Y-82080809D01*
X175522142Y-81699857D01*
X175569761Y-81604619D01*
X175617380Y-81557000D01*
X175712619Y-81509380D01*
X175903095Y-81509380D01*
X175998333Y-81557000D01*
X176045952Y-81604619D01*
X176093571Y-81699857D01*
X176093571Y-81937952D01*
X176045952Y-82033190D01*
X175998333Y-82080809D01*
X175903095Y-82128428D01*
X175712619Y-82128428D01*
X175617380Y-82080809D01*
X175569761Y-82033190D01*
X175522142Y-81937952D01*
%TO.C,TP38*%
X121753095Y-108530380D02*
X121181666Y-108530380D01*
X121467380Y-109530380D02*
X121467380Y-108530380D01*
X120848333Y-109530380D02*
X120848333Y-108530380D01*
X120467380Y-108530380D01*
X120372142Y-108578000D01*
X120324523Y-108625619D01*
X120276904Y-108720857D01*
X120276904Y-108863714D01*
X120324523Y-108958952D01*
X120372142Y-109006571D01*
X120467380Y-109054190D01*
X120848333Y-109054190D01*
X119943571Y-108530380D02*
X119324523Y-108530380D01*
X119657857Y-108911333D01*
X119515000Y-108911333D01*
X119419761Y-108958952D01*
X119372142Y-109006571D01*
X119324523Y-109101809D01*
X119324523Y-109339904D01*
X119372142Y-109435142D01*
X119419761Y-109482761D01*
X119515000Y-109530380D01*
X119800714Y-109530380D01*
X119895952Y-109482761D01*
X119943571Y-109435142D01*
X118753095Y-108958952D02*
X118848333Y-108911333D01*
X118895952Y-108863714D01*
X118943571Y-108768476D01*
X118943571Y-108720857D01*
X118895952Y-108625619D01*
X118848333Y-108578000D01*
X118753095Y-108530380D01*
X118562619Y-108530380D01*
X118467380Y-108578000D01*
X118419761Y-108625619D01*
X118372142Y-108720857D01*
X118372142Y-108768476D01*
X118419761Y-108863714D01*
X118467380Y-108911333D01*
X118562619Y-108958952D01*
X118753095Y-108958952D01*
X118848333Y-109006571D01*
X118895952Y-109054190D01*
X118943571Y-109149428D01*
X118943571Y-109339904D01*
X118895952Y-109435142D01*
X118848333Y-109482761D01*
X118753095Y-109530380D01*
X118562619Y-109530380D01*
X118467380Y-109482761D01*
X118419761Y-109435142D01*
X118372142Y-109339904D01*
X118372142Y-109149428D01*
X118419761Y-109054190D01*
X118467380Y-109006571D01*
X118562619Y-108958952D01*
X121753095Y-112975380D02*
X121181666Y-112975380D01*
X121467380Y-113975380D02*
X121467380Y-112975380D01*
X120848333Y-113975380D02*
X120848333Y-112975380D01*
X120467380Y-112975380D01*
X120372142Y-113023000D01*
X120324523Y-113070619D01*
X120276904Y-113165857D01*
X120276904Y-113308714D01*
X120324523Y-113403952D01*
X120372142Y-113451571D01*
X120467380Y-113499190D01*
X120848333Y-113499190D01*
X119943571Y-112975380D02*
X119324523Y-112975380D01*
X119657857Y-113356333D01*
X119515000Y-113356333D01*
X119419761Y-113403952D01*
X119372142Y-113451571D01*
X119324523Y-113546809D01*
X119324523Y-113784904D01*
X119372142Y-113880142D01*
X119419761Y-113927761D01*
X119515000Y-113975380D01*
X119800714Y-113975380D01*
X119895952Y-113927761D01*
X119943571Y-113880142D01*
X118753095Y-113403952D02*
X118848333Y-113356333D01*
X118895952Y-113308714D01*
X118943571Y-113213476D01*
X118943571Y-113165857D01*
X118895952Y-113070619D01*
X118848333Y-113023000D01*
X118753095Y-112975380D01*
X118562619Y-112975380D01*
X118467380Y-113023000D01*
X118419761Y-113070619D01*
X118372142Y-113165857D01*
X118372142Y-113213476D01*
X118419761Y-113308714D01*
X118467380Y-113356333D01*
X118562619Y-113403952D01*
X118753095Y-113403952D01*
X118848333Y-113451571D01*
X118895952Y-113499190D01*
X118943571Y-113594428D01*
X118943571Y-113784904D01*
X118895952Y-113880142D01*
X118848333Y-113927761D01*
X118753095Y-113975380D01*
X118562619Y-113975380D01*
X118467380Y-113927761D01*
X118419761Y-113880142D01*
X118372142Y-113784904D01*
X118372142Y-113594428D01*
X118419761Y-113499190D01*
X118467380Y-113451571D01*
X118562619Y-113403952D01*
%TO.C,TP37*%
X159853095Y-109165380D02*
X159281666Y-109165380D01*
X159567380Y-110165380D02*
X159567380Y-109165380D01*
X158948333Y-110165380D02*
X158948333Y-109165380D01*
X158567380Y-109165380D01*
X158472142Y-109213000D01*
X158424523Y-109260619D01*
X158376904Y-109355857D01*
X158376904Y-109498714D01*
X158424523Y-109593952D01*
X158472142Y-109641571D01*
X158567380Y-109689190D01*
X158948333Y-109689190D01*
X158043571Y-109165380D02*
X157424523Y-109165380D01*
X157757857Y-109546333D01*
X157615000Y-109546333D01*
X157519761Y-109593952D01*
X157472142Y-109641571D01*
X157424523Y-109736809D01*
X157424523Y-109974904D01*
X157472142Y-110070142D01*
X157519761Y-110117761D01*
X157615000Y-110165380D01*
X157900714Y-110165380D01*
X157995952Y-110117761D01*
X158043571Y-110070142D01*
X157091190Y-109165380D02*
X156424523Y-109165380D01*
X156853095Y-110165380D01*
X159853095Y-113610380D02*
X159281666Y-113610380D01*
X159567380Y-114610380D02*
X159567380Y-113610380D01*
X158948333Y-114610380D02*
X158948333Y-113610380D01*
X158567380Y-113610380D01*
X158472142Y-113658000D01*
X158424523Y-113705619D01*
X158376904Y-113800857D01*
X158376904Y-113943714D01*
X158424523Y-114038952D01*
X158472142Y-114086571D01*
X158567380Y-114134190D01*
X158948333Y-114134190D01*
X158043571Y-113610380D02*
X157424523Y-113610380D01*
X157757857Y-113991333D01*
X157615000Y-113991333D01*
X157519761Y-114038952D01*
X157472142Y-114086571D01*
X157424523Y-114181809D01*
X157424523Y-114419904D01*
X157472142Y-114515142D01*
X157519761Y-114562761D01*
X157615000Y-114610380D01*
X157900714Y-114610380D01*
X157995952Y-114562761D01*
X158043571Y-114515142D01*
X157091190Y-113610380D02*
X156424523Y-113610380D01*
X156853095Y-114610380D01*
%TO.C,TP36*%
X168504380Y-68746904D02*
X168504380Y-69318333D01*
X169504380Y-69032619D02*
X168504380Y-69032619D01*
X169504380Y-69651666D02*
X168504380Y-69651666D01*
X168504380Y-70032619D01*
X168552000Y-70127857D01*
X168599619Y-70175476D01*
X168694857Y-70223095D01*
X168837714Y-70223095D01*
X168932952Y-70175476D01*
X168980571Y-70127857D01*
X169028190Y-70032619D01*
X169028190Y-69651666D01*
X168504380Y-70556428D02*
X168504380Y-71175476D01*
X168885333Y-70842142D01*
X168885333Y-70985000D01*
X168932952Y-71080238D01*
X168980571Y-71127857D01*
X169075809Y-71175476D01*
X169313904Y-71175476D01*
X169409142Y-71127857D01*
X169456761Y-71080238D01*
X169504380Y-70985000D01*
X169504380Y-70699285D01*
X169456761Y-70604047D01*
X169409142Y-70556428D01*
X168504380Y-72032619D02*
X168504380Y-71842142D01*
X168552000Y-71746904D01*
X168599619Y-71699285D01*
X168742476Y-71604047D01*
X168932952Y-71556428D01*
X169313904Y-71556428D01*
X169409142Y-71604047D01*
X169456761Y-71651666D01*
X169504380Y-71746904D01*
X169504380Y-71937380D01*
X169456761Y-72032619D01*
X169409142Y-72080238D01*
X169313904Y-72127857D01*
X169075809Y-72127857D01*
X168980571Y-72080238D01*
X168932952Y-72032619D01*
X168885333Y-71937380D01*
X168885333Y-71746904D01*
X168932952Y-71651666D01*
X168980571Y-71604047D01*
X169075809Y-71556428D01*
%TO.C,TP35*%
X168504380Y-73191904D02*
X168504380Y-73763333D01*
X169504380Y-73477619D02*
X168504380Y-73477619D01*
X169504380Y-74096666D02*
X168504380Y-74096666D01*
X168504380Y-74477619D01*
X168552000Y-74572857D01*
X168599619Y-74620476D01*
X168694857Y-74668095D01*
X168837714Y-74668095D01*
X168932952Y-74620476D01*
X168980571Y-74572857D01*
X169028190Y-74477619D01*
X169028190Y-74096666D01*
X168504380Y-75001428D02*
X168504380Y-75620476D01*
X168885333Y-75287142D01*
X168885333Y-75430000D01*
X168932952Y-75525238D01*
X168980571Y-75572857D01*
X169075809Y-75620476D01*
X169313904Y-75620476D01*
X169409142Y-75572857D01*
X169456761Y-75525238D01*
X169504380Y-75430000D01*
X169504380Y-75144285D01*
X169456761Y-75049047D01*
X169409142Y-75001428D01*
X168504380Y-76525238D02*
X168504380Y-76049047D01*
X168980571Y-76001428D01*
X168932952Y-76049047D01*
X168885333Y-76144285D01*
X168885333Y-76382380D01*
X168932952Y-76477619D01*
X168980571Y-76525238D01*
X169075809Y-76572857D01*
X169313904Y-76572857D01*
X169409142Y-76525238D01*
X169456761Y-76477619D01*
X169504380Y-76382380D01*
X169504380Y-76144285D01*
X169456761Y-76049047D01*
X169409142Y-76001428D01*
%TO.C,TP34*%
X168504380Y-77636904D02*
X168504380Y-78208333D01*
X169504380Y-77922619D02*
X168504380Y-77922619D01*
X169504380Y-78541666D02*
X168504380Y-78541666D01*
X168504380Y-78922619D01*
X168552000Y-79017857D01*
X168599619Y-79065476D01*
X168694857Y-79113095D01*
X168837714Y-79113095D01*
X168932952Y-79065476D01*
X168980571Y-79017857D01*
X169028190Y-78922619D01*
X169028190Y-78541666D01*
X168504380Y-79446428D02*
X168504380Y-80065476D01*
X168885333Y-79732142D01*
X168885333Y-79875000D01*
X168932952Y-79970238D01*
X168980571Y-80017857D01*
X169075809Y-80065476D01*
X169313904Y-80065476D01*
X169409142Y-80017857D01*
X169456761Y-79970238D01*
X169504380Y-79875000D01*
X169504380Y-79589285D01*
X169456761Y-79494047D01*
X169409142Y-79446428D01*
X168837714Y-80922619D02*
X169504380Y-80922619D01*
X168456761Y-80684523D02*
X169171047Y-80446428D01*
X169171047Y-81065476D01*
%TO.C,TP33*%
X110719380Y-65571904D02*
X110719380Y-66143333D01*
X111719380Y-65857619D02*
X110719380Y-65857619D01*
X111719380Y-66476666D02*
X110719380Y-66476666D01*
X110719380Y-66857619D01*
X110767000Y-66952857D01*
X110814619Y-67000476D01*
X110909857Y-67048095D01*
X111052714Y-67048095D01*
X111147952Y-67000476D01*
X111195571Y-66952857D01*
X111243190Y-66857619D01*
X111243190Y-66476666D01*
X110719380Y-67381428D02*
X110719380Y-68000476D01*
X111100333Y-67667142D01*
X111100333Y-67810000D01*
X111147952Y-67905238D01*
X111195571Y-67952857D01*
X111290809Y-68000476D01*
X111528904Y-68000476D01*
X111624142Y-67952857D01*
X111671761Y-67905238D01*
X111719380Y-67810000D01*
X111719380Y-67524285D01*
X111671761Y-67429047D01*
X111624142Y-67381428D01*
X110719380Y-68333809D02*
X110719380Y-68952857D01*
X111100333Y-68619523D01*
X111100333Y-68762380D01*
X111147952Y-68857619D01*
X111195571Y-68905238D01*
X111290809Y-68952857D01*
X111528904Y-68952857D01*
X111624142Y-68905238D01*
X111671761Y-68857619D01*
X111719380Y-68762380D01*
X111719380Y-68476666D01*
X111671761Y-68381428D01*
X111624142Y-68333809D01*
%TO.C,TP32*%
X118339380Y-65571904D02*
X118339380Y-66143333D01*
X119339380Y-65857619D02*
X118339380Y-65857619D01*
X119339380Y-66476666D02*
X118339380Y-66476666D01*
X118339380Y-66857619D01*
X118387000Y-66952857D01*
X118434619Y-67000476D01*
X118529857Y-67048095D01*
X118672714Y-67048095D01*
X118767952Y-67000476D01*
X118815571Y-66952857D01*
X118863190Y-66857619D01*
X118863190Y-66476666D01*
X118339380Y-67381428D02*
X118339380Y-68000476D01*
X118720333Y-67667142D01*
X118720333Y-67810000D01*
X118767952Y-67905238D01*
X118815571Y-67952857D01*
X118910809Y-68000476D01*
X119148904Y-68000476D01*
X119244142Y-67952857D01*
X119291761Y-67905238D01*
X119339380Y-67810000D01*
X119339380Y-67524285D01*
X119291761Y-67429047D01*
X119244142Y-67381428D01*
X118434619Y-68381428D02*
X118387000Y-68429047D01*
X118339380Y-68524285D01*
X118339380Y-68762380D01*
X118387000Y-68857619D01*
X118434619Y-68905238D01*
X118529857Y-68952857D01*
X118625095Y-68952857D01*
X118767952Y-68905238D01*
X119339380Y-68333809D01*
X119339380Y-68952857D01*
%TO.C,TP31*%
X123419380Y-65571904D02*
X123419380Y-66143333D01*
X124419380Y-65857619D02*
X123419380Y-65857619D01*
X124419380Y-66476666D02*
X123419380Y-66476666D01*
X123419380Y-66857619D01*
X123467000Y-66952857D01*
X123514619Y-67000476D01*
X123609857Y-67048095D01*
X123752714Y-67048095D01*
X123847952Y-67000476D01*
X123895571Y-66952857D01*
X123943190Y-66857619D01*
X123943190Y-66476666D01*
X123419380Y-67381428D02*
X123419380Y-68000476D01*
X123800333Y-67667142D01*
X123800333Y-67810000D01*
X123847952Y-67905238D01*
X123895571Y-67952857D01*
X123990809Y-68000476D01*
X124228904Y-68000476D01*
X124324142Y-67952857D01*
X124371761Y-67905238D01*
X124419380Y-67810000D01*
X124419380Y-67524285D01*
X124371761Y-67429047D01*
X124324142Y-67381428D01*
X124419380Y-68952857D02*
X124419380Y-68381428D01*
X124419380Y-68667142D02*
X123419380Y-68667142D01*
X123562238Y-68571904D01*
X123657476Y-68476666D01*
X123705095Y-68381428D01*
%TO.C,TP30*%
X162789380Y-66841904D02*
X162789380Y-67413333D01*
X163789380Y-67127619D02*
X162789380Y-67127619D01*
X163789380Y-67746666D02*
X162789380Y-67746666D01*
X162789380Y-68127619D01*
X162837000Y-68222857D01*
X162884619Y-68270476D01*
X162979857Y-68318095D01*
X163122714Y-68318095D01*
X163217952Y-68270476D01*
X163265571Y-68222857D01*
X163313190Y-68127619D01*
X163313190Y-67746666D01*
X162789380Y-68651428D02*
X162789380Y-69270476D01*
X163170333Y-68937142D01*
X163170333Y-69080000D01*
X163217952Y-69175238D01*
X163265571Y-69222857D01*
X163360809Y-69270476D01*
X163598904Y-69270476D01*
X163694142Y-69222857D01*
X163741761Y-69175238D01*
X163789380Y-69080000D01*
X163789380Y-68794285D01*
X163741761Y-68699047D01*
X163694142Y-68651428D01*
X162789380Y-69889523D02*
X162789380Y-69984761D01*
X162837000Y-70080000D01*
X162884619Y-70127619D01*
X162979857Y-70175238D01*
X163170333Y-70222857D01*
X163408428Y-70222857D01*
X163598904Y-70175238D01*
X163694142Y-70127619D01*
X163741761Y-70080000D01*
X163789380Y-69984761D01*
X163789380Y-69889523D01*
X163741761Y-69794285D01*
X163694142Y-69746666D01*
X163598904Y-69699047D01*
X163408428Y-69651428D01*
X163170333Y-69651428D01*
X162979857Y-69699047D01*
X162884619Y-69746666D01*
X162837000Y-69794285D01*
X162789380Y-69889523D01*
%TO.C,TP29*%
X157074380Y-66841904D02*
X157074380Y-67413333D01*
X158074380Y-67127619D02*
X157074380Y-67127619D01*
X158074380Y-67746666D02*
X157074380Y-67746666D01*
X157074380Y-68127619D01*
X157122000Y-68222857D01*
X157169619Y-68270476D01*
X157264857Y-68318095D01*
X157407714Y-68318095D01*
X157502952Y-68270476D01*
X157550571Y-68222857D01*
X157598190Y-68127619D01*
X157598190Y-67746666D01*
X157169619Y-68699047D02*
X157122000Y-68746666D01*
X157074380Y-68841904D01*
X157074380Y-69080000D01*
X157122000Y-69175238D01*
X157169619Y-69222857D01*
X157264857Y-69270476D01*
X157360095Y-69270476D01*
X157502952Y-69222857D01*
X158074380Y-68651428D01*
X158074380Y-69270476D01*
X158074380Y-69746666D02*
X158074380Y-69937142D01*
X158026761Y-70032380D01*
X157979142Y-70080000D01*
X157836285Y-70175238D01*
X157645809Y-70222857D01*
X157264857Y-70222857D01*
X157169619Y-70175238D01*
X157122000Y-70127619D01*
X157074380Y-70032380D01*
X157074380Y-69841904D01*
X157122000Y-69746666D01*
X157169619Y-69699047D01*
X157264857Y-69651428D01*
X157502952Y-69651428D01*
X157598190Y-69699047D01*
X157645809Y-69746666D01*
X157693428Y-69841904D01*
X157693428Y-70032380D01*
X157645809Y-70127619D01*
X157598190Y-70175238D01*
X157502952Y-70222857D01*
%TO.C,TP28*%
X152629380Y-66841904D02*
X152629380Y-67413333D01*
X153629380Y-67127619D02*
X152629380Y-67127619D01*
X153629380Y-67746666D02*
X152629380Y-67746666D01*
X152629380Y-68127619D01*
X152677000Y-68222857D01*
X152724619Y-68270476D01*
X152819857Y-68318095D01*
X152962714Y-68318095D01*
X153057952Y-68270476D01*
X153105571Y-68222857D01*
X153153190Y-68127619D01*
X153153190Y-67746666D01*
X152724619Y-68699047D02*
X152677000Y-68746666D01*
X152629380Y-68841904D01*
X152629380Y-69080000D01*
X152677000Y-69175238D01*
X152724619Y-69222857D01*
X152819857Y-69270476D01*
X152915095Y-69270476D01*
X153057952Y-69222857D01*
X153629380Y-68651428D01*
X153629380Y-69270476D01*
X153057952Y-69841904D02*
X153010333Y-69746666D01*
X152962714Y-69699047D01*
X152867476Y-69651428D01*
X152819857Y-69651428D01*
X152724619Y-69699047D01*
X152677000Y-69746666D01*
X152629380Y-69841904D01*
X152629380Y-70032380D01*
X152677000Y-70127619D01*
X152724619Y-70175238D01*
X152819857Y-70222857D01*
X152867476Y-70222857D01*
X152962714Y-70175238D01*
X153010333Y-70127619D01*
X153057952Y-70032380D01*
X153057952Y-69841904D01*
X153105571Y-69746666D01*
X153153190Y-69699047D01*
X153248428Y-69651428D01*
X153438904Y-69651428D01*
X153534142Y-69699047D01*
X153581761Y-69746666D01*
X153629380Y-69841904D01*
X153629380Y-70032380D01*
X153581761Y-70127619D01*
X153534142Y-70175238D01*
X153438904Y-70222857D01*
X153248428Y-70222857D01*
X153153190Y-70175238D01*
X153105571Y-70127619D01*
X153057952Y-70032380D01*
%TO.C,TP27*%
X100163095Y-64364380D02*
X99591666Y-64364380D01*
X99877380Y-65364380D02*
X99877380Y-64364380D01*
X99258333Y-65364380D02*
X99258333Y-64364380D01*
X98877380Y-64364380D01*
X98782142Y-64412000D01*
X98734523Y-64459619D01*
X98686904Y-64554857D01*
X98686904Y-64697714D01*
X98734523Y-64792952D01*
X98782142Y-64840571D01*
X98877380Y-64888190D01*
X99258333Y-64888190D01*
X98305952Y-64459619D02*
X98258333Y-64412000D01*
X98163095Y-64364380D01*
X97925000Y-64364380D01*
X97829761Y-64412000D01*
X97782142Y-64459619D01*
X97734523Y-64554857D01*
X97734523Y-64650095D01*
X97782142Y-64792952D01*
X98353571Y-65364380D01*
X97734523Y-65364380D01*
X97401190Y-64364380D02*
X96734523Y-64364380D01*
X97163095Y-65364380D01*
%TO.C,TP26*%
X99924380Y-70016904D02*
X99924380Y-70588333D01*
X100924380Y-70302619D02*
X99924380Y-70302619D01*
X100924380Y-70921666D02*
X99924380Y-70921666D01*
X99924380Y-71302619D01*
X99972000Y-71397857D01*
X100019619Y-71445476D01*
X100114857Y-71493095D01*
X100257714Y-71493095D01*
X100352952Y-71445476D01*
X100400571Y-71397857D01*
X100448190Y-71302619D01*
X100448190Y-70921666D01*
X100019619Y-71874047D02*
X99972000Y-71921666D01*
X99924380Y-72016904D01*
X99924380Y-72255000D01*
X99972000Y-72350238D01*
X100019619Y-72397857D01*
X100114857Y-72445476D01*
X100210095Y-72445476D01*
X100352952Y-72397857D01*
X100924380Y-71826428D01*
X100924380Y-72445476D01*
X99924380Y-73302619D02*
X99924380Y-73112142D01*
X99972000Y-73016904D01*
X100019619Y-72969285D01*
X100162476Y-72874047D01*
X100352952Y-72826428D01*
X100733904Y-72826428D01*
X100829142Y-72874047D01*
X100876761Y-72921666D01*
X100924380Y-73016904D01*
X100924380Y-73207380D01*
X100876761Y-73302619D01*
X100829142Y-73350238D01*
X100733904Y-73397857D01*
X100495809Y-73397857D01*
X100400571Y-73350238D01*
X100352952Y-73302619D01*
X100305333Y-73207380D01*
X100305333Y-73016904D01*
X100352952Y-72921666D01*
X100400571Y-72874047D01*
X100495809Y-72826428D01*
%TO.C,TP25*%
X99924380Y-74461904D02*
X99924380Y-75033333D01*
X100924380Y-74747619D02*
X99924380Y-74747619D01*
X100924380Y-75366666D02*
X99924380Y-75366666D01*
X99924380Y-75747619D01*
X99972000Y-75842857D01*
X100019619Y-75890476D01*
X100114857Y-75938095D01*
X100257714Y-75938095D01*
X100352952Y-75890476D01*
X100400571Y-75842857D01*
X100448190Y-75747619D01*
X100448190Y-75366666D01*
X100019619Y-76319047D02*
X99972000Y-76366666D01*
X99924380Y-76461904D01*
X99924380Y-76700000D01*
X99972000Y-76795238D01*
X100019619Y-76842857D01*
X100114857Y-76890476D01*
X100210095Y-76890476D01*
X100352952Y-76842857D01*
X100924380Y-76271428D01*
X100924380Y-76890476D01*
X99924380Y-77795238D02*
X99924380Y-77319047D01*
X100400571Y-77271428D01*
X100352952Y-77319047D01*
X100305333Y-77414285D01*
X100305333Y-77652380D01*
X100352952Y-77747619D01*
X100400571Y-77795238D01*
X100495809Y-77842857D01*
X100733904Y-77842857D01*
X100829142Y-77795238D01*
X100876761Y-77747619D01*
X100924380Y-77652380D01*
X100924380Y-77414285D01*
X100876761Y-77319047D01*
X100829142Y-77271428D01*
%TO.C,TP24*%
X96114380Y-80176904D02*
X96114380Y-80748333D01*
X97114380Y-80462619D02*
X96114380Y-80462619D01*
X97114380Y-81081666D02*
X96114380Y-81081666D01*
X96114380Y-81462619D01*
X96162000Y-81557857D01*
X96209619Y-81605476D01*
X96304857Y-81653095D01*
X96447714Y-81653095D01*
X96542952Y-81605476D01*
X96590571Y-81557857D01*
X96638190Y-81462619D01*
X96638190Y-81081666D01*
X96209619Y-82034047D02*
X96162000Y-82081666D01*
X96114380Y-82176904D01*
X96114380Y-82415000D01*
X96162000Y-82510238D01*
X96209619Y-82557857D01*
X96304857Y-82605476D01*
X96400095Y-82605476D01*
X96542952Y-82557857D01*
X97114380Y-81986428D01*
X97114380Y-82605476D01*
X96447714Y-83462619D02*
X97114380Y-83462619D01*
X96066761Y-83224523D02*
X96781047Y-82986428D01*
X96781047Y-83605476D01*
%TO.C,TP23*%
X96114380Y-85256904D02*
X96114380Y-85828333D01*
X97114380Y-85542619D02*
X96114380Y-85542619D01*
X97114380Y-86161666D02*
X96114380Y-86161666D01*
X96114380Y-86542619D01*
X96162000Y-86637857D01*
X96209619Y-86685476D01*
X96304857Y-86733095D01*
X96447714Y-86733095D01*
X96542952Y-86685476D01*
X96590571Y-86637857D01*
X96638190Y-86542619D01*
X96638190Y-86161666D01*
X96209619Y-87114047D02*
X96162000Y-87161666D01*
X96114380Y-87256904D01*
X96114380Y-87495000D01*
X96162000Y-87590238D01*
X96209619Y-87637857D01*
X96304857Y-87685476D01*
X96400095Y-87685476D01*
X96542952Y-87637857D01*
X97114380Y-87066428D01*
X97114380Y-87685476D01*
X96114380Y-88018809D02*
X96114380Y-88637857D01*
X96495333Y-88304523D01*
X96495333Y-88447380D01*
X96542952Y-88542619D01*
X96590571Y-88590238D01*
X96685809Y-88637857D01*
X96923904Y-88637857D01*
X97019142Y-88590238D01*
X97066761Y-88542619D01*
X97114380Y-88447380D01*
X97114380Y-88161666D01*
X97066761Y-88066428D01*
X97019142Y-88018809D01*
%TO.C,TP22*%
X96114380Y-90336904D02*
X96114380Y-90908333D01*
X97114380Y-90622619D02*
X96114380Y-90622619D01*
X97114380Y-91241666D02*
X96114380Y-91241666D01*
X96114380Y-91622619D01*
X96162000Y-91717857D01*
X96209619Y-91765476D01*
X96304857Y-91813095D01*
X96447714Y-91813095D01*
X96542952Y-91765476D01*
X96590571Y-91717857D01*
X96638190Y-91622619D01*
X96638190Y-91241666D01*
X96209619Y-92194047D02*
X96162000Y-92241666D01*
X96114380Y-92336904D01*
X96114380Y-92575000D01*
X96162000Y-92670238D01*
X96209619Y-92717857D01*
X96304857Y-92765476D01*
X96400095Y-92765476D01*
X96542952Y-92717857D01*
X97114380Y-92146428D01*
X97114380Y-92765476D01*
X96209619Y-93146428D02*
X96162000Y-93194047D01*
X96114380Y-93289285D01*
X96114380Y-93527380D01*
X96162000Y-93622619D01*
X96209619Y-93670238D01*
X96304857Y-93717857D01*
X96400095Y-93717857D01*
X96542952Y-93670238D01*
X97114380Y-93098809D01*
X97114380Y-93717857D01*
%TO.C,TP21*%
X98654380Y-97321904D02*
X98654380Y-97893333D01*
X99654380Y-97607619D02*
X98654380Y-97607619D01*
X99654380Y-98226666D02*
X98654380Y-98226666D01*
X98654380Y-98607619D01*
X98702000Y-98702857D01*
X98749619Y-98750476D01*
X98844857Y-98798095D01*
X98987714Y-98798095D01*
X99082952Y-98750476D01*
X99130571Y-98702857D01*
X99178190Y-98607619D01*
X99178190Y-98226666D01*
X98749619Y-99179047D02*
X98702000Y-99226666D01*
X98654380Y-99321904D01*
X98654380Y-99560000D01*
X98702000Y-99655238D01*
X98749619Y-99702857D01*
X98844857Y-99750476D01*
X98940095Y-99750476D01*
X99082952Y-99702857D01*
X99654380Y-99131428D01*
X99654380Y-99750476D01*
X99654380Y-100702857D02*
X99654380Y-100131428D01*
X99654380Y-100417142D02*
X98654380Y-100417142D01*
X98797238Y-100321904D01*
X98892476Y-100226666D01*
X98940095Y-100131428D01*
%TO.C,TP20*%
X98654380Y-102401904D02*
X98654380Y-102973333D01*
X99654380Y-102687619D02*
X98654380Y-102687619D01*
X99654380Y-103306666D02*
X98654380Y-103306666D01*
X98654380Y-103687619D01*
X98702000Y-103782857D01*
X98749619Y-103830476D01*
X98844857Y-103878095D01*
X98987714Y-103878095D01*
X99082952Y-103830476D01*
X99130571Y-103782857D01*
X99178190Y-103687619D01*
X99178190Y-103306666D01*
X98749619Y-104259047D02*
X98702000Y-104306666D01*
X98654380Y-104401904D01*
X98654380Y-104640000D01*
X98702000Y-104735238D01*
X98749619Y-104782857D01*
X98844857Y-104830476D01*
X98940095Y-104830476D01*
X99082952Y-104782857D01*
X99654380Y-104211428D01*
X99654380Y-104830476D01*
X98654380Y-105449523D02*
X98654380Y-105544761D01*
X98702000Y-105640000D01*
X98749619Y-105687619D01*
X98844857Y-105735238D01*
X99035333Y-105782857D01*
X99273428Y-105782857D01*
X99463904Y-105735238D01*
X99559142Y-105687619D01*
X99606761Y-105640000D01*
X99654380Y-105544761D01*
X99654380Y-105449523D01*
X99606761Y-105354285D01*
X99559142Y-105306666D01*
X99463904Y-105259047D01*
X99273428Y-105211428D01*
X99035333Y-105211428D01*
X98844857Y-105259047D01*
X98749619Y-105306666D01*
X98702000Y-105354285D01*
X98654380Y-105449523D01*
%TO.C,TP19*%
X98654380Y-107481904D02*
X98654380Y-108053333D01*
X99654380Y-107767619D02*
X98654380Y-107767619D01*
X99654380Y-108386666D02*
X98654380Y-108386666D01*
X98654380Y-108767619D01*
X98702000Y-108862857D01*
X98749619Y-108910476D01*
X98844857Y-108958095D01*
X98987714Y-108958095D01*
X99082952Y-108910476D01*
X99130571Y-108862857D01*
X99178190Y-108767619D01*
X99178190Y-108386666D01*
X99654380Y-109910476D02*
X99654380Y-109339047D01*
X99654380Y-109624761D02*
X98654380Y-109624761D01*
X98797238Y-109529523D01*
X98892476Y-109434285D01*
X98940095Y-109339047D01*
X99654380Y-110386666D02*
X99654380Y-110577142D01*
X99606761Y-110672380D01*
X99559142Y-110720000D01*
X99416285Y-110815238D01*
X99225809Y-110862857D01*
X98844857Y-110862857D01*
X98749619Y-110815238D01*
X98702000Y-110767619D01*
X98654380Y-110672380D01*
X98654380Y-110481904D01*
X98702000Y-110386666D01*
X98749619Y-110339047D01*
X98844857Y-110291428D01*
X99082952Y-110291428D01*
X99178190Y-110339047D01*
X99225809Y-110386666D01*
X99273428Y-110481904D01*
X99273428Y-110672380D01*
X99225809Y-110767619D01*
X99178190Y-110815238D01*
X99082952Y-110862857D01*
%TO.C,TP18*%
X105639380Y-126531904D02*
X105639380Y-127103333D01*
X106639380Y-126817619D02*
X105639380Y-126817619D01*
X106639380Y-127436666D02*
X105639380Y-127436666D01*
X105639380Y-127817619D01*
X105687000Y-127912857D01*
X105734619Y-127960476D01*
X105829857Y-128008095D01*
X105972714Y-128008095D01*
X106067952Y-127960476D01*
X106115571Y-127912857D01*
X106163190Y-127817619D01*
X106163190Y-127436666D01*
X106639380Y-128960476D02*
X106639380Y-128389047D01*
X106639380Y-128674761D02*
X105639380Y-128674761D01*
X105782238Y-128579523D01*
X105877476Y-128484285D01*
X105925095Y-128389047D01*
X106067952Y-129531904D02*
X106020333Y-129436666D01*
X105972714Y-129389047D01*
X105877476Y-129341428D01*
X105829857Y-129341428D01*
X105734619Y-129389047D01*
X105687000Y-129436666D01*
X105639380Y-129531904D01*
X105639380Y-129722380D01*
X105687000Y-129817619D01*
X105734619Y-129865238D01*
X105829857Y-129912857D01*
X105877476Y-129912857D01*
X105972714Y-129865238D01*
X106020333Y-129817619D01*
X106067952Y-129722380D01*
X106067952Y-129531904D01*
X106115571Y-129436666D01*
X106163190Y-129389047D01*
X106258428Y-129341428D01*
X106448904Y-129341428D01*
X106544142Y-129389047D01*
X106591761Y-129436666D01*
X106639380Y-129531904D01*
X106639380Y-129722380D01*
X106591761Y-129817619D01*
X106544142Y-129865238D01*
X106448904Y-129912857D01*
X106258428Y-129912857D01*
X106163190Y-129865238D01*
X106115571Y-129817619D01*
X106067952Y-129722380D01*
%TO.C,TP17*%
X100559380Y-126531904D02*
X100559380Y-127103333D01*
X101559380Y-126817619D02*
X100559380Y-126817619D01*
X101559380Y-127436666D02*
X100559380Y-127436666D01*
X100559380Y-127817619D01*
X100607000Y-127912857D01*
X100654619Y-127960476D01*
X100749857Y-128008095D01*
X100892714Y-128008095D01*
X100987952Y-127960476D01*
X101035571Y-127912857D01*
X101083190Y-127817619D01*
X101083190Y-127436666D01*
X101559380Y-128960476D02*
X101559380Y-128389047D01*
X101559380Y-128674761D02*
X100559380Y-128674761D01*
X100702238Y-128579523D01*
X100797476Y-128484285D01*
X100845095Y-128389047D01*
X100559380Y-129293809D02*
X100559380Y-129960476D01*
X101559380Y-129531904D01*
%TO.C,TP16*%
X94844380Y-126531904D02*
X94844380Y-127103333D01*
X95844380Y-126817619D02*
X94844380Y-126817619D01*
X95844380Y-127436666D02*
X94844380Y-127436666D01*
X94844380Y-127817619D01*
X94892000Y-127912857D01*
X94939619Y-127960476D01*
X95034857Y-128008095D01*
X95177714Y-128008095D01*
X95272952Y-127960476D01*
X95320571Y-127912857D01*
X95368190Y-127817619D01*
X95368190Y-127436666D01*
X95844380Y-128960476D02*
X95844380Y-128389047D01*
X95844380Y-128674761D02*
X94844380Y-128674761D01*
X94987238Y-128579523D01*
X95082476Y-128484285D01*
X95130095Y-128389047D01*
X94844380Y-129817619D02*
X94844380Y-129627142D01*
X94892000Y-129531904D01*
X94939619Y-129484285D01*
X95082476Y-129389047D01*
X95272952Y-129341428D01*
X95653904Y-129341428D01*
X95749142Y-129389047D01*
X95796761Y-129436666D01*
X95844380Y-129531904D01*
X95844380Y-129722380D01*
X95796761Y-129817619D01*
X95749142Y-129865238D01*
X95653904Y-129912857D01*
X95415809Y-129912857D01*
X95320571Y-129865238D01*
X95272952Y-129817619D01*
X95225333Y-129722380D01*
X95225333Y-129531904D01*
X95272952Y-129436666D01*
X95320571Y-129389047D01*
X95415809Y-129341428D01*
%TO.C,TP15*%
X175489380Y-94781904D02*
X175489380Y-95353333D01*
X176489380Y-95067619D02*
X175489380Y-95067619D01*
X176489380Y-95686666D02*
X175489380Y-95686666D01*
X175489380Y-96067619D01*
X175537000Y-96162857D01*
X175584619Y-96210476D01*
X175679857Y-96258095D01*
X175822714Y-96258095D01*
X175917952Y-96210476D01*
X175965571Y-96162857D01*
X176013190Y-96067619D01*
X176013190Y-95686666D01*
X176489380Y-97210476D02*
X176489380Y-96639047D01*
X176489380Y-96924761D02*
X175489380Y-96924761D01*
X175632238Y-96829523D01*
X175727476Y-96734285D01*
X175775095Y-96639047D01*
X175489380Y-98115238D02*
X175489380Y-97639047D01*
X175965571Y-97591428D01*
X175917952Y-97639047D01*
X175870333Y-97734285D01*
X175870333Y-97972380D01*
X175917952Y-98067619D01*
X175965571Y-98115238D01*
X176060809Y-98162857D01*
X176298904Y-98162857D01*
X176394142Y-98115238D01*
X176441761Y-98067619D01*
X176489380Y-97972380D01*
X176489380Y-97734285D01*
X176441761Y-97639047D01*
X176394142Y-97591428D01*
%TO.C,TP14*%
X175489380Y-100496904D02*
X175489380Y-101068333D01*
X176489380Y-100782619D02*
X175489380Y-100782619D01*
X176489380Y-101401666D02*
X175489380Y-101401666D01*
X175489380Y-101782619D01*
X175537000Y-101877857D01*
X175584619Y-101925476D01*
X175679857Y-101973095D01*
X175822714Y-101973095D01*
X175917952Y-101925476D01*
X175965571Y-101877857D01*
X176013190Y-101782619D01*
X176013190Y-101401666D01*
X176489380Y-102925476D02*
X176489380Y-102354047D01*
X176489380Y-102639761D02*
X175489380Y-102639761D01*
X175632238Y-102544523D01*
X175727476Y-102449285D01*
X175775095Y-102354047D01*
X175822714Y-103782619D02*
X176489380Y-103782619D01*
X175441761Y-103544523D02*
X176156047Y-103306428D01*
X176156047Y-103925476D01*
%TO.C,TP13*%
X175489380Y-105576904D02*
X175489380Y-106148333D01*
X176489380Y-105862619D02*
X175489380Y-105862619D01*
X176489380Y-106481666D02*
X175489380Y-106481666D01*
X175489380Y-106862619D01*
X175537000Y-106957857D01*
X175584619Y-107005476D01*
X175679857Y-107053095D01*
X175822714Y-107053095D01*
X175917952Y-107005476D01*
X175965571Y-106957857D01*
X176013190Y-106862619D01*
X176013190Y-106481666D01*
X176489380Y-108005476D02*
X176489380Y-107434047D01*
X176489380Y-107719761D02*
X175489380Y-107719761D01*
X175632238Y-107624523D01*
X175727476Y-107529285D01*
X175775095Y-107434047D01*
X175489380Y-108338809D02*
X175489380Y-108957857D01*
X175870333Y-108624523D01*
X175870333Y-108767380D01*
X175917952Y-108862619D01*
X175965571Y-108910238D01*
X176060809Y-108957857D01*
X176298904Y-108957857D01*
X176394142Y-108910238D01*
X176441761Y-108862619D01*
X176489380Y-108767380D01*
X176489380Y-108481666D01*
X176441761Y-108386428D01*
X176394142Y-108338809D01*
%TO.C,TP12*%
X179934380Y-125261904D02*
X179934380Y-125833333D01*
X180934380Y-125547619D02*
X179934380Y-125547619D01*
X180934380Y-126166666D02*
X179934380Y-126166666D01*
X179934380Y-126547619D01*
X179982000Y-126642857D01*
X180029619Y-126690476D01*
X180124857Y-126738095D01*
X180267714Y-126738095D01*
X180362952Y-126690476D01*
X180410571Y-126642857D01*
X180458190Y-126547619D01*
X180458190Y-126166666D01*
X180934380Y-127690476D02*
X180934380Y-127119047D01*
X180934380Y-127404761D02*
X179934380Y-127404761D01*
X180077238Y-127309523D01*
X180172476Y-127214285D01*
X180220095Y-127119047D01*
X180029619Y-128071428D02*
X179982000Y-128119047D01*
X179934380Y-128214285D01*
X179934380Y-128452380D01*
X179982000Y-128547619D01*
X180029619Y-128595238D01*
X180124857Y-128642857D01*
X180220095Y-128642857D01*
X180362952Y-128595238D01*
X180934380Y-128023809D01*
X180934380Y-128642857D01*
%TO.C,TP11*%
X175489380Y-125261904D02*
X175489380Y-125833333D01*
X176489380Y-125547619D02*
X175489380Y-125547619D01*
X176489380Y-126166666D02*
X175489380Y-126166666D01*
X175489380Y-126547619D01*
X175537000Y-126642857D01*
X175584619Y-126690476D01*
X175679857Y-126738095D01*
X175822714Y-126738095D01*
X175917952Y-126690476D01*
X175965571Y-126642857D01*
X176013190Y-126547619D01*
X176013190Y-126166666D01*
X176489380Y-127690476D02*
X176489380Y-127119047D01*
X176489380Y-127404761D02*
X175489380Y-127404761D01*
X175632238Y-127309523D01*
X175727476Y-127214285D01*
X175775095Y-127119047D01*
X176489380Y-128642857D02*
X176489380Y-128071428D01*
X176489380Y-128357142D02*
X175489380Y-128357142D01*
X175632238Y-128261904D01*
X175727476Y-128166666D01*
X175775095Y-128071428D01*
%TO.C,TP10*%
X175093095Y-124054380D02*
X174521666Y-124054380D01*
X174807380Y-125054380D02*
X174807380Y-124054380D01*
X174188333Y-125054380D02*
X174188333Y-124054380D01*
X173807380Y-124054380D01*
X173712142Y-124102000D01*
X173664523Y-124149619D01*
X173616904Y-124244857D01*
X173616904Y-124387714D01*
X173664523Y-124482952D01*
X173712142Y-124530571D01*
X173807380Y-124578190D01*
X174188333Y-124578190D01*
X172664523Y-125054380D02*
X173235952Y-125054380D01*
X172950238Y-125054380D02*
X172950238Y-124054380D01*
X173045476Y-124197238D01*
X173140714Y-124292476D01*
X173235952Y-124340095D01*
X172045476Y-124054380D02*
X171950238Y-124054380D01*
X171855000Y-124102000D01*
X171807380Y-124149619D01*
X171759761Y-124244857D01*
X171712142Y-124435333D01*
X171712142Y-124673428D01*
X171759761Y-124863904D01*
X171807380Y-124959142D01*
X171855000Y-125006761D01*
X171950238Y-125054380D01*
X172045476Y-125054380D01*
X172140714Y-125006761D01*
X172188333Y-124959142D01*
X172235952Y-124863904D01*
X172283571Y-124673428D01*
X172283571Y-124435333D01*
X172235952Y-124244857D01*
X172188333Y-124149619D01*
X172140714Y-124102000D01*
X172045476Y-124054380D01*
%TO.C,TP9*%
X167631904Y-122149380D02*
X167060476Y-122149380D01*
X167346190Y-123149380D02*
X167346190Y-122149380D01*
X166727142Y-123149380D02*
X166727142Y-122149380D01*
X166346190Y-122149380D01*
X166250952Y-122197000D01*
X166203333Y-122244619D01*
X166155714Y-122339857D01*
X166155714Y-122482714D01*
X166203333Y-122577952D01*
X166250952Y-122625571D01*
X166346190Y-122673190D01*
X166727142Y-122673190D01*
X165679523Y-123149380D02*
X165489047Y-123149380D01*
X165393809Y-123101761D01*
X165346190Y-123054142D01*
X165250952Y-122911285D01*
X165203333Y-122720809D01*
X165203333Y-122339857D01*
X165250952Y-122244619D01*
X165298571Y-122197000D01*
X165393809Y-122149380D01*
X165584285Y-122149380D01*
X165679523Y-122197000D01*
X165727142Y-122244619D01*
X165774761Y-122339857D01*
X165774761Y-122577952D01*
X165727142Y-122673190D01*
X165679523Y-122720809D01*
X165584285Y-122768428D01*
X165393809Y-122768428D01*
X165298571Y-122720809D01*
X165250952Y-122673190D01*
X165203333Y-122577952D01*
%TO.C,TP8*%
X162551904Y-122149380D02*
X161980476Y-122149380D01*
X162266190Y-123149380D02*
X162266190Y-122149380D01*
X161647142Y-123149380D02*
X161647142Y-122149380D01*
X161266190Y-122149380D01*
X161170952Y-122197000D01*
X161123333Y-122244619D01*
X161075714Y-122339857D01*
X161075714Y-122482714D01*
X161123333Y-122577952D01*
X161170952Y-122625571D01*
X161266190Y-122673190D01*
X161647142Y-122673190D01*
X160504285Y-122577952D02*
X160599523Y-122530333D01*
X160647142Y-122482714D01*
X160694761Y-122387476D01*
X160694761Y-122339857D01*
X160647142Y-122244619D01*
X160599523Y-122197000D01*
X160504285Y-122149380D01*
X160313809Y-122149380D01*
X160218571Y-122197000D01*
X160170952Y-122244619D01*
X160123333Y-122339857D01*
X160123333Y-122387476D01*
X160170952Y-122482714D01*
X160218571Y-122530333D01*
X160313809Y-122577952D01*
X160504285Y-122577952D01*
X160599523Y-122625571D01*
X160647142Y-122673190D01*
X160694761Y-122768428D01*
X160694761Y-122958904D01*
X160647142Y-123054142D01*
X160599523Y-123101761D01*
X160504285Y-123149380D01*
X160313809Y-123149380D01*
X160218571Y-123101761D01*
X160170952Y-123054142D01*
X160123333Y-122958904D01*
X160123333Y-122768428D01*
X160170952Y-122673190D01*
X160218571Y-122625571D01*
X160313809Y-122577952D01*
%TO.C,TP7*%
X157471904Y-122149380D02*
X156900476Y-122149380D01*
X157186190Y-123149380D02*
X157186190Y-122149380D01*
X156567142Y-123149380D02*
X156567142Y-122149380D01*
X156186190Y-122149380D01*
X156090952Y-122197000D01*
X156043333Y-122244619D01*
X155995714Y-122339857D01*
X155995714Y-122482714D01*
X156043333Y-122577952D01*
X156090952Y-122625571D01*
X156186190Y-122673190D01*
X156567142Y-122673190D01*
X155662380Y-122149380D02*
X154995714Y-122149380D01*
X155424285Y-123149380D01*
%TO.C,TP6*%
X143104380Y-123833095D02*
X143104380Y-124404523D01*
X144104380Y-124118809D02*
X143104380Y-124118809D01*
X144104380Y-124737857D02*
X143104380Y-124737857D01*
X143104380Y-125118809D01*
X143152000Y-125214047D01*
X143199619Y-125261666D01*
X143294857Y-125309285D01*
X143437714Y-125309285D01*
X143532952Y-125261666D01*
X143580571Y-125214047D01*
X143628190Y-125118809D01*
X143628190Y-124737857D01*
X143104380Y-126166428D02*
X143104380Y-125975952D01*
X143152000Y-125880714D01*
X143199619Y-125833095D01*
X143342476Y-125737857D01*
X143532952Y-125690238D01*
X143913904Y-125690238D01*
X144009142Y-125737857D01*
X144056761Y-125785476D01*
X144104380Y-125880714D01*
X144104380Y-126071190D01*
X144056761Y-126166428D01*
X144009142Y-126214047D01*
X143913904Y-126261666D01*
X143675809Y-126261666D01*
X143580571Y-126214047D01*
X143532952Y-126166428D01*
X143485333Y-126071190D01*
X143485333Y-125880714D01*
X143532952Y-125785476D01*
X143580571Y-125737857D01*
X143675809Y-125690238D01*
%TO.C,TP5*%
X137389380Y-123833095D02*
X137389380Y-124404523D01*
X138389380Y-124118809D02*
X137389380Y-124118809D01*
X138389380Y-124737857D02*
X137389380Y-124737857D01*
X137389380Y-125118809D01*
X137437000Y-125214047D01*
X137484619Y-125261666D01*
X137579857Y-125309285D01*
X137722714Y-125309285D01*
X137817952Y-125261666D01*
X137865571Y-125214047D01*
X137913190Y-125118809D01*
X137913190Y-124737857D01*
X137389380Y-126214047D02*
X137389380Y-125737857D01*
X137865571Y-125690238D01*
X137817952Y-125737857D01*
X137770333Y-125833095D01*
X137770333Y-126071190D01*
X137817952Y-126166428D01*
X137865571Y-126214047D01*
X137960809Y-126261666D01*
X138198904Y-126261666D01*
X138294142Y-126214047D01*
X138341761Y-126166428D01*
X138389380Y-126071190D01*
X138389380Y-125833095D01*
X138341761Y-125737857D01*
X138294142Y-125690238D01*
%TO.C,TP4*%
X132309380Y-123833095D02*
X132309380Y-124404523D01*
X133309380Y-124118809D02*
X132309380Y-124118809D01*
X133309380Y-124737857D02*
X132309380Y-124737857D01*
X132309380Y-125118809D01*
X132357000Y-125214047D01*
X132404619Y-125261666D01*
X132499857Y-125309285D01*
X132642714Y-125309285D01*
X132737952Y-125261666D01*
X132785571Y-125214047D01*
X132833190Y-125118809D01*
X132833190Y-124737857D01*
X132642714Y-126166428D02*
X133309380Y-126166428D01*
X132261761Y-125928333D02*
X132976047Y-125690238D01*
X132976047Y-126309285D01*
%TO.C,TP3*%
X120879380Y-123833095D02*
X120879380Y-124404523D01*
X121879380Y-124118809D02*
X120879380Y-124118809D01*
X121879380Y-124737857D02*
X120879380Y-124737857D01*
X120879380Y-125118809D01*
X120927000Y-125214047D01*
X120974619Y-125261666D01*
X121069857Y-125309285D01*
X121212714Y-125309285D01*
X121307952Y-125261666D01*
X121355571Y-125214047D01*
X121403190Y-125118809D01*
X121403190Y-124737857D01*
X120879380Y-125642619D02*
X120879380Y-126261666D01*
X121260333Y-125928333D01*
X121260333Y-126071190D01*
X121307952Y-126166428D01*
X121355571Y-126214047D01*
X121450809Y-126261666D01*
X121688904Y-126261666D01*
X121784142Y-126214047D01*
X121831761Y-126166428D01*
X121879380Y-126071190D01*
X121879380Y-125785476D01*
X121831761Y-125690238D01*
X121784142Y-125642619D01*
%TO.C,TP2*%
X115799380Y-123833095D02*
X115799380Y-124404523D01*
X116799380Y-124118809D02*
X115799380Y-124118809D01*
X116799380Y-124737857D02*
X115799380Y-124737857D01*
X115799380Y-125118809D01*
X115847000Y-125214047D01*
X115894619Y-125261666D01*
X115989857Y-125309285D01*
X116132714Y-125309285D01*
X116227952Y-125261666D01*
X116275571Y-125214047D01*
X116323190Y-125118809D01*
X116323190Y-124737857D01*
X115894619Y-125690238D02*
X115847000Y-125737857D01*
X115799380Y-125833095D01*
X115799380Y-126071190D01*
X115847000Y-126166428D01*
X115894619Y-126214047D01*
X115989857Y-126261666D01*
X116085095Y-126261666D01*
X116227952Y-126214047D01*
X116799380Y-125642619D01*
X116799380Y-126261666D01*
%TO.C,TP1*%
X110719380Y-123833095D02*
X110719380Y-124404523D01*
X111719380Y-124118809D02*
X110719380Y-124118809D01*
X111719380Y-124737857D02*
X110719380Y-124737857D01*
X110719380Y-125118809D01*
X110767000Y-125214047D01*
X110814619Y-125261666D01*
X110909857Y-125309285D01*
X111052714Y-125309285D01*
X111147952Y-125261666D01*
X111195571Y-125214047D01*
X111243190Y-125118809D01*
X111243190Y-124737857D01*
X111719380Y-126261666D02*
X111719380Y-125690238D01*
X111719380Y-125975952D02*
X110719380Y-125975952D01*
X110862238Y-125880714D01*
X110957476Y-125785476D01*
X111005095Y-125690238D01*
%TO.C,TP44*%
X130135095Y-57398380D02*
X129563666Y-57398380D01*
X129849380Y-58398380D02*
X129849380Y-57398380D01*
X129230333Y-58398380D02*
X129230333Y-57398380D01*
X128849380Y-57398380D01*
X128754142Y-57446000D01*
X128706523Y-57493619D01*
X128658904Y-57588857D01*
X128658904Y-57731714D01*
X128706523Y-57826952D01*
X128754142Y-57874571D01*
X128849380Y-57922190D01*
X129230333Y-57922190D01*
X127801761Y-57731714D02*
X127801761Y-58398380D01*
X128039857Y-57350761D02*
X128277952Y-58065047D01*
X127658904Y-58065047D01*
X126849380Y-57731714D02*
X126849380Y-58398380D01*
X127087476Y-57350761D02*
X127325571Y-58065047D01*
X126706523Y-58065047D01*
%TO.C,J8*%
X105743333Y-44747380D02*
X105743333Y-45461666D01*
X105790952Y-45604523D01*
X105886190Y-45699761D01*
X106029047Y-45747380D01*
X106124285Y-45747380D01*
X105124285Y-45175952D02*
X105219523Y-45128333D01*
X105267142Y-45080714D01*
X105314761Y-44985476D01*
X105314761Y-44937857D01*
X105267142Y-44842619D01*
X105219523Y-44795000D01*
X105124285Y-44747380D01*
X104933809Y-44747380D01*
X104838571Y-44795000D01*
X104790952Y-44842619D01*
X104743333Y-44937857D01*
X104743333Y-44985476D01*
X104790952Y-45080714D01*
X104838571Y-45128333D01*
X104933809Y-45175952D01*
X105124285Y-45175952D01*
X105219523Y-45223571D01*
X105267142Y-45271190D01*
X105314761Y-45366428D01*
X105314761Y-45556904D01*
X105267142Y-45652142D01*
X105219523Y-45699761D01*
X105124285Y-45747380D01*
X104933809Y-45747380D01*
X104838571Y-45699761D01*
X104790952Y-45652142D01*
X104743333Y-45556904D01*
X104743333Y-45366428D01*
X104790952Y-45271190D01*
X104838571Y-45223571D01*
X104933809Y-45175952D01*
%TO.C,J13*%
X122094523Y-44747380D02*
X122094523Y-45461666D01*
X122142142Y-45604523D01*
X122237380Y-45699761D01*
X122380238Y-45747380D01*
X122475476Y-45747380D01*
X121094523Y-45747380D02*
X121665952Y-45747380D01*
X121380238Y-45747380D02*
X121380238Y-44747380D01*
X121475476Y-44890238D01*
X121570714Y-44985476D01*
X121665952Y-45033095D01*
X120761190Y-44747380D02*
X120142142Y-44747380D01*
X120475476Y-45128333D01*
X120332619Y-45128333D01*
X120237380Y-45175952D01*
X120189761Y-45223571D01*
X120142142Y-45318809D01*
X120142142Y-45556904D01*
X120189761Y-45652142D01*
X120237380Y-45699761D01*
X120332619Y-45747380D01*
X120618333Y-45747380D01*
X120713571Y-45699761D01*
X120761190Y-45652142D01*
%TO.C,J11*%
X117014523Y-44747380D02*
X117014523Y-45461666D01*
X117062142Y-45604523D01*
X117157380Y-45699761D01*
X117300238Y-45747380D01*
X117395476Y-45747380D01*
X116014523Y-45747380D02*
X116585952Y-45747380D01*
X116300238Y-45747380D02*
X116300238Y-44747380D01*
X116395476Y-44890238D01*
X116490714Y-44985476D01*
X116585952Y-45033095D01*
X115062142Y-45747380D02*
X115633571Y-45747380D01*
X115347857Y-45747380D02*
X115347857Y-44747380D01*
X115443095Y-44890238D01*
X115538333Y-44985476D01*
X115633571Y-45033095D01*
%TO.C,J10*%
X111299523Y-44747380D02*
X111299523Y-45461666D01*
X111347142Y-45604523D01*
X111442380Y-45699761D01*
X111585238Y-45747380D01*
X111680476Y-45747380D01*
X110299523Y-45747380D02*
X110870952Y-45747380D01*
X110585238Y-45747380D02*
X110585238Y-44747380D01*
X110680476Y-44890238D01*
X110775714Y-44985476D01*
X110870952Y-45033095D01*
X109680476Y-44747380D02*
X109585238Y-44747380D01*
X109490000Y-44795000D01*
X109442380Y-44842619D01*
X109394761Y-44937857D01*
X109347142Y-45128333D01*
X109347142Y-45366428D01*
X109394761Y-45556904D01*
X109442380Y-45652142D01*
X109490000Y-45699761D01*
X109585238Y-45747380D01*
X109680476Y-45747380D01*
X109775714Y-45699761D01*
X109823333Y-45652142D01*
X109870952Y-45556904D01*
X109918571Y-45366428D01*
X109918571Y-45128333D01*
X109870952Y-44937857D01*
X109823333Y-44842619D01*
X109775714Y-44795000D01*
X109680476Y-44747380D01*
%TO.C,J49*%
X178782380Y-55070476D02*
X179496666Y-55070476D01*
X179639523Y-55022857D01*
X179734761Y-54927619D01*
X179782380Y-54784761D01*
X179782380Y-54689523D01*
X179115714Y-55975238D02*
X179782380Y-55975238D01*
X178734761Y-55737142D02*
X179449047Y-55499047D01*
X179449047Y-56118095D01*
X179782380Y-56546666D02*
X179782380Y-56737142D01*
X179734761Y-56832380D01*
X179687142Y-56880000D01*
X179544285Y-56975238D01*
X179353809Y-57022857D01*
X178972857Y-57022857D01*
X178877619Y-56975238D01*
X178830000Y-56927619D01*
X178782380Y-56832380D01*
X178782380Y-56641904D01*
X178830000Y-56546666D01*
X178877619Y-56499047D01*
X178972857Y-56451428D01*
X179210952Y-56451428D01*
X179306190Y-56499047D01*
X179353809Y-56546666D01*
X179401428Y-56641904D01*
X179401428Y-56832380D01*
X179353809Y-56927619D01*
X179306190Y-56975238D01*
X179210952Y-57022857D01*
%TO.C,TP55*%
X151378380Y-44997904D02*
X151378380Y-45569333D01*
X152378380Y-45283619D02*
X151378380Y-45283619D01*
X152378380Y-45902666D02*
X151378380Y-45902666D01*
X151378380Y-46283619D01*
X151426000Y-46378857D01*
X151473619Y-46426476D01*
X151568857Y-46474095D01*
X151711714Y-46474095D01*
X151806952Y-46426476D01*
X151854571Y-46378857D01*
X151902190Y-46283619D01*
X151902190Y-45902666D01*
X151378380Y-47378857D02*
X151378380Y-46902666D01*
X151854571Y-46855047D01*
X151806952Y-46902666D01*
X151759333Y-46997904D01*
X151759333Y-47236000D01*
X151806952Y-47331238D01*
X151854571Y-47378857D01*
X151949809Y-47426476D01*
X152187904Y-47426476D01*
X152283142Y-47378857D01*
X152330761Y-47331238D01*
X152378380Y-47236000D01*
X152378380Y-46997904D01*
X152330761Y-46902666D01*
X152283142Y-46855047D01*
X151378380Y-48331238D02*
X151378380Y-47855047D01*
X151854571Y-47807428D01*
X151806952Y-47855047D01*
X151759333Y-47950285D01*
X151759333Y-48188380D01*
X151806952Y-48283619D01*
X151854571Y-48331238D01*
X151949809Y-48378857D01*
X152187904Y-48378857D01*
X152283142Y-48331238D01*
X152330761Y-48283619D01*
X152378380Y-48188380D01*
X152378380Y-47950285D01*
X152330761Y-47855047D01*
X152283142Y-47807428D01*
%TO.C,TP54*%
X145831623Y-57332387D02*
X145831623Y-57903816D01*
X146831623Y-57618102D02*
X145831623Y-57618102D01*
X146831623Y-58237149D02*
X145831623Y-58237149D01*
X145831623Y-58618102D01*
X145879243Y-58713340D01*
X145926862Y-58760959D01*
X146022100Y-58808578D01*
X146164957Y-58808578D01*
X146260195Y-58760959D01*
X146307814Y-58713340D01*
X146355433Y-58618102D01*
X146355433Y-58237149D01*
X145831623Y-59713340D02*
X145831623Y-59237149D01*
X146307814Y-59189530D01*
X146260195Y-59237149D01*
X146212576Y-59332387D01*
X146212576Y-59570483D01*
X146260195Y-59665721D01*
X146307814Y-59713340D01*
X146403052Y-59760959D01*
X146641147Y-59760959D01*
X146736385Y-59713340D01*
X146784004Y-59665721D01*
X146831623Y-59570483D01*
X146831623Y-59332387D01*
X146784004Y-59237149D01*
X146736385Y-59189530D01*
X146164957Y-60618102D02*
X146831623Y-60618102D01*
X145784004Y-60380006D02*
X146498290Y-60141911D01*
X146498290Y-60760959D01*
%TO.C,TP53*%
X142656623Y-57332387D02*
X142656623Y-57903816D01*
X143656623Y-57618102D02*
X142656623Y-57618102D01*
X143656623Y-58237149D02*
X142656623Y-58237149D01*
X142656623Y-58618102D01*
X142704243Y-58713340D01*
X142751862Y-58760959D01*
X142847100Y-58808578D01*
X142989957Y-58808578D01*
X143085195Y-58760959D01*
X143132814Y-58713340D01*
X143180433Y-58618102D01*
X143180433Y-58237149D01*
X142656623Y-59713340D02*
X142656623Y-59237149D01*
X143132814Y-59189530D01*
X143085195Y-59237149D01*
X143037576Y-59332387D01*
X143037576Y-59570483D01*
X143085195Y-59665721D01*
X143132814Y-59713340D01*
X143228052Y-59760959D01*
X143466147Y-59760959D01*
X143561385Y-59713340D01*
X143609004Y-59665721D01*
X143656623Y-59570483D01*
X143656623Y-59332387D01*
X143609004Y-59237149D01*
X143561385Y-59189530D01*
X142656623Y-60094292D02*
X142656623Y-60713340D01*
X143037576Y-60380006D01*
X143037576Y-60522863D01*
X143085195Y-60618102D01*
X143132814Y-60665721D01*
X143228052Y-60713340D01*
X143466147Y-60713340D01*
X143561385Y-60665721D01*
X143609004Y-60618102D01*
X143656623Y-60522863D01*
X143656623Y-60237149D01*
X143609004Y-60141911D01*
X143561385Y-60094292D01*
%TO.C,TP52*%
X148965380Y-48045904D02*
X148965380Y-48617333D01*
X149965380Y-48331619D02*
X148965380Y-48331619D01*
X149965380Y-48950666D02*
X148965380Y-48950666D01*
X148965380Y-49331619D01*
X149013000Y-49426857D01*
X149060619Y-49474476D01*
X149155857Y-49522095D01*
X149298714Y-49522095D01*
X149393952Y-49474476D01*
X149441571Y-49426857D01*
X149489190Y-49331619D01*
X149489190Y-48950666D01*
X148965380Y-50426857D02*
X148965380Y-49950666D01*
X149441571Y-49903047D01*
X149393952Y-49950666D01*
X149346333Y-50045904D01*
X149346333Y-50284000D01*
X149393952Y-50379238D01*
X149441571Y-50426857D01*
X149536809Y-50474476D01*
X149774904Y-50474476D01*
X149870142Y-50426857D01*
X149917761Y-50379238D01*
X149965380Y-50284000D01*
X149965380Y-50045904D01*
X149917761Y-49950666D01*
X149870142Y-49903047D01*
X149060619Y-50855428D02*
X149013000Y-50903047D01*
X148965380Y-50998285D01*
X148965380Y-51236380D01*
X149013000Y-51331619D01*
X149060619Y-51379238D01*
X149155857Y-51426857D01*
X149251095Y-51426857D01*
X149393952Y-51379238D01*
X149965380Y-50807809D01*
X149965380Y-51426857D01*
%TO.C,TP51*%
X148965380Y-51220904D02*
X148965380Y-51792333D01*
X149965380Y-51506619D02*
X148965380Y-51506619D01*
X149965380Y-52125666D02*
X148965380Y-52125666D01*
X148965380Y-52506619D01*
X149013000Y-52601857D01*
X149060619Y-52649476D01*
X149155857Y-52697095D01*
X149298714Y-52697095D01*
X149393952Y-52649476D01*
X149441571Y-52601857D01*
X149489190Y-52506619D01*
X149489190Y-52125666D01*
X148965380Y-53601857D02*
X148965380Y-53125666D01*
X149441571Y-53078047D01*
X149393952Y-53125666D01*
X149346333Y-53220904D01*
X149346333Y-53459000D01*
X149393952Y-53554238D01*
X149441571Y-53601857D01*
X149536809Y-53649476D01*
X149774904Y-53649476D01*
X149870142Y-53601857D01*
X149917761Y-53554238D01*
X149965380Y-53459000D01*
X149965380Y-53220904D01*
X149917761Y-53125666D01*
X149870142Y-53078047D01*
X149965380Y-54601857D02*
X149965380Y-54030428D01*
X149965380Y-54316142D02*
X148965380Y-54316142D01*
X149108238Y-54220904D01*
X149203476Y-54125666D01*
X149251095Y-54030428D01*
%TO.C,TP50*%
X143690380Y-51220904D02*
X143690380Y-51792333D01*
X144690380Y-51506619D02*
X143690380Y-51506619D01*
X144690380Y-52125666D02*
X143690380Y-52125666D01*
X143690380Y-52506619D01*
X143738000Y-52601857D01*
X143785619Y-52649476D01*
X143880857Y-52697095D01*
X144023714Y-52697095D01*
X144118952Y-52649476D01*
X144166571Y-52601857D01*
X144214190Y-52506619D01*
X144214190Y-52125666D01*
X143690380Y-53601857D02*
X143690380Y-53125666D01*
X144166571Y-53078047D01*
X144118952Y-53125666D01*
X144071333Y-53220904D01*
X144071333Y-53459000D01*
X144118952Y-53554238D01*
X144166571Y-53601857D01*
X144261809Y-53649476D01*
X144499904Y-53649476D01*
X144595142Y-53601857D01*
X144642761Y-53554238D01*
X144690380Y-53459000D01*
X144690380Y-53220904D01*
X144642761Y-53125666D01*
X144595142Y-53078047D01*
X143690380Y-54268523D02*
X143690380Y-54363761D01*
X143738000Y-54459000D01*
X143785619Y-54506619D01*
X143880857Y-54554238D01*
X144071333Y-54601857D01*
X144309428Y-54601857D01*
X144499904Y-54554238D01*
X144595142Y-54506619D01*
X144642761Y-54459000D01*
X144690380Y-54363761D01*
X144690380Y-54268523D01*
X144642761Y-54173285D01*
X144595142Y-54125666D01*
X144499904Y-54078047D01*
X144309428Y-54030428D01*
X144071333Y-54030428D01*
X143880857Y-54078047D01*
X143785619Y-54125666D01*
X143738000Y-54173285D01*
X143690380Y-54268523D01*
%TO.C,TP49*%
X143690380Y-48045904D02*
X143690380Y-48617333D01*
X144690380Y-48331619D02*
X143690380Y-48331619D01*
X144690380Y-48950666D02*
X143690380Y-48950666D01*
X143690380Y-49331619D01*
X143738000Y-49426857D01*
X143785619Y-49474476D01*
X143880857Y-49522095D01*
X144023714Y-49522095D01*
X144118952Y-49474476D01*
X144166571Y-49426857D01*
X144214190Y-49331619D01*
X144214190Y-48950666D01*
X144023714Y-50379238D02*
X144690380Y-50379238D01*
X143642761Y-50141142D02*
X144357047Y-49903047D01*
X144357047Y-50522095D01*
X144690380Y-50950666D02*
X144690380Y-51141142D01*
X144642761Y-51236380D01*
X144595142Y-51284000D01*
X144452285Y-51379238D01*
X144261809Y-51426857D01*
X143880857Y-51426857D01*
X143785619Y-51379238D01*
X143738000Y-51331619D01*
X143690380Y-51236380D01*
X143690380Y-51045904D01*
X143738000Y-50950666D01*
X143785619Y-50903047D01*
X143880857Y-50855428D01*
X144118952Y-50855428D01*
X144214190Y-50903047D01*
X144261809Y-50950666D01*
X144309428Y-51045904D01*
X144309428Y-51236380D01*
X144261809Y-51331619D01*
X144214190Y-51379238D01*
X144118952Y-51426857D01*
%TO.C,TP48*%
X136519380Y-45251904D02*
X136519380Y-45823333D01*
X137519380Y-45537619D02*
X136519380Y-45537619D01*
X137519380Y-46156666D02*
X136519380Y-46156666D01*
X136519380Y-46537619D01*
X136567000Y-46632857D01*
X136614619Y-46680476D01*
X136709857Y-46728095D01*
X136852714Y-46728095D01*
X136947952Y-46680476D01*
X136995571Y-46632857D01*
X137043190Y-46537619D01*
X137043190Y-46156666D01*
X136852714Y-47585238D02*
X137519380Y-47585238D01*
X136471761Y-47347142D02*
X137186047Y-47109047D01*
X137186047Y-47728095D01*
X136947952Y-48251904D02*
X136900333Y-48156666D01*
X136852714Y-48109047D01*
X136757476Y-48061428D01*
X136709857Y-48061428D01*
X136614619Y-48109047D01*
X136567000Y-48156666D01*
X136519380Y-48251904D01*
X136519380Y-48442380D01*
X136567000Y-48537619D01*
X136614619Y-48585238D01*
X136709857Y-48632857D01*
X136757476Y-48632857D01*
X136852714Y-48585238D01*
X136900333Y-48537619D01*
X136947952Y-48442380D01*
X136947952Y-48251904D01*
X136995571Y-48156666D01*
X137043190Y-48109047D01*
X137138428Y-48061428D01*
X137328904Y-48061428D01*
X137424142Y-48109047D01*
X137471761Y-48156666D01*
X137519380Y-48251904D01*
X137519380Y-48442380D01*
X137471761Y-48537619D01*
X137424142Y-48585238D01*
X137328904Y-48632857D01*
X137138428Y-48632857D01*
X137043190Y-48585238D01*
X136995571Y-48537619D01*
X136947952Y-48442380D01*
%TO.C,TP47*%
X139660095Y-57398380D02*
X139088666Y-57398380D01*
X139374380Y-58398380D02*
X139374380Y-57398380D01*
X138755333Y-58398380D02*
X138755333Y-57398380D01*
X138374380Y-57398380D01*
X138279142Y-57446000D01*
X138231523Y-57493619D01*
X138183904Y-57588857D01*
X138183904Y-57731714D01*
X138231523Y-57826952D01*
X138279142Y-57874571D01*
X138374380Y-57922190D01*
X138755333Y-57922190D01*
X137326761Y-57731714D02*
X137326761Y-58398380D01*
X137564857Y-57350761D02*
X137802952Y-58065047D01*
X137183904Y-58065047D01*
X136898190Y-57398380D02*
X136231523Y-57398380D01*
X136660095Y-58398380D01*
%TO.C,TP46*%
X136485095Y-57398380D02*
X135913666Y-57398380D01*
X136199380Y-58398380D02*
X136199380Y-57398380D01*
X135580333Y-58398380D02*
X135580333Y-57398380D01*
X135199380Y-57398380D01*
X135104142Y-57446000D01*
X135056523Y-57493619D01*
X135008904Y-57588857D01*
X135008904Y-57731714D01*
X135056523Y-57826952D01*
X135104142Y-57874571D01*
X135199380Y-57922190D01*
X135580333Y-57922190D01*
X134151761Y-57731714D02*
X134151761Y-58398380D01*
X134389857Y-57350761D02*
X134627952Y-58065047D01*
X134008904Y-58065047D01*
X133199380Y-57398380D02*
X133389857Y-57398380D01*
X133485095Y-57446000D01*
X133532714Y-57493619D01*
X133627952Y-57636476D01*
X133675571Y-57826952D01*
X133675571Y-58207904D01*
X133627952Y-58303142D01*
X133580333Y-58350761D01*
X133485095Y-58398380D01*
X133294619Y-58398380D01*
X133199380Y-58350761D01*
X133151761Y-58303142D01*
X133104142Y-58207904D01*
X133104142Y-57969809D01*
X133151761Y-57874571D01*
X133199380Y-57826952D01*
X133294619Y-57779333D01*
X133485095Y-57779333D01*
X133580333Y-57826952D01*
X133627952Y-57874571D01*
X133675571Y-57969809D01*
%TO.C,TP45*%
X133310095Y-57398380D02*
X132738666Y-57398380D01*
X133024380Y-58398380D02*
X133024380Y-57398380D01*
X132405333Y-58398380D02*
X132405333Y-57398380D01*
X132024380Y-57398380D01*
X131929142Y-57446000D01*
X131881523Y-57493619D01*
X131833904Y-57588857D01*
X131833904Y-57731714D01*
X131881523Y-57826952D01*
X131929142Y-57874571D01*
X132024380Y-57922190D01*
X132405333Y-57922190D01*
X130976761Y-57731714D02*
X130976761Y-58398380D01*
X131214857Y-57350761D02*
X131452952Y-58065047D01*
X130833904Y-58065047D01*
X129976761Y-57398380D02*
X130452952Y-57398380D01*
X130500571Y-57874571D01*
X130452952Y-57826952D01*
X130357714Y-57779333D01*
X130119619Y-57779333D01*
X130024380Y-57826952D01*
X129976761Y-57874571D01*
X129929142Y-57969809D01*
X129929142Y-58207904D01*
X129976761Y-58303142D01*
X130024380Y-58350761D01*
X130119619Y-58398380D01*
X130357714Y-58398380D01*
X130452952Y-58350761D01*
X130500571Y-58303142D01*
%TO.C,J16*%
X132499523Y-44747380D02*
X132499523Y-45461666D01*
X132547142Y-45604523D01*
X132642380Y-45699761D01*
X132785238Y-45747380D01*
X132880476Y-45747380D01*
X131499523Y-45747380D02*
X132070952Y-45747380D01*
X131785238Y-45747380D02*
X131785238Y-44747380D01*
X131880476Y-44890238D01*
X131975714Y-44985476D01*
X132070952Y-45033095D01*
X130642380Y-44747380D02*
X130832857Y-44747380D01*
X130928095Y-44795000D01*
X130975714Y-44842619D01*
X131070952Y-44985476D01*
X131118571Y-45175952D01*
X131118571Y-45556904D01*
X131070952Y-45652142D01*
X131023333Y-45699761D01*
X130928095Y-45747380D01*
X130737619Y-45747380D01*
X130642380Y-45699761D01*
X130594761Y-45652142D01*
X130547142Y-45556904D01*
X130547142Y-45318809D01*
X130594761Y-45223571D01*
X130642380Y-45175952D01*
X130737619Y-45128333D01*
X130928095Y-45128333D01*
X131023333Y-45175952D01*
X131070952Y-45223571D01*
X131118571Y-45318809D01*
%TO.C,J5*%
X125677380Y-44911666D02*
X126391666Y-44911666D01*
X126534523Y-44864047D01*
X126629761Y-44768809D01*
X126677380Y-44625952D01*
X126677380Y-44530714D01*
X125677380Y-45864047D02*
X125677380Y-45387857D01*
X126153571Y-45340238D01*
X126105952Y-45387857D01*
X126058333Y-45483095D01*
X126058333Y-45721190D01*
X126105952Y-45816428D01*
X126153571Y-45864047D01*
X126248809Y-45911666D01*
X126486904Y-45911666D01*
X126582142Y-45864047D01*
X126629761Y-45816428D01*
X126677380Y-45721190D01*
X126677380Y-45483095D01*
X126629761Y-45387857D01*
X126582142Y-45340238D01*
%TD*%
M02*
