M48
; DRILL file {KiCad (5.1.9)-1} date 04/12/21 23:14:26
; FORMAT={-:-/ absolute / inch / decimal}
; #@! TF.CreationDate,2021-04-12T23:14:26+02:00
; #@! TF.GenerationSoftware,Kicad,Pcbnew,(5.1.9)-1
; #@! TF.FileFunction,Plated,1,2,PTH
FMAT,2
INCH
T1C0.0354
T2C0.0394
T3C0.0591
T4C0.1260
T5C0.2087
%
G90
G05
T1
X6.85Y-2.075
X6.85Y-2.175
X6.85Y-2.275
X6.85Y-2.375
X6.95Y-2.025
X6.95Y-2.125
X6.95Y-2.225
X6.95Y-2.325
T2
X3.35Y-3.175
X3.35Y-3.275
X3.35Y-3.375
X3.35Y-3.475
X3.35Y-3.575
X3.35Y-3.675
X3.45Y-3.175
X3.45Y-3.275
X3.45Y-3.375
X3.45Y-3.475
X3.45Y-3.575
X3.45Y-3.675
X3.45Y-3.85
X3.45Y-3.95
X3.45Y-4.05
X3.45Y-4.15
X3.45Y-4.25
X3.45Y-4.35
X3.475Y-2.8
X3.475Y-2.9
X3.475Y-3.0
X3.55Y-3.175
X3.55Y-3.275
X3.55Y-3.375
X3.55Y-3.475
X3.55Y-3.575
X3.55Y-3.675
X3.55Y-3.85
X3.55Y-3.95
X3.55Y-4.05
X3.55Y-4.15
X3.55Y-4.25
X3.55Y-4.35
X3.575Y-2.8
X3.575Y-2.9
X3.575Y-3.0
X3.65Y-3.175
X3.65Y-3.275
X3.65Y-3.375
X3.65Y-3.475
X3.65Y-3.575
X3.65Y-3.675
X3.65Y-3.85
X3.65Y-3.95
X3.65Y-4.05
X3.65Y-4.15
X3.65Y-4.25
X3.65Y-4.35
X3.675Y-2.8
X3.675Y-2.9
X3.675Y-3.0
X3.75Y-3.175
X3.75Y-3.275
X3.75Y-3.375
X3.75Y-3.475
X3.75Y-3.575
X3.75Y-3.675
X3.75Y-3.85
X3.75Y-3.95
X3.75Y-4.05
X3.75Y-4.15
X3.75Y-4.25
X3.75Y-4.35
X3.775Y-2.8
X3.775Y-2.9
X3.775Y-3.0
X3.825Y-4.5
X3.825Y-4.6
X3.825Y-4.7
X3.825Y-4.8
X3.825Y-4.9
X3.85Y-3.85
X3.85Y-3.95
X3.85Y-4.05
X3.85Y-4.15
X3.85Y-4.25
X3.85Y-4.35
X3.875Y-2.8
X3.875Y-2.9
X3.875Y-3.0
X3.925Y-4.5
X3.925Y-4.6
X3.925Y-4.7
X3.925Y-4.8
X3.925Y-4.9
X4.025Y-4.5
X4.025Y-4.6
X4.025Y-4.7
X4.025Y-4.8
X4.025Y-4.9
X4.125Y-4.5
X4.125Y-4.6
X4.125Y-4.7
X4.125Y-4.8
X4.125Y-4.9
X4.225Y-4.5
X4.225Y-4.6
X4.225Y-4.7
X4.225Y-4.8
X4.225Y-4.9
X4.2346Y-1.875
X4.2346Y-1.975
X4.2346Y-2.075
X4.2346Y-2.175
X4.325Y-4.5
X4.325Y-4.6
X4.325Y-4.7
X4.325Y-4.8
X4.325Y-4.9
X4.425Y-2.8
X4.425Y-2.9
X4.425Y-3.0
X4.425Y-5.075
X4.425Y-5.175
X4.425Y-5.275
X4.425Y-5.375
X4.425Y-5.475
X4.45Y-1.875
X4.45Y-1.975
X4.45Y-2.075
X4.45Y-2.175
X4.525Y-2.8
X4.525Y-2.9
X4.525Y-3.0
X4.525Y-5.075
X4.525Y-5.175
X4.525Y-5.275
X4.525Y-5.375
X4.525Y-5.475
X4.625Y-2.8
X4.625Y-2.9
X4.625Y-3.0
X4.625Y-5.075
X4.625Y-5.175
X4.625Y-5.275
X4.625Y-5.375
X4.625Y-5.475
X4.65Y-1.875
X4.65Y-1.975
X4.65Y-2.075
X4.65Y-2.175
X4.725Y-5.075
X4.725Y-5.175
X4.725Y-5.275
X4.725Y-5.375
X4.725Y-5.475
X4.825Y-5.075
X4.825Y-5.175
X4.825Y-5.275
X4.825Y-5.375
X4.825Y-5.475
X4.85Y-1.875
X4.85Y-1.975
X4.85Y-2.075
X4.85Y-2.175
X4.925Y-5.075
X4.925Y-5.175
X4.925Y-5.275
X4.925Y-5.375
X4.925Y-5.475
X4.95Y-3.0
X4.95Y-3.1
X4.95Y-3.2
X4.95Y-3.3
X4.95Y-3.4
X4.95Y-3.5
X4.95Y-3.6
X4.95Y-3.7
X4.95Y-3.8
X4.95Y-3.9
X4.95Y-4.0
X4.95Y-4.1
X4.95Y-4.2
X4.95Y-4.3
X4.95Y-4.4
X5.05Y-3.0
X5.05Y-3.1
X5.05Y-3.2
X5.05Y-3.3
X5.05Y-3.4
X5.05Y-3.5
X5.05Y-3.6
X5.05Y-3.7
X5.05Y-3.8
X5.05Y-3.9
X5.05Y-4.0
X5.05Y-4.1
X5.05Y-4.2
X5.05Y-4.3
X5.05Y-4.4
X5.075Y-1.875
X5.075Y-1.975
X5.075Y-2.075
X5.075Y-2.175
X5.08Y-2.47
X5.18Y-2.47
X5.275Y-1.875
X5.275Y-1.975
X5.275Y-2.075
X5.275Y-2.175
X5.275Y-5.075
X5.275Y-5.175
X5.275Y-5.275
X5.275Y-5.375
X5.275Y-5.475
X5.28Y-2.47
X5.375Y-5.075
X5.375Y-5.175
X5.375Y-5.275
X5.375Y-5.375
X5.375Y-5.475
X5.38Y-2.47
X5.475Y-5.075
X5.475Y-5.175
X5.475Y-5.275
X5.475Y-5.375
X5.475Y-5.475
X5.575Y-5.075
X5.575Y-5.175
X5.575Y-5.275
X5.575Y-5.375
X5.575Y-5.475
X5.675Y-5.075
X5.675Y-5.175
X5.675Y-5.275
X5.675Y-5.375
X5.675Y-5.475
X5.725Y-1.875
X5.725Y-1.975
X5.725Y-2.075
X5.725Y-2.175
X5.775Y-5.075
X5.775Y-5.175
X5.775Y-5.275
X5.775Y-5.375
X5.775Y-5.475
X5.825Y-1.875
X5.825Y-1.975
X5.825Y-2.075
X5.825Y-2.175
X5.9Y-3.0
X5.9Y-3.1
X5.9Y-3.2
X5.9Y-3.3
X5.9Y-3.4
X5.9Y-3.5
X5.9Y-3.6
X5.9Y-3.7
X5.9Y-3.8
X5.9Y-3.9
X5.9Y-4.0
X5.9Y-4.1
X5.9Y-4.2
X5.9Y-4.3
X5.9Y-4.4
X6.0Y-3.0
X6.0Y-3.1
X6.0Y-3.2
X6.0Y-3.3
X6.0Y-3.4
X6.0Y-3.5
X6.0Y-3.6
X6.0Y-3.7
X6.0Y-3.8
X6.0Y-3.9
X6.0Y-4.0
X6.0Y-4.1
X6.0Y-4.2
X6.0Y-4.3
X6.0Y-4.4
X6.1Y-5.0776
X6.1Y-5.1776
X6.1Y-5.2776
X6.1Y-5.3776
X6.1Y-5.4776
X6.2Y-5.0776
X6.2Y-5.1776
X6.2Y-5.2776
X6.2Y-5.3776
X6.2Y-5.4776
X6.2693Y-2.2793
X6.3Y-5.0776
X6.3Y-5.1776
X6.3Y-5.2776
X6.3Y-5.3776
X6.3Y-5.4776
X6.34Y-2.2086
X6.34Y-2.35
X6.375Y-2.85
X6.375Y-2.95
X6.375Y-3.05
X6.4Y-5.0776
X6.4Y-5.1776
X6.4Y-5.2776
X6.4Y-5.3776
X6.4Y-5.4776
X6.4107Y-2.1379
X6.4107Y-2.2793
X6.475Y-2.85
X6.475Y-2.95
X6.475Y-3.05
X6.4814Y-2.0672
X6.4814Y-2.2086
X6.5Y-5.0776
X6.5Y-5.1776
X6.5Y-5.2776
X6.5Y-5.3776
X6.5Y-5.4776
X6.5521Y-2.1379
X6.575Y-2.85
X6.575Y-2.95
X6.575Y-3.05
X6.6Y-5.0776
X6.6Y-5.1776
X6.6Y-5.2776
X6.6Y-5.3776
X6.6Y-5.4776
X6.775Y-4.475
X6.775Y-4.575
X6.775Y-4.675
X6.775Y-4.775
X6.775Y-4.875
X6.875Y-2.85
X6.875Y-2.95
X6.875Y-3.05
X6.875Y-4.475
X6.875Y-4.575
X6.875Y-4.675
X6.875Y-4.775
X6.875Y-4.875
X6.975Y-2.85
X6.975Y-2.95
X6.975Y-3.05
X6.975Y-4.475
X6.975Y-4.575
X6.975Y-4.675
X6.975Y-4.775
X6.975Y-4.875
X7.075Y-2.85
X7.075Y-2.95
X7.075Y-3.05
X7.075Y-4.475
X7.075Y-4.575
X7.075Y-4.675
X7.075Y-4.775
X7.075Y-4.875
X7.15Y-3.3
X7.15Y-3.4
X7.15Y-3.5
X7.15Y-3.6
X7.175Y-3.775
X7.175Y-3.875
X7.175Y-3.975
X7.175Y-4.075
X7.175Y-4.175
X7.175Y-4.275
X7.175Y-4.475
X7.175Y-4.575
X7.175Y-4.675
X7.175Y-4.775
X7.175Y-4.875
X7.25Y-3.3
X7.25Y-3.4
X7.25Y-3.5
X7.25Y-3.6
X7.275Y-3.775
X7.275Y-3.875
X7.275Y-3.975
X7.275Y-4.075
X7.275Y-4.175
X7.275Y-4.275
X7.275Y-4.475
X7.275Y-4.575
X7.275Y-4.675
X7.275Y-4.775
X7.275Y-4.875
X7.35Y-2.85
X7.35Y-2.95
X7.35Y-3.05
X7.35Y-3.3
X7.35Y-3.4
X7.35Y-3.5
X7.35Y-3.6
X7.375Y-3.775
X7.375Y-3.875
X7.375Y-3.975
X7.375Y-4.075
X7.375Y-4.175
X7.375Y-4.275
X7.45Y-2.85
X7.45Y-2.95
X7.45Y-3.05
X7.45Y-3.3
X7.45Y-3.4
X7.45Y-3.5
X7.45Y-3.6
X7.475Y-3.775
X7.475Y-3.875
X7.475Y-3.975
X7.475Y-4.075
X7.475Y-4.175
X7.475Y-4.275
X7.55Y-2.85
X7.55Y-2.95
X7.55Y-3.05
X7.55Y-3.3
X7.55Y-3.4
X7.55Y-3.5
X7.55Y-3.6
X7.575Y-3.775
X7.575Y-3.875
X7.575Y-3.975
X7.575Y-4.075
X7.575Y-4.175
X7.575Y-4.275
X7.65Y-3.3
X7.65Y-3.4
X7.65Y-3.5
X7.65Y-3.6
T3
X3.85Y-5.05
X3.875Y-2.65
X3.9Y-3.225
X3.9Y-3.425
X3.9Y-3.625
X4.0Y-3.9
X4.0Y-4.1
X4.0Y-4.3
X4.05Y-2.825
X4.05Y-3.0
X4.075Y-5.05
X4.275Y-5.05
X4.475Y-2.65
X4.475Y-4.925
X4.675Y-4.925
X4.725Y-4.2
X4.725Y-4.375
X4.775Y-2.65
X4.875Y-4.925
X4.975Y-2.65
X5.325Y-4.925
X5.525Y-4.925
X5.75Y-4.925
X6.125Y-2.7
X6.15Y-4.925
X6.225Y-4.225
X6.225Y-4.4
X6.3Y-2.7
X6.35Y-4.925
X6.525Y-2.7
X6.55Y-4.925
X6.75Y-2.775
X6.75Y-2.95
X6.75Y-3.125
X6.825Y-5.0
X6.975Y-3.325
X6.975Y-3.55
X7.025Y-3.8
X7.025Y-4.025
X7.025Y-4.225
X7.025Y-5.0
X7.2Y-5.0
X7.225Y-2.775
X7.225Y-2.925
X7.225Y-3.075
T4
X4.7146Y-3.6024
X5.502Y-2.815
X5.502Y-4.3898
X6.2402Y-3.6024
T5
X5.502Y-3.6024
T0
M30
