%FSLAX45Y45*%
G04 Gerber Fmt 4.5, Leading zero omitted, Abs format (unit mm)*
G04 Created by KiCad (PCBNEW (5.1.9)-1) date 2021-04-12 23:14:29*
%MOMM*%
%LPD*%
G01*
G04 APERTURE LIST*
%TA.AperFunction,Profile*%
%ADD10C,0.200000*%
%TD*%
%ADD11C,0.200000*%
%ADD12C,0.300000*%
G04 APERTURE END LIST*
D10*
X12145000Y-9144000D02*
G75*
G03*
X12145000Y-9144000I-175000J0D01*
G01*
X14145000Y-7144000D02*
G75*
G03*
X14145000Y-7144000I-175000J0D01*
G01*
X10411911Y-4469000D02*
X17528089Y-4469000D01*
X11010270Y-14219000D02*
X16929730Y-14219000D01*
X14245000Y-9144000D02*
G75*
G03*
X14245000Y-9144000I-275000J0D01*
G01*
X14145000Y-11144000D02*
G75*
G03*
X14145000Y-11144000I-175000J0D01*
G01*
X17528089Y-4469000D02*
G75*
G02*
X16929730Y-14219000I-3558089J-4675000D01*
G01*
X16021923Y-9144000D02*
G75*
G03*
X16021923Y-9144000I-175000J0D01*
G01*
X11010270Y-14219000D02*
G75*
G02*
X10411911Y-4469000I2959730J5075000D01*
G01*
D11*
X17354000Y-5225500D02*
X17444000Y-5315500D01*
X17444000Y-5225500D02*
X17354000Y-5315500D01*
X17354000Y-5479500D02*
X17444000Y-5569500D01*
X17444000Y-5479500D02*
X17354000Y-5569500D01*
X17354000Y-5733500D02*
X17444000Y-5823500D01*
X17444000Y-5733500D02*
X17354000Y-5823500D01*
X17354000Y-5987500D02*
X17444000Y-6077500D01*
X17444000Y-5987500D02*
X17354000Y-6077500D01*
X17608000Y-5098500D02*
X17698000Y-5188500D01*
X17698000Y-5098500D02*
X17608000Y-5188500D01*
X17608000Y-5352500D02*
X17698000Y-5442500D01*
X17698000Y-5352500D02*
X17608000Y-5442500D01*
X17608000Y-5606500D02*
X17698000Y-5696500D01*
X17698000Y-5606500D02*
X17608000Y-5696500D01*
X17608000Y-5860500D02*
X17698000Y-5950500D01*
X17698000Y-5860500D02*
X17608000Y-5950500D01*
X8559000Y-8064500D02*
G75*
G03*
X8559000Y-8064500I-50000J0D01*
G01*
X8559000Y-8318500D02*
G75*
G03*
X8559000Y-8318500I-50000J0D01*
G01*
X8559000Y-8572500D02*
G75*
G03*
X8559000Y-8572500I-50000J0D01*
G01*
X8559000Y-8826500D02*
G75*
G03*
X8559000Y-8826500I-50000J0D01*
G01*
X8559000Y-9080500D02*
G75*
G03*
X8559000Y-9080500I-50000J0D01*
G01*
X8559000Y-9334500D02*
G75*
G03*
X8559000Y-9334500I-50000J0D01*
G01*
X8813000Y-8064500D02*
G75*
G03*
X8813000Y-8064500I-50000J0D01*
G01*
X8813000Y-8318500D02*
G75*
G03*
X8813000Y-8318500I-50000J0D01*
G01*
X8813000Y-8572500D02*
G75*
G03*
X8813000Y-8572500I-50000J0D01*
G01*
X8813000Y-8826500D02*
G75*
G03*
X8813000Y-8826500I-50000J0D01*
G01*
X8813000Y-9080500D02*
G75*
G03*
X8813000Y-9080500I-50000J0D01*
G01*
X8813000Y-9334500D02*
G75*
G03*
X8813000Y-9334500I-50000J0D01*
G01*
X8813000Y-9779000D02*
G75*
G03*
X8813000Y-9779000I-50000J0D01*
G01*
X8813000Y-10033000D02*
G75*
G03*
X8813000Y-10033000I-50000J0D01*
G01*
X8813000Y-10287000D02*
G75*
G03*
X8813000Y-10287000I-50000J0D01*
G01*
X8813000Y-10541000D02*
G75*
G03*
X8813000Y-10541000I-50000J0D01*
G01*
X8813000Y-10795000D02*
G75*
G03*
X8813000Y-10795000I-50000J0D01*
G01*
X8813000Y-11049000D02*
G75*
G03*
X8813000Y-11049000I-50000J0D01*
G01*
X8876500Y-7112000D02*
G75*
G03*
X8876500Y-7112000I-50000J0D01*
G01*
X8876500Y-7366000D02*
G75*
G03*
X8876500Y-7366000I-50000J0D01*
G01*
X8876500Y-7620000D02*
G75*
G03*
X8876500Y-7620000I-50000J0D01*
G01*
X9067000Y-8064500D02*
G75*
G03*
X9067000Y-8064500I-50000J0D01*
G01*
X9067000Y-8318500D02*
G75*
G03*
X9067000Y-8318500I-50000J0D01*
G01*
X9067000Y-8572500D02*
G75*
G03*
X9067000Y-8572500I-50000J0D01*
G01*
X9067000Y-8826500D02*
G75*
G03*
X9067000Y-8826500I-50000J0D01*
G01*
X9067000Y-9080500D02*
G75*
G03*
X9067000Y-9080500I-50000J0D01*
G01*
X9067000Y-9334500D02*
G75*
G03*
X9067000Y-9334500I-50000J0D01*
G01*
X9067000Y-9779000D02*
G75*
G03*
X9067000Y-9779000I-50000J0D01*
G01*
X9067000Y-10033000D02*
G75*
G03*
X9067000Y-10033000I-50000J0D01*
G01*
X9067000Y-10287000D02*
G75*
G03*
X9067000Y-10287000I-50000J0D01*
G01*
X9067000Y-10541000D02*
G75*
G03*
X9067000Y-10541000I-50000J0D01*
G01*
X9067000Y-10795000D02*
G75*
G03*
X9067000Y-10795000I-50000J0D01*
G01*
X9067000Y-11049000D02*
G75*
G03*
X9067000Y-11049000I-50000J0D01*
G01*
X9130500Y-7112000D02*
G75*
G03*
X9130500Y-7112000I-50000J0D01*
G01*
X9130500Y-7366000D02*
G75*
G03*
X9130500Y-7366000I-50000J0D01*
G01*
X9130500Y-7620000D02*
G75*
G03*
X9130500Y-7620000I-50000J0D01*
G01*
X9321000Y-8064500D02*
G75*
G03*
X9321000Y-8064500I-50000J0D01*
G01*
X9321000Y-8318500D02*
G75*
G03*
X9321000Y-8318500I-50000J0D01*
G01*
X9321000Y-8572500D02*
G75*
G03*
X9321000Y-8572500I-50000J0D01*
G01*
X9321000Y-8826500D02*
G75*
G03*
X9321000Y-8826500I-50000J0D01*
G01*
X9321000Y-9080500D02*
G75*
G03*
X9321000Y-9080500I-50000J0D01*
G01*
X9321000Y-9334500D02*
G75*
G03*
X9321000Y-9334500I-50000J0D01*
G01*
X9321000Y-9779000D02*
G75*
G03*
X9321000Y-9779000I-50000J0D01*
G01*
X9321000Y-10033000D02*
G75*
G03*
X9321000Y-10033000I-50000J0D01*
G01*
X9321000Y-10287000D02*
G75*
G03*
X9321000Y-10287000I-50000J0D01*
G01*
X9321000Y-10541000D02*
G75*
G03*
X9321000Y-10541000I-50000J0D01*
G01*
X9321000Y-10795000D02*
G75*
G03*
X9321000Y-10795000I-50000J0D01*
G01*
X9321000Y-11049000D02*
G75*
G03*
X9321000Y-11049000I-50000J0D01*
G01*
X9384500Y-7112000D02*
G75*
G03*
X9384500Y-7112000I-50000J0D01*
G01*
X9384500Y-7366000D02*
G75*
G03*
X9384500Y-7366000I-50000J0D01*
G01*
X9384500Y-7620000D02*
G75*
G03*
X9384500Y-7620000I-50000J0D01*
G01*
X9575000Y-8064500D02*
G75*
G03*
X9575000Y-8064500I-50000J0D01*
G01*
X9575000Y-8318500D02*
G75*
G03*
X9575000Y-8318500I-50000J0D01*
G01*
X9575000Y-8572500D02*
G75*
G03*
X9575000Y-8572500I-50000J0D01*
G01*
X9575000Y-8826500D02*
G75*
G03*
X9575000Y-8826500I-50000J0D01*
G01*
X9575000Y-9080500D02*
G75*
G03*
X9575000Y-9080500I-50000J0D01*
G01*
X9575000Y-9334500D02*
G75*
G03*
X9575000Y-9334500I-50000J0D01*
G01*
X9575000Y-9779000D02*
G75*
G03*
X9575000Y-9779000I-50000J0D01*
G01*
X9575000Y-10033000D02*
G75*
G03*
X9575000Y-10033000I-50000J0D01*
G01*
X9575000Y-10287000D02*
G75*
G03*
X9575000Y-10287000I-50000J0D01*
G01*
X9575000Y-10541000D02*
G75*
G03*
X9575000Y-10541000I-50000J0D01*
G01*
X9575000Y-10795000D02*
G75*
G03*
X9575000Y-10795000I-50000J0D01*
G01*
X9575000Y-11049000D02*
G75*
G03*
X9575000Y-11049000I-50000J0D01*
G01*
X9638500Y-7112000D02*
G75*
G03*
X9638500Y-7112000I-50000J0D01*
G01*
X9638500Y-7366000D02*
G75*
G03*
X9638500Y-7366000I-50000J0D01*
G01*
X9638500Y-7620000D02*
G75*
G03*
X9638500Y-7620000I-50000J0D01*
G01*
X9765500Y-11430000D02*
G75*
G03*
X9765500Y-11430000I-50000J0D01*
G01*
X9765500Y-11684000D02*
G75*
G03*
X9765500Y-11684000I-50000J0D01*
G01*
X9765500Y-11938000D02*
G75*
G03*
X9765500Y-11938000I-50000J0D01*
G01*
X9765500Y-12192000D02*
G75*
G03*
X9765500Y-12192000I-50000J0D01*
G01*
X9765500Y-12446000D02*
G75*
G03*
X9765500Y-12446000I-50000J0D01*
G01*
X9829000Y-9779000D02*
G75*
G03*
X9829000Y-9779000I-50000J0D01*
G01*
X9829000Y-10033000D02*
G75*
G03*
X9829000Y-10033000I-50000J0D01*
G01*
X9829000Y-10287000D02*
G75*
G03*
X9829000Y-10287000I-50000J0D01*
G01*
X9829000Y-10541000D02*
G75*
G03*
X9829000Y-10541000I-50000J0D01*
G01*
X9829000Y-10795000D02*
G75*
G03*
X9829000Y-10795000I-50000J0D01*
G01*
X9829000Y-11049000D02*
G75*
G03*
X9829000Y-11049000I-50000J0D01*
G01*
X9892500Y-7112000D02*
G75*
G03*
X9892500Y-7112000I-50000J0D01*
G01*
X9892500Y-7366000D02*
G75*
G03*
X9892500Y-7366000I-50000J0D01*
G01*
X9892500Y-7620000D02*
G75*
G03*
X9892500Y-7620000I-50000J0D01*
G01*
X10019500Y-11430000D02*
G75*
G03*
X10019500Y-11430000I-50000J0D01*
G01*
X10019500Y-11684000D02*
G75*
G03*
X10019500Y-11684000I-50000J0D01*
G01*
X10019500Y-11938000D02*
G75*
G03*
X10019500Y-11938000I-50000J0D01*
G01*
X10019500Y-12192000D02*
G75*
G03*
X10019500Y-12192000I-50000J0D01*
G01*
X10019500Y-12446000D02*
G75*
G03*
X10019500Y-12446000I-50000J0D01*
G01*
X10273500Y-11430000D02*
G75*
G03*
X10273500Y-11430000I-50000J0D01*
G01*
X10273500Y-11684000D02*
G75*
G03*
X10273500Y-11684000I-50000J0D01*
G01*
X10273500Y-11938000D02*
G75*
G03*
X10273500Y-11938000I-50000J0D01*
G01*
X10273500Y-12192000D02*
G75*
G03*
X10273500Y-12192000I-50000J0D01*
G01*
X10273500Y-12446000D02*
G75*
G03*
X10273500Y-12446000I-50000J0D01*
G01*
X10527500Y-11430000D02*
G75*
G03*
X10527500Y-11430000I-50000J0D01*
G01*
X10527500Y-11684000D02*
G75*
G03*
X10527500Y-11684000I-50000J0D01*
G01*
X10527500Y-11938000D02*
G75*
G03*
X10527500Y-11938000I-50000J0D01*
G01*
X10527500Y-12192000D02*
G75*
G03*
X10527500Y-12192000I-50000J0D01*
G01*
X10527500Y-12446000D02*
G75*
G03*
X10527500Y-12446000I-50000J0D01*
G01*
X10781500Y-11430000D02*
G75*
G03*
X10781500Y-11430000I-50000J0D01*
G01*
X10781500Y-11684000D02*
G75*
G03*
X10781500Y-11684000I-50000J0D01*
G01*
X10781500Y-11938000D02*
G75*
G03*
X10781500Y-11938000I-50000J0D01*
G01*
X10781500Y-12192000D02*
G75*
G03*
X10781500Y-12192000I-50000J0D01*
G01*
X10781500Y-12446000D02*
G75*
G03*
X10781500Y-12446000I-50000J0D01*
G01*
X10806000Y-4762500D02*
G75*
G03*
X10806000Y-4762500I-50000J0D01*
G01*
X10806000Y-5016500D02*
G75*
G03*
X10806000Y-5016500I-50000J0D01*
G01*
X10806000Y-5270500D02*
G75*
G03*
X10806000Y-5270500I-50000J0D01*
G01*
X10806000Y-5524500D02*
G75*
G03*
X10806000Y-5524500I-50000J0D01*
G01*
X11035500Y-11430000D02*
G75*
G03*
X11035500Y-11430000I-50000J0D01*
G01*
X11035500Y-11684000D02*
G75*
G03*
X11035500Y-11684000I-50000J0D01*
G01*
X11035500Y-11938000D02*
G75*
G03*
X11035500Y-11938000I-50000J0D01*
G01*
X11035500Y-12192000D02*
G75*
G03*
X11035500Y-12192000I-50000J0D01*
G01*
X11035500Y-12446000D02*
G75*
G03*
X11035500Y-12446000I-50000J0D01*
G01*
X11289500Y-7112000D02*
G75*
G03*
X11289500Y-7112000I-50000J0D01*
G01*
X11289500Y-7366000D02*
G75*
G03*
X11289500Y-7366000I-50000J0D01*
G01*
X11289500Y-7620000D02*
G75*
G03*
X11289500Y-7620000I-50000J0D01*
G01*
X11289500Y-12890500D02*
G75*
G03*
X11289500Y-12890500I-50000J0D01*
G01*
X11289500Y-13144500D02*
G75*
G03*
X11289500Y-13144500I-50000J0D01*
G01*
X11289500Y-13398500D02*
G75*
G03*
X11289500Y-13398500I-50000J0D01*
G01*
X11289500Y-13652500D02*
G75*
G03*
X11289500Y-13652500I-50000J0D01*
G01*
X11289500Y-13906500D02*
G75*
G03*
X11289500Y-13906500I-50000J0D01*
G01*
X11353000Y-4762500D02*
G75*
G03*
X11353000Y-4762500I-50000J0D01*
G01*
X11353000Y-5016500D02*
G75*
G03*
X11353000Y-5016500I-50000J0D01*
G01*
X11353000Y-5270500D02*
G75*
G03*
X11353000Y-5270500I-50000J0D01*
G01*
X11353000Y-5524500D02*
G75*
G03*
X11353000Y-5524500I-50000J0D01*
G01*
X11543500Y-7112000D02*
G75*
G03*
X11543500Y-7112000I-50000J0D01*
G01*
X11543500Y-7366000D02*
G75*
G03*
X11543500Y-7366000I-50000J0D01*
G01*
X11543500Y-7620000D02*
G75*
G03*
X11543500Y-7620000I-50000J0D01*
G01*
X11543500Y-12890500D02*
G75*
G03*
X11543500Y-12890500I-50000J0D01*
G01*
X11543500Y-13144500D02*
G75*
G03*
X11543500Y-13144500I-50000J0D01*
G01*
X11543500Y-13398500D02*
G75*
G03*
X11543500Y-13398500I-50000J0D01*
G01*
X11543500Y-13652500D02*
G75*
G03*
X11543500Y-13652500I-50000J0D01*
G01*
X11543500Y-13906500D02*
G75*
G03*
X11543500Y-13906500I-50000J0D01*
G01*
X11797500Y-7112000D02*
G75*
G03*
X11797500Y-7112000I-50000J0D01*
G01*
X11797500Y-7366000D02*
G75*
G03*
X11797500Y-7366000I-50000J0D01*
G01*
X11797500Y-7620000D02*
G75*
G03*
X11797500Y-7620000I-50000J0D01*
G01*
X11797500Y-12890500D02*
G75*
G03*
X11797500Y-12890500I-50000J0D01*
G01*
X11797500Y-13144500D02*
G75*
G03*
X11797500Y-13144500I-50000J0D01*
G01*
X11797500Y-13398500D02*
G75*
G03*
X11797500Y-13398500I-50000J0D01*
G01*
X11797500Y-13652500D02*
G75*
G03*
X11797500Y-13652500I-50000J0D01*
G01*
X11797500Y-13906500D02*
G75*
G03*
X11797500Y-13906500I-50000J0D01*
G01*
X11861000Y-4762500D02*
G75*
G03*
X11861000Y-4762500I-50000J0D01*
G01*
X11861000Y-5016500D02*
G75*
G03*
X11861000Y-5016500I-50000J0D01*
G01*
X11861000Y-5270500D02*
G75*
G03*
X11861000Y-5270500I-50000J0D01*
G01*
X11861000Y-5524500D02*
G75*
G03*
X11861000Y-5524500I-50000J0D01*
G01*
X12051500Y-12890500D02*
G75*
G03*
X12051500Y-12890500I-50000J0D01*
G01*
X12051500Y-13144500D02*
G75*
G03*
X12051500Y-13144500I-50000J0D01*
G01*
X12051500Y-13398500D02*
G75*
G03*
X12051500Y-13398500I-50000J0D01*
G01*
X12051500Y-13652500D02*
G75*
G03*
X12051500Y-13652500I-50000J0D01*
G01*
X12051500Y-13906500D02*
G75*
G03*
X12051500Y-13906500I-50000J0D01*
G01*
X12305500Y-12890500D02*
G75*
G03*
X12305500Y-12890500I-50000J0D01*
G01*
X12305500Y-13144500D02*
G75*
G03*
X12305500Y-13144500I-50000J0D01*
G01*
X12305500Y-13398500D02*
G75*
G03*
X12305500Y-13398500I-50000J0D01*
G01*
X12305500Y-13652500D02*
G75*
G03*
X12305500Y-13652500I-50000J0D01*
G01*
X12305500Y-13906500D02*
G75*
G03*
X12305500Y-13906500I-50000J0D01*
G01*
X12369000Y-4762500D02*
G75*
G03*
X12369000Y-4762500I-50000J0D01*
G01*
X12369000Y-5016500D02*
G75*
G03*
X12369000Y-5016500I-50000J0D01*
G01*
X12369000Y-5270500D02*
G75*
G03*
X12369000Y-5270500I-50000J0D01*
G01*
X12369000Y-5524500D02*
G75*
G03*
X12369000Y-5524500I-50000J0D01*
G01*
X12559500Y-12890500D02*
G75*
G03*
X12559500Y-12890500I-50000J0D01*
G01*
X12559500Y-13144500D02*
G75*
G03*
X12559500Y-13144500I-50000J0D01*
G01*
X12559500Y-13398500D02*
G75*
G03*
X12559500Y-13398500I-50000J0D01*
G01*
X12559500Y-13652500D02*
G75*
G03*
X12559500Y-13652500I-50000J0D01*
G01*
X12559500Y-13906500D02*
G75*
G03*
X12559500Y-13906500I-50000J0D01*
G01*
X12623000Y-7620000D02*
G75*
G03*
X12623000Y-7620000I-50000J0D01*
G01*
X12623000Y-7874000D02*
G75*
G03*
X12623000Y-7874000I-50000J0D01*
G01*
X12623000Y-8128000D02*
G75*
G03*
X12623000Y-8128000I-50000J0D01*
G01*
X12623000Y-8382000D02*
G75*
G03*
X12623000Y-8382000I-50000J0D01*
G01*
X12623000Y-8636000D02*
G75*
G03*
X12623000Y-8636000I-50000J0D01*
G01*
X12623000Y-8890000D02*
G75*
G03*
X12623000Y-8890000I-50000J0D01*
G01*
X12623000Y-9144000D02*
G75*
G03*
X12623000Y-9144000I-50000J0D01*
G01*
X12623000Y-9398000D02*
G75*
G03*
X12623000Y-9398000I-50000J0D01*
G01*
X12623000Y-9652000D02*
G75*
G03*
X12623000Y-9652000I-50000J0D01*
G01*
X12623000Y-9906000D02*
G75*
G03*
X12623000Y-9906000I-50000J0D01*
G01*
X12623000Y-10160000D02*
G75*
G03*
X12623000Y-10160000I-50000J0D01*
G01*
X12623000Y-10414000D02*
G75*
G03*
X12623000Y-10414000I-50000J0D01*
G01*
X12623000Y-10668000D02*
G75*
G03*
X12623000Y-10668000I-50000J0D01*
G01*
X12623000Y-10922000D02*
G75*
G03*
X12623000Y-10922000I-50000J0D01*
G01*
X12623000Y-11176000D02*
G75*
G03*
X12623000Y-11176000I-50000J0D01*
G01*
X12877000Y-7620000D02*
G75*
G03*
X12877000Y-7620000I-50000J0D01*
G01*
X12877000Y-7874000D02*
G75*
G03*
X12877000Y-7874000I-50000J0D01*
G01*
X12877000Y-8128000D02*
G75*
G03*
X12877000Y-8128000I-50000J0D01*
G01*
X12877000Y-8382000D02*
G75*
G03*
X12877000Y-8382000I-50000J0D01*
G01*
X12877000Y-8636000D02*
G75*
G03*
X12877000Y-8636000I-50000J0D01*
G01*
X12877000Y-8890000D02*
G75*
G03*
X12877000Y-8890000I-50000J0D01*
G01*
X12877000Y-9144000D02*
G75*
G03*
X12877000Y-9144000I-50000J0D01*
G01*
X12877000Y-9398000D02*
G75*
G03*
X12877000Y-9398000I-50000J0D01*
G01*
X12877000Y-9652000D02*
G75*
G03*
X12877000Y-9652000I-50000J0D01*
G01*
X12877000Y-9906000D02*
G75*
G03*
X12877000Y-9906000I-50000J0D01*
G01*
X12877000Y-10160000D02*
G75*
G03*
X12877000Y-10160000I-50000J0D01*
G01*
X12877000Y-10414000D02*
G75*
G03*
X12877000Y-10414000I-50000J0D01*
G01*
X12877000Y-10668000D02*
G75*
G03*
X12877000Y-10668000I-50000J0D01*
G01*
X12877000Y-10922000D02*
G75*
G03*
X12877000Y-10922000I-50000J0D01*
G01*
X12877000Y-11176000D02*
G75*
G03*
X12877000Y-11176000I-50000J0D01*
G01*
X12940500Y-4762500D02*
G75*
G03*
X12940500Y-4762500I-50000J0D01*
G01*
X12940500Y-5016500D02*
G75*
G03*
X12940500Y-5016500I-50000J0D01*
G01*
X12940500Y-5270500D02*
G75*
G03*
X12940500Y-5270500I-50000J0D01*
G01*
X12940500Y-5524500D02*
G75*
G03*
X12940500Y-5524500I-50000J0D01*
G01*
X12953200Y-6273800D02*
G75*
G03*
X12953200Y-6273800I-50000J0D01*
G01*
X13207200Y-6273800D02*
G75*
G03*
X13207200Y-6273800I-50000J0D01*
G01*
X13448500Y-4762500D02*
G75*
G03*
X13448500Y-4762500I-50000J0D01*
G01*
X13448500Y-5016500D02*
G75*
G03*
X13448500Y-5016500I-50000J0D01*
G01*
X13448500Y-5270500D02*
G75*
G03*
X13448500Y-5270500I-50000J0D01*
G01*
X13448500Y-5524500D02*
G75*
G03*
X13448500Y-5524500I-50000J0D01*
G01*
X13448500Y-12890500D02*
G75*
G03*
X13448500Y-12890500I-50000J0D01*
G01*
X13448500Y-13144500D02*
G75*
G03*
X13448500Y-13144500I-50000J0D01*
G01*
X13448500Y-13398500D02*
G75*
G03*
X13448500Y-13398500I-50000J0D01*
G01*
X13448500Y-13652500D02*
G75*
G03*
X13448500Y-13652500I-50000J0D01*
G01*
X13448500Y-13906500D02*
G75*
G03*
X13448500Y-13906500I-50000J0D01*
G01*
X13461200Y-6273800D02*
G75*
G03*
X13461200Y-6273800I-50000J0D01*
G01*
X13702500Y-12890500D02*
G75*
G03*
X13702500Y-12890500I-50000J0D01*
G01*
X13702500Y-13144500D02*
G75*
G03*
X13702500Y-13144500I-50000J0D01*
G01*
X13702500Y-13398500D02*
G75*
G03*
X13702500Y-13398500I-50000J0D01*
G01*
X13702500Y-13652500D02*
G75*
G03*
X13702500Y-13652500I-50000J0D01*
G01*
X13702500Y-13906500D02*
G75*
G03*
X13702500Y-13906500I-50000J0D01*
G01*
X13715200Y-6273800D02*
G75*
G03*
X13715200Y-6273800I-50000J0D01*
G01*
X13956500Y-12890500D02*
G75*
G03*
X13956500Y-12890500I-50000J0D01*
G01*
X13956500Y-13144500D02*
G75*
G03*
X13956500Y-13144500I-50000J0D01*
G01*
X13956500Y-13398500D02*
G75*
G03*
X13956500Y-13398500I-50000J0D01*
G01*
X13956500Y-13652500D02*
G75*
G03*
X13956500Y-13652500I-50000J0D01*
G01*
X13956500Y-13906500D02*
G75*
G03*
X13956500Y-13906500I-50000J0D01*
G01*
X14210500Y-12890500D02*
G75*
G03*
X14210500Y-12890500I-50000J0D01*
G01*
X14210500Y-13144500D02*
G75*
G03*
X14210500Y-13144500I-50000J0D01*
G01*
X14210500Y-13398500D02*
G75*
G03*
X14210500Y-13398500I-50000J0D01*
G01*
X14210500Y-13652500D02*
G75*
G03*
X14210500Y-13652500I-50000J0D01*
G01*
X14210500Y-13906500D02*
G75*
G03*
X14210500Y-13906500I-50000J0D01*
G01*
X14464500Y-12890500D02*
G75*
G03*
X14464500Y-12890500I-50000J0D01*
G01*
X14464500Y-13144500D02*
G75*
G03*
X14464500Y-13144500I-50000J0D01*
G01*
X14464500Y-13398500D02*
G75*
G03*
X14464500Y-13398500I-50000J0D01*
G01*
X14464500Y-13652500D02*
G75*
G03*
X14464500Y-13652500I-50000J0D01*
G01*
X14464500Y-13906500D02*
G75*
G03*
X14464500Y-13906500I-50000J0D01*
G01*
X14591500Y-4762500D02*
G75*
G03*
X14591500Y-4762500I-50000J0D01*
G01*
X14591500Y-5016500D02*
G75*
G03*
X14591500Y-5016500I-50000J0D01*
G01*
X14591500Y-5270500D02*
G75*
G03*
X14591500Y-5270500I-50000J0D01*
G01*
X14591500Y-5524500D02*
G75*
G03*
X14591500Y-5524500I-50000J0D01*
G01*
X14718500Y-12890500D02*
G75*
G03*
X14718500Y-12890500I-50000J0D01*
G01*
X14718500Y-13144500D02*
G75*
G03*
X14718500Y-13144500I-50000J0D01*
G01*
X14718500Y-13398500D02*
G75*
G03*
X14718500Y-13398500I-50000J0D01*
G01*
X14718500Y-13652500D02*
G75*
G03*
X14718500Y-13652500I-50000J0D01*
G01*
X14718500Y-13906500D02*
G75*
G03*
X14718500Y-13906500I-50000J0D01*
G01*
X14845500Y-4762500D02*
G75*
G03*
X14845500Y-4762500I-50000J0D01*
G01*
X14845500Y-5016500D02*
G75*
G03*
X14845500Y-5016500I-50000J0D01*
G01*
X14845500Y-5270500D02*
G75*
G03*
X14845500Y-5270500I-50000J0D01*
G01*
X14845500Y-5524500D02*
G75*
G03*
X14845500Y-5524500I-50000J0D01*
G01*
X15036000Y-7620000D02*
G75*
G03*
X15036000Y-7620000I-50000J0D01*
G01*
X15036000Y-7874000D02*
G75*
G03*
X15036000Y-7874000I-50000J0D01*
G01*
X15036000Y-8128000D02*
G75*
G03*
X15036000Y-8128000I-50000J0D01*
G01*
X15036000Y-8382000D02*
G75*
G03*
X15036000Y-8382000I-50000J0D01*
G01*
X15036000Y-8636000D02*
G75*
G03*
X15036000Y-8636000I-50000J0D01*
G01*
X15036000Y-8890000D02*
G75*
G03*
X15036000Y-8890000I-50000J0D01*
G01*
X15036000Y-9144000D02*
G75*
G03*
X15036000Y-9144000I-50000J0D01*
G01*
X15036000Y-9398000D02*
G75*
G03*
X15036000Y-9398000I-50000J0D01*
G01*
X15036000Y-9652000D02*
G75*
G03*
X15036000Y-9652000I-50000J0D01*
G01*
X15036000Y-9906000D02*
G75*
G03*
X15036000Y-9906000I-50000J0D01*
G01*
X15036000Y-10160000D02*
G75*
G03*
X15036000Y-10160000I-50000J0D01*
G01*
X15036000Y-10414000D02*
G75*
G03*
X15036000Y-10414000I-50000J0D01*
G01*
X15036000Y-10668000D02*
G75*
G03*
X15036000Y-10668000I-50000J0D01*
G01*
X15036000Y-10922000D02*
G75*
G03*
X15036000Y-10922000I-50000J0D01*
G01*
X15036000Y-11176000D02*
G75*
G03*
X15036000Y-11176000I-50000J0D01*
G01*
X15290000Y-7620000D02*
G75*
G03*
X15290000Y-7620000I-50000J0D01*
G01*
X15290000Y-7874000D02*
G75*
G03*
X15290000Y-7874000I-50000J0D01*
G01*
X15290000Y-8128000D02*
G75*
G03*
X15290000Y-8128000I-50000J0D01*
G01*
X15290000Y-8382000D02*
G75*
G03*
X15290000Y-8382000I-50000J0D01*
G01*
X15290000Y-8636000D02*
G75*
G03*
X15290000Y-8636000I-50000J0D01*
G01*
X15290000Y-8890000D02*
G75*
G03*
X15290000Y-8890000I-50000J0D01*
G01*
X15290000Y-9144000D02*
G75*
G03*
X15290000Y-9144000I-50000J0D01*
G01*
X15290000Y-9398000D02*
G75*
G03*
X15290000Y-9398000I-50000J0D01*
G01*
X15290000Y-9652000D02*
G75*
G03*
X15290000Y-9652000I-50000J0D01*
G01*
X15290000Y-9906000D02*
G75*
G03*
X15290000Y-9906000I-50000J0D01*
G01*
X15290000Y-10160000D02*
G75*
G03*
X15290000Y-10160000I-50000J0D01*
G01*
X15290000Y-10414000D02*
G75*
G03*
X15290000Y-10414000I-50000J0D01*
G01*
X15290000Y-10668000D02*
G75*
G03*
X15290000Y-10668000I-50000J0D01*
G01*
X15290000Y-10922000D02*
G75*
G03*
X15290000Y-10922000I-50000J0D01*
G01*
X15290000Y-11176000D02*
G75*
G03*
X15290000Y-11176000I-50000J0D01*
G01*
X15544000Y-12897000D02*
G75*
G03*
X15544000Y-12897000I-50000J0D01*
G01*
X15544000Y-13151000D02*
G75*
G03*
X15544000Y-13151000I-50000J0D01*
G01*
X15544000Y-13405000D02*
G75*
G03*
X15544000Y-13405000I-50000J0D01*
G01*
X15544000Y-13659000D02*
G75*
G03*
X15544000Y-13659000I-50000J0D01*
G01*
X15544000Y-13913000D02*
G75*
G03*
X15544000Y-13913000I-50000J0D01*
G01*
X15798000Y-12897000D02*
G75*
G03*
X15798000Y-12897000I-50000J0D01*
G01*
X15798000Y-13151000D02*
G75*
G03*
X15798000Y-13151000I-50000J0D01*
G01*
X15798000Y-13405000D02*
G75*
G03*
X15798000Y-13405000I-50000J0D01*
G01*
X15798000Y-13659000D02*
G75*
G03*
X15798000Y-13659000I-50000J0D01*
G01*
X15798000Y-13913000D02*
G75*
G03*
X15798000Y-13913000I-50000J0D01*
G01*
X15973995Y-5789395D02*
G75*
G03*
X15973995Y-5789395I-50000J0D01*
G01*
X16052000Y-12897000D02*
G75*
G03*
X16052000Y-12897000I-50000J0D01*
G01*
X16052000Y-13151000D02*
G75*
G03*
X16052000Y-13151000I-50000J0D01*
G01*
X16052000Y-13405000D02*
G75*
G03*
X16052000Y-13405000I-50000J0D01*
G01*
X16052000Y-13659000D02*
G75*
G03*
X16052000Y-13659000I-50000J0D01*
G01*
X16052000Y-13913000D02*
G75*
G03*
X16052000Y-13913000I-50000J0D01*
G01*
X16153600Y-5609790D02*
G75*
G03*
X16153600Y-5609790I-50000J0D01*
G01*
X16153600Y-5969000D02*
G75*
G03*
X16153600Y-5969000I-50000J0D01*
G01*
X16242500Y-7239000D02*
G75*
G03*
X16242500Y-7239000I-50000J0D01*
G01*
X16242500Y-7493000D02*
G75*
G03*
X16242500Y-7493000I-50000J0D01*
G01*
X16242500Y-7747000D02*
G75*
G03*
X16242500Y-7747000I-50000J0D01*
G01*
X16306000Y-12897000D02*
G75*
G03*
X16306000Y-12897000I-50000J0D01*
G01*
X16306000Y-13151000D02*
G75*
G03*
X16306000Y-13151000I-50000J0D01*
G01*
X16306000Y-13405000D02*
G75*
G03*
X16306000Y-13405000I-50000J0D01*
G01*
X16306000Y-13659000D02*
G75*
G03*
X16306000Y-13659000I-50000J0D01*
G01*
X16306000Y-13913000D02*
G75*
G03*
X16306000Y-13913000I-50000J0D01*
G01*
X16333205Y-5430185D02*
G75*
G03*
X16333205Y-5430185I-50000J0D01*
G01*
X16333205Y-5789395D02*
G75*
G03*
X16333205Y-5789395I-50000J0D01*
G01*
X16496500Y-7239000D02*
G75*
G03*
X16496500Y-7239000I-50000J0D01*
G01*
X16496500Y-7493000D02*
G75*
G03*
X16496500Y-7493000I-50000J0D01*
G01*
X16496500Y-7747000D02*
G75*
G03*
X16496500Y-7747000I-50000J0D01*
G01*
X16512810Y-5250580D02*
G75*
G03*
X16512810Y-5250580I-50000J0D01*
G01*
X16512810Y-5609790D02*
G75*
G03*
X16512810Y-5609790I-50000J0D01*
G01*
X16560000Y-12897000D02*
G75*
G03*
X16560000Y-12897000I-50000J0D01*
G01*
X16560000Y-13151000D02*
G75*
G03*
X16560000Y-13151000I-50000J0D01*
G01*
X16560000Y-13405000D02*
G75*
G03*
X16560000Y-13405000I-50000J0D01*
G01*
X16560000Y-13659000D02*
G75*
G03*
X16560000Y-13659000I-50000J0D01*
G01*
X16560000Y-13913000D02*
G75*
G03*
X16560000Y-13913000I-50000J0D01*
G01*
X16692415Y-5430185D02*
G75*
G03*
X16692415Y-5430185I-50000J0D01*
G01*
X16750500Y-7239000D02*
G75*
G03*
X16750500Y-7239000I-50000J0D01*
G01*
X16750500Y-7493000D02*
G75*
G03*
X16750500Y-7493000I-50000J0D01*
G01*
X16750500Y-7747000D02*
G75*
G03*
X16750500Y-7747000I-50000J0D01*
G01*
X16814000Y-12897000D02*
G75*
G03*
X16814000Y-12897000I-50000J0D01*
G01*
X16814000Y-13151000D02*
G75*
G03*
X16814000Y-13151000I-50000J0D01*
G01*
X16814000Y-13405000D02*
G75*
G03*
X16814000Y-13405000I-50000J0D01*
G01*
X16814000Y-13659000D02*
G75*
G03*
X16814000Y-13659000I-50000J0D01*
G01*
X16814000Y-13913000D02*
G75*
G03*
X16814000Y-13913000I-50000J0D01*
G01*
X17258500Y-11366500D02*
G75*
G03*
X17258500Y-11366500I-50000J0D01*
G01*
X17258500Y-11620500D02*
G75*
G03*
X17258500Y-11620500I-50000J0D01*
G01*
X17258500Y-11874500D02*
G75*
G03*
X17258500Y-11874500I-50000J0D01*
G01*
X17258500Y-12128500D02*
G75*
G03*
X17258500Y-12128500I-50000J0D01*
G01*
X17258500Y-12382500D02*
G75*
G03*
X17258500Y-12382500I-50000J0D01*
G01*
X17512500Y-7239000D02*
G75*
G03*
X17512500Y-7239000I-50000J0D01*
G01*
X17512500Y-7493000D02*
G75*
G03*
X17512500Y-7493000I-50000J0D01*
G01*
X17512500Y-7747000D02*
G75*
G03*
X17512500Y-7747000I-50000J0D01*
G01*
X17512500Y-11366500D02*
G75*
G03*
X17512500Y-11366500I-50000J0D01*
G01*
X17512500Y-11620500D02*
G75*
G03*
X17512500Y-11620500I-50000J0D01*
G01*
X17512500Y-11874500D02*
G75*
G03*
X17512500Y-11874500I-50000J0D01*
G01*
X17512500Y-12128500D02*
G75*
G03*
X17512500Y-12128500I-50000J0D01*
G01*
X17512500Y-12382500D02*
G75*
G03*
X17512500Y-12382500I-50000J0D01*
G01*
X17766500Y-7239000D02*
G75*
G03*
X17766500Y-7239000I-50000J0D01*
G01*
X17766500Y-7493000D02*
G75*
G03*
X17766500Y-7493000I-50000J0D01*
G01*
X17766500Y-7747000D02*
G75*
G03*
X17766500Y-7747000I-50000J0D01*
G01*
X17766500Y-11366500D02*
G75*
G03*
X17766500Y-11366500I-50000J0D01*
G01*
X17766500Y-11620500D02*
G75*
G03*
X17766500Y-11620500I-50000J0D01*
G01*
X17766500Y-11874500D02*
G75*
G03*
X17766500Y-11874500I-50000J0D01*
G01*
X17766500Y-12128500D02*
G75*
G03*
X17766500Y-12128500I-50000J0D01*
G01*
X17766500Y-12382500D02*
G75*
G03*
X17766500Y-12382500I-50000J0D01*
G01*
X18020500Y-7239000D02*
G75*
G03*
X18020500Y-7239000I-50000J0D01*
G01*
X18020500Y-7493000D02*
G75*
G03*
X18020500Y-7493000I-50000J0D01*
G01*
X18020500Y-7747000D02*
G75*
G03*
X18020500Y-7747000I-50000J0D01*
G01*
X18020500Y-11366500D02*
G75*
G03*
X18020500Y-11366500I-50000J0D01*
G01*
X18020500Y-11620500D02*
G75*
G03*
X18020500Y-11620500I-50000J0D01*
G01*
X18020500Y-11874500D02*
G75*
G03*
X18020500Y-11874500I-50000J0D01*
G01*
X18020500Y-12128500D02*
G75*
G03*
X18020500Y-12128500I-50000J0D01*
G01*
X18020500Y-12382500D02*
G75*
G03*
X18020500Y-12382500I-50000J0D01*
G01*
X18211000Y-8382000D02*
G75*
G03*
X18211000Y-8382000I-50000J0D01*
G01*
X18211000Y-8636000D02*
G75*
G03*
X18211000Y-8636000I-50000J0D01*
G01*
X18211000Y-8890000D02*
G75*
G03*
X18211000Y-8890000I-50000J0D01*
G01*
X18211000Y-9144000D02*
G75*
G03*
X18211000Y-9144000I-50000J0D01*
G01*
X18274500Y-9588500D02*
G75*
G03*
X18274500Y-9588500I-50000J0D01*
G01*
X18274500Y-9842500D02*
G75*
G03*
X18274500Y-9842500I-50000J0D01*
G01*
X18274500Y-10096500D02*
G75*
G03*
X18274500Y-10096500I-50000J0D01*
G01*
X18274500Y-10350500D02*
G75*
G03*
X18274500Y-10350500I-50000J0D01*
G01*
X18274500Y-10604500D02*
G75*
G03*
X18274500Y-10604500I-50000J0D01*
G01*
X18274500Y-10858500D02*
G75*
G03*
X18274500Y-10858500I-50000J0D01*
G01*
X18274500Y-11366500D02*
G75*
G03*
X18274500Y-11366500I-50000J0D01*
G01*
X18274500Y-11620500D02*
G75*
G03*
X18274500Y-11620500I-50000J0D01*
G01*
X18274500Y-11874500D02*
G75*
G03*
X18274500Y-11874500I-50000J0D01*
G01*
X18274500Y-12128500D02*
G75*
G03*
X18274500Y-12128500I-50000J0D01*
G01*
X18274500Y-12382500D02*
G75*
G03*
X18274500Y-12382500I-50000J0D01*
G01*
X18465000Y-8382000D02*
G75*
G03*
X18465000Y-8382000I-50000J0D01*
G01*
X18465000Y-8636000D02*
G75*
G03*
X18465000Y-8636000I-50000J0D01*
G01*
X18465000Y-8890000D02*
G75*
G03*
X18465000Y-8890000I-50000J0D01*
G01*
X18465000Y-9144000D02*
G75*
G03*
X18465000Y-9144000I-50000J0D01*
G01*
X18528500Y-9588500D02*
G75*
G03*
X18528500Y-9588500I-50000J0D01*
G01*
X18528500Y-9842500D02*
G75*
G03*
X18528500Y-9842500I-50000J0D01*
G01*
X18528500Y-10096500D02*
G75*
G03*
X18528500Y-10096500I-50000J0D01*
G01*
X18528500Y-10350500D02*
G75*
G03*
X18528500Y-10350500I-50000J0D01*
G01*
X18528500Y-10604500D02*
G75*
G03*
X18528500Y-10604500I-50000J0D01*
G01*
X18528500Y-10858500D02*
G75*
G03*
X18528500Y-10858500I-50000J0D01*
G01*
X18528500Y-11366500D02*
G75*
G03*
X18528500Y-11366500I-50000J0D01*
G01*
X18528500Y-11620500D02*
G75*
G03*
X18528500Y-11620500I-50000J0D01*
G01*
X18528500Y-11874500D02*
G75*
G03*
X18528500Y-11874500I-50000J0D01*
G01*
X18528500Y-12128500D02*
G75*
G03*
X18528500Y-12128500I-50000J0D01*
G01*
X18528500Y-12382500D02*
G75*
G03*
X18528500Y-12382500I-50000J0D01*
G01*
X18719000Y-7239000D02*
G75*
G03*
X18719000Y-7239000I-50000J0D01*
G01*
X18719000Y-7493000D02*
G75*
G03*
X18719000Y-7493000I-50000J0D01*
G01*
X18719000Y-7747000D02*
G75*
G03*
X18719000Y-7747000I-50000J0D01*
G01*
X18719000Y-8382000D02*
G75*
G03*
X18719000Y-8382000I-50000J0D01*
G01*
X18719000Y-8636000D02*
G75*
G03*
X18719000Y-8636000I-50000J0D01*
G01*
X18719000Y-8890000D02*
G75*
G03*
X18719000Y-8890000I-50000J0D01*
G01*
X18719000Y-9144000D02*
G75*
G03*
X18719000Y-9144000I-50000J0D01*
G01*
X18782500Y-9588500D02*
G75*
G03*
X18782500Y-9588500I-50000J0D01*
G01*
X18782500Y-9842500D02*
G75*
G03*
X18782500Y-9842500I-50000J0D01*
G01*
X18782500Y-10096500D02*
G75*
G03*
X18782500Y-10096500I-50000J0D01*
G01*
X18782500Y-10350500D02*
G75*
G03*
X18782500Y-10350500I-50000J0D01*
G01*
X18782500Y-10604500D02*
G75*
G03*
X18782500Y-10604500I-50000J0D01*
G01*
X18782500Y-10858500D02*
G75*
G03*
X18782500Y-10858500I-50000J0D01*
G01*
X18973000Y-7239000D02*
G75*
G03*
X18973000Y-7239000I-50000J0D01*
G01*
X18973000Y-7493000D02*
G75*
G03*
X18973000Y-7493000I-50000J0D01*
G01*
X18973000Y-7747000D02*
G75*
G03*
X18973000Y-7747000I-50000J0D01*
G01*
X18973000Y-8382000D02*
G75*
G03*
X18973000Y-8382000I-50000J0D01*
G01*
X18973000Y-8636000D02*
G75*
G03*
X18973000Y-8636000I-50000J0D01*
G01*
X18973000Y-8890000D02*
G75*
G03*
X18973000Y-8890000I-50000J0D01*
G01*
X18973000Y-9144000D02*
G75*
G03*
X18973000Y-9144000I-50000J0D01*
G01*
X19036500Y-9588500D02*
G75*
G03*
X19036500Y-9588500I-50000J0D01*
G01*
X19036500Y-9842500D02*
G75*
G03*
X19036500Y-9842500I-50000J0D01*
G01*
X19036500Y-10096500D02*
G75*
G03*
X19036500Y-10096500I-50000J0D01*
G01*
X19036500Y-10350500D02*
G75*
G03*
X19036500Y-10350500I-50000J0D01*
G01*
X19036500Y-10604500D02*
G75*
G03*
X19036500Y-10604500I-50000J0D01*
G01*
X19036500Y-10858500D02*
G75*
G03*
X19036500Y-10858500I-50000J0D01*
G01*
X19227000Y-7239000D02*
G75*
G03*
X19227000Y-7239000I-50000J0D01*
G01*
X19227000Y-7493000D02*
G75*
G03*
X19227000Y-7493000I-50000J0D01*
G01*
X19227000Y-7747000D02*
G75*
G03*
X19227000Y-7747000I-50000J0D01*
G01*
X19227000Y-8382000D02*
G75*
G03*
X19227000Y-8382000I-50000J0D01*
G01*
X19227000Y-8636000D02*
G75*
G03*
X19227000Y-8636000I-50000J0D01*
G01*
X19227000Y-8890000D02*
G75*
G03*
X19227000Y-8890000I-50000J0D01*
G01*
X19227000Y-9144000D02*
G75*
G03*
X19227000Y-9144000I-50000J0D01*
G01*
X19290500Y-9588500D02*
G75*
G03*
X19290500Y-9588500I-50000J0D01*
G01*
X19290500Y-9842500D02*
G75*
G03*
X19290500Y-9842500I-50000J0D01*
G01*
X19290500Y-10096500D02*
G75*
G03*
X19290500Y-10096500I-50000J0D01*
G01*
X19290500Y-10350500D02*
G75*
G03*
X19290500Y-10350500I-50000J0D01*
G01*
X19290500Y-10604500D02*
G75*
G03*
X19290500Y-10604500I-50000J0D01*
G01*
X19290500Y-10858500D02*
G75*
G03*
X19290500Y-10858500I-50000J0D01*
G01*
X19481000Y-8382000D02*
G75*
G03*
X19481000Y-8382000I-50000J0D01*
G01*
X19481000Y-8636000D02*
G75*
G03*
X19481000Y-8636000I-50000J0D01*
G01*
X19481000Y-8890000D02*
G75*
G03*
X19481000Y-8890000I-50000J0D01*
G01*
X19481000Y-9144000D02*
G75*
G03*
X19481000Y-9144000I-50000J0D01*
G01*
X9779000Y-12752000D02*
X9779000Y-12902000D01*
X9704000Y-12827000D02*
X9854000Y-12827000D01*
X9842500Y-6656000D02*
X9842500Y-6806000D01*
X9767500Y-6731000D02*
X9917500Y-6731000D01*
X9906000Y-8116500D02*
X9906000Y-8266500D01*
X9831000Y-8191500D02*
X9981000Y-8191500D01*
X9906000Y-8624500D02*
X9906000Y-8774500D01*
X9831000Y-8699500D02*
X9981000Y-8699500D01*
X9906000Y-9132500D02*
X9906000Y-9282500D01*
X9831000Y-9207500D02*
X9981000Y-9207500D01*
X10160000Y-9831000D02*
X10160000Y-9981000D01*
X10085000Y-9906000D02*
X10235000Y-9906000D01*
X10160000Y-10339000D02*
X10160000Y-10489000D01*
X10085000Y-10414000D02*
X10235000Y-10414000D01*
X10160000Y-10847000D02*
X10160000Y-10997000D01*
X10085000Y-10922000D02*
X10235000Y-10922000D01*
X10287000Y-7100500D02*
X10287000Y-7250500D01*
X10212000Y-7175500D02*
X10362000Y-7175500D01*
X10287000Y-7545000D02*
X10287000Y-7695000D01*
X10212000Y-7620000D02*
X10362000Y-7620000D01*
X10350500Y-12752000D02*
X10350500Y-12902000D01*
X10275500Y-12827000D02*
X10425500Y-12827000D01*
X10858500Y-12752000D02*
X10858500Y-12902000D01*
X10783500Y-12827000D02*
X10933500Y-12827000D01*
X11366500Y-6656000D02*
X11366500Y-6806000D01*
X11291500Y-6731000D02*
X11441500Y-6731000D01*
X11366500Y-12434500D02*
X11366500Y-12584500D01*
X11291500Y-12509500D02*
X11441500Y-12509500D01*
X11874500Y-12434500D02*
X11874500Y-12584500D01*
X11799500Y-12509500D02*
X11949500Y-12509500D01*
X12001500Y-10593000D02*
X12001500Y-10743000D01*
X11926500Y-10668000D02*
X12076500Y-10668000D01*
X12001500Y-11037500D02*
X12001500Y-11187500D01*
X11926500Y-11112500D02*
X12076500Y-11112500D01*
X12128500Y-6656000D02*
X12128500Y-6806000D01*
X12053500Y-6731000D02*
X12203500Y-6731000D01*
X12382500Y-12434500D02*
X12382500Y-12584500D01*
X12307500Y-12509500D02*
X12457500Y-12509500D01*
X12636500Y-6656000D02*
X12636500Y-6806000D01*
X12561500Y-6731000D02*
X12711500Y-6731000D01*
X13525500Y-12434500D02*
X13525500Y-12584500D01*
X13450500Y-12509500D02*
X13600500Y-12509500D01*
X14033500Y-12434500D02*
X14033500Y-12584500D01*
X13958500Y-12509500D02*
X14108500Y-12509500D01*
X14605000Y-12434500D02*
X14605000Y-12584500D01*
X14530000Y-12509500D02*
X14680000Y-12509500D01*
X15557500Y-6783000D02*
X15557500Y-6933000D01*
X15482500Y-6858000D02*
X15632500Y-6858000D01*
X15621000Y-12434500D02*
X15621000Y-12584500D01*
X15546000Y-12509500D02*
X15696000Y-12509500D01*
X15811500Y-10656500D02*
X15811500Y-10806500D01*
X15736500Y-10731500D02*
X15886500Y-10731500D01*
X15811500Y-11101000D02*
X15811500Y-11251000D01*
X15736500Y-11176000D02*
X15886500Y-11176000D01*
X16002000Y-6783000D02*
X16002000Y-6933000D01*
X15927000Y-6858000D02*
X16077000Y-6858000D01*
X16129000Y-12434500D02*
X16129000Y-12584500D01*
X16054000Y-12509500D02*
X16204000Y-12509500D01*
X16573500Y-6783000D02*
X16573500Y-6933000D01*
X16498500Y-6858000D02*
X16648500Y-6858000D01*
X16637000Y-12434500D02*
X16637000Y-12584500D01*
X16562000Y-12509500D02*
X16712000Y-12509500D01*
X17145000Y-6973500D02*
X17145000Y-7123500D01*
X17070000Y-7048500D02*
X17220000Y-7048500D01*
X17145000Y-7418000D02*
X17145000Y-7568000D01*
X17070000Y-7493000D02*
X17220000Y-7493000D01*
X17145000Y-7862500D02*
X17145000Y-8012500D01*
X17070000Y-7937500D02*
X17220000Y-7937500D01*
X17335500Y-12625000D02*
X17335500Y-12775000D01*
X17260500Y-12700000D02*
X17410500Y-12700000D01*
X17716500Y-8370500D02*
X17716500Y-8520500D01*
X17641500Y-8445500D02*
X17791500Y-8445500D01*
X17716500Y-8942000D02*
X17716500Y-9092000D01*
X17641500Y-9017000D02*
X17791500Y-9017000D01*
X17843500Y-9577000D02*
X17843500Y-9727000D01*
X17768500Y-9652000D02*
X17918500Y-9652000D01*
X17843500Y-10148500D02*
X17843500Y-10298500D01*
X17768500Y-10223500D02*
X17918500Y-10223500D01*
X17843500Y-10656500D02*
X17843500Y-10806500D01*
X17768500Y-10731500D02*
X17918500Y-10731500D01*
X17843500Y-12625000D02*
X17843500Y-12775000D01*
X17768500Y-12700000D02*
X17918500Y-12700000D01*
X18288000Y-12625000D02*
X18288000Y-12775000D01*
X18213000Y-12700000D02*
X18363000Y-12700000D01*
X18351500Y-6973500D02*
X18351500Y-7123500D01*
X18276500Y-7048500D02*
X18426500Y-7048500D01*
X18351500Y-7354500D02*
X18351500Y-7504500D01*
X18276500Y-7429500D02*
X18426500Y-7429500D01*
X18351500Y-7735500D02*
X18351500Y-7885500D01*
X18276500Y-7810500D02*
X18426500Y-7810500D01*
X12088138Y-9263138D02*
X12088138Y-9036862D01*
X11861862Y-9036862D01*
X11861862Y-9263138D01*
X12088138Y-9263138D01*
X14088138Y-7263138D02*
X14088138Y-7036862D01*
X13861862Y-7036862D01*
X13861862Y-7263138D01*
X14088138Y-7263138D01*
X14088138Y-11263138D02*
X14088138Y-11036862D01*
X13861862Y-11036862D01*
X13861862Y-11263138D01*
X14088138Y-11263138D01*
X15963138Y-9263138D02*
X15963138Y-9036862D01*
X15736862Y-9036862D01*
X15736862Y-9263138D01*
X15963138Y-9263138D01*
X13975000Y-9415000D02*
X14240000Y-9150000D01*
X13975000Y-8885000D01*
X13710000Y-9150000D01*
X13975000Y-9415000D01*
D12*
X8371428Y-14694714D02*
X8371428Y-14394714D01*
X8442857Y-14394714D01*
X8485714Y-14409000D01*
X8514286Y-14437571D01*
X8528571Y-14466143D01*
X8542857Y-14523286D01*
X8542857Y-14566143D01*
X8528571Y-14623286D01*
X8514286Y-14651857D01*
X8485714Y-14680429D01*
X8442857Y-14694714D01*
X8371428Y-14694714D01*
X8671428Y-14694714D02*
X8671428Y-14494714D01*
X8671428Y-14551857D02*
X8685714Y-14523286D01*
X8700000Y-14509000D01*
X8728571Y-14494714D01*
X8757143Y-14494714D01*
X8857143Y-14694714D02*
X8857143Y-14494714D01*
X8857143Y-14394714D02*
X8842857Y-14409000D01*
X8857143Y-14423286D01*
X8871428Y-14409000D01*
X8857143Y-14394714D01*
X8857143Y-14423286D01*
X9042857Y-14694714D02*
X9014286Y-14680429D01*
X9000000Y-14651857D01*
X9000000Y-14394714D01*
X9200000Y-14694714D02*
X9171428Y-14680429D01*
X9157143Y-14651857D01*
X9157143Y-14394714D01*
X9542857Y-14694714D02*
X9542857Y-14394714D01*
X9642857Y-14609000D01*
X9742857Y-14394714D01*
X9742857Y-14694714D01*
X10014286Y-14694714D02*
X10014286Y-14537571D01*
X10000000Y-14509000D01*
X9971428Y-14494714D01*
X9914286Y-14494714D01*
X9885714Y-14509000D01*
X10014286Y-14680429D02*
X9985714Y-14694714D01*
X9914286Y-14694714D01*
X9885714Y-14680429D01*
X9871428Y-14651857D01*
X9871428Y-14623286D01*
X9885714Y-14594714D01*
X9914286Y-14580429D01*
X9985714Y-14580429D01*
X10014286Y-14566143D01*
X10157143Y-14494714D02*
X10157143Y-14794714D01*
X10157143Y-14509000D02*
X10185714Y-14494714D01*
X10242857Y-14494714D01*
X10271428Y-14509000D01*
X10285714Y-14523286D01*
X10300000Y-14551857D01*
X10300000Y-14637571D01*
X10285714Y-14666143D01*
X10271428Y-14680429D01*
X10242857Y-14694714D01*
X10185714Y-14694714D01*
X10157143Y-14680429D01*
X10428571Y-14666143D02*
X10442857Y-14680429D01*
X10428571Y-14694714D01*
X10414286Y-14680429D01*
X10428571Y-14666143D01*
X10428571Y-14694714D01*
X10428571Y-14509000D02*
X10442857Y-14523286D01*
X10428571Y-14537571D01*
X10414286Y-14523286D01*
X10428571Y-14509000D01*
X10428571Y-14537571D01*
X7995000Y-15144000D02*
X8085000Y-15234000D01*
X8085000Y-15144000D02*
X7995000Y-15234000D01*
X8428571Y-15024714D02*
X8457143Y-15024714D01*
X8485714Y-15039000D01*
X8500000Y-15053286D01*
X8514286Y-15081857D01*
X8528571Y-15139000D01*
X8528571Y-15210429D01*
X8514286Y-15267571D01*
X8500000Y-15296143D01*
X8485714Y-15310429D01*
X8457143Y-15324714D01*
X8428571Y-15324714D01*
X8400000Y-15310429D01*
X8385714Y-15296143D01*
X8371428Y-15267571D01*
X8357143Y-15210429D01*
X8357143Y-15139000D01*
X8371428Y-15081857D01*
X8385714Y-15053286D01*
X8400000Y-15039000D01*
X8428571Y-15024714D01*
X8657143Y-15296143D02*
X8671428Y-15310429D01*
X8657143Y-15324714D01*
X8642857Y-15310429D01*
X8657143Y-15296143D01*
X8657143Y-15324714D01*
X8814286Y-15324714D02*
X8871428Y-15324714D01*
X8900000Y-15310429D01*
X8914286Y-15296143D01*
X8942857Y-15253286D01*
X8957143Y-15196143D01*
X8957143Y-15081857D01*
X8942857Y-15053286D01*
X8928571Y-15039000D01*
X8900000Y-15024714D01*
X8842857Y-15024714D01*
X8814286Y-15039000D01*
X8800000Y-15053286D01*
X8785714Y-15081857D01*
X8785714Y-15153286D01*
X8800000Y-15181857D01*
X8814286Y-15196143D01*
X8842857Y-15210429D01*
X8900000Y-15210429D01*
X8928571Y-15196143D01*
X8942857Y-15181857D01*
X8957143Y-15153286D01*
X9142857Y-15024714D02*
X9171428Y-15024714D01*
X9200000Y-15039000D01*
X9214286Y-15053286D01*
X9228571Y-15081857D01*
X9242857Y-15139000D01*
X9242857Y-15210429D01*
X9228571Y-15267571D01*
X9214286Y-15296143D01*
X9200000Y-15310429D01*
X9171428Y-15324714D01*
X9142857Y-15324714D01*
X9114286Y-15310429D01*
X9100000Y-15296143D01*
X9085714Y-15267571D01*
X9071428Y-15210429D01*
X9071428Y-15139000D01*
X9085714Y-15081857D01*
X9100000Y-15053286D01*
X9114286Y-15039000D01*
X9142857Y-15024714D01*
X9371428Y-15324714D02*
X9371428Y-15124714D01*
X9371428Y-15153286D02*
X9385714Y-15139000D01*
X9414286Y-15124714D01*
X9457143Y-15124714D01*
X9485714Y-15139000D01*
X9500000Y-15167571D01*
X9500000Y-15324714D01*
X9500000Y-15167571D02*
X9514286Y-15139000D01*
X9542857Y-15124714D01*
X9585714Y-15124714D01*
X9614286Y-15139000D01*
X9628571Y-15167571D01*
X9628571Y-15324714D01*
X9771428Y-15324714D02*
X9771428Y-15124714D01*
X9771428Y-15153286D02*
X9785714Y-15139000D01*
X9814286Y-15124714D01*
X9857143Y-15124714D01*
X9885714Y-15139000D01*
X9900000Y-15167571D01*
X9900000Y-15324714D01*
X9900000Y-15167571D02*
X9914286Y-15139000D01*
X9942857Y-15124714D01*
X9985714Y-15124714D01*
X10014286Y-15139000D01*
X10028571Y-15167571D01*
X10028571Y-15324714D01*
X10614286Y-15010429D02*
X10357143Y-15396143D01*
X11000000Y-15024714D02*
X11028571Y-15024714D01*
X11057143Y-15039000D01*
X11071428Y-15053286D01*
X11085714Y-15081857D01*
X11100000Y-15139000D01*
X11100000Y-15210429D01*
X11085714Y-15267571D01*
X11071428Y-15296143D01*
X11057143Y-15310429D01*
X11028571Y-15324714D01*
X11000000Y-15324714D01*
X10971428Y-15310429D01*
X10957143Y-15296143D01*
X10942857Y-15267571D01*
X10928571Y-15210429D01*
X10928571Y-15139000D01*
X10942857Y-15081857D01*
X10957143Y-15053286D01*
X10971428Y-15039000D01*
X11000000Y-15024714D01*
X11228571Y-15296143D02*
X11242857Y-15310429D01*
X11228571Y-15324714D01*
X11214286Y-15310429D01*
X11228571Y-15296143D01*
X11228571Y-15324714D01*
X11428571Y-15024714D02*
X11457143Y-15024714D01*
X11485714Y-15039000D01*
X11500000Y-15053286D01*
X11514286Y-15081857D01*
X11528571Y-15139000D01*
X11528571Y-15210429D01*
X11514286Y-15267571D01*
X11500000Y-15296143D01*
X11485714Y-15310429D01*
X11457143Y-15324714D01*
X11428571Y-15324714D01*
X11400000Y-15310429D01*
X11385714Y-15296143D01*
X11371428Y-15267571D01*
X11357143Y-15210429D01*
X11357143Y-15139000D01*
X11371428Y-15081857D01*
X11385714Y-15053286D01*
X11400000Y-15039000D01*
X11428571Y-15024714D01*
X11628571Y-15024714D02*
X11814286Y-15024714D01*
X11714286Y-15139000D01*
X11757143Y-15139000D01*
X11785714Y-15153286D01*
X11800000Y-15167571D01*
X11814286Y-15196143D01*
X11814286Y-15267571D01*
X11800000Y-15296143D01*
X11785714Y-15310429D01*
X11757143Y-15324714D01*
X11671428Y-15324714D01*
X11642857Y-15310429D01*
X11628571Y-15296143D01*
X12085714Y-15024714D02*
X11942857Y-15024714D01*
X11928571Y-15167571D01*
X11942857Y-15153286D01*
X11971428Y-15139000D01*
X12042857Y-15139000D01*
X12071428Y-15153286D01*
X12085714Y-15167571D01*
X12100000Y-15196143D01*
X12100000Y-15267571D01*
X12085714Y-15296143D01*
X12071428Y-15310429D01*
X12042857Y-15324714D01*
X11971428Y-15324714D01*
X11942857Y-15310429D01*
X11928571Y-15296143D01*
X12214286Y-15024714D02*
X12214286Y-15081857D01*
X12328571Y-15024714D02*
X12328571Y-15081857D01*
X12771428Y-15439000D02*
X12757143Y-15424714D01*
X12728571Y-15381857D01*
X12714286Y-15353286D01*
X12700000Y-15310429D01*
X12685714Y-15239000D01*
X12685714Y-15181857D01*
X12700000Y-15110429D01*
X12714286Y-15067571D01*
X12728571Y-15039000D01*
X12757143Y-14996143D01*
X12771428Y-14981857D01*
X12928571Y-15153286D02*
X12900000Y-15139000D01*
X12885714Y-15124714D01*
X12871428Y-15096143D01*
X12871428Y-15081857D01*
X12885714Y-15053286D01*
X12900000Y-15039000D01*
X12928571Y-15024714D01*
X12985714Y-15024714D01*
X13014286Y-15039000D01*
X13028571Y-15053286D01*
X13042857Y-15081857D01*
X13042857Y-15096143D01*
X13028571Y-15124714D01*
X13014286Y-15139000D01*
X12985714Y-15153286D01*
X12928571Y-15153286D01*
X12900000Y-15167571D01*
X12885714Y-15181857D01*
X12871428Y-15210429D01*
X12871428Y-15267571D01*
X12885714Y-15296143D01*
X12900000Y-15310429D01*
X12928571Y-15324714D01*
X12985714Y-15324714D01*
X13014286Y-15310429D01*
X13028571Y-15296143D01*
X13042857Y-15267571D01*
X13042857Y-15210429D01*
X13028571Y-15181857D01*
X13014286Y-15167571D01*
X12985714Y-15153286D01*
X13400000Y-15324714D02*
X13400000Y-15024714D01*
X13528571Y-15324714D02*
X13528571Y-15167571D01*
X13514286Y-15139000D01*
X13485714Y-15124714D01*
X13442857Y-15124714D01*
X13414286Y-15139000D01*
X13400000Y-15153286D01*
X13714286Y-15324714D02*
X13685714Y-15310429D01*
X13671428Y-15296143D01*
X13657143Y-15267571D01*
X13657143Y-15181857D01*
X13671428Y-15153286D01*
X13685714Y-15139000D01*
X13714286Y-15124714D01*
X13757143Y-15124714D01*
X13785714Y-15139000D01*
X13800000Y-15153286D01*
X13814286Y-15181857D01*
X13814286Y-15267571D01*
X13800000Y-15296143D01*
X13785714Y-15310429D01*
X13757143Y-15324714D01*
X13714286Y-15324714D01*
X13985714Y-15324714D02*
X13957143Y-15310429D01*
X13942857Y-15281857D01*
X13942857Y-15024714D01*
X14214286Y-15310429D02*
X14185714Y-15324714D01*
X14128571Y-15324714D01*
X14100000Y-15310429D01*
X14085714Y-15281857D01*
X14085714Y-15167571D01*
X14100000Y-15139000D01*
X14128571Y-15124714D01*
X14185714Y-15124714D01*
X14214286Y-15139000D01*
X14228571Y-15167571D01*
X14228571Y-15196143D01*
X14085714Y-15224714D01*
X14342857Y-15310429D02*
X14371428Y-15324714D01*
X14428571Y-15324714D01*
X14457143Y-15310429D01*
X14471428Y-15281857D01*
X14471428Y-15267571D01*
X14457143Y-15239000D01*
X14428571Y-15224714D01*
X14385714Y-15224714D01*
X14357143Y-15210429D01*
X14342857Y-15181857D01*
X14342857Y-15167571D01*
X14357143Y-15139000D01*
X14385714Y-15124714D01*
X14428571Y-15124714D01*
X14457143Y-15139000D01*
X14571428Y-15439000D02*
X14585714Y-15424714D01*
X14614286Y-15381857D01*
X14628571Y-15353286D01*
X14642857Y-15310429D01*
X14657143Y-15239000D01*
X14657143Y-15181857D01*
X14642857Y-15110429D01*
X14628571Y-15067571D01*
X14614286Y-15039000D01*
X14585714Y-14996143D01*
X14571428Y-14981857D01*
X8085000Y-15585000D02*
G75*
G03*
X8085000Y-15585000I-50000J0D01*
G01*
X8528571Y-15720714D02*
X8357143Y-15720714D01*
X8442857Y-15720714D02*
X8442857Y-15420714D01*
X8414286Y-15463571D01*
X8385714Y-15492143D01*
X8357143Y-15506429D01*
X8657143Y-15692143D02*
X8671428Y-15706429D01*
X8657143Y-15720714D01*
X8642857Y-15706429D01*
X8657143Y-15692143D01*
X8657143Y-15720714D01*
X8857143Y-15420714D02*
X8885714Y-15420714D01*
X8914286Y-15435000D01*
X8928571Y-15449286D01*
X8942857Y-15477857D01*
X8957143Y-15535000D01*
X8957143Y-15606429D01*
X8942857Y-15663571D01*
X8928571Y-15692143D01*
X8914286Y-15706429D01*
X8885714Y-15720714D01*
X8857143Y-15720714D01*
X8828571Y-15706429D01*
X8814286Y-15692143D01*
X8800000Y-15663571D01*
X8785714Y-15606429D01*
X8785714Y-15535000D01*
X8800000Y-15477857D01*
X8814286Y-15449286D01*
X8828571Y-15435000D01*
X8857143Y-15420714D01*
X9142857Y-15420714D02*
X9171428Y-15420714D01*
X9200000Y-15435000D01*
X9214286Y-15449286D01*
X9228571Y-15477857D01*
X9242857Y-15535000D01*
X9242857Y-15606429D01*
X9228571Y-15663571D01*
X9214286Y-15692143D01*
X9200000Y-15706429D01*
X9171428Y-15720714D01*
X9142857Y-15720714D01*
X9114286Y-15706429D01*
X9100000Y-15692143D01*
X9085714Y-15663571D01*
X9071428Y-15606429D01*
X9071428Y-15535000D01*
X9085714Y-15477857D01*
X9100000Y-15449286D01*
X9114286Y-15435000D01*
X9142857Y-15420714D01*
X9371428Y-15720714D02*
X9371428Y-15520714D01*
X9371428Y-15549286D02*
X9385714Y-15535000D01*
X9414286Y-15520714D01*
X9457143Y-15520714D01*
X9485714Y-15535000D01*
X9500000Y-15563571D01*
X9500000Y-15720714D01*
X9500000Y-15563571D02*
X9514286Y-15535000D01*
X9542857Y-15520714D01*
X9585714Y-15520714D01*
X9614286Y-15535000D01*
X9628571Y-15563571D01*
X9628571Y-15720714D01*
X9771428Y-15720714D02*
X9771428Y-15520714D01*
X9771428Y-15549286D02*
X9785714Y-15535000D01*
X9814286Y-15520714D01*
X9857143Y-15520714D01*
X9885714Y-15535000D01*
X9900000Y-15563571D01*
X9900000Y-15720714D01*
X9900000Y-15563571D02*
X9914286Y-15535000D01*
X9942857Y-15520714D01*
X9985714Y-15520714D01*
X10014286Y-15535000D01*
X10028571Y-15563571D01*
X10028571Y-15720714D01*
X10614286Y-15406429D02*
X10357143Y-15792143D01*
X11000000Y-15420714D02*
X11028571Y-15420714D01*
X11057143Y-15435000D01*
X11071428Y-15449286D01*
X11085714Y-15477857D01*
X11100000Y-15535000D01*
X11100000Y-15606429D01*
X11085714Y-15663571D01*
X11071428Y-15692143D01*
X11057143Y-15706429D01*
X11028571Y-15720714D01*
X11000000Y-15720714D01*
X10971428Y-15706429D01*
X10957143Y-15692143D01*
X10942857Y-15663571D01*
X10928571Y-15606429D01*
X10928571Y-15535000D01*
X10942857Y-15477857D01*
X10957143Y-15449286D01*
X10971428Y-15435000D01*
X11000000Y-15420714D01*
X11228571Y-15692143D02*
X11242857Y-15706429D01*
X11228571Y-15720714D01*
X11214286Y-15706429D01*
X11228571Y-15692143D01*
X11228571Y-15720714D01*
X11428571Y-15420714D02*
X11457143Y-15420714D01*
X11485714Y-15435000D01*
X11500000Y-15449286D01*
X11514286Y-15477857D01*
X11528571Y-15535000D01*
X11528571Y-15606429D01*
X11514286Y-15663571D01*
X11500000Y-15692143D01*
X11485714Y-15706429D01*
X11457143Y-15720714D01*
X11428571Y-15720714D01*
X11400000Y-15706429D01*
X11385714Y-15692143D01*
X11371428Y-15663571D01*
X11357143Y-15606429D01*
X11357143Y-15535000D01*
X11371428Y-15477857D01*
X11385714Y-15449286D01*
X11400000Y-15435000D01*
X11428571Y-15420714D01*
X11628571Y-15420714D02*
X11814286Y-15420714D01*
X11714286Y-15535000D01*
X11757143Y-15535000D01*
X11785714Y-15549286D01*
X11800000Y-15563571D01*
X11814286Y-15592143D01*
X11814286Y-15663571D01*
X11800000Y-15692143D01*
X11785714Y-15706429D01*
X11757143Y-15720714D01*
X11671428Y-15720714D01*
X11642857Y-15706429D01*
X11628571Y-15692143D01*
X11957143Y-15720714D02*
X12014286Y-15720714D01*
X12042857Y-15706429D01*
X12057143Y-15692143D01*
X12085714Y-15649286D01*
X12100000Y-15592143D01*
X12100000Y-15477857D01*
X12085714Y-15449286D01*
X12071428Y-15435000D01*
X12042857Y-15420714D01*
X11985714Y-15420714D01*
X11957143Y-15435000D01*
X11942857Y-15449286D01*
X11928571Y-15477857D01*
X11928571Y-15549286D01*
X11942857Y-15577857D01*
X11957143Y-15592143D01*
X11985714Y-15606429D01*
X12042857Y-15606429D01*
X12071428Y-15592143D01*
X12085714Y-15577857D01*
X12100000Y-15549286D01*
X12214286Y-15420714D02*
X12214286Y-15477857D01*
X12328571Y-15420714D02*
X12328571Y-15477857D01*
X12771428Y-15835000D02*
X12757143Y-15820714D01*
X12728571Y-15777857D01*
X12714286Y-15749286D01*
X12700000Y-15706429D01*
X12685714Y-15635000D01*
X12685714Y-15577857D01*
X12700000Y-15506429D01*
X12714286Y-15463571D01*
X12728571Y-15435000D01*
X12757143Y-15392143D01*
X12771428Y-15377857D01*
X13014286Y-15520714D02*
X13014286Y-15720714D01*
X12942857Y-15406429D02*
X12871428Y-15620714D01*
X13057143Y-15620714D01*
X13328571Y-15720714D02*
X13157143Y-15720714D01*
X13242857Y-15720714D02*
X13242857Y-15420714D01*
X13214286Y-15463571D01*
X13185714Y-15492143D01*
X13157143Y-15506429D01*
X13471428Y-15720714D02*
X13528571Y-15720714D01*
X13557143Y-15706429D01*
X13571428Y-15692143D01*
X13600000Y-15649286D01*
X13614286Y-15592143D01*
X13614286Y-15477857D01*
X13600000Y-15449286D01*
X13585714Y-15435000D01*
X13557143Y-15420714D01*
X13500000Y-15420714D01*
X13471428Y-15435000D01*
X13457143Y-15449286D01*
X13442857Y-15477857D01*
X13442857Y-15549286D01*
X13457143Y-15577857D01*
X13471428Y-15592143D01*
X13500000Y-15606429D01*
X13557143Y-15606429D01*
X13585714Y-15592143D01*
X13600000Y-15577857D01*
X13614286Y-15549286D01*
X13971428Y-15720714D02*
X13971428Y-15420714D01*
X14100000Y-15720714D02*
X14100000Y-15563571D01*
X14085714Y-15535000D01*
X14057143Y-15520714D01*
X14014286Y-15520714D01*
X13985714Y-15535000D01*
X13971428Y-15549286D01*
X14285714Y-15720714D02*
X14257143Y-15706429D01*
X14242857Y-15692143D01*
X14228571Y-15663571D01*
X14228571Y-15577857D01*
X14242857Y-15549286D01*
X14257143Y-15535000D01*
X14285714Y-15520714D01*
X14328571Y-15520714D01*
X14357143Y-15535000D01*
X14371428Y-15549286D01*
X14385714Y-15577857D01*
X14385714Y-15663571D01*
X14371428Y-15692143D01*
X14357143Y-15706429D01*
X14328571Y-15720714D01*
X14285714Y-15720714D01*
X14557143Y-15720714D02*
X14528571Y-15706429D01*
X14514286Y-15677857D01*
X14514286Y-15420714D01*
X14785714Y-15706429D02*
X14757143Y-15720714D01*
X14700000Y-15720714D01*
X14671428Y-15706429D01*
X14657143Y-15677857D01*
X14657143Y-15563571D01*
X14671428Y-15535000D01*
X14700000Y-15520714D01*
X14757143Y-15520714D01*
X14785714Y-15535000D01*
X14800000Y-15563571D01*
X14800000Y-15592143D01*
X14657143Y-15620714D01*
X14914286Y-15706429D02*
X14942857Y-15720714D01*
X15000000Y-15720714D01*
X15028571Y-15706429D01*
X15042857Y-15677857D01*
X15042857Y-15663571D01*
X15028571Y-15635000D01*
X15000000Y-15620714D01*
X14957143Y-15620714D01*
X14928571Y-15606429D01*
X14914286Y-15577857D01*
X14914286Y-15563571D01*
X14928571Y-15535000D01*
X14957143Y-15520714D01*
X15000000Y-15520714D01*
X15028571Y-15535000D01*
X15142857Y-15835000D02*
X15157143Y-15820714D01*
X15185714Y-15777857D01*
X15200000Y-15749286D01*
X15214286Y-15706429D01*
X15228571Y-15635000D01*
X15228571Y-15577857D01*
X15214286Y-15506429D01*
X15200000Y-15463571D01*
X15185714Y-15435000D01*
X15157143Y-15392143D01*
X15142857Y-15377857D01*
X8010000Y-15906000D02*
X8010000Y-16056000D01*
X7935000Y-15981000D02*
X8085000Y-15981000D01*
X8528571Y-16116714D02*
X8357143Y-16116714D01*
X8442857Y-16116714D02*
X8442857Y-15816714D01*
X8414286Y-15859571D01*
X8385714Y-15888143D01*
X8357143Y-15902429D01*
X8657143Y-16088143D02*
X8671428Y-16102429D01*
X8657143Y-16116714D01*
X8642857Y-16102429D01*
X8657143Y-16088143D01*
X8657143Y-16116714D01*
X8942857Y-15816714D02*
X8800000Y-15816714D01*
X8785714Y-15959571D01*
X8800000Y-15945286D01*
X8828571Y-15931000D01*
X8900000Y-15931000D01*
X8928571Y-15945286D01*
X8942857Y-15959571D01*
X8957143Y-15988143D01*
X8957143Y-16059571D01*
X8942857Y-16088143D01*
X8928571Y-16102429D01*
X8900000Y-16116714D01*
X8828571Y-16116714D01*
X8800000Y-16102429D01*
X8785714Y-16088143D01*
X9142857Y-15816714D02*
X9171428Y-15816714D01*
X9200000Y-15831000D01*
X9214286Y-15845286D01*
X9228571Y-15873857D01*
X9242857Y-15931000D01*
X9242857Y-16002429D01*
X9228571Y-16059571D01*
X9214286Y-16088143D01*
X9200000Y-16102429D01*
X9171428Y-16116714D01*
X9142857Y-16116714D01*
X9114286Y-16102429D01*
X9100000Y-16088143D01*
X9085714Y-16059571D01*
X9071428Y-16002429D01*
X9071428Y-15931000D01*
X9085714Y-15873857D01*
X9100000Y-15845286D01*
X9114286Y-15831000D01*
X9142857Y-15816714D01*
X9371428Y-16116714D02*
X9371428Y-15916714D01*
X9371428Y-15945286D02*
X9385714Y-15931000D01*
X9414286Y-15916714D01*
X9457143Y-15916714D01*
X9485714Y-15931000D01*
X9500000Y-15959571D01*
X9500000Y-16116714D01*
X9500000Y-15959571D02*
X9514286Y-15931000D01*
X9542857Y-15916714D01*
X9585714Y-15916714D01*
X9614286Y-15931000D01*
X9628571Y-15959571D01*
X9628571Y-16116714D01*
X9771428Y-16116714D02*
X9771428Y-15916714D01*
X9771428Y-15945286D02*
X9785714Y-15931000D01*
X9814286Y-15916714D01*
X9857143Y-15916714D01*
X9885714Y-15931000D01*
X9900000Y-15959571D01*
X9900000Y-16116714D01*
X9900000Y-15959571D02*
X9914286Y-15931000D01*
X9942857Y-15916714D01*
X9985714Y-15916714D01*
X10014286Y-15931000D01*
X10028571Y-15959571D01*
X10028571Y-16116714D01*
X10614286Y-15802429D02*
X10357143Y-16188143D01*
X11000000Y-15816714D02*
X11028571Y-15816714D01*
X11057143Y-15831000D01*
X11071428Y-15845286D01*
X11085714Y-15873857D01*
X11100000Y-15931000D01*
X11100000Y-16002429D01*
X11085714Y-16059571D01*
X11071428Y-16088143D01*
X11057143Y-16102429D01*
X11028571Y-16116714D01*
X11000000Y-16116714D01*
X10971428Y-16102429D01*
X10957143Y-16088143D01*
X10942857Y-16059571D01*
X10928571Y-16002429D01*
X10928571Y-15931000D01*
X10942857Y-15873857D01*
X10957143Y-15845286D01*
X10971428Y-15831000D01*
X11000000Y-15816714D01*
X11228571Y-16088143D02*
X11242857Y-16102429D01*
X11228571Y-16116714D01*
X11214286Y-16102429D01*
X11228571Y-16088143D01*
X11228571Y-16116714D01*
X11428571Y-15816714D02*
X11457143Y-15816714D01*
X11485714Y-15831000D01*
X11500000Y-15845286D01*
X11514286Y-15873857D01*
X11528571Y-15931000D01*
X11528571Y-16002429D01*
X11514286Y-16059571D01*
X11500000Y-16088143D01*
X11485714Y-16102429D01*
X11457143Y-16116714D01*
X11428571Y-16116714D01*
X11400000Y-16102429D01*
X11385714Y-16088143D01*
X11371428Y-16059571D01*
X11357143Y-16002429D01*
X11357143Y-15931000D01*
X11371428Y-15873857D01*
X11385714Y-15845286D01*
X11400000Y-15831000D01*
X11428571Y-15816714D01*
X11800000Y-15816714D02*
X11657143Y-15816714D01*
X11642857Y-15959571D01*
X11657143Y-15945286D01*
X11685714Y-15931000D01*
X11757143Y-15931000D01*
X11785714Y-15945286D01*
X11800000Y-15959571D01*
X11814286Y-15988143D01*
X11814286Y-16059571D01*
X11800000Y-16088143D01*
X11785714Y-16102429D01*
X11757143Y-16116714D01*
X11685714Y-16116714D01*
X11657143Y-16102429D01*
X11642857Y-16088143D01*
X11957143Y-16116714D02*
X12014286Y-16116714D01*
X12042857Y-16102429D01*
X12057143Y-16088143D01*
X12085714Y-16045286D01*
X12100000Y-15988143D01*
X12100000Y-15873857D01*
X12085714Y-15845286D01*
X12071428Y-15831000D01*
X12042857Y-15816714D01*
X11985714Y-15816714D01*
X11957143Y-15831000D01*
X11942857Y-15845286D01*
X11928571Y-15873857D01*
X11928571Y-15945286D01*
X11942857Y-15973857D01*
X11957143Y-15988143D01*
X11985714Y-16002429D01*
X12042857Y-16002429D01*
X12071428Y-15988143D01*
X12085714Y-15973857D01*
X12100000Y-15945286D01*
X12214286Y-15816714D02*
X12214286Y-15873857D01*
X12328571Y-15816714D02*
X12328571Y-15873857D01*
X12771428Y-16231000D02*
X12757143Y-16216714D01*
X12728571Y-16173857D01*
X12714286Y-16145286D01*
X12700000Y-16102429D01*
X12685714Y-16031000D01*
X12685714Y-15973857D01*
X12700000Y-15902429D01*
X12714286Y-15859571D01*
X12728571Y-15831000D01*
X12757143Y-15788143D01*
X12771428Y-15773857D01*
X13014286Y-15916714D02*
X13014286Y-16116714D01*
X12942857Y-15802429D02*
X12871428Y-16016714D01*
X13057143Y-16016714D01*
X13314286Y-15816714D02*
X13171428Y-15816714D01*
X13157143Y-15959571D01*
X13171428Y-15945286D01*
X13200000Y-15931000D01*
X13271428Y-15931000D01*
X13300000Y-15945286D01*
X13314286Y-15959571D01*
X13328571Y-15988143D01*
X13328571Y-16059571D01*
X13314286Y-16088143D01*
X13300000Y-16102429D01*
X13271428Y-16116714D01*
X13200000Y-16116714D01*
X13171428Y-16102429D01*
X13157143Y-16088143D01*
X13685714Y-16116714D02*
X13685714Y-15816714D01*
X13814286Y-16116714D02*
X13814286Y-15959571D01*
X13800000Y-15931000D01*
X13771428Y-15916714D01*
X13728571Y-15916714D01*
X13700000Y-15931000D01*
X13685714Y-15945286D01*
X14000000Y-16116714D02*
X13971428Y-16102429D01*
X13957143Y-16088143D01*
X13942857Y-16059571D01*
X13942857Y-15973857D01*
X13957143Y-15945286D01*
X13971428Y-15931000D01*
X14000000Y-15916714D01*
X14042857Y-15916714D01*
X14071428Y-15931000D01*
X14085714Y-15945286D01*
X14100000Y-15973857D01*
X14100000Y-16059571D01*
X14085714Y-16088143D01*
X14071428Y-16102429D01*
X14042857Y-16116714D01*
X14000000Y-16116714D01*
X14271428Y-16116714D02*
X14242857Y-16102429D01*
X14228571Y-16073857D01*
X14228571Y-15816714D01*
X14500000Y-16102429D02*
X14471428Y-16116714D01*
X14414286Y-16116714D01*
X14385714Y-16102429D01*
X14371428Y-16073857D01*
X14371428Y-15959571D01*
X14385714Y-15931000D01*
X14414286Y-15916714D01*
X14471428Y-15916714D01*
X14500000Y-15931000D01*
X14514286Y-15959571D01*
X14514286Y-15988143D01*
X14371428Y-16016714D01*
X14628571Y-16102429D02*
X14657143Y-16116714D01*
X14714286Y-16116714D01*
X14742857Y-16102429D01*
X14757143Y-16073857D01*
X14757143Y-16059571D01*
X14742857Y-16031000D01*
X14714286Y-16016714D01*
X14671428Y-16016714D01*
X14642857Y-16002429D01*
X14628571Y-15973857D01*
X14628571Y-15959571D01*
X14642857Y-15931000D01*
X14671428Y-15916714D01*
X14714286Y-15916714D01*
X14742857Y-15931000D01*
X14857143Y-16231000D02*
X14871428Y-16216714D01*
X14900000Y-16173857D01*
X14914286Y-16145286D01*
X14928571Y-16102429D01*
X14942857Y-16031000D01*
X14942857Y-15973857D01*
X14928571Y-15902429D01*
X14914286Y-15859571D01*
X14900000Y-15831000D01*
X14871428Y-15788143D01*
X14857143Y-15773857D01*
X8038138Y-16490138D02*
X8038138Y-16263862D01*
X7811862Y-16263862D01*
X7811862Y-16490138D01*
X8038138Y-16490138D01*
X8342857Y-16212714D02*
X8528571Y-16212714D01*
X8428571Y-16327000D01*
X8471428Y-16327000D01*
X8500000Y-16341286D01*
X8514286Y-16355571D01*
X8528571Y-16384143D01*
X8528571Y-16455571D01*
X8514286Y-16484143D01*
X8500000Y-16498429D01*
X8471428Y-16512714D01*
X8385714Y-16512714D01*
X8357143Y-16498429D01*
X8342857Y-16484143D01*
X8657143Y-16484143D02*
X8671428Y-16498429D01*
X8657143Y-16512714D01*
X8642857Y-16498429D01*
X8657143Y-16484143D01*
X8657143Y-16512714D01*
X8785714Y-16241286D02*
X8800000Y-16227000D01*
X8828571Y-16212714D01*
X8900000Y-16212714D01*
X8928571Y-16227000D01*
X8942857Y-16241286D01*
X8957143Y-16269857D01*
X8957143Y-16298429D01*
X8942857Y-16341286D01*
X8771428Y-16512714D01*
X8957143Y-16512714D01*
X9142857Y-16212714D02*
X9171428Y-16212714D01*
X9200000Y-16227000D01*
X9214286Y-16241286D01*
X9228571Y-16269857D01*
X9242857Y-16327000D01*
X9242857Y-16398429D01*
X9228571Y-16455571D01*
X9214286Y-16484143D01*
X9200000Y-16498429D01*
X9171428Y-16512714D01*
X9142857Y-16512714D01*
X9114286Y-16498429D01*
X9100000Y-16484143D01*
X9085714Y-16455571D01*
X9071428Y-16398429D01*
X9071428Y-16327000D01*
X9085714Y-16269857D01*
X9100000Y-16241286D01*
X9114286Y-16227000D01*
X9142857Y-16212714D01*
X9371428Y-16512714D02*
X9371428Y-16312714D01*
X9371428Y-16341286D02*
X9385714Y-16327000D01*
X9414286Y-16312714D01*
X9457143Y-16312714D01*
X9485714Y-16327000D01*
X9500000Y-16355571D01*
X9500000Y-16512714D01*
X9500000Y-16355571D02*
X9514286Y-16327000D01*
X9542857Y-16312714D01*
X9585714Y-16312714D01*
X9614286Y-16327000D01*
X9628571Y-16355571D01*
X9628571Y-16512714D01*
X9771428Y-16512714D02*
X9771428Y-16312714D01*
X9771428Y-16341286D02*
X9785714Y-16327000D01*
X9814286Y-16312714D01*
X9857143Y-16312714D01*
X9885714Y-16327000D01*
X9900000Y-16355571D01*
X9900000Y-16512714D01*
X9900000Y-16355571D02*
X9914286Y-16327000D01*
X9942857Y-16312714D01*
X9985714Y-16312714D01*
X10014286Y-16327000D01*
X10028571Y-16355571D01*
X10028571Y-16512714D01*
X10614286Y-16198429D02*
X10357143Y-16584143D01*
X11000000Y-16212714D02*
X11028571Y-16212714D01*
X11057143Y-16227000D01*
X11071428Y-16241286D01*
X11085714Y-16269857D01*
X11100000Y-16327000D01*
X11100000Y-16398429D01*
X11085714Y-16455571D01*
X11071428Y-16484143D01*
X11057143Y-16498429D01*
X11028571Y-16512714D01*
X11000000Y-16512714D01*
X10971428Y-16498429D01*
X10957143Y-16484143D01*
X10942857Y-16455571D01*
X10928571Y-16398429D01*
X10928571Y-16327000D01*
X10942857Y-16269857D01*
X10957143Y-16241286D01*
X10971428Y-16227000D01*
X11000000Y-16212714D01*
X11228571Y-16484143D02*
X11242857Y-16498429D01*
X11228571Y-16512714D01*
X11214286Y-16498429D01*
X11228571Y-16484143D01*
X11228571Y-16512714D01*
X11528571Y-16512714D02*
X11357143Y-16512714D01*
X11442857Y-16512714D02*
X11442857Y-16212714D01*
X11414286Y-16255571D01*
X11385714Y-16284143D01*
X11357143Y-16298429D01*
X11642857Y-16241286D02*
X11657143Y-16227000D01*
X11685714Y-16212714D01*
X11757143Y-16212714D01*
X11785714Y-16227000D01*
X11800000Y-16241286D01*
X11814286Y-16269857D01*
X11814286Y-16298429D01*
X11800000Y-16341286D01*
X11628571Y-16512714D01*
X11814286Y-16512714D01*
X12071428Y-16212714D02*
X12014286Y-16212714D01*
X11985714Y-16227000D01*
X11971428Y-16241286D01*
X11942857Y-16284143D01*
X11928571Y-16341286D01*
X11928571Y-16455571D01*
X11942857Y-16484143D01*
X11957143Y-16498429D01*
X11985714Y-16512714D01*
X12042857Y-16512714D01*
X12071428Y-16498429D01*
X12085714Y-16484143D01*
X12100000Y-16455571D01*
X12100000Y-16384143D01*
X12085714Y-16355571D01*
X12071428Y-16341286D01*
X12042857Y-16327000D01*
X11985714Y-16327000D01*
X11957143Y-16341286D01*
X11942857Y-16355571D01*
X11928571Y-16384143D01*
X12214286Y-16212714D02*
X12214286Y-16269857D01*
X12328571Y-16212714D02*
X12328571Y-16269857D01*
X12771428Y-16627000D02*
X12757143Y-16612714D01*
X12728571Y-16569857D01*
X12714286Y-16541286D01*
X12700000Y-16498429D01*
X12685714Y-16427000D01*
X12685714Y-16369857D01*
X12700000Y-16298429D01*
X12714286Y-16255571D01*
X12728571Y-16227000D01*
X12757143Y-16184143D01*
X12771428Y-16169857D01*
X13014286Y-16312714D02*
X13014286Y-16512714D01*
X12942857Y-16198429D02*
X12871428Y-16412714D01*
X13057143Y-16412714D01*
X13400000Y-16512714D02*
X13400000Y-16212714D01*
X13528571Y-16512714D02*
X13528571Y-16355571D01*
X13514286Y-16327000D01*
X13485714Y-16312714D01*
X13442857Y-16312714D01*
X13414286Y-16327000D01*
X13400000Y-16341286D01*
X13714286Y-16512714D02*
X13685714Y-16498429D01*
X13671428Y-16484143D01*
X13657143Y-16455571D01*
X13657143Y-16369857D01*
X13671428Y-16341286D01*
X13685714Y-16327000D01*
X13714286Y-16312714D01*
X13757143Y-16312714D01*
X13785714Y-16327000D01*
X13800000Y-16341286D01*
X13814286Y-16369857D01*
X13814286Y-16455571D01*
X13800000Y-16484143D01*
X13785714Y-16498429D01*
X13757143Y-16512714D01*
X13714286Y-16512714D01*
X13985714Y-16512714D02*
X13957143Y-16498429D01*
X13942857Y-16469857D01*
X13942857Y-16212714D01*
X14214286Y-16498429D02*
X14185714Y-16512714D01*
X14128571Y-16512714D01*
X14100000Y-16498429D01*
X14085714Y-16469857D01*
X14085714Y-16355571D01*
X14100000Y-16327000D01*
X14128571Y-16312714D01*
X14185714Y-16312714D01*
X14214286Y-16327000D01*
X14228571Y-16355571D01*
X14228571Y-16384143D01*
X14085714Y-16412714D01*
X14342857Y-16498429D02*
X14371428Y-16512714D01*
X14428571Y-16512714D01*
X14457143Y-16498429D01*
X14471428Y-16469857D01*
X14471428Y-16455571D01*
X14457143Y-16427000D01*
X14428571Y-16412714D01*
X14385714Y-16412714D01*
X14357143Y-16398429D01*
X14342857Y-16369857D01*
X14342857Y-16355571D01*
X14357143Y-16327000D01*
X14385714Y-16312714D01*
X14428571Y-16312714D01*
X14457143Y-16327000D01*
X14571428Y-16627000D02*
X14585714Y-16612714D01*
X14614286Y-16569857D01*
X14628571Y-16541286D01*
X14642857Y-16498429D01*
X14657143Y-16427000D01*
X14657143Y-16369857D01*
X14642857Y-16298429D01*
X14628571Y-16255571D01*
X14614286Y-16227000D01*
X14585714Y-16184143D01*
X14571428Y-16169857D01*
X7820000Y-17092000D02*
X8085000Y-16827000D01*
X7820000Y-16562000D01*
X7555000Y-16827000D01*
X7820000Y-17092000D01*
X8514286Y-16662714D02*
X8371428Y-16662714D01*
X8357143Y-16805572D01*
X8371428Y-16791286D01*
X8400000Y-16777000D01*
X8471428Y-16777000D01*
X8500000Y-16791286D01*
X8514286Y-16805572D01*
X8528571Y-16834143D01*
X8528571Y-16905572D01*
X8514286Y-16934143D01*
X8500000Y-16948429D01*
X8471428Y-16962714D01*
X8400000Y-16962714D01*
X8371428Y-16948429D01*
X8357143Y-16934143D01*
X8657143Y-16934143D02*
X8671428Y-16948429D01*
X8657143Y-16962714D01*
X8642857Y-16948429D01*
X8657143Y-16934143D01*
X8657143Y-16962714D01*
X8771428Y-16662714D02*
X8957143Y-16662714D01*
X8857143Y-16777000D01*
X8900000Y-16777000D01*
X8928571Y-16791286D01*
X8942857Y-16805572D01*
X8957143Y-16834143D01*
X8957143Y-16905572D01*
X8942857Y-16934143D01*
X8928571Y-16948429D01*
X8900000Y-16962714D01*
X8814286Y-16962714D01*
X8785714Y-16948429D01*
X8771428Y-16934143D01*
X9142857Y-16662714D02*
X9171428Y-16662714D01*
X9200000Y-16677000D01*
X9214286Y-16691286D01*
X9228571Y-16719857D01*
X9242857Y-16777000D01*
X9242857Y-16848429D01*
X9228571Y-16905572D01*
X9214286Y-16934143D01*
X9200000Y-16948429D01*
X9171428Y-16962714D01*
X9142857Y-16962714D01*
X9114286Y-16948429D01*
X9100000Y-16934143D01*
X9085714Y-16905572D01*
X9071428Y-16848429D01*
X9071428Y-16777000D01*
X9085714Y-16719857D01*
X9100000Y-16691286D01*
X9114286Y-16677000D01*
X9142857Y-16662714D01*
X9371428Y-16962714D02*
X9371428Y-16762714D01*
X9371428Y-16791286D02*
X9385714Y-16777000D01*
X9414286Y-16762714D01*
X9457143Y-16762714D01*
X9485714Y-16777000D01*
X9500000Y-16805572D01*
X9500000Y-16962714D01*
X9500000Y-16805572D02*
X9514286Y-16777000D01*
X9542857Y-16762714D01*
X9585714Y-16762714D01*
X9614286Y-16777000D01*
X9628571Y-16805572D01*
X9628571Y-16962714D01*
X9771428Y-16962714D02*
X9771428Y-16762714D01*
X9771428Y-16791286D02*
X9785714Y-16777000D01*
X9814286Y-16762714D01*
X9857143Y-16762714D01*
X9885714Y-16777000D01*
X9900000Y-16805572D01*
X9900000Y-16962714D01*
X9900000Y-16805572D02*
X9914286Y-16777000D01*
X9942857Y-16762714D01*
X9985714Y-16762714D01*
X10014286Y-16777000D01*
X10028571Y-16805572D01*
X10028571Y-16962714D01*
X10614286Y-16648429D02*
X10357143Y-17034143D01*
X11000000Y-16662714D02*
X11028571Y-16662714D01*
X11057143Y-16677000D01*
X11071428Y-16691286D01*
X11085714Y-16719857D01*
X11100000Y-16777000D01*
X11100000Y-16848429D01*
X11085714Y-16905572D01*
X11071428Y-16934143D01*
X11057143Y-16948429D01*
X11028571Y-16962714D01*
X11000000Y-16962714D01*
X10971428Y-16948429D01*
X10957143Y-16934143D01*
X10942857Y-16905572D01*
X10928571Y-16848429D01*
X10928571Y-16777000D01*
X10942857Y-16719857D01*
X10957143Y-16691286D01*
X10971428Y-16677000D01*
X11000000Y-16662714D01*
X11228571Y-16934143D02*
X11242857Y-16948429D01*
X11228571Y-16962714D01*
X11214286Y-16948429D01*
X11228571Y-16934143D01*
X11228571Y-16962714D01*
X11357143Y-16691286D02*
X11371428Y-16677000D01*
X11400000Y-16662714D01*
X11471428Y-16662714D01*
X11500000Y-16677000D01*
X11514286Y-16691286D01*
X11528571Y-16719857D01*
X11528571Y-16748429D01*
X11514286Y-16791286D01*
X11342857Y-16962714D01*
X11528571Y-16962714D01*
X11714286Y-16662714D02*
X11742857Y-16662714D01*
X11771428Y-16677000D01*
X11785714Y-16691286D01*
X11800000Y-16719857D01*
X11814286Y-16777000D01*
X11814286Y-16848429D01*
X11800000Y-16905572D01*
X11785714Y-16934143D01*
X11771428Y-16948429D01*
X11742857Y-16962714D01*
X11714286Y-16962714D01*
X11685714Y-16948429D01*
X11671428Y-16934143D01*
X11657143Y-16905572D01*
X11642857Y-16848429D01*
X11642857Y-16777000D01*
X11657143Y-16719857D01*
X11671428Y-16691286D01*
X11685714Y-16677000D01*
X11714286Y-16662714D01*
X11957143Y-16962714D02*
X12014286Y-16962714D01*
X12042857Y-16948429D01*
X12057143Y-16934143D01*
X12085714Y-16891286D01*
X12100000Y-16834143D01*
X12100000Y-16719857D01*
X12085714Y-16691286D01*
X12071428Y-16677000D01*
X12042857Y-16662714D01*
X11985714Y-16662714D01*
X11957143Y-16677000D01*
X11942857Y-16691286D01*
X11928571Y-16719857D01*
X11928571Y-16791286D01*
X11942857Y-16819857D01*
X11957143Y-16834143D01*
X11985714Y-16848429D01*
X12042857Y-16848429D01*
X12071428Y-16834143D01*
X12085714Y-16819857D01*
X12100000Y-16791286D01*
X12214286Y-16662714D02*
X12214286Y-16719857D01*
X12328571Y-16662714D02*
X12328571Y-16719857D01*
X12771428Y-17077000D02*
X12757143Y-17062714D01*
X12728571Y-17019857D01*
X12714286Y-16991286D01*
X12700000Y-16948429D01*
X12685714Y-16877000D01*
X12685714Y-16819857D01*
X12700000Y-16748429D01*
X12714286Y-16705571D01*
X12728571Y-16677000D01*
X12757143Y-16634143D01*
X12771428Y-16619857D01*
X13042857Y-16962714D02*
X12871428Y-16962714D01*
X12957143Y-16962714D02*
X12957143Y-16662714D01*
X12928571Y-16705571D01*
X12900000Y-16734143D01*
X12871428Y-16748429D01*
X13400000Y-16962714D02*
X13400000Y-16662714D01*
X13528571Y-16962714D02*
X13528571Y-16805572D01*
X13514286Y-16777000D01*
X13485714Y-16762714D01*
X13442857Y-16762714D01*
X13414286Y-16777000D01*
X13400000Y-16791286D01*
X13714286Y-16962714D02*
X13685714Y-16948429D01*
X13671428Y-16934143D01*
X13657143Y-16905572D01*
X13657143Y-16819857D01*
X13671428Y-16791286D01*
X13685714Y-16777000D01*
X13714286Y-16762714D01*
X13757143Y-16762714D01*
X13785714Y-16777000D01*
X13800000Y-16791286D01*
X13814286Y-16819857D01*
X13814286Y-16905572D01*
X13800000Y-16934143D01*
X13785714Y-16948429D01*
X13757143Y-16962714D01*
X13714286Y-16962714D01*
X13985714Y-16962714D02*
X13957143Y-16948429D01*
X13942857Y-16919857D01*
X13942857Y-16662714D01*
X14214286Y-16948429D02*
X14185714Y-16962714D01*
X14128571Y-16962714D01*
X14100000Y-16948429D01*
X14085714Y-16919857D01*
X14085714Y-16805572D01*
X14100000Y-16777000D01*
X14128571Y-16762714D01*
X14185714Y-16762714D01*
X14214286Y-16777000D01*
X14228571Y-16805572D01*
X14228571Y-16834143D01*
X14085714Y-16862714D01*
X14328571Y-17077000D02*
X14342857Y-17062714D01*
X14371428Y-17019857D01*
X14385714Y-16991286D01*
X14400000Y-16948429D01*
X14414286Y-16877000D01*
X14414286Y-16819857D01*
X14400000Y-16748429D01*
X14385714Y-16705571D01*
X14371428Y-16677000D01*
X14342857Y-16634143D01*
X14328571Y-16619857D01*
M02*
